<svg width="245" height="50" viewBox="0 0 245 50" fill="none" xmlns="http://www.w3.org/2000/svg">
<path d="M0 25.2741C0 -9.87384 79.5049 13.0553 99.0357 17.0025C101.491 17.4987 103.931 17.2768 106.373 16.7221C116.142 14.5036 143.379 8.25654 162.782 3.20826C186.812 -3.04378 242.623 -2.30824 242.623 25.2741C242.623 33.3985 242.623 44.3978 222.081 49.1787C203.644 53.4699 122.133 39.6879 105.628 36.8195C103.653 36.4763 101.736 36.3207 99.7394 36.5019C81.5043 38.1577 0 49.2269 0 25.2741Z" fill="#383434"/>
<path d="M88.7097 21.0922C88.8804 20.95 89.1221 20.8789 89.435 20.8789C90.4019 20.9642 91.2693 21.2344 92.0372 21.6894C92.805 22.116 93.4449 22.6563 93.9568 23.3105C94.4972 23.9361 94.8953 24.6329 95.1513 25.4008C95.4357 26.1686 95.5779 26.9081 95.5779 27.619V27.8323C95.777 28.4865 95.9903 28.9984 96.2178 29.3681C96.4453 29.7378 96.687 30.0222 96.943 30.2213C97.2274 30.4203 97.4976 30.5483 97.7535 30.6052C98.0379 30.6336 98.3223 30.6479 98.6067 30.6479C98.8627 30.6479 99.1328 30.591 99.4172 30.4772C99.7301 30.3635 100.086 30.3066 100.484 30.3066C100.853 30.3066 101.152 30.463 101.38 30.7758C101.636 31.0602 101.764 31.3731 101.764 31.7143C101.764 32.0272 101.664 32.3116 101.465 32.5675C101.294 32.795 101.053 32.9941 100.74 33.1648C100.455 33.307 100.128 33.4207 99.7585 33.506C99.4172 33.5629 99.076 33.5914 98.7347 33.5914C97.654 33.5914 96.7155 33.3638 95.9192 32.9088C95.1229 32.4538 94.4972 31.9276 94.0422 31.3304C93.4734 31.9845 92.7908 32.4964 91.9945 32.8661C91.1982 33.2359 90.3592 33.4207 89.4776 33.4207C88.6813 33.4207 87.885 33.2927 87.0887 33.0368C86.2924 32.7808 85.5814 32.3969 84.9557 31.885C84.3301 31.3731 83.8181 30.7474 83.42 30.008C83.0218 29.2401 82.8228 28.3443 82.8228 27.3204C82.8228 26.7232 82.9223 26.0975 83.1214 25.4434C83.3489 24.7893 83.6759 24.1636 84.1025 23.5664C84.5291 22.9692 85.041 22.4431 85.6383 21.988C86.2639 21.533 86.9891 21.2202 87.8139 21.0495H88.0699C88.3542 21.0495 88.5675 21.0637 88.7097 21.0922ZM88.9657 23.7797C87.9703 24.0925 87.2451 24.5476 86.7901 25.1448C86.335 25.7136 86.1075 26.3819 86.1075 27.1498C86.1075 28.0599 86.335 28.842 86.7901 29.4961C87.2735 30.1217 88.1552 30.4346 89.435 30.4346C90.1744 30.4346 90.8285 30.1644 91.3973 29.624C91.9661 29.0837 92.2505 28.3585 92.2505 27.4484C92.2505 26.8227 92.1509 26.3108 91.9519 25.9127C91.7812 25.4861 91.5395 25.1448 91.2266 24.8889C90.9422 24.6045 90.601 24.3912 90.2028 24.249C89.8047 24.0783 89.3923 23.9219 88.9657 23.7797Z" fill="white"/>
<path d="M65.6323 21.9027C65.4048 21.5898 65.291 21.3055 65.291 21.0495C65.291 20.6229 65.4901 20.2532 65.8882 19.9404C66.2864 19.6275 66.6988 19.4711 67.1254 19.4711C67.4098 19.4711 67.6799 19.5706 67.9359 19.7697C68.1919 19.9404 68.4051 20.1536 68.5758 20.4096C68.7749 20.6656 68.9455 20.95 69.0877 21.2628C69.2583 21.5472 69.4005 21.8031 69.5143 22.0307C70.0546 21.8316 70.6945 21.6609 71.434 21.5187C72.2018 21.3481 73.0124 21.2628 73.8655 21.2628C74.2353 21.2628 74.6903 21.2912 75.2306 21.3481C75.771 21.3765 76.2971 21.5187 76.809 21.7747C77.3494 22.0022 77.8329 22.3862 78.2595 22.9265C78.7145 23.4384 79.0558 24.1778 79.2833 25.1448C79.397 25.6567 79.4539 26.2824 79.4539 27.0218C79.4824 27.7612 79.5108 28.5291 79.5392 29.3254C79.5108 30.008 79.4966 30.7047 79.4966 31.4157C79.4966 32.0983 79.4397 32.7239 79.3259 33.2927C79.2406 33.8331 79.0842 34.2739 78.8567 34.6152C78.6292 34.9564 78.2879 35.1271 77.8329 35.1271C77.3494 35.1271 76.937 34.9849 76.5957 34.7005C76.2829 34.4161 76.1265 34.0464 76.1265 33.5913C76.1265 32.7666 76.1691 31.8281 76.2545 30.7758C76.3398 29.7236 76.3824 28.7708 76.3824 27.9176C76.3824 27.1498 76.3113 26.5241 76.1691 26.0406C76.0554 25.5572 75.8847 25.1875 75.6572 24.9315C75.4297 24.6471 75.1311 24.4622 74.7614 24.3769C74.3917 24.2916 73.9793 24.2489 73.5243 24.2489C73.0408 24.2489 72.5431 24.32 72.0312 24.4622C71.5477 24.576 71.0642 24.704 70.5808 24.8462C70.6092 25.3865 70.6234 25.9411 70.6234 26.5099C70.6519 27.0787 70.6661 27.6759 70.6661 28.3016C70.6661 29.297 70.6661 30.2213 70.6661 31.0744C70.6661 31.8992 70.6092 32.6244 70.4955 33.2501C70.4101 33.8473 70.2253 34.3165 69.9409 34.6578C69.6565 35.0275 69.2441 35.2124 68.7038 35.2124C68.3056 35.1555 67.9786 35.0133 67.7226 34.7858C67.4666 34.5583 67.3387 34.2597 67.3387 33.89C67.3387 33.0368 67.3671 32.1409 67.424 31.2024C67.4809 30.2639 67.5093 29.2543 67.5093 28.1736C67.5093 27.6333 67.4951 27.1498 67.4666 26.7232C67.4666 26.2966 67.4524 25.8842 67.424 25.4861C67.1111 25.0026 66.8268 24.4622 66.5708 23.865C66.3433 23.2393 66.0304 22.5852 65.6323 21.9027Z" fill="white"/>
<path d="M50.4021 21.0922C50.5728 20.95 50.8145 20.8789 51.1273 20.8789C52.0943 20.9642 52.9617 21.2344 53.7296 21.6894C54.4974 22.116 55.1373 22.6563 55.6492 23.3105C56.1896 23.9361 56.5877 24.6329 56.8437 25.4008C57.1281 26.1686 57.2703 26.9081 57.2703 27.619V27.8323C57.4694 28.4865 57.6827 28.9984 57.9102 29.3681C58.1377 29.7378 58.3794 30.0222 58.6354 30.2213C58.9198 30.4203 59.1899 30.5483 59.4459 30.6052C59.7303 30.6336 60.0147 30.6479 60.2991 30.6479C60.555 30.6479 60.8252 30.591 61.1096 30.4772C61.4225 30.3635 61.7779 30.3066 62.1761 30.3066C62.5458 30.3066 62.8444 30.463 63.0719 30.7758C63.3279 31.0602 63.4559 31.3731 63.4559 31.7143C63.4559 32.0272 63.3563 32.3116 63.1573 32.5675C62.9866 32.795 62.7449 32.9941 62.4321 33.1648C62.1477 33.307 61.8206 33.4207 61.4509 33.506C61.1096 33.5629 60.7683 33.5914 60.4271 33.5914C59.3464 33.5914 58.4079 33.3638 57.6116 32.9088C56.8152 32.4538 56.1896 31.9276 55.7345 31.3304C55.1658 31.9845 54.4832 32.4964 53.6869 32.8661C52.8906 33.2359 52.0516 33.4207 51.17 33.4207C50.3737 33.4207 49.5774 33.2927 48.7811 33.0368C47.9848 32.7808 47.2738 32.3969 46.6481 31.885C46.0224 31.3731 45.5105 30.7474 45.1124 30.008C44.7142 29.2401 44.5151 28.3443 44.5151 27.3204C44.5151 26.7232 44.6147 26.0975 44.8138 25.4434C45.0413 24.7893 45.3683 24.1636 45.7949 23.5664C46.2215 22.9692 46.7334 22.4431 47.3307 21.988C47.9563 21.533 48.6815 21.2202 49.5063 21.0495H49.7622C50.0466 21.0495 50.2599 21.0637 50.4021 21.0922ZM50.6581 23.7797C49.6627 24.0925 48.9375 24.5476 48.4825 25.1448C48.0274 25.7136 47.7999 26.3819 47.7999 27.1498C47.7999 28.0599 48.0274 28.842 48.4825 29.4961C48.9659 30.1217 49.8476 30.4346 51.1273 30.4346C51.8668 30.4346 52.5209 30.1644 53.0897 29.624C53.6585 29.0837 53.9429 28.3585 53.9429 27.4484C53.9429 26.8227 53.8433 26.3108 53.6442 25.9127C53.4736 25.4861 53.2319 25.1448 52.919 24.8889C52.6346 24.6045 52.2934 24.3912 51.8952 24.249C51.497 24.0783 51.0847 23.9219 50.6581 23.7797Z" fill="white"/>
<path d="M27.9207 35.2977C27.7501 35.383 27.5936 35.4257 27.4514 35.4257C27.0817 35.4257 26.7262 35.255 26.385 34.9138C26.0437 34.6009 25.873 34.2312 25.873 33.8046C25.873 33.4633 26.0152 33.1647 26.2996 32.9088C27.295 31.9703 28.262 31.0318 29.2005 30.0932C30.1674 29.1263 31.0917 28.1594 31.9733 27.1924C30.9779 26.0833 30.139 25.1448 29.4564 24.3769C28.7739 23.5806 28.2193 22.9265 27.7927 22.4146C27.3661 21.9027 27.0533 21.4903 26.8542 21.1774C26.6836 20.8362 26.5983 20.5518 26.5983 20.3243C26.5983 19.8692 26.7405 19.5137 27.0248 19.2578C27.3092 18.9734 27.6505 18.8312 28.0487 18.8312C28.5037 18.8312 28.9445 19.0587 29.3711 19.5137L33.9783 25.0168C34.8884 23.993 35.7558 22.9976 36.5805 22.0306C37.4337 21.0637 38.2443 20.111 39.0121 19.1725C39.325 18.7743 39.7089 18.5752 40.1639 18.5752C40.5621 18.5752 40.9176 18.7316 41.2304 19.0445C41.5717 19.3573 41.7423 19.7839 41.7423 20.3243C41.7423 20.694 41.529 21.1774 41.1024 21.7747C40.6758 22.3435 40.1497 22.9691 39.524 23.6517C38.9268 24.3058 38.2869 24.9599 37.6044 25.614C36.9503 26.2681 36.3957 26.8511 35.9406 27.363L41.3157 33.7619C41.5717 34.0179 41.6997 34.3165 41.6997 34.6578C41.6997 35.0559 41.529 35.4114 41.1877 35.7243C40.8465 36.0371 40.5052 36.1935 40.1639 36.1935C39.8795 36.1935 39.4814 35.966 38.9695 35.511C38.486 35.0559 37.9599 34.5014 37.3911 33.8473C36.8223 33.1647 36.225 32.4395 35.5994 31.6716C35.0021 30.8753 34.4334 30.1359 33.893 29.4534C32.8692 30.4772 31.8596 31.4868 30.8642 32.4822C29.8688 33.4776 28.8876 34.4161 27.9207 35.2977Z" fill="white"/>
<path d="M13.5445 13.5413C13.8288 13.2569 14.1417 13.1147 14.483 13.1147C15.393 13.1147 16.3315 13.3565 17.2985 13.8399C18.2654 14.295 19.1328 14.9491 19.9007 15.8023C20.697 16.6554 21.3511 17.7077 21.863 18.959C22.3749 20.1819 22.6309 21.5613 22.6309 23.097C22.6309 24.4621 22.446 25.7561 22.0763 26.979C21.735 28.2019 21.1947 29.2826 20.4553 30.2211C19.7158 31.1596 18.7773 31.899 17.6397 32.4394C16.5306 32.9797 15.1939 33.2499 13.6298 33.2499C12.5491 33.2499 11.5252 33.0082 10.5583 32.5247C9.61979 32.0128 8.78083 31.3303 8.0414 30.4771C7.33041 29.6239 6.76162 28.6143 6.33502 27.4483C5.93687 26.2822 5.73779 25.0309 5.73779 23.6942C5.73779 22.1585 5.99375 20.7507 6.50566 19.471C7.01757 18.1912 7.62902 17.0963 8.34001 16.1862C9.07944 15.2477 9.83309 14.5225 10.601 14.0106C11.3973 13.4986 12.0798 13.2427 12.6486 13.2427C12.933 13.2427 13.2316 13.3422 13.5445 13.5413ZM13.8431 15.9302C13.7862 15.9871 13.7435 16.0156 13.7151 16.0156H13.6724C12.3073 16.6412 11.1982 17.6366 10.345 19.0017C9.52025 20.3384 9.10788 22.0163 9.10788 24.0355C9.10788 26.0547 9.57713 27.5762 10.5156 28.6001C11.4826 29.6239 12.6059 30.1358 13.8857 30.1358C14.7674 30.1358 15.5352 29.9509 16.1893 29.5812C16.8719 29.2115 17.4407 28.7138 17.8957 28.0881C18.3507 27.4625 18.692 26.7515 18.9195 25.9552C19.1755 25.1304 19.3035 24.2772 19.3035 23.3956C19.3035 22.1727 19.1328 21.1205 18.7915 20.2388C18.4787 19.3288 18.0663 18.5893 17.5544 18.0205C17.0425 17.4233 16.4595 16.9683 15.8054 16.6554C15.1513 16.3142 14.4972 16.0724 13.8431 15.9302Z" fill="white"/>
<path d="M235.441 16.2473C235.658 15.9104 235.93 15.7059 236.257 15.6337C236.583 15.5374 236.895 15.4893 237.195 15.4893C237.657 15.4893 238.201 16.0668 238.826 17.2219C239.451 18.3769 240.104 19.8809 240.783 21.7337C241.49 23.5866 242.197 25.6801 242.904 28.0143C243.611 30.3484 244.25 32.7066 244.821 35.0889C244.821 35.137 244.821 35.1852 244.821 35.2333C244.848 35.2573 244.862 35.2934 244.862 35.3416C244.862 35.7266 244.685 36.0514 244.331 36.3161C243.978 36.5808 243.57 36.7132 243.108 36.7132C242.809 36.7132 242.551 36.629 242.333 36.4605C242.116 36.3161 241.966 36.0514 241.885 35.6664C241.749 34.9686 241.517 34.1143 241.191 33.1037C240.865 32.093 240.552 31.0102 240.253 29.8551C239.655 29.9032 238.948 29.9514 238.133 29.9995C237.344 30.0236 236.528 30.0356 235.686 30.0356C235.251 30.0356 234.829 30.0356 234.421 30.0356C234.041 30.0115 233.66 29.9875 233.279 29.9634C232.844 31.1906 232.45 32.2975 232.097 33.2841C231.743 34.2707 231.471 35.0648 231.281 35.6664C231.145 36.0755 230.941 36.3522 230.669 36.4966C230.425 36.641 230.153 36.7132 229.854 36.7132C229.473 36.7132 229.106 36.5808 228.753 36.3161C228.426 36.0755 228.263 35.7867 228.263 35.4498C228.263 35.4017 228.29 35.2814 228.345 35.0889L231.73 25.4515C232.056 24.489 232.396 23.5385 232.749 22.6C233.103 21.6375 233.443 20.7471 233.769 19.929C234.095 19.1108 234.394 18.3889 234.666 17.7633C234.965 17.1136 235.223 16.6082 235.441 16.2473ZM236.991 20.0373C236.556 21.072 236.093 22.2391 235.604 23.5385C235.115 24.8379 234.639 26.1373 234.177 27.4367C234.476 27.4367 234.788 27.4488 235.115 27.4728C235.441 27.4728 235.767 27.4728 236.093 27.4728C237.317 27.4728 238.445 27.4367 239.478 27.3646C239.071 26.0651 238.649 24.7777 238.214 23.5024C237.779 22.227 237.371 21.072 236.991 20.0373Z" fill="white"/>
<path d="M214.447 34.8005C214.365 35.1615 214.161 35.4382 213.835 35.6307C213.509 35.7991 213.169 35.8834 212.815 35.8834C212.407 35.8834 212.068 35.7871 211.796 35.5946C211.551 35.378 211.429 35.0652 211.429 34.6561L211.918 26.4265C211.972 25.6083 212 24.8142 212 24.0442C212.027 23.2742 212.04 22.5402 212.04 21.8424C212.04 20.6152 212 19.6165 211.918 18.8465C211.728 18.5818 211.51 18.3532 211.265 18.1607C211.021 17.9441 210.898 17.6674 210.898 17.3305C210.898 16.6808 211.469 16.3559 212.611 16.3559C213.101 16.3559 213.481 16.4402 213.753 16.6086C214.025 16.7771 214.351 17.0177 214.732 17.3305L214.854 17.4749C215.153 18.0284 215.643 18.8104 216.322 19.8211C217.029 20.8077 217.831 21.9146 218.729 23.1418C219.626 24.345 220.55 25.5963 221.502 26.8957C222.481 28.1951 223.391 29.4103 224.234 30.5413C224.316 28.3034 224.357 25.9693 224.357 23.5389C224.357 22.3357 224.343 21.1566 224.316 20.0015C224.316 18.8224 224.289 17.6915 224.234 16.6086C224.234 16.3199 224.384 16.1033 224.683 15.9589C224.982 15.7905 225.322 15.7062 225.702 15.7062C226.029 15.7062 226.341 15.7664 226.64 15.8867C226.94 16.007 227.143 16.1995 227.252 16.4642C227.307 18.269 227.334 19.9294 227.334 21.4453C227.361 22.9373 227.375 24.4051 227.375 25.8489C227.375 27.2927 227.32 28.7365 227.211 30.1804C227.13 31.6001 227.062 33.1401 227.007 34.8005C226.926 35.2096 226.736 35.5104 226.437 35.7029C226.165 35.8954 225.879 35.9917 225.58 35.9917C225.281 35.9917 225.023 35.9435 224.805 35.8473C224.588 35.7751 224.37 35.5946 224.153 35.3058C223.446 34.2711 222.685 33.2123 221.869 32.1295C221.08 31.0466 220.278 29.9758 219.463 28.917C218.674 27.8582 217.899 26.8235 217.138 25.8129C216.377 24.7781 215.67 23.8156 215.017 22.9252C215.017 24.1044 215.004 25.2835 214.977 26.4626C214.949 27.6417 214.909 28.7606 214.854 29.8194C214.8 30.8541 214.732 31.8046 214.65 32.6709C214.596 33.5131 214.528 34.223 214.447 34.8005Z" fill="white"/>
<path d="M202.178 17.3302C201.961 17.0655 201.852 16.8249 201.852 16.6083C201.852 16.2474 202.042 15.9345 202.423 15.6698C202.804 15.4051 203.198 15.2728 203.606 15.2728C203.986 15.2728 204.353 15.4412 204.707 15.7781C205.087 16.115 205.427 16.5241 205.726 17.0054C206.053 17.4626 206.338 17.9438 206.583 18.4492C206.855 18.9304 207.072 19.3275 207.235 19.6403C207.344 20.9397 207.426 22.3474 207.48 23.8634C207.562 25.3794 207.602 26.8954 207.602 28.4114C207.602 29.9274 207.575 31.3592 207.521 32.7067C207.466 34.0543 207.371 35.1852 207.235 36.0996C207.181 36.4847 207.004 36.7614 206.705 36.9298C206.433 37.0983 206.148 37.1825 205.849 37.1825C205.387 37.1825 204.965 37.0742 204.584 36.8576C204.231 36.6411 204.054 36.3403 204.054 35.9553C204.054 34.9446 204.095 33.7655 204.177 32.4179C204.285 31.0704 204.34 29.6627 204.34 28.1948C204.34 26.7991 204.326 25.4155 204.299 24.0439C204.272 22.6723 204.217 21.445 204.136 20.3622C203.891 19.905 203.606 19.4117 203.279 18.8823C202.953 18.3529 202.586 17.8355 202.178 17.3302Z" fill="white"/>
<path d="M182.082 34.3672C182.217 32.7068 182.326 31.0825 182.408 29.4943C182.489 27.9062 182.53 26.2939 182.53 24.6576C182.53 23.5026 182.503 22.3355 182.449 21.1564C182.421 19.9773 182.381 18.7741 182.326 17.5469C182.326 17.2822 182.476 17.0777 182.775 16.9333C183.101 16.7648 183.455 16.6806 183.835 16.6806C184.134 16.6806 184.42 16.7287 184.692 16.825C184.991 16.9212 185.195 17.0656 185.303 17.2581C185.956 16.9934 186.649 16.7889 187.383 16.6445C188.145 16.4761 188.906 16.3918 189.667 16.3918C191.353 16.3918 192.78 16.6806 193.949 17.2581C195.146 17.8116 196.111 18.5455 196.845 19.4599C197.579 20.3503 198.109 21.3609 198.435 22.4919C198.789 23.6229 198.965 24.7539 198.965 25.8848C198.965 27.3768 198.694 28.7364 198.15 29.9636C197.633 31.1668 196.94 32.2135 196.07 33.1039C195.227 33.9701 194.248 34.6559 193.134 35.1613C192.046 35.6666 190.918 35.9554 189.749 36.0276C189.531 36.0516 189.273 36.0636 188.974 36.0636C188.675 36.0877 188.335 36.0997 187.954 36.0997C186.35 36.0997 184.923 35.9433 183.672 35.6305C183.291 35.6305 182.924 35.5703 182.571 35.45C182.245 35.3057 182.082 35.0049 182.082 34.5477V34.3672ZM185.426 20.254C185.426 20.8797 185.426 21.4692 185.426 22.0227C185.453 22.5761 185.466 23.1296 185.466 23.683C185.466 24.5012 185.453 25.2953 185.426 26.0653C185.426 26.8113 185.412 27.5693 185.385 28.3393C185.358 29.1093 185.317 29.9034 185.263 30.7216C185.235 31.5157 185.208 32.3579 185.181 33.2482C186.024 33.4167 186.921 33.5009 187.873 33.5009C188.715 33.5009 189.599 33.3806 190.524 33.1399C191.475 32.8753 192.345 32.4782 193.134 31.9488C193.922 31.3954 194.575 30.6855 195.091 29.8192C195.608 28.9289 195.866 27.846 195.866 26.5706C195.866 25.56 195.744 24.5975 195.499 23.683C195.254 22.7686 194.86 21.9745 194.316 21.3008C193.8 20.6029 193.12 20.0495 192.277 19.6404C191.462 19.2313 190.469 19.0268 189.3 19.0268C188.675 19.0268 188.036 19.111 187.383 19.2794C186.731 19.4479 186.078 19.7727 185.426 20.254Z" fill="white"/>
<path d="M171.283 35.8831C171.066 35.5462 170.807 35.065 170.508 34.4393C170.236 33.7896 169.937 33.0557 169.611 32.2375C169.285 31.4194 168.945 30.5411 168.592 29.6026C168.238 28.6641 167.898 27.7016 167.572 26.715L164.187 17.0415C164.133 16.8971 164.105 16.7768 164.105 16.6806C164.105 16.3196 164.282 16.0188 164.636 15.7782C164.989 15.5376 165.356 15.4172 165.737 15.4172C166.036 15.4172 166.308 15.5015 166.552 15.6699C166.797 15.8383 166.987 16.103 167.123 16.464C167.368 17.1859 167.708 18.1966 168.143 19.496C168.578 20.7713 169.054 22.155 169.57 23.6469C170.114 25.1148 170.671 26.6067 171.242 28.1227C171.813 29.6146 172.344 30.9381 172.833 32.0931C173.241 30.9862 173.676 29.7109 174.138 28.2671C174.627 26.8233 175.103 25.3795 175.565 23.9357C176.028 22.4678 176.449 21.0842 176.83 19.7847C177.21 18.4613 177.509 17.3543 177.727 16.464C177.808 16.103 177.958 15.8504 178.175 15.706C178.42 15.5616 178.692 15.4894 178.991 15.4894C179.426 15.4894 179.82 15.6218 180.174 15.8865C180.527 16.1271 180.704 16.4399 180.704 16.8249C180.704 17.1859 180.582 17.7514 180.337 18.5214C180.092 19.2914 179.834 20.1337 179.562 21.0481C179.181 22.3475 178.746 23.7552 178.257 25.2712C177.795 26.7872 177.319 28.255 176.83 29.6748C176.34 31.0705 175.864 32.3338 175.402 33.4648C174.967 34.5957 174.6 35.4259 174.301 35.9553C174.165 36.22 173.975 36.4005 173.73 36.4967C173.513 36.6171 173.295 36.6892 173.078 36.7133C172.942 36.7133 172.765 36.6652 172.547 36.5689H172.425C172.208 36.5689 171.99 36.5208 171.773 36.4246C171.582 36.3283 171.419 36.1478 171.283 35.8831Z" fill="white"/>
<path d="M154.856 16.2473C155.074 15.9104 155.346 15.7059 155.672 15.6337C155.998 15.5374 156.311 15.4893 156.61 15.4893C157.072 15.4893 157.616 16.0668 158.241 17.2219C158.867 18.3769 159.519 19.8809 160.199 21.7337C160.906 23.5866 161.613 25.6801 162.32 28.0143C163.026 30.3484 163.665 32.7066 164.236 35.0889C164.236 35.137 164.236 35.1852 164.236 35.2333C164.264 35.2573 164.277 35.2934 164.277 35.3416C164.277 35.7266 164.1 36.0514 163.747 36.3161C163.394 36.5808 162.986 36.7132 162.524 36.7132C162.224 36.7132 161.966 36.629 161.749 36.4605C161.531 36.3161 161.382 36.0514 161.3 35.6664C161.164 34.9686 160.933 34.1143 160.607 33.1037C160.28 32.093 159.968 31.0102 159.669 29.8551C159.071 29.9032 158.364 29.9514 157.548 29.9995C156.76 30.0236 155.944 30.0356 155.101 30.0356C154.666 30.0356 154.245 30.0356 153.837 30.0356C153.456 30.0115 153.076 29.9875 152.695 29.9634C152.26 31.1906 151.866 32.2975 151.512 33.2841C151.159 34.2707 150.887 35.0648 150.697 35.6664C150.561 36.0755 150.357 36.3522 150.085 36.4966C149.84 36.641 149.568 36.7132 149.269 36.7132C148.889 36.7132 148.522 36.5808 148.168 36.3161C147.842 36.0755 147.679 35.7867 147.679 35.4498C147.679 35.4017 147.706 35.2814 147.76 35.0889L151.145 25.4515C151.471 24.489 151.811 23.5385 152.165 22.6C152.518 21.6375 152.858 20.7471 153.184 19.929C153.511 19.1108 153.81 18.3889 154.082 17.7633C154.381 17.1136 154.639 16.6082 154.856 16.2473ZM156.406 20.0373C155.971 21.072 155.509 22.2391 155.02 23.5385C154.53 24.8379 154.054 26.1373 153.592 27.4367C153.891 27.4367 154.204 27.4488 154.53 27.4728C154.856 27.4728 155.183 27.4728 155.509 27.4728C156.732 27.4728 157.861 27.4367 158.894 27.3646C158.486 26.0651 158.065 24.7777 157.63 23.5024C157.195 22.227 156.787 21.072 156.406 20.0373Z" fill="white"/>
<path d="M130.762 17.3302C130.544 17.0655 130.436 16.8249 130.436 16.6083C130.436 16.2474 130.626 15.9345 131.007 15.6698C131.387 15.4051 131.781 15.2728 132.189 15.2728C132.461 15.2728 132.706 15.357 132.923 15.5255C133.168 15.6698 133.385 15.8623 133.576 16.103C133.793 16.3436 133.984 16.5963 134.147 16.861C134.337 17.1016 134.5 17.3302 134.636 17.5468C135.261 17.0655 135.968 16.6564 136.757 16.3196C137.545 15.9827 138.429 15.8142 139.408 15.8142C140.821 15.8142 142.004 16.0188 142.956 16.4278C143.935 16.8129 144.723 17.3302 145.321 17.9799C145.946 18.6296 146.409 19.3756 146.708 20.2178C147.007 21.036 147.184 21.8782 147.238 22.7445C147.238 23.2498 147.156 23.7912 146.993 24.3687C146.83 24.9463 146.572 25.5118 146.218 26.0652C145.892 26.6187 145.471 27.136 144.954 27.6173C144.438 28.0745 143.826 28.4595 143.119 28.7723C143.989 29.5183 144.777 30.4568 145.484 31.5878C146.218 32.6947 146.776 33.9339 147.156 35.3055C147.156 35.3537 147.156 35.4018 147.156 35.4499C147.184 35.474 147.197 35.5101 147.197 35.5582C147.197 35.9432 147.007 36.232 146.626 36.4245C146.273 36.6411 145.865 36.7493 145.403 36.7493C145.158 36.7493 144.927 36.7012 144.709 36.605C144.492 36.5087 144.356 36.3643 144.302 36.1718C143.839 34.6558 143.241 33.3444 142.507 32.2375C141.773 31.1306 140.781 30.1801 139.53 29.386C138.225 29.386 137.11 29.1694 136.186 28.7362C136.186 30.1801 136.159 31.5517 136.104 32.8511C136.05 34.1505 135.955 35.2334 135.819 36.0996C135.764 36.4606 135.588 36.7253 135.289 36.8937C135.017 37.0862 134.731 37.1825 134.432 37.1825C133.97 37.1825 133.549 37.0742 133.168 36.8576C132.815 36.6411 132.638 36.3403 132.638 35.9553C132.638 34.9446 132.679 33.7655 132.76 32.4179C132.869 31.0704 132.923 29.6627 132.923 28.1948C132.923 26.7991 132.91 25.4155 132.882 24.0439C132.855 22.6723 132.801 21.445 132.719 20.3622C132.475 19.905 132.189 19.4117 131.863 18.8823C131.537 18.3529 131.17 17.8355 130.762 17.3302ZM135.86 20.2178C135.941 21.0841 135.996 21.9985 136.023 22.961C136.077 23.8995 136.118 24.85 136.145 25.8125C136.607 26.1976 137.124 26.4743 137.695 26.6427C138.293 26.7871 139 26.8593 139.816 26.8593C140.631 26.8593 141.311 26.7029 141.855 26.3901C142.398 26.0772 142.833 25.6922 143.16 25.235C143.486 24.7778 143.717 24.2966 143.853 23.7912C143.989 23.2618 144.057 22.7926 144.057 22.3835C144.002 21.9504 143.88 21.5052 143.69 21.048C143.5 20.5908 143.228 20.1817 142.874 19.8208C142.521 19.4598 142.072 19.159 141.528 18.9184C141.012 18.6778 140.386 18.5574 139.652 18.5574C138.701 18.5574 137.926 18.7139 137.328 19.0267C136.73 19.3395 136.24 19.7366 135.86 20.2178Z" fill="white"/>
<path d="M112.621 17.3302C112.404 17.0655 112.295 16.8249 112.295 16.6083C112.295 16.2474 112.485 15.9345 112.866 15.6698C113.247 15.4051 113.641 15.2728 114.049 15.2728C114.32 15.2728 114.565 15.357 114.783 15.5255C115.027 15.6698 115.245 15.8623 115.435 16.103C115.653 16.3436 115.843 16.5963 116.006 16.861C116.196 17.1016 116.36 17.3302 116.496 17.5468C117.121 17.0655 117.828 16.6564 118.616 16.3196C119.405 15.9827 120.288 15.8142 121.267 15.8142C122.681 15.8142 123.864 16.0188 124.815 16.4278C125.794 16.8129 126.582 17.3302 127.181 17.9799C127.806 18.6296 128.268 19.3756 128.567 20.2178C128.866 21.036 129.043 21.8782 129.097 22.7445C129.097 23.4423 128.948 24.1762 128.649 24.9463C128.35 25.7163 127.901 26.4382 127.303 27.112C126.705 27.7617 125.943 28.3031 125.019 28.7362C124.095 29.1694 123.007 29.386 121.756 29.386C121.022 29.386 120.343 29.3258 119.717 29.2055C119.119 29.0852 118.562 28.9288 118.045 28.7362C118.045 30.1801 118.018 31.5517 117.964 32.8511C117.909 34.1505 117.814 35.2334 117.678 36.0996C117.624 36.4606 117.447 36.7253 117.148 36.8937C116.876 37.0862 116.591 37.1825 116.292 37.1825C115.829 37.1825 115.408 37.0742 115.027 36.8576C114.674 36.6411 114.497 36.3403 114.497 35.9553C114.497 34.9446 114.538 33.7655 114.62 32.4179C114.728 31.0704 114.783 29.6627 114.783 28.1948C114.783 26.7991 114.769 25.4155 114.742 24.0439C114.715 22.6723 114.66 21.445 114.579 20.3622C114.334 19.905 114.049 19.4117 113.722 18.8823C113.396 18.3529 113.029 17.8355 112.621 17.3302ZM117.719 20.2178C117.801 21.0841 117.855 21.9985 117.882 22.961C117.936 23.8995 117.977 24.85 118.004 25.8125C118.467 26.1976 118.983 26.4743 119.554 26.6427C120.152 26.7871 120.859 26.8593 121.675 26.8593C122.491 26.8593 123.17 26.7029 123.714 26.3901C124.258 26.0772 124.693 25.6922 125.019 25.235C125.345 24.7778 125.576 24.2966 125.712 23.7912C125.848 23.2618 125.916 22.7926 125.916 22.3835C125.862 21.9504 125.74 21.5052 125.549 21.048C125.359 20.5908 125.087 20.1817 124.734 19.8208C124.38 19.4598 123.932 19.159 123.388 18.9184C122.871 18.6778 122.246 18.5574 121.512 18.5574C120.56 18.5574 119.785 18.7139 119.187 19.0267C118.589 19.3395 118.1 19.7366 117.719 20.2178Z" fill="white"/>
</svg>
