<svg width="299" height="61" viewBox="0 0 299 61" fill="none" xmlns="http://www.w3.org/2000/svg">
<path d="M0 30.8344C0 -12.5439 99.2614 16.5866 121.624 20.9012C124.083 21.3758 126.512 21.1412 128.955 20.5871C140.094 18.0609 174.355 10.2207 198.594 3.91408C227.911 -3.71342 296 -2.81605 296 30.8344C296 40.7462 296 54.1653 270.939 59.998C248.212 65.2877 146.927 48.0674 128.264 44.8151C126.29 44.4709 124.311 44.3038 122.314 44.4763C101.394 46.2835 0 60.3433 0 30.8344Z" fill="#383434"/>
<path d="M108.226 25.7324C108.434 25.559 108.729 25.4722 109.111 25.4722C110.29 25.5763 111.349 25.9059 112.286 26.4611C113.222 26.9815 114.003 27.6407 114.628 28.4388C115.287 29.2021 115.773 30.0521 116.085 30.9889C116.432 31.9257 116.605 32.8278 116.605 33.6952V33.9555C116.848 34.7535 117.108 35.378 117.386 35.8291C117.663 36.2801 117.958 36.6271 118.271 36.8699C118.618 37.1128 118.947 37.269 119.259 37.3383C119.606 37.373 119.953 37.3904 120.3 37.3904C120.613 37.3904 120.942 37.321 121.289 37.1822C121.671 37.0434 122.105 36.974 122.59 36.974C123.041 36.974 123.406 37.1649 123.683 37.5465C123.996 37.8935 124.152 38.2751 124.152 38.6915C124.152 39.0732 124.03 39.4201 123.787 39.7324C123.579 40.01 123.284 40.2528 122.903 40.461C122.556 40.6345 122.157 40.7733 121.706 40.8774C121.289 40.9468 120.873 40.9815 120.457 40.9815C119.138 40.9815 117.993 40.7039 117.022 40.1487C116.05 39.5936 115.287 38.9517 114.732 38.2231C114.038 39.0211 113.205 39.6456 112.233 40.0967C111.262 40.5477 110.238 40.7733 109.163 40.7733C108.191 40.7733 107.22 40.6171 106.248 40.3049C105.277 39.9926 104.409 39.5242 103.646 38.8997C102.883 38.2751 102.258 37.5118 101.773 36.6097C101.287 35.6729 101.044 34.58 101.044 33.3309C101.044 32.6023 101.165 31.839 101.408 31.041C101.686 30.243 102.085 29.4796 102.605 28.751C103.126 28.0224 103.75 27.3805 104.479 26.8254C105.242 26.2702 106.127 25.8886 107.133 25.6804H107.445C107.792 25.6804 108.053 25.6978 108.226 25.7324ZM108.538 29.0112C107.324 29.3929 106.439 29.948 105.884 30.6767C105.329 31.3706 105.051 32.186 105.051 33.1228C105.051 34.233 105.329 35.1872 105.884 35.9852C106.474 36.7485 107.549 37.1302 109.111 37.1302C110.013 37.1302 110.811 36.8006 111.505 36.1413C112.199 35.4821 112.546 34.5973 112.546 33.4871C112.546 32.7237 112.424 32.0992 112.181 31.6135C111.973 31.093 111.678 30.6767 111.297 30.3644C110.95 30.0174 110.533 29.7572 110.048 29.5837C109.562 29.3756 109.059 29.1847 108.538 29.0112Z" fill="white"/>
<path d="M80.0707 26.7213C79.7931 26.3396 79.6543 25.9926 79.6543 25.6804C79.6543 25.1599 79.8972 24.7089 80.3829 24.3272C80.8687 23.9456 81.3718 23.7547 81.8922 23.7547C82.2392 23.7547 82.5688 23.8762 82.881 24.119C83.1933 24.3272 83.4535 24.5874 83.6617 24.8997C83.9046 25.212 84.1128 25.5589 84.2862 25.9406C84.4944 26.2876 84.6679 26.5998 84.8067 26.8774C85.4659 26.6345 86.2466 26.4263 87.1487 26.2529C88.0855 26.0447 89.0743 25.9406 90.1152 25.9406C90.5663 25.9406 91.1214 25.9753 91.7806 26.0447C92.4399 26.0794 93.0817 26.2529 93.7063 26.5651C94.3655 26.8427 94.9553 27.3111 95.4758 27.9703C96.0309 28.5949 96.4473 29.497 96.7249 30.6766C96.8636 31.3012 96.933 32.0645 96.933 32.9666C96.9677 33.8687 97.0024 34.8055 97.0371 35.777C97.0024 36.6097 96.9851 37.4597 96.9851 38.3272C96.9851 39.1599 96.9157 39.9232 96.7769 40.6171C96.6728 41.2763 96.482 41.8141 96.2044 42.2305C95.9268 42.6468 95.5105 42.855 94.9553 42.855C94.3655 42.855 93.8624 42.6815 93.4461 42.3346C93.0644 41.9876 92.8736 41.5366 92.8736 40.9814C92.8736 39.9752 92.9256 38.8303 93.0297 37.5465C93.1338 36.2627 93.1858 35.1004 93.1858 34.0595C93.1858 33.1227 93.0991 32.3594 92.9256 31.7696C92.7868 31.1797 92.5787 30.7287 92.3011 30.4164C92.0235 30.0694 91.6592 29.8439 91.2082 29.7398C90.7571 29.6357 90.254 29.5837 89.6989 29.5837C89.109 29.5837 88.5018 29.6704 87.8773 29.8439C87.2875 29.9827 86.6976 30.1388 86.1078 30.3123C86.1425 30.9715 86.1598 31.6481 86.1598 32.3421C86.1945 33.036 86.2119 33.7646 86.2119 34.5279C86.2119 35.7423 86.2119 36.8699 86.2119 37.9108C86.2119 38.917 86.1425 39.8017 86.0037 40.5651C85.8996 41.2937 85.6741 41.8662 85.3271 42.2825C84.9802 42.7336 84.4771 42.9591 83.8178 42.9591C83.3321 42.8897 82.9331 42.7162 82.6208 42.4387C82.3086 42.1611 82.1524 41.7968 82.1524 41.3457C82.1524 40.3048 82.1871 39.2119 82.2565 38.0669C82.3259 36.922 82.3606 35.6902 82.3606 34.3718C82.3606 33.7126 82.3433 33.1227 82.3086 32.6023C82.3086 32.0818 82.2912 31.5787 82.2565 31.093C81.8749 30.5032 81.5279 29.8439 81.2156 29.1153C80.9381 28.352 80.5564 27.554 80.0707 26.7213Z" fill="white"/>
<path d="M61.4902 25.7324C61.6984 25.559 61.9933 25.4722 62.375 25.4722C63.5547 25.5763 64.6129 25.9059 65.5497 26.4611C66.4865 26.9815 67.2672 27.6407 67.8917 28.4388C68.5509 29.2021 69.0367 30.0521 69.3489 30.9889C69.6959 31.9257 69.8694 32.8278 69.8694 33.6952V33.9555C70.1123 34.7535 70.3725 35.378 70.65 35.8291C70.9276 36.2801 71.2225 36.6271 71.5348 36.8699C71.8818 37.1128 72.2114 37.269 72.5236 37.3383C72.8706 37.373 73.2176 37.3904 73.5645 37.3904C73.8768 37.3904 74.2064 37.321 74.5534 37.1822C74.935 37.0434 75.3687 36.974 75.8545 36.974C76.3055 36.974 76.6698 37.1649 76.9474 37.5465C77.2597 37.8935 77.4158 38.2751 77.4158 38.6915C77.4158 39.0732 77.2944 39.4201 77.0515 39.7324C76.8433 40.01 76.5484 40.2528 76.1667 40.461C75.8198 40.6345 75.4208 40.7733 74.9697 40.8774C74.5534 40.9468 74.137 40.9815 73.7207 40.9815C72.4022 40.9815 71.2572 40.7039 70.2857 40.1487C69.3142 39.5936 68.5509 38.9517 67.9958 38.2231C67.3019 39.0211 66.4691 39.6456 65.4976 40.0967C64.5262 40.5477 63.5026 40.7733 62.427 40.7733C61.4555 40.7733 60.484 40.6171 59.5125 40.3049C58.541 39.9926 57.6736 39.5242 56.9103 38.8997C56.147 38.2751 55.5225 37.5118 55.0367 36.6097C54.551 35.6729 54.3081 34.58 54.3081 33.3309C54.3081 32.6023 54.4295 31.839 54.6724 31.041C54.95 30.243 55.349 29.4796 55.8694 28.751C56.3899 28.0224 57.0144 27.3805 57.743 26.8254C58.5064 26.2702 59.3911 25.8886 60.3973 25.6804H60.7096C61.0565 25.6804 61.3167 25.6978 61.4902 25.7324ZM61.8025 29.0112C60.5881 29.3929 59.7034 29.948 59.1482 30.6767C58.5931 31.3706 58.3155 32.186 58.3155 33.1228C58.3155 34.233 58.5931 35.1872 59.1482 35.9852C59.7381 36.7485 60.8137 37.1302 62.375 37.1302C63.2771 37.1302 64.0751 36.8006 64.769 36.1413C65.463 35.4821 65.8099 34.5973 65.8099 33.4871C65.8099 32.7237 65.6885 32.0992 65.4456 31.6135C65.2374 31.093 64.9425 30.6767 64.5609 30.3644C64.2139 30.0174 63.7975 29.7572 63.3118 29.5837C62.826 29.3756 62.3229 29.1847 61.8025 29.0112Z" fill="white"/>
<path d="M34.0631 43.0632C33.8549 43.1673 33.6641 43.2193 33.4906 43.2193C33.0395 43.2193 32.6058 43.0112 32.1895 42.5948C31.7731 42.2131 31.5649 41.7621 31.5649 41.2416C31.5649 40.8253 31.7384 40.461 32.0854 40.1487C33.2998 39.0037 34.4794 37.8588 35.6244 36.7138C36.8041 35.5341 37.9317 34.3544 39.0073 33.1748C37.7929 31.8216 36.7694 30.6766 35.9367 29.7398C35.104 28.7683 34.4274 27.9703 33.9069 27.3458C33.3865 26.7213 33.0048 26.2182 32.762 25.8365C32.5538 25.4202 32.4497 25.0732 32.4497 24.7956C32.4497 24.2405 32.6232 23.8068 32.9701 23.4945C33.3171 23.1475 33.7335 22.9741 34.2192 22.9741C34.7743 22.9741 35.3121 23.2516 35.8326 23.8068L41.4534 30.5205C42.5637 29.2714 43.6219 28.0571 44.6281 26.8774C45.669 25.6977 46.6578 24.5354 47.5946 23.3904C47.9763 22.9047 48.4447 22.6618 48.9998 22.6618C49.4856 22.6618 49.9193 22.8526 50.3009 23.2343C50.7173 23.6159 50.9255 24.1364 50.9255 24.7956C50.9255 25.2467 50.6652 25.8365 50.1448 26.5651C49.6243 27.2591 48.9825 28.0224 48.2191 28.8551C47.4905 29.6531 46.7099 30.4511 45.8771 31.2491C45.0791 32.0471 44.4026 32.7584 43.8474 33.3829L50.405 41.1896C50.7173 41.5019 50.8734 41.8662 50.8734 42.2825C50.8734 42.7683 50.6652 43.202 50.2489 43.5836C49.8325 43.9653 49.4162 44.1561 48.9998 44.1561C48.6528 44.1561 48.1671 43.8786 47.5426 43.3234C46.9527 42.7683 46.3109 42.0917 45.6169 41.2937C44.923 40.461 44.1944 39.5762 43.4311 38.6394C42.7024 37.6679 42.0085 36.7658 41.3493 35.9331C40.1002 37.1822 38.8685 38.4139 37.6541 39.6283C36.4398 40.8426 35.2427 41.9876 34.0631 43.0632Z" fill="white"/>
<path d="M16.5241 16.5204C16.8711 16.1735 17.2527 16 17.6691 16C18.7794 16 19.9244 16.2949 21.104 16.8848C22.2837 17.4399 23.3419 18.2379 24.2787 19.2788C25.2502 20.3197 26.0482 21.6034 26.6728 23.1301C27.2973 24.622 27.6096 26.3048 27.6096 28.1784C27.6096 29.8438 27.3841 31.4225 26.933 32.9144C26.5166 34.4064 25.8574 35.7248 24.9553 36.8698C24.0532 38.0148 22.9082 38.9169 21.5204 39.5761C20.1672 40.2353 18.5365 40.565 16.6282 40.565C15.3098 40.565 14.0607 40.27 12.881 39.6802C11.736 39.0557 10.7125 38.223 9.8104 37.1821C8.94299 36.1412 8.24907 34.9095 7.72862 33.4869C7.24287 32.0644 7 30.5377 7 28.907C7 27.0334 7.31227 25.3159 7.9368 23.7546C8.56133 22.1933 9.3073 20.8575 10.1747 19.7472C11.0768 18.6022 11.9963 17.7175 12.9331 17.0929C13.9046 16.4684 14.7373 16.1561 15.4312 16.1561C15.7782 16.1561 16.1425 16.2776 16.5241 16.5204ZM16.8884 19.4349C16.819 19.5043 16.767 19.539 16.7323 19.539H16.6803C15.0148 20.3023 13.6617 21.5167 12.6208 23.1821C11.6146 24.8128 11.1115 26.8599 11.1115 29.3234C11.1115 31.7868 11.684 33.643 12.829 34.8921C14.0086 36.1412 15.3791 36.7657 16.9405 36.7657C18.0161 36.7657 18.9529 36.5402 19.7509 36.0891C20.5836 35.6381 21.2775 35.0309 21.8326 34.2676C22.3878 33.5043 22.8041 32.6369 23.0817 31.6654C23.394 30.6592 23.5501 29.6183 23.5501 28.5427C23.5501 27.0508 23.3419 25.767 22.9256 24.6914C22.5439 23.5811 22.0408 22.679 21.4163 21.9851C20.7918 21.2565 20.0805 20.7013 19.2825 20.3197C18.4845 19.9033 17.6864 19.6084 16.8884 19.4349Z" fill="white"/>
<path d="M287.239 19.8217C287.504 19.4107 287.836 19.1612 288.234 19.0731C288.632 18.9557 289.013 18.897 289.378 18.897C289.942 18.897 290.605 19.6015 291.368 21.0107C292.131 22.4198 292.927 24.2547 293.757 26.5152C294.619 28.7757 295.481 31.3298 296.344 34.1774C297.206 37.0251 297.986 39.9021 298.682 42.8085C298.682 42.8672 298.682 42.9259 298.682 42.9846C298.715 43.014 298.732 43.058 298.732 43.1167C298.732 43.5865 298.516 43.9828 298.085 44.3057C297.654 44.6286 297.156 44.7901 296.593 44.7901C296.228 44.7901 295.913 44.6874 295.647 44.4819C295.382 44.3057 295.199 43.9828 295.1 43.5131C294.934 42.6617 294.652 41.6195 294.254 40.3865C293.856 39.1535 293.475 37.8324 293.11 36.4233C292.38 36.482 291.518 36.5407 290.523 36.5994C289.561 36.6288 288.566 36.6435 287.537 36.6435C287.007 36.6435 286.492 36.6435 285.995 36.6435C285.53 36.6141 285.066 36.5847 284.602 36.5554C284.071 38.0526 283.59 39.403 283.159 40.6067C282.728 41.8103 282.396 42.7791 282.164 43.5131C281.998 44.0121 281.749 44.3498 281.417 44.5259C281.119 44.702 280.787 44.7901 280.422 44.7901C279.958 44.7901 279.51 44.6286 279.079 44.3057C278.681 44.0121 278.482 43.6599 278.482 43.2489C278.482 43.1901 278.515 43.0434 278.581 42.8085L282.711 31.0509C283.109 29.8766 283.524 28.717 283.955 27.5721C284.386 26.3978 284.801 25.3115 285.199 24.3134C285.597 23.3152 285.962 22.4345 286.293 21.6712C286.658 20.8786 286.973 20.2621 287.239 19.8217ZM289.129 24.4455C288.599 25.7079 288.035 27.1317 287.438 28.717C286.841 30.3023 286.26 31.8876 285.696 33.4729C286.061 33.4729 286.443 33.4876 286.841 33.5169C287.239 33.5169 287.637 33.5169 288.035 33.5169C289.527 33.5169 290.904 33.4729 292.164 33.3848C291.667 31.7995 291.153 30.2289 290.622 28.673C290.091 27.117 289.594 25.7079 289.129 24.4455Z" fill="white"/>
<path d="M261.625 42.4566C261.525 42.897 261.276 43.2346 260.878 43.4695C260.48 43.675 260.066 43.7777 259.634 43.7777C259.137 43.7777 258.722 43.6603 258.39 43.4254C258.092 43.1612 257.943 42.7796 257.943 42.2805L258.54 32.2403C258.606 31.2422 258.639 30.2734 258.639 29.3339C258.672 28.3945 258.689 27.4991 258.689 26.6477C258.689 25.1505 258.639 23.9322 258.54 22.9927C258.308 22.6698 258.042 22.3909 257.744 22.1561C257.445 21.8919 257.296 21.5542 257.296 21.1432C257.296 20.3506 257.992 19.9543 259.386 19.9543C259.983 19.9543 260.447 20.057 260.779 20.2625C261.11 20.468 261.508 20.7616 261.973 21.1432L262.122 21.3194C262.487 21.9946 263.084 22.9487 263.913 24.1817C264.776 25.3854 265.754 26.7358 266.849 28.233C267.943 29.7009 269.071 31.2275 270.232 32.8128C271.426 34.3981 272.537 35.8806 273.566 37.2604C273.665 34.5302 273.715 31.6825 273.715 28.7174C273.715 27.2496 273.698 25.8111 273.665 24.4019C273.665 22.9634 273.632 21.5836 273.566 20.2625C273.566 19.9102 273.748 19.646 274.113 19.4699C274.478 19.2644 274.892 19.1616 275.357 19.1616C275.755 19.1616 276.136 19.235 276.501 19.3818C276.866 19.5286 277.115 19.7634 277.247 20.0864C277.314 22.2882 277.347 24.3138 277.347 26.1633C277.38 27.9835 277.397 29.7743 277.397 31.5357C277.397 33.2972 277.33 35.0586 277.198 36.82C277.098 38.5521 277.015 40.431 276.949 42.4566C276.849 42.9557 276.617 43.3227 276.252 43.5575C275.921 43.7924 275.572 43.9098 275.208 43.9098C274.843 43.9098 274.528 43.8511 274.262 43.7337C273.997 43.6456 273.731 43.4254 273.466 43.0731C272.604 41.8108 271.675 40.5191 270.68 39.198C269.718 37.8769 268.739 36.5705 267.744 35.2788C266.782 33.9871 265.837 32.7247 264.908 31.4917C263.98 30.2293 263.117 29.055 262.321 27.9688C262.321 29.4073 262.305 30.8458 262.271 32.2843C262.238 33.7228 262.188 35.088 262.122 36.3797C262.056 37.642 261.973 38.8017 261.873 39.8585C261.807 40.886 261.724 41.7521 261.625 42.4566Z" fill="white"/>
<path d="M246.658 21.1429C246.393 20.8199 246.26 20.5264 246.26 20.2621C246.26 19.8218 246.492 19.4401 246.957 19.1172C247.421 18.7943 247.902 18.6328 248.4 18.6328C248.864 18.6328 249.312 18.8383 249.743 19.2493C250.207 19.6603 250.622 20.1594 250.987 20.7465C251.385 21.3043 251.733 21.8915 252.032 22.508C252.363 23.0951 252.629 23.5795 252.828 23.9612C252.961 25.5465 253.06 27.2639 253.126 29.1134C253.226 30.9629 253.276 32.8124 253.276 34.6619C253.276 36.5114 253.242 38.2582 253.176 39.9022C253.11 41.5462 252.994 42.926 252.828 44.0416C252.762 44.5113 252.546 44.8489 252.181 45.0544C251.849 45.2599 251.501 45.3626 251.136 45.3626C250.572 45.3626 250.058 45.2305 249.594 44.9663C249.163 44.7021 248.947 44.3351 248.947 43.8654C248.947 42.6324 248.997 41.1939 249.096 39.5499C249.229 37.9059 249.295 36.1885 249.295 34.3977C249.295 32.695 249.279 31.0069 249.246 29.3335C249.212 27.6602 249.146 26.163 249.047 24.8419C248.748 24.2841 248.4 23.6823 248.002 23.0364C247.604 22.3905 247.156 21.7594 246.658 21.1429Z" fill="white"/>
<path d="M222.14 41.928C222.306 39.9023 222.439 37.9207 222.538 35.9831C222.638 34.0455 222.687 32.0786 222.687 30.0823C222.687 28.6731 222.654 27.2493 222.588 25.8108C222.555 24.3723 222.505 22.9044 222.439 21.4072C222.439 21.0843 222.621 20.8347 222.986 20.6586C223.384 20.4531 223.815 20.3503 224.28 20.3503C224.644 20.3503 224.993 20.409 225.324 20.5265C225.689 20.6439 225.938 20.8201 226.071 21.0549C226.867 20.732 227.713 20.4824 228.608 20.3063C229.537 20.1008 230.466 19.998 231.394 19.998C233.451 19.998 235.192 20.3503 236.619 21.0549C238.078 21.7301 239.256 22.6255 240.151 23.7411C241.047 24.8273 241.694 26.0603 242.092 27.4401C242.523 28.8199 242.739 30.1997 242.739 31.5795C242.739 33.3997 242.407 35.0583 241.743 36.5556C241.113 38.0234 240.267 39.3005 239.206 40.3867C238.178 41.4436 236.984 42.2802 235.624 42.8967C234.297 43.5132 232.92 43.8655 231.494 43.9536C231.229 43.983 230.914 43.9976 230.549 43.9976C230.184 44.027 229.769 44.0417 229.305 44.0417C227.348 44.0417 225.606 43.8509 224.081 43.4692C223.616 43.4692 223.168 43.3958 222.737 43.249C222.339 43.0729 222.14 42.7059 222.14 42.1481V41.928ZM226.22 24.7099C226.22 25.4732 226.22 26.1924 226.22 26.8677C226.253 27.5429 226.27 28.2181 226.27 28.8933C226.27 29.8915 226.253 30.8602 226.22 31.7997C226.22 32.7098 226.203 33.6345 226.17 34.5739C226.137 35.5134 226.087 36.4822 226.021 37.4803C225.988 38.4491 225.955 39.4766 225.921 40.5628C226.95 40.7683 228.044 40.8711 229.205 40.8711C230.234 40.8711 231.312 40.7243 232.439 40.4307C233.6 40.1078 234.662 39.6234 235.624 38.9775C236.586 38.3023 237.382 37.4363 238.012 36.3794C238.642 35.2932 238.957 33.9721 238.957 32.4162C238.957 31.1832 238.808 30.0089 238.509 28.8933C238.211 27.7777 237.73 26.8089 237.067 25.9869C236.436 25.1356 235.607 24.4604 234.579 23.9613C233.584 23.4622 232.373 23.2127 230.947 23.2127C230.184 23.2127 229.404 23.3154 228.608 23.5209C227.812 23.7264 227.016 24.1227 226.22 24.7099Z" fill="white"/>
<path d="M208.965 43.7775C208.7 43.3665 208.385 42.7793 208.02 42.016C207.688 41.2234 207.323 40.328 206.925 39.3298C206.527 38.3317 206.113 37.2601 205.681 36.1152C205.25 34.9703 204.836 33.796 204.438 32.5923L200.308 20.7907C200.242 20.6146 200.208 20.4678 200.208 20.3503C200.208 19.91 200.424 19.543 200.855 19.2494C201.287 18.9559 201.734 18.8091 202.199 18.8091C202.564 18.8091 202.895 18.9118 203.194 19.1173C203.492 19.3228 203.724 19.6458 203.89 20.0861C204.189 20.9668 204.603 22.1999 205.134 23.7851C205.665 25.3411 206.245 27.0291 206.876 28.8493C207.539 30.6401 208.219 32.4602 208.916 34.3097C209.612 36.1299 210.259 37.7445 210.856 39.1537C211.354 37.8033 211.884 36.2473 212.448 34.4859C213.045 32.7244 213.626 30.963 214.19 29.2016C214.753 27.4108 215.268 25.7227 215.732 24.1374C216.196 22.5228 216.561 21.1723 216.827 20.0861C216.926 19.6458 217.108 19.3375 217.374 19.1614C217.672 18.9852 218.004 18.8972 218.369 18.8972C218.9 18.8972 219.381 19.0586 219.812 19.3815C220.243 19.6751 220.459 20.0568 220.459 20.5265C220.459 20.9668 220.309 21.6567 220.011 22.5962C219.712 23.5356 219.397 24.5631 219.065 25.6787C218.601 27.264 218.07 28.9814 217.473 30.8309C216.909 32.6804 216.329 34.4712 215.732 36.2033C215.135 37.906 214.554 39.4473 213.991 40.8271C213.46 42.2069 213.012 43.2197 212.647 43.8655C212.481 44.1885 212.249 44.4086 211.951 44.5261C211.685 44.6729 211.42 44.7609 211.154 44.7903C210.989 44.7903 210.773 44.7316 210.508 44.6141H210.358C210.093 44.6141 209.828 44.5554 209.562 44.438C209.33 44.3206 209.131 44.1004 208.965 43.7775Z" fill="white"/>
<path d="M188.924 19.8217C189.19 19.4107 189.521 19.1612 189.919 19.0731C190.317 18.9557 190.699 18.897 191.064 18.897C191.628 18.897 192.291 19.6015 193.054 21.0107C193.817 22.4198 194.613 24.2547 195.442 26.5152C196.305 28.7757 197.167 31.3298 198.029 34.1774C198.892 37.0251 199.671 39.9021 200.368 42.8085C200.368 42.8672 200.368 42.9259 200.368 42.9846C200.401 43.014 200.418 43.058 200.418 43.1167C200.418 43.5865 200.202 43.9828 199.771 44.3057C199.34 44.6286 198.842 44.7901 198.278 44.7901C197.913 44.7901 197.598 44.6874 197.333 44.4819C197.067 44.3057 196.885 43.9828 196.786 43.5131C196.62 42.6617 196.338 41.6195 195.94 40.3865C195.542 39.1535 195.16 37.8324 194.795 36.4233C194.066 36.482 193.203 36.5407 192.208 36.5994C191.246 36.6288 190.251 36.6435 189.223 36.6435C188.692 36.6435 188.178 36.6435 187.68 36.6435C187.216 36.6141 186.752 36.5847 186.287 36.5554C185.757 38.0526 185.276 39.403 184.844 40.6067C184.413 41.8103 184.082 42.7791 183.849 43.5131C183.683 44.0121 183.435 44.3498 183.103 44.5259C182.804 44.702 182.473 44.7901 182.108 44.7901C181.644 44.7901 181.196 44.6286 180.765 44.3057C180.366 44.0121 180.167 43.6599 180.167 43.2489C180.167 43.1901 180.201 43.0434 180.267 42.8085L184.397 31.0509C184.795 29.8766 185.209 28.717 185.64 27.5721C186.072 26.3978 186.486 25.3115 186.884 24.3134C187.282 23.3152 187.647 22.4345 187.979 21.6712C188.344 20.8786 188.659 20.2621 188.924 19.8217ZM190.815 24.4455C190.284 25.7079 189.72 27.1317 189.123 28.717C188.526 30.3023 187.946 31.8876 187.382 33.4729C187.747 33.4729 188.128 33.4876 188.526 33.5169C188.924 33.5169 189.322 33.5169 189.72 33.5169C191.213 33.5169 192.59 33.4729 193.85 33.3848C193.352 31.7995 192.838 30.2289 192.308 28.673C191.777 27.117 191.279 25.7079 190.815 24.4455Z" fill="white"/>
<path d="M159.53 21.1429C159.265 20.8199 159.132 20.5264 159.132 20.2621C159.132 19.8218 159.364 19.4401 159.828 19.1172C160.293 18.7943 160.774 18.6328 161.271 18.6328C161.603 18.6328 161.902 18.7356 162.167 18.9411C162.465 19.1172 162.731 19.3521 162.963 19.6456C163.228 19.9392 163.46 20.2475 163.66 20.5704C163.892 20.864 164.091 21.1429 164.257 21.4071C165.019 20.8199 165.882 20.3209 166.844 19.9099C167.806 19.4989 168.884 19.2934 170.078 19.2934C171.803 19.2934 173.246 19.5429 174.406 20.042C175.601 20.5117 176.563 21.1429 177.292 21.9355C178.055 22.7282 178.619 23.6382 178.984 24.6657C179.349 25.6639 179.564 26.6914 179.631 27.7483C179.631 28.3648 179.531 29.0253 179.332 29.7299C179.133 30.4344 178.818 31.1243 178.387 31.7996C177.989 32.4748 177.475 33.106 176.844 33.6931C176.214 34.2509 175.468 34.7206 174.606 35.1023C175.667 36.0123 176.629 37.1573 177.491 38.5371C178.387 39.8875 179.067 41.3994 179.531 43.0728C179.531 43.1315 179.531 43.1902 179.531 43.2489C179.564 43.2783 179.581 43.3223 179.581 43.381C179.581 43.8507 179.349 44.203 178.884 44.4379C178.453 44.7021 177.956 44.8342 177.392 44.8342C177.093 44.8342 176.811 44.7755 176.546 44.6581C176.281 44.5406 176.115 44.3645 176.048 44.1296C175.484 42.2801 174.755 40.6801 173.859 39.3297C172.964 37.9793 171.753 36.8197 170.227 35.8509C168.635 35.8509 167.275 35.5867 166.147 35.0582C166.147 36.8197 166.114 38.493 166.048 40.0783C165.981 41.6636 165.865 42.9847 165.699 44.0416C165.633 44.4819 165.417 44.8048 165.053 45.0104C164.721 45.2452 164.373 45.3626 164.008 45.3626C163.444 45.3626 162.93 45.2305 162.465 44.9663C162.034 44.7021 161.819 44.3351 161.819 43.8654C161.819 42.6324 161.868 41.1939 161.968 39.5499C162.101 37.9059 162.167 36.1885 162.167 34.3977C162.167 32.695 162.15 31.0069 162.117 29.3335C162.084 27.6602 162.018 26.163 161.918 24.8419C161.62 24.2841 161.271 23.6823 160.873 23.0364C160.475 22.3905 160.027 21.7594 159.53 21.1429ZM165.749 24.6657C165.849 25.7226 165.915 26.8382 165.948 28.0125C166.015 29.1574 166.064 30.317 166.097 31.4913C166.661 31.961 167.292 32.2986 167.988 32.5041C168.718 32.6803 169.58 32.7684 170.575 32.7684C171.57 32.7684 172.4 32.5775 173.063 32.1959C173.727 31.8142 174.257 31.3445 174.655 30.7867C175.053 30.2289 175.335 29.6418 175.501 29.0253C175.667 28.3794 175.75 27.807 175.75 27.3079C175.684 26.7795 175.534 26.2364 175.302 25.6786C175.07 25.1208 174.738 24.6217 174.307 24.1813C173.876 23.741 173.328 23.374 172.665 23.0804C172.035 22.7869 171.272 22.6401 170.376 22.6401C169.215 22.6401 168.27 22.8309 167.54 23.2126C166.811 23.5942 166.214 24.0786 165.749 24.6657Z" fill="white"/>
<path d="M137.398 21.1429C137.133 20.8199 137 20.5264 137 20.2621C137 19.8218 137.232 19.4401 137.697 19.1172C138.161 18.7943 138.642 18.6328 139.139 18.6328C139.471 18.6328 139.77 18.7356 140.035 18.9411C140.334 19.1172 140.599 19.3521 140.831 19.6456C141.096 19.9392 141.329 20.2475 141.528 20.5704C141.76 20.864 141.959 21.1429 142.125 21.4071C142.888 20.8199 143.75 20.3209 144.712 19.9099C145.674 19.4989 146.752 19.2934 147.946 19.2934C149.671 19.2934 151.114 19.5429 152.275 20.042C153.469 20.5117 154.431 21.1429 155.16 21.9355C155.923 22.7282 156.487 23.6382 156.852 24.6657C157.217 25.6639 157.433 26.6914 157.499 27.7483C157.499 28.5996 157.316 29.495 156.952 30.4344C156.587 31.3739 156.039 32.2546 155.31 33.0766C154.58 33.8693 153.651 34.5298 152.523 35.0582C151.396 35.5867 150.069 35.8509 148.543 35.8509C147.647 35.8509 146.818 35.7775 146.055 35.6307C145.326 35.4839 144.646 35.2931 144.015 35.0582C144.015 36.8197 143.982 38.493 143.916 40.0783C143.85 41.6636 143.733 42.9847 143.568 44.0416C143.501 44.4819 143.286 44.8048 142.921 45.0104C142.589 45.2452 142.241 45.3626 141.876 45.3626C141.312 45.3626 140.798 45.2305 140.334 44.9663C139.902 44.7021 139.687 44.3351 139.687 43.8654C139.687 42.6324 139.737 41.1939 139.836 39.5499C139.969 37.9059 140.035 36.1885 140.035 34.3977C140.035 32.695 140.018 31.0069 139.985 29.3335C139.952 27.6602 139.886 26.163 139.786 24.8419C139.488 24.2841 139.139 23.6823 138.741 23.0364C138.343 22.3905 137.896 21.7594 137.398 21.1429ZM143.617 24.6657C143.717 25.7226 143.783 26.8382 143.816 28.0125C143.883 29.1574 143.932 30.317 143.966 31.4913C144.53 31.961 145.16 32.2986 145.856 32.5041C146.586 32.6803 147.448 32.7684 148.444 32.7684C149.439 32.7684 150.268 32.5775 150.931 32.1959C151.595 31.8142 152.125 31.3445 152.523 30.7867C152.921 30.2289 153.203 29.6418 153.369 29.0253C153.535 28.3794 153.618 27.807 153.618 27.3079C153.552 26.7795 153.402 26.2364 153.17 25.6786C152.938 25.1208 152.606 24.6217 152.175 24.1813C151.744 23.741 151.197 23.374 150.533 23.0804C149.903 22.7869 149.14 22.6401 148.245 22.6401C147.084 22.6401 146.138 22.8309 145.409 23.2126C144.679 23.5942 144.082 24.0786 143.617 24.6657Z" fill="white"/>
</svg>
