<svg width="1774" height="33" viewBox="0 0 1774 33" fill="none" xmlns="http://www.w3.org/2000/svg">
<rect x="0.5" y="0.5" width="159" height="32" rx="16" stroke="#797676" stroke-dasharray="6 6"/>
<path d="M12.8635 23V10.04H16.9945C17.1025 10.04 17.3155 10.043 17.6335 10.049C17.9575 10.055 18.2695 10.076 18.5695 10.112C19.6015 10.244 20.4715 10.61 21.1795 11.21C21.8875 11.804 22.4245 12.563 22.7905 13.487C23.1565 14.411 23.3395 15.422 23.3395 16.52C23.3395 17.618 23.1565 18.629 22.7905 19.553C22.4245 20.477 21.8875 21.239 21.1795 21.839C20.4715 22.433 19.6015 22.796 18.5695 22.928C18.2695 22.964 17.9575 22.985 17.6335 22.991C17.3095 22.997 17.0965 23 16.9945 23H12.8635ZM15.0685 20.957H16.9945C17.1745 20.957 17.4025 20.954 17.6785 20.948C17.9605 20.936 18.2095 20.906 18.4255 20.858C19.0375 20.738 19.5355 20.465 19.9195 20.039C20.3095 19.607 20.5945 19.082 20.7745 18.464C20.9545 17.846 21.0445 17.198 21.0445 16.52C21.0445 15.818 20.9515 15.158 20.7655 14.54C20.5795 13.922 20.2915 13.403 19.9015 12.983C19.5175 12.563 19.0255 12.296 18.4255 12.182C18.2095 12.134 17.9605 12.107 17.6785 12.101C17.4025 12.089 17.1745 12.083 16.9945 12.083H15.0685V20.957ZM29.886 23.27C28.902 23.27 28.038 23.057 27.294 22.631C26.55 22.205 25.968 21.614 25.548 20.858C25.134 20.102 24.927 19.232 24.927 18.248C24.927 17.186 25.131 16.262 25.539 15.476C25.947 14.69 26.514 14.084 27.24 13.658C27.966 13.226 28.806 13.01 29.76 13.01C30.768 13.01 31.623 13.244 32.325 13.712C33.033 14.18 33.558 14.846 33.9 15.71C34.242 16.568 34.371 17.579 34.287 18.743H27.249C27.333 19.547 27.588 20.165 28.014 20.597C28.44 21.023 29.022 21.236 29.76 21.236C30.846 21.236 31.605 20.774 32.037 19.85L34.179 20.498C33.807 21.38 33.231 22.064 32.451 22.55C31.677 23.03 30.822 23.27 29.886 23.27ZM29.85 14.909C28.41 14.909 27.561 15.641 27.303 17.105H32.082C31.992 16.349 31.764 15.794 31.398 15.44C31.038 15.086 30.522 14.909 29.85 14.909ZM40.0482 23.27C38.8482 23.27 37.8732 23 37.1232 22.46C36.3732 21.92 35.9172 21.161 35.7552 20.183L37.9692 19.841C38.0772 20.321 38.3262 20.699 38.7162 20.975C39.1122 21.251 39.6072 21.389 40.2012 21.389C40.7172 21.389 41.1192 21.287 41.4072 21.083C41.6952 20.873 41.8392 20.588 41.8392 20.228C41.8392 20.006 41.7852 19.829 41.6772 19.697C41.5692 19.559 41.3382 19.427 40.9842 19.301C40.6362 19.175 40.0962 19.016 39.3642 18.824C38.5482 18.608 37.9002 18.377 37.4202 18.131C36.9402 17.879 36.5952 17.582 36.3852 17.24C36.1752 16.898 36.0702 16.484 36.0702 15.998C36.0702 15.086 36.4182 14.36 37.1142 13.82C37.8102 13.28 38.7372 13.01 39.8952 13.01C41.0292 13.01 41.9652 13.271 42.7032 13.793C43.4412 14.309 43.8702 15.005 43.9902 15.881L41.7762 16.277C41.7162 15.863 41.5242 15.536 41.2002 15.296C40.8822 15.056 40.4592 14.921 39.9312 14.891C39.4212 14.867 39.0102 14.948 38.6982 15.134C38.3862 15.314 38.2302 15.566 38.2302 15.89C38.2302 16.076 38.2932 16.235 38.4192 16.367C38.5452 16.499 38.7972 16.631 39.1752 16.763C39.5592 16.895 40.1292 17.057 40.8852 17.249C42.0492 17.549 42.8682 17.915 43.3422 18.347C43.8222 18.779 44.0622 19.373 44.0622 20.129C44.0622 21.107 43.7052 21.875 42.9912 22.433C42.2832 22.991 41.3022 23.27 40.0482 23.27ZM46.2134 23V13.28H48.3824V23H46.2134ZM47.2934 12.11C46.9214 12.11 46.6124 11.987 46.3664 11.741C46.1204 11.489 45.9974 11.18 45.9974 10.814C45.9974 10.454 46.1204 10.148 46.3664 9.896C46.6124 9.644 46.9214 9.518 47.2934 9.518C47.6714 9.518 47.9834 9.644 48.2294 9.896C48.4754 10.148 48.5984 10.454 48.5984 10.814C48.5984 11.18 48.4754 11.489 48.2294 11.741C47.9834 11.987 47.6714 12.11 47.2934 12.11ZM54.9754 23.27C54.0814 23.27 53.3014 23.045 52.6354 22.595C51.9694 22.145 51.4534 21.533 51.0874 20.759C50.7214 19.985 50.5384 19.112 50.5384 18.14C50.5384 17.156 50.7214 16.277 51.0874 15.503C51.4594 14.729 51.9844 14.12 52.6624 13.676C53.3404 13.232 54.1384 13.01 55.0564 13.01C55.6084 13.01 56.1094 13.094 56.5594 13.262C57.0094 13.43 57.4054 13.667 57.7474 13.973V13.28H59.6464V23.468C59.6464 23.72 59.6344 23.957 59.6104 24.179C59.5924 24.401 59.5594 24.62 59.5114 24.836C59.2894 25.778 58.7824 26.471 57.9904 26.915C57.2044 27.365 56.2624 27.59 55.1644 27.59C54.3544 27.59 53.6014 27.401 52.9054 27.023C52.2154 26.651 51.6814 26.135 51.3034 25.475L53.3014 24.485C53.4814 24.833 53.7424 25.094 54.0844 25.268C54.4264 25.442 54.7894 25.529 55.1734 25.529C55.8514 25.529 56.4094 25.352 56.8474 24.998C57.2854 24.644 57.4954 24.122 57.4774 23.432V22.505C57.1474 22.751 56.7724 22.94 56.3524 23.072C55.9384 23.204 55.4794 23.27 54.9754 23.27ZM55.3084 21.326C56.1844 21.326 56.8084 21.032 57.1804 20.444C57.5584 19.85 57.7474 19.082 57.7474 18.14C57.7474 17.192 57.5584 16.424 57.1804 15.836C56.8084 15.248 56.2084 14.954 55.3804 14.954C54.7984 14.954 54.3184 15.098 53.9404 15.386C53.5684 15.668 53.2894 16.052 53.1034 16.538C52.9234 17.018 52.8334 17.552 52.8334 18.14C52.8334 18.734 52.9204 19.271 53.0944 19.751C53.2744 20.231 53.5474 20.615 53.9134 20.903C54.2794 21.185 54.7444 21.326 55.3084 21.326ZM62.1522 23V13.28H64.0872V14.36C64.4412 13.94 64.8822 13.61 65.4102 13.37C65.9442 13.124 66.5622 13.001 67.2642 13.001C67.9842 13.001 68.5782 13.121 69.0462 13.361C69.5142 13.595 69.8862 13.901 70.1622 14.279C70.4382 14.651 70.6422 15.047 70.7742 15.467C70.9062 15.887 70.9902 16.286 71.0262 16.664C71.0682 17.036 71.0892 17.339 71.0892 17.573V23H68.8932V18.32C68.8932 18.02 68.8692 17.684 68.8212 17.312C68.7792 16.934 68.6832 16.574 68.5332 16.232C68.3892 15.89 68.1642 15.608 67.8582 15.386C67.5522 15.158 67.1412 15.044 66.6252 15.044C66.2532 15.044 65.8932 15.128 65.5452 15.296C65.2032 15.464 64.9182 15.761 64.6902 16.187C64.4622 16.613 64.3482 17.219 64.3482 18.005V23H62.1522ZM80.1553 23V12.074H75.9613V10.04H86.5183V12.074H82.3243V23H80.1553ZM87.9393 23V10.04H89.8743V14.36C90.2283 13.94 90.6693 13.61 91.1973 13.37C91.7313 13.124 92.3493 13.001 93.0513 13.001C93.7713 13.001 94.3653 13.121 94.8333 13.361C95.3013 13.595 95.6733 13.901 95.9493 14.279C96.2253 14.651 96.4293 15.047 96.5613 15.467C96.6933 15.887 96.7773 16.286 96.8133 16.664C96.8553 17.036 96.8763 17.339 96.8763 17.573V23H94.6803V18.32C94.6803 18.02 94.6563 17.684 94.6083 17.312C94.5663 16.934 94.4703 16.574 94.3203 16.232C94.1763 15.89 93.9513 15.608 93.6453 15.386C93.3393 15.158 92.9283 15.044 92.4123 15.044C92.0403 15.044 91.6803 15.128 91.3323 15.296C90.9903 15.464 90.7053 15.761 90.4773 16.187C90.2493 16.613 90.1353 17.219 90.1353 18.005V23H87.9393ZM99.4048 23V13.28H101.574V23H99.4048ZM100.485 12.11C100.113 12.11 99.8038 11.987 99.5578 11.741C99.3118 11.489 99.1888 11.18 99.1888 10.814C99.1888 10.454 99.3118 10.148 99.5578 9.896C99.8038 9.644 100.113 9.518 100.485 9.518C100.863 9.518 101.175 9.644 101.421 9.896C101.667 10.148 101.79 10.454 101.79 10.814C101.79 11.18 101.667 11.489 101.421 11.741C101.175 11.987 100.863 12.11 100.485 12.11ZM104.252 23V13.28H106.187V14.36C106.541 13.94 106.982 13.61 107.51 13.37C108.044 13.124 108.662 13.001 109.364 13.001C110.084 13.001 110.678 13.121 111.146 13.361C111.614 13.595 111.986 13.901 112.262 14.279C112.538 14.651 112.742 15.047 112.874 15.467C113.006 15.887 113.09 16.286 113.126 16.664C113.168 17.036 113.189 17.339 113.189 17.573V23H110.993V18.32C110.993 18.02 110.969 17.684 110.921 17.312C110.879 16.934 110.783 16.574 110.633 16.232C110.489 15.89 110.264 15.608 109.958 15.386C109.652 15.158 109.241 15.044 108.725 15.044C108.353 15.044 107.993 15.128 107.645 15.296C107.303 15.464 107.018 15.761 106.79 16.187C106.562 16.613 106.448 17.219 106.448 18.005V23H104.252ZM115.519 23L115.537 10.04H117.58V16.979L121.342 13.28H123.889L119.866 17.348L124.177 23H121.819L118.534 18.689L117.58 19.643V23H115.519ZM125.403 23V13.28H127.572V23H125.403ZM126.483 12.11C126.111 12.11 125.802 11.987 125.556 11.741C125.31 11.489 125.187 11.18 125.187 10.814C125.187 10.454 125.31 10.148 125.556 9.896C125.802 9.644 126.111 9.518 126.483 9.518C126.861 9.518 127.173 9.644 127.419 9.896C127.665 10.148 127.788 10.454 127.788 10.814C127.788 11.18 127.665 11.489 127.419 11.741C127.173 11.987 126.861 12.11 126.483 12.11ZM130.25 23V13.28H132.185V14.36C132.539 13.94 132.98 13.61 133.508 13.37C134.042 13.124 134.66 13.001 135.362 13.001C136.082 13.001 136.676 13.121 137.144 13.361C137.612 13.595 137.984 13.901 138.26 14.279C138.536 14.651 138.74 15.047 138.872 15.467C139.004 15.887 139.088 16.286 139.124 16.664C139.166 17.036 139.187 17.339 139.187 17.573V23H136.991V18.32C136.991 18.02 136.967 17.684 136.919 17.312C136.877 16.934 136.781 16.574 136.631 16.232C136.487 15.89 136.262 15.608 135.956 15.386C135.65 15.158 135.239 15.044 134.723 15.044C134.351 15.044 133.991 15.128 133.643 15.296C133.301 15.464 133.016 15.761 132.788 16.187C132.56 16.613 132.446 17.219 132.446 18.005V23H130.25ZM145.432 23.27C144.538 23.27 143.758 23.045 143.092 22.595C142.426 22.145 141.91 21.533 141.544 20.759C141.178 19.985 140.995 19.112 140.995 18.14C140.995 17.156 141.178 16.277 141.544 15.503C141.916 14.729 142.441 14.12 143.119 13.676C143.797 13.232 144.595 13.01 145.513 13.01C146.065 13.01 146.566 13.094 147.016 13.262C147.466 13.43 147.862 13.667 148.204 13.973V13.28H150.103V23.468C150.103 23.72 150.091 23.957 150.067 24.179C150.049 24.401 150.016 24.62 149.968 24.836C149.746 25.778 149.239 26.471 148.447 26.915C147.661 27.365 146.719 27.59 145.621 27.59C144.811 27.59 144.058 27.401 143.362 27.023C142.672 26.651 142.138 26.135 141.76 25.475L143.758 24.485C143.938 24.833 144.199 25.094 144.541 25.268C144.883 25.442 145.246 25.529 145.63 25.529C146.308 25.529 146.866 25.352 147.304 24.998C147.742 24.644 147.952 24.122 147.934 23.432V22.505C147.604 22.751 147.229 22.94 146.809 23.072C146.395 23.204 145.936 23.27 145.432 23.27ZM145.765 21.326C146.641 21.326 147.265 21.032 147.637 20.444C148.015 19.85 148.204 19.082 148.204 18.14C148.204 17.192 148.015 16.424 147.637 15.836C147.265 15.248 146.665 14.954 145.837 14.954C145.255 14.954 144.775 15.098 144.397 15.386C144.025 15.668 143.746 16.052 143.56 16.538C143.38 17.018 143.29 17.552 143.29 18.14C143.29 18.734 143.377 19.271 143.551 19.751C143.731 20.231 144.004 20.615 144.37 20.903C144.736 21.185 145.201 21.326 145.765 21.326Z" fill="#797676"/>
<rect x="187.8" y="0.5" width="157" height="32" rx="16" stroke="#797676" stroke-dasharray="6 6"/>
<path d="M196.56 23V10.04H201.915C202.041 10.04 202.203 10.046 202.401 10.058C202.599 10.064 202.782 10.082 202.95 10.112C204.078 10.286 204.909 10.754 205.443 11.516C205.983 12.272 206.253 13.187 206.253 14.261C206.253 15.329 205.98 16.244 205.434 17.006C204.894 17.762 204.066 18.227 202.95 18.401C202.782 18.431 202.596 18.452 202.392 18.464C202.194 18.47 202.035 18.473 201.915 18.473H198.729V23H196.56ZM198.729 16.448H201.825C201.945 16.448 202.08 16.442 202.23 16.43C202.38 16.418 202.518 16.394 202.644 16.358C203.004 16.268 203.286 16.109 203.49 15.881C203.7 15.653 203.847 15.395 203.931 15.107C204.021 14.819 204.066 14.537 204.066 14.261C204.066 13.985 204.021 13.703 203.931 13.415C203.847 13.121 203.7 12.86 203.49 12.632C203.286 12.404 203.004 12.245 202.644 12.155C202.518 12.125 202.38 12.104 202.23 12.092C202.08 12.08 201.945 12.074 201.825 12.074H198.729V16.448ZM208.056 23V13.28H209.973V14.837C210.225 14.381 210.549 14.033 210.945 13.793C211.305 13.547 211.716 13.385 212.178 13.307C212.64 13.223 213.09 13.214 213.528 13.28V15.305C213.24 15.221 212.907 15.197 212.529 15.233C212.157 15.263 211.821 15.365 211.521 15.539C211.071 15.779 210.744 16.118 210.54 16.556C210.336 16.994 210.234 17.495 210.234 18.059V23H208.056ZM219.363 23.27C218.391 23.27 217.542 23.051 216.816 22.613C216.09 22.175 215.526 21.572 215.124 20.804C214.728 20.03 214.53 19.142 214.53 18.14C214.53 17.12 214.734 16.226 215.142 15.458C215.55 14.69 216.117 14.09 216.843 13.658C217.569 13.226 218.409 13.01 219.363 13.01C220.341 13.01 221.193 13.229 221.919 13.667C222.645 14.105 223.209 14.711 223.611 15.485C224.013 16.253 224.214 17.138 224.214 18.14C224.214 19.148 224.01 20.039 223.602 20.813C223.2 21.581 222.636 22.184 221.91 22.622C221.184 23.054 220.335 23.27 219.363 23.27ZM219.363 21.236C220.221 21.236 220.86 20.948 221.28 20.372C221.706 19.796 221.919 19.052 221.919 18.14C221.919 17.198 221.706 16.448 221.28 15.89C220.854 15.326 220.215 15.044 219.363 15.044C218.493 15.044 217.851 15.332 217.437 15.908C217.029 16.478 216.825 17.222 216.825 18.14C216.825 19.088 217.038 19.841 217.464 20.399C217.896 20.957 218.529 21.236 219.363 21.236ZM226.179 23V10.04H228.366V13.757C228.684 13.517 229.044 13.334 229.446 13.208C229.854 13.076 230.301 13.01 230.787 13.01C231.705 13.01 232.503 13.232 233.181 13.676C233.859 14.12 234.381 14.729 234.747 15.503C235.119 16.277 235.305 17.156 235.305 18.14C235.305 19.112 235.122 19.985 234.756 20.759C234.39 21.533 233.874 22.145 233.208 22.595C232.542 23.045 231.762 23.27 230.868 23.27C230.292 23.27 229.773 23.183 229.311 23.009C228.849 22.841 228.444 22.601 228.096 22.289V23H226.179ZM230.535 21.326C231.099 21.326 231.564 21.185 231.93 20.903C232.296 20.615 232.566 20.231 232.74 19.751C232.92 19.271 233.01 18.734 233.01 18.14C233.01 17.552 232.917 17.018 232.731 16.538C232.551 16.052 232.272 15.668 231.894 15.386C231.522 15.098 231.045 14.954 230.463 14.954C229.635 14.954 229.032 15.248 228.654 15.836C228.282 16.424 228.096 17.192 228.096 18.14C228.096 19.082 228.285 19.85 228.663 20.444C229.041 21.032 229.665 21.326 230.535 21.326ZM237.468 23V9.77H239.637V23H237.468ZM246.752 23.27C245.768 23.27 244.904 23.057 244.16 22.631C243.416 22.205 242.834 21.614 242.414 20.858C242 20.102 241.793 19.232 241.793 18.248C241.793 17.186 241.997 16.262 242.405 15.476C242.813 14.69 243.38 14.084 244.106 13.658C244.832 13.226 245.672 13.01 246.626 13.01C247.634 13.01 248.489 13.244 249.191 13.712C249.899 14.18 250.424 14.846 250.766 15.71C251.108 16.568 251.237 17.579 251.153 18.743H244.115C244.199 19.547 244.454 20.165 244.88 20.597C245.306 21.023 245.888 21.236 246.626 21.236C247.712 21.236 248.471 20.774 248.903 19.85L251.045 20.498C250.673 21.38 250.097 22.064 249.317 22.55C248.543 23.03 247.688 23.27 246.752 23.27ZM246.716 14.909C245.276 14.909 244.427 15.641 244.169 17.105H248.948C248.858 16.349 248.63 15.794 248.264 15.44C247.904 15.086 247.388 14.909 246.716 14.909ZM252.88 23V13.28H254.797V14.333C255.115 13.931 255.517 13.616 256.003 13.388C256.495 13.154 257.032 13.037 257.614 13.037C258.304 13.037 258.883 13.178 259.351 13.46C259.825 13.736 260.191 14.111 260.449 14.585C260.749 14.105 261.16 13.727 261.682 13.451C262.204 13.175 262.78 13.037 263.41 13.037C264.484 13.037 265.306 13.361 265.876 14.009C266.452 14.651 266.74 15.497 266.74 16.547V23H264.571V17.096C264.571 16.43 264.403 15.911 264.067 15.539C263.737 15.161 263.293 14.972 262.735 14.972C262.213 14.972 261.775 15.152 261.421 15.512C261.073 15.872 260.899 16.373 260.899 17.015V23H258.739V17.123C258.739 16.451 258.574 15.926 258.244 15.548C257.914 15.164 257.464 14.972 256.894 14.972C256.342 14.972 255.898 15.161 255.562 15.539C255.232 15.917 255.067 16.409 255.067 17.015V23H252.88ZM277.488 23.27C276.54 23.27 275.685 23.105 274.923 22.775C274.167 22.445 273.543 21.974 273.051 21.362C272.565 20.744 272.256 20.012 272.124 19.166L274.374 18.824C274.566 19.592 274.959 20.186 275.553 20.606C276.153 21.026 276.843 21.236 277.623 21.236C278.085 21.236 278.52 21.164 278.928 21.02C279.336 20.876 279.666 20.666 279.918 20.39C280.176 20.108 280.305 19.769 280.305 19.373C280.305 18.671 279.825 18.173 278.865 17.879L275.517 16.889C275.229 16.805 274.917 16.694 274.581 16.556C274.251 16.412 273.936 16.217 273.636 15.971C273.342 15.719 273.099 15.401 272.907 15.017C272.721 14.627 272.628 14.147 272.628 13.577C272.628 12.743 272.838 12.044 273.258 11.48C273.684 10.916 274.254 10.493 274.968 10.211C275.688 9.923 276.486 9.782 277.362 9.788C278.694 9.8 279.807 10.136 280.701 10.796C281.595 11.45 282.186 12.377 282.474 13.577L280.143 13.982C279.999 13.298 279.66 12.77 279.126 12.398C278.598 12.026 278.001 11.831 277.335 11.813C276.903 11.807 276.501 11.873 276.129 12.011C275.763 12.143 275.466 12.335 275.238 12.587C275.016 12.839 274.905 13.133 274.905 13.469C274.905 13.787 275.001 14.048 275.193 14.252C275.385 14.45 275.625 14.609 275.913 14.729C276.201 14.843 276.489 14.939 276.777 15.017L279.099 15.665C279.417 15.749 279.774 15.863 280.17 16.007C280.566 16.151 280.947 16.352 281.313 16.61C281.679 16.868 281.979 17.21 282.213 17.636C282.453 18.056 282.573 18.587 282.573 19.229C282.573 20.129 282.333 20.879 281.853 21.479C281.379 22.073 280.755 22.52 279.981 22.82C279.207 23.12 278.376 23.27 277.488 23.27ZM288.814 23.27C287.842 23.27 286.993 23.051 286.267 22.613C285.541 22.175 284.977 21.572 284.575 20.804C284.179 20.03 283.981 19.142 283.981 18.14C283.981 17.12 284.185 16.226 284.593 15.458C285.001 14.69 285.568 14.09 286.294 13.658C287.02 13.226 287.86 13.01 288.814 13.01C289.792 13.01 290.644 13.229 291.37 13.667C292.096 14.105 292.66 14.711 293.062 15.485C293.464 16.253 293.665 17.138 293.665 18.14C293.665 19.148 293.461 20.039 293.053 20.813C292.651 21.581 292.087 22.184 291.361 22.622C290.635 23.054 289.786 23.27 288.814 23.27ZM288.814 21.236C289.672 21.236 290.311 20.948 290.731 20.372C291.157 19.796 291.37 19.052 291.37 18.14C291.37 17.198 291.157 16.448 290.731 15.89C290.305 15.326 289.666 15.044 288.814 15.044C287.944 15.044 287.302 15.332 286.888 15.908C286.48 16.478 286.276 17.222 286.276 18.14C286.276 19.088 286.489 19.841 286.915 20.399C287.347 20.957 287.98 21.236 288.814 21.236ZM295.828 23V9.77H297.997V23H295.828ZM303.321 23L299.793 13.28H301.962L304.41 20.327L306.849 13.28H309.027L305.499 23H303.321ZM310.822 23V13.28H312.991V23H310.822ZM311.902 12.11C311.53 12.11 311.221 11.987 310.975 11.741C310.729 11.489 310.606 11.18 310.606 10.814C310.606 10.454 310.729 10.148 310.975 9.896C311.221 9.644 311.53 9.518 311.902 9.518C312.28 9.518 312.592 9.644 312.838 9.896C313.084 10.148 313.207 10.454 313.207 10.814C313.207 11.18 313.084 11.489 312.838 11.741C312.592 11.987 312.28 12.11 311.902 12.11ZM315.669 23V13.28H317.604V14.36C317.958 13.94 318.399 13.61 318.927 13.37C319.461 13.124 320.079 13.001 320.781 13.001C321.501 13.001 322.095 13.121 322.563 13.361C323.031 13.595 323.403 13.901 323.679 14.279C323.955 14.651 324.159 15.047 324.291 15.467C324.423 15.887 324.507 16.286 324.543 16.664C324.585 17.036 324.606 17.339 324.606 17.573V23H322.41V18.32C322.41 18.02 322.386 17.684 322.338 17.312C322.296 16.934 322.2 16.574 322.05 16.232C321.906 15.89 321.681 15.608 321.375 15.386C321.069 15.158 320.658 15.044 320.142 15.044C319.77 15.044 319.41 15.128 319.062 15.296C318.72 15.464 318.435 15.761 318.207 16.187C317.979 16.613 317.865 17.219 317.865 18.005V23H315.669ZM330.851 23.27C329.957 23.27 329.177 23.045 328.511 22.595C327.845 22.145 327.329 21.533 326.963 20.759C326.597 19.985 326.414 19.112 326.414 18.14C326.414 17.156 326.597 16.277 326.963 15.503C327.335 14.729 327.86 14.12 328.538 13.676C329.216 13.232 330.014 13.01 330.932 13.01C331.484 13.01 331.985 13.094 332.435 13.262C332.885 13.43 333.281 13.667 333.623 13.973V13.28H335.522V23.468C335.522 23.72 335.51 23.957 335.486 24.179C335.468 24.401 335.435 24.62 335.387 24.836C335.165 25.778 334.658 26.471 333.866 26.915C333.08 27.365 332.138 27.59 331.04 27.59C330.23 27.59 329.477 27.401 328.781 27.023C328.091 26.651 327.557 26.135 327.179 25.475L329.177 24.485C329.357 24.833 329.618 25.094 329.96 25.268C330.302 25.442 330.665 25.529 331.049 25.529C331.727 25.529 332.285 25.352 332.723 24.998C333.161 24.644 333.371 24.122 333.353 23.432V22.505C333.023 22.751 332.648 22.94 332.228 23.072C331.814 23.204 331.355 23.27 330.851 23.27ZM331.184 21.326C332.06 21.326 332.684 21.032 333.056 20.444C333.434 19.85 333.623 19.082 333.623 18.14C333.623 17.192 333.434 16.424 333.056 15.836C332.684 15.248 332.084 14.954 331.256 14.954C330.674 14.954 330.194 15.098 329.816 15.386C329.444 15.668 329.165 16.052 328.979 16.538C328.799 17.018 328.709 17.552 328.709 18.14C328.709 18.734 328.796 19.271 328.97 19.751C329.15 20.231 329.423 20.615 329.789 20.903C330.155 21.185 330.62 21.326 331.184 21.326Z" fill="#797676"/>
<rect x="373.1" y="0.5" width="126" height="32" rx="16" stroke="#797676" stroke-dasharray="6 6"/>
<path d="M387.08 23.27C386.048 23.27 385.139 23.06 384.353 22.64C383.573 22.22 382.961 21.629 382.517 20.867C382.079 20.105 381.86 19.211 381.86 18.185V10.058L384.056 10.04V18.131C384.056 18.779 384.197 19.337 384.479 19.805C384.767 20.267 385.139 20.621 385.595 20.867C386.057 21.107 386.552 21.227 387.08 21.227C387.614 21.227 388.109 21.104 388.565 20.858C389.027 20.606 389.399 20.249 389.681 19.787C389.963 19.325 390.104 18.773 390.104 18.131V10.04H392.3V18.185C392.3 19.211 392.078 20.105 391.634 20.867C391.196 21.629 390.584 22.22 389.798 22.64C389.018 23.06 388.112 23.27 387.08 23.27ZM393.735 23L398.127 16.448L393.861 10.04H396.516L399.468 14.603L402.393 10.04H405.066L400.8 16.448L405.174 23H402.519L399.468 18.293L396.408 23H393.735ZM410.214 23V10.04H415.569C415.695 10.04 415.857 10.046 416.055 10.058C416.253 10.064 416.436 10.082 416.604 10.112C417.732 10.286 418.563 10.733 419.097 11.453C419.637 12.173 419.907 13.043 419.907 14.063C419.907 14.561 419.817 15.056 419.637 15.548C419.457 16.04 419.187 16.484 418.827 16.88C418.467 17.276 418.011 17.579 417.459 17.789L420.159 23H417.702L415.155 18.086H412.383V23H410.214ZM412.383 16.052H415.479C415.599 16.052 415.734 16.052 415.884 16.052C416.04 16.046 416.178 16.019 416.298 15.971C416.838 15.755 417.21 15.473 417.414 15.125C417.618 14.777 417.72 14.423 417.72 14.063C417.72 13.703 417.618 13.331 417.414 12.947C417.21 12.557 416.838 12.293 416.298 12.155C416.172 12.125 416.034 12.104 415.884 12.092C415.734 12.08 415.599 12.074 415.479 12.074H412.383V16.052ZM426.515 23.27C425.531 23.27 424.667 23.057 423.923 22.631C423.179 22.205 422.597 21.614 422.177 20.858C421.763 20.102 421.556 19.232 421.556 18.248C421.556 17.186 421.76 16.262 422.168 15.476C422.576 14.69 423.143 14.084 423.869 13.658C424.595 13.226 425.435 13.01 426.389 13.01C427.397 13.01 428.252 13.244 428.954 13.712C429.662 14.18 430.187 14.846 430.529 15.71C430.871 16.568 431 17.579 430.916 18.743H423.878C423.962 19.547 424.217 20.165 424.643 20.597C425.069 21.023 425.651 21.236 426.389 21.236C427.475 21.236 428.234 20.774 428.666 19.85L430.808 20.498C430.436 21.38 429.86 22.064 429.08 22.55C428.306 23.03 427.451 23.27 426.515 23.27ZM426.479 14.909C425.039 14.909 424.19 15.641 423.932 17.105H428.711C428.621 16.349 428.393 15.794 428.027 15.44C427.667 15.086 427.151 14.909 426.479 14.909ZM436.678 23.27C435.478 23.27 434.503 23 433.753 22.46C433.003 21.92 432.547 21.161 432.385 20.183L434.599 19.841C434.707 20.321 434.956 20.699 435.346 20.975C435.742 21.251 436.237 21.389 436.831 21.389C437.347 21.389 437.749 21.287 438.037 21.083C438.325 20.873 438.469 20.588 438.469 20.228C438.469 20.006 438.415 19.829 438.307 19.697C438.199 19.559 437.968 19.427 437.614 19.301C437.266 19.175 436.726 19.016 435.994 18.824C435.178 18.608 434.53 18.377 434.05 18.131C433.57 17.879 433.225 17.582 433.015 17.24C432.805 16.898 432.7 16.484 432.7 15.998C432.7 15.086 433.048 14.36 433.744 13.82C434.44 13.28 435.367 13.01 436.525 13.01C437.659 13.01 438.595 13.271 439.333 13.793C440.071 14.309 440.5 15.005 440.62 15.881L438.406 16.277C438.346 15.863 438.154 15.536 437.83 15.296C437.512 15.056 437.089 14.921 436.561 14.891C436.051 14.867 435.64 14.948 435.328 15.134C435.016 15.314 434.86 15.566 434.86 15.89C434.86 16.076 434.923 16.235 435.049 16.367C435.175 16.499 435.427 16.631 435.805 16.763C436.189 16.895 436.759 17.057 437.515 17.249C438.679 17.549 439.498 17.915 439.972 18.347C440.452 18.779 440.692 19.373 440.692 20.129C440.692 21.107 440.335 21.875 439.621 22.433C438.913 22.991 437.932 23.27 436.678 23.27ZM447.082 23.27C446.098 23.27 445.234 23.057 444.49 22.631C443.746 22.205 443.164 21.614 442.744 20.858C442.33 20.102 442.123 19.232 442.123 18.248C442.123 17.186 442.327 16.262 442.735 15.476C443.143 14.69 443.71 14.084 444.436 13.658C445.162 13.226 446.002 13.01 446.956 13.01C447.964 13.01 448.819 13.244 449.521 13.712C450.229 14.18 450.754 14.846 451.096 15.71C451.438 16.568 451.567 17.579 451.483 18.743H444.445C444.529 19.547 444.784 20.165 445.21 20.597C445.636 21.023 446.218 21.236 446.956 21.236C448.042 21.236 448.801 20.774 449.233 19.85L451.375 20.498C451.003 21.38 450.427 22.064 449.647 22.55C448.873 23.03 448.018 23.27 447.082 23.27ZM447.046 14.909C445.606 14.909 444.757 15.641 444.499 17.105H449.278C449.188 16.349 448.96 15.794 448.594 15.44C448.234 15.086 447.718 14.909 447.046 14.909ZM456.033 23.27C455.331 23.27 454.737 23.138 454.251 22.874C453.765 22.604 453.396 22.247 453.144 21.803C452.898 21.359 452.775 20.87 452.775 20.336C452.775 19.628 452.952 19.034 453.306 18.554C453.66 18.068 454.221 17.693 454.989 17.429C455.499 17.261 456.117 17.12 456.843 17.006C457.575 16.886 458.367 16.763 459.219 16.637C459.177 16.079 459 15.668 458.688 15.404C458.382 15.134 457.896 14.999 457.23 14.999C456.792 14.999 456.369 15.104 455.961 15.314C455.553 15.518 455.268 15.866 455.106 16.358L453.126 15.737C453.36 14.915 453.816 14.255 454.494 13.757C455.172 13.259 456.084 13.01 457.23 13.01C458.094 13.01 458.853 13.151 459.507 13.433C460.167 13.715 460.656 14.177 460.974 14.819C461.148 15.161 461.253 15.512 461.289 15.872C461.325 16.226 461.343 16.613 461.343 17.033V23H459.444V21.695C459.03 22.235 458.55 22.634 458.004 22.892C457.464 23.144 456.807 23.27 456.033 23.27ZM456.465 21.542C456.957 21.542 457.377 21.455 457.725 21.281C458.073 21.107 458.349 20.894 458.553 20.642C458.763 20.39 458.904 20.153 458.976 19.931C459.066 19.709 459.123 19.46 459.147 19.184C459.177 18.902 459.192 18.647 459.192 18.419C458.418 18.539 457.791 18.644 457.311 18.734C456.831 18.818 456.42 18.917 456.078 19.031C455.706 19.169 455.415 19.34 455.205 19.544C455.001 19.742 454.899 19.997 454.899 20.309C454.899 20.663 455.031 20.957 455.295 21.191C455.565 21.425 455.955 21.542 456.465 21.542ZM463.686 23V13.28H465.603V14.837C465.855 14.381 466.179 14.033 466.575 13.793C466.935 13.547 467.346 13.385 467.808 13.307C468.27 13.223 468.72 13.214 469.158 13.28V15.305C468.87 15.221 468.537 15.197 468.159 15.233C467.787 15.263 467.451 15.365 467.151 15.539C466.701 15.779 466.374 16.118 466.17 16.556C465.966 16.994 465.864 17.495 465.864 18.059V23H463.686ZM474.921 23.27C473.919 23.27 473.064 23.048 472.356 22.604C471.648 22.154 471.105 21.542 470.727 20.768C470.355 19.994 470.166 19.118 470.16 18.14C470.166 17.144 470.361 16.262 470.745 15.494C471.135 14.72 471.687 14.114 472.401 13.676C473.115 13.232 473.964 13.01 474.948 13.01C476.052 13.01 476.985 13.289 477.747 13.847C478.515 14.399 479.016 15.155 479.25 16.115L477.09 16.7C476.922 16.178 476.643 15.773 476.253 15.485C475.863 15.191 475.419 15.044 474.921 15.044C474.075 15.044 473.454 15.338 473.058 15.926C472.662 16.508 472.461 17.246 472.455 18.14C472.461 19.064 472.668 19.811 473.076 20.381C473.49 20.951 474.105 21.236 474.921 21.236C475.497 21.236 475.95 21.104 476.28 20.84C476.616 20.576 476.868 20.195 477.036 19.697L479.25 20.192C478.95 21.182 478.425 21.944 477.675 22.478C476.925 23.006 476.007 23.27 474.921 23.27ZM481.035 23V10.04H482.97V14.36C483.324 13.94 483.765 13.61 484.293 13.37C484.827 13.124 485.445 13.001 486.147 13.001C486.867 13.001 487.461 13.121 487.929 13.361C488.397 13.595 488.769 13.901 489.045 14.279C489.321 14.651 489.525 15.047 489.657 15.467C489.789 15.887 489.873 16.286 489.909 16.664C489.951 17.036 489.972 17.339 489.972 17.573V23H487.776V18.32C487.776 18.02 487.752 17.684 487.704 17.312C487.662 16.934 487.566 16.574 487.416 16.232C487.272 15.89 487.047 15.608 486.741 15.386C486.435 15.158 486.024 15.044 485.508 15.044C485.136 15.044 484.776 15.128 484.428 15.296C484.086 15.464 483.801 15.761 483.573 16.187C483.345 16.613 483.231 17.219 483.231 18.005V23H481.035Z" fill="#797676"/>
<rect x="527.4" y="0.5" width="171" height="32" rx="16" stroke="#797676" stroke-dasharray="6 6"/>
<path d="M536.16 23V10.04H541.299C542.175 10.04 542.895 10.217 543.459 10.571C544.023 10.919 544.44 11.366 544.71 11.912C544.98 12.458 545.115 13.022 545.115 13.604C545.115 14.192 545.001 14.708 544.773 15.152C544.545 15.59 544.227 15.929 543.819 16.169C544.443 16.433 544.914 16.832 545.232 17.366C545.556 17.9 545.718 18.494 545.718 19.148C545.718 20.3 545.388 21.23 544.728 21.938C544.068 22.646 543.099 23 541.821 23H536.16ZM538.356 15.215H541.272C541.734 15.215 542.121 15.083 542.433 14.819C542.751 14.549 542.91 14.156 542.91 13.64C542.91 13.19 542.763 12.815 542.469 12.515C542.181 12.215 541.782 12.065 541.272 12.065H538.356V15.215ZM538.356 20.957H541.551C542.121 20.957 542.592 20.789 542.964 20.453C543.342 20.117 543.531 19.661 543.531 19.085C543.531 18.563 543.363 18.125 543.027 17.771C542.691 17.417 542.22 17.24 541.614 17.24H538.356V20.957ZM551.16 23.279C550.44 23.279 549.846 23.162 549.378 22.928C548.91 22.688 548.538 22.382 548.262 22.01C547.986 21.632 547.782 21.233 547.65 20.813C547.518 20.393 547.431 19.994 547.389 19.616C547.353 19.238 547.335 18.935 547.335 18.707V13.28H549.531V17.96C549.531 18.26 549.552 18.599 549.594 18.977C549.642 19.349 549.738 19.706 549.882 20.048C550.032 20.39 550.26 20.675 550.566 20.903C550.872 21.125 551.283 21.236 551.799 21.236C552.171 21.236 552.528 21.152 552.87 20.984C553.218 20.816 553.506 20.519 553.734 20.093C553.962 19.667 554.076 19.061 554.076 18.275V13.28H556.254V23H554.337V21.92C553.983 22.34 553.539 22.673 553.005 22.919C552.477 23.159 551.862 23.279 551.16 23.279ZM562.536 23.27C561.336 23.27 560.361 23 559.611 22.46C558.861 21.92 558.405 21.161 558.243 20.183L560.457 19.841C560.565 20.321 560.814 20.699 561.204 20.975C561.6 21.251 562.095 21.389 562.689 21.389C563.205 21.389 563.607 21.287 563.895 21.083C564.183 20.873 564.327 20.588 564.327 20.228C564.327 20.006 564.273 19.829 564.165 19.697C564.057 19.559 563.826 19.427 563.472 19.301C563.124 19.175 562.584 19.016 561.852 18.824C561.036 18.608 560.388 18.377 559.908 18.131C559.428 17.879 559.083 17.582 558.873 17.24C558.663 16.898 558.558 16.484 558.558 15.998C558.558 15.086 558.906 14.36 559.602 13.82C560.298 13.28 561.225 13.01 562.383 13.01C563.517 13.01 564.453 13.271 565.191 13.793C565.929 14.309 566.358 15.005 566.478 15.881L564.264 16.277C564.204 15.863 564.012 15.536 563.688 15.296C563.37 15.056 562.947 14.921 562.419 14.891C561.909 14.867 561.498 14.948 561.186 15.134C560.874 15.314 560.718 15.566 560.718 15.89C560.718 16.076 560.781 16.235 560.907 16.367C561.033 16.499 561.285 16.631 561.663 16.763C562.047 16.895 562.617 17.057 563.373 17.249C564.537 17.549 565.356 17.915 565.83 18.347C566.31 18.779 566.55 19.373 566.55 20.129C566.55 21.107 566.193 21.875 565.479 22.433C564.771 22.991 563.79 23.27 562.536 23.27ZM568.701 23V13.28H570.87V23H568.701ZM569.781 12.11C569.409 12.11 569.1 11.987 568.854 11.741C568.608 11.489 568.485 11.18 568.485 10.814C568.485 10.454 568.608 10.148 568.854 9.896C569.1 9.644 569.409 9.518 569.781 9.518C570.159 9.518 570.471 9.644 570.717 9.896C570.963 10.148 571.086 10.454 571.086 10.814C571.086 11.18 570.963 11.489 570.717 11.741C570.471 11.987 570.159 12.11 569.781 12.11ZM573.548 23V13.28H575.483V14.36C575.837 13.94 576.278 13.61 576.806 13.37C577.34 13.124 577.958 13.001 578.66 13.001C579.38 13.001 579.974 13.121 580.442 13.361C580.91 13.595 581.282 13.901 581.558 14.279C581.834 14.651 582.038 15.047 582.17 15.467C582.302 15.887 582.386 16.286 582.422 16.664C582.464 17.036 582.485 17.339 582.485 17.573V23H580.289V18.32C580.289 18.02 580.265 17.684 580.217 17.312C580.175 16.934 580.079 16.574 579.929 16.232C579.785 15.89 579.56 15.608 579.254 15.386C578.948 15.158 578.537 15.044 578.021 15.044C577.649 15.044 577.289 15.128 576.941 15.296C576.599 15.464 576.314 15.761 576.086 16.187C575.858 16.613 575.744 17.219 575.744 18.005V23H573.548ZM589.095 23.27C588.111 23.27 587.247 23.057 586.503 22.631C585.759 22.205 585.177 21.614 584.757 20.858C584.343 20.102 584.136 19.232 584.136 18.248C584.136 17.186 584.34 16.262 584.748 15.476C585.156 14.69 585.723 14.084 586.449 13.658C587.175 13.226 588.015 13.01 588.969 13.01C589.977 13.01 590.832 13.244 591.534 13.712C592.242 14.18 592.767 14.846 593.109 15.71C593.451 16.568 593.58 17.579 593.496 18.743H586.458C586.542 19.547 586.797 20.165 587.223 20.597C587.649 21.023 588.231 21.236 588.969 21.236C590.055 21.236 590.814 20.774 591.246 19.85L593.388 20.498C593.016 21.38 592.44 22.064 591.66 22.55C590.886 23.03 590.031 23.27 589.095 23.27ZM589.059 14.909C587.619 14.909 586.77 15.641 586.512 17.105H591.291C591.201 16.349 590.973 15.794 590.607 15.44C590.247 15.086 589.731 14.909 589.059 14.909ZM599.257 23.27C598.057 23.27 597.082 23 596.332 22.46C595.582 21.92 595.126 21.161 594.964 20.183L597.178 19.841C597.286 20.321 597.535 20.699 597.925 20.975C598.321 21.251 598.816 21.389 599.41 21.389C599.926 21.389 600.328 21.287 600.616 21.083C600.904 20.873 601.048 20.588 601.048 20.228C601.048 20.006 600.994 19.829 600.886 19.697C600.778 19.559 600.547 19.427 600.193 19.301C599.845 19.175 599.305 19.016 598.573 18.824C597.757 18.608 597.109 18.377 596.629 18.131C596.149 17.879 595.804 17.582 595.594 17.24C595.384 16.898 595.279 16.484 595.279 15.998C595.279 15.086 595.627 14.36 596.323 13.82C597.019 13.28 597.946 13.01 599.104 13.01C600.238 13.01 601.174 13.271 601.912 13.793C602.65 14.309 603.079 15.005 603.199 15.881L600.985 16.277C600.925 15.863 600.733 15.536 600.409 15.296C600.091 15.056 599.668 14.921 599.14 14.891C598.63 14.867 598.219 14.948 597.907 15.134C597.595 15.314 597.439 15.566 597.439 15.89C597.439 16.076 597.502 16.235 597.628 16.367C597.754 16.499 598.006 16.631 598.384 16.763C598.768 16.895 599.338 17.057 600.094 17.249C601.258 17.549 602.077 17.915 602.551 18.347C603.031 18.779 603.271 19.373 603.271 20.129C603.271 21.107 602.914 21.875 602.2 22.433C601.492 22.991 600.511 23.27 599.257 23.27ZM608.995 23.27C607.795 23.27 606.82 23 606.07 22.46C605.32 21.92 604.864 21.161 604.702 20.183L606.916 19.841C607.024 20.321 607.273 20.699 607.663 20.975C608.059 21.251 608.554 21.389 609.148 21.389C609.664 21.389 610.066 21.287 610.354 21.083C610.642 20.873 610.786 20.588 610.786 20.228C610.786 20.006 610.732 19.829 610.624 19.697C610.516 19.559 610.285 19.427 609.931 19.301C609.583 19.175 609.043 19.016 608.311 18.824C607.495 18.608 606.847 18.377 606.367 18.131C605.887 17.879 605.542 17.582 605.332 17.24C605.122 16.898 605.017 16.484 605.017 15.998C605.017 15.086 605.365 14.36 606.061 13.82C606.757 13.28 607.684 13.01 608.842 13.01C609.976 13.01 610.912 13.271 611.65 13.793C612.388 14.309 612.817 15.005 612.937 15.881L610.723 16.277C610.663 15.863 610.471 15.536 610.147 15.296C609.829 15.056 609.406 14.921 608.878 14.891C608.368 14.867 607.957 14.948 607.645 15.134C607.333 15.314 607.177 15.566 607.177 15.89C607.177 16.076 607.24 16.235 607.366 16.367C607.492 16.499 607.744 16.631 608.122 16.763C608.506 16.895 609.076 17.057 609.832 17.249C610.996 17.549 611.815 17.915 612.289 18.347C612.769 18.779 613.009 19.373 613.009 20.129C613.009 21.107 612.652 21.875 611.938 22.433C611.23 22.991 610.249 23.27 608.995 23.27ZM617.684 23L621.77 10.04H624.947L629.033 23H626.801L625.901 20.192H620.807L619.916 23H617.684ZM621.437 18.167H625.262L623.336 12.128L621.437 18.167ZM630.642 23V13.28H632.577V14.36C632.931 13.94 633.372 13.61 633.9 13.37C634.434 13.124 635.052 13.001 635.754 13.001C636.474 13.001 637.068 13.121 637.536 13.361C638.004 13.595 638.376 13.901 638.652 14.279C638.928 14.651 639.132 15.047 639.264 15.467C639.396 15.887 639.48 16.286 639.516 16.664C639.558 17.036 639.579 17.339 639.579 17.573V23H637.383V18.32C637.383 18.02 637.359 17.684 637.311 17.312C637.269 16.934 637.173 16.574 637.023 16.232C636.879 15.89 636.654 15.608 636.348 15.386C636.042 15.158 635.631 15.044 635.115 15.044C634.743 15.044 634.383 15.128 634.035 15.296C633.693 15.464 633.408 15.761 633.18 16.187C632.952 16.613 632.838 17.219 632.838 18.005V23H630.642ZM644.645 23.27C643.943 23.27 643.349 23.138 642.863 22.874C642.377 22.604 642.008 22.247 641.756 21.803C641.51 21.359 641.387 20.87 641.387 20.336C641.387 19.628 641.564 19.034 641.918 18.554C642.272 18.068 642.833 17.693 643.601 17.429C644.111 17.261 644.729 17.12 645.455 17.006C646.187 16.886 646.979 16.763 647.831 16.637C647.789 16.079 647.612 15.668 647.3 15.404C646.994 15.134 646.508 14.999 645.842 14.999C645.404 14.999 644.981 15.104 644.573 15.314C644.165 15.518 643.88 15.866 643.718 16.358L641.738 15.737C641.972 14.915 642.428 14.255 643.106 13.757C643.784 13.259 644.696 13.01 645.842 13.01C646.706 13.01 647.465 13.151 648.119 13.433C648.779 13.715 649.268 14.177 649.586 14.819C649.76 15.161 649.865 15.512 649.901 15.872C649.937 16.226 649.955 16.613 649.955 17.033V23H648.056V21.695C647.642 22.235 647.162 22.634 646.616 22.892C646.076 23.144 645.419 23.27 644.645 23.27ZM645.077 21.542C645.569 21.542 645.989 21.455 646.337 21.281C646.685 21.107 646.961 20.894 647.165 20.642C647.375 20.39 647.516 20.153 647.588 19.931C647.678 19.709 647.735 19.46 647.759 19.184C647.789 18.902 647.804 18.647 647.804 18.419C647.03 18.539 646.403 18.644 645.923 18.734C645.443 18.818 645.032 18.917 644.69 19.031C644.318 19.169 644.027 19.34 643.817 19.544C643.613 19.742 643.511 19.997 643.511 20.309C643.511 20.663 643.643 20.957 643.907 21.191C644.177 21.425 644.567 21.542 645.077 21.542ZM652.479 23V9.77H654.648V23H652.479ZM658.621 27.32L660.223 22.937L656.29 13.28H658.549L661.258 20.237L663.904 13.28H666.073L660.655 27.32H658.621ZM671.169 23.27C669.969 23.27 668.994 23 668.244 22.46C667.494 21.92 667.038 21.161 666.876 20.183L669.09 19.841C669.198 20.321 669.447 20.699 669.837 20.975C670.233 21.251 670.728 21.389 671.322 21.389C671.838 21.389 672.24 21.287 672.528 21.083C672.816 20.873 672.96 20.588 672.96 20.228C672.96 20.006 672.906 19.829 672.798 19.697C672.69 19.559 672.459 19.427 672.105 19.301C671.757 19.175 671.217 19.016 670.485 18.824C669.669 18.608 669.021 18.377 668.541 18.131C668.061 17.879 667.716 17.582 667.506 17.24C667.296 16.898 667.191 16.484 667.191 15.998C667.191 15.086 667.539 14.36 668.235 13.82C668.931 13.28 669.858 13.01 671.016 13.01C672.15 13.01 673.086 13.271 673.824 13.793C674.562 14.309 674.991 15.005 675.111 15.881L672.897 16.277C672.837 15.863 672.645 15.536 672.321 15.296C672.003 15.056 671.58 14.921 671.052 14.891C670.542 14.867 670.131 14.948 669.819 15.134C669.507 15.314 669.351 15.566 669.351 15.89C669.351 16.076 669.414 16.235 669.54 16.367C669.666 16.499 669.918 16.631 670.296 16.763C670.68 16.895 671.25 17.057 672.006 17.249C673.17 17.549 673.989 17.915 674.463 18.347C674.943 18.779 675.183 19.373 675.183 20.129C675.183 21.107 674.826 21.875 674.112 22.433C673.404 22.991 672.423 23.27 671.169 23.27ZM677.334 23V13.28H679.503V23H677.334ZM678.414 12.11C678.042 12.11 677.733 11.987 677.487 11.741C677.241 11.489 677.118 11.18 677.118 10.814C677.118 10.454 677.241 10.148 677.487 9.896C677.733 9.644 678.042 9.518 678.414 9.518C678.792 9.518 679.104 9.644 679.35 9.896C679.596 10.148 679.719 10.454 679.719 10.814C679.719 11.18 679.596 11.489 679.35 11.741C679.104 11.987 678.792 12.11 678.414 12.11ZM685.952 23.27C684.752 23.27 683.777 23 683.027 22.46C682.277 21.92 681.821 21.161 681.659 20.183L683.873 19.841C683.981 20.321 684.23 20.699 684.62 20.975C685.016 21.251 685.511 21.389 686.105 21.389C686.621 21.389 687.023 21.287 687.311 21.083C687.599 20.873 687.743 20.588 687.743 20.228C687.743 20.006 687.689 19.829 687.581 19.697C687.473 19.559 687.242 19.427 686.888 19.301C686.54 19.175 686 19.016 685.268 18.824C684.452 18.608 683.804 18.377 683.324 18.131C682.844 17.879 682.499 17.582 682.289 17.24C682.079 16.898 681.974 16.484 681.974 15.998C681.974 15.086 682.322 14.36 683.018 13.82C683.714 13.28 684.641 13.01 685.799 13.01C686.933 13.01 687.869 13.271 688.607 13.793C689.345 14.309 689.774 15.005 689.894 15.881L687.68 16.277C687.62 15.863 687.428 15.536 687.104 15.296C686.786 15.056 686.363 14.921 685.835 14.891C685.325 14.867 684.914 14.948 684.602 15.134C684.29 15.314 684.134 15.566 684.134 15.89C684.134 16.076 684.197 16.235 684.323 16.367C684.449 16.499 684.701 16.631 685.079 16.763C685.463 16.895 686.033 17.057 686.789 17.249C687.953 17.549 688.772 17.915 689.246 18.347C689.726 18.779 689.966 19.373 689.966 20.129C689.966 21.107 689.609 21.875 688.895 22.433C688.187 22.991 687.206 23.27 685.952 23.27Z" fill="#797676"/>
<rect x="726.7" y="0.5" width="88" height="32" rx="16" stroke="#797676" stroke-dasharray="6 6"/>
<path d="M735.64 23V10.04H737.809V23H735.64ZM744.402 23.27C743.508 23.27 742.728 23.045 742.062 22.595C741.396 22.145 740.88 21.533 740.514 20.759C740.148 19.985 739.965 19.112 739.965 18.14C739.965 17.156 740.148 16.277 740.514 15.503C740.886 14.729 741.411 14.12 742.089 13.676C742.767 13.232 743.565 13.01 744.483 13.01C744.969 13.01 745.413 13.076 745.815 13.208C746.223 13.334 746.586 13.517 746.904 13.757V10.04H749.091V23H747.174V22.289C746.826 22.601 746.421 22.841 745.959 23.009C745.497 23.183 744.978 23.27 744.402 23.27ZM744.735 21.326C745.611 21.326 746.235 21.032 746.607 20.444C746.985 19.85 747.174 19.082 747.174 18.14C747.174 17.192 746.985 16.424 746.607 15.836C746.235 15.248 745.635 14.954 744.807 14.954C744.225 14.954 743.745 15.098 743.367 15.386C742.995 15.668 742.716 16.052 742.53 16.538C742.35 17.018 742.26 17.552 742.26 18.14C742.26 18.734 742.347 19.271 742.521 19.751C742.701 20.231 742.974 20.615 743.34 20.903C743.706 21.185 744.171 21.326 744.735 21.326ZM756.033 23.27C755.049 23.27 754.185 23.057 753.441 22.631C752.697 22.205 752.115 21.614 751.695 20.858C751.281 20.102 751.074 19.232 751.074 18.248C751.074 17.186 751.278 16.262 751.686 15.476C752.094 14.69 752.661 14.084 753.387 13.658C754.113 13.226 754.953 13.01 755.907 13.01C756.915 13.01 757.77 13.244 758.472 13.712C759.18 14.18 759.705 14.846 760.047 15.71C760.389 16.568 760.518 17.579 760.434 18.743H753.396C753.48 19.547 753.735 20.165 754.161 20.597C754.587 21.023 755.169 21.236 755.907 21.236C756.993 21.236 757.752 20.774 758.184 19.85L760.326 20.498C759.954 21.38 759.378 22.064 758.598 22.55C757.824 23.03 756.969 23.27 756.033 23.27ZM755.997 14.909C754.557 14.909 753.708 15.641 753.45 17.105H758.229C758.139 16.349 757.911 15.794 757.545 15.44C757.185 15.086 756.669 14.909 755.997 14.909ZM764.985 23.27C764.283 23.27 763.689 23.138 763.203 22.874C762.717 22.604 762.348 22.247 762.096 21.803C761.85 21.359 761.727 20.87 761.727 20.336C761.727 19.628 761.904 19.034 762.258 18.554C762.612 18.068 763.173 17.693 763.941 17.429C764.451 17.261 765.069 17.12 765.795 17.006C766.527 16.886 767.319 16.763 768.171 16.637C768.129 16.079 767.952 15.668 767.64 15.404C767.334 15.134 766.848 14.999 766.182 14.999C765.744 14.999 765.321 15.104 764.913 15.314C764.505 15.518 764.22 15.866 764.058 16.358L762.078 15.737C762.312 14.915 762.768 14.255 763.446 13.757C764.124 13.259 765.036 13.01 766.182 13.01C767.046 13.01 767.805 13.151 768.459 13.433C769.119 13.715 769.608 14.177 769.926 14.819C770.1 15.161 770.205 15.512 770.241 15.872C770.277 16.226 770.295 16.613 770.295 17.033V23H768.396V21.695C767.982 22.235 767.502 22.634 766.956 22.892C766.416 23.144 765.759 23.27 764.985 23.27ZM765.417 21.542C765.909 21.542 766.329 21.455 766.677 21.281C767.025 21.107 767.301 20.894 767.505 20.642C767.715 20.39 767.856 20.153 767.928 19.931C768.018 19.709 768.075 19.46 768.099 19.184C768.129 18.902 768.144 18.647 768.144 18.419C767.37 18.539 766.743 18.644 766.263 18.734C765.783 18.818 765.372 18.917 765.03 19.031C764.658 19.169 764.367 19.34 764.157 19.544C763.953 19.742 763.851 19.997 763.851 20.309C763.851 20.663 763.983 20.957 764.247 21.191C764.517 21.425 764.907 21.542 765.417 21.542ZM778.335 23C777.693 23.12 777.063 23.171 776.445 23.153C775.833 23.141 775.284 23.03 774.798 22.82C774.312 22.604 773.943 22.265 773.691 21.803C773.469 21.383 773.352 20.957 773.34 20.525C773.328 20.087 773.322 19.589 773.322 19.031V14.981H771.558V13.28H773.322V10.58H775.482V13.28H778.335V14.981H775.482V18.905C775.482 19.295 775.485 19.637 775.491 19.931C775.503 20.225 775.566 20.465 775.68 20.651C775.896 21.011 776.241 21.212 776.715 21.254C777.189 21.296 777.729 21.272 778.335 21.182V23ZM780.605 23V13.28H782.774V23H780.605ZM781.685 12.11C781.313 12.11 781.004 11.987 780.758 11.741C780.512 11.489 780.389 11.18 780.389 10.814C780.389 10.454 780.512 10.148 780.758 9.896C781.004 9.644 781.313 9.518 781.685 9.518C782.063 9.518 782.375 9.644 782.621 9.896C782.867 10.148 782.99 10.454 782.99 10.814C782.99 11.18 782.867 11.489 782.621 11.741C782.375 11.987 782.063 12.11 781.685 12.11ZM789.763 23.27C788.791 23.27 787.942 23.051 787.216 22.613C786.49 22.175 785.926 21.572 785.524 20.804C785.128 20.03 784.93 19.142 784.93 18.14C784.93 17.12 785.134 16.226 785.542 15.458C785.95 14.69 786.517 14.09 787.243 13.658C787.969 13.226 788.809 13.01 789.763 13.01C790.741 13.01 791.593 13.229 792.319 13.667C793.045 14.105 793.609 14.711 794.011 15.485C794.413 16.253 794.614 17.138 794.614 18.14C794.614 19.148 794.41 20.039 794.002 20.813C793.6 21.581 793.036 22.184 792.31 22.622C791.584 23.054 790.735 23.27 789.763 23.27ZM789.763 21.236C790.621 21.236 791.26 20.948 791.68 20.372C792.106 19.796 792.319 19.052 792.319 18.14C792.319 17.198 792.106 16.448 791.68 15.89C791.254 15.326 790.615 15.044 789.763 15.044C788.893 15.044 788.251 15.332 787.837 15.908C787.429 16.478 787.225 17.222 787.225 18.14C787.225 19.088 787.438 19.841 787.864 20.399C788.296 20.957 788.929 21.236 789.763 21.236ZM796.579 23V13.28H798.514V14.36C798.868 13.94 799.309 13.61 799.837 13.37C800.371 13.124 800.989 13.001 801.691 13.001C802.411 13.001 803.005 13.121 803.473 13.361C803.941 13.595 804.313 13.901 804.589 14.279C804.865 14.651 805.069 15.047 805.201 15.467C805.333 15.887 805.417 16.286 805.453 16.664C805.495 17.036 805.516 17.339 805.516 17.573V23H803.32V18.32C803.32 18.02 803.296 17.684 803.248 17.312C803.206 16.934 803.11 16.574 802.96 16.232C802.816 15.89 802.591 15.608 802.285 15.386C801.979 15.158 801.568 15.044 801.052 15.044C800.68 15.044 800.32 15.128 799.972 15.296C799.63 15.464 799.345 15.761 799.117 16.187C798.889 16.613 798.775 17.219 798.775 18.005V23H796.579Z" fill="#797676"/>
<rect x="843" y="0.5" width="60" height="32" rx="16" stroke="#797676" stroke-dasharray="6 6"/>
<path d="M850.86 23L854.946 10.04H858.123L862.209 23H859.977L859.077 20.192H853.983L853.092 23H850.86ZM854.613 18.167H858.438L856.512 12.128L854.613 18.167ZM867.733 23.27C866.839 23.27 866.059 23.045 865.393 22.595C864.727 22.145 864.211 21.533 863.845 20.759C863.479 19.985 863.296 19.112 863.296 18.14C863.296 17.156 863.479 16.277 863.845 15.503C864.217 14.729 864.742 14.12 865.42 13.676C866.098 13.232 866.896 13.01 867.814 13.01C868.366 13.01 868.867 13.094 869.317 13.262C869.767 13.43 870.163 13.667 870.505 13.973V13.28H872.404V23.468C872.404 23.72 872.392 23.957 872.368 24.179C872.35 24.401 872.317 24.62 872.269 24.836C872.047 25.778 871.54 26.471 870.748 26.915C869.962 27.365 869.02 27.59 867.922 27.59C867.112 27.59 866.359 27.401 865.663 27.023C864.973 26.651 864.439 26.135 864.061 25.475L866.059 24.485C866.239 24.833 866.5 25.094 866.842 25.268C867.184 25.442 867.547 25.529 867.931 25.529C868.609 25.529 869.167 25.352 869.605 24.998C870.043 24.644 870.253 24.122 870.235 23.432V22.505C869.905 22.751 869.53 22.94 869.11 23.072C868.696 23.204 868.237 23.27 867.733 23.27ZM868.066 21.326C868.942 21.326 869.566 21.032 869.938 20.444C870.316 19.85 870.505 19.082 870.505 18.14C870.505 17.192 870.316 16.424 869.938 15.836C869.566 15.248 868.966 14.954 868.138 14.954C867.556 14.954 867.076 15.098 866.698 15.386C866.326 15.668 866.047 16.052 865.861 16.538C865.681 17.018 865.591 17.552 865.591 18.14C865.591 18.734 865.678 19.271 865.852 19.751C866.032 20.231 866.305 20.615 866.671 20.903C867.037 21.185 867.502 21.326 868.066 21.326ZM875.108 23V13.28H877.277V23H875.108ZM876.188 12.11C875.816 12.11 875.507 11.987 875.261 11.741C875.015 11.489 874.892 11.18 874.892 10.814C874.892 10.454 875.015 10.148 875.261 9.896C875.507 9.644 875.816 9.518 876.188 9.518C876.566 9.518 876.878 9.644 877.124 9.896C877.37 10.148 877.493 10.454 877.493 10.814C877.493 11.18 877.37 11.489 877.124 11.741C876.878 11.987 876.566 12.11 876.188 12.11ZM880.153 23V9.77H882.322V23H880.153ZM889.437 23.27C888.453 23.27 887.589 23.057 886.845 22.631C886.101 22.205 885.519 21.614 885.099 20.858C884.685 20.102 884.478 19.232 884.478 18.248C884.478 17.186 884.682 16.262 885.09 15.476C885.498 14.69 886.065 14.084 886.791 13.658C887.517 13.226 888.357 13.01 889.311 13.01C890.319 13.01 891.174 13.244 891.876 13.712C892.584 14.18 893.109 14.846 893.451 15.71C893.793 16.568 893.922 17.579 893.838 18.743H886.8C886.884 19.547 887.139 20.165 887.565 20.597C887.991 21.023 888.573 21.236 889.311 21.236C890.397 21.236 891.156 20.774 891.588 19.85L893.73 20.498C893.358 21.38 892.782 22.064 892.002 22.55C891.228 23.03 890.373 23.27 889.437 23.27ZM889.401 14.909C887.961 14.909 887.112 15.641 886.854 17.105H891.633C891.543 16.349 891.315 15.794 890.949 15.44C890.589 15.086 890.073 14.909 889.401 14.909Z" fill="#797676"/>
<rect x="931.3" y="0.5" width="237" height="32" rx="16" stroke="#797676" stroke-dasharray="6 6"/>
<path d="M943.843 23V10.04H946.012V23H943.843ZM948.69 23V13.28H950.625V14.36C950.979 13.94 951.42 13.61 951.948 13.37C952.482 13.124 953.1 13.001 953.802 13.001C954.522 13.001 955.116 13.121 955.584 13.361C956.052 13.595 956.424 13.901 956.7 14.279C956.976 14.651 957.18 15.047 957.312 15.467C957.444 15.887 957.528 16.286 957.564 16.664C957.606 17.036 957.627 17.339 957.627 17.573V23H955.431V18.32C955.431 18.02 955.407 17.684 955.359 17.312C955.317 16.934 955.221 16.574 955.071 16.232C954.927 15.89 954.702 15.608 954.396 15.386C954.09 15.158 953.679 15.044 953.163 15.044C952.791 15.044 952.431 15.128 952.083 15.296C951.741 15.464 951.456 15.761 951.228 16.187C951 16.613 950.886 17.219 950.886 18.005V23H948.69ZM960.822 23V14.981H959.256V13.28H960.822V13.127C960.822 12.755 960.846 12.335 960.894 11.867C960.942 11.399 961.131 10.985 961.461 10.625C961.737 10.319 962.034 10.109 962.352 9.995C962.676 9.875 962.994 9.809 963.306 9.797C963.618 9.779 963.891 9.77 964.125 9.77H965.34V11.534H964.215C963.801 11.534 963.492 11.639 963.288 11.849C963.09 12.053 962.991 12.323 962.991 12.659V13.28H965.34V14.981H962.991V23H960.822ZM970.72 23.27C969.748 23.27 968.899 23.051 968.173 22.613C967.447 22.175 966.883 21.572 966.481 20.804C966.085 20.03 965.887 19.142 965.887 18.14C965.887 17.12 966.091 16.226 966.499 15.458C966.907 14.69 967.474 14.09 968.2 13.658C968.926 13.226 969.766 13.01 970.72 13.01C971.698 13.01 972.55 13.229 973.276 13.667C974.002 14.105 974.566 14.711 974.968 15.485C975.37 16.253 975.571 17.138 975.571 18.14C975.571 19.148 975.367 20.039 974.959 20.813C974.557 21.581 973.993 22.184 973.267 22.622C972.541 23.054 971.692 23.27 970.72 23.27ZM970.72 21.236C971.578 21.236 972.217 20.948 972.637 20.372C973.063 19.796 973.276 19.052 973.276 18.14C973.276 17.198 973.063 16.448 972.637 15.89C972.211 15.326 971.572 15.044 970.72 15.044C969.85 15.044 969.208 15.332 968.794 15.908C968.386 16.478 968.182 17.222 968.182 18.14C968.182 19.088 968.395 19.841 968.821 20.399C969.253 20.957 969.886 21.236 970.72 21.236ZM977.554 23V13.28H979.471V14.837C979.723 14.381 980.047 14.033 980.443 13.793C980.803 13.547 981.214 13.385 981.676 13.307C982.138 13.223 982.588 13.214 983.026 13.28V15.305C982.738 15.221 982.405 15.197 982.027 15.233C981.655 15.263 981.319 15.365 981.019 15.539C980.569 15.779 980.242 16.118 980.038 16.556C979.834 16.994 979.732 17.495 979.732 18.059V23H977.554ZM984.725 23V13.28H986.642V14.333C986.96 13.931 987.362 13.616 987.848 13.388C988.34 13.154 988.877 13.037 989.459 13.037C990.149 13.037 990.728 13.178 991.196 13.46C991.67 13.736 992.036 14.111 992.294 14.585C992.594 14.105 993.005 13.727 993.527 13.451C994.049 13.175 994.625 13.037 995.255 13.037C996.329 13.037 997.151 13.361 997.721 14.009C998.297 14.651 998.585 15.497 998.585 16.547V23H996.416V17.096C996.416 16.43 996.248 15.911 995.912 15.539C995.582 15.161 995.138 14.972 994.58 14.972C994.058 14.972 993.62 15.152 993.266 15.512C992.918 15.872 992.744 16.373 992.744 17.015V23H990.584V17.123C990.584 16.451 990.419 15.926 990.089 15.548C989.759 15.164 989.309 14.972 988.739 14.972C988.187 14.972 987.743 15.161 987.407 15.539C987.077 15.917 986.912 16.409 986.912 17.015V23H984.725ZM1003.65 23.27C1002.95 23.27 1002.35 23.138 1001.87 22.874C1001.38 22.604 1001.01 22.247 1000.76 21.803C1000.52 21.359 1000.39 20.87 1000.39 20.336C1000.39 19.628 1000.57 19.034 1000.92 18.554C1001.28 18.068 1001.84 17.693 1002.61 17.429C1003.12 17.261 1003.73 17.12 1004.46 17.006C1005.19 16.886 1005.98 16.763 1006.84 16.637C1006.79 16.079 1006.62 15.668 1006.31 15.404C1006 15.134 1005.51 14.999 1004.85 14.999C1004.41 14.999 1003.99 15.104 1003.58 15.314C1003.17 15.518 1002.89 15.866 1002.72 16.358L1000.74 15.737C1000.98 14.915 1001.43 14.255 1002.11 13.757C1002.79 13.259 1003.7 13.01 1004.85 13.01C1005.71 13.01 1006.47 13.151 1007.12 13.433C1007.78 13.715 1008.27 14.177 1008.59 14.819C1008.77 15.161 1008.87 15.512 1008.91 15.872C1008.94 16.226 1008.96 16.613 1008.96 17.033V23H1007.06V21.695C1006.65 22.235 1006.17 22.634 1005.62 22.892C1005.08 23.144 1004.42 23.27 1003.65 23.27ZM1004.08 21.542C1004.57 21.542 1004.99 21.455 1005.34 21.281C1005.69 21.107 1005.97 20.894 1006.17 20.642C1006.38 20.39 1006.52 20.153 1006.59 19.931C1006.68 19.709 1006.74 19.46 1006.76 19.184C1006.79 18.902 1006.81 18.647 1006.81 18.419C1006.04 18.539 1005.41 18.644 1004.93 18.734C1004.45 18.818 1004.04 18.917 1003.7 19.031C1003.32 19.169 1003.03 19.34 1002.82 19.544C1002.62 19.742 1002.52 19.997 1002.52 20.309C1002.52 20.663 1002.65 20.957 1002.91 21.191C1003.18 21.425 1003.57 21.542 1004.08 21.542ZM1017 23C1016.36 23.12 1015.73 23.171 1015.11 23.153C1014.5 23.141 1013.95 23.03 1013.46 22.82C1012.98 22.604 1012.61 22.265 1012.36 21.803C1012.13 21.383 1012.02 20.957 1012.01 20.525C1011.99 20.087 1011.99 19.589 1011.99 19.031V14.981H1010.22V13.28H1011.99V10.58H1014.15V13.28H1017V14.981H1014.15V18.905C1014.15 19.295 1014.15 19.637 1014.16 19.931C1014.17 20.225 1014.23 20.465 1014.35 20.651C1014.56 21.011 1014.91 21.212 1015.38 21.254C1015.85 21.296 1016.39 21.272 1017 21.182V23ZM1019.27 23V13.28H1021.44V23H1019.27ZM1020.35 12.11C1019.98 12.11 1019.67 11.987 1019.42 11.741C1019.18 11.489 1019.06 11.18 1019.06 10.814C1019.06 10.454 1019.18 10.148 1019.42 9.896C1019.67 9.644 1019.98 9.518 1020.35 9.518C1020.73 9.518 1021.04 9.644 1021.29 9.896C1021.53 10.148 1021.66 10.454 1021.66 10.814C1021.66 11.18 1021.53 11.489 1021.29 11.741C1021.04 11.987 1020.73 12.11 1020.35 12.11ZM1028.43 23.27C1027.46 23.27 1026.61 23.051 1025.88 22.613C1025.16 22.175 1024.59 21.572 1024.19 20.804C1023.79 20.03 1023.6 19.142 1023.6 18.14C1023.6 17.12 1023.8 16.226 1024.21 15.458C1024.62 14.69 1025.18 14.09 1025.91 13.658C1026.63 13.226 1027.47 13.01 1028.43 13.01C1029.41 13.01 1030.26 13.229 1030.98 13.667C1031.71 14.105 1032.27 14.711 1032.68 15.485C1033.08 16.253 1033.28 17.138 1033.28 18.14C1033.28 19.148 1033.08 20.039 1032.67 20.813C1032.27 21.581 1031.7 22.184 1030.98 22.622C1030.25 23.054 1029.4 23.27 1028.43 23.27ZM1028.43 21.236C1029.29 21.236 1029.93 20.948 1030.35 20.372C1030.77 19.796 1030.98 19.052 1030.98 18.14C1030.98 17.198 1030.77 16.448 1030.35 15.89C1029.92 15.326 1029.28 15.044 1028.43 15.044C1027.56 15.044 1026.92 15.332 1026.5 15.908C1026.09 16.478 1025.89 17.222 1025.89 18.14C1025.89 19.088 1026.1 19.841 1026.53 20.399C1026.96 20.957 1027.59 21.236 1028.43 21.236ZM1035.24 23V13.28H1037.18V14.36C1037.53 13.94 1037.97 13.61 1038.5 13.37C1039.04 13.124 1039.65 13.001 1040.36 13.001C1041.08 13.001 1041.67 13.121 1042.14 13.361C1042.61 13.595 1042.98 13.901 1043.25 14.279C1043.53 14.651 1043.73 15.047 1043.87 15.467C1044 15.887 1044.08 16.286 1044.12 16.664C1044.16 17.036 1044.18 17.339 1044.18 17.573V23H1041.99V18.32C1041.99 18.02 1041.96 17.684 1041.91 17.312C1041.87 16.934 1041.78 16.574 1041.63 16.232C1041.48 15.89 1041.26 15.608 1040.95 15.386C1040.64 15.158 1040.23 15.044 1039.72 15.044C1039.35 15.044 1038.99 15.128 1038.64 15.296C1038.3 15.464 1038.01 15.761 1037.78 16.187C1037.55 16.613 1037.44 17.219 1037.44 18.005V23H1035.24ZM1049.23 23L1053.32 10.04H1056.5L1060.58 23H1058.35L1057.45 20.192H1052.36L1051.47 23H1049.23ZM1052.99 18.167H1056.81L1054.89 12.128L1052.99 18.167ZM1062.21 23V13.28H1064.13V14.837C1064.38 14.381 1064.7 14.033 1065.1 13.793C1065.46 13.547 1065.87 13.385 1066.33 13.307C1066.79 13.223 1067.24 13.214 1067.68 13.28V15.305C1067.39 15.221 1067.06 15.197 1066.68 15.233C1066.31 15.263 1065.98 15.365 1065.68 15.539C1065.23 15.779 1064.9 16.118 1064.69 16.556C1064.49 16.994 1064.39 17.495 1064.39 18.059V23H1062.21ZM1073.44 23.27C1072.44 23.27 1071.59 23.048 1070.88 22.604C1070.17 22.154 1069.63 21.542 1069.25 20.768C1068.88 19.994 1068.69 19.118 1068.68 18.14C1068.69 17.144 1068.88 16.262 1069.27 15.494C1069.66 14.72 1070.21 14.114 1070.92 13.676C1071.64 13.232 1072.49 13.01 1073.47 13.01C1074.58 13.01 1075.51 13.289 1076.27 13.847C1077.04 14.399 1077.54 15.155 1077.77 16.115L1075.61 16.7C1075.45 16.178 1075.17 15.773 1074.78 15.485C1074.39 15.191 1073.94 15.044 1073.44 15.044C1072.6 15.044 1071.98 15.338 1071.58 15.926C1071.19 16.508 1070.98 17.246 1070.98 18.14C1070.98 19.064 1071.19 19.811 1071.6 20.381C1072.01 20.951 1072.63 21.236 1073.44 21.236C1074.02 21.236 1074.47 21.104 1074.8 20.84C1075.14 20.576 1075.39 20.195 1075.56 19.697L1077.77 20.192C1077.47 21.182 1076.95 21.944 1076.2 22.478C1075.45 23.006 1074.53 23.27 1073.44 23.27ZM1079.56 23V10.04H1081.49V14.36C1081.85 13.94 1082.29 13.61 1082.82 13.37C1083.35 13.124 1083.97 13.001 1084.67 13.001C1085.39 13.001 1085.99 13.121 1086.45 13.361C1086.92 13.595 1087.29 13.901 1087.57 14.279C1087.85 14.651 1088.05 15.047 1088.18 15.467C1088.31 15.887 1088.4 16.286 1088.43 16.664C1088.48 17.036 1088.5 17.339 1088.5 17.573V23H1086.3V18.32C1086.3 18.02 1086.28 17.684 1086.23 17.312C1086.19 16.934 1086.09 16.574 1085.94 16.232C1085.8 15.89 1085.57 15.608 1085.27 15.386C1084.96 15.158 1084.55 15.044 1084.03 15.044C1083.66 15.044 1083.3 15.128 1082.95 15.296C1082.61 15.464 1082.33 15.761 1082.1 16.187C1081.87 16.613 1081.76 17.219 1081.76 18.005V23H1079.56ZM1091.02 23V13.28H1093.19V23H1091.02ZM1092.1 12.11C1091.73 12.11 1091.42 11.987 1091.18 11.741C1090.93 11.489 1090.81 11.18 1090.81 10.814C1090.81 10.454 1090.93 10.148 1091.18 9.896C1091.42 9.644 1091.73 9.518 1092.1 9.518C1092.48 9.518 1092.79 9.644 1093.04 9.896C1093.29 10.148 1093.41 10.454 1093.41 10.814C1093.41 11.18 1093.29 11.489 1093.04 11.741C1092.79 11.987 1092.48 12.11 1092.1 12.11ZM1101.59 23C1100.94 23.12 1100.31 23.171 1099.7 23.153C1099.08 23.141 1098.54 23.03 1098.05 22.82C1097.56 22.604 1097.19 22.265 1096.94 21.803C1096.72 21.383 1096.6 20.957 1096.59 20.525C1096.58 20.087 1096.57 19.589 1096.57 19.031V14.981H1094.81V13.28H1096.57V10.58H1098.73V13.28H1101.59V14.981H1098.73V18.905C1098.73 19.295 1098.74 19.637 1098.74 19.931C1098.75 20.225 1098.82 20.465 1098.93 20.651C1099.15 21.011 1099.49 21.212 1099.97 21.254C1100.44 21.296 1100.98 21.272 1101.59 21.182V23ZM1107.6 23.27C1106.62 23.27 1105.76 23.057 1105.01 22.631C1104.27 22.205 1103.69 21.614 1103.27 20.858C1102.85 20.102 1102.64 19.232 1102.64 18.248C1102.64 17.186 1102.85 16.262 1103.26 15.476C1103.66 14.69 1104.23 14.084 1104.96 13.658C1105.68 13.226 1106.52 13.01 1107.48 13.01C1108.49 13.01 1109.34 13.244 1110.04 13.712C1110.75 14.18 1111.28 14.846 1111.62 15.71C1111.96 16.568 1112.09 17.579 1112 18.743H1104.97C1105.05 19.547 1105.31 20.165 1105.73 20.597C1106.16 21.023 1106.74 21.236 1107.48 21.236C1108.56 21.236 1109.32 20.774 1109.75 19.85L1111.9 20.498C1111.52 21.38 1110.95 22.064 1110.17 22.55C1109.39 23.03 1108.54 23.27 1107.6 23.27ZM1107.57 14.909C1106.13 14.909 1105.28 15.641 1105.02 17.105H1109.8C1109.71 16.349 1109.48 15.794 1109.12 15.44C1108.76 15.086 1108.24 14.909 1107.57 14.909ZM1118.23 23.27C1117.23 23.27 1116.38 23.048 1115.67 22.604C1114.96 22.154 1114.42 21.542 1114.04 20.768C1113.67 19.994 1113.48 19.118 1113.47 18.14C1113.48 17.144 1113.67 16.262 1114.06 15.494C1114.45 14.72 1115 14.114 1115.71 13.676C1116.43 13.232 1117.28 13.01 1118.26 13.01C1119.36 13.01 1120.3 13.289 1121.06 13.847C1121.83 14.399 1122.33 15.155 1122.56 16.115L1120.4 16.7C1120.23 16.178 1119.96 15.773 1119.57 15.485C1119.18 15.191 1118.73 15.044 1118.23 15.044C1117.39 15.044 1116.77 15.338 1116.37 15.926C1115.97 16.508 1115.77 17.246 1115.77 18.14C1115.77 19.064 1115.98 19.811 1116.39 20.381C1116.8 20.951 1117.42 21.236 1118.23 21.236C1118.81 21.236 1119.26 21.104 1119.59 20.84C1119.93 20.576 1120.18 20.195 1120.35 19.697L1122.56 20.192C1122.26 21.182 1121.74 21.944 1120.99 22.478C1120.24 23.006 1119.32 23.27 1118.23 23.27ZM1130.06 23C1129.42 23.12 1128.79 23.171 1128.17 23.153C1127.56 23.141 1127.01 23.03 1126.53 22.82C1126.04 22.604 1125.67 22.265 1125.42 21.803C1125.2 21.383 1125.08 20.957 1125.07 20.525C1125.06 20.087 1125.05 19.589 1125.05 19.031V14.981H1123.29V13.28H1125.05V10.58H1127.21V13.28H1130.06V14.981H1127.21V18.905C1127.21 19.295 1127.21 19.637 1127.22 19.931C1127.23 20.225 1127.29 20.465 1127.41 20.651C1127.62 21.011 1127.97 21.212 1128.44 21.254C1128.92 21.296 1129.46 21.272 1130.06 21.182V23ZM1135.8 23.279C1135.08 23.279 1134.48 23.162 1134.02 22.928C1133.55 22.688 1133.18 22.382 1132.9 22.01C1132.62 21.632 1132.42 21.233 1132.29 20.813C1132.16 20.393 1132.07 19.994 1132.03 19.616C1131.99 19.238 1131.97 18.935 1131.97 18.707V13.28H1134.17V17.96C1134.17 18.26 1134.19 18.599 1134.23 18.977C1134.28 19.349 1134.38 19.706 1134.52 20.048C1134.67 20.39 1134.9 20.675 1135.2 20.903C1135.51 21.125 1135.92 21.236 1136.44 21.236C1136.81 21.236 1137.17 21.152 1137.51 20.984C1137.86 20.816 1138.14 20.519 1138.37 20.093C1138.6 19.667 1138.71 19.061 1138.71 18.275V13.28H1140.89V23H1138.98V21.92C1138.62 22.34 1138.18 22.673 1137.64 22.919C1137.12 23.159 1136.5 23.279 1135.8 23.279ZM1143.42 23V13.28H1145.34V14.837C1145.59 14.381 1145.91 14.033 1146.31 13.793C1146.67 13.547 1147.08 13.385 1147.54 13.307C1148.01 13.223 1148.46 13.214 1148.89 13.28V15.305C1148.61 15.221 1148.27 15.197 1147.89 15.233C1147.52 15.263 1147.19 15.365 1146.89 15.539C1146.44 15.779 1146.11 16.118 1145.91 16.556C1145.7 16.994 1145.6 17.495 1145.6 18.059V23H1143.42ZM1154.85 23.27C1153.87 23.27 1153.01 23.057 1152.26 22.631C1151.52 22.205 1150.94 21.614 1150.52 20.858C1150.1 20.102 1149.89 19.232 1149.89 18.248C1149.89 17.186 1150.1 16.262 1150.51 15.476C1150.91 14.69 1151.48 14.084 1152.21 13.658C1152.93 13.226 1153.77 13.01 1154.73 13.01C1155.74 13.01 1156.59 13.244 1157.29 13.712C1158 14.18 1158.53 14.846 1158.87 15.71C1159.21 16.568 1159.34 17.579 1159.25 18.743H1152.22C1152.3 19.547 1152.56 20.165 1152.98 20.597C1153.41 21.023 1153.99 21.236 1154.73 21.236C1155.81 21.236 1156.57 20.774 1157 19.85L1159.15 20.498C1158.77 21.38 1158.2 22.064 1157.42 22.55C1156.64 23.03 1155.79 23.27 1154.85 23.27ZM1154.82 14.909C1153.38 14.909 1152.53 15.641 1152.27 17.105H1157.05C1156.96 16.349 1156.73 15.794 1156.37 15.44C1156.01 15.086 1155.49 14.909 1154.82 14.909Z" fill="#797676"/>
<rect x="1196.6" y="0.5" width="139" height="32" rx="16" stroke="#797676" stroke-dasharray="6 6"/>
<path d="M1210.58 23.27C1209.55 23.27 1208.64 23.06 1207.85 22.64C1207.07 22.22 1206.46 21.629 1206.02 20.867C1205.58 20.105 1205.36 19.211 1205.36 18.185V10.058L1207.56 10.04V18.131C1207.56 18.779 1207.7 19.337 1207.98 19.805C1208.27 20.267 1208.64 20.621 1209.1 20.867C1209.56 21.107 1210.05 21.227 1210.58 21.227C1211.11 21.227 1211.61 21.104 1212.07 20.858C1212.53 20.606 1212.9 20.249 1213.18 19.787C1213.46 19.325 1213.6 18.773 1213.6 18.131V10.04H1215.8V18.185C1215.8 19.211 1215.58 20.105 1215.13 20.867C1214.7 21.629 1214.08 22.22 1213.3 22.64C1212.52 23.06 1211.61 23.27 1210.58 23.27ZM1222.07 23.27C1220.87 23.27 1219.89 23 1219.14 22.46C1218.39 21.92 1217.94 21.161 1217.78 20.183L1219.99 19.841C1220.1 20.321 1220.35 20.699 1220.74 20.975C1221.13 21.251 1221.63 21.389 1222.22 21.389C1222.74 21.389 1223.14 21.287 1223.43 21.083C1223.72 20.873 1223.86 20.588 1223.86 20.228C1223.86 20.006 1223.81 19.829 1223.7 19.697C1223.59 19.559 1223.36 19.427 1223 19.301C1222.66 19.175 1222.12 19.016 1221.38 18.824C1220.57 18.608 1219.92 18.377 1219.44 18.131C1218.96 17.879 1218.62 17.582 1218.41 17.24C1218.2 16.898 1218.09 16.484 1218.09 15.998C1218.09 15.086 1218.44 14.36 1219.13 13.82C1219.83 13.28 1220.76 13.01 1221.92 13.01C1223.05 13.01 1223.99 13.271 1224.72 13.793C1225.46 14.309 1225.89 15.005 1226.01 15.881L1223.8 16.277C1223.74 15.863 1223.54 15.536 1223.22 15.296C1222.9 15.056 1222.48 14.921 1221.95 14.891C1221.44 14.867 1221.03 14.948 1220.72 15.134C1220.41 15.314 1220.25 15.566 1220.25 15.89C1220.25 16.076 1220.31 16.235 1220.44 16.367C1220.57 16.499 1220.82 16.631 1221.2 16.763C1221.58 16.895 1222.15 17.057 1222.91 17.249C1224.07 17.549 1224.89 17.915 1225.36 18.347C1225.84 18.779 1226.08 19.373 1226.08 20.129C1226.08 21.107 1225.73 21.875 1225.01 22.433C1224.3 22.991 1223.32 23.27 1222.07 23.27ZM1232.47 23.27C1231.49 23.27 1230.62 23.057 1229.88 22.631C1229.14 22.205 1228.55 21.614 1228.13 20.858C1227.72 20.102 1227.51 19.232 1227.51 18.248C1227.51 17.186 1227.72 16.262 1228.13 15.476C1228.53 14.69 1229.1 14.084 1229.83 13.658C1230.55 13.226 1231.39 13.01 1232.35 13.01C1233.35 13.01 1234.21 13.244 1234.91 13.712C1235.62 14.18 1236.14 14.846 1236.49 15.71C1236.83 16.568 1236.96 17.579 1236.87 18.743H1229.84C1229.92 19.547 1230.17 20.165 1230.6 20.597C1231.03 21.023 1231.61 21.236 1232.35 21.236C1233.43 21.236 1234.19 20.774 1234.62 19.85L1236.77 20.498C1236.39 21.38 1235.82 22.064 1235.04 22.55C1234.26 23.03 1233.41 23.27 1232.47 23.27ZM1232.44 14.909C1231 14.909 1230.15 15.641 1229.89 17.105H1234.67C1234.58 16.349 1234.35 15.794 1233.98 15.44C1233.62 15.086 1233.11 14.909 1232.44 14.909ZM1238.88 23V13.28H1240.8V14.837C1241.05 14.381 1241.37 14.033 1241.77 13.793C1242.13 13.547 1242.54 13.385 1243 13.307C1243.47 13.223 1243.92 13.214 1244.35 13.28V15.305C1244.07 15.221 1243.73 15.197 1243.35 15.233C1242.98 15.263 1242.65 15.365 1242.35 15.539C1241.9 15.779 1241.57 16.118 1241.37 16.556C1241.16 16.994 1241.06 17.495 1241.06 18.059V23H1238.88ZM1249.85 23V10.04H1252.02V23H1249.85ZM1254.7 23V13.28H1256.64V14.36C1256.99 13.94 1257.43 13.61 1257.96 13.37C1258.49 13.124 1259.11 13.001 1259.81 13.001C1260.53 13.001 1261.13 13.121 1261.6 13.361C1262.06 13.595 1262.44 13.901 1262.71 14.279C1262.99 14.651 1263.19 15.047 1263.32 15.467C1263.46 15.887 1263.54 16.286 1263.58 16.664C1263.62 17.036 1263.64 17.339 1263.64 17.573V23H1261.44V18.32C1261.44 18.02 1261.42 17.684 1261.37 17.312C1261.33 16.934 1261.23 16.574 1261.08 16.232C1260.94 15.89 1260.71 15.608 1260.41 15.386C1260.1 15.158 1259.69 15.044 1259.17 15.044C1258.8 15.044 1258.44 15.128 1258.09 15.296C1257.75 15.464 1257.47 15.761 1257.24 16.187C1257.01 16.613 1256.9 17.219 1256.9 18.005V23H1254.7ZM1271.68 23C1271.04 23.12 1270.41 23.171 1269.79 23.153C1269.18 23.141 1268.63 23.03 1268.15 22.82C1267.66 22.604 1267.29 22.265 1267.04 21.803C1266.82 21.383 1266.7 20.957 1266.69 20.525C1266.68 20.087 1266.67 19.589 1266.67 19.031V14.981H1264.91V13.28H1266.67V10.58H1268.83V13.28H1271.68V14.981H1268.83V18.905C1268.83 19.295 1268.83 19.637 1268.84 19.931C1268.85 20.225 1268.92 20.465 1269.03 20.651C1269.25 21.011 1269.59 21.212 1270.06 21.254C1270.54 21.296 1271.08 21.272 1271.68 21.182V23ZM1277.7 23.27C1276.72 23.27 1275.85 23.057 1275.11 22.631C1274.36 22.205 1273.78 21.614 1273.36 20.858C1272.95 20.102 1272.74 19.232 1272.74 18.248C1272.74 17.186 1272.95 16.262 1273.35 15.476C1273.76 14.69 1274.33 14.084 1275.05 13.658C1275.78 13.226 1276.62 13.01 1277.57 13.01C1278.58 13.01 1279.44 13.244 1280.14 13.712C1280.85 14.18 1281.37 14.846 1281.71 15.71C1282.06 16.568 1282.19 17.579 1282.1 18.743H1275.06C1275.15 19.547 1275.4 20.165 1275.83 20.597C1276.25 21.023 1276.84 21.236 1277.57 21.236C1278.66 21.236 1279.42 20.774 1279.85 19.85L1281.99 20.498C1281.62 21.38 1281.05 22.064 1280.27 22.55C1279.49 23.03 1278.64 23.27 1277.7 23.27ZM1277.66 14.909C1276.22 14.909 1275.38 15.641 1275.12 17.105H1279.9C1279.81 16.349 1279.58 15.794 1279.21 15.44C1278.85 15.086 1278.34 14.909 1277.66 14.909ZM1284.11 23V13.28H1286.03V14.837C1286.28 14.381 1286.6 14.033 1287 13.793C1287.36 13.547 1287.77 13.385 1288.23 13.307C1288.69 13.223 1289.14 13.214 1289.58 13.28V15.305C1289.29 15.221 1288.96 15.197 1288.58 15.233C1288.21 15.263 1287.88 15.365 1287.58 15.539C1287.13 15.779 1286.8 16.118 1286.59 16.556C1286.39 16.994 1286.29 17.495 1286.29 18.059V23H1284.11ZM1292.15 23V14.981H1290.58V13.28H1292.15V13.127C1292.15 12.755 1292.17 12.335 1292.22 11.867C1292.27 11.399 1292.45 10.985 1292.78 10.625C1293.06 10.319 1293.36 10.109 1293.68 9.995C1294 9.875 1294.32 9.809 1294.63 9.797C1294.94 9.779 1295.21 9.77 1295.45 9.77H1296.66V11.534H1295.54C1295.12 11.534 1294.82 11.639 1294.61 11.849C1294.41 12.053 1294.31 12.323 1294.31 12.659V13.28H1296.66V14.981H1294.31V23H1292.15ZM1300.56 23.27C1299.85 23.27 1299.26 23.138 1298.77 22.874C1298.29 22.604 1297.92 22.247 1297.67 21.803C1297.42 21.359 1297.3 20.87 1297.3 20.336C1297.3 19.628 1297.48 19.034 1297.83 18.554C1298.18 18.068 1298.74 17.693 1299.51 17.429C1300.02 17.261 1300.64 17.12 1301.37 17.006C1302.1 16.886 1302.89 16.763 1303.74 16.637C1303.7 16.079 1303.52 15.668 1303.21 15.404C1302.91 15.134 1302.42 14.999 1301.75 14.999C1301.32 14.999 1300.89 15.104 1300.48 15.314C1300.08 15.518 1299.79 15.866 1299.63 16.358L1297.65 15.737C1297.88 14.915 1298.34 14.255 1299.02 13.757C1299.7 13.259 1300.61 13.01 1301.75 13.01C1302.62 13.01 1303.38 13.151 1304.03 13.433C1304.69 13.715 1305.18 14.177 1305.5 14.819C1305.67 15.161 1305.78 15.512 1305.81 15.872C1305.85 16.226 1305.87 16.613 1305.87 17.033V23H1303.97V21.695C1303.55 22.235 1303.07 22.634 1302.53 22.892C1301.99 23.144 1301.33 23.27 1300.56 23.27ZM1300.99 21.542C1301.48 21.542 1301.9 21.455 1302.25 21.281C1302.6 21.107 1302.87 20.894 1303.08 20.642C1303.29 20.39 1303.43 20.153 1303.5 19.931C1303.59 19.709 1303.65 19.46 1303.67 19.184C1303.7 18.902 1303.72 18.647 1303.72 18.419C1302.94 18.539 1302.31 18.644 1301.83 18.734C1301.35 18.818 1300.94 18.917 1300.6 19.031C1300.23 19.169 1299.94 19.34 1299.73 19.544C1299.52 19.742 1299.42 19.997 1299.42 20.309C1299.42 20.663 1299.55 20.957 1299.82 21.191C1300.09 21.425 1300.48 21.542 1300.99 21.542ZM1312.43 23.27C1311.43 23.27 1310.57 23.048 1309.87 22.604C1309.16 22.154 1308.61 21.542 1308.24 20.768C1307.86 19.994 1307.68 19.118 1307.67 18.14C1307.68 17.144 1307.87 16.262 1308.25 15.494C1308.64 14.72 1309.2 14.114 1309.91 13.676C1310.62 13.232 1311.47 13.01 1312.46 13.01C1313.56 13.01 1314.49 13.289 1315.26 13.847C1316.02 14.399 1316.53 15.155 1316.76 16.115L1314.6 16.7C1314.43 16.178 1314.15 15.773 1313.76 15.485C1313.37 15.191 1312.93 15.044 1312.43 15.044C1311.58 15.044 1310.96 15.338 1310.57 15.926C1310.17 16.508 1309.97 17.246 1309.96 18.14C1309.97 19.064 1310.18 19.811 1310.59 20.381C1311 20.951 1311.61 21.236 1312.43 21.236C1313.01 21.236 1313.46 21.104 1313.79 20.84C1314.13 20.576 1314.38 20.195 1314.55 19.697L1316.76 20.192C1316.46 21.182 1315.93 21.944 1315.18 22.478C1314.43 23.006 1313.52 23.27 1312.43 23.27ZM1322.72 23.27C1321.73 23.27 1320.87 23.057 1320.13 22.631C1319.38 22.205 1318.8 21.614 1318.38 20.858C1317.97 20.102 1317.76 19.232 1317.76 18.248C1317.76 17.186 1317.96 16.262 1318.37 15.476C1318.78 14.69 1319.35 14.084 1320.07 13.658C1320.8 13.226 1321.64 13.01 1322.59 13.01C1323.6 13.01 1324.46 13.244 1325.16 13.712C1325.87 14.18 1326.39 14.846 1326.73 15.71C1327.07 16.568 1327.2 17.579 1327.12 18.743H1320.08C1320.17 19.547 1320.42 20.165 1320.85 20.597C1321.27 21.023 1321.85 21.236 1322.59 21.236C1323.68 21.236 1324.44 20.774 1324.87 19.85L1327.01 20.498C1326.64 21.38 1326.06 22.064 1325.28 22.55C1324.51 23.03 1323.65 23.27 1322.72 23.27ZM1322.68 14.909C1321.24 14.909 1320.39 15.641 1320.14 17.105H1324.91C1324.82 16.349 1324.6 15.794 1324.23 15.44C1323.87 15.086 1323.35 14.909 1322.68 14.909Z" fill="#797676"/>
<rect x="1363.9" y="0.5" width="68" height="32" rx="16" stroke="#797676" stroke-dasharray="6 6"/>
<path d="M1372.66 23V10.04H1380.46V12.209H1374.83V15.44H1379.38V17.6H1374.83V23H1372.66ZM1382.26 23V13.28H1384.43V23H1382.26ZM1383.34 12.11C1382.97 12.11 1382.66 11.987 1382.41 11.741C1382.17 11.489 1382.05 11.18 1382.05 10.814C1382.05 10.454 1382.17 10.148 1382.41 9.896C1382.66 9.644 1382.97 9.518 1383.34 9.518C1383.72 9.518 1384.03 9.644 1384.28 9.896C1384.52 10.148 1384.65 10.454 1384.65 10.814C1384.65 11.18 1384.52 11.489 1384.28 11.741C1384.03 11.987 1383.72 12.11 1383.34 12.11ZM1391.02 23.27C1390.13 23.27 1389.35 23.045 1388.68 22.595C1388.02 22.145 1387.5 21.533 1387.14 20.759C1386.77 19.985 1386.59 19.112 1386.59 18.14C1386.59 17.156 1386.77 16.277 1387.14 15.503C1387.51 14.729 1388.03 14.12 1388.71 13.676C1389.39 13.232 1390.19 13.01 1391.1 13.01C1391.66 13.01 1392.16 13.094 1392.61 13.262C1393.06 13.43 1393.45 13.667 1393.8 13.973V13.28H1395.69V23.468C1395.69 23.72 1395.68 23.957 1395.66 24.179C1395.64 24.401 1395.61 24.62 1395.56 24.836C1395.34 25.778 1394.83 26.471 1394.04 26.915C1393.25 27.365 1392.31 27.59 1391.21 27.59C1390.4 27.59 1389.65 27.401 1388.95 27.023C1388.26 26.651 1387.73 26.135 1387.35 25.475L1389.35 24.485C1389.53 24.833 1389.79 25.094 1390.13 25.268C1390.47 25.442 1390.84 25.529 1391.22 25.529C1391.9 25.529 1392.46 25.352 1392.9 24.998C1393.33 24.644 1393.54 24.122 1393.53 23.432V22.505C1393.2 22.751 1392.82 22.94 1392.4 23.072C1391.99 23.204 1391.53 23.27 1391.02 23.27ZM1391.36 21.326C1392.23 21.326 1392.86 21.032 1393.23 20.444C1393.61 19.85 1393.8 19.082 1393.8 18.14C1393.8 17.192 1393.61 16.424 1393.23 15.836C1392.86 15.248 1392.26 14.954 1391.43 14.954C1390.85 14.954 1390.37 15.098 1389.99 15.386C1389.62 15.668 1389.34 16.052 1389.15 16.538C1388.97 17.018 1388.88 17.552 1388.88 18.14C1388.88 18.734 1388.97 19.271 1389.14 19.751C1389.32 20.231 1389.6 20.615 1389.96 20.903C1390.33 21.185 1390.79 21.326 1391.36 21.326ZM1398.2 23V13.28H1400.12V14.333C1400.44 13.931 1400.84 13.616 1401.32 13.388C1401.82 13.154 1402.35 13.037 1402.93 13.037C1403.62 13.037 1404.2 13.178 1404.67 13.46C1405.15 13.736 1405.51 14.111 1405.77 14.585C1406.07 14.105 1406.48 13.727 1407 13.451C1407.52 13.175 1408.1 13.037 1408.73 13.037C1409.8 13.037 1410.63 13.361 1411.2 14.009C1411.77 14.651 1412.06 15.497 1412.06 16.547V23H1409.89V17.096C1409.89 16.43 1409.72 15.911 1409.39 15.539C1409.06 15.161 1408.61 14.972 1408.06 14.972C1407.53 14.972 1407.1 15.152 1406.74 15.512C1406.39 15.872 1406.22 16.373 1406.22 17.015V23H1404.06V17.123C1404.06 16.451 1403.89 15.926 1403.56 15.548C1403.23 15.164 1402.78 14.972 1402.21 14.972C1401.66 14.972 1401.22 15.161 1400.88 15.539C1400.55 15.917 1400.39 16.409 1400.39 17.015V23H1398.2ZM1417.13 23.27C1416.42 23.27 1415.83 23.138 1415.34 22.874C1414.86 22.604 1414.49 22.247 1414.24 21.803C1413.99 21.359 1413.87 20.87 1413.87 20.336C1413.87 19.628 1414.04 19.034 1414.4 18.554C1414.75 18.068 1415.31 17.693 1416.08 17.429C1416.59 17.261 1417.21 17.12 1417.94 17.006C1418.67 16.886 1419.46 16.763 1420.31 16.637C1420.27 16.079 1420.09 15.668 1419.78 15.404C1419.47 15.134 1418.99 14.999 1418.32 14.999C1417.88 14.999 1417.46 15.104 1417.05 15.314C1416.65 15.518 1416.36 15.866 1416.2 16.358L1414.22 15.737C1414.45 14.915 1414.91 14.255 1415.59 13.757C1416.26 13.259 1417.18 13.01 1418.32 13.01C1419.19 13.01 1419.95 13.151 1420.6 13.433C1421.26 13.715 1421.75 14.177 1422.07 14.819C1422.24 15.161 1422.35 15.512 1422.38 15.872C1422.42 16.226 1422.44 16.613 1422.44 17.033V23H1420.54V21.695C1420.12 22.235 1419.64 22.634 1419.1 22.892C1418.56 23.144 1417.9 23.27 1417.13 23.27ZM1417.56 21.542C1418.05 21.542 1418.47 21.455 1418.82 21.281C1419.17 21.107 1419.44 20.894 1419.65 20.642C1419.86 20.39 1420 20.153 1420.07 19.931C1420.16 19.709 1420.22 19.46 1420.24 19.184C1420.27 18.902 1420.28 18.647 1420.28 18.419C1419.51 18.539 1418.88 18.644 1418.4 18.734C1417.92 18.818 1417.51 18.917 1417.17 19.031C1416.8 19.169 1416.51 19.34 1416.3 19.544C1416.09 19.742 1415.99 19.997 1415.99 20.309C1415.99 20.663 1416.12 20.957 1416.39 21.191C1416.66 21.425 1417.05 21.542 1417.56 21.542Z" fill="#797676"/>
<rect x="1460.2" y="0.5" width="161" height="32" rx="16" stroke="#797676" stroke-dasharray="6 6"/>
<path d="M1474.18 23.27C1473.15 23.27 1472.24 23.06 1471.45 22.64C1470.67 22.22 1470.06 21.629 1469.62 20.867C1469.18 20.105 1468.96 19.211 1468.96 18.185V10.058L1471.16 10.04V18.131C1471.16 18.779 1471.3 19.337 1471.58 19.805C1471.87 20.267 1472.24 20.621 1472.7 20.867C1473.16 21.107 1473.65 21.227 1474.18 21.227C1474.71 21.227 1475.21 21.104 1475.67 20.858C1476.13 20.606 1476.5 20.249 1476.78 19.787C1477.06 19.325 1477.2 18.773 1477.2 18.131V10.04H1479.4V18.185C1479.4 19.211 1479.18 20.105 1478.73 20.867C1478.3 21.629 1477.68 22.22 1476.9 22.64C1476.12 23.06 1475.21 23.27 1474.18 23.27ZM1485.67 23.27C1484.47 23.27 1483.49 23 1482.74 22.46C1481.99 21.92 1481.54 21.161 1481.38 20.183L1483.59 19.841C1483.7 20.321 1483.95 20.699 1484.34 20.975C1484.73 21.251 1485.23 21.389 1485.82 21.389C1486.34 21.389 1486.74 21.287 1487.03 21.083C1487.32 20.873 1487.46 20.588 1487.46 20.228C1487.46 20.006 1487.41 19.829 1487.3 19.697C1487.19 19.559 1486.96 19.427 1486.6 19.301C1486.26 19.175 1485.72 19.016 1484.98 18.824C1484.17 18.608 1483.52 18.377 1483.04 18.131C1482.56 17.879 1482.22 17.582 1482.01 17.24C1481.8 16.898 1481.69 16.484 1481.69 15.998C1481.69 15.086 1482.04 14.36 1482.73 13.82C1483.43 13.28 1484.36 13.01 1485.52 13.01C1486.65 13.01 1487.59 13.271 1488.32 13.793C1489.06 14.309 1489.49 15.005 1489.61 15.881L1487.4 16.277C1487.34 15.863 1487.14 15.536 1486.82 15.296C1486.5 15.056 1486.08 14.921 1485.55 14.891C1485.04 14.867 1484.63 14.948 1484.32 15.134C1484.01 15.314 1483.85 15.566 1483.85 15.89C1483.85 16.076 1483.91 16.235 1484.04 16.367C1484.17 16.499 1484.42 16.631 1484.8 16.763C1485.18 16.895 1485.75 17.057 1486.51 17.249C1487.67 17.549 1488.49 17.915 1488.96 18.347C1489.44 18.779 1489.68 19.373 1489.68 20.129C1489.68 21.107 1489.33 21.875 1488.61 22.433C1487.9 22.991 1486.92 23.27 1485.67 23.27ZM1494.37 23.27C1493.67 23.27 1493.08 23.138 1492.59 22.874C1492.1 22.604 1491.73 22.247 1491.48 21.803C1491.24 21.359 1491.11 20.87 1491.11 20.336C1491.11 19.628 1491.29 19.034 1491.64 18.554C1492 18.068 1492.56 17.693 1493.33 17.429C1493.84 17.261 1494.46 17.12 1495.18 17.006C1495.91 16.886 1496.71 16.763 1497.56 16.637C1497.52 16.079 1497.34 15.668 1497.03 15.404C1496.72 15.134 1496.23 14.999 1495.57 14.999C1495.13 14.999 1494.71 15.104 1494.3 15.314C1493.89 15.518 1493.61 15.866 1493.44 16.358L1491.46 15.737C1491.7 14.915 1492.15 14.255 1492.83 13.757C1493.51 13.259 1494.42 13.01 1495.57 13.01C1496.43 13.01 1497.19 13.151 1497.85 13.433C1498.51 13.715 1498.99 14.177 1499.31 14.819C1499.49 15.161 1499.59 15.512 1499.63 15.872C1499.66 16.226 1499.68 16.613 1499.68 17.033V23H1497.78V21.695C1497.37 22.235 1496.89 22.634 1496.34 22.892C1495.8 23.144 1495.15 23.27 1494.37 23.27ZM1494.8 21.542C1495.3 21.542 1495.72 21.455 1496.06 21.281C1496.41 21.107 1496.69 20.894 1496.89 20.642C1497.1 20.39 1497.24 20.153 1497.31 19.931C1497.4 19.709 1497.46 19.46 1497.49 19.184C1497.52 18.902 1497.53 18.647 1497.53 18.419C1496.76 18.539 1496.13 18.644 1495.65 18.734C1495.17 18.818 1494.76 18.917 1494.42 19.031C1494.04 19.169 1493.75 19.34 1493.54 19.544C1493.34 19.742 1493.24 19.997 1493.24 20.309C1493.24 20.663 1493.37 20.957 1493.63 21.191C1493.9 21.425 1494.29 21.542 1494.8 21.542ZM1502.01 23V10.04H1504.19V13.757C1504.51 13.517 1504.87 13.334 1505.27 13.208C1505.68 13.076 1506.13 13.01 1506.61 13.01C1507.53 13.01 1508.33 13.232 1509.01 13.676C1509.69 14.12 1510.21 14.729 1510.57 15.503C1510.95 16.277 1511.13 17.156 1511.13 18.14C1511.13 19.112 1510.95 19.985 1510.58 20.759C1510.22 21.533 1509.7 22.145 1509.04 22.595C1508.37 23.045 1507.59 23.27 1506.7 23.27C1506.12 23.27 1505.6 23.183 1505.14 23.009C1504.68 22.841 1504.27 22.601 1503.92 22.289V23H1502.01ZM1506.36 21.326C1506.93 21.326 1507.39 21.185 1507.76 20.903C1508.12 20.615 1508.39 20.231 1508.57 19.751C1508.75 19.271 1508.84 18.734 1508.84 18.14C1508.84 17.552 1508.74 17.018 1508.56 16.538C1508.38 16.052 1508.1 15.668 1507.72 15.386C1507.35 15.098 1506.87 14.954 1506.29 14.954C1505.46 14.954 1504.86 15.248 1504.48 15.836C1504.11 16.424 1503.92 17.192 1503.92 18.14C1503.92 19.082 1504.11 19.85 1504.49 20.444C1504.87 21.032 1505.49 21.326 1506.36 21.326ZM1513.3 23V13.28H1515.47V23H1513.3ZM1514.38 12.11C1514 12.11 1513.7 11.987 1513.45 11.741C1513.2 11.489 1513.08 11.18 1513.08 10.814C1513.08 10.454 1513.2 10.148 1513.45 9.896C1513.7 9.644 1514 9.518 1514.38 9.518C1514.75 9.518 1515.07 9.644 1515.31 9.896C1515.56 10.148 1515.68 10.454 1515.68 10.814C1515.68 11.18 1515.56 11.489 1515.31 11.741C1515.07 11.987 1514.75 12.11 1514.38 12.11ZM1518.34 23V9.77H1520.51V23H1518.34ZM1523.39 23V13.28H1525.56V23H1523.39ZM1524.47 12.11C1524.09 12.11 1523.79 11.987 1523.54 11.741C1523.29 11.489 1523.17 11.18 1523.17 10.814C1523.17 10.454 1523.29 10.148 1523.54 9.896C1523.79 9.644 1524.09 9.518 1524.47 9.518C1524.84 9.518 1525.16 9.644 1525.4 9.896C1525.65 10.148 1525.77 10.454 1525.77 10.814C1525.77 11.18 1525.65 11.489 1525.4 11.741C1525.16 11.987 1524.84 12.11 1524.47 12.11ZM1533.95 23C1533.31 23.12 1532.68 23.171 1532.06 23.153C1531.45 23.141 1530.9 23.03 1530.41 22.82C1529.93 22.604 1529.56 22.265 1529.3 21.803C1529.08 21.383 1528.97 20.957 1528.95 20.525C1528.94 20.087 1528.94 19.589 1528.94 19.031V14.981H1527.17V13.28H1528.94V10.58H1531.1V13.28H1533.95V14.981H1531.1V18.905C1531.1 19.295 1531.1 19.637 1531.1 19.931C1531.12 20.225 1531.18 20.465 1531.29 20.651C1531.51 21.011 1531.85 21.212 1532.33 21.254C1532.8 21.296 1533.34 21.272 1533.95 21.182V23ZM1537.05 27.32L1538.65 22.937L1534.72 13.28H1536.98L1539.69 20.237L1542.34 13.28H1544.5L1539.09 27.32H1537.05ZM1552.56 23V12.074H1548.37V10.04H1558.93V12.074H1554.73V23H1552.56ZM1563.34 23.27C1562.36 23.27 1561.5 23.057 1560.75 22.631C1560.01 22.205 1559.43 21.614 1559.01 20.858C1558.59 20.102 1558.39 19.232 1558.39 18.248C1558.39 17.186 1558.59 16.262 1559 15.476C1559.41 14.69 1559.97 14.084 1560.7 13.658C1561.42 13.226 1562.26 13.01 1563.22 13.01C1564.23 13.01 1565.08 13.244 1565.78 13.712C1566.49 14.18 1567.02 14.846 1567.36 15.71C1567.7 16.568 1567.83 17.579 1567.75 18.743H1560.71C1560.79 19.547 1561.05 20.165 1561.47 20.597C1561.9 21.023 1562.48 21.236 1563.22 21.236C1564.3 21.236 1565.06 20.774 1565.5 19.85L1567.64 20.498C1567.27 21.38 1566.69 22.064 1565.91 22.55C1565.14 23.03 1564.28 23.27 1563.34 23.27ZM1563.31 14.909C1561.87 14.909 1561.02 15.641 1560.76 17.105H1565.54C1565.45 16.349 1565.22 15.794 1564.86 15.44C1564.5 15.086 1563.98 14.909 1563.31 14.909ZM1573.51 23.27C1572.31 23.27 1571.33 23 1570.58 22.46C1569.83 21.92 1569.38 21.161 1569.21 20.183L1571.43 19.841C1571.54 20.321 1571.78 20.699 1572.17 20.975C1572.57 21.251 1573.07 21.389 1573.66 21.389C1574.18 21.389 1574.58 21.287 1574.87 21.083C1575.15 20.873 1575.3 20.588 1575.3 20.228C1575.3 20.006 1575.24 19.829 1575.14 19.697C1575.03 19.559 1574.8 19.427 1574.44 19.301C1574.09 19.175 1573.55 19.016 1572.82 18.824C1572.01 18.608 1571.36 18.377 1570.88 18.131C1570.4 17.879 1570.05 17.582 1569.84 17.24C1569.63 16.898 1569.53 16.484 1569.53 15.998C1569.53 15.086 1569.88 14.36 1570.57 13.82C1571.27 13.28 1572.2 13.01 1573.35 13.01C1574.49 13.01 1575.42 13.271 1576.16 13.793C1576.9 14.309 1577.33 15.005 1577.45 15.881L1575.23 16.277C1575.17 15.863 1574.98 15.536 1574.66 15.296C1574.34 15.056 1573.92 14.921 1573.39 14.891C1572.88 14.867 1572.47 14.948 1572.16 15.134C1571.84 15.314 1571.69 15.566 1571.69 15.89C1571.69 16.076 1571.75 16.235 1571.88 16.367C1572 16.499 1572.26 16.631 1572.63 16.763C1573.02 16.895 1573.59 17.057 1574.34 17.249C1575.51 17.549 1576.33 17.915 1576.8 18.347C1577.28 18.779 1577.52 19.373 1577.52 20.129C1577.52 21.107 1577.16 21.875 1576.45 22.433C1575.74 22.991 1574.76 23.27 1573.51 23.27ZM1585.19 23C1584.55 23.12 1583.92 23.171 1583.3 23.153C1582.69 23.141 1582.14 23.03 1581.65 22.82C1581.17 22.604 1580.8 22.265 1580.54 21.803C1580.32 21.383 1580.21 20.957 1580.19 20.525C1580.18 20.087 1580.18 19.589 1580.18 19.031V14.981H1578.41V13.28H1580.18V10.58H1582.34V13.28H1585.19V14.981H1582.34V18.905C1582.34 19.295 1582.34 19.637 1582.34 19.931C1582.36 20.225 1582.42 20.465 1582.53 20.651C1582.75 21.011 1583.09 21.212 1583.57 21.254C1584.04 21.296 1584.58 21.272 1585.19 21.182V23ZM1587.46 23V13.28H1589.63V23H1587.46ZM1588.54 12.11C1588.17 12.11 1587.86 11.987 1587.61 11.741C1587.37 11.489 1587.24 11.18 1587.24 10.814C1587.24 10.454 1587.37 10.148 1587.61 9.896C1587.86 9.644 1588.17 9.518 1588.54 9.518C1588.92 9.518 1589.23 9.644 1589.47 9.896C1589.72 10.148 1589.84 10.454 1589.84 10.814C1589.84 11.18 1589.72 11.489 1589.47 11.741C1589.23 11.987 1588.92 12.11 1588.54 12.11ZM1592.31 23V13.28H1594.24V14.36C1594.59 13.94 1595.04 13.61 1595.56 13.37C1596.1 13.124 1596.72 13.001 1597.42 13.001C1598.14 13.001 1598.73 13.121 1599.2 13.361C1599.67 13.595 1600.04 13.901 1600.32 14.279C1600.59 14.651 1600.8 15.047 1600.93 15.467C1601.06 15.887 1601.14 16.286 1601.18 16.664C1601.22 17.036 1601.24 17.339 1601.24 17.573V23H1599.05V18.32C1599.05 18.02 1599.02 17.684 1598.97 17.312C1598.93 16.934 1598.84 16.574 1598.69 16.232C1598.54 15.89 1598.32 15.608 1598.01 15.386C1597.71 15.158 1597.29 15.044 1596.78 15.044C1596.41 15.044 1596.05 15.128 1595.7 15.296C1595.36 15.464 1595.07 15.761 1594.84 16.187C1594.62 16.613 1594.5 17.219 1594.5 18.005V23H1592.31ZM1607.49 23.27C1606.59 23.27 1605.81 23.045 1605.15 22.595C1604.48 22.145 1603.97 21.533 1603.6 20.759C1603.23 19.985 1603.05 19.112 1603.05 18.14C1603.05 17.156 1603.23 16.277 1603.6 15.503C1603.97 14.729 1604.5 14.12 1605.18 13.676C1605.85 13.232 1606.65 13.01 1607.57 13.01C1608.12 13.01 1608.62 13.094 1609.07 13.262C1609.52 13.43 1609.92 13.667 1610.26 13.973V13.28H1612.16V23.468C1612.16 23.72 1612.15 23.957 1612.12 24.179C1612.11 24.401 1612.07 24.62 1612.02 24.836C1611.8 25.778 1611.3 26.471 1610.5 26.915C1609.72 27.365 1608.78 27.59 1607.68 27.59C1606.87 27.59 1606.11 27.401 1605.42 27.023C1604.73 26.651 1604.19 26.135 1603.82 25.475L1605.81 24.485C1605.99 24.833 1606.26 25.094 1606.6 25.268C1606.94 25.442 1607.3 25.529 1607.69 25.529C1608.36 25.529 1608.92 25.352 1609.36 24.998C1609.8 24.644 1610.01 24.122 1609.99 23.432V22.505C1609.66 22.751 1609.29 22.94 1608.87 23.072C1608.45 23.204 1607.99 23.27 1607.49 23.27ZM1607.82 21.326C1608.7 21.326 1609.32 21.032 1609.69 20.444C1610.07 19.85 1610.26 19.082 1610.26 18.14C1610.26 17.192 1610.07 16.424 1609.69 15.836C1609.32 15.248 1608.72 14.954 1607.89 14.954C1607.31 14.954 1606.83 15.098 1606.45 15.386C1606.08 15.668 1605.8 16.052 1605.62 16.538C1605.44 17.018 1605.35 17.552 1605.35 18.14C1605.35 18.734 1605.43 19.271 1605.61 19.751C1605.79 20.231 1606.06 20.615 1606.43 20.903C1606.79 21.185 1607.26 21.326 1607.82 21.326Z" fill="#797676"/>
<rect x="1649.5" y="0.5" width="124" height="32" rx="16" stroke="#797676" stroke-dasharray="6 6"/>
<path d="M1661.86 23V10.04H1664.03V15.494H1670.17V10.04H1672.33V23H1670.17V17.528H1664.03V23H1661.86ZM1677.97 23V12.074H1673.77V10.04H1684.33V12.074H1680.14V23H1677.97ZM1685.77 23V10.04H1687.72L1692.2 19.22L1696.69 10.04H1698.64V23H1696.61V14.693L1692.64 23H1691.77L1687.8 14.693V23H1685.77ZM1701.35 23V10.04H1703.52V20.966H1709.24V23H1701.35ZM1717.77 23.27C1717.05 23.27 1716.36 23.165 1715.72 22.955C1715.09 22.739 1714.56 22.4 1714.13 21.938C1713.78 21.56 1713.53 21.149 1713.37 20.705C1713.22 20.255 1713.13 19.775 1713.11 19.265C1713.11 18.767 1713.18 18.287 1713.33 17.825C1713.47 17.357 1713.7 16.94 1714.01 16.574C1714.13 16.43 1714.26 16.304 1714.4 16.196C1714.54 16.082 1714.68 15.98 1714.83 15.89C1714.47 15.494 1714.2 15.11 1714.02 14.738C1713.84 14.366 1713.75 13.928 1713.75 13.424C1713.75 12.674 1713.96 11.999 1714.36 11.399C1714.77 10.793 1715.33 10.358 1716.03 10.094C1716.33 9.98 1716.64 9.902 1716.96 9.86C1717.27 9.818 1717.58 9.797 1717.88 9.797C1718.45 9.797 1718.99 9.884 1719.51 10.058C1720.03 10.226 1720.48 10.502 1720.84 10.886C1721.08 11.114 1721.27 11.369 1721.43 11.651C1721.58 11.927 1721.7 12.209 1721.78 12.497L1719.64 12.956C1719.55 12.68 1719.41 12.449 1719.2 12.263C1719.01 12.089 1718.79 11.975 1718.55 11.921C1718.31 11.861 1718.07 11.831 1717.83 11.831C1717.44 11.831 1717.11 11.9 1716.81 12.038C1716.24 12.314 1715.95 12.785 1715.95 13.451C1715.95 13.751 1716 13.994 1716.11 14.18C1716.22 14.36 1716.36 14.54 1716.52 14.72C1716.63 14.834 1716.76 14.966 1716.92 15.116C1717.08 15.26 1717.24 15.41 1717.41 15.566L1720.66 18.581C1720.67 18.467 1720.67 18.338 1720.67 18.194C1720.67 18.05 1720.67 17.915 1720.67 17.789V16.205H1722.58V18.554C1722.58 18.878 1722.57 19.193 1722.54 19.499C1722.53 19.799 1722.49 20.048 1722.45 20.246L1724.06 21.722L1722.66 23.207L1721.41 22.019C1721.1 22.307 1720.77 22.544 1720.4 22.73C1720.04 22.91 1719.67 23.036 1719.3 23.108C1719.03 23.174 1718.77 23.216 1718.52 23.234C1718.28 23.258 1718.02 23.27 1717.77 23.27ZM1717.86 21.209C1718.04 21.209 1718.22 21.2 1718.38 21.182C1718.55 21.164 1718.71 21.128 1718.86 21.074C1719.09 21.002 1719.27 20.924 1719.43 20.84C1719.59 20.75 1719.73 20.657 1719.85 20.561L1716.42 17.411C1716.11 17.531 1715.85 17.711 1715.66 17.951C1715.42 18.269 1715.3 18.665 1715.3 19.139C1715.31 19.421 1715.35 19.667 1715.43 19.877C1715.52 20.087 1715.63 20.276 1715.77 20.444C1715.98 20.72 1716.29 20.918 1716.69 21.038C1717.1 21.152 1717.48 21.209 1717.86 21.209ZM1734.6 23.27C1733.31 23.27 1732.2 22.988 1731.27 22.424C1730.34 21.854 1729.63 21.062 1729.14 20.048C1728.64 19.034 1728.4 17.858 1728.4 16.52C1728.4 15.182 1728.64 14.006 1729.14 12.992C1729.63 11.978 1730.34 11.189 1731.27 10.625C1732.2 10.055 1733.31 9.77 1734.6 9.77C1736.09 9.77 1737.34 10.145 1738.33 10.895C1739.33 11.639 1740.03 12.644 1740.43 13.91L1738.24 14.513C1737.99 13.673 1737.56 13.013 1736.96 12.533C1736.35 12.053 1735.56 11.813 1734.6 11.813C1733.3 11.813 1732.32 12.245 1731.66 13.109C1731.01 13.967 1730.68 15.104 1730.67 16.52C1730.67 17.936 1731 19.076 1731.66 19.94C1732.32 20.798 1733.3 21.227 1734.6 21.227C1735.56 21.227 1736.35 20.987 1736.96 20.507C1737.56 20.027 1737.99 19.367 1738.24 18.527L1740.43 19.13C1740.03 20.396 1739.33 21.404 1738.33 22.154C1737.34 22.898 1736.09 23.27 1734.6 23.27ZM1747.75 23.27C1746.8 23.27 1745.95 23.105 1745.18 22.775C1744.43 22.445 1743.8 21.974 1743.31 21.362C1742.83 20.744 1742.52 20.012 1742.38 19.166L1744.63 18.824C1744.83 19.592 1745.22 20.186 1745.81 20.606C1746.41 21.026 1747.1 21.236 1747.88 21.236C1748.35 21.236 1748.78 21.164 1749.19 21.02C1749.6 20.876 1749.93 20.666 1750.18 20.39C1750.44 20.108 1750.57 19.769 1750.57 19.373C1750.57 18.671 1750.09 18.173 1749.13 17.879L1745.78 16.889C1745.49 16.805 1745.18 16.694 1744.84 16.556C1744.51 16.412 1744.2 16.217 1743.9 15.971C1743.6 15.719 1743.36 15.401 1743.17 15.017C1742.98 14.627 1742.89 14.147 1742.89 13.577C1742.89 12.743 1743.1 12.044 1743.52 11.48C1743.94 10.916 1744.51 10.493 1745.23 10.211C1745.95 9.923 1746.75 9.782 1747.62 9.788C1748.95 9.8 1750.07 10.136 1750.96 10.796C1751.86 11.45 1752.45 12.377 1752.73 13.577L1750.4 13.982C1750.26 13.298 1749.92 12.77 1749.39 12.398C1748.86 12.026 1748.26 11.831 1747.6 11.813C1747.16 11.807 1746.76 11.873 1746.39 12.011C1746.02 12.143 1745.73 12.335 1745.5 12.587C1745.28 12.839 1745.17 13.133 1745.17 13.469C1745.17 13.787 1745.26 14.048 1745.45 14.252C1745.65 14.45 1745.89 14.609 1746.17 14.729C1746.46 14.843 1746.75 14.939 1747.04 15.017L1749.36 15.665C1749.68 15.749 1750.03 15.863 1750.43 16.007C1750.83 16.151 1751.21 16.352 1751.57 16.61C1751.94 16.868 1752.24 17.21 1752.47 17.636C1752.71 18.056 1752.83 18.587 1752.83 19.229C1752.83 20.129 1752.59 20.879 1752.11 21.479C1751.64 22.073 1751.02 22.52 1750.24 22.82C1749.47 23.12 1748.64 23.27 1747.75 23.27ZM1759.84 23.27C1758.89 23.27 1758.04 23.105 1757.28 22.775C1756.52 22.445 1755.9 21.974 1755.41 21.362C1754.92 20.744 1754.61 20.012 1754.48 19.166L1756.73 18.824C1756.92 19.592 1757.31 20.186 1757.91 20.606C1758.51 21.026 1759.2 21.236 1759.98 21.236C1760.44 21.236 1760.87 21.164 1761.28 21.02C1761.69 20.876 1762.02 20.666 1762.27 20.39C1762.53 20.108 1762.66 19.769 1762.66 19.373C1762.66 18.671 1762.18 18.173 1761.22 17.879L1757.87 16.889C1757.58 16.805 1757.27 16.694 1756.94 16.556C1756.61 16.412 1756.29 16.217 1755.99 15.971C1755.7 15.719 1755.45 15.401 1755.26 15.017C1755.08 14.627 1754.98 14.147 1754.98 13.577C1754.98 12.743 1755.19 12.044 1755.61 11.48C1756.04 10.916 1756.61 10.493 1757.32 10.211C1758.04 9.923 1758.84 9.782 1759.72 9.788C1761.05 9.8 1762.16 10.136 1763.06 10.796C1763.95 11.45 1764.54 12.377 1764.83 13.577L1762.5 13.982C1762.35 13.298 1762.01 12.77 1761.48 12.398C1760.95 12.026 1760.36 11.831 1759.69 11.813C1759.26 11.807 1758.86 11.873 1758.48 12.011C1758.12 12.143 1757.82 12.335 1757.59 12.587C1757.37 12.839 1757.26 13.133 1757.26 13.469C1757.26 13.787 1757.36 14.048 1757.55 14.252C1757.74 14.45 1757.98 14.609 1758.27 14.729C1758.56 14.843 1758.84 14.939 1759.13 15.017L1761.45 15.665C1761.77 15.749 1762.13 15.863 1762.52 16.007C1762.92 16.151 1763.3 16.352 1763.67 16.61C1764.03 16.868 1764.33 17.21 1764.57 17.636C1764.81 18.056 1764.93 18.587 1764.93 19.229C1764.93 20.129 1764.69 20.879 1764.21 21.479C1763.73 22.073 1763.11 22.52 1762.34 22.82C1761.56 23.12 1760.73 23.27 1759.84 23.27Z" fill="#797676"/>
</svg>
