<svg width="25" height="24" viewBox="0 0 25 24" fill="none" xmlns="http://www.w3.org/2000/svg">
<path d="M13.1347 3.75982C13.0765 3.70663 13.0085 3.66542 12.9344 3.63854C12.8603 3.61165 12.7817 3.59962 12.7029 3.60313C12.6242 3.60664 12.5469 3.62563 12.4756 3.659C12.4042 3.69237 12.3401 3.73947 12.2869 3.79762C12.1795 3.91506 12.1231 4.07035 12.1302 4.22935C12.1337 4.30807 12.1527 4.38534 12.186 4.45673C12.2194 4.52812 12.2665 4.59223 12.3247 4.64542L19.7263 11.4026L3.12906 11.4026C2.96994 11.4026 2.81732 11.4658 2.7048 11.5784C2.59228 11.6909 2.52907 11.8435 2.52907 12.0026C2.52907 12.1617 2.59228 12.3144 2.7048 12.4269C2.81732 12.5394 2.96994 12.6026 3.12906 12.6026L19.7227 12.6026L12.3247 19.3562C12.2664 19.4093 12.2192 19.4734 12.1858 19.5447C12.1523 19.6161 12.1332 19.6933 12.1296 19.772C12.126 19.8508 12.1379 19.9294 12.1647 20.0036C12.1914 20.0777 12.2326 20.1458 12.2857 20.204C12.3388 20.2622 12.4028 20.3094 12.4742 20.3429C12.5455 20.3764 12.6228 20.3955 12.7015 20.3991C12.7802 20.4027 12.8589 20.3908 12.933 20.364C13.0071 20.3372 13.0752 20.2961 13.1335 20.243L21.4327 12.6662C21.5367 12.5712 21.6169 12.453 21.667 12.3213C21.717 12.1896 21.7354 12.048 21.7207 11.9078C21.6979 11.6886 21.5954 11.4853 21.4327 11.3366L13.1347 3.75982Z" fill="#383434"/>
</svg>
