<svg width="833" height="191" viewBox="0 0 833 191" fill="none" xmlns="http://www.w3.org/2000/svg">
<rect x="204.75" y="74.5" width="91" height="42" rx="21" fill="#F7F5F5"/>
<rect x="204.75" y="74.5" width="91" height="42" rx="21" stroke="#EA4C5E"/>
<path d="M213.85 103V88.6H215.32V103H213.85ZM222.508 103.3C221.501 103.3 220.638 103.05 219.918 102.55C219.205 102.043 218.658 101.36 218.278 100.5C217.905 99.64 217.718 98.67 217.718 97.59C217.718 96.5167 217.905 95.55 218.278 94.69C218.658 93.83 219.201 93.15 219.908 92.65C220.615 92.15 221.461 91.9 222.448 91.9C223.201 91.9 223.865 92.04 224.438 92.32C225.011 92.6 225.495 92.9867 225.888 93.48V88.6H227.368V103H226.048V101.5C225.655 102.06 225.161 102.5 224.568 102.82C223.981 103.14 223.295 103.3 222.508 103.3ZM222.658 101.93C223.425 101.93 224.058 101.743 224.558 101.37C225.058 100.99 225.431 100.473 225.678 99.82C225.925 99.1667 226.048 98.4233 226.048 97.59C226.048 96.3233 225.768 95.2867 225.208 94.48C224.655 93.6733 223.815 93.27 222.688 93.27C221.915 93.27 221.275 93.46 220.768 93.84C220.268 94.22 219.895 94.7367 219.648 95.39C219.401 96.0433 219.278 96.7767 219.278 97.59C219.278 98.41 219.401 99.1467 219.648 99.8C219.901 100.453 220.278 100.973 220.778 101.36C221.278 101.74 221.905 101.93 222.658 101.93ZM234.743 103.3C233.69 103.3 232.777 103.067 232.003 102.6C231.23 102.133 230.63 101.477 230.203 100.63C229.783 99.7833 229.573 98.79 229.573 97.65C229.573 96.47 229.783 95.45 230.203 94.59C230.623 93.73 231.213 93.0667 231.973 92.6C232.74 92.1333 233.643 91.9 234.683 91.9C236.283 91.9 237.523 92.4433 238.403 93.53C239.29 94.61 239.707 96.1033 239.653 98.01H231.143C231.203 99.25 231.54 100.207 232.153 100.88C232.767 101.553 233.61 101.89 234.683 101.89C236.257 101.89 237.387 101.197 238.073 99.81L239.443 100.34C239.017 101.28 238.387 102.01 237.553 102.53C236.727 103.043 235.79 103.3 234.743 103.3ZM234.723 93.25C233.683 93.25 232.86 93.5567 232.253 94.17C231.647 94.7767 231.287 95.6467 231.173 96.78H238.113C237.88 94.4267 236.75 93.25 234.723 93.25ZM244.767 103.3C243.954 103.3 243.271 103.153 242.717 102.86C242.171 102.567 241.761 102.177 241.487 101.69C241.214 101.203 241.077 100.673 241.077 100.1C241.077 99.2133 241.334 98.5233 241.847 98.03C242.361 97.53 243.021 97.1733 243.827 96.96C244.314 96.84 244.847 96.7333 245.427 96.64C246.007 96.5467 246.584 96.4633 247.157 96.39C247.737 96.3167 248.267 96.25 248.747 96.19C248.734 95.21 248.507 94.4833 248.067 94.01C247.627 93.53 246.894 93.29 245.867 93.29C245.127 93.29 244.501 93.4567 243.987 93.79C243.481 94.1233 243.124 94.65 242.917 95.37L241.487 94.95C241.734 93.9833 242.231 93.2333 242.977 92.7C243.724 92.1667 244.694 91.9 245.887 91.9C246.874 91.9 247.711 92.0867 248.397 92.46C249.091 92.8267 249.581 93.36 249.867 94.06C250.001 94.3733 250.087 94.7233 250.127 95.11C250.167 95.4967 250.187 95.89 250.187 96.29V103H248.877V101.22C248.024 102.607 246.654 103.3 244.767 103.3ZM244.937 102.03C245.971 102.03 246.801 101.76 247.427 101.22C248.061 100.68 248.447 100.003 248.587 99.19C248.647 98.9233 248.684 98.6333 248.697 98.32C248.717 98 248.727 97.7167 248.727 97.47C248.021 97.5567 247.274 97.65 246.487 97.75C245.701 97.85 245.011 97.98 244.417 98.14C243.957 98.2733 243.531 98.4867 243.137 98.78C242.744 99.0733 242.547 99.5133 242.547 100.1C242.547 100.413 242.624 100.717 242.777 101.01C242.937 101.303 243.191 101.547 243.537 101.74C243.891 101.933 244.357 102.03 244.937 102.03ZM258.671 103C258.064 103.127 257.464 103.177 256.871 103.15C256.284 103.123 255.757 102.997 255.291 102.77C254.831 102.543 254.481 102.19 254.241 101.71C254.047 101.317 253.941 100.913 253.921 100.5C253.907 100.087 253.901 99.6167 253.901 99.09V93.46H251.591V92.2H253.901V89.2H255.361V92.2H258.671V93.46H255.361V99.03C255.361 99.4833 255.364 99.8633 255.371 100.17C255.384 100.47 255.454 100.737 255.581 100.97C255.821 101.417 256.201 101.683 256.721 101.77C257.247 101.857 257.897 101.837 258.671 101.71V103ZM260.998 103V92.2H262.468V103H260.998ZM261.728 90.34C261.442 90.34 261.198 90.2433 260.998 90.05C260.805 89.85 260.708 89.61 260.708 89.33C260.708 89.0433 260.805 88.8033 260.998 88.61C261.198 88.41 261.442 88.31 261.728 88.31C262.022 88.31 262.265 88.41 262.458 88.61C262.658 88.8033 262.758 89.0433 262.758 89.33C262.758 89.61 262.658 89.85 262.458 90.05C262.265 90.2433 262.022 90.34 261.728 90.34ZM269.976 103.3C268.903 103.3 267.986 103.057 267.226 102.57C266.466 102.083 265.883 101.41 265.476 100.55C265.07 99.69 264.866 98.7033 264.866 97.59C264.866 96.4567 265.073 95.4633 265.486 94.61C265.9 93.7567 266.486 93.0933 267.246 92.62C268.013 92.14 268.923 91.9 269.976 91.9C271.056 91.9 271.976 92.1433 272.736 92.63C273.503 93.11 274.086 93.78 274.486 94.64C274.893 95.4933 275.096 96.4767 275.096 97.59C275.096 98.7233 274.893 99.72 274.486 100.58C274.08 101.433 273.493 102.1 272.726 102.58C271.96 103.06 271.043 103.3 269.976 103.3ZM269.976 101.89C271.176 101.89 272.07 101.493 272.656 100.7C273.243 99.9 273.536 98.8633 273.536 97.59C273.536 96.29 273.24 95.2533 272.646 94.48C272.053 93.7 271.163 93.31 269.976 93.31C268.77 93.31 267.876 93.71 267.296 94.51C266.716 95.3033 266.426 96.33 266.426 97.59C266.426 98.89 266.726 99.9333 267.326 100.72C267.926 101.5 268.81 101.89 269.976 101.89ZM277.292 103V92.2H278.622V93.7C279.022 93.12 279.532 92.68 280.152 92.38C280.779 92.08 281.479 91.93 282.252 91.93C283.066 91.93 283.749 92.0833 284.302 92.39C284.856 92.69 285.299 93.09 285.632 93.59C285.966 94.0833 286.206 94.6333 286.352 95.24C286.506 95.8467 286.582 96.4533 286.582 97.06V103H285.102V97.49C285.102 96.6967 284.999 95.9867 284.792 95.36C284.586 94.7333 284.252 94.24 283.792 93.88C283.332 93.5133 282.726 93.33 281.972 93.33C280.932 93.33 280.139 93.6767 279.592 94.37C279.046 95.0633 278.772 96.02 278.772 97.24V103H277.292Z" fill="#EA4C5E"/>
<rect x="363.75" y="74.5" width="56" height="42" rx="21" fill="#FDF2ED"/>
<rect x="363.75" y="74.5" width="56" height="42" rx="21" stroke="#EA4C5E"/>
<path d="M376.48 103V90.01H371.45V88.6H382.98V90.01H377.95V103H376.48ZM387.552 103.3C386.499 103.3 385.585 103.067 384.812 102.6C384.039 102.133 383.439 101.477 383.012 100.63C382.592 99.7833 382.382 98.79 382.382 97.65C382.382 96.47 382.592 95.45 383.012 94.59C383.432 93.73 384.022 93.0667 384.782 92.6C385.549 92.1333 386.452 91.9 387.492 91.9C389.092 91.9 390.332 92.4433 391.212 93.53C392.099 94.61 392.515 96.1033 392.462 98.01H383.952C384.012 99.25 384.349 100.207 384.962 100.88C385.575 101.553 386.419 101.89 387.492 101.89C389.065 101.89 390.195 101.197 390.882 99.81L392.252 100.34C391.825 101.28 391.195 102.01 390.362 102.53C389.535 103.043 388.599 103.3 387.552 103.3ZM387.532 93.25C386.492 93.25 385.669 93.5567 385.062 94.17C384.455 94.7767 384.095 95.6467 383.982 96.78H390.922C390.689 94.4267 389.559 93.25 387.532 93.25ZM398.711 103.29C397.445 103.29 396.401 103.017 395.581 102.47C394.768 101.923 394.268 101.163 394.081 100.19L395.581 99.94C395.741 100.56 396.105 101.05 396.671 101.41C397.245 101.77 397.951 101.95 398.791 101.95C399.611 101.95 400.258 101.78 400.731 101.44C401.205 101.093 401.441 100.623 401.441 100.03C401.441 99.6967 401.365 99.4267 401.211 99.22C401.058 99.0067 400.751 98.81 400.291 98.63C399.838 98.45 399.155 98.2367 398.241 97.99C397.261 97.7233 396.491 97.4567 395.931 97.19C395.378 96.9233 394.985 96.6167 394.751 96.27C394.525 95.9167 394.411 95.4867 394.411 94.98C394.411 94.06 394.788 93.3167 395.541 92.75C396.301 92.1833 397.291 91.9 398.511 91.9C399.325 91.9 400.051 92.0333 400.691 92.3C401.338 92.56 401.858 92.9267 402.251 93.4C402.645 93.8733 402.878 94.4233 402.951 95.05L401.451 95.32C401.345 94.6867 401.028 94.1867 400.501 93.82C399.975 93.4467 399.305 93.2533 398.491 93.24C397.725 93.22 397.101 93.3667 396.621 93.68C396.141 93.9867 395.901 94.3967 395.901 94.91C395.901 95.1967 395.988 95.4433 396.161 95.65C396.335 95.85 396.648 96.04 397.101 96.22C397.561 96.4 398.215 96.5967 399.061 96.81C400.055 97.0633 400.835 97.33 401.401 97.61C401.968 97.89 402.371 98.22 402.611 98.6C402.851 98.98 402.971 99.45 402.971 100.01C402.971 101.03 402.591 101.833 401.831 102.42C401.078 103 400.038 103.29 398.711 103.29ZM411.069 103C410.462 103.127 409.862 103.177 409.269 103.15C408.682 103.123 408.156 102.997 407.689 102.77C407.229 102.543 406.879 102.19 406.639 101.71C406.446 101.317 406.339 100.913 406.319 100.5C406.306 100.087 406.299 99.6167 406.299 99.09V93.46H403.989V92.2H406.299V89.2H407.759V92.2H411.069V93.46H407.759V99.03C407.759 99.4833 407.762 99.8633 407.769 100.17C407.782 100.47 407.852 100.737 407.979 100.97C408.219 101.417 408.599 101.683 409.119 101.77C409.646 101.857 410.296 101.837 411.069 101.71V103Z" fill="#EA4C5E"/>
<rect x="469.75" y="74.5" width="108" height="42" rx="21" fill="#FDF2ED"/>
<rect x="469.75" y="74.5" width="108" height="42" rx="21" stroke="#EA4C5E"/>
<path d="M478.65 103V88.6H484.21C484.35 88.6 484.507 88.6067 484.68 88.62C484.86 88.6267 485.04 88.6467 485.22 88.68C486.347 88.8533 487.213 89.3467 487.82 90.16C488.427 90.9733 488.73 91.9433 488.73 93.07C488.73 94.19 488.423 95.1567 487.81 95.97C487.203 96.7833 486.34 97.2767 485.22 97.45C485.04 97.4833 484.86 97.5067 484.68 97.52C484.507 97.5267 484.35 97.53 484.21 97.53H480.12V103H478.65ZM480.12 96.13H484.17C484.29 96.13 484.43 96.1233 484.59 96.11C484.75 96.0967 484.907 96.0733 485.06 96.04C485.8 95.88 486.343 95.5133 486.69 94.94C487.043 94.36 487.22 93.7367 487.22 93.07C487.22 92.3967 487.043 91.7733 486.69 91.2C486.343 90.62 485.8 90.25 485.06 90.09C484.907 90.0567 484.75 90.0367 484.59 90.03C484.43 90.0167 484.29 90.01 484.17 90.01H480.12V96.13ZM490.72 103V92.2H492.04V93.91C492.28 93.49 492.56 93.1567 492.88 92.91C493.307 92.5433 493.82 92.3033 494.42 92.19C495.02 92.0767 495.557 92.08 496.03 92.2V93.58C495.63 93.48 495.197 93.4567 494.73 93.51C494.27 93.5633 493.844 93.75 493.45 94.07C492.91 94.4967 492.564 95.0333 492.41 95.68C492.264 96.32 492.19 96.9633 492.19 97.61V103H490.72ZM502.242 103.3C501.169 103.3 500.252 103.057 499.492 102.57C498.732 102.083 498.149 101.41 497.742 100.55C497.335 99.69 497.132 98.7033 497.132 97.59C497.132 96.4567 497.339 95.4633 497.752 94.61C498.165 93.7567 498.752 93.0933 499.512 92.62C500.279 92.14 501.189 91.9 502.242 91.9C503.322 91.9 504.242 92.1433 505.002 92.63C505.769 93.11 506.352 93.78 506.752 94.64C507.159 95.4933 507.362 96.4767 507.362 97.59C507.362 98.7233 507.159 99.72 506.752 100.58C506.345 101.433 505.759 102.1 504.992 102.58C504.225 103.06 503.309 103.3 502.242 103.3ZM502.242 101.89C503.442 101.89 504.335 101.493 504.922 100.7C505.509 99.9 505.802 98.8633 505.802 97.59C505.802 96.29 505.505 95.2533 504.912 94.48C504.319 93.7 503.429 93.31 502.242 93.31C501.035 93.31 500.142 93.71 499.562 94.51C498.982 95.3033 498.692 96.33 498.692 97.59C498.692 98.89 498.992 99.9333 499.592 100.72C500.192 101.5 501.075 101.89 502.242 101.89ZM515.448 103C514.841 103.127 514.241 103.177 513.648 103.15C513.061 103.123 512.535 102.997 512.068 102.77C511.608 102.543 511.258 102.19 511.018 101.71C510.825 101.317 510.718 100.913 510.698 100.5C510.685 100.087 510.678 99.6167 510.678 99.09V93.46H508.368V92.2H510.678V89.2H512.138V92.2H515.448V93.46H512.138V99.03C512.138 99.4833 512.141 99.8633 512.148 100.17C512.161 100.47 512.231 100.737 512.358 100.97C512.598 101.417 512.978 101.683 513.498 101.77C514.025 101.857 514.675 101.837 515.448 101.71V103ZM521.695 103.3C520.622 103.3 519.705 103.057 518.945 102.57C518.185 102.083 517.602 101.41 517.195 100.55C516.788 99.69 516.585 98.7033 516.585 97.59C516.585 96.4567 516.792 95.4633 517.205 94.61C517.618 93.7567 518.205 93.0933 518.965 92.62C519.732 92.14 520.642 91.9 521.695 91.9C522.775 91.9 523.695 92.1433 524.455 92.63C525.222 93.11 525.805 93.78 526.205 94.64C526.612 95.4933 526.815 96.4767 526.815 97.59C526.815 98.7233 526.612 99.72 526.205 100.58C525.798 101.433 525.212 102.1 524.445 102.58C523.678 103.06 522.762 103.3 521.695 103.3ZM521.695 101.89C522.895 101.89 523.788 101.493 524.375 100.7C524.962 99.9 525.255 98.8633 525.255 97.59C525.255 96.29 524.958 95.2533 524.365 94.48C523.772 93.7 522.882 93.31 521.695 93.31C520.488 93.31 519.595 93.71 519.015 94.51C518.435 95.3033 518.145 96.33 518.145 97.59C518.145 98.89 518.445 99.9333 519.045 100.72C519.645 101.5 520.528 101.89 521.695 101.89ZM534.901 103C534.294 103.127 533.694 103.177 533.101 103.15C532.514 103.123 531.988 102.997 531.521 102.77C531.061 102.543 530.711 102.19 530.471 101.71C530.278 101.317 530.171 100.913 530.151 100.5C530.138 100.087 530.131 99.6167 530.131 99.09V93.46H527.821V92.2H530.131V89.2H531.591V92.2H534.901V93.46H531.591V99.03C531.591 99.4833 531.594 99.8633 531.601 100.17C531.614 100.47 531.684 100.737 531.811 100.97C532.051 101.417 532.431 101.683 532.951 101.77C533.478 101.857 534.128 101.837 534.901 101.71V103ZM538.276 107.8L540.056 102.98L535.666 92.2H537.226L540.766 101.08L544.046 92.2H545.546L539.746 107.8H538.276ZM547.273 107.8V92.2H548.593V93.68C548.986 93.1267 549.483 92.6933 550.083 92.38C550.689 92.06 551.393 91.9 552.193 91.9C553.179 91.9 554.026 92.15 554.733 92.65C555.439 93.15 555.979 93.83 556.353 94.69C556.733 95.55 556.923 96.5167 556.923 97.59C556.923 98.67 556.733 99.64 556.353 100.5C555.979 101.36 555.433 102.043 554.713 102.55C553.999 103.05 553.139 103.3 552.133 103.3C551.399 103.3 550.749 103.16 550.183 102.88C549.616 102.593 549.139 102.203 548.753 101.71V107.8H547.273ZM551.983 101.93C552.736 101.93 553.363 101.74 553.863 101.36C554.363 100.973 554.736 100.453 554.983 99.8C555.236 99.1467 555.363 98.41 555.363 97.59C555.363 96.7767 555.239 96.0433 554.993 95.39C554.746 94.7367 554.369 94.22 553.863 93.84C553.363 93.46 552.726 93.27 551.953 93.27C550.826 93.27 549.983 93.6733 549.423 94.48C548.869 95.2867 548.593 96.3233 548.593 97.59C548.593 98.4233 548.716 99.1667 548.963 99.82C549.209 100.473 549.583 100.99 550.083 101.37C550.583 101.743 551.216 101.93 551.983 101.93ZM563.689 103.3C562.635 103.3 561.722 103.067 560.949 102.6C560.175 102.133 559.575 101.477 559.149 100.63C558.729 99.7833 558.519 98.79 558.519 97.65C558.519 96.47 558.729 95.45 559.149 94.59C559.569 93.73 560.159 93.0667 560.919 92.6C561.685 92.1333 562.589 91.9 563.629 91.9C565.229 91.9 566.469 92.4433 567.349 93.53C568.235 94.61 568.652 96.1033 568.599 98.01H560.089C560.149 99.25 560.485 100.207 561.099 100.88C561.712 101.553 562.555 101.89 563.629 101.89C565.202 101.89 566.332 101.197 567.019 99.81L568.389 100.34C567.962 101.28 567.332 102.01 566.499 102.53C565.672 103.043 564.735 103.3 563.689 103.3ZM563.669 93.25C562.629 93.25 561.805 93.5567 561.199 94.17C560.592 94.7767 560.232 95.6467 560.119 96.78H567.059C566.825 94.4267 565.695 93.25 563.669 93.25Z" fill="#EA4C5E"/>
<rect x="685.25" y="74" width="113" height="43" rx="21.5" fill="#EA4C5E"/>
<path d="M702.65 103V88.6H707.31C707.423 88.6 707.657 88.6033 708.01 88.61C708.363 88.6167 708.703 88.64 709.03 88.68C710.19 88.82 711.173 89.2233 711.98 89.89C712.787 90.5567 713.4 91.4033 713.82 92.43C714.24 93.4567 714.45 94.58 714.45 95.8C714.45 97.02 714.24 98.1433 713.82 99.17C713.4 100.197 712.787 101.043 711.98 101.71C711.173 102.377 710.19 102.78 709.03 102.92C708.703 102.96 708.363 102.983 708.01 102.99C707.657 102.997 707.423 103 707.31 103H702.65ZM705.41 100.44H707.31C707.49 100.44 707.733 100.437 708.04 100.43C708.347 100.417 708.623 100.387 708.87 100.34C709.497 100.213 710.007 99.92 710.4 99.46C710.8 99 711.093 98.4467 711.28 97.8C711.473 97.1533 711.57 96.4867 711.57 95.8C711.57 95.08 711.47 94.3967 711.27 93.75C711.077 93.1033 710.78 92.5567 710.38 92.11C709.98 91.6633 709.477 91.38 708.87 91.26C708.623 91.2067 708.347 91.1767 708.04 91.17C707.733 91.1633 707.49 91.16 707.31 91.16H705.41V100.44ZM721.869 103.3C720.763 103.3 719.786 103.063 718.939 102.59C718.099 102.11 717.439 101.453 716.959 100.62C716.486 99.78 716.249 98.82 716.249 97.74C716.249 96.56 716.483 95.5333 716.949 94.66C717.416 93.7867 718.059 93.11 718.879 92.63C719.699 92.1433 720.643 91.9 721.709 91.9C722.843 91.9 723.806 92.1667 724.599 92.7C725.393 93.2333 725.979 93.9833 726.359 94.95C726.739 95.9167 726.873 97.0533 726.759 98.36H719.179C719.279 99.1333 719.539 99.7267 719.959 100.14C720.386 100.553 720.969 100.76 721.709 100.76C722.789 100.76 723.536 100.307 723.949 99.4L726.669 100.18C726.263 101.167 725.619 101.933 724.739 102.48C723.866 103.027 722.909 103.3 721.869 103.3ZM721.829 94.26C720.396 94.26 719.536 94.9533 719.249 96.34H724.009C723.909 95.6067 723.683 95.0767 723.329 94.75C722.983 94.4233 722.483 94.26 721.829 94.26ZM729.217 103V88.3H731.937V103H729.217ZM735.135 103V92.2H737.855V103H735.135ZM736.495 91.09C736.042 91.09 735.662 90.9367 735.355 90.63C735.055 90.3233 734.905 89.95 734.905 89.51C734.905 89.0633 735.055 88.69 735.355 88.39C735.662 88.0833 736.042 87.93 736.495 87.93C736.955 87.93 737.335 88.0833 737.635 88.39C737.935 88.69 738.085 89.0633 738.085 89.51C738.085 89.95 737.935 90.3233 737.635 90.63C737.335 90.9367 736.955 91.09 736.495 91.09ZM743.773 103L739.853 92.2H742.573L745.133 99.68L747.693 92.2H750.413L746.493 103H743.773ZM756.85 103.3C755.743 103.3 754.766 103.063 753.92 102.59C753.08 102.11 752.42 101.453 751.94 100.62C751.466 99.78 751.23 98.82 751.23 97.74C751.23 96.56 751.463 95.5333 751.93 94.66C752.396 93.7867 753.04 93.11 753.86 92.63C754.68 92.1433 755.623 91.9 756.69 91.9C757.823 91.9 758.786 92.1667 759.58 92.7C760.373 93.2333 760.96 93.9833 761.34 94.95C761.72 95.9167 761.853 97.0533 761.74 98.36H754.16C754.26 99.1333 754.52 99.7267 754.94 100.14C755.366 100.553 755.95 100.76 756.69 100.76C757.77 100.76 758.516 100.307 758.93 99.4L761.65 100.18C761.243 101.167 760.6 101.933 759.72 102.48C758.846 103.027 757.89 103.3 756.85 103.3ZM756.81 94.26C755.376 94.26 754.516 94.9533 754.23 96.34H758.99C758.89 95.6067 758.663 95.0767 758.31 94.75C757.963 94.4233 757.463 94.26 756.81 94.26ZM763.998 103V92.2H766.398V93.94C766.538 93.6867 766.701 93.4567 766.888 93.25C767.081 93.0433 767.304 92.8667 767.558 92.72C767.951 92.48 768.391 92.32 768.878 92.24C769.364 92.1533 769.851 92.14 770.338 92.2V94.74C770.038 94.6467 769.688 94.6167 769.288 94.65C768.894 94.6767 768.538 94.7667 768.218 94.92C767.231 95.3733 766.738 96.2267 766.738 97.48V103H763.998ZM773.229 107.8L775.009 102.91L770.649 92.2H773.469L776.309 99.55L779.129 92.2H781.849L775.749 107.8H773.229Z" fill="#F7F5F5"/>
<rect x="33.75" y="74.5" width="103" height="42" rx="21" fill="#F7F5F5"/>
<rect x="33.75" y="74.5" width="103" height="42" rx="21" stroke="#EA4C5E"/>
<path d="M42.65 103V88.6H48.21C48.35 88.6 48.5067 88.6067 48.68 88.62C48.86 88.6267 49.04 88.6467 49.22 88.68C50.3467 88.8533 51.2133 89.3233 51.82 90.09C52.4267 90.8567 52.73 91.76 52.73 92.8C52.73 93.6933 52.47 94.5167 51.95 95.27C51.4367 96.0233 50.7033 96.5333 49.75 96.8L52.96 103H51.26L48.17 97H44.12V103H42.65ZM44.12 95.59H48.17C48.29 95.59 48.43 95.5867 48.59 95.58C48.7567 95.5733 48.9133 95.55 49.06 95.51C49.8 95.3167 50.3433 94.9633 50.69 94.45C51.0433 93.9367 51.22 93.3867 51.22 92.8C51.22 92.2133 51.0433 91.6567 50.69 91.13C50.3433 90.5967 49.8 90.25 49.06 90.09C48.9067 90.0567 48.75 90.0367 48.59 90.03C48.43 90.0167 48.29 90.01 48.17 90.01H44.12V95.59ZM59.8372 103.3C58.7839 103.3 57.8705 103.067 57.0972 102.6C56.3239 102.133 55.7239 101.477 55.2972 100.63C54.8772 99.7833 54.6672 98.79 54.6672 97.65C54.6672 96.47 54.8772 95.45 55.2972 94.59C55.7172 93.73 56.3072 93.0667 57.0672 92.6C57.8339 92.1333 58.7372 91.9 59.7772 91.9C61.3772 91.9 62.6172 92.4433 63.4972 93.53C64.3839 94.61 64.8005 96.1033 64.7472 98.01H56.2372C56.2972 99.25 56.6339 100.207 57.2472 100.88C57.8605 101.553 58.7039 101.89 59.7772 101.89C61.3505 101.89 62.4805 101.197 63.1672 99.81L64.5372 100.34C64.1105 101.28 63.4805 102.01 62.6472 102.53C61.8205 103.043 60.8839 103.3 59.8372 103.3ZM59.8172 93.25C58.7772 93.25 57.9539 93.5567 57.3472 94.17C56.7405 94.7767 56.3805 95.6467 56.2672 96.78H63.2072C62.9739 94.4267 61.8439 93.25 59.8172 93.25ZM70.9964 103.29C69.7297 103.29 68.6864 103.017 67.8664 102.47C67.0531 101.923 66.5531 101.163 66.3664 100.19L67.8664 99.94C68.0264 100.56 68.3897 101.05 68.9564 101.41C69.5297 101.77 70.2364 101.95 71.0764 101.95C71.8964 101.95 72.5431 101.78 73.0164 101.44C73.4897 101.093 73.7264 100.623 73.7264 100.03C73.7264 99.6967 73.6497 99.4267 73.4964 99.22C73.3431 99.0067 73.0364 98.81 72.5764 98.63C72.1231 98.45 71.4397 98.2367 70.5264 97.99C69.5464 97.7233 68.7764 97.4567 68.2164 97.19C67.6631 96.9233 67.2697 96.6167 67.0364 96.27C66.8097 95.9167 66.6964 95.4867 66.6964 94.98C66.6964 94.06 67.0731 93.3167 67.8264 92.75C68.5864 92.1833 69.5764 91.9 70.7964 91.9C71.6097 91.9 72.3364 92.0333 72.9764 92.3C73.6231 92.56 74.1431 92.9267 74.5364 93.4C74.9297 93.8733 75.1631 94.4233 75.2364 95.05L73.7364 95.32C73.6297 94.6867 73.3131 94.1867 72.7864 93.82C72.2597 93.4467 71.5897 93.2533 70.7764 93.24C70.0097 93.22 69.3864 93.3667 68.9064 93.68C68.4264 93.9867 68.1864 94.3967 68.1864 94.91C68.1864 95.1967 68.2731 95.4433 68.4464 95.65C68.6197 95.85 68.9331 96.04 69.3864 96.22C69.8464 96.4 70.4997 96.5967 71.3464 96.81C72.3397 97.0633 73.1197 97.33 73.6864 97.61C74.2531 97.89 74.6564 98.22 74.8964 98.6C75.1364 98.98 75.2564 99.45 75.2564 100.01C75.2564 101.03 74.8764 101.833 74.1164 102.42C73.3631 103 72.3231 103.29 70.9964 103.29ZM82.0442 103.3C80.9909 103.3 80.0776 103.067 79.3042 102.6C78.5309 102.133 77.9309 101.477 77.5042 100.63C77.0842 99.7833 76.8742 98.79 76.8742 97.65C76.8742 96.47 77.0842 95.45 77.5042 94.59C77.9242 93.73 78.5142 93.0667 79.2742 92.6C80.0409 92.1333 80.9442 91.9 81.9842 91.9C83.5842 91.9 84.8242 92.4433 85.7042 93.53C86.5909 94.61 87.0076 96.1033 86.9542 98.01H78.4442C78.5042 99.25 78.8409 100.207 79.4542 100.88C80.0676 101.553 80.9109 101.89 81.9842 101.89C83.5576 101.89 84.6876 101.197 85.3742 99.81L86.7442 100.34C86.3176 101.28 85.6876 102.01 84.8542 102.53C84.0276 103.043 83.0909 103.3 82.0442 103.3ZM82.0242 93.25C80.9842 93.25 80.1609 93.5567 79.5542 94.17C78.9476 94.7767 78.5876 95.6467 78.4742 96.78H85.4142C85.1809 94.4267 84.0509 93.25 82.0242 93.25ZM92.0681 103.3C91.2548 103.3 90.5715 103.153 90.0181 102.86C89.4715 102.567 89.0615 102.177 88.7881 101.69C88.5148 101.203 88.3781 100.673 88.3781 100.1C88.3781 99.2133 88.6348 98.5233 89.1481 98.03C89.6615 97.53 90.3215 97.1733 91.1281 96.96C91.6148 96.84 92.1481 96.7333 92.7281 96.64C93.3081 96.5467 93.8848 96.4633 94.4581 96.39C95.0381 96.3167 95.5681 96.25 96.0481 96.19C96.0348 95.21 95.8081 94.4833 95.3681 94.01C94.9281 93.53 94.1948 93.29 93.1681 93.29C92.4281 93.29 91.8015 93.4567 91.2881 93.79C90.7815 94.1233 90.4248 94.65 90.2181 95.37L88.7881 94.95C89.0348 93.9833 89.5315 93.2333 90.2781 92.7C91.0248 92.1667 91.9948 91.9 93.1881 91.9C94.1748 91.9 95.0115 92.0867 95.6981 92.46C96.3915 92.8267 96.8815 93.36 97.1681 94.06C97.3015 94.3733 97.3881 94.7233 97.4281 95.11C97.4681 95.4967 97.4881 95.89 97.4881 96.29V103H96.1781V101.22C95.3248 102.607 93.9548 103.3 92.0681 103.3ZM92.2381 102.03C93.2715 102.03 94.1015 101.76 94.7281 101.22C95.3615 100.68 95.7481 100.003 95.8881 99.19C95.9481 98.9233 95.9848 98.6333 95.9981 98.32C96.0181 98 96.0281 97.7167 96.0281 97.47C95.3215 97.5567 94.5748 97.65 93.7881 97.75C93.0015 97.85 92.3115 97.98 91.7181 98.14C91.2581 98.2733 90.8315 98.4867 90.4381 98.78C90.0448 99.0733 89.8481 99.5133 89.8481 100.1C89.8481 100.413 89.9248 100.717 90.0781 101.01C90.2381 101.303 90.4915 101.547 90.8381 101.74C91.1915 101.933 91.6581 102.03 92.2381 102.03ZM100.091 103V92.2H101.411V93.91C101.651 93.49 101.931 93.1567 102.251 92.91C102.678 92.5433 103.191 92.3033 103.791 92.19C104.391 92.0767 104.928 92.08 105.401 92.2V93.58C105.001 93.48 104.568 93.4567 104.101 93.51C103.641 93.5633 103.215 93.75 102.821 94.07C102.281 94.4967 101.935 95.0333 101.781 95.68C101.635 96.32 101.561 96.9633 101.561 97.61V103H100.091ZM111.583 103.3C110.496 103.3 109.576 103.057 108.823 102.57C108.076 102.083 107.506 101.413 107.113 100.56C106.72 99.7 106.516 98.7133 106.503 97.6C106.516 96.4667 106.723 95.4733 107.123 94.62C107.523 93.76 108.1 93.0933 108.853 92.62C109.606 92.14 110.52 91.9 111.593 91.9C112.686 91.9 113.636 92.1667 114.443 92.7C115.256 93.2333 115.813 93.9633 116.113 94.89L114.673 95.35C114.42 94.7033 114.016 94.2033 113.463 93.85C112.916 93.49 112.29 93.31 111.583 93.31C110.39 93.31 109.506 93.71 108.933 94.51C108.366 95.31 108.076 96.34 108.063 97.6C108.076 98.8933 108.376 99.9333 108.963 100.72C109.55 101.5 110.423 101.89 111.583 101.89C113.063 101.89 114.08 101.23 114.633 99.91L116.113 100.35C115.706 101.31 115.116 102.043 114.343 102.55C113.576 103.05 112.656 103.3 111.583 103.3ZM118.167 103V88.6H119.497V93.7C119.897 93.12 120.407 92.68 121.027 92.38C121.654 92.08 122.354 91.93 123.127 91.93C123.941 91.93 124.624 92.0833 125.177 92.39C125.731 92.69 126.174 93.09 126.507 93.59C126.841 94.0833 127.081 94.6333 127.227 95.24C127.381 95.8467 127.457 96.4533 127.457 97.06V103H125.977V97.49C125.977 96.6967 125.874 95.9867 125.667 95.36C125.461 94.7333 125.127 94.24 124.667 93.88C124.207 93.5133 123.601 93.33 122.847 93.33C121.807 93.33 121.014 93.6767 120.467 94.37C119.921 95.0633 119.647 96.02 119.647 97.24V103H118.167Z" fill="#EA4C5E"/>
<path d="M134.583 96C134.583 97.4728 135.777 98.6667 137.25 98.6667C138.723 98.6667 139.917 97.4728 139.917 96C139.917 94.5272 138.723 93.3333 137.25 93.3333C135.777 93.3333 134.583 94.5272 134.583 96ZM197.25 96L192.25 93.1132V98.8868L197.25 96ZM137.25 96.5H139.125V95.5H137.25V96.5ZM142.875 96.5H146.625V95.5H142.875V96.5ZM150.375 96.5H154.125V95.5H150.375V96.5ZM157.875 96.5H161.625V95.5H157.875V96.5ZM165.375 96.5H169.125V95.5H165.375V96.5ZM172.875 96.5H176.625V95.5H172.875V96.5ZM180.375 96.5H184.125V95.5H180.375V96.5ZM187.875 96.5H191.625V95.5H187.875V96.5Z" fill="#EA7B4B"/>
<path d="M293.583 96C293.583 97.4728 294.777 98.6667 296.25 98.6667C297.723 98.6667 298.917 97.4728 298.917 96C298.917 94.5272 297.723 93.3333 296.25 93.3333C294.777 93.3333 293.583 94.5272 293.583 96ZM356.25 96L351.25 93.1132V98.8868L356.25 96ZM296.25 96.5H298.125V95.5H296.25V96.5ZM301.875 96.5H305.625V95.5H301.875V96.5ZM309.375 96.5H313.125V95.5H309.375V96.5ZM316.875 96.5H320.625V95.5H316.875V96.5ZM324.375 96.5H328.125V95.5H324.375V96.5ZM331.875 96.5H335.625V95.5H331.875V96.5ZM339.375 96.5H343.125V95.5H339.375V96.5ZM346.875 96.5H350.625V95.5H346.875V96.5Z" fill="#EA7B4B"/>
<path d="M575.583 96C575.583 97.4728 576.777 98.6667 578.25 98.6667C579.723 98.6667 580.917 97.4728 580.917 96C580.917 94.5272 579.723 93.3333 578.25 93.3333C576.777 93.3333 575.583 94.5272 575.583 96ZM678.25 96L673.25 93.1132V98.8868L678.25 96ZM578.25 96.5H580.173V95.5H578.25V96.5ZM584.019 96.5H587.865V95.5H584.019V96.5ZM591.712 96.5H595.558V95.5H591.712V96.5ZM599.404 96.5H603.25V95.5H599.404V96.5ZM607.096 96.5H610.942V95.5H607.096V96.5ZM614.788 96.5H618.635V95.5H614.788V96.5ZM622.481 96.5H626.327V95.5H622.481V96.5ZM630.173 96.5H634.019V95.5H630.173V96.5ZM637.865 96.5H641.712V95.5H637.865V96.5ZM645.558 96.5H649.404V95.5H645.558V96.5ZM653.25 96.5H657.096V95.5H653.25V96.5ZM660.942 96.5H664.788V95.5H660.942V96.5ZM668.635 96.5H672.481V95.5H668.635V96.5Z" fill="#EA7B4B"/>
<path d="M389.583 74C389.583 75.4728 390.777 76.6667 392.25 76.6667C393.723 76.6667 394.917 75.4728 394.917 74C394.917 72.5272 393.723 71.3333 392.25 71.3333C390.777 71.3333 389.583 72.5272 389.583 74ZM521.25 68.6545L523.918 63.5344L518.15 63.7841L521.25 68.6545ZM392.75 74C392.75 73.3673 392.772 72.7379 392.815 72.1122L391.818 72.0432C391.773 72.6918 391.75 73.3442 391.75 74H392.75ZM393.334 68.3749C393.592 67.1458 393.932 65.9334 394.352 64.74L393.409 64.4078C392.975 65.6417 392.622 66.8967 392.355 68.17L393.334 68.3749ZM395.829 61.2593C396.385 60.1419 397.013 59.0445 397.709 57.9694L396.869 57.4259C396.154 58.5313 395.507 59.6613 394.933 60.8136L395.829 61.2593ZM399.929 54.8993C400.709 53.9267 401.547 52.9762 402.44 52.0496L401.72 51.3556C400.807 52.3032 399.949 53.2765 399.149 54.2737L399.929 54.8993ZM405.193 49.4222C406.13 48.5973 407.113 47.7955 408.14 47.0182L407.537 46.2208C406.491 47.0124 405.489 47.8299 404.532 48.6716L405.193 49.4222ZM411.26 44.8216C412.307 44.1352 413.391 43.4722 414.509 42.8339L414.014 41.9653C412.878 42.6135 411.776 43.2873 410.711 43.9853L411.26 44.8216ZM417.879 41.0389C419.004 40.4795 420.16 39.9437 421.343 39.4328L420.946 38.5147C419.747 39.0326 418.576 39.5759 417.434 40.1434L417.879 41.0389ZM424.884 38.0088C426.065 37.5678 427.27 37.1504 428.497 36.7578L428.193 35.8054C426.95 36.2028 425.73 36.6253 424.534 37.072L424.884 38.0088ZM432.164 35.677C433.381 35.3478 434.618 35.0423 435.872 34.7613L435.654 33.7855C434.385 34.0696 433.134 34.3786 431.903 34.7117L432.164 35.677ZM439.621 34.0052C440.865 33.7812 442.126 33.581 443.4 33.4054L443.263 32.4148C441.976 32.5922 440.702 32.7946 439.444 33.021L439.621 34.0052ZM447.2 32.9596C448.458 32.8373 449.729 32.7388 451.011 32.6648L450.953 31.6665C449.658 31.7412 448.375 31.8407 447.103 31.9643L447.2 32.9596ZM454.832 32.5183C455.469 32.5061 456.109 32.5 456.75 32.5V31.5C456.102 31.5 455.457 31.5062 454.813 31.5185L454.832 32.5183ZM456.75 32.5C457.42 32.5 458.092 32.5065 458.765 32.5196L458.785 31.5197C458.105 31.5066 457.427 31.5 456.75 31.5V32.5ZM462.798 32.6742C464.138 32.7509 465.481 32.8527 466.822 32.9794L466.916 31.9838C465.562 31.856 464.208 31.7533 462.855 31.6759L462.798 32.6742ZM470.832 33.4327C472.168 33.6086 473.499 33.8091 474.823 34.0338L474.99 33.0479C473.654 32.8211 472.31 32.6188 470.962 32.4413L470.832 33.4327ZM478.788 34.7839C480.11 35.0604 481.421 35.3613 482.719 35.6864L482.962 34.7164C481.652 34.388 480.327 34.0842 478.992 33.8051L478.788 34.7839ZM486.612 36.7476C487.91 37.1311 489.191 37.5397 490.449 37.9729L490.774 37.0274C489.502 36.5892 488.207 36.1761 486.895 35.7885L486.612 36.7476ZM494.23 39.377C495.491 39.8807 496.724 40.4107 497.925 40.9667L498.345 40.0592C497.127 39.4955 495.878 38.9584 494.601 38.4484L494.23 39.377ZM501.529 42.7663C502.729 43.4118 503.887 44.0857 505.001 44.7877L505.534 43.9418C504.4 43.227 503.222 42.5415 502.003 41.8857L501.529 42.7663ZM508.309 47.0578C509.401 47.8751 510.435 48.7239 511.405 49.6035L512.077 48.8627C511.082 47.9607 510.024 47.092 508.908 46.2571L508.309 47.0578ZM514.215 52.4438C515.111 53.46 515.925 54.5106 516.651 55.595L517.482 55.0387C516.73 53.9152 515.888 52.8296 514.965 51.7826L514.215 52.4438ZM518.607 59.052C519.168 60.256 519.625 61.4964 519.971 62.7724L520.936 62.5107C520.575 61.1776 520.097 59.8835 519.513 58.6296L518.607 59.052ZM389.583 74C389.583 75.4728 390.777 76.6667 392.25 76.6667C393.723 76.6667 394.917 75.4728 394.917 74C394.917 72.5272 393.723 71.3333 392.25 71.3333C390.777 71.3333 389.583 72.5272 389.583 74ZM521.25 68.6545L523.918 63.5344L518.15 63.7841L521.25 68.6545ZM392.75 74C392.75 73.3673 392.772 72.7379 392.815 72.1122L391.818 72.0432C391.773 72.6918 391.75 73.3442 391.75 74H392.75ZM393.334 68.3749C393.592 67.1458 393.932 65.9334 394.352 64.74L393.409 64.4078C392.975 65.6417 392.622 66.8967 392.355 68.17L393.334 68.3749ZM395.829 61.2593C396.385 60.1419 397.013 59.0445 397.709 57.9694L396.869 57.4259C396.154 58.5313 395.507 59.6613 394.933 60.8136L395.829 61.2593ZM399.929 54.8993C400.709 53.9267 401.547 52.9762 402.44 52.0496L401.72 51.3556C400.807 52.3032 399.949 53.2765 399.149 54.2737L399.929 54.8993ZM405.193 49.4222C406.13 48.5973 407.113 47.7955 408.14 47.0182L407.537 46.2208C406.491 47.0124 405.489 47.8299 404.532 48.6716L405.193 49.4222ZM411.26 44.8216C412.307 44.1352 413.391 43.4722 414.509 42.8339L414.014 41.9653C412.878 42.6135 411.776 43.2873 410.711 43.9853L411.26 44.8216ZM417.879 41.0389C419.004 40.4795 420.16 39.9437 421.343 39.4328L420.946 38.5147C419.747 39.0326 418.576 39.5759 417.434 40.1434L417.879 41.0389ZM424.884 38.0088C426.065 37.5678 427.27 37.1504 428.497 36.7578L428.193 35.8054C426.95 36.2028 425.73 36.6253 424.534 37.072L424.884 38.0088ZM432.164 35.677C433.381 35.3478 434.618 35.0423 435.872 34.7613L435.654 33.7855C434.385 34.0696 433.134 34.3786 431.903 34.7117L432.164 35.677ZM439.621 34.0052C440.865 33.7812 442.126 33.581 443.4 33.4054L443.263 32.4148C441.976 32.5922 440.702 32.7946 439.444 33.021L439.621 34.0052ZM447.2 32.9596C448.458 32.8373 449.729 32.7388 451.011 32.6648L450.953 31.6665C449.658 31.7412 448.375 31.8407 447.103 31.9643L447.2 32.9596ZM454.832 32.5183C455.469 32.5061 456.109 32.5 456.75 32.5V31.5C456.102 31.5 455.457 31.5062 454.813 31.5185L454.832 32.5183ZM456.75 32.5C457.42 32.5 458.092 32.5065 458.765 32.5196L458.785 31.5197C458.105 31.5066 457.427 31.5 456.75 31.5V32.5ZM462.798 32.6742C464.138 32.7509 465.481 32.8527 466.822 32.9794L466.916 31.9838C465.562 31.856 464.208 31.7533 462.855 31.6759L462.798 32.6742ZM470.832 33.4327C472.168 33.6086 473.499 33.8091 474.823 34.0338L474.99 33.0479C473.654 32.8211 472.31 32.6188 470.962 32.4413L470.832 33.4327ZM478.788 34.7839C480.11 35.0604 481.421 35.3613 482.719 35.6864L482.962 34.7164C481.652 34.388 480.327 34.0842 478.992 33.8051L478.788 34.7839ZM486.612 36.7476C487.91 37.1311 489.191 37.5397 490.449 37.9729L490.774 37.0274C489.502 36.5892 488.207 36.1761 486.895 35.7885L486.612 36.7476ZM494.23 39.377C495.491 39.8807 496.724 40.4107 497.925 40.9667L498.345 40.0592C497.127 39.4955 495.878 38.9584 494.601 38.4484L494.23 39.377ZM501.529 42.7663C502.729 43.4118 503.887 44.0857 505.001 44.7877L505.534 43.9418C504.4 43.227 503.222 42.5415 502.003 41.8857L501.529 42.7663ZM508.309 47.0578C509.401 47.8751 510.435 48.7239 511.405 49.6035L512.077 48.8627C511.082 47.9607 510.024 47.092 508.908 46.2571L508.309 47.0578ZM514.215 52.4438C515.111 53.46 515.925 54.5106 516.651 55.595L517.482 55.0387C516.73 53.9152 515.888 52.8296 514.965 51.7826L514.215 52.4438ZM518.607 59.052C519.168 60.256 519.625 61.4964 519.971 62.7724L520.936 62.5107C520.575 61.1776 520.097 59.8835 519.513 58.6296L518.607 59.052Z" fill="#EA7B4B"/>
<path d="M526.917 117C526.917 115.527 525.723 114.333 524.25 114.333C522.777 114.333 521.583 115.527 521.583 117C521.583 118.473 522.777 119.667 524.25 119.667C525.723 119.667 526.917 118.473 526.917 117ZM395.25 122.345L392.582 127.466L398.35 127.216L395.25 122.345ZM523.75 117C523.75 117.633 523.728 118.262 523.685 118.888L524.682 118.957C524.727 118.308 524.75 117.656 524.75 117L523.75 117ZM523.166 122.625C522.908 123.854 522.568 125.067 522.148 126.26L523.091 126.592C523.525 125.358 523.878 124.103 524.145 122.83L523.166 122.625ZM520.671 129.741C520.115 130.858 519.487 131.956 518.791 133.031L519.631 133.574C520.346 132.469 520.993 131.339 521.567 130.186L520.671 129.741ZM516.571 136.101C515.791 137.073 514.953 138.024 514.06 138.95L514.78 139.644C515.693 138.697 516.551 137.723 517.351 136.726L516.571 136.101ZM511.307 141.578C510.37 142.403 509.387 143.205 508.36 143.982L508.963 144.779C510.009 143.988 511.011 143.17 511.968 142.328L511.307 141.578ZM505.24 146.178C504.193 146.865 503.109 147.528 501.991 148.166L502.486 149.035C503.622 148.386 504.724 147.713 505.789 147.015L505.24 146.178ZM498.621 149.961C497.496 150.52 496.34 151.056 495.157 151.567L495.554 152.485C496.753 151.967 497.924 151.424 499.066 150.857L498.621 149.961ZM491.616 152.991C490.435 153.432 489.23 153.85 488.003 154.242L488.307 155.195C489.55 154.797 490.77 154.375 491.966 153.928L491.616 152.991ZM484.336 155.323C483.119 155.652 481.882 155.958 480.628 156.239L480.846 157.215C482.115 156.93 483.366 156.621 484.597 156.288L484.336 155.323ZM476.879 156.995C475.635 157.219 474.374 157.419 473.1 157.595L473.237 158.585C474.524 158.408 475.798 158.205 477.056 157.979L476.879 156.995ZM469.3 158.04C468.042 158.163 466.771 158.261 465.489 158.335L465.547 159.334C466.842 159.259 468.125 159.159 469.397 159.036L469.3 158.04ZM461.668 158.482C461.031 158.494 460.391 158.5 459.75 158.5L459.75 159.5C460.398 159.5 461.043 159.494 461.687 159.482L461.668 158.482ZM459.75 158.5C459.08 158.5 458.408 158.493 457.735 158.48L457.715 159.48C458.395 159.493 459.073 159.5 459.75 159.5L459.75 158.5ZM453.702 158.326C452.362 158.249 451.019 158.147 449.678 158.021L449.584 159.016C450.938 159.144 452.292 159.247 453.645 159.324L453.702 158.326ZM445.668 157.567C444.332 157.391 443.001 157.191 441.677 156.966L441.51 157.952C442.846 158.179 444.19 158.381 445.538 158.559L445.668 157.567ZM437.712 156.216C436.39 155.94 435.079 155.639 433.781 155.314L433.538 156.284C434.848 156.612 436.173 156.916 437.508 157.195L437.712 156.216ZM429.888 154.252C428.59 153.869 427.309 153.46 426.051 153.027L425.726 153.973C426.998 154.411 428.293 154.824 429.605 155.211L429.888 154.252ZM422.27 151.623C421.009 151.119 419.776 150.589 418.575 150.033L418.155 150.941C419.373 151.505 420.622 152.042 421.899 152.552L422.27 151.623ZM414.971 148.234C413.771 147.588 412.613 146.914 411.499 146.212L410.966 147.058C412.1 147.773 413.278 148.459 414.497 149.114L414.971 148.234ZM408.191 143.942C407.099 143.125 406.065 142.276 405.095 141.396L404.423 142.137C405.418 143.039 406.476 143.908 407.592 144.743L408.191 143.942ZM402.285 138.556C401.389 137.54 400.575 136.489 399.849 135.405L399.018 135.961C399.77 137.085 400.612 138.17 401.535 139.217L402.285 138.556ZM397.893 131.948C397.332 130.744 396.875 129.504 396.529 128.228L395.564 128.489C395.925 129.822 396.403 131.116 396.987 132.37L397.893 131.948ZM526.917 117C526.917 115.527 525.723 114.333 524.25 114.333C522.777 114.333 521.583 115.527 521.583 117C521.583 118.473 522.777 119.667 524.25 119.667C525.723 119.667 526.917 118.473 526.917 117ZM395.25 122.345L392.582 127.466L398.35 127.216L395.25 122.345ZM523.75 117C523.75 117.633 523.728 118.262 523.685 118.888L524.682 118.957C524.727 118.308 524.75 117.656 524.75 117L523.75 117ZM523.166 122.625C522.908 123.854 522.568 125.067 522.148 126.26L523.091 126.592C523.525 125.358 523.878 124.103 524.145 122.83L523.166 122.625ZM520.671 129.741C520.115 130.858 519.487 131.956 518.791 133.031L519.631 133.574C520.346 132.469 520.993 131.339 521.567 130.186L520.671 129.741ZM516.571 136.101C515.791 137.073 514.953 138.024 514.06 138.95L514.78 139.644C515.693 138.697 516.551 137.723 517.351 136.726L516.571 136.101ZM511.307 141.578C510.37 142.403 509.387 143.205 508.36 143.982L508.963 144.779C510.009 143.988 511.011 143.17 511.968 142.328L511.307 141.578ZM505.24 146.178C504.193 146.865 503.109 147.528 501.991 148.166L502.486 149.035C503.622 148.386 504.724 147.713 505.789 147.015L505.24 146.178ZM498.621 149.961C497.496 150.52 496.34 151.056 495.157 151.567L495.554 152.485C496.753 151.967 497.924 151.424 499.066 150.857L498.621 149.961ZM491.616 152.991C490.435 153.432 489.23 153.85 488.003 154.242L488.307 155.195C489.55 154.797 490.77 154.375 491.966 153.928L491.616 152.991ZM484.336 155.323C483.119 155.652 481.882 155.958 480.628 156.239L480.846 157.215C482.115 156.93 483.366 156.621 484.597 156.288L484.336 155.323ZM476.879 156.995C475.635 157.219 474.374 157.419 473.1 157.595L473.237 158.585C474.524 158.408 475.798 158.205 477.056 157.979L476.879 156.995ZM469.3 158.04C468.042 158.163 466.771 158.261 465.489 158.335L465.547 159.334C466.842 159.259 468.125 159.159 469.397 159.036L469.3 158.04ZM461.668 158.482C461.031 158.494 460.391 158.5 459.75 158.5L459.75 159.5C460.398 159.5 461.043 159.494 461.687 159.482L461.668 158.482ZM459.75 158.5C459.08 158.5 458.408 158.493 457.735 158.48L457.715 159.48C458.395 159.493 459.073 159.5 459.75 159.5L459.75 158.5ZM453.702 158.326C452.362 158.249 451.019 158.147 449.678 158.021L449.584 159.016C450.938 159.144 452.292 159.247 453.645 159.324L453.702 158.326ZM445.668 157.567C444.332 157.391 443.001 157.191 441.677 156.966L441.51 157.952C442.846 158.179 444.19 158.381 445.538 158.559L445.668 157.567ZM437.712 156.216C436.39 155.94 435.079 155.639 433.781 155.314L433.538 156.284C434.848 156.612 436.173 156.916 437.508 157.195L437.712 156.216ZM429.888 154.252C428.59 153.869 427.309 153.46 426.051 153.027L425.726 153.973C426.998 154.411 428.293 154.824 429.605 155.211L429.888 154.252ZM422.27 151.623C421.009 151.119 419.776 150.589 418.575 150.033L418.155 150.941C419.373 151.505 420.622 152.042 421.899 152.552L422.27 151.623ZM414.971 148.234C413.771 147.588 412.613 146.914 411.499 146.212L410.966 147.058C412.1 147.773 413.278 148.459 414.497 149.114L414.971 148.234ZM408.191 143.942C407.099 143.125 406.065 142.276 405.095 141.396L404.423 142.137C405.418 143.039 406.476 143.908 407.592 144.743L408.191 143.942ZM402.285 138.556C401.389 137.54 400.575 136.489 399.849 135.405L399.018 135.961C399.77 137.085 400.612 138.17 401.535 139.217L402.285 138.556ZM397.893 131.948C397.332 130.744 396.875 129.504 396.529 128.228L395.564 128.489C395.925 129.822 396.403 131.116 396.987 132.37L397.893 131.948Z" fill="#EA7B4B"/>
<path d="M534.878 138V127.792L532.71 129.096V127.776L534.878 126.48H536.07V138H534.878ZM544.148 138L541.508 129.352L542.684 129.36L544.732 136.072L546.788 129.36H547.86L549.916 136.072L551.98 129.36H553.148L550.508 138H549.484L547.324 131.12L545.172 138H544.148ZM557.932 138.24C557.09 138.24 556.359 138.053 555.74 137.68C555.122 137.307 554.642 136.781 554.3 136.104C553.964 135.427 553.796 134.632 553.796 133.72C553.796 132.776 553.964 131.96 554.3 131.272C554.636 130.584 555.108 130.053 555.716 129.68C556.33 129.307 557.052 129.12 557.884 129.12C559.164 129.12 560.156 129.555 560.86 130.424C561.57 131.288 561.903 132.483 561.86 134.008H555.052C555.1 135 555.37 135.765 555.86 136.304C556.351 136.843 557.026 137.112 557.884 137.112C559.143 137.112 560.047 136.557 560.596 135.448L561.692 135.872C561.351 136.624 560.847 137.208 560.18 137.624C559.519 138.035 558.77 138.24 557.932 138.24ZM557.916 130.2C557.084 130.2 556.426 130.445 555.94 130.936C555.455 131.421 555.167 132.117 555.076 133.024H560.628C560.442 131.141 559.538 130.2 557.916 130.2ZM567.292 138.24C566.449 138.24 565.718 138.053 565.1 137.68C564.481 137.307 564.001 136.781 563.66 136.104C563.324 135.427 563.156 134.632 563.156 133.72C563.156 132.776 563.324 131.96 563.66 131.272C563.996 130.584 564.468 130.053 565.076 129.68C565.689 129.307 566.412 129.12 567.244 129.12C568.524 129.12 569.516 129.555 570.22 130.424C570.929 131.288 571.262 132.483 571.22 134.008H564.412C564.46 135 564.729 135.765 565.22 136.304C565.71 136.843 566.385 137.112 567.244 137.112C568.502 137.112 569.406 136.557 569.956 135.448L571.052 135.872C570.71 136.624 570.206 137.208 569.54 137.624C568.878 138.035 568.129 138.24 567.292 138.24ZM567.276 130.2C566.444 130.2 565.785 130.445 565.3 130.936C564.814 131.421 564.526 132.117 564.436 133.024H569.988C569.801 131.141 568.897 130.2 567.276 130.2ZM572.987 138L572.995 126.48H574.123V133.12L578.099 129.36H579.563L575.747 133.024L579.771 138H578.371L574.955 133.792L574.123 134.584V138H572.987Z" fill="#EA7B4B"/>
<path d="M753.878 138V127.792L751.71 129.096V127.776L753.878 126.48H755.07V138H753.878ZM763.148 138L760.508 129.352L761.684 129.36L763.732 136.072L765.788 129.36H766.86L768.916 136.072L770.98 129.36H772.148L769.508 138H768.484L766.324 131.12L764.172 138H763.148ZM776.932 138.24C776.09 138.24 775.359 138.053 774.74 137.68C774.122 137.307 773.642 136.781 773.3 136.104C772.964 135.427 772.796 134.632 772.796 133.72C772.796 132.776 772.964 131.96 773.3 131.272C773.636 130.584 774.108 130.053 774.716 129.68C775.33 129.307 776.052 129.12 776.884 129.12C778.164 129.12 779.156 129.555 779.86 130.424C780.57 131.288 780.903 132.483 780.86 134.008H774.052C774.1 135 774.37 135.765 774.86 136.304C775.351 136.843 776.026 137.112 776.884 137.112C778.143 137.112 779.047 136.557 779.596 135.448L780.692 135.872C780.351 136.624 779.847 137.208 779.18 137.624C778.519 138.035 777.77 138.24 776.932 138.24ZM776.916 130.2C776.084 130.2 775.426 130.445 774.94 130.936C774.455 131.421 774.167 132.117 774.076 133.024H779.628C779.442 131.141 778.538 130.2 776.916 130.2ZM786.292 138.24C785.449 138.24 784.718 138.053 784.1 137.68C783.481 137.307 783.001 136.781 782.66 136.104C782.324 135.427 782.156 134.632 782.156 133.72C782.156 132.776 782.324 131.96 782.66 131.272C782.996 130.584 783.468 130.053 784.076 129.68C784.689 129.307 785.412 129.12 786.244 129.12C787.524 129.12 788.516 129.555 789.22 130.424C789.929 131.288 790.262 132.483 790.22 134.008H783.412C783.46 135 783.729 135.765 784.22 136.304C784.71 136.843 785.385 137.112 786.244 137.112C787.502 137.112 788.406 136.557 788.956 135.448L790.052 135.872C789.71 136.624 789.206 137.208 788.54 137.624C787.878 138.035 787.129 138.24 786.292 138.24ZM786.276 130.2C785.444 130.2 784.785 130.445 784.3 130.936C783.814 131.421 783.526 132.117 783.436 133.024H788.988C788.801 131.141 787.897 130.2 786.276 130.2ZM791.987 138L791.995 126.48H793.123V133.12L797.099 129.36H798.563L794.747 133.024L798.771 138H797.371L793.955 133.792L793.123 134.584V138H791.987Z" fill="#EA7B4B"/>
<path d="M251.878 138V127.792L249.71 129.096V127.776L251.878 126.48H253.07V138H251.878ZM261.148 138L258.508 129.352L259.684 129.36L261.732 136.072L263.788 129.36H264.86L266.916 136.072L268.98 129.36H270.148L267.508 138H266.484L264.324 131.12L262.172 138H261.148ZM274.932 138.24C274.09 138.24 273.359 138.053 272.74 137.68C272.122 137.307 271.642 136.781 271.3 136.104C270.964 135.427 270.796 134.632 270.796 133.72C270.796 132.776 270.964 131.96 271.3 131.272C271.636 130.584 272.108 130.053 272.716 129.68C273.33 129.307 274.052 129.12 274.884 129.12C276.164 129.12 277.156 129.555 277.86 130.424C278.57 131.288 278.903 132.483 278.86 134.008H272.052C272.1 135 272.37 135.765 272.86 136.304C273.351 136.843 274.026 137.112 274.884 137.112C276.143 137.112 277.047 136.557 277.596 135.448L278.692 135.872C278.351 136.624 277.847 137.208 277.18 137.624C276.519 138.035 275.77 138.24 274.932 138.24ZM274.916 130.2C274.084 130.2 273.426 130.445 272.94 130.936C272.455 131.421 272.167 132.117 272.076 133.024H277.628C277.442 131.141 276.538 130.2 274.916 130.2ZM284.292 138.24C283.449 138.24 282.718 138.053 282.1 137.68C281.481 137.307 281.001 136.781 280.66 136.104C280.324 135.427 280.156 134.632 280.156 133.72C280.156 132.776 280.324 131.96 280.66 131.272C280.996 130.584 281.468 130.053 282.076 129.68C282.689 129.307 283.412 129.12 284.244 129.12C285.524 129.12 286.516 129.555 287.22 130.424C287.929 131.288 288.262 132.483 288.22 134.008H281.412C281.46 135 281.729 135.765 282.22 136.304C282.71 136.843 283.385 137.112 284.244 137.112C285.502 137.112 286.406 136.557 286.956 135.448L288.052 135.872C287.71 136.624 287.206 137.208 286.54 137.624C285.878 138.035 285.129 138.24 284.292 138.24ZM284.276 130.2C283.444 130.2 282.785 130.445 282.3 130.936C281.814 131.421 281.526 132.117 281.436 133.024H286.988C286.801 131.141 285.897 130.2 284.276 130.2ZM289.987 138L289.995 126.48H291.123V133.12L295.099 129.36H296.563L292.747 133.024L296.771 138H295.371L291.955 133.792L291.123 134.584V138H289.987Z" fill="#EA7B4B"/>
</svg>
