<svg width="767" height="129" viewBox="0 0 767 129" fill="none" xmlns="http://www.w3.org/2000/svg">
<rect x="171.5" y="43.5" width="91" height="42" rx="21" fill="#F7F5F5"/>
<rect x="171.5" y="43.5" width="91" height="42" rx="21" stroke="#242424"/>
<path d="M180.6 72V57.6H182.07V72H180.6ZM189.258 72.3C188.251 72.3 187.388 72.05 186.668 71.55C185.955 71.0433 185.408 70.36 185.028 69.5C184.655 68.64 184.468 67.67 184.468 66.59C184.468 65.5167 184.655 64.55 185.028 63.69C185.408 62.83 185.951 62.15 186.658 61.65C187.365 61.15 188.211 60.9 189.198 60.9C189.951 60.9 190.615 61.04 191.188 61.32C191.761 61.6 192.245 61.9867 192.638 62.48V57.6H194.118V72H192.798V70.5C192.405 71.06 191.911 71.5 191.318 71.82C190.731 72.14 190.045 72.3 189.258 72.3ZM189.408 70.93C190.175 70.93 190.808 70.7433 191.308 70.37C191.808 69.99 192.181 69.4733 192.428 68.82C192.675 68.1667 192.798 67.4233 192.798 66.59C192.798 65.3233 192.518 64.2867 191.958 63.48C191.405 62.6733 190.565 62.27 189.438 62.27C188.665 62.27 188.025 62.46 187.518 62.84C187.018 63.22 186.645 63.7367 186.398 64.39C186.151 65.0433 186.028 65.7767 186.028 66.59C186.028 67.41 186.151 68.1467 186.398 68.8C186.651 69.4533 187.028 69.9733 187.528 70.36C188.028 70.74 188.655 70.93 189.408 70.93ZM201.493 72.3C200.44 72.3 199.527 72.0667 198.753 71.6C197.98 71.1333 197.38 70.4767 196.953 69.63C196.533 68.7833 196.323 67.79 196.323 66.65C196.323 65.47 196.533 64.45 196.953 63.59C197.373 62.73 197.963 62.0667 198.723 61.6C199.49 61.1333 200.393 60.9 201.433 60.9C203.033 60.9 204.273 61.4433 205.153 62.53C206.04 63.61 206.457 65.1033 206.403 67.01H197.893C197.953 68.25 198.29 69.2067 198.903 69.88C199.517 70.5533 200.36 70.89 201.433 70.89C203.007 70.89 204.137 70.1967 204.823 68.81L206.193 69.34C205.767 70.28 205.137 71.01 204.303 71.53C203.477 72.0433 202.54 72.3 201.493 72.3ZM201.473 62.25C200.433 62.25 199.61 62.5567 199.003 63.17C198.397 63.7767 198.037 64.6467 197.923 65.78H204.863C204.63 63.4267 203.5 62.25 201.473 62.25ZM211.517 72.3C210.704 72.3 210.021 72.1533 209.467 71.86C208.921 71.5667 208.511 71.1767 208.237 70.69C207.964 70.2033 207.827 69.6733 207.827 69.1C207.827 68.2133 208.084 67.5233 208.597 67.03C209.111 66.53 209.771 66.1733 210.577 65.96C211.064 65.84 211.597 65.7333 212.177 65.64C212.757 65.5467 213.334 65.4633 213.907 65.39C214.487 65.3167 215.017 65.25 215.497 65.19C215.484 64.21 215.257 63.4833 214.817 63.01C214.377 62.53 213.644 62.29 212.617 62.29C211.877 62.29 211.251 62.4567 210.737 62.79C210.231 63.1233 209.874 63.65 209.667 64.37L208.237 63.95C208.484 62.9833 208.981 62.2333 209.727 61.7C210.474 61.1667 211.444 60.9 212.637 60.9C213.624 60.9 214.461 61.0867 215.147 61.46C215.841 61.8267 216.331 62.36 216.617 63.06C216.751 63.3733 216.837 63.7233 216.877 64.11C216.917 64.4967 216.937 64.89 216.937 65.29V72H215.627V70.22C214.774 71.6067 213.404 72.3 211.517 72.3ZM211.687 71.03C212.721 71.03 213.551 70.76 214.177 70.22C214.811 69.68 215.197 69.0033 215.337 68.19C215.397 67.9233 215.434 67.6333 215.447 67.32C215.467 67 215.477 66.7167 215.477 66.47C214.771 66.5567 214.024 66.65 213.237 66.75C212.451 66.85 211.761 66.98 211.167 67.14C210.707 67.2733 210.281 67.4867 209.887 67.78C209.494 68.0733 209.297 68.5133 209.297 69.1C209.297 69.4133 209.374 69.7167 209.527 70.01C209.687 70.3033 209.941 70.5467 210.287 70.74C210.641 70.9333 211.107 71.03 211.687 71.03ZM225.421 72C224.814 72.1267 224.214 72.1767 223.621 72.15C223.034 72.1233 222.507 71.9967 222.041 71.77C221.581 71.5433 221.231 71.19 220.991 70.71C220.797 70.3167 220.691 69.9133 220.671 69.5C220.657 69.0867 220.651 68.6167 220.651 68.09V62.46H218.341V61.2H220.651V58.2H222.111V61.2H225.421V62.46H222.111V68.03C222.111 68.4833 222.114 68.8633 222.121 69.17C222.134 69.47 222.204 69.7367 222.331 69.97C222.571 70.4167 222.951 70.6833 223.471 70.77C223.997 70.8567 224.647 70.8367 225.421 70.71V72ZM227.748 72V61.2H229.218V72H227.748ZM228.478 59.34C228.192 59.34 227.948 59.2433 227.748 59.05C227.555 58.85 227.458 58.61 227.458 58.33C227.458 58.0433 227.555 57.8033 227.748 57.61C227.948 57.41 228.192 57.31 228.478 57.31C228.772 57.31 229.015 57.41 229.208 57.61C229.408 57.8033 229.508 58.0433 229.508 58.33C229.508 58.61 229.408 58.85 229.208 59.05C229.015 59.2433 228.772 59.34 228.478 59.34ZM236.726 72.3C235.653 72.3 234.736 72.0567 233.976 71.57C233.216 71.0833 232.633 70.41 232.226 69.55C231.82 68.69 231.616 67.7033 231.616 66.59C231.616 65.4567 231.823 64.4633 232.236 63.61C232.65 62.7567 233.236 62.0933 233.996 61.62C234.763 61.14 235.673 60.9 236.726 60.9C237.806 60.9 238.726 61.1433 239.486 61.63C240.253 62.11 240.836 62.78 241.236 63.64C241.643 64.4933 241.846 65.4767 241.846 66.59C241.846 67.7233 241.643 68.72 241.236 69.58C240.83 70.4333 240.243 71.1 239.476 71.58C238.71 72.06 237.793 72.3 236.726 72.3ZM236.726 70.89C237.926 70.89 238.82 70.4933 239.406 69.7C239.993 68.9 240.286 67.8633 240.286 66.59C240.286 65.29 239.99 64.2533 239.396 63.48C238.803 62.7 237.913 62.31 236.726 62.31C235.52 62.31 234.626 62.71 234.046 63.51C233.466 64.3033 233.176 65.33 233.176 66.59C233.176 67.89 233.476 68.9333 234.076 69.72C234.676 70.5 235.56 70.89 236.726 70.89ZM244.042 72V61.2H245.372V62.7C245.772 62.12 246.282 61.68 246.902 61.38C247.529 61.08 248.229 60.93 249.002 60.93C249.816 60.93 250.499 61.0833 251.052 61.39C251.606 61.69 252.049 62.09 252.382 62.59C252.716 63.0833 252.956 63.6333 253.102 64.24C253.256 64.8467 253.332 65.4533 253.332 66.06V72H251.852V66.49C251.852 65.6967 251.749 64.9867 251.542 64.36C251.336 63.7333 251.002 63.24 250.542 62.88C250.082 62.5133 249.476 62.33 248.722 62.33C247.682 62.33 246.889 62.6767 246.342 63.37C245.796 64.0633 245.522 65.02 245.522 66.24V72H244.042Z" fill="#242424"/>
<rect x="330.5" y="43.5" width="56" height="42" rx="21" fill="#E0DCE5"/>
<rect x="330.5" y="43.5" width="56" height="42" rx="21" stroke="#242424"/>
<path d="M343.23 72V59.01H338.2V57.6H349.73V59.01H344.7V72H343.23ZM354.302 72.3C353.249 72.3 352.335 72.0667 351.562 71.6C350.789 71.1333 350.189 70.4767 349.762 69.63C349.342 68.7833 349.132 67.79 349.132 66.65C349.132 65.47 349.342 64.45 349.762 63.59C350.182 62.73 350.772 62.0667 351.532 61.6C352.299 61.1333 353.202 60.9 354.242 60.9C355.842 60.9 357.082 61.4433 357.962 62.53C358.849 63.61 359.265 65.1033 359.212 67.01H350.702C350.762 68.25 351.099 69.2067 351.712 69.88C352.325 70.5533 353.169 70.89 354.242 70.89C355.815 70.89 356.945 70.1967 357.632 68.81L359.002 69.34C358.575 70.28 357.945 71.01 357.112 71.53C356.285 72.0433 355.349 72.3 354.302 72.3ZM354.282 62.25C353.242 62.25 352.419 62.5567 351.812 63.17C351.205 63.7767 350.845 64.6467 350.732 65.78H357.672C357.439 63.4267 356.309 62.25 354.282 62.25ZM365.461 72.29C364.195 72.29 363.151 72.0167 362.331 71.47C361.518 70.9233 361.018 70.1633 360.831 69.19L362.331 68.94C362.491 69.56 362.855 70.05 363.421 70.41C363.995 70.77 364.701 70.95 365.541 70.95C366.361 70.95 367.008 70.78 367.481 70.44C367.955 70.0933 368.191 69.6233 368.191 69.03C368.191 68.6967 368.115 68.4267 367.961 68.22C367.808 68.0067 367.501 67.81 367.041 67.63C366.588 67.45 365.905 67.2367 364.991 66.99C364.011 66.7233 363.241 66.4567 362.681 66.19C362.128 65.9233 361.735 65.6167 361.501 65.27C361.275 64.9167 361.161 64.4867 361.161 63.98C361.161 63.06 361.538 62.3167 362.291 61.75C363.051 61.1833 364.041 60.9 365.261 60.9C366.075 60.9 366.801 61.0333 367.441 61.3C368.088 61.56 368.608 61.9267 369.001 62.4C369.395 62.8733 369.628 63.4233 369.701 64.05L368.201 64.32C368.095 63.6867 367.778 63.1867 367.251 62.82C366.725 62.4467 366.055 62.2533 365.241 62.24C364.475 62.22 363.851 62.3667 363.371 62.68C362.891 62.9867 362.651 63.3967 362.651 63.91C362.651 64.1967 362.738 64.4433 362.911 64.65C363.085 64.85 363.398 65.04 363.851 65.22C364.311 65.4 364.965 65.5967 365.811 65.81C366.805 66.0633 367.585 66.33 368.151 66.61C368.718 66.89 369.121 67.22 369.361 67.6C369.601 67.98 369.721 68.45 369.721 69.01C369.721 70.03 369.341 70.8333 368.581 71.42C367.828 72 366.788 72.29 365.461 72.29ZM377.819 72C377.212 72.1267 376.612 72.1767 376.019 72.15C375.432 72.1233 374.906 71.9967 374.439 71.77C373.979 71.5433 373.629 71.19 373.389 70.71C373.196 70.3167 373.089 69.9133 373.069 69.5C373.056 69.0867 373.049 68.6167 373.049 68.09V62.46H370.739V61.2H373.049V58.2H374.509V61.2H377.819V62.46H374.509V68.03C374.509 68.4833 374.512 68.8633 374.519 69.17C374.532 69.47 374.602 69.7367 374.729 69.97C374.969 70.4167 375.349 70.6833 375.869 70.77C376.396 70.8567 377.046 70.8367 377.819 70.71V72Z" fill="#242424"/>
<rect x="436.5" y="43.5" width="108" height="42" rx="21" fill="#E0DCE5"/>
<rect x="436.5" y="43.5" width="108" height="42" rx="21" stroke="#242424"/>
<path d="M445.4 72V57.6H450.96C451.1 57.6 451.257 57.6067 451.43 57.62C451.61 57.6267 451.79 57.6467 451.97 57.68C453.097 57.8533 453.963 58.3467 454.57 59.16C455.177 59.9733 455.48 60.9433 455.48 62.07C455.48 63.19 455.173 64.1567 454.56 64.97C453.953 65.7833 453.09 66.2767 451.97 66.45C451.79 66.4833 451.61 66.5067 451.43 66.52C451.257 66.5267 451.1 66.53 450.96 66.53H446.87V72H445.4ZM446.87 65.13H450.92C451.04 65.13 451.18 65.1233 451.34 65.11C451.5 65.0967 451.657 65.0733 451.81 65.04C452.55 64.88 453.093 64.5133 453.44 63.94C453.793 63.36 453.97 62.7367 453.97 62.07C453.97 61.3967 453.793 60.7733 453.44 60.2C453.093 59.62 452.55 59.25 451.81 59.09C451.657 59.0567 451.5 59.0367 451.34 59.03C451.18 59.0167 451.04 59.01 450.92 59.01H446.87V65.13ZM457.47 72V61.2H458.79V62.91C459.03 62.49 459.31 62.1567 459.63 61.91C460.057 61.5433 460.57 61.3033 461.17 61.19C461.77 61.0767 462.307 61.08 462.78 61.2V62.58C462.38 62.48 461.947 62.4567 461.48 62.51C461.02 62.5633 460.594 62.75 460.2 63.07C459.66 63.4967 459.314 64.0333 459.16 64.68C459.014 65.32 458.94 65.9633 458.94 66.61V72H457.47ZM468.992 72.3C467.919 72.3 467.002 72.0567 466.242 71.57C465.482 71.0833 464.899 70.41 464.492 69.55C464.085 68.69 463.882 67.7033 463.882 66.59C463.882 65.4567 464.089 64.4633 464.502 63.61C464.915 62.7567 465.502 62.0933 466.262 61.62C467.029 61.14 467.939 60.9 468.992 60.9C470.072 60.9 470.992 61.1433 471.752 61.63C472.519 62.11 473.102 62.78 473.502 63.64C473.909 64.4933 474.112 65.4767 474.112 66.59C474.112 67.7233 473.909 68.72 473.502 69.58C473.095 70.4333 472.509 71.1 471.742 71.58C470.975 72.06 470.059 72.3 468.992 72.3ZM468.992 70.89C470.192 70.89 471.085 70.4933 471.672 69.7C472.259 68.9 472.552 67.8633 472.552 66.59C472.552 65.29 472.255 64.2533 471.662 63.48C471.069 62.7 470.179 62.31 468.992 62.31C467.785 62.31 466.892 62.71 466.312 63.51C465.732 64.3033 465.442 65.33 465.442 66.59C465.442 67.89 465.742 68.9333 466.342 69.72C466.942 70.5 467.825 70.89 468.992 70.89ZM482.198 72C481.591 72.1267 480.991 72.1767 480.398 72.15C479.811 72.1233 479.285 71.9967 478.818 71.77C478.358 71.5433 478.008 71.19 477.768 70.71C477.575 70.3167 477.468 69.9133 477.448 69.5C477.435 69.0867 477.428 68.6167 477.428 68.09V62.46H475.118V61.2H477.428V58.2H478.888V61.2H482.198V62.46H478.888V68.03C478.888 68.4833 478.891 68.8633 478.898 69.17C478.911 69.47 478.981 69.7367 479.108 69.97C479.348 70.4167 479.728 70.6833 480.248 70.77C480.775 70.8567 481.425 70.8367 482.198 70.71V72ZM488.445 72.3C487.372 72.3 486.455 72.0567 485.695 71.57C484.935 71.0833 484.352 70.41 483.945 69.55C483.538 68.69 483.335 67.7033 483.335 66.59C483.335 65.4567 483.542 64.4633 483.955 63.61C484.368 62.7567 484.955 62.0933 485.715 61.62C486.482 61.14 487.392 60.9 488.445 60.9C489.525 60.9 490.445 61.1433 491.205 61.63C491.972 62.11 492.555 62.78 492.955 63.64C493.362 64.4933 493.565 65.4767 493.565 66.59C493.565 67.7233 493.362 68.72 492.955 69.58C492.548 70.4333 491.962 71.1 491.195 71.58C490.428 72.06 489.512 72.3 488.445 72.3ZM488.445 70.89C489.645 70.89 490.538 70.4933 491.125 69.7C491.712 68.9 492.005 67.8633 492.005 66.59C492.005 65.29 491.708 64.2533 491.115 63.48C490.522 62.7 489.632 62.31 488.445 62.31C487.238 62.31 486.345 62.71 485.765 63.51C485.185 64.3033 484.895 65.33 484.895 66.59C484.895 67.89 485.195 68.9333 485.795 69.72C486.395 70.5 487.278 70.89 488.445 70.89ZM501.651 72C501.044 72.1267 500.444 72.1767 499.851 72.15C499.264 72.1233 498.738 71.9967 498.271 71.77C497.811 71.5433 497.461 71.19 497.221 70.71C497.028 70.3167 496.921 69.9133 496.901 69.5C496.888 69.0867 496.881 68.6167 496.881 68.09V62.46H494.571V61.2H496.881V58.2H498.341V61.2H501.651V62.46H498.341V68.03C498.341 68.4833 498.344 68.8633 498.351 69.17C498.364 69.47 498.434 69.7367 498.561 69.97C498.801 70.4167 499.181 70.6833 499.701 70.77C500.228 70.8567 500.878 70.8367 501.651 70.71V72ZM505.026 76.8L506.806 71.98L502.416 61.2H503.976L507.516 70.08L510.796 61.2H512.296L506.496 76.8H505.026ZM514.023 76.8V61.2H515.343V62.68C515.736 62.1267 516.233 61.6933 516.833 61.38C517.439 61.06 518.143 60.9 518.943 60.9C519.929 60.9 520.776 61.15 521.483 61.65C522.189 62.15 522.729 62.83 523.103 63.69C523.483 64.55 523.673 65.5167 523.673 66.59C523.673 67.67 523.483 68.64 523.103 69.5C522.729 70.36 522.183 71.0433 521.463 71.55C520.749 72.05 519.889 72.3 518.883 72.3C518.149 72.3 517.499 72.16 516.933 71.88C516.366 71.5933 515.889 71.2033 515.503 70.71V76.8H514.023ZM518.733 70.93C519.486 70.93 520.113 70.74 520.613 70.36C521.113 69.9733 521.486 69.4533 521.733 68.8C521.986 68.1467 522.113 67.41 522.113 66.59C522.113 65.7767 521.989 65.0433 521.743 64.39C521.496 63.7367 521.119 63.22 520.613 62.84C520.113 62.46 519.476 62.27 518.703 62.27C517.576 62.27 516.733 62.6733 516.173 63.48C515.619 64.2867 515.343 65.3233 515.343 66.59C515.343 67.4233 515.466 68.1667 515.713 68.82C515.959 69.4733 516.333 69.99 516.833 70.37C517.333 70.7433 517.966 70.93 518.733 70.93ZM530.439 72.3C529.385 72.3 528.472 72.0667 527.699 71.6C526.925 71.1333 526.325 70.4767 525.899 69.63C525.479 68.7833 525.269 67.79 525.269 66.65C525.269 65.47 525.479 64.45 525.899 63.59C526.319 62.73 526.909 62.0667 527.669 61.6C528.435 61.1333 529.339 60.9 530.379 60.9C531.979 60.9 533.219 61.4433 534.099 62.53C534.985 63.61 535.402 65.1033 535.349 67.01H526.839C526.899 68.25 527.235 69.2067 527.849 69.88C528.462 70.5533 529.305 70.89 530.379 70.89C531.952 70.89 533.082 70.1967 533.769 68.81L535.139 69.34C534.712 70.28 534.082 71.01 533.249 71.53C532.422 72.0433 531.485 72.3 530.439 72.3ZM530.419 62.25C529.379 62.25 528.555 62.5567 527.949 63.17C527.342 63.7767 526.982 64.6467 526.869 65.78H533.809C533.575 63.4267 532.445 62.25 530.419 62.25Z" fill="#242424"/>
<rect x="652" y="43" width="113" height="43" rx="21.5" fill="#3C3D48"/>
<path d="M669.4 72V57.6H674.06C674.173 57.6 674.407 57.6033 674.76 57.61C675.113 57.6167 675.453 57.64 675.78 57.68C676.94 57.82 677.923 58.2233 678.73 58.89C679.537 59.5567 680.15 60.4033 680.57 61.43C680.99 62.4567 681.2 63.58 681.2 64.8C681.2 66.02 680.99 67.1433 680.57 68.17C680.15 69.1967 679.537 70.0433 678.73 70.71C677.923 71.3767 676.94 71.78 675.78 71.92C675.453 71.96 675.113 71.9833 674.76 71.99C674.407 71.9967 674.173 72 674.06 72H669.4ZM672.16 69.44H674.06C674.24 69.44 674.483 69.4367 674.79 69.43C675.097 69.4167 675.373 69.3867 675.62 69.34C676.247 69.2133 676.757 68.92 677.15 68.46C677.55 68 677.843 67.4467 678.03 66.8C678.223 66.1533 678.32 65.4867 678.32 64.8C678.32 64.08 678.22 63.3967 678.02 62.75C677.827 62.1033 677.53 61.5567 677.13 61.11C676.73 60.6633 676.227 60.38 675.62 60.26C675.373 60.2067 675.097 60.1767 674.79 60.17C674.483 60.1633 674.24 60.16 674.06 60.16H672.16V69.44ZM688.619 72.3C687.513 72.3 686.536 72.0633 685.689 71.59C684.849 71.11 684.189 70.4533 683.709 69.62C683.236 68.78 682.999 67.82 682.999 66.74C682.999 65.56 683.233 64.5333 683.699 63.66C684.166 62.7867 684.809 62.11 685.629 61.63C686.449 61.1433 687.393 60.9 688.459 60.9C689.593 60.9 690.556 61.1667 691.349 61.7C692.143 62.2333 692.729 62.9833 693.109 63.95C693.489 64.9167 693.623 66.0533 693.509 67.36H685.929C686.029 68.1333 686.289 68.7267 686.709 69.14C687.136 69.5533 687.719 69.76 688.459 69.76C689.539 69.76 690.286 69.3067 690.699 68.4L693.419 69.18C693.013 70.1667 692.369 70.9333 691.489 71.48C690.616 72.0267 689.659 72.3 688.619 72.3ZM688.579 63.26C687.146 63.26 686.286 63.9533 685.999 65.34H690.759C690.659 64.6067 690.433 64.0767 690.079 63.75C689.733 63.4233 689.233 63.26 688.579 63.26ZM695.967 72V57.3H698.687V72H695.967ZM701.885 72V61.2H704.605V72H701.885ZM703.245 60.09C702.792 60.09 702.412 59.9367 702.105 59.63C701.805 59.3233 701.655 58.95 701.655 58.51C701.655 58.0633 701.805 57.69 702.105 57.39C702.412 57.0833 702.792 56.93 703.245 56.93C703.705 56.93 704.085 57.0833 704.385 57.39C704.685 57.69 704.835 58.0633 704.835 58.51C704.835 58.95 704.685 59.3233 704.385 59.63C704.085 59.9367 703.705 60.09 703.245 60.09ZM710.523 72L706.603 61.2H709.323L711.883 68.68L714.443 61.2H717.163L713.243 72H710.523ZM723.6 72.3C722.493 72.3 721.516 72.0633 720.67 71.59C719.83 71.11 719.17 70.4533 718.69 69.62C718.216 68.78 717.98 67.82 717.98 66.74C717.98 65.56 718.213 64.5333 718.68 63.66C719.146 62.7867 719.79 62.11 720.61 61.63C721.43 61.1433 722.373 60.9 723.44 60.9C724.573 60.9 725.536 61.1667 726.33 61.7C727.123 62.2333 727.71 62.9833 728.09 63.95C728.47 64.9167 728.603 66.0533 728.49 67.36H720.91C721.01 68.1333 721.27 68.7267 721.69 69.14C722.116 69.5533 722.7 69.76 723.44 69.76C724.52 69.76 725.266 69.3067 725.68 68.4L728.4 69.18C727.993 70.1667 727.35 70.9333 726.47 71.48C725.596 72.0267 724.64 72.3 723.6 72.3ZM723.56 63.26C722.126 63.26 721.266 63.9533 720.98 65.34H725.74C725.64 64.6067 725.413 64.0767 725.06 63.75C724.713 63.4233 724.213 63.26 723.56 63.26ZM730.748 72V61.2H733.148V62.94C733.288 62.6867 733.451 62.4567 733.638 62.25C733.831 62.0433 734.054 61.8667 734.308 61.72C734.701 61.48 735.141 61.32 735.628 61.24C736.114 61.1533 736.601 61.14 737.088 61.2V63.74C736.788 63.6467 736.438 63.6167 736.038 63.65C735.644 63.6767 735.288 63.7667 734.968 63.92C733.981 64.3733 733.488 65.2267 733.488 66.48V72H730.748ZM739.979 76.8L741.759 71.91L737.399 61.2H740.219L743.059 68.55L745.879 61.2H748.599L742.499 76.8H739.979Z" fill="#F7F5F5"/>
<rect x="0.5" y="43.5" width="103" height="42" rx="21" fill="#F7F5F5"/>
<rect x="0.5" y="43.5" width="103" height="42" rx="21" stroke="#242424"/>
<path d="M9.4 72V57.6H14.96C15.1 57.6 15.2567 57.6067 15.43 57.62C15.61 57.6267 15.79 57.6467 15.97 57.68C17.0967 57.8533 17.9633 58.3233 18.57 59.09C19.1767 59.8567 19.48 60.76 19.48 61.8C19.48 62.6933 19.22 63.5167 18.7 64.27C18.1867 65.0233 17.4533 65.5333 16.5 65.8L19.71 72H18.01L14.92 66H10.87V72H9.4ZM10.87 64.59H14.92C15.04 64.59 15.18 64.5867 15.34 64.58C15.5067 64.5733 15.6633 64.55 15.81 64.51C16.55 64.3167 17.0933 63.9633 17.44 63.45C17.7933 62.9367 17.97 62.3867 17.97 61.8C17.97 61.2133 17.7933 60.6567 17.44 60.13C17.0933 59.5967 16.55 59.25 15.81 59.09C15.6567 59.0567 15.5 59.0367 15.34 59.03C15.18 59.0167 15.04 59.01 14.92 59.01H10.87V64.59ZM26.5872 72.3C25.5339 72.3 24.6205 72.0667 23.8472 71.6C23.0739 71.1333 22.4739 70.4767 22.0472 69.63C21.6272 68.7833 21.4172 67.79 21.4172 66.65C21.4172 65.47 21.6272 64.45 22.0472 63.59C22.4672 62.73 23.0572 62.0667 23.8172 61.6C24.5839 61.1333 25.4872 60.9 26.5272 60.9C28.1272 60.9 29.3672 61.4433 30.2472 62.53C31.1339 63.61 31.5505 65.1033 31.4972 67.01H22.9872C23.0472 68.25 23.3839 69.2067 23.9972 69.88C24.6105 70.5533 25.4539 70.89 26.5272 70.89C28.1005 70.89 29.2305 70.1967 29.9172 68.81L31.2872 69.34C30.8605 70.28 30.2305 71.01 29.3972 71.53C28.5705 72.0433 27.6339 72.3 26.5872 72.3ZM26.5672 62.25C25.5272 62.25 24.7039 62.5567 24.0972 63.17C23.4905 63.7767 23.1305 64.6467 23.0172 65.78H29.9572C29.7239 63.4267 28.5939 62.25 26.5672 62.25ZM37.7464 72.29C36.4797 72.29 35.4364 72.0167 34.6164 71.47C33.8031 70.9233 33.3031 70.1633 33.1164 69.19L34.6164 68.94C34.7764 69.56 35.1397 70.05 35.7064 70.41C36.2797 70.77 36.9864 70.95 37.8264 70.95C38.6464 70.95 39.2931 70.78 39.7664 70.44C40.2397 70.0933 40.4764 69.6233 40.4764 69.03C40.4764 68.6967 40.3997 68.4267 40.2464 68.22C40.0931 68.0067 39.7864 67.81 39.3264 67.63C38.8731 67.45 38.1897 67.2367 37.2764 66.99C36.2964 66.7233 35.5264 66.4567 34.9664 66.19C34.4131 65.9233 34.0197 65.6167 33.7864 65.27C33.5597 64.9167 33.4464 64.4867 33.4464 63.98C33.4464 63.06 33.8231 62.3167 34.5764 61.75C35.3364 61.1833 36.3264 60.9 37.5464 60.9C38.3597 60.9 39.0864 61.0333 39.7264 61.3C40.3731 61.56 40.8931 61.9267 41.2864 62.4C41.6797 62.8733 41.9131 63.4233 41.9864 64.05L40.4864 64.32C40.3797 63.6867 40.0631 63.1867 39.5364 62.82C39.0097 62.4467 38.3397 62.2533 37.5264 62.24C36.7597 62.22 36.1364 62.3667 35.6564 62.68C35.1764 62.9867 34.9364 63.3967 34.9364 63.91C34.9364 64.1967 35.0231 64.4433 35.1964 64.65C35.3697 64.85 35.6831 65.04 36.1364 65.22C36.5964 65.4 37.2497 65.5967 38.0964 65.81C39.0897 66.0633 39.8697 66.33 40.4364 66.61C41.0031 66.89 41.4064 67.22 41.6464 67.6C41.8864 67.98 42.0064 68.45 42.0064 69.01C42.0064 70.03 41.6264 70.8333 40.8664 71.42C40.1131 72 39.0731 72.29 37.7464 72.29ZM48.7942 72.3C47.7409 72.3 46.8276 72.0667 46.0542 71.6C45.2809 71.1333 44.6809 70.4767 44.2542 69.63C43.8342 68.7833 43.6242 67.79 43.6242 66.65C43.6242 65.47 43.8342 64.45 44.2542 63.59C44.6742 62.73 45.2642 62.0667 46.0242 61.6C46.7909 61.1333 47.6942 60.9 48.7342 60.9C50.3342 60.9 51.5742 61.4433 52.4542 62.53C53.3409 63.61 53.7576 65.1033 53.7042 67.01H45.1942C45.2542 68.25 45.5909 69.2067 46.2042 69.88C46.8176 70.5533 47.6609 70.89 48.7342 70.89C50.3076 70.89 51.4376 70.1967 52.1242 68.81L53.4942 69.34C53.0676 70.28 52.4376 71.01 51.6042 71.53C50.7776 72.0433 49.8409 72.3 48.7942 72.3ZM48.7742 62.25C47.7342 62.25 46.9109 62.5567 46.3042 63.17C45.6976 63.7767 45.3376 64.6467 45.2242 65.78H52.1642C51.9309 63.4267 50.8009 62.25 48.7742 62.25ZM58.8181 72.3C58.0048 72.3 57.3215 72.1533 56.7681 71.86C56.2215 71.5667 55.8115 71.1767 55.5381 70.69C55.2648 70.2033 55.1281 69.6733 55.1281 69.1C55.1281 68.2133 55.3848 67.5233 55.8981 67.03C56.4115 66.53 57.0715 66.1733 57.8781 65.96C58.3648 65.84 58.8981 65.7333 59.4781 65.64C60.0581 65.5467 60.6348 65.4633 61.2081 65.39C61.7881 65.3167 62.3181 65.25 62.7981 65.19C62.7848 64.21 62.5581 63.4833 62.1181 63.01C61.6781 62.53 60.9448 62.29 59.9181 62.29C59.1781 62.29 58.5515 62.4567 58.0381 62.79C57.5315 63.1233 57.1748 63.65 56.9681 64.37L55.5381 63.95C55.7848 62.9833 56.2815 62.2333 57.0281 61.7C57.7748 61.1667 58.7448 60.9 59.9381 60.9C60.9248 60.9 61.7615 61.0867 62.4481 61.46C63.1415 61.8267 63.6315 62.36 63.9181 63.06C64.0515 63.3733 64.1381 63.7233 64.1781 64.11C64.2181 64.4967 64.2381 64.89 64.2381 65.29V72H62.9281V70.22C62.0748 71.6067 60.7048 72.3 58.8181 72.3ZM58.9881 71.03C60.0215 71.03 60.8515 70.76 61.4781 70.22C62.1115 69.68 62.4981 69.0033 62.6381 68.19C62.6981 67.9233 62.7348 67.6333 62.7481 67.32C62.7681 67 62.7781 66.7167 62.7781 66.47C62.0715 66.5567 61.3248 66.65 60.5381 66.75C59.7515 66.85 59.0615 66.98 58.4681 67.14C58.0081 67.2733 57.5815 67.4867 57.1881 67.78C56.7948 68.0733 56.5981 68.5133 56.5981 69.1C56.5981 69.4133 56.6748 69.7167 56.8281 70.01C56.9881 70.3033 57.2415 70.5467 57.5881 70.74C57.9415 70.9333 58.4081 71.03 58.9881 71.03ZM66.8414 72V61.2H68.1614V62.91C68.4014 62.49 68.6814 62.1567 69.0014 61.91C69.4281 61.5433 69.9414 61.3033 70.5414 61.19C71.1414 61.0767 71.6781 61.08 72.1514 61.2V62.58C71.7514 62.48 71.3181 62.4567 70.8514 62.51C70.3914 62.5633 69.9647 62.75 69.5714 63.07C69.0314 63.4967 68.6847 64.0333 68.5314 64.68C68.3847 65.32 68.3114 65.9633 68.3114 66.61V72H66.8414ZM78.3331 72.3C77.2465 72.3 76.3265 72.0567 75.5731 71.57C74.8265 71.0833 74.2565 70.4133 73.8631 69.56C73.4698 68.7 73.2665 67.7133 73.2531 66.6C73.2665 65.4667 73.4731 64.4733 73.8731 63.62C74.2731 62.76 74.8498 62.0933 75.6031 61.62C76.3565 61.14 77.2698 60.9 78.3431 60.9C79.4365 60.9 80.3865 61.1667 81.1931 61.7C82.0065 62.2333 82.5631 62.9633 82.8631 63.89L81.4231 64.35C81.1698 63.7033 80.7665 63.2033 80.2131 62.85C79.6665 62.49 79.0398 62.31 78.3331 62.31C77.1398 62.31 76.2565 62.71 75.6831 63.51C75.1165 64.31 74.8265 65.34 74.8131 66.6C74.8265 67.8933 75.1265 68.9333 75.7131 69.72C76.2998 70.5 77.1731 70.89 78.3331 70.89C79.8131 70.89 80.8298 70.23 81.3831 68.91L82.8631 69.35C82.4565 70.31 81.8665 71.0433 81.0931 71.55C80.3265 72.05 79.4065 72.3 78.3331 72.3ZM84.9173 72V57.6H86.2473V62.7C86.6473 62.12 87.1573 61.68 87.7773 61.38C88.404 61.08 89.104 60.93 89.8773 60.93C90.6907 60.93 91.374 61.0833 91.9273 61.39C92.4807 61.69 92.924 62.09 93.2573 62.59C93.5907 63.0833 93.8307 63.6333 93.9773 64.24C94.1307 64.8467 94.2073 65.4533 94.2073 66.06V72H92.7273V66.49C92.7273 65.6967 92.624 64.9867 92.4173 64.36C92.2107 63.7333 91.8773 63.24 91.4173 62.88C90.9573 62.5133 90.3507 62.33 89.5973 62.33C88.5573 62.33 87.764 62.6767 87.2173 63.37C86.6707 64.0633 86.3973 65.02 86.3973 66.24V72H84.9173Z" fill="#242424"/>
<path d="M101.333 65C101.333 66.4728 102.527 67.6667 104 67.6667C105.473 67.6667 106.667 66.4728 106.667 65C106.667 63.5272 105.473 62.3333 104 62.3333C102.527 62.3333 101.333 63.5272 101.333 65ZM164 65L159 62.1132V67.8868L164 65ZM104 65.5H105.875V64.5H104V65.5ZM109.625 65.5H113.375V64.5H109.625V65.5ZM117.125 65.5H120.875V64.5H117.125V65.5ZM124.625 65.5H128.375V64.5H124.625V65.5ZM132.125 65.5H135.875V64.5H132.125V65.5ZM139.625 65.5H143.375V64.5H139.625V65.5ZM147.125 65.5H150.875V64.5H147.125V65.5ZM154.625 65.5H158.375V64.5H154.625V65.5Z" fill="#565866"/>
<path d="M260.333 65C260.333 66.4728 261.527 67.6667 263 67.6667C264.473 67.6667 265.667 66.4728 265.667 65C265.667 63.5272 264.473 62.3333 263 62.3333C261.527 62.3333 260.333 63.5272 260.333 65ZM323 65L318 62.1132V67.8868L323 65ZM263 65.5H264.875V64.5H263V65.5ZM268.625 65.5H272.375V64.5H268.625V65.5ZM276.125 65.5H279.875V64.5H276.125V65.5ZM283.625 65.5H287.375V64.5H283.625V65.5ZM291.125 65.5H294.875V64.5H291.125V65.5ZM298.625 65.5H302.375V64.5H298.625V65.5ZM306.125 65.5H309.875V64.5H306.125V65.5ZM313.625 65.5H317.375V64.5H313.625V65.5Z" fill="#565866"/>
<path d="M542.333 65C542.333 66.4728 543.527 67.6667 545 67.6667C546.473 67.6667 547.667 66.4728 547.667 65C547.667 63.5272 546.473 62.3333 545 62.3333C543.527 62.3333 542.333 63.5272 542.333 65ZM645 65L640 62.1132V67.8868L645 65ZM545 65.5H546.923V64.5H545V65.5ZM550.769 65.5H554.615V64.5H550.769V65.5ZM558.462 65.5H562.308V64.5H558.462V65.5ZM566.154 65.5H570V64.5H566.154V65.5ZM573.846 65.5H577.692V64.5H573.846V65.5ZM581.538 65.5H585.385V64.5H581.538V65.5ZM589.231 65.5H593.077V64.5H589.231V65.5ZM596.923 65.5H600.769V64.5H596.923V65.5ZM604.615 65.5H608.462V64.5H604.615V65.5ZM612.308 65.5H616.154V64.5H612.308V65.5ZM620 65.5H623.846V64.5H620V65.5ZM627.692 65.5H631.538V64.5H627.692V65.5ZM635.385 65.5H639.231V64.5H635.385V65.5Z" fill="#565866"/>
<path d="M356.333 43C356.333 44.4728 357.527 45.6667 359 45.6667C360.473 45.6667 361.667 44.4728 361.667 43C361.667 41.5272 360.473 40.3333 359 40.3333C357.527 40.3333 356.333 41.5272 356.333 43ZM488 37.6545L490.668 32.5344L484.9 32.7841L488 37.6545ZM359.5 43C359.5 42.3673 359.522 41.7379 359.565 41.1122L358.568 41.0432C358.523 41.6918 358.5 42.3442 358.5 43H359.5ZM360.084 37.3749C360.342 36.1458 360.682 34.9334 361.102 33.74L360.159 33.4078C359.725 34.6417 359.372 35.8967 359.105 37.17L360.084 37.3749ZM362.579 30.2593C363.135 29.1419 363.763 28.0445 364.459 26.9694L363.619 26.4259C362.904 27.5313 362.257 28.6613 361.683 29.8136L362.579 30.2593ZM366.679 23.8993C367.459 22.9267 368.297 21.9762 369.19 21.0496L368.47 20.3556C367.557 21.3032 366.699 22.2765 365.899 23.2737L366.679 23.8993ZM371.943 18.4222C372.88 17.5973 373.863 16.7955 374.89 16.0182L374.287 15.2208C373.241 16.0124 372.239 16.8299 371.282 17.6716L371.943 18.4222ZM378.01 13.8216C379.057 13.1352 380.141 12.4722 381.259 11.8339L380.764 10.9653C379.628 11.6135 378.526 12.2873 377.461 12.9853L378.01 13.8216ZM384.629 10.0389C385.754 9.4795 386.91 8.94374 388.093 8.43277L387.696 7.51473C386.497 8.03263 385.326 8.57588 384.184 9.14335L384.629 10.0389ZM391.634 7.00881C392.815 6.56776 394.02 6.15043 395.247 5.75783L394.943 4.80538C393.7 5.20276 392.48 5.6253 391.284 6.072L391.634 7.00881ZM398.914 4.67699C400.131 4.34777 401.368 4.04225 402.622 3.76132L402.404 2.7855C401.135 3.06958 399.884 3.3786 398.653 3.71165L398.914 4.67699ZM406.371 3.00518C407.615 2.78119 408.876 2.58101 410.15 2.40544L410.013 1.4148C408.726 1.59222 407.452 1.79455 406.194 2.02098L406.371 3.00518ZM413.95 1.95957C415.208 1.83728 416.479 1.73879 417.761 1.66482L417.703 0.666485C416.408 0.741198 415.125 0.840698 413.853 0.964257L413.95 1.95957ZM421.582 1.5183C422.219 1.50613 422.859 1.5 423.5 1.5V0.5C422.852 0.5 422.207 0.506189 421.563 0.51848L421.582 1.5183ZM423.5 1.5C424.17 1.5 424.842 1.50653 425.515 1.51956L425.535 0.519746C424.855 0.506596 424.177 0.5 423.5 0.5V1.5ZM429.548 1.67424C430.888 1.75092 432.231 1.85273 433.572 1.97939L433.666 0.983821C432.312 0.856009 430.958 0.753256 429.605 0.675877L429.548 1.67424ZM437.582 2.4327C438.918 2.60864 440.249 2.8091 441.573 3.03376L441.74 2.04786C440.404 1.82111 439.06 1.61881 437.712 1.44126L437.582 2.4327ZM445.538 3.7839C446.86 4.06036 448.171 4.36131 449.469 4.68641L449.712 3.7164C448.402 3.38805 447.077 3.08416 445.742 2.80506L445.538 3.7839ZM453.362 5.74759C454.66 6.1311 455.941 6.53968 457.199 6.97294L457.524 6.02742C456.252 5.5892 454.957 5.17612 453.645 4.78853L453.362 5.74759ZM460.98 8.37698C462.241 8.88069 463.474 9.41075 464.675 9.96671L465.095 9.05924C463.877 8.49548 462.628 7.9584 461.351 7.44835L460.98 8.37698ZM468.279 11.7663C469.479 12.4118 470.637 13.0857 471.751 13.7877L472.284 12.9418C471.15 12.227 469.972 11.5415 468.753 10.8857L468.279 11.7663ZM475.059 16.0578C476.151 16.8751 477.185 17.7239 478.155 18.6035L478.827 17.8627C477.832 16.9607 476.774 16.092 475.658 15.2571L475.059 16.0578ZM480.965 21.4438C481.861 22.46 482.675 23.5106 483.401 24.595L484.232 24.0387C483.48 22.9152 482.638 21.8296 481.715 20.7826L480.965 21.4438ZM485.357 28.052C485.918 29.256 486.375 30.4964 486.721 31.7724L487.686 31.5107C487.325 30.1776 486.847 28.8835 486.263 27.6296L485.357 28.052ZM356.333 43C356.333 44.4728 357.527 45.6667 359 45.6667C360.473 45.6667 361.667 44.4728 361.667 43C361.667 41.5272 360.473 40.3333 359 40.3333C357.527 40.3333 356.333 41.5272 356.333 43ZM488 37.6545L490.668 32.5344L484.9 32.7841L488 37.6545ZM359.5 43C359.5 42.3673 359.522 41.7379 359.565 41.1122L358.568 41.0432C358.523 41.6918 358.5 42.3442 358.5 43H359.5ZM360.084 37.3749C360.342 36.1458 360.682 34.9334 361.102 33.74L360.159 33.4078C359.725 34.6417 359.372 35.8967 359.105 37.17L360.084 37.3749ZM362.579 30.2593C363.135 29.1419 363.763 28.0445 364.459 26.9694L363.619 26.4259C362.904 27.5313 362.257 28.6613 361.683 29.8136L362.579 30.2593ZM366.679 23.8993C367.459 22.9267 368.297 21.9762 369.19 21.0496L368.47 20.3556C367.557 21.3032 366.699 22.2765 365.899 23.2737L366.679 23.8993ZM371.943 18.4222C372.88 17.5973 373.863 16.7955 374.89 16.0182L374.287 15.2208C373.241 16.0124 372.239 16.8299 371.282 17.6716L371.943 18.4222ZM378.01 13.8216C379.057 13.1352 380.141 12.4722 381.259 11.8339L380.764 10.9653C379.628 11.6135 378.526 12.2873 377.461 12.9853L378.01 13.8216ZM384.629 10.0389C385.754 9.4795 386.91 8.94374 388.093 8.43277L387.696 7.51473C386.497 8.03263 385.326 8.57588 384.184 9.14335L384.629 10.0389ZM391.634 7.00881C392.815 6.56776 394.02 6.15043 395.247 5.75783L394.943 4.80538C393.7 5.20276 392.48 5.6253 391.284 6.072L391.634 7.00881ZM398.914 4.67699C400.131 4.34777 401.368 4.04225 402.622 3.76132L402.404 2.7855C401.135 3.06958 399.884 3.3786 398.653 3.71165L398.914 4.67699ZM406.371 3.00518C407.615 2.78119 408.876 2.58101 410.15 2.40544L410.013 1.4148C408.726 1.59222 407.452 1.79455 406.194 2.02098L406.371 3.00518ZM413.95 1.95957C415.208 1.83728 416.479 1.73879 417.761 1.66482L417.703 0.666485C416.408 0.741198 415.125 0.840698 413.853 0.964257L413.95 1.95957ZM421.582 1.5183C422.219 1.50613 422.859 1.5 423.5 1.5V0.5C422.852 0.5 422.207 0.506189 421.563 0.51848L421.582 1.5183ZM423.5 1.5C424.17 1.5 424.842 1.50653 425.515 1.51956L425.535 0.519746C424.855 0.506596 424.177 0.5 423.5 0.5V1.5ZM429.548 1.67424C430.888 1.75092 432.231 1.85273 433.572 1.97939L433.666 0.983821C432.312 0.856009 430.958 0.753256 429.605 0.675877L429.548 1.67424ZM437.582 2.4327C438.918 2.60864 440.249 2.8091 441.573 3.03376L441.74 2.04786C440.404 1.82111 439.06 1.61881 437.712 1.44126L437.582 2.4327ZM445.538 3.7839C446.86 4.06036 448.171 4.36131 449.469 4.68641L449.712 3.7164C448.402 3.38805 447.077 3.08416 445.742 2.80506L445.538 3.7839ZM453.362 5.74759C454.66 6.1311 455.941 6.53968 457.199 6.97294L457.524 6.02742C456.252 5.5892 454.957 5.17612 453.645 4.78853L453.362 5.74759ZM460.98 8.37698C462.241 8.88069 463.474 9.41075 464.675 9.96671L465.095 9.05924C463.877 8.49548 462.628 7.9584 461.351 7.44835L460.98 8.37698ZM468.279 11.7663C469.479 12.4118 470.637 13.0857 471.751 13.7877L472.284 12.9418C471.15 12.227 469.972 11.5415 468.753 10.8857L468.279 11.7663ZM475.059 16.0578C476.151 16.8751 477.185 17.7239 478.155 18.6035L478.827 17.8627C477.832 16.9607 476.774 16.092 475.658 15.2571L475.059 16.0578ZM480.965 21.4438C481.861 22.46 482.675 23.5106 483.401 24.595L484.232 24.0387C483.48 22.9152 482.638 21.8296 481.715 20.7826L480.965 21.4438ZM485.357 28.052C485.918 29.256 486.375 30.4964 486.721 31.7724L487.686 31.5107C487.325 30.1776 486.847 28.8835 486.263 27.6296L485.357 28.052Z" fill="#565866"/>
<path d="M493.667 86C493.667 84.5273 492.473 83.3333 491 83.3333C489.527 83.3333 488.333 84.5273 488.333 86C488.333 87.4728 489.527 88.6667 491 88.6667C492.473 88.6667 493.667 87.4728 493.667 86ZM362 91.3455L359.332 96.4656L365.1 96.2159L362 91.3455ZM490.5 86C490.5 86.6327 490.478 87.2621 490.435 87.8878L491.432 87.9568C491.477 87.3082 491.5 86.6558 491.5 86L490.5 86ZM489.916 91.6251C489.658 92.8542 489.318 94.0667 488.898 95.26L489.841 95.5922C490.275 94.3583 490.628 93.1034 490.895 91.83L489.916 91.6251ZM487.421 98.7407C486.865 99.8582 486.237 100.956 485.541 102.031L486.381 102.574C487.096 101.469 487.743 100.339 488.317 99.1864L487.421 98.7407ZM483.321 105.101C482.541 106.073 481.703 107.024 480.81 107.95L481.53 108.644C482.443 107.697 483.301 106.723 484.101 105.726L483.321 105.101ZM478.057 110.578C477.12 111.403 476.137 112.205 475.11 112.982L475.713 113.779C476.759 112.988 477.761 112.17 478.718 111.328L478.057 110.578ZM471.99 115.178C470.943 115.865 469.859 116.528 468.741 117.166L469.236 118.035C470.372 117.386 471.474 116.713 472.539 116.015L471.99 115.178ZM465.371 118.961C464.246 119.52 463.09 120.056 461.907 120.567L462.304 121.485C463.503 120.967 464.674 120.424 465.816 119.857L465.371 118.961ZM458.366 121.991C457.185 122.432 455.98 122.85 454.753 123.242L455.057 124.195C456.3 123.797 457.52 123.375 458.716 122.928L458.366 121.991ZM451.086 124.323C449.869 124.652 448.632 124.958 447.378 125.239L447.596 126.215C448.865 125.93 450.116 125.621 451.347 125.288L451.086 124.323ZM443.629 125.995C442.385 126.219 441.124 126.419 439.85 126.595L439.987 127.585C441.274 127.408 442.548 127.205 443.806 126.979L443.629 125.995ZM436.05 127.04C434.792 127.163 433.521 127.261 432.239 127.335L432.297 128.334C433.592 128.259 434.875 128.159 436.147 128.036L436.05 127.04ZM428.418 127.482C427.781 127.494 427.141 127.5 426.5 127.5L426.5 128.5C427.148 128.5 427.793 128.494 428.437 128.482L428.418 127.482ZM426.5 127.5C425.83 127.5 425.158 127.493 424.485 127.48L424.465 128.48C425.145 128.493 425.823 128.5 426.5 128.5L426.5 127.5ZM420.452 127.326C419.112 127.249 417.769 127.147 416.428 127.021L416.334 128.016C417.688 128.144 419.042 128.247 420.395 128.324L420.452 127.326ZM412.418 126.567C411.082 126.391 409.751 126.191 408.427 125.966L408.26 126.952C409.596 127.179 410.94 127.381 412.288 127.559L412.418 126.567ZM404.462 125.216C403.14 124.94 401.829 124.639 400.531 124.314L400.288 125.284C401.598 125.612 402.923 125.916 404.258 126.195L404.462 125.216ZM396.638 123.252C395.34 122.869 394.059 122.46 392.801 122.027L392.476 122.973C393.748 123.411 395.043 123.824 396.355 124.211L396.638 123.252ZM389.02 120.623C387.759 120.119 386.526 119.589 385.325 119.033L384.905 119.941C386.123 120.505 387.372 121.042 388.649 121.552L389.02 120.623ZM381.721 117.234C380.521 116.588 379.363 115.914 378.249 115.212L377.716 116.058C378.85 116.773 380.028 117.459 381.247 118.114L381.721 117.234ZM374.941 112.942C373.849 112.125 372.815 111.276 371.845 110.396L371.173 111.137C372.168 112.039 373.226 112.908 374.342 113.743L374.941 112.942ZM369.035 107.556C368.139 106.54 367.325 105.489 366.599 104.405L365.768 104.961C366.52 106.085 367.362 107.17 368.285 108.217L369.035 107.556ZM364.643 100.948C364.082 99.744 363.625 98.5036 363.279 97.2276L362.314 97.4893C362.675 98.8224 363.153 100.116 363.737 101.37L364.643 100.948ZM493.667 86C493.667 84.5273 492.473 83.3333 491 83.3333C489.527 83.3333 488.333 84.5273 488.333 86C488.333 87.4728 489.527 88.6667 491 88.6667C492.473 88.6667 493.667 87.4728 493.667 86ZM362 91.3455L359.332 96.4656L365.1 96.2159L362 91.3455ZM490.5 86C490.5 86.6327 490.478 87.2621 490.435 87.8878L491.432 87.9568C491.477 87.3082 491.5 86.6558 491.5 86L490.5 86ZM489.916 91.6251C489.658 92.8542 489.318 94.0667 488.898 95.26L489.841 95.5922C490.275 94.3583 490.628 93.1034 490.895 91.83L489.916 91.6251ZM487.421 98.7407C486.865 99.8582 486.237 100.956 485.541 102.031L486.381 102.574C487.096 101.469 487.743 100.339 488.317 99.1864L487.421 98.7407ZM483.321 105.101C482.541 106.073 481.703 107.024 480.81 107.95L481.53 108.644C482.443 107.697 483.301 106.723 484.101 105.726L483.321 105.101ZM478.057 110.578C477.12 111.403 476.137 112.205 475.11 112.982L475.713 113.779C476.759 112.988 477.761 112.17 478.718 111.328L478.057 110.578ZM471.99 115.178C470.943 115.865 469.859 116.528 468.741 117.166L469.236 118.035C470.372 117.386 471.474 116.713 472.539 116.015L471.99 115.178ZM465.371 118.961C464.246 119.52 463.09 120.056 461.907 120.567L462.304 121.485C463.503 120.967 464.674 120.424 465.816 119.857L465.371 118.961ZM458.366 121.991C457.185 122.432 455.98 122.85 454.753 123.242L455.057 124.195C456.3 123.797 457.52 123.375 458.716 122.928L458.366 121.991ZM451.086 124.323C449.869 124.652 448.632 124.958 447.378 125.239L447.596 126.215C448.865 125.93 450.116 125.621 451.347 125.288L451.086 124.323ZM443.629 125.995C442.385 126.219 441.124 126.419 439.85 126.595L439.987 127.585C441.274 127.408 442.548 127.205 443.806 126.979L443.629 125.995ZM436.05 127.04C434.792 127.163 433.521 127.261 432.239 127.335L432.297 128.334C433.592 128.259 434.875 128.159 436.147 128.036L436.05 127.04ZM428.418 127.482C427.781 127.494 427.141 127.5 426.5 127.5L426.5 128.5C427.148 128.5 427.793 128.494 428.437 128.482L428.418 127.482ZM426.5 127.5C425.83 127.5 425.158 127.493 424.485 127.48L424.465 128.48C425.145 128.493 425.823 128.5 426.5 128.5L426.5 127.5ZM420.452 127.326C419.112 127.249 417.769 127.147 416.428 127.021L416.334 128.016C417.688 128.144 419.042 128.247 420.395 128.324L420.452 127.326ZM412.418 126.567C411.082 126.391 409.751 126.191 408.427 125.966L408.26 126.952C409.596 127.179 410.94 127.381 412.288 127.559L412.418 126.567ZM404.462 125.216C403.14 124.94 401.829 124.639 400.531 124.314L400.288 125.284C401.598 125.612 402.923 125.916 404.258 126.195L404.462 125.216ZM396.638 123.252C395.34 122.869 394.059 122.46 392.801 122.027L392.476 122.973C393.748 123.411 395.043 123.824 396.355 124.211L396.638 123.252ZM389.02 120.623C387.759 120.119 386.526 119.589 385.325 119.033L384.905 119.941C386.123 120.505 387.372 121.042 388.649 121.552L389.02 120.623ZM381.721 117.234C380.521 116.588 379.363 115.914 378.249 115.212L377.716 116.058C378.85 116.773 380.028 117.459 381.247 118.114L381.721 117.234ZM374.941 112.942C373.849 112.125 372.815 111.276 371.845 110.396L371.173 111.137C372.168 112.039 373.226 112.908 374.342 113.743L374.941 112.942ZM369.035 107.556C368.139 106.54 367.325 105.489 366.599 104.405L365.768 104.961C366.52 106.085 367.362 107.17 368.285 108.217L369.035 107.556ZM364.643 100.948C364.082 99.744 363.625 98.5036 363.279 97.2276L362.314 97.4893C362.675 98.8224 363.153 100.116 363.737 101.37L364.643 100.948Z" fill="#565866"/>
<path d="M501.628 107V96.792L499.46 98.096V96.776L501.628 95.48H502.82V107H501.628ZM510.898 107L508.258 98.352L509.434 98.36L511.482 105.072L513.538 98.36H514.61L516.666 105.072L518.73 98.36H519.898L517.258 107H516.234L514.074 100.12L511.922 107H510.898ZM524.682 107.24C523.84 107.24 523.109 107.053 522.49 106.68C521.872 106.307 521.392 105.781 521.05 105.104C520.714 104.427 520.546 103.632 520.546 102.72C520.546 101.776 520.714 100.96 521.05 100.272C521.386 99.584 521.858 99.0533 522.466 98.68C523.08 98.3067 523.802 98.12 524.634 98.12C525.914 98.12 526.906 98.5547 527.61 99.424C528.32 100.288 528.653 101.483 528.61 103.008H521.802C521.85 104 522.12 104.765 522.61 105.304C523.101 105.843 523.776 106.112 524.634 106.112C525.893 106.112 526.797 105.557 527.346 104.448L528.442 104.872C528.101 105.624 527.597 106.208 526.93 106.624C526.269 107.035 525.52 107.24 524.682 107.24ZM524.666 99.2C523.834 99.2 523.176 99.4453 522.69 99.936C522.205 100.421 521.917 101.117 521.826 102.024H527.378C527.192 100.141 526.288 99.2 524.666 99.2ZM534.042 107.24C533.199 107.24 532.468 107.053 531.85 106.68C531.231 106.307 530.751 105.781 530.41 105.104C530.074 104.427 529.906 103.632 529.906 102.72C529.906 101.776 530.074 100.96 530.41 100.272C530.746 99.584 531.218 99.0533 531.826 98.68C532.439 98.3067 533.162 98.12 533.994 98.12C535.274 98.12 536.266 98.5547 536.97 99.424C537.679 100.288 538.012 101.483 537.97 103.008H531.162C531.21 104 531.479 104.765 531.97 105.304C532.46 105.843 533.135 106.112 533.994 106.112C535.252 106.112 536.156 105.557 536.706 104.448L537.802 104.872C537.46 105.624 536.956 106.208 536.29 106.624C535.628 107.035 534.879 107.24 534.042 107.24ZM534.026 99.2C533.194 99.2 532.535 99.4453 532.05 99.936C531.564 100.421 531.276 101.117 531.186 102.024H536.738C536.551 100.141 535.647 99.2 534.026 99.2ZM539.737 107L539.745 95.48H540.873V102.12L544.849 98.36H546.313L542.497 102.024L546.521 107H545.121L541.705 102.792L540.873 103.584V107H539.737Z" fill="#565866"/>
<path d="M720.628 107V96.792L718.46 98.096V96.776L720.628 95.48H721.82V107H720.628ZM729.898 107L727.258 98.352L728.434 98.36L730.482 105.072L732.538 98.36H733.61L735.666 105.072L737.73 98.36H738.898L736.258 107H735.234L733.074 100.12L730.922 107H729.898ZM743.682 107.24C742.84 107.24 742.109 107.053 741.49 106.68C740.872 106.307 740.392 105.781 740.05 105.104C739.714 104.427 739.546 103.632 739.546 102.72C739.546 101.776 739.714 100.96 740.05 100.272C740.386 99.584 740.858 99.0533 741.466 98.68C742.08 98.3067 742.802 98.12 743.634 98.12C744.914 98.12 745.906 98.5547 746.61 99.424C747.32 100.288 747.653 101.483 747.61 103.008H740.802C740.85 104 741.12 104.765 741.61 105.304C742.101 105.843 742.776 106.112 743.634 106.112C744.893 106.112 745.797 105.557 746.346 104.448L747.442 104.872C747.101 105.624 746.597 106.208 745.93 106.624C745.269 107.035 744.52 107.24 743.682 107.24ZM743.666 99.2C742.834 99.2 742.176 99.4453 741.69 99.936C741.205 100.421 740.917 101.117 740.826 102.024H746.378C746.192 100.141 745.288 99.2 743.666 99.2ZM753.042 107.24C752.199 107.24 751.468 107.053 750.85 106.68C750.231 106.307 749.751 105.781 749.41 105.104C749.074 104.427 748.906 103.632 748.906 102.72C748.906 101.776 749.074 100.96 749.41 100.272C749.746 99.584 750.218 99.0533 750.826 98.68C751.439 98.3067 752.162 98.12 752.994 98.12C754.274 98.12 755.266 98.5547 755.97 99.424C756.679 100.288 757.012 101.483 756.97 103.008H750.162C750.21 104 750.479 104.765 750.97 105.304C751.46 105.843 752.135 106.112 752.994 106.112C754.252 106.112 755.156 105.557 755.706 104.448L756.802 104.872C756.46 105.624 755.956 106.208 755.29 106.624C754.628 107.035 753.879 107.24 753.042 107.24ZM753.026 99.2C752.194 99.2 751.535 99.4453 751.05 99.936C750.564 100.421 750.276 101.117 750.186 102.024H755.738C755.551 100.141 754.647 99.2 753.026 99.2ZM758.737 107L758.745 95.48H759.873V102.12L763.849 98.36H765.313L761.497 102.024L765.521 107H764.121L760.705 102.792L759.873 103.584V107H758.737Z" fill="#565866"/>
<path d="M218.628 107V96.792L216.46 98.096V96.776L218.628 95.48H219.82V107H218.628ZM227.898 107L225.258 98.352L226.434 98.36L228.482 105.072L230.538 98.36H231.61L233.666 105.072L235.73 98.36H236.898L234.258 107H233.234L231.074 100.12L228.922 107H227.898ZM241.682 107.24C240.84 107.24 240.109 107.053 239.49 106.68C238.872 106.307 238.392 105.781 238.05 105.104C237.714 104.427 237.546 103.632 237.546 102.72C237.546 101.776 237.714 100.96 238.05 100.272C238.386 99.584 238.858 99.0533 239.466 98.68C240.08 98.3067 240.802 98.12 241.634 98.12C242.914 98.12 243.906 98.5547 244.61 99.424C245.32 100.288 245.653 101.483 245.61 103.008H238.802C238.85 104 239.12 104.765 239.61 105.304C240.101 105.843 240.776 106.112 241.634 106.112C242.893 106.112 243.797 105.557 244.346 104.448L245.442 104.872C245.101 105.624 244.597 106.208 243.93 106.624C243.269 107.035 242.52 107.24 241.682 107.24ZM241.666 99.2C240.834 99.2 240.176 99.4453 239.69 99.936C239.205 100.421 238.917 101.117 238.826 102.024H244.378C244.192 100.141 243.288 99.2 241.666 99.2ZM251.042 107.24C250.199 107.24 249.468 107.053 248.85 106.68C248.231 106.307 247.751 105.781 247.41 105.104C247.074 104.427 246.906 103.632 246.906 102.72C246.906 101.776 247.074 100.96 247.41 100.272C247.746 99.584 248.218 99.0533 248.826 98.68C249.439 98.3067 250.162 98.12 250.994 98.12C252.274 98.12 253.266 98.5547 253.97 99.424C254.679 100.288 255.012 101.483 254.97 103.008H248.162C248.21 104 248.479 104.765 248.97 105.304C249.46 105.843 250.135 106.112 250.994 106.112C252.252 106.112 253.156 105.557 253.706 104.448L254.802 104.872C254.46 105.624 253.956 106.208 253.29 106.624C252.628 107.035 251.879 107.24 251.042 107.24ZM251.026 99.2C250.194 99.2 249.535 99.4453 249.05 99.936C248.564 100.421 248.276 101.117 248.186 102.024H253.738C253.551 100.141 252.647 99.2 251.026 99.2ZM256.737 107L256.745 95.48H257.873V102.12L261.849 98.36H263.313L259.497 102.024L263.521 107H262.121L258.705 102.792L257.873 103.584V107H256.737Z" fill="#565866"/>
</svg>
