<svg width="767" height="129" viewBox="0 0 767 129" fill="none" xmlns="http://www.w3.org/2000/svg">
<rect x="171.75" y="43.5" width="91" height="42" rx="21" fill="#F7F5F5"/>
<rect x="171.75" y="43.5" width="91" height="42" rx="21" stroke="#EA4C5E"/>
<path d="M180.85 72V57.6H182.32V72H180.85ZM189.508 72.3C188.501 72.3 187.638 72.05 186.918 71.55C186.205 71.0433 185.658 70.36 185.278 69.5C184.905 68.64 184.718 67.67 184.718 66.59C184.718 65.5167 184.905 64.55 185.278 63.69C185.658 62.83 186.201 62.15 186.908 61.65C187.615 61.15 188.461 60.9 189.448 60.9C190.201 60.9 190.865 61.04 191.438 61.32C192.011 61.6 192.495 61.9867 192.888 62.48V57.6H194.368V72H193.048V70.5C192.655 71.06 192.161 71.5 191.568 71.82C190.981 72.14 190.295 72.3 189.508 72.3ZM189.658 70.93C190.425 70.93 191.058 70.7433 191.558 70.37C192.058 69.99 192.431 69.4733 192.678 68.82C192.925 68.1667 193.048 67.4233 193.048 66.59C193.048 65.3233 192.768 64.2867 192.208 63.48C191.655 62.6733 190.815 62.27 189.688 62.27C188.915 62.27 188.275 62.46 187.768 62.84C187.268 63.22 186.895 63.7367 186.648 64.39C186.401 65.0433 186.278 65.7767 186.278 66.59C186.278 67.41 186.401 68.1467 186.648 68.8C186.901 69.4533 187.278 69.9733 187.778 70.36C188.278 70.74 188.905 70.93 189.658 70.93ZM201.743 72.3C200.69 72.3 199.777 72.0667 199.003 71.6C198.23 71.1333 197.63 70.4767 197.203 69.63C196.783 68.7833 196.573 67.79 196.573 66.65C196.573 65.47 196.783 64.45 197.203 63.59C197.623 62.73 198.213 62.0667 198.973 61.6C199.74 61.1333 200.643 60.9 201.683 60.9C203.283 60.9 204.523 61.4433 205.403 62.53C206.29 63.61 206.707 65.1033 206.653 67.01H198.143C198.203 68.25 198.54 69.2067 199.153 69.88C199.767 70.5533 200.61 70.89 201.683 70.89C203.257 70.89 204.387 70.1967 205.073 68.81L206.443 69.34C206.017 70.28 205.387 71.01 204.553 71.53C203.727 72.0433 202.79 72.3 201.743 72.3ZM201.723 62.25C200.683 62.25 199.86 62.5567 199.253 63.17C198.647 63.7767 198.287 64.6467 198.173 65.78H205.113C204.88 63.4267 203.75 62.25 201.723 62.25ZM211.767 72.3C210.954 72.3 210.271 72.1533 209.717 71.86C209.171 71.5667 208.761 71.1767 208.487 70.69C208.214 70.2033 208.077 69.6733 208.077 69.1C208.077 68.2133 208.334 67.5233 208.847 67.03C209.361 66.53 210.021 66.1733 210.827 65.96C211.314 65.84 211.847 65.7333 212.427 65.64C213.007 65.5467 213.584 65.4633 214.157 65.39C214.737 65.3167 215.267 65.25 215.747 65.19C215.734 64.21 215.507 63.4833 215.067 63.01C214.627 62.53 213.894 62.29 212.867 62.29C212.127 62.29 211.501 62.4567 210.987 62.79C210.481 63.1233 210.124 63.65 209.917 64.37L208.487 63.95C208.734 62.9833 209.231 62.2333 209.977 61.7C210.724 61.1667 211.694 60.9 212.887 60.9C213.874 60.9 214.711 61.0867 215.397 61.46C216.091 61.8267 216.581 62.36 216.867 63.06C217.001 63.3733 217.087 63.7233 217.127 64.11C217.167 64.4967 217.187 64.89 217.187 65.29V72H215.877V70.22C215.024 71.6067 213.654 72.3 211.767 72.3ZM211.937 71.03C212.971 71.03 213.801 70.76 214.427 70.22C215.061 69.68 215.447 69.0033 215.587 68.19C215.647 67.9233 215.684 67.6333 215.697 67.32C215.717 67 215.727 66.7167 215.727 66.47C215.021 66.5567 214.274 66.65 213.487 66.75C212.701 66.85 212.011 66.98 211.417 67.14C210.957 67.2733 210.531 67.4867 210.137 67.78C209.744 68.0733 209.547 68.5133 209.547 69.1C209.547 69.4133 209.624 69.7167 209.777 70.01C209.937 70.3033 210.191 70.5467 210.537 70.74C210.891 70.9333 211.357 71.03 211.937 71.03ZM225.671 72C225.064 72.1267 224.464 72.1767 223.871 72.15C223.284 72.1233 222.757 71.9967 222.291 71.77C221.831 71.5433 221.481 71.19 221.241 70.71C221.047 70.3167 220.941 69.9133 220.921 69.5C220.907 69.0867 220.901 68.6167 220.901 68.09V62.46H218.591V61.2H220.901V58.2H222.361V61.2H225.671V62.46H222.361V68.03C222.361 68.4833 222.364 68.8633 222.371 69.17C222.384 69.47 222.454 69.7367 222.581 69.97C222.821 70.4167 223.201 70.6833 223.721 70.77C224.247 70.8567 224.897 70.8367 225.671 70.71V72ZM227.998 72V61.2H229.468V72H227.998ZM228.728 59.34C228.442 59.34 228.198 59.2433 227.998 59.05C227.805 58.85 227.708 58.61 227.708 58.33C227.708 58.0433 227.805 57.8033 227.998 57.61C228.198 57.41 228.442 57.31 228.728 57.31C229.022 57.31 229.265 57.41 229.458 57.61C229.658 57.8033 229.758 58.0433 229.758 58.33C229.758 58.61 229.658 58.85 229.458 59.05C229.265 59.2433 229.022 59.34 228.728 59.34ZM236.976 72.3C235.903 72.3 234.986 72.0567 234.226 71.57C233.466 71.0833 232.883 70.41 232.476 69.55C232.07 68.69 231.866 67.7033 231.866 66.59C231.866 65.4567 232.073 64.4633 232.486 63.61C232.9 62.7567 233.486 62.0933 234.246 61.62C235.013 61.14 235.923 60.9 236.976 60.9C238.056 60.9 238.976 61.1433 239.736 61.63C240.503 62.11 241.086 62.78 241.486 63.64C241.893 64.4933 242.096 65.4767 242.096 66.59C242.096 67.7233 241.893 68.72 241.486 69.58C241.08 70.4333 240.493 71.1 239.726 71.58C238.96 72.06 238.043 72.3 236.976 72.3ZM236.976 70.89C238.176 70.89 239.07 70.4933 239.656 69.7C240.243 68.9 240.536 67.8633 240.536 66.59C240.536 65.29 240.24 64.2533 239.646 63.48C239.053 62.7 238.163 62.31 236.976 62.31C235.77 62.31 234.876 62.71 234.296 63.51C233.716 64.3033 233.426 65.33 233.426 66.59C233.426 67.89 233.726 68.9333 234.326 69.72C234.926 70.5 235.81 70.89 236.976 70.89ZM244.292 72V61.2H245.622V62.7C246.022 62.12 246.532 61.68 247.152 61.38C247.779 61.08 248.479 60.93 249.252 60.93C250.066 60.93 250.749 61.0833 251.302 61.39C251.856 61.69 252.299 62.09 252.632 62.59C252.966 63.0833 253.206 63.6333 253.352 64.24C253.506 64.8467 253.582 65.4533 253.582 66.06V72H252.102V66.49C252.102 65.6967 251.999 64.9867 251.792 64.36C251.586 63.7333 251.252 63.24 250.792 62.88C250.332 62.5133 249.726 62.33 248.972 62.33C247.932 62.33 247.139 62.6767 246.592 63.37C246.046 64.0633 245.772 65.02 245.772 66.24V72H244.292Z" fill="#EA4C5E"/>
<rect x="330.75" y="43.5" width="56" height="42" rx="21" fill="#FDF2ED"/>
<rect x="330.75" y="43.5" width="56" height="42" rx="21" stroke="#EA4C5E"/>
<path d="M343.48 72V59.01H338.45V57.6H349.98V59.01H344.95V72H343.48ZM354.552 72.3C353.499 72.3 352.585 72.0667 351.812 71.6C351.039 71.1333 350.439 70.4767 350.012 69.63C349.592 68.7833 349.382 67.79 349.382 66.65C349.382 65.47 349.592 64.45 350.012 63.59C350.432 62.73 351.022 62.0667 351.782 61.6C352.549 61.1333 353.452 60.9 354.492 60.9C356.092 60.9 357.332 61.4433 358.212 62.53C359.099 63.61 359.515 65.1033 359.462 67.01H350.952C351.012 68.25 351.349 69.2067 351.962 69.88C352.575 70.5533 353.419 70.89 354.492 70.89C356.065 70.89 357.195 70.1967 357.882 68.81L359.252 69.34C358.825 70.28 358.195 71.01 357.362 71.53C356.535 72.0433 355.599 72.3 354.552 72.3ZM354.532 62.25C353.492 62.25 352.669 62.5567 352.062 63.17C351.455 63.7767 351.095 64.6467 350.982 65.78H357.922C357.689 63.4267 356.559 62.25 354.532 62.25ZM365.711 72.29C364.445 72.29 363.401 72.0167 362.581 71.47C361.768 70.9233 361.268 70.1633 361.081 69.19L362.581 68.94C362.741 69.56 363.105 70.05 363.671 70.41C364.245 70.77 364.951 70.95 365.791 70.95C366.611 70.95 367.258 70.78 367.731 70.44C368.205 70.0933 368.441 69.6233 368.441 69.03C368.441 68.6967 368.365 68.4267 368.211 68.22C368.058 68.0067 367.751 67.81 367.291 67.63C366.838 67.45 366.155 67.2367 365.241 66.99C364.261 66.7233 363.491 66.4567 362.931 66.19C362.378 65.9233 361.985 65.6167 361.751 65.27C361.525 64.9167 361.411 64.4867 361.411 63.98C361.411 63.06 361.788 62.3167 362.541 61.75C363.301 61.1833 364.291 60.9 365.511 60.9C366.325 60.9 367.051 61.0333 367.691 61.3C368.338 61.56 368.858 61.9267 369.251 62.4C369.645 62.8733 369.878 63.4233 369.951 64.05L368.451 64.32C368.345 63.6867 368.028 63.1867 367.501 62.82C366.975 62.4467 366.305 62.2533 365.491 62.24C364.725 62.22 364.101 62.3667 363.621 62.68C363.141 62.9867 362.901 63.3967 362.901 63.91C362.901 64.1967 362.988 64.4433 363.161 64.65C363.335 64.85 363.648 65.04 364.101 65.22C364.561 65.4 365.215 65.5967 366.061 65.81C367.055 66.0633 367.835 66.33 368.401 66.61C368.968 66.89 369.371 67.22 369.611 67.6C369.851 67.98 369.971 68.45 369.971 69.01C369.971 70.03 369.591 70.8333 368.831 71.42C368.078 72 367.038 72.29 365.711 72.29ZM378.069 72C377.462 72.1267 376.862 72.1767 376.269 72.15C375.682 72.1233 375.156 71.9967 374.689 71.77C374.229 71.5433 373.879 71.19 373.639 70.71C373.446 70.3167 373.339 69.9133 373.319 69.5C373.306 69.0867 373.299 68.6167 373.299 68.09V62.46H370.989V61.2H373.299V58.2H374.759V61.2H378.069V62.46H374.759V68.03C374.759 68.4833 374.762 68.8633 374.769 69.17C374.782 69.47 374.852 69.7367 374.979 69.97C375.219 70.4167 375.599 70.6833 376.119 70.77C376.646 70.8567 377.296 70.8367 378.069 70.71V72Z" fill="#EA4C5E"/>
<rect x="436.75" y="43.5" width="108" height="42" rx="21" fill="#FDF2ED"/>
<rect x="436.75" y="43.5" width="108" height="42" rx="21" stroke="#EA4C5E"/>
<path d="M445.65 72V57.6H451.21C451.35 57.6 451.507 57.6067 451.68 57.62C451.86 57.6267 452.04 57.6467 452.22 57.68C453.347 57.8533 454.213 58.3467 454.82 59.16C455.427 59.9733 455.73 60.9433 455.73 62.07C455.73 63.19 455.423 64.1567 454.81 64.97C454.203 65.7833 453.34 66.2767 452.22 66.45C452.04 66.4833 451.86 66.5067 451.68 66.52C451.507 66.5267 451.35 66.53 451.21 66.53H447.12V72H445.65ZM447.12 65.13H451.17C451.29 65.13 451.43 65.1233 451.59 65.11C451.75 65.0967 451.907 65.0733 452.06 65.04C452.8 64.88 453.343 64.5133 453.69 63.94C454.043 63.36 454.22 62.7367 454.22 62.07C454.22 61.3967 454.043 60.7733 453.69 60.2C453.343 59.62 452.8 59.25 452.06 59.09C451.907 59.0567 451.75 59.0367 451.59 59.03C451.43 59.0167 451.29 59.01 451.17 59.01H447.12V65.13ZM457.72 72V61.2H459.04V62.91C459.28 62.49 459.56 62.1567 459.88 61.91C460.307 61.5433 460.82 61.3033 461.42 61.19C462.02 61.0767 462.557 61.08 463.03 61.2V62.58C462.63 62.48 462.197 62.4567 461.73 62.51C461.27 62.5633 460.844 62.75 460.45 63.07C459.91 63.4967 459.564 64.0333 459.41 64.68C459.264 65.32 459.19 65.9633 459.19 66.61V72H457.72ZM469.242 72.3C468.169 72.3 467.252 72.0567 466.492 71.57C465.732 71.0833 465.149 70.41 464.742 69.55C464.335 68.69 464.132 67.7033 464.132 66.59C464.132 65.4567 464.339 64.4633 464.752 63.61C465.165 62.7567 465.752 62.0933 466.512 61.62C467.279 61.14 468.189 60.9 469.242 60.9C470.322 60.9 471.242 61.1433 472.002 61.63C472.769 62.11 473.352 62.78 473.752 63.64C474.159 64.4933 474.362 65.4767 474.362 66.59C474.362 67.7233 474.159 68.72 473.752 69.58C473.345 70.4333 472.759 71.1 471.992 71.58C471.225 72.06 470.309 72.3 469.242 72.3ZM469.242 70.89C470.442 70.89 471.335 70.4933 471.922 69.7C472.509 68.9 472.802 67.8633 472.802 66.59C472.802 65.29 472.505 64.2533 471.912 63.48C471.319 62.7 470.429 62.31 469.242 62.31C468.035 62.31 467.142 62.71 466.562 63.51C465.982 64.3033 465.692 65.33 465.692 66.59C465.692 67.89 465.992 68.9333 466.592 69.72C467.192 70.5 468.075 70.89 469.242 70.89ZM482.448 72C481.841 72.1267 481.241 72.1767 480.648 72.15C480.061 72.1233 479.535 71.9967 479.068 71.77C478.608 71.5433 478.258 71.19 478.018 70.71C477.825 70.3167 477.718 69.9133 477.698 69.5C477.685 69.0867 477.678 68.6167 477.678 68.09V62.46H475.368V61.2H477.678V58.2H479.138V61.2H482.448V62.46H479.138V68.03C479.138 68.4833 479.141 68.8633 479.148 69.17C479.161 69.47 479.231 69.7367 479.358 69.97C479.598 70.4167 479.978 70.6833 480.498 70.77C481.025 70.8567 481.675 70.8367 482.448 70.71V72ZM488.695 72.3C487.622 72.3 486.705 72.0567 485.945 71.57C485.185 71.0833 484.602 70.41 484.195 69.55C483.788 68.69 483.585 67.7033 483.585 66.59C483.585 65.4567 483.792 64.4633 484.205 63.61C484.618 62.7567 485.205 62.0933 485.965 61.62C486.732 61.14 487.642 60.9 488.695 60.9C489.775 60.9 490.695 61.1433 491.455 61.63C492.222 62.11 492.805 62.78 493.205 63.64C493.612 64.4933 493.815 65.4767 493.815 66.59C493.815 67.7233 493.612 68.72 493.205 69.58C492.798 70.4333 492.212 71.1 491.445 71.58C490.678 72.06 489.762 72.3 488.695 72.3ZM488.695 70.89C489.895 70.89 490.788 70.4933 491.375 69.7C491.962 68.9 492.255 67.8633 492.255 66.59C492.255 65.29 491.958 64.2533 491.365 63.48C490.772 62.7 489.882 62.31 488.695 62.31C487.488 62.31 486.595 62.71 486.015 63.51C485.435 64.3033 485.145 65.33 485.145 66.59C485.145 67.89 485.445 68.9333 486.045 69.72C486.645 70.5 487.528 70.89 488.695 70.89ZM501.901 72C501.294 72.1267 500.694 72.1767 500.101 72.15C499.514 72.1233 498.988 71.9967 498.521 71.77C498.061 71.5433 497.711 71.19 497.471 70.71C497.278 70.3167 497.171 69.9133 497.151 69.5C497.138 69.0867 497.131 68.6167 497.131 68.09V62.46H494.821V61.2H497.131V58.2H498.591V61.2H501.901V62.46H498.591V68.03C498.591 68.4833 498.594 68.8633 498.601 69.17C498.614 69.47 498.684 69.7367 498.811 69.97C499.051 70.4167 499.431 70.6833 499.951 70.77C500.478 70.8567 501.128 70.8367 501.901 70.71V72ZM505.276 76.8L507.056 71.98L502.666 61.2H504.226L507.766 70.08L511.046 61.2H512.546L506.746 76.8H505.276ZM514.273 76.8V61.2H515.593V62.68C515.986 62.1267 516.483 61.6933 517.083 61.38C517.689 61.06 518.393 60.9 519.193 60.9C520.179 60.9 521.026 61.15 521.733 61.65C522.439 62.15 522.979 62.83 523.353 63.69C523.733 64.55 523.923 65.5167 523.923 66.59C523.923 67.67 523.733 68.64 523.353 69.5C522.979 70.36 522.433 71.0433 521.713 71.55C520.999 72.05 520.139 72.3 519.133 72.3C518.399 72.3 517.749 72.16 517.183 71.88C516.616 71.5933 516.139 71.2033 515.753 70.71V76.8H514.273ZM518.983 70.93C519.736 70.93 520.363 70.74 520.863 70.36C521.363 69.9733 521.736 69.4533 521.983 68.8C522.236 68.1467 522.363 67.41 522.363 66.59C522.363 65.7767 522.239 65.0433 521.993 64.39C521.746 63.7367 521.369 63.22 520.863 62.84C520.363 62.46 519.726 62.27 518.953 62.27C517.826 62.27 516.983 62.6733 516.423 63.48C515.869 64.2867 515.593 65.3233 515.593 66.59C515.593 67.4233 515.716 68.1667 515.963 68.82C516.209 69.4733 516.583 69.99 517.083 70.37C517.583 70.7433 518.216 70.93 518.983 70.93ZM530.689 72.3C529.635 72.3 528.722 72.0667 527.949 71.6C527.175 71.1333 526.575 70.4767 526.149 69.63C525.729 68.7833 525.519 67.79 525.519 66.65C525.519 65.47 525.729 64.45 526.149 63.59C526.569 62.73 527.159 62.0667 527.919 61.6C528.685 61.1333 529.589 60.9 530.629 60.9C532.229 60.9 533.469 61.4433 534.349 62.53C535.235 63.61 535.652 65.1033 535.599 67.01H527.089C527.149 68.25 527.485 69.2067 528.099 69.88C528.712 70.5533 529.555 70.89 530.629 70.89C532.202 70.89 533.332 70.1967 534.019 68.81L535.389 69.34C534.962 70.28 534.332 71.01 533.499 71.53C532.672 72.0433 531.735 72.3 530.689 72.3ZM530.669 62.25C529.629 62.25 528.805 62.5567 528.199 63.17C527.592 63.7767 527.232 64.6467 527.119 65.78H534.059C533.825 63.4267 532.695 62.25 530.669 62.25Z" fill="#EA4C5E"/>
<rect x="652.25" y="43" width="113" height="43" rx="21.5" fill="#EA4C5E"/>
<path d="M669.65 72V57.6H674.31C674.423 57.6 674.657 57.6033 675.01 57.61C675.363 57.6167 675.703 57.64 676.03 57.68C677.19 57.82 678.173 58.2233 678.98 58.89C679.787 59.5567 680.4 60.4033 680.82 61.43C681.24 62.4567 681.45 63.58 681.45 64.8C681.45 66.02 681.24 67.1433 680.82 68.17C680.4 69.1967 679.787 70.0433 678.98 70.71C678.173 71.3767 677.19 71.78 676.03 71.92C675.703 71.96 675.363 71.9833 675.01 71.99C674.657 71.9967 674.423 72 674.31 72H669.65ZM672.41 69.44H674.31C674.49 69.44 674.733 69.4367 675.04 69.43C675.347 69.4167 675.623 69.3867 675.87 69.34C676.497 69.2133 677.007 68.92 677.4 68.46C677.8 68 678.093 67.4467 678.28 66.8C678.473 66.1533 678.57 65.4867 678.57 64.8C678.57 64.08 678.47 63.3967 678.27 62.75C678.077 62.1033 677.78 61.5567 677.38 61.11C676.98 60.6633 676.477 60.38 675.87 60.26C675.623 60.2067 675.347 60.1767 675.04 60.17C674.733 60.1633 674.49 60.16 674.31 60.16H672.41V69.44ZM688.869 72.3C687.763 72.3 686.786 72.0633 685.939 71.59C685.099 71.11 684.439 70.4533 683.959 69.62C683.486 68.78 683.249 67.82 683.249 66.74C683.249 65.56 683.483 64.5333 683.949 63.66C684.416 62.7867 685.059 62.11 685.879 61.63C686.699 61.1433 687.643 60.9 688.709 60.9C689.843 60.9 690.806 61.1667 691.599 61.7C692.393 62.2333 692.979 62.9833 693.359 63.95C693.739 64.9167 693.873 66.0533 693.759 67.36H686.179C686.279 68.1333 686.539 68.7267 686.959 69.14C687.386 69.5533 687.969 69.76 688.709 69.76C689.789 69.76 690.536 69.3067 690.949 68.4L693.669 69.18C693.263 70.1667 692.619 70.9333 691.739 71.48C690.866 72.0267 689.909 72.3 688.869 72.3ZM688.829 63.26C687.396 63.26 686.536 63.9533 686.249 65.34H691.009C690.909 64.6067 690.683 64.0767 690.329 63.75C689.983 63.4233 689.483 63.26 688.829 63.26ZM696.217 72V57.3H698.937V72H696.217ZM702.135 72V61.2H704.855V72H702.135ZM703.495 60.09C703.042 60.09 702.662 59.9367 702.355 59.63C702.055 59.3233 701.905 58.95 701.905 58.51C701.905 58.0633 702.055 57.69 702.355 57.39C702.662 57.0833 703.042 56.93 703.495 56.93C703.955 56.93 704.335 57.0833 704.635 57.39C704.935 57.69 705.085 58.0633 705.085 58.51C705.085 58.95 704.935 59.3233 704.635 59.63C704.335 59.9367 703.955 60.09 703.495 60.09ZM710.773 72L706.853 61.2H709.573L712.133 68.68L714.693 61.2H717.413L713.493 72H710.773ZM723.85 72.3C722.743 72.3 721.766 72.0633 720.92 71.59C720.08 71.11 719.42 70.4533 718.94 69.62C718.466 68.78 718.23 67.82 718.23 66.74C718.23 65.56 718.463 64.5333 718.93 63.66C719.396 62.7867 720.04 62.11 720.86 61.63C721.68 61.1433 722.623 60.9 723.69 60.9C724.823 60.9 725.786 61.1667 726.58 61.7C727.373 62.2333 727.96 62.9833 728.34 63.95C728.72 64.9167 728.853 66.0533 728.74 67.36H721.16C721.26 68.1333 721.52 68.7267 721.94 69.14C722.366 69.5533 722.95 69.76 723.69 69.76C724.77 69.76 725.516 69.3067 725.93 68.4L728.65 69.18C728.243 70.1667 727.6 70.9333 726.72 71.48C725.846 72.0267 724.89 72.3 723.85 72.3ZM723.81 63.26C722.376 63.26 721.516 63.9533 721.23 65.34H725.99C725.89 64.6067 725.663 64.0767 725.31 63.75C724.963 63.4233 724.463 63.26 723.81 63.26ZM730.998 72V61.2H733.398V62.94C733.538 62.6867 733.701 62.4567 733.888 62.25C734.081 62.0433 734.304 61.8667 734.558 61.72C734.951 61.48 735.391 61.32 735.878 61.24C736.364 61.1533 736.851 61.14 737.338 61.2V63.74C737.038 63.6467 736.688 63.6167 736.288 63.65C735.894 63.6767 735.538 63.7667 735.218 63.92C734.231 64.3733 733.738 65.2267 733.738 66.48V72H730.998ZM740.229 76.8L742.009 71.91L737.649 61.2H740.469L743.309 68.55L746.129 61.2H748.849L742.749 76.8H740.229Z" fill="#F7F5F5"/>
<rect x="0.75" y="43.5" width="103" height="42" rx="21" fill="#F7F5F5"/>
<rect x="0.75" y="43.5" width="103" height="42" rx="21" stroke="#EA4C5E"/>
<path d="M9.65 72V57.6H15.21C15.35 57.6 15.5067 57.6067 15.68 57.62C15.86 57.6267 16.04 57.6467 16.22 57.68C17.3467 57.8533 18.2133 58.3233 18.82 59.09C19.4267 59.8567 19.73 60.76 19.73 61.8C19.73 62.6933 19.47 63.5167 18.95 64.27C18.4367 65.0233 17.7033 65.5333 16.75 65.8L19.96 72H18.26L15.17 66H11.12V72H9.65ZM11.12 64.59H15.17C15.29 64.59 15.43 64.5867 15.59 64.58C15.7567 64.5733 15.9133 64.55 16.06 64.51C16.8 64.3167 17.3433 63.9633 17.69 63.45C18.0433 62.9367 18.22 62.3867 18.22 61.8C18.22 61.2133 18.0433 60.6567 17.69 60.13C17.3433 59.5967 16.8 59.25 16.06 59.09C15.9067 59.0567 15.75 59.0367 15.59 59.03C15.43 59.0167 15.29 59.01 15.17 59.01H11.12V64.59ZM26.8372 72.3C25.7839 72.3 24.8705 72.0667 24.0972 71.6C23.3239 71.1333 22.7239 70.4767 22.2972 69.63C21.8772 68.7833 21.6672 67.79 21.6672 66.65C21.6672 65.47 21.8772 64.45 22.2972 63.59C22.7172 62.73 23.3072 62.0667 24.0672 61.6C24.8339 61.1333 25.7372 60.9 26.7772 60.9C28.3772 60.9 29.6172 61.4433 30.4972 62.53C31.3839 63.61 31.8005 65.1033 31.7472 67.01H23.2372C23.2972 68.25 23.6339 69.2067 24.2472 69.88C24.8605 70.5533 25.7039 70.89 26.7772 70.89C28.3505 70.89 29.4805 70.1967 30.1672 68.81L31.5372 69.34C31.1105 70.28 30.4805 71.01 29.6472 71.53C28.8205 72.0433 27.8839 72.3 26.8372 72.3ZM26.8172 62.25C25.7772 62.25 24.9539 62.5567 24.3472 63.17C23.7405 63.7767 23.3805 64.6467 23.2672 65.78H30.2072C29.9739 63.4267 28.8439 62.25 26.8172 62.25ZM37.9964 72.29C36.7297 72.29 35.6864 72.0167 34.8664 71.47C34.0531 70.9233 33.5531 70.1633 33.3664 69.19L34.8664 68.94C35.0264 69.56 35.3897 70.05 35.9564 70.41C36.5297 70.77 37.2364 70.95 38.0764 70.95C38.8964 70.95 39.5431 70.78 40.0164 70.44C40.4897 70.0933 40.7264 69.6233 40.7264 69.03C40.7264 68.6967 40.6497 68.4267 40.4964 68.22C40.3431 68.0067 40.0364 67.81 39.5764 67.63C39.1231 67.45 38.4397 67.2367 37.5264 66.99C36.5464 66.7233 35.7764 66.4567 35.2164 66.19C34.6631 65.9233 34.2697 65.6167 34.0364 65.27C33.8097 64.9167 33.6964 64.4867 33.6964 63.98C33.6964 63.06 34.0731 62.3167 34.8264 61.75C35.5864 61.1833 36.5764 60.9 37.7964 60.9C38.6097 60.9 39.3364 61.0333 39.9764 61.3C40.6231 61.56 41.1431 61.9267 41.5364 62.4C41.9297 62.8733 42.1631 63.4233 42.2364 64.05L40.7364 64.32C40.6297 63.6867 40.3131 63.1867 39.7864 62.82C39.2597 62.4467 38.5897 62.2533 37.7764 62.24C37.0097 62.22 36.3864 62.3667 35.9064 62.68C35.4264 62.9867 35.1864 63.3967 35.1864 63.91C35.1864 64.1967 35.2731 64.4433 35.4464 64.65C35.6197 64.85 35.9331 65.04 36.3864 65.22C36.8464 65.4 37.4997 65.5967 38.3464 65.81C39.3397 66.0633 40.1197 66.33 40.6864 66.61C41.2531 66.89 41.6564 67.22 41.8964 67.6C42.1364 67.98 42.2564 68.45 42.2564 69.01C42.2564 70.03 41.8764 70.8333 41.1164 71.42C40.3631 72 39.3231 72.29 37.9964 72.29ZM49.0442 72.3C47.9909 72.3 47.0776 72.0667 46.3042 71.6C45.5309 71.1333 44.9309 70.4767 44.5042 69.63C44.0842 68.7833 43.8742 67.79 43.8742 66.65C43.8742 65.47 44.0842 64.45 44.5042 63.59C44.9242 62.73 45.5142 62.0667 46.2742 61.6C47.0409 61.1333 47.9442 60.9 48.9842 60.9C50.5842 60.9 51.8242 61.4433 52.7042 62.53C53.5909 63.61 54.0076 65.1033 53.9542 67.01H45.4442C45.5042 68.25 45.8409 69.2067 46.4542 69.88C47.0676 70.5533 47.9109 70.89 48.9842 70.89C50.5576 70.89 51.6876 70.1967 52.3742 68.81L53.7442 69.34C53.3176 70.28 52.6876 71.01 51.8542 71.53C51.0276 72.0433 50.0909 72.3 49.0442 72.3ZM49.0242 62.25C47.9842 62.25 47.1609 62.5567 46.5542 63.17C45.9476 63.7767 45.5876 64.6467 45.4742 65.78H52.4142C52.1809 63.4267 51.0509 62.25 49.0242 62.25ZM59.0681 72.3C58.2548 72.3 57.5715 72.1533 57.0181 71.86C56.4715 71.5667 56.0615 71.1767 55.7881 70.69C55.5148 70.2033 55.3781 69.6733 55.3781 69.1C55.3781 68.2133 55.6348 67.5233 56.1481 67.03C56.6615 66.53 57.3215 66.1733 58.1281 65.96C58.6148 65.84 59.1481 65.7333 59.7281 65.64C60.3081 65.5467 60.8848 65.4633 61.4581 65.39C62.0381 65.3167 62.5681 65.25 63.0481 65.19C63.0348 64.21 62.8081 63.4833 62.3681 63.01C61.9281 62.53 61.1948 62.29 60.1681 62.29C59.4281 62.29 58.8015 62.4567 58.2881 62.79C57.7815 63.1233 57.4248 63.65 57.2181 64.37L55.7881 63.95C56.0348 62.9833 56.5315 62.2333 57.2781 61.7C58.0248 61.1667 58.9948 60.9 60.1881 60.9C61.1748 60.9 62.0115 61.0867 62.6981 61.46C63.3915 61.8267 63.8815 62.36 64.1681 63.06C64.3015 63.3733 64.3881 63.7233 64.4281 64.11C64.4681 64.4967 64.4881 64.89 64.4881 65.29V72H63.1781V70.22C62.3248 71.6067 60.9548 72.3 59.0681 72.3ZM59.2381 71.03C60.2715 71.03 61.1015 70.76 61.7281 70.22C62.3615 69.68 62.7481 69.0033 62.8881 68.19C62.9481 67.9233 62.9848 67.6333 62.9981 67.32C63.0181 67 63.0281 66.7167 63.0281 66.47C62.3215 66.5567 61.5748 66.65 60.7881 66.75C60.0015 66.85 59.3115 66.98 58.7181 67.14C58.2581 67.2733 57.8315 67.4867 57.4381 67.78C57.0448 68.0733 56.8481 68.5133 56.8481 69.1C56.8481 69.4133 56.9248 69.7167 57.0781 70.01C57.2381 70.3033 57.4915 70.5467 57.8381 70.74C58.1915 70.9333 58.6581 71.03 59.2381 71.03ZM67.0914 72V61.2H68.4114V62.91C68.6514 62.49 68.9314 62.1567 69.2514 61.91C69.6781 61.5433 70.1914 61.3033 70.7914 61.19C71.3914 61.0767 71.9281 61.08 72.4014 61.2V62.58C72.0014 62.48 71.5681 62.4567 71.1014 62.51C70.6414 62.5633 70.2147 62.75 69.8214 63.07C69.2814 63.4967 68.9347 64.0333 68.7814 64.68C68.6347 65.32 68.5614 65.9633 68.5614 66.61V72H67.0914ZM78.5831 72.3C77.4965 72.3 76.5765 72.0567 75.8231 71.57C75.0765 71.0833 74.5065 70.4133 74.1131 69.56C73.7198 68.7 73.5165 67.7133 73.5031 66.6C73.5165 65.4667 73.7231 64.4733 74.1231 63.62C74.5231 62.76 75.0998 62.0933 75.8531 61.62C76.6065 61.14 77.5198 60.9 78.5931 60.9C79.6865 60.9 80.6365 61.1667 81.4431 61.7C82.2565 62.2333 82.8131 62.9633 83.1131 63.89L81.6731 64.35C81.4198 63.7033 81.0165 63.2033 80.4631 62.85C79.9165 62.49 79.2898 62.31 78.5831 62.31C77.3898 62.31 76.5065 62.71 75.9331 63.51C75.3665 64.31 75.0765 65.34 75.0631 66.6C75.0765 67.8933 75.3765 68.9333 75.9631 69.72C76.5498 70.5 77.4231 70.89 78.5831 70.89C80.0631 70.89 81.0798 70.23 81.6331 68.91L83.1131 69.35C82.7065 70.31 82.1165 71.0433 81.3431 71.55C80.5765 72.05 79.6565 72.3 78.5831 72.3ZM85.1673 72V57.6H86.4973V62.7C86.8973 62.12 87.4073 61.68 88.0273 61.38C88.654 61.08 89.354 60.93 90.1273 60.93C90.9407 60.93 91.624 61.0833 92.1773 61.39C92.7307 61.69 93.174 62.09 93.5073 62.59C93.8407 63.0833 94.0807 63.6333 94.2273 64.24C94.3807 64.8467 94.4573 65.4533 94.4573 66.06V72H92.9773V66.49C92.9773 65.6967 92.874 64.9867 92.6673 64.36C92.4607 63.7333 92.1273 63.24 91.6673 62.88C91.2073 62.5133 90.6007 62.33 89.8473 62.33C88.8073 62.33 88.014 62.6767 87.4673 63.37C86.9207 64.0633 86.6473 65.02 86.6473 66.24V72H85.1673Z" fill="#EA4C5E"/>
<path d="M101.583 65C101.583 66.4728 102.777 67.6667 104.25 67.6667C105.723 67.6667 106.917 66.4728 106.917 65C106.917 63.5272 105.723 62.3333 104.25 62.3333C102.777 62.3333 101.583 63.5272 101.583 65ZM164.25 65L159.25 62.1132V67.8868L164.25 65ZM104.25 65.5H106.125V64.5H104.25V65.5ZM109.875 65.5H113.625V64.5H109.875V65.5ZM117.375 65.5H121.125V64.5H117.375V65.5ZM124.875 65.5H128.625V64.5H124.875V65.5ZM132.375 65.5H136.125V64.5H132.375V65.5ZM139.875 65.5H143.625V64.5H139.875V65.5ZM147.375 65.5H151.125V64.5H147.375V65.5ZM154.875 65.5H158.625V64.5H154.875V65.5Z" fill="#EA7B4B"/>
<path d="M260.583 65C260.583 66.4728 261.777 67.6667 263.25 67.6667C264.723 67.6667 265.917 66.4728 265.917 65C265.917 63.5272 264.723 62.3333 263.25 62.3333C261.777 62.3333 260.583 63.5272 260.583 65ZM323.25 65L318.25 62.1132V67.8868L323.25 65ZM263.25 65.5H265.125V64.5H263.25V65.5ZM268.875 65.5H272.625V64.5H268.875V65.5ZM276.375 65.5H280.125V64.5H276.375V65.5ZM283.875 65.5H287.625V64.5H283.875V65.5ZM291.375 65.5H295.125V64.5H291.375V65.5ZM298.875 65.5H302.625V64.5H298.875V65.5ZM306.375 65.5H310.125V64.5H306.375V65.5ZM313.875 65.5H317.625V64.5H313.875V65.5Z" fill="#EA7B4B"/>
<path d="M542.583 65C542.583 66.4728 543.777 67.6667 545.25 67.6667C546.723 67.6667 547.917 66.4728 547.917 65C547.917 63.5272 546.723 62.3333 545.25 62.3333C543.777 62.3333 542.583 63.5272 542.583 65ZM645.25 65L640.25 62.1132V67.8868L645.25 65ZM545.25 65.5H547.173V64.5H545.25V65.5ZM551.019 65.5H554.865V64.5H551.019V65.5ZM558.712 65.5H562.558V64.5H558.712V65.5ZM566.404 65.5H570.25V64.5H566.404V65.5ZM574.096 65.5H577.942V64.5H574.096V65.5ZM581.788 65.5H585.635V64.5H581.788V65.5ZM589.481 65.5H593.327V64.5H589.481V65.5ZM597.173 65.5H601.019V64.5H597.173V65.5ZM604.865 65.5H608.712V64.5H604.865V65.5ZM612.558 65.5H616.404V64.5H612.558V65.5ZM620.25 65.5H624.096V64.5H620.25V65.5ZM627.942 65.5H631.788V64.5H627.942V65.5ZM635.635 65.5H639.481V64.5H635.635V65.5Z" fill="#EA7B4B"/>
<path d="M356.583 43C356.583 44.4728 357.777 45.6667 359.25 45.6667C360.723 45.6667 361.917 44.4728 361.917 43C361.917 41.5272 360.723 40.3333 359.25 40.3333C357.777 40.3333 356.583 41.5272 356.583 43ZM488.25 37.6545L490.918 32.5344L485.15 32.7841L488.25 37.6545ZM359.75 43C359.75 42.3673 359.772 41.7379 359.815 41.1122L358.818 41.0432C358.773 41.6918 358.75 42.3442 358.75 43H359.75ZM360.334 37.3749C360.592 36.1458 360.932 34.9334 361.352 33.74L360.409 33.4078C359.975 34.6417 359.622 35.8967 359.355 37.17L360.334 37.3749ZM362.829 30.2593C363.385 29.1419 364.013 28.0445 364.709 26.9694L363.869 26.4259C363.154 27.5313 362.507 28.6613 361.933 29.8136L362.829 30.2593ZM366.929 23.8993C367.709 22.9267 368.547 21.9762 369.44 21.0496L368.72 20.3556C367.807 21.3032 366.949 22.2765 366.149 23.2737L366.929 23.8993ZM372.193 18.4222C373.13 17.5973 374.113 16.7955 375.14 16.0182L374.537 15.2208C373.491 16.0124 372.489 16.8299 371.532 17.6716L372.193 18.4222ZM378.26 13.8216C379.307 13.1352 380.391 12.4722 381.509 11.8339L381.014 10.9653C379.878 11.6135 378.776 12.2873 377.711 12.9853L378.26 13.8216ZM384.879 10.0389C386.004 9.4795 387.16 8.94374 388.343 8.43277L387.946 7.51473C386.747 8.03263 385.576 8.57588 384.434 9.14335L384.879 10.0389ZM391.884 7.00881C393.065 6.56776 394.27 6.15043 395.497 5.75783L395.193 4.80538C393.95 5.20276 392.73 5.6253 391.534 6.072L391.884 7.00881ZM399.164 4.67699C400.381 4.34777 401.618 4.04225 402.872 3.76132L402.654 2.7855C401.385 3.06958 400.134 3.3786 398.903 3.71165L399.164 4.67699ZM406.621 3.00518C407.865 2.78119 409.126 2.58101 410.4 2.40544L410.263 1.4148C408.976 1.59222 407.702 1.79455 406.444 2.02098L406.621 3.00518ZM414.2 1.95957C415.458 1.83728 416.729 1.73879 418.011 1.66482L417.953 0.666485C416.658 0.741198 415.375 0.840698 414.103 0.964257L414.2 1.95957ZM421.832 1.5183C422.469 1.50613 423.109 1.5 423.75 1.5V0.5C423.102 0.5 422.457 0.506189 421.813 0.51848L421.832 1.5183ZM423.75 1.5C424.42 1.5 425.092 1.50653 425.765 1.51956L425.785 0.519746C425.105 0.506596 424.427 0.5 423.75 0.5V1.5ZM429.798 1.67424C431.138 1.75092 432.481 1.85273 433.822 1.97939L433.916 0.983821C432.562 0.856009 431.208 0.753256 429.855 0.675877L429.798 1.67424ZM437.832 2.4327C439.168 2.60864 440.499 2.8091 441.823 3.03376L441.99 2.04786C440.654 1.82111 439.31 1.61881 437.962 1.44126L437.832 2.4327ZM445.788 3.7839C447.11 4.06036 448.421 4.36131 449.719 4.68641L449.962 3.7164C448.652 3.38805 447.327 3.08416 445.992 2.80506L445.788 3.7839ZM453.612 5.74759C454.91 6.1311 456.191 6.53968 457.449 6.97294L457.774 6.02742C456.502 5.5892 455.207 5.17612 453.895 4.78853L453.612 5.74759ZM461.23 8.37698C462.491 8.88069 463.724 9.41075 464.925 9.96671L465.345 9.05924C464.127 8.49548 462.878 7.9584 461.601 7.44835L461.23 8.37698ZM468.529 11.7663C469.729 12.4118 470.887 13.0857 472.001 13.7877L472.534 12.9418C471.4 12.227 470.222 11.5415 469.003 10.8857L468.529 11.7663ZM475.309 16.0578C476.401 16.8751 477.435 17.7239 478.405 18.6035L479.077 17.8627C478.082 16.9607 477.024 16.092 475.908 15.2571L475.309 16.0578ZM481.215 21.4438C482.111 22.46 482.925 23.5106 483.651 24.595L484.482 24.0387C483.73 22.9152 482.888 21.8296 481.965 20.7826L481.215 21.4438ZM485.607 28.052C486.168 29.256 486.625 30.4964 486.971 31.7724L487.936 31.5107C487.575 30.1776 487.097 28.8835 486.513 27.6296L485.607 28.052ZM356.583 43C356.583 44.4728 357.777 45.6667 359.25 45.6667C360.723 45.6667 361.917 44.4728 361.917 43C361.917 41.5272 360.723 40.3333 359.25 40.3333C357.777 40.3333 356.583 41.5272 356.583 43ZM488.25 37.6545L490.918 32.5344L485.15 32.7841L488.25 37.6545ZM359.75 43C359.75 42.3673 359.772 41.7379 359.815 41.1122L358.818 41.0432C358.773 41.6918 358.75 42.3442 358.75 43H359.75ZM360.334 37.3749C360.592 36.1458 360.932 34.9334 361.352 33.74L360.409 33.4078C359.975 34.6417 359.622 35.8967 359.355 37.17L360.334 37.3749ZM362.829 30.2593C363.385 29.1419 364.013 28.0445 364.709 26.9694L363.869 26.4259C363.154 27.5313 362.507 28.6613 361.933 29.8136L362.829 30.2593ZM366.929 23.8993C367.709 22.9267 368.547 21.9762 369.44 21.0496L368.72 20.3556C367.807 21.3032 366.949 22.2765 366.149 23.2737L366.929 23.8993ZM372.193 18.4222C373.13 17.5973 374.113 16.7955 375.14 16.0182L374.537 15.2208C373.491 16.0124 372.489 16.8299 371.532 17.6716L372.193 18.4222ZM378.26 13.8216C379.307 13.1352 380.391 12.4722 381.509 11.8339L381.014 10.9653C379.878 11.6135 378.776 12.2873 377.711 12.9853L378.26 13.8216ZM384.879 10.0389C386.004 9.4795 387.16 8.94374 388.343 8.43277L387.946 7.51473C386.747 8.03263 385.576 8.57588 384.434 9.14335L384.879 10.0389ZM391.884 7.00881C393.065 6.56776 394.27 6.15043 395.497 5.75783L395.193 4.80538C393.95 5.20276 392.73 5.6253 391.534 6.072L391.884 7.00881ZM399.164 4.67699C400.381 4.34777 401.618 4.04225 402.872 3.76132L402.654 2.7855C401.385 3.06958 400.134 3.3786 398.903 3.71165L399.164 4.67699ZM406.621 3.00518C407.865 2.78119 409.126 2.58101 410.4 2.40544L410.263 1.4148C408.976 1.59222 407.702 1.79455 406.444 2.02098L406.621 3.00518ZM414.2 1.95957C415.458 1.83728 416.729 1.73879 418.011 1.66482L417.953 0.666485C416.658 0.741198 415.375 0.840698 414.103 0.964257L414.2 1.95957ZM421.832 1.5183C422.469 1.50613 423.109 1.5 423.75 1.5V0.5C423.102 0.5 422.457 0.506189 421.813 0.51848L421.832 1.5183ZM423.75 1.5C424.42 1.5 425.092 1.50653 425.765 1.51956L425.785 0.519746C425.105 0.506596 424.427 0.5 423.75 0.5V1.5ZM429.798 1.67424C431.138 1.75092 432.481 1.85273 433.822 1.97939L433.916 0.983821C432.562 0.856009 431.208 0.753256 429.855 0.675877L429.798 1.67424ZM437.832 2.4327C439.168 2.60864 440.499 2.8091 441.823 3.03376L441.99 2.04786C440.654 1.82111 439.31 1.61881 437.962 1.44126L437.832 2.4327ZM445.788 3.7839C447.11 4.06036 448.421 4.36131 449.719 4.68641L449.962 3.7164C448.652 3.38805 447.327 3.08416 445.992 2.80506L445.788 3.7839ZM453.612 5.74759C454.91 6.1311 456.191 6.53968 457.449 6.97294L457.774 6.02742C456.502 5.5892 455.207 5.17612 453.895 4.78853L453.612 5.74759ZM461.23 8.37698C462.491 8.88069 463.724 9.41075 464.925 9.96671L465.345 9.05924C464.127 8.49548 462.878 7.9584 461.601 7.44835L461.23 8.37698ZM468.529 11.7663C469.729 12.4118 470.887 13.0857 472.001 13.7877L472.534 12.9418C471.4 12.227 470.222 11.5415 469.003 10.8857L468.529 11.7663ZM475.309 16.0578C476.401 16.8751 477.435 17.7239 478.405 18.6035L479.077 17.8627C478.082 16.9607 477.024 16.092 475.908 15.2571L475.309 16.0578ZM481.215 21.4438C482.111 22.46 482.925 23.5106 483.651 24.595L484.482 24.0387C483.73 22.9152 482.888 21.8296 481.965 20.7826L481.215 21.4438ZM485.607 28.052C486.168 29.256 486.625 30.4964 486.971 31.7724L487.936 31.5107C487.575 30.1776 487.097 28.8835 486.513 27.6296L485.607 28.052Z" fill="#EA7B4B"/>
<path d="M493.917 86C493.917 84.5273 492.723 83.3333 491.25 83.3333C489.777 83.3333 488.583 84.5273 488.583 86C488.583 87.4728 489.777 88.6667 491.25 88.6667C492.723 88.6667 493.917 87.4728 493.917 86ZM362.25 91.3455L359.582 96.4656L365.35 96.2159L362.25 91.3455ZM490.75 86C490.75 86.6327 490.728 87.2621 490.685 87.8878L491.682 87.9568C491.727 87.3082 491.75 86.6558 491.75 86L490.75 86ZM490.166 91.6251C489.908 92.8542 489.568 94.0667 489.148 95.26L490.091 95.5922C490.525 94.3583 490.878 93.1034 491.145 91.83L490.166 91.6251ZM487.671 98.7407C487.115 99.8582 486.487 100.956 485.791 102.031L486.631 102.574C487.346 101.469 487.993 100.339 488.567 99.1864L487.671 98.7407ZM483.571 105.101C482.791 106.073 481.953 107.024 481.06 107.95L481.78 108.644C482.693 107.697 483.551 106.723 484.351 105.726L483.571 105.101ZM478.307 110.578C477.37 111.403 476.387 112.205 475.36 112.982L475.963 113.779C477.009 112.988 478.011 112.17 478.968 111.328L478.307 110.578ZM472.24 115.178C471.193 115.865 470.109 116.528 468.991 117.166L469.486 118.035C470.622 117.386 471.724 116.713 472.789 116.015L472.24 115.178ZM465.621 118.961C464.496 119.52 463.34 120.056 462.157 120.567L462.554 121.485C463.753 120.967 464.924 120.424 466.066 119.857L465.621 118.961ZM458.616 121.991C457.435 122.432 456.23 122.85 455.003 123.242L455.307 124.195C456.55 123.797 457.77 123.375 458.966 122.928L458.616 121.991ZM451.336 124.323C450.119 124.652 448.882 124.958 447.628 125.239L447.846 126.215C449.115 125.93 450.366 125.621 451.597 125.288L451.336 124.323ZM443.879 125.995C442.635 126.219 441.374 126.419 440.1 126.595L440.237 127.585C441.524 127.408 442.798 127.205 444.056 126.979L443.879 125.995ZM436.3 127.04C435.042 127.163 433.771 127.261 432.489 127.335L432.547 128.334C433.842 128.259 435.125 128.159 436.397 128.036L436.3 127.04ZM428.668 127.482C428.031 127.494 427.391 127.5 426.75 127.5L426.75 128.5C427.398 128.5 428.043 128.494 428.687 128.482L428.668 127.482ZM426.75 127.5C426.08 127.5 425.408 127.493 424.735 127.48L424.715 128.48C425.395 128.493 426.073 128.5 426.75 128.5L426.75 127.5ZM420.702 127.326C419.362 127.249 418.019 127.147 416.678 127.021L416.584 128.016C417.938 128.144 419.292 128.247 420.645 128.324L420.702 127.326ZM412.668 126.567C411.332 126.391 410.001 126.191 408.677 125.966L408.51 126.952C409.846 127.179 411.19 127.381 412.538 127.559L412.668 126.567ZM404.712 125.216C403.39 124.94 402.079 124.639 400.781 124.314L400.538 125.284C401.848 125.612 403.173 125.916 404.508 126.195L404.712 125.216ZM396.888 123.252C395.59 122.869 394.309 122.46 393.051 122.027L392.726 122.973C393.998 123.411 395.293 123.824 396.605 124.211L396.888 123.252ZM389.27 120.623C388.009 120.119 386.776 119.589 385.575 119.033L385.155 119.941C386.373 120.505 387.622 121.042 388.899 121.552L389.27 120.623ZM381.971 117.234C380.771 116.588 379.613 115.914 378.499 115.212L377.966 116.058C379.1 116.773 380.278 117.459 381.497 118.114L381.971 117.234ZM375.191 112.942C374.099 112.125 373.065 111.276 372.095 110.396L371.423 111.137C372.418 112.039 373.476 112.908 374.592 113.743L375.191 112.942ZM369.285 107.556C368.389 106.54 367.575 105.489 366.849 104.405L366.018 104.961C366.77 106.085 367.612 107.17 368.535 108.217L369.285 107.556ZM364.893 100.948C364.332 99.744 363.875 98.5036 363.529 97.2276L362.564 97.4893C362.925 98.8224 363.403 100.116 363.987 101.37L364.893 100.948ZM493.917 86C493.917 84.5273 492.723 83.3333 491.25 83.3333C489.777 83.3333 488.583 84.5273 488.583 86C488.583 87.4728 489.777 88.6667 491.25 88.6667C492.723 88.6667 493.917 87.4728 493.917 86ZM362.25 91.3455L359.582 96.4656L365.35 96.2159L362.25 91.3455ZM490.75 86C490.75 86.6327 490.728 87.2621 490.685 87.8878L491.682 87.9568C491.727 87.3082 491.75 86.6558 491.75 86L490.75 86ZM490.166 91.6251C489.908 92.8542 489.568 94.0667 489.148 95.26L490.091 95.5922C490.525 94.3583 490.878 93.1034 491.145 91.83L490.166 91.6251ZM487.671 98.7407C487.115 99.8582 486.487 100.956 485.791 102.031L486.631 102.574C487.346 101.469 487.993 100.339 488.567 99.1864L487.671 98.7407ZM483.571 105.101C482.791 106.073 481.953 107.024 481.06 107.95L481.78 108.644C482.693 107.697 483.551 106.723 484.351 105.726L483.571 105.101ZM478.307 110.578C477.37 111.403 476.387 112.205 475.36 112.982L475.963 113.779C477.009 112.988 478.011 112.17 478.968 111.328L478.307 110.578ZM472.24 115.178C471.193 115.865 470.109 116.528 468.991 117.166L469.486 118.035C470.622 117.386 471.724 116.713 472.789 116.015L472.24 115.178ZM465.621 118.961C464.496 119.52 463.34 120.056 462.157 120.567L462.554 121.485C463.753 120.967 464.924 120.424 466.066 119.857L465.621 118.961ZM458.616 121.991C457.435 122.432 456.23 122.85 455.003 123.242L455.307 124.195C456.55 123.797 457.77 123.375 458.966 122.928L458.616 121.991ZM451.336 124.323C450.119 124.652 448.882 124.958 447.628 125.239L447.846 126.215C449.115 125.93 450.366 125.621 451.597 125.288L451.336 124.323ZM443.879 125.995C442.635 126.219 441.374 126.419 440.1 126.595L440.237 127.585C441.524 127.408 442.798 127.205 444.056 126.979L443.879 125.995ZM436.3 127.04C435.042 127.163 433.771 127.261 432.489 127.335L432.547 128.334C433.842 128.259 435.125 128.159 436.397 128.036L436.3 127.04ZM428.668 127.482C428.031 127.494 427.391 127.5 426.75 127.5L426.75 128.5C427.398 128.5 428.043 128.494 428.687 128.482L428.668 127.482ZM426.75 127.5C426.08 127.5 425.408 127.493 424.735 127.48L424.715 128.48C425.395 128.493 426.073 128.5 426.75 128.5L426.75 127.5ZM420.702 127.326C419.362 127.249 418.019 127.147 416.678 127.021L416.584 128.016C417.938 128.144 419.292 128.247 420.645 128.324L420.702 127.326ZM412.668 126.567C411.332 126.391 410.001 126.191 408.677 125.966L408.51 126.952C409.846 127.179 411.19 127.381 412.538 127.559L412.668 126.567ZM404.712 125.216C403.39 124.94 402.079 124.639 400.781 124.314L400.538 125.284C401.848 125.612 403.173 125.916 404.508 126.195L404.712 125.216ZM396.888 123.252C395.59 122.869 394.309 122.46 393.051 122.027L392.726 122.973C393.998 123.411 395.293 123.824 396.605 124.211L396.888 123.252ZM389.27 120.623C388.009 120.119 386.776 119.589 385.575 119.033L385.155 119.941C386.373 120.505 387.622 121.042 388.899 121.552L389.27 120.623ZM381.971 117.234C380.771 116.588 379.613 115.914 378.499 115.212L377.966 116.058C379.1 116.773 380.278 117.459 381.497 118.114L381.971 117.234ZM375.191 112.942C374.099 112.125 373.065 111.276 372.095 110.396L371.423 111.137C372.418 112.039 373.476 112.908 374.592 113.743L375.191 112.942ZM369.285 107.556C368.389 106.54 367.575 105.489 366.849 104.405L366.018 104.961C366.77 106.085 367.612 107.17 368.535 108.217L369.285 107.556ZM364.893 100.948C364.332 99.744 363.875 98.5036 363.529 97.2276L362.564 97.4893C362.925 98.8224 363.403 100.116 363.987 101.37L364.893 100.948Z" fill="#EA7B4B"/>
<path d="M501.878 107V96.792L499.71 98.096V96.776L501.878 95.48H503.07V107H501.878ZM511.148 107L508.508 98.352L509.684 98.36L511.732 105.072L513.788 98.36H514.86L516.916 105.072L518.98 98.36H520.148L517.508 107H516.484L514.324 100.12L512.172 107H511.148ZM524.932 107.24C524.09 107.24 523.359 107.053 522.74 106.68C522.122 106.307 521.642 105.781 521.3 105.104C520.964 104.427 520.796 103.632 520.796 102.72C520.796 101.776 520.964 100.96 521.3 100.272C521.636 99.584 522.108 99.0533 522.716 98.68C523.33 98.3067 524.052 98.12 524.884 98.12C526.164 98.12 527.156 98.5547 527.86 99.424C528.57 100.288 528.903 101.483 528.86 103.008H522.052C522.1 104 522.37 104.765 522.86 105.304C523.351 105.843 524.026 106.112 524.884 106.112C526.143 106.112 527.047 105.557 527.596 104.448L528.692 104.872C528.351 105.624 527.847 106.208 527.18 106.624C526.519 107.035 525.77 107.24 524.932 107.24ZM524.916 99.2C524.084 99.2 523.426 99.4453 522.94 99.936C522.455 100.421 522.167 101.117 522.076 102.024H527.628C527.442 100.141 526.538 99.2 524.916 99.2ZM534.292 107.24C533.449 107.24 532.718 107.053 532.1 106.68C531.481 106.307 531.001 105.781 530.66 105.104C530.324 104.427 530.156 103.632 530.156 102.72C530.156 101.776 530.324 100.96 530.66 100.272C530.996 99.584 531.468 99.0533 532.076 98.68C532.689 98.3067 533.412 98.12 534.244 98.12C535.524 98.12 536.516 98.5547 537.22 99.424C537.929 100.288 538.262 101.483 538.22 103.008H531.412C531.46 104 531.729 104.765 532.22 105.304C532.71 105.843 533.385 106.112 534.244 106.112C535.502 106.112 536.406 105.557 536.956 104.448L538.052 104.872C537.71 105.624 537.206 106.208 536.54 106.624C535.878 107.035 535.129 107.24 534.292 107.24ZM534.276 99.2C533.444 99.2 532.785 99.4453 532.3 99.936C531.814 100.421 531.526 101.117 531.436 102.024H536.988C536.801 100.141 535.897 99.2 534.276 99.2ZM539.987 107L539.995 95.48H541.123V102.12L545.099 98.36H546.563L542.747 102.024L546.771 107H545.371L541.955 102.792L541.123 103.584V107H539.987Z" fill="#EA7B4B"/>
<path d="M720.878 107V96.792L718.71 98.096V96.776L720.878 95.48H722.07V107H720.878ZM730.148 107L727.508 98.352L728.684 98.36L730.732 105.072L732.788 98.36H733.86L735.916 105.072L737.98 98.36H739.148L736.508 107H735.484L733.324 100.12L731.172 107H730.148ZM743.932 107.24C743.09 107.24 742.359 107.053 741.74 106.68C741.122 106.307 740.642 105.781 740.3 105.104C739.964 104.427 739.796 103.632 739.796 102.72C739.796 101.776 739.964 100.96 740.3 100.272C740.636 99.584 741.108 99.0533 741.716 98.68C742.33 98.3067 743.052 98.12 743.884 98.12C745.164 98.12 746.156 98.5547 746.86 99.424C747.57 100.288 747.903 101.483 747.86 103.008H741.052C741.1 104 741.37 104.765 741.86 105.304C742.351 105.843 743.026 106.112 743.884 106.112C745.143 106.112 746.047 105.557 746.596 104.448L747.692 104.872C747.351 105.624 746.847 106.208 746.18 106.624C745.519 107.035 744.77 107.24 743.932 107.24ZM743.916 99.2C743.084 99.2 742.426 99.4453 741.94 99.936C741.455 100.421 741.167 101.117 741.076 102.024H746.628C746.442 100.141 745.538 99.2 743.916 99.2ZM753.292 107.24C752.449 107.24 751.718 107.053 751.1 106.68C750.481 106.307 750.001 105.781 749.66 105.104C749.324 104.427 749.156 103.632 749.156 102.72C749.156 101.776 749.324 100.96 749.66 100.272C749.996 99.584 750.468 99.0533 751.076 98.68C751.689 98.3067 752.412 98.12 753.244 98.12C754.524 98.12 755.516 98.5547 756.22 99.424C756.929 100.288 757.262 101.483 757.22 103.008H750.412C750.46 104 750.729 104.765 751.22 105.304C751.71 105.843 752.385 106.112 753.244 106.112C754.502 106.112 755.406 105.557 755.956 104.448L757.052 104.872C756.71 105.624 756.206 106.208 755.54 106.624C754.878 107.035 754.129 107.24 753.292 107.24ZM753.276 99.2C752.444 99.2 751.785 99.4453 751.3 99.936C750.814 100.421 750.526 101.117 750.436 102.024H755.988C755.801 100.141 754.897 99.2 753.276 99.2ZM758.987 107L758.995 95.48H760.123V102.12L764.099 98.36H765.563L761.747 102.024L765.771 107H764.371L760.955 102.792L760.123 103.584V107H758.987Z" fill="#EA7B4B"/>
<path d="M218.878 107V96.792L216.71 98.096V96.776L218.878 95.48H220.07V107H218.878ZM228.148 107L225.508 98.352L226.684 98.36L228.732 105.072L230.788 98.36H231.86L233.916 105.072L235.98 98.36H237.148L234.508 107H233.484L231.324 100.12L229.172 107H228.148ZM241.932 107.24C241.09 107.24 240.359 107.053 239.74 106.68C239.122 106.307 238.642 105.781 238.3 105.104C237.964 104.427 237.796 103.632 237.796 102.72C237.796 101.776 237.964 100.96 238.3 100.272C238.636 99.584 239.108 99.0533 239.716 98.68C240.33 98.3067 241.052 98.12 241.884 98.12C243.164 98.12 244.156 98.5547 244.86 99.424C245.57 100.288 245.903 101.483 245.86 103.008H239.052C239.1 104 239.37 104.765 239.86 105.304C240.351 105.843 241.026 106.112 241.884 106.112C243.143 106.112 244.047 105.557 244.596 104.448L245.692 104.872C245.351 105.624 244.847 106.208 244.18 106.624C243.519 107.035 242.77 107.24 241.932 107.24ZM241.916 99.2C241.084 99.2 240.426 99.4453 239.94 99.936C239.455 100.421 239.167 101.117 239.076 102.024H244.628C244.442 100.141 243.538 99.2 241.916 99.2ZM251.292 107.24C250.449 107.24 249.718 107.053 249.1 106.68C248.481 106.307 248.001 105.781 247.66 105.104C247.324 104.427 247.156 103.632 247.156 102.72C247.156 101.776 247.324 100.96 247.66 100.272C247.996 99.584 248.468 99.0533 249.076 98.68C249.689 98.3067 250.412 98.12 251.244 98.12C252.524 98.12 253.516 98.5547 254.22 99.424C254.929 100.288 255.262 101.483 255.22 103.008H248.412C248.46 104 248.729 104.765 249.22 105.304C249.71 105.843 250.385 106.112 251.244 106.112C252.502 106.112 253.406 105.557 253.956 104.448L255.052 104.872C254.71 105.624 254.206 106.208 253.54 106.624C252.878 107.035 252.129 107.24 251.292 107.24ZM251.276 99.2C250.444 99.2 249.785 99.4453 249.3 99.936C248.814 100.421 248.526 101.117 248.436 102.024H253.988C253.801 100.141 252.897 99.2 251.276 99.2ZM256.987 107L256.995 95.48H258.123V102.12L262.099 98.36H263.563L259.747 102.024L263.771 107H262.371L258.955 102.792L258.123 103.584V107H256.987Z" fill="#EA7B4B"/>
</svg>
