<svg width="748" height="121" viewBox="0 0 748 121" fill="none" xmlns="http://www.w3.org/2000/svg">
<rect x="172.25" y="43.5" width="91" height="34" rx="17" fill="#2D4F8F"/>
<rect x="172.25" y="43.5" width="91" height="34" rx="17" stroke="#12223C"/>
<path d="M181.35 68V53.6H182.82V68H181.35ZM190.008 68.3C189.001 68.3 188.138 68.05 187.418 67.55C186.705 67.0433 186.158 66.36 185.778 65.5C185.405 64.64 185.218 63.67 185.218 62.59C185.218 61.5167 185.405 60.55 185.778 59.69C186.158 58.83 186.701 58.15 187.408 57.65C188.115 57.15 188.961 56.9 189.948 56.9C190.701 56.9 191.365 57.04 191.938 57.32C192.511 57.6 192.995 57.9867 193.388 58.48V53.6H194.868V68H193.548V66.5C193.155 67.06 192.661 67.5 192.068 67.82C191.481 68.14 190.795 68.3 190.008 68.3ZM190.158 66.93C190.925 66.93 191.558 66.7433 192.058 66.37C192.558 65.99 192.931 65.4733 193.178 64.82C193.425 64.1667 193.548 63.4233 193.548 62.59C193.548 61.3233 193.268 60.2867 192.708 59.48C192.155 58.6733 191.315 58.27 190.188 58.27C189.415 58.27 188.775 58.46 188.268 58.84C187.768 59.22 187.395 59.7367 187.148 60.39C186.901 61.0433 186.778 61.7767 186.778 62.59C186.778 63.41 186.901 64.1467 187.148 64.8C187.401 65.4533 187.778 65.9733 188.278 66.36C188.778 66.74 189.405 66.93 190.158 66.93ZM202.243 68.3C201.19 68.3 200.277 68.0667 199.503 67.6C198.73 67.1333 198.13 66.4767 197.703 65.63C197.283 64.7833 197.073 63.79 197.073 62.65C197.073 61.47 197.283 60.45 197.703 59.59C198.123 58.73 198.713 58.0667 199.473 57.6C200.24 57.1333 201.143 56.9 202.183 56.9C203.783 56.9 205.023 57.4433 205.903 58.53C206.79 59.61 207.207 61.1033 207.153 63.01H198.643C198.703 64.25 199.04 65.2067 199.653 65.88C200.267 66.5533 201.11 66.89 202.183 66.89C203.757 66.89 204.887 66.1967 205.573 64.81L206.943 65.34C206.517 66.28 205.887 67.01 205.053 67.53C204.227 68.0433 203.29 68.3 202.243 68.3ZM202.223 58.25C201.183 58.25 200.36 58.5567 199.753 59.17C199.147 59.7767 198.787 60.6467 198.673 61.78H205.613C205.38 59.4267 204.25 58.25 202.223 58.25ZM212.267 68.3C211.454 68.3 210.771 68.1533 210.217 67.86C209.671 67.5667 209.261 67.1767 208.987 66.69C208.714 66.2033 208.577 65.6733 208.577 65.1C208.577 64.2133 208.834 63.5233 209.347 63.03C209.861 62.53 210.521 62.1733 211.327 61.96C211.814 61.84 212.347 61.7333 212.927 61.64C213.507 61.5467 214.084 61.4633 214.657 61.39C215.237 61.3167 215.767 61.25 216.247 61.19C216.234 60.21 216.007 59.4833 215.567 59.01C215.127 58.53 214.394 58.29 213.367 58.29C212.627 58.29 212.001 58.4567 211.487 58.79C210.981 59.1233 210.624 59.65 210.417 60.37L208.987 59.95C209.234 58.9833 209.731 58.2333 210.477 57.7C211.224 57.1667 212.194 56.9 213.387 56.9C214.374 56.9 215.211 57.0867 215.897 57.46C216.591 57.8267 217.081 58.36 217.367 59.06C217.501 59.3733 217.587 59.7233 217.627 60.11C217.667 60.4967 217.687 60.89 217.687 61.29V68H216.377V66.22C215.524 67.6067 214.154 68.3 212.267 68.3ZM212.437 67.03C213.471 67.03 214.301 66.76 214.927 66.22C215.561 65.68 215.947 65.0033 216.087 64.19C216.147 63.9233 216.184 63.6333 216.197 63.32C216.217 63 216.227 62.7167 216.227 62.47C215.521 62.5567 214.774 62.65 213.987 62.75C213.201 62.85 212.511 62.98 211.917 63.14C211.457 63.2733 211.031 63.4867 210.637 63.78C210.244 64.0733 210.047 64.5133 210.047 65.1C210.047 65.4133 210.124 65.7167 210.277 66.01C210.437 66.3033 210.691 66.5467 211.037 66.74C211.391 66.9333 211.857 67.03 212.437 67.03ZM226.171 68C225.564 68.1267 224.964 68.1767 224.371 68.15C223.784 68.1233 223.257 67.9967 222.791 67.77C222.331 67.5433 221.981 67.19 221.741 66.71C221.547 66.3167 221.441 65.9133 221.421 65.5C221.407 65.0867 221.401 64.6167 221.401 64.09V58.46H219.091V57.2H221.401V54.2H222.861V57.2H226.171V58.46H222.861V64.03C222.861 64.4833 222.864 64.8633 222.871 65.17C222.884 65.47 222.954 65.7367 223.081 65.97C223.321 66.4167 223.701 66.6833 224.221 66.77C224.747 66.8567 225.397 66.8367 226.171 66.71V68ZM228.498 68V57.2H229.968V68H228.498ZM229.228 55.34C228.942 55.34 228.698 55.2433 228.498 55.05C228.305 54.85 228.208 54.61 228.208 54.33C228.208 54.0433 228.305 53.8033 228.498 53.61C228.698 53.41 228.942 53.31 229.228 53.31C229.522 53.31 229.765 53.41 229.958 53.61C230.158 53.8033 230.258 54.0433 230.258 54.33C230.258 54.61 230.158 54.85 229.958 55.05C229.765 55.2433 229.522 55.34 229.228 55.34ZM237.476 68.3C236.403 68.3 235.486 68.0567 234.726 67.57C233.966 67.0833 233.383 66.41 232.976 65.55C232.57 64.69 232.366 63.7033 232.366 62.59C232.366 61.4567 232.573 60.4633 232.986 59.61C233.4 58.7567 233.986 58.0933 234.746 57.62C235.513 57.14 236.423 56.9 237.476 56.9C238.556 56.9 239.476 57.1433 240.236 57.63C241.003 58.11 241.586 58.78 241.986 59.64C242.393 60.4933 242.596 61.4767 242.596 62.59C242.596 63.7233 242.393 64.72 241.986 65.58C241.58 66.4333 240.993 67.1 240.226 67.58C239.46 68.06 238.543 68.3 237.476 68.3ZM237.476 66.89C238.676 66.89 239.57 66.4933 240.156 65.7C240.743 64.9 241.036 63.8633 241.036 62.59C241.036 61.29 240.74 60.2533 240.146 59.48C239.553 58.7 238.663 58.31 237.476 58.31C236.27 58.31 235.376 58.71 234.796 59.51C234.216 60.3033 233.926 61.33 233.926 62.59C233.926 63.89 234.226 64.9333 234.826 65.72C235.426 66.5 236.31 66.89 237.476 66.89ZM244.792 68V57.2H246.122V58.7C246.522 58.12 247.032 57.68 247.652 57.38C248.279 57.08 248.979 56.93 249.752 56.93C250.566 56.93 251.249 57.0833 251.802 57.39C252.356 57.69 252.799 58.09 253.132 58.59C253.466 59.0833 253.706 59.6333 253.852 60.24C254.006 60.8467 254.082 61.4533 254.082 62.06V68H252.602V62.49C252.602 61.6967 252.499 60.9867 252.292 60.36C252.086 59.7333 251.752 59.24 251.292 58.88C250.832 58.5133 250.226 58.33 249.472 58.33C248.432 58.33 247.639 58.6767 247.092 59.37C246.546 60.0633 246.272 61.02 246.272 62.24V68H244.792Z" fill="#F7F5F5"/>
<rect x="331.25" y="43.5" width="56" height="34" rx="17" fill="#317463"/>
<rect x="331.25" y="43.5" width="56" height="34" rx="17" stroke="#12223C"/>
<path d="M343.98 68V55.01H338.95V53.6H350.48V55.01H345.45V68H343.98ZM355.052 68.3C353.999 68.3 353.085 68.0667 352.312 67.6C351.539 67.1333 350.939 66.4767 350.512 65.63C350.092 64.7833 349.882 63.79 349.882 62.65C349.882 61.47 350.092 60.45 350.512 59.59C350.932 58.73 351.522 58.0667 352.282 57.6C353.049 57.1333 353.952 56.9 354.992 56.9C356.592 56.9 357.832 57.4433 358.712 58.53C359.599 59.61 360.015 61.1033 359.962 63.01H351.452C351.512 64.25 351.849 65.2067 352.462 65.88C353.075 66.5533 353.919 66.89 354.992 66.89C356.565 66.89 357.695 66.1967 358.382 64.81L359.752 65.34C359.325 66.28 358.695 67.01 357.862 67.53C357.035 68.0433 356.099 68.3 355.052 68.3ZM355.032 58.25C353.992 58.25 353.169 58.5567 352.562 59.17C351.955 59.7767 351.595 60.6467 351.482 61.78H358.422C358.189 59.4267 357.059 58.25 355.032 58.25ZM366.211 68.29C364.945 68.29 363.901 68.0167 363.081 67.47C362.268 66.9233 361.768 66.1633 361.581 65.19L363.081 64.94C363.241 65.56 363.605 66.05 364.171 66.41C364.745 66.77 365.451 66.95 366.291 66.95C367.111 66.95 367.758 66.78 368.231 66.44C368.705 66.0933 368.941 65.6233 368.941 65.03C368.941 64.6967 368.865 64.4267 368.711 64.22C368.558 64.0067 368.251 63.81 367.791 63.63C367.338 63.45 366.655 63.2367 365.741 62.99C364.761 62.7233 363.991 62.4567 363.431 62.19C362.878 61.9233 362.485 61.6167 362.251 61.27C362.025 60.9167 361.911 60.4867 361.911 59.98C361.911 59.06 362.288 58.3167 363.041 57.75C363.801 57.1833 364.791 56.9 366.011 56.9C366.825 56.9 367.551 57.0333 368.191 57.3C368.838 57.56 369.358 57.9267 369.751 58.4C370.145 58.8733 370.378 59.4233 370.451 60.05L368.951 60.32C368.845 59.6867 368.528 59.1867 368.001 58.82C367.475 58.4467 366.805 58.2533 365.991 58.24C365.225 58.22 364.601 58.3667 364.121 58.68C363.641 58.9867 363.401 59.3967 363.401 59.91C363.401 60.1967 363.488 60.4433 363.661 60.65C363.835 60.85 364.148 61.04 364.601 61.22C365.061 61.4 365.715 61.5967 366.561 61.81C367.555 62.0633 368.335 62.33 368.901 62.61C369.468 62.89 369.871 63.22 370.111 63.6C370.351 63.98 370.471 64.45 370.471 65.01C370.471 66.03 370.091 66.8333 369.331 67.42C368.578 68 367.538 68.29 366.211 68.29ZM378.569 68C377.962 68.1267 377.362 68.1767 376.769 68.15C376.182 68.1233 375.656 67.9967 375.189 67.77C374.729 67.5433 374.379 67.19 374.139 66.71C373.946 66.3167 373.839 65.9133 373.819 65.5C373.806 65.0867 373.799 64.6167 373.799 64.09V58.46H371.489V57.2H373.799V54.2H375.259V57.2H378.569V58.46H375.259V64.03C375.259 64.4833 375.262 64.8633 375.269 65.17C375.282 65.47 375.352 65.7367 375.479 65.97C375.719 66.4167 376.099 66.6833 376.619 66.77C377.146 66.8567 377.796 66.8367 378.569 66.71V68Z" fill="#F7F5F5"/>
<rect x="437.25" y="43.5" width="108" height="34" rx="17" fill="#317463"/>
<rect x="437.25" y="43.5" width="108" height="34" rx="17" stroke="#12223C"/>
<path d="M446.15 68V53.6H451.71C451.85 53.6 452.007 53.6067 452.18 53.62C452.36 53.6267 452.54 53.6467 452.72 53.68C453.847 53.8533 454.713 54.3467 455.32 55.16C455.927 55.9733 456.23 56.9433 456.23 58.07C456.23 59.19 455.923 60.1567 455.31 60.97C454.703 61.7833 453.84 62.2767 452.72 62.45C452.54 62.4833 452.36 62.5067 452.18 62.52C452.007 62.5267 451.85 62.53 451.71 62.53H447.62V68H446.15ZM447.62 61.13H451.67C451.79 61.13 451.93 61.1233 452.09 61.11C452.25 61.0967 452.407 61.0733 452.56 61.04C453.3 60.88 453.843 60.5133 454.19 59.94C454.543 59.36 454.72 58.7367 454.72 58.07C454.72 57.3967 454.543 56.7733 454.19 56.2C453.843 55.62 453.3 55.25 452.56 55.09C452.407 55.0567 452.25 55.0367 452.09 55.03C451.93 55.0167 451.79 55.01 451.67 55.01H447.62V61.13ZM458.22 68V57.2H459.54V58.91C459.78 58.49 460.06 58.1567 460.38 57.91C460.807 57.5433 461.32 57.3033 461.92 57.19C462.52 57.0767 463.057 57.08 463.53 57.2V58.58C463.13 58.48 462.697 58.4567 462.23 58.51C461.77 58.5633 461.344 58.75 460.95 59.07C460.41 59.4967 460.064 60.0333 459.91 60.68C459.764 61.32 459.69 61.9633 459.69 62.61V68H458.22ZM469.742 68.3C468.669 68.3 467.752 68.0567 466.992 67.57C466.232 67.0833 465.649 66.41 465.242 65.55C464.835 64.69 464.632 63.7033 464.632 62.59C464.632 61.4567 464.839 60.4633 465.252 59.61C465.665 58.7567 466.252 58.0933 467.012 57.62C467.779 57.14 468.689 56.9 469.742 56.9C470.822 56.9 471.742 57.1433 472.502 57.63C473.269 58.11 473.852 58.78 474.252 59.64C474.659 60.4933 474.862 61.4767 474.862 62.59C474.862 63.7233 474.659 64.72 474.252 65.58C473.845 66.4333 473.259 67.1 472.492 67.58C471.725 68.06 470.809 68.3 469.742 68.3ZM469.742 66.89C470.942 66.89 471.835 66.4933 472.422 65.7C473.009 64.9 473.302 63.8633 473.302 62.59C473.302 61.29 473.005 60.2533 472.412 59.48C471.819 58.7 470.929 58.31 469.742 58.31C468.535 58.31 467.642 58.71 467.062 59.51C466.482 60.3033 466.192 61.33 466.192 62.59C466.192 63.89 466.492 64.9333 467.092 65.72C467.692 66.5 468.575 66.89 469.742 66.89ZM482.948 68C482.341 68.1267 481.741 68.1767 481.148 68.15C480.561 68.1233 480.035 67.9967 479.568 67.77C479.108 67.5433 478.758 67.19 478.518 66.71C478.325 66.3167 478.218 65.9133 478.198 65.5C478.185 65.0867 478.178 64.6167 478.178 64.09V58.46H475.868V57.2H478.178V54.2H479.638V57.2H482.948V58.46H479.638V64.03C479.638 64.4833 479.641 64.8633 479.648 65.17C479.661 65.47 479.731 65.7367 479.858 65.97C480.098 66.4167 480.478 66.6833 480.998 66.77C481.525 66.8567 482.175 66.8367 482.948 66.71V68ZM489.195 68.3C488.122 68.3 487.205 68.0567 486.445 67.57C485.685 67.0833 485.102 66.41 484.695 65.55C484.288 64.69 484.085 63.7033 484.085 62.59C484.085 61.4567 484.292 60.4633 484.705 59.61C485.118 58.7567 485.705 58.0933 486.465 57.62C487.232 57.14 488.142 56.9 489.195 56.9C490.275 56.9 491.195 57.1433 491.955 57.63C492.722 58.11 493.305 58.78 493.705 59.64C494.112 60.4933 494.315 61.4767 494.315 62.59C494.315 63.7233 494.112 64.72 493.705 65.58C493.298 66.4333 492.712 67.1 491.945 67.58C491.178 68.06 490.262 68.3 489.195 68.3ZM489.195 66.89C490.395 66.89 491.288 66.4933 491.875 65.7C492.462 64.9 492.755 63.8633 492.755 62.59C492.755 61.29 492.458 60.2533 491.865 59.48C491.272 58.7 490.382 58.31 489.195 58.31C487.988 58.31 487.095 58.71 486.515 59.51C485.935 60.3033 485.645 61.33 485.645 62.59C485.645 63.89 485.945 64.9333 486.545 65.72C487.145 66.5 488.028 66.89 489.195 66.89ZM502.401 68C501.794 68.1267 501.194 68.1767 500.601 68.15C500.014 68.1233 499.488 67.9967 499.021 67.77C498.561 67.5433 498.211 67.19 497.971 66.71C497.778 66.3167 497.671 65.9133 497.651 65.5C497.638 65.0867 497.631 64.6167 497.631 64.09V58.46H495.321V57.2H497.631V54.2H499.091V57.2H502.401V58.46H499.091V64.03C499.091 64.4833 499.094 64.8633 499.101 65.17C499.114 65.47 499.184 65.7367 499.311 65.97C499.551 66.4167 499.931 66.6833 500.451 66.77C500.978 66.8567 501.628 66.8367 502.401 66.71V68ZM505.776 72.8L507.556 67.98L503.166 57.2H504.726L508.266 66.08L511.546 57.2H513.046L507.246 72.8H505.776ZM514.773 72.8V57.2H516.093V58.68C516.486 58.1267 516.983 57.6933 517.583 57.38C518.189 57.06 518.893 56.9 519.693 56.9C520.679 56.9 521.526 57.15 522.233 57.65C522.939 58.15 523.479 58.83 523.853 59.69C524.233 60.55 524.423 61.5167 524.423 62.59C524.423 63.67 524.233 64.64 523.853 65.5C523.479 66.36 522.933 67.0433 522.213 67.55C521.499 68.05 520.639 68.3 519.633 68.3C518.899 68.3 518.249 68.16 517.683 67.88C517.116 67.5933 516.639 67.2033 516.253 66.71V72.8H514.773ZM519.483 66.93C520.236 66.93 520.863 66.74 521.363 66.36C521.863 65.9733 522.236 65.4533 522.483 64.8C522.736 64.1467 522.863 63.41 522.863 62.59C522.863 61.7767 522.739 61.0433 522.493 60.39C522.246 59.7367 521.869 59.22 521.363 58.84C520.863 58.46 520.226 58.27 519.453 58.27C518.326 58.27 517.483 58.6733 516.923 59.48C516.369 60.2867 516.093 61.3233 516.093 62.59C516.093 63.4233 516.216 64.1667 516.463 64.82C516.709 65.4733 517.083 65.99 517.583 66.37C518.083 66.7433 518.716 66.93 519.483 66.93ZM531.189 68.3C530.135 68.3 529.222 68.0667 528.449 67.6C527.675 67.1333 527.075 66.4767 526.649 65.63C526.229 64.7833 526.019 63.79 526.019 62.65C526.019 61.47 526.229 60.45 526.649 59.59C527.069 58.73 527.659 58.0667 528.419 57.6C529.185 57.1333 530.089 56.9 531.129 56.9C532.729 56.9 533.969 57.4433 534.849 58.53C535.735 59.61 536.152 61.1033 536.099 63.01H527.589C527.649 64.25 527.985 65.2067 528.599 65.88C529.212 66.5533 530.055 66.89 531.129 66.89C532.702 66.89 533.832 66.1967 534.519 64.81L535.889 65.34C535.462 66.28 534.832 67.01 533.999 67.53C533.172 68.0433 532.235 68.3 531.189 68.3ZM531.169 58.25C530.129 58.25 529.305 58.5567 528.699 59.17C528.092 59.7767 527.732 60.6467 527.619 61.78H534.559C534.325 59.4267 533.195 58.25 531.169 58.25Z" fill="#F7F5F5"/>
<rect x="653.25" y="43.5" width="93" height="34" rx="17" fill="#EBBE4B"/>
<rect x="653.25" y="43.5" width="93" height="34" rx="17" stroke="black"/>
<path d="M662.15 68V53.6H666.66C666.793 53.6 667.04 53.6033 667.4 53.61C667.76 53.6167 668.11 53.6433 668.45 53.69C669.577 53.83 670.523 54.2333 671.29 54.9C672.063 55.5667 672.647 56.4133 673.04 57.44C673.433 58.46 673.63 59.58 673.63 60.8C673.63 62.0267 673.433 63.1533 673.04 64.18C672.647 65.2 672.063 66.0433 671.29 66.71C670.523 67.37 669.577 67.77 668.45 67.91C668.117 67.9567 667.767 67.9833 667.4 67.99C667.033 67.9967 666.787 68 666.66 68H662.15ZM664.29 66.01H666.66C666.887 66.01 667.157 66.0067 667.47 66C667.783 65.9867 668.06 65.9567 668.3 65.91C669.033 65.77 669.627 65.4533 670.08 64.96C670.54 64.46 670.877 63.8467 671.09 63.12C671.303 62.3933 671.41 61.62 671.41 60.8C671.41 59.9533 671.3 59.17 671.08 58.45C670.86 57.7233 670.52 57.1167 670.06 56.63C669.607 56.1367 669.02 55.8233 668.3 55.69C668.06 55.6433 667.78 55.6167 667.46 55.61C667.147 55.5967 666.88 55.59 666.66 55.59H664.29V66.01ZM680.749 68.3C679.675 68.3 678.732 68.0667 677.919 67.6C677.112 67.1267 676.482 66.47 676.029 65.63C675.582 64.7833 675.359 63.8033 675.359 62.69C675.359 61.51 675.579 60.4867 676.019 59.62C676.465 58.7533 677.085 58.0833 677.879 57.61C678.672 57.1367 679.595 56.9 680.649 56.9C681.749 56.9 682.685 57.1567 683.459 57.67C684.232 58.1767 684.809 58.9 685.189 59.84C685.569 60.78 685.722 61.8967 685.649 63.19H677.599C677.685 64.19 677.985 64.9633 678.499 65.51C679.019 66.0567 679.735 66.33 680.649 66.33C681.975 66.33 682.912 65.7567 683.459 64.61L685.509 65.26C685.089 66.2267 684.452 66.9767 683.599 67.51C682.745 68.0367 681.795 68.3 680.749 68.3ZM680.729 58.75C678.949 58.75 677.922 59.6867 677.649 61.56H683.509C683.295 59.6867 682.369 58.75 680.729 58.75ZM688.092 68V53.3H690.182V68H688.092ZM693.385 68V57.2H695.475V68H693.385ZM694.435 55.72C694.062 55.72 693.748 55.5933 693.495 55.34C693.248 55.0867 693.125 54.78 693.125 54.42C693.125 54.0533 693.248 53.7467 693.495 53.5C693.748 53.2467 694.062 53.12 694.435 53.12C694.808 53.12 695.118 53.2467 695.365 53.5C695.612 53.7467 695.735 54.0533 695.735 54.42C695.735 54.78 695.612 55.0867 695.365 55.34C695.118 55.5933 694.808 55.72 694.435 55.72ZM701.398 68L697.478 57.2H699.588L702.458 65.38L705.328 57.2H707.438L703.518 68H701.398ZM713.639 68.3C712.566 68.3 711.623 68.0667 710.809 67.6C710.003 67.1267 709.373 66.47 708.919 65.63C708.473 64.7833 708.249 63.8033 708.249 62.69C708.249 61.51 708.469 60.4867 708.909 59.62C709.356 58.7533 709.976 58.0833 710.769 57.61C711.563 57.1367 712.486 56.9 713.539 56.9C714.639 56.9 715.576 57.1567 716.349 57.67C717.123 58.1767 717.699 58.9 718.079 59.84C718.459 60.78 718.613 61.8967 718.539 63.19H710.489C710.576 64.19 710.876 64.9633 711.389 65.51C711.909 66.0567 712.626 66.33 713.539 66.33C714.866 66.33 715.803 65.7567 716.349 64.61L718.399 65.26C717.979 66.2267 717.343 66.9767 716.489 67.51C715.636 68.0367 714.686 68.3 713.639 68.3ZM713.619 58.75C711.839 58.75 710.813 59.6867 710.539 61.56H716.399C716.186 59.6867 715.259 58.75 713.619 58.75ZM720.783 68V57.2H722.643V58.92C722.909 58.4467 723.243 58.0767 723.643 57.81C724.049 57.51 724.523 57.31 725.063 57.21C725.609 57.11 726.126 57.1067 726.613 57.2V59.16C726.259 59.0667 725.866 59.04 725.433 59.08C725.006 59.12 724.613 59.2567 724.253 59.49C723.746 59.8167 723.393 60.25 723.193 60.79C722.993 61.33 722.893 61.9167 722.893 62.55V68H720.783ZM729.704 72.8L731.484 67.95L727.114 57.2H729.294L732.494 65.31L735.534 57.2H737.654L731.694 72.8H729.704Z" fill="#12223C"/>
<rect x="1.25" y="43.5" width="103" height="34" rx="17" fill="#2D4F8F"/>
<rect x="1.25" y="43.5" width="103" height="34" rx="17" stroke="#12223C"/>
<path d="M10.15 68V53.6H15.71C15.85 53.6 16.0067 53.6067 16.18 53.62C16.36 53.6267 16.54 53.6467 16.72 53.68C17.8467 53.8533 18.7133 54.3233 19.32 55.09C19.9267 55.8567 20.23 56.76 20.23 57.8C20.23 58.6933 19.97 59.5167 19.45 60.27C18.9367 61.0233 18.2033 61.5333 17.25 61.8L20.46 68H18.76L15.67 62H11.62V68H10.15ZM11.62 60.59H15.67C15.79 60.59 15.93 60.5867 16.09 60.58C16.2567 60.5733 16.4133 60.55 16.56 60.51C17.3 60.3167 17.8433 59.9633 18.19 59.45C18.5433 58.9367 18.72 58.3867 18.72 57.8C18.72 57.2133 18.5433 56.6567 18.19 56.13C17.8433 55.5967 17.3 55.25 16.56 55.09C16.4067 55.0567 16.25 55.0367 16.09 55.03C15.93 55.0167 15.79 55.01 15.67 55.01H11.62V60.59ZM27.3372 68.3C26.2839 68.3 25.3705 68.0667 24.5972 67.6C23.8239 67.1333 23.2239 66.4767 22.7972 65.63C22.3772 64.7833 22.1672 63.79 22.1672 62.65C22.1672 61.47 22.3772 60.45 22.7972 59.59C23.2172 58.73 23.8072 58.0667 24.5672 57.6C25.3339 57.1333 26.2372 56.9 27.2772 56.9C28.8772 56.9 30.1172 57.4433 30.9972 58.53C31.8839 59.61 32.3005 61.1033 32.2472 63.01H23.7372C23.7972 64.25 24.1339 65.2067 24.7472 65.88C25.3605 66.5533 26.2039 66.89 27.2772 66.89C28.8505 66.89 29.9805 66.1967 30.6672 64.81L32.0372 65.34C31.6105 66.28 30.9805 67.01 30.1472 67.53C29.3205 68.0433 28.3839 68.3 27.3372 68.3ZM27.3172 58.25C26.2772 58.25 25.4539 58.5567 24.8472 59.17C24.2405 59.7767 23.8805 60.6467 23.7672 61.78H30.7072C30.4739 59.4267 29.3439 58.25 27.3172 58.25ZM38.4964 68.29C37.2297 68.29 36.1864 68.0167 35.3664 67.47C34.5531 66.9233 34.0531 66.1633 33.8664 65.19L35.3664 64.94C35.5264 65.56 35.8897 66.05 36.4564 66.41C37.0297 66.77 37.7364 66.95 38.5764 66.95C39.3964 66.95 40.0431 66.78 40.5164 66.44C40.9897 66.0933 41.2264 65.6233 41.2264 65.03C41.2264 64.6967 41.1497 64.4267 40.9964 64.22C40.8431 64.0067 40.5364 63.81 40.0764 63.63C39.6231 63.45 38.9397 63.2367 38.0264 62.99C37.0464 62.7233 36.2764 62.4567 35.7164 62.19C35.1631 61.9233 34.7697 61.6167 34.5364 61.27C34.3097 60.9167 34.1964 60.4867 34.1964 59.98C34.1964 59.06 34.5731 58.3167 35.3264 57.75C36.0864 57.1833 37.0764 56.9 38.2964 56.9C39.1097 56.9 39.8364 57.0333 40.4764 57.3C41.1231 57.56 41.6431 57.9267 42.0364 58.4C42.4297 58.8733 42.6631 59.4233 42.7364 60.05L41.2364 60.32C41.1297 59.6867 40.8131 59.1867 40.2864 58.82C39.7597 58.4467 39.0897 58.2533 38.2764 58.24C37.5097 58.22 36.8864 58.3667 36.4064 58.68C35.9264 58.9867 35.6864 59.3967 35.6864 59.91C35.6864 60.1967 35.7731 60.4433 35.9464 60.65C36.1197 60.85 36.4331 61.04 36.8864 61.22C37.3464 61.4 37.9997 61.5967 38.8464 61.81C39.8397 62.0633 40.6197 62.33 41.1864 62.61C41.7531 62.89 42.1564 63.22 42.3964 63.6C42.6364 63.98 42.7564 64.45 42.7564 65.01C42.7564 66.03 42.3764 66.8333 41.6164 67.42C40.8631 68 39.8231 68.29 38.4964 68.29ZM49.5442 68.3C48.4909 68.3 47.5776 68.0667 46.8042 67.6C46.0309 67.1333 45.4309 66.4767 45.0042 65.63C44.5842 64.7833 44.3742 63.79 44.3742 62.65C44.3742 61.47 44.5842 60.45 45.0042 59.59C45.4242 58.73 46.0142 58.0667 46.7742 57.6C47.5409 57.1333 48.4442 56.9 49.4842 56.9C51.0842 56.9 52.3242 57.4433 53.2042 58.53C54.0909 59.61 54.5076 61.1033 54.4542 63.01H45.9442C46.0042 64.25 46.3409 65.2067 46.9542 65.88C47.5676 66.5533 48.4109 66.89 49.4842 66.89C51.0576 66.89 52.1876 66.1967 52.8742 64.81L54.2442 65.34C53.8176 66.28 53.1876 67.01 52.3542 67.53C51.5276 68.0433 50.5909 68.3 49.5442 68.3ZM49.5242 58.25C48.4842 58.25 47.6609 58.5567 47.0542 59.17C46.4476 59.7767 46.0876 60.6467 45.9742 61.78H52.9142C52.6809 59.4267 51.5509 58.25 49.5242 58.25ZM59.5681 68.3C58.7548 68.3 58.0715 68.1533 57.5181 67.86C56.9715 67.5667 56.5615 67.1767 56.2881 66.69C56.0148 66.2033 55.8781 65.6733 55.8781 65.1C55.8781 64.2133 56.1348 63.5233 56.6481 63.03C57.1615 62.53 57.8215 62.1733 58.6281 61.96C59.1148 61.84 59.6481 61.7333 60.2281 61.64C60.8081 61.5467 61.3848 61.4633 61.9581 61.39C62.5381 61.3167 63.0681 61.25 63.5481 61.19C63.5348 60.21 63.3081 59.4833 62.8681 59.01C62.4281 58.53 61.6948 58.29 60.6681 58.29C59.9281 58.29 59.3015 58.4567 58.7881 58.79C58.2815 59.1233 57.9248 59.65 57.7181 60.37L56.2881 59.95C56.5348 58.9833 57.0315 58.2333 57.7781 57.7C58.5248 57.1667 59.4948 56.9 60.6881 56.9C61.6748 56.9 62.5115 57.0867 63.1981 57.46C63.8915 57.8267 64.3815 58.36 64.6681 59.06C64.8015 59.3733 64.8881 59.7233 64.9281 60.11C64.9681 60.4967 64.9881 60.89 64.9881 61.29V68H63.6781V66.22C62.8248 67.6067 61.4548 68.3 59.5681 68.3ZM59.7381 67.03C60.7715 67.03 61.6015 66.76 62.2281 66.22C62.8615 65.68 63.2481 65.0033 63.3881 64.19C63.4481 63.9233 63.4848 63.6333 63.4981 63.32C63.5181 63 63.5281 62.7167 63.5281 62.47C62.8215 62.5567 62.0748 62.65 61.2881 62.75C60.5015 62.85 59.8115 62.98 59.2181 63.14C58.7581 63.2733 58.3315 63.4867 57.9381 63.78C57.5448 64.0733 57.3481 64.5133 57.3481 65.1C57.3481 65.4133 57.4248 65.7167 57.5781 66.01C57.7381 66.3033 57.9915 66.5467 58.3381 66.74C58.6915 66.9333 59.1581 67.03 59.7381 67.03ZM67.5914 68V57.2H68.9114V58.91C69.1514 58.49 69.4314 58.1567 69.7514 57.91C70.1781 57.5433 70.6914 57.3033 71.2914 57.19C71.8914 57.0767 72.4281 57.08 72.9014 57.2V58.58C72.5014 58.48 72.0681 58.4567 71.6014 58.51C71.1414 58.5633 70.7147 58.75 70.3214 59.07C69.7814 59.4967 69.4347 60.0333 69.2814 60.68C69.1347 61.32 69.0614 61.9633 69.0614 62.61V68H67.5914ZM79.0831 68.3C77.9965 68.3 77.0765 68.0567 76.3231 67.57C75.5765 67.0833 75.0065 66.4133 74.6131 65.56C74.2198 64.7 74.0165 63.7133 74.0031 62.6C74.0165 61.4667 74.2231 60.4733 74.6231 59.62C75.0231 58.76 75.5998 58.0933 76.3531 57.62C77.1065 57.14 78.0198 56.9 79.0931 56.9C80.1865 56.9 81.1365 57.1667 81.9431 57.7C82.7565 58.2333 83.3131 58.9633 83.6131 59.89L82.1731 60.35C81.9198 59.7033 81.5165 59.2033 80.9631 58.85C80.4165 58.49 79.7898 58.31 79.0831 58.31C77.8898 58.31 77.0065 58.71 76.4331 59.51C75.8665 60.31 75.5765 61.34 75.5631 62.6C75.5765 63.8933 75.8765 64.9333 76.4631 65.72C77.0498 66.5 77.9231 66.89 79.0831 66.89C80.5631 66.89 81.5798 66.23 82.1331 64.91L83.6131 65.35C83.2065 66.31 82.6165 67.0433 81.8431 67.55C81.0765 68.05 80.1565 68.3 79.0831 68.3ZM85.6673 68V53.6H86.9973V58.7C87.3973 58.12 87.9073 57.68 88.5273 57.38C89.154 57.08 89.854 56.93 90.6273 56.93C91.4407 56.93 92.124 57.0833 92.6773 57.39C93.2307 57.69 93.674 58.09 94.0073 58.59C94.3407 59.0833 94.5807 59.6333 94.7273 60.24C94.8807 60.8467 94.9573 61.4533 94.9573 62.06V68H93.4773V62.49C93.4773 61.6967 93.374 60.9867 93.1673 60.36C92.9607 59.7333 92.6273 59.24 92.1673 58.88C91.7073 58.5133 91.1007 58.33 90.3473 58.33C89.3073 58.33 88.514 58.6767 87.9673 59.37C87.4207 60.0633 87.1473 61.02 87.1473 62.24V68H85.6673Z" fill="#F7F5F5"/>
<path d="M102.083 61C102.083 62.4728 103.277 63.6667 104.75 63.6667C106.223 63.6667 107.417 62.4728 107.417 61C107.417 59.5272 106.223 58.3333 104.75 58.3333C103.277 58.3333 102.083 59.5272 102.083 61ZM164.75 61L159.75 58.1132V63.8868L164.75 61ZM104.75 61.5H106.625V60.5H104.75V61.5ZM110.375 61.5H114.125V60.5H110.375V61.5ZM117.875 61.5H121.625V60.5H117.875V61.5ZM125.375 61.5H129.125V60.5H125.375V61.5ZM132.875 61.5H136.625V60.5H132.875V61.5ZM140.375 61.5H144.125V60.5H140.375V61.5ZM147.875 61.5H151.625V60.5H147.875V61.5ZM155.375 61.5H159.125V60.5H155.375V61.5Z" fill="#12223C"/>
<path d="M261.083 61C261.083 62.4728 262.277 63.6667 263.75 63.6667C265.223 63.6667 266.417 62.4728 266.417 61C266.417 59.5272 265.223 58.3333 263.75 58.3333C262.277 58.3333 261.083 59.5272 261.083 61ZM323.75 61L318.75 58.1132V63.8868L323.75 61ZM263.75 61.5H265.625V60.5H263.75V61.5ZM269.375 61.5H273.125V60.5H269.375V61.5ZM276.875 61.5H280.625V60.5H276.875V61.5ZM284.375 61.5H288.125V60.5H284.375V61.5ZM291.875 61.5H295.625V60.5H291.875V61.5ZM299.375 61.5H303.125V60.5H299.375V61.5ZM306.875 61.5H310.625V60.5H306.875V61.5ZM314.375 61.5H318.125V60.5H314.375V61.5Z" fill="#12223C"/>
<path d="M543.083 61C543.083 62.4728 544.277 63.6667 545.75 63.6667C547.223 63.6667 548.417 62.4728 548.417 61C548.417 59.5272 547.223 58.3333 545.75 58.3333C544.277 58.3333 543.083 59.5272 543.083 61ZM645.75 61L640.75 58.1132V63.8868L645.75 61ZM545.75 61.5H547.673V60.5H545.75V61.5ZM551.519 61.5H555.365V60.5H551.519V61.5ZM559.212 61.5H563.058V60.5H559.212V61.5ZM566.904 61.5H570.75V60.5H566.904V61.5ZM574.596 61.5H578.442V60.5H574.596V61.5ZM582.288 61.5H586.135V60.5H582.288V61.5ZM589.981 61.5H593.827V60.5H589.981V61.5ZM597.673 61.5H601.519V60.5H597.673V61.5ZM605.365 61.5H609.212V60.5H605.365V61.5ZM613.058 61.5H616.904V60.5H613.058V61.5ZM620.75 61.5H624.596V60.5H620.75V61.5ZM628.442 61.5H632.288V60.5H628.442V61.5ZM636.135 61.5H639.981V60.5H636.135V61.5Z" fill="#12223C"/>
<path d="M357.083 43C357.083 44.4728 358.277 45.6667 359.75 45.6667C361.223 45.6667 362.417 44.4728 362.417 43C362.417 41.5272 361.223 40.3333 359.75 40.3333C358.277 40.3333 357.083 41.5272 357.083 43ZM488.75 37.6545L491.418 32.5344L485.65 32.7841L488.75 37.6545ZM360.25 43C360.25 42.3673 360.272 41.7379 360.315 41.1122L359.318 41.0432C359.273 41.6918 359.25 42.3442 359.25 43H360.25ZM360.834 37.3749C361.092 36.1458 361.432 34.9334 361.852 33.74L360.909 33.4078C360.475 34.6417 360.122 35.8967 359.855 37.17L360.834 37.3749ZM363.329 30.2593C363.885 29.1419 364.513 28.0445 365.209 26.9694L364.369 26.4259C363.654 27.5313 363.007 28.6613 362.433 29.8136L363.329 30.2593ZM367.429 23.8993C368.209 22.9267 369.047 21.9762 369.94 21.0496L369.22 20.3556C368.307 21.3032 367.449 22.2765 366.649 23.2737L367.429 23.8993ZM372.693 18.4222C373.63 17.5973 374.613 16.7955 375.64 16.0182L375.037 15.2208C373.991 16.0124 372.989 16.8299 372.032 17.6716L372.693 18.4222ZM378.76 13.8216C379.807 13.1352 380.891 12.4722 382.009 11.8339L381.514 10.9653C380.378 11.6135 379.276 12.2873 378.211 12.9853L378.76 13.8216ZM385.379 10.0389C386.504 9.4795 387.66 8.94374 388.843 8.43277L388.446 7.51473C387.247 8.03263 386.076 8.57588 384.934 9.14335L385.379 10.0389ZM392.384 7.00881C393.565 6.56776 394.77 6.15043 395.997 5.75783L395.693 4.80538C394.45 5.20276 393.23 5.6253 392.034 6.072L392.384 7.00881ZM399.664 4.67699C400.881 4.34777 402.118 4.04225 403.372 3.76132L403.154 2.7855C401.885 3.06958 400.634 3.3786 399.403 3.71165L399.664 4.67699ZM407.121 3.00518C408.365 2.78119 409.626 2.58101 410.9 2.40544L410.763 1.4148C409.476 1.59222 408.202 1.79455 406.944 2.02098L407.121 3.00518ZM414.7 1.95957C415.958 1.83728 417.229 1.73879 418.511 1.66482L418.453 0.666485C417.158 0.741198 415.875 0.840698 414.603 0.964257L414.7 1.95957ZM422.332 1.5183C422.969 1.50613 423.609 1.5 424.25 1.5V0.5C423.602 0.5 422.957 0.506189 422.313 0.51848L422.332 1.5183ZM424.25 1.5C424.92 1.5 425.592 1.50653 426.265 1.51956L426.285 0.519746C425.605 0.506596 424.927 0.5 424.25 0.5V1.5ZM430.298 1.67424C431.638 1.75092 432.981 1.85273 434.322 1.97939L434.416 0.983821C433.062 0.856009 431.708 0.753256 430.355 0.675877L430.298 1.67424ZM438.332 2.4327C439.668 2.60864 440.999 2.8091 442.323 3.03376L442.49 2.04786C441.154 1.82111 439.81 1.61881 438.462 1.44126L438.332 2.4327ZM446.288 3.7839C447.61 4.06036 448.921 4.36131 450.219 4.68641L450.462 3.7164C449.152 3.38805 447.827 3.08416 446.492 2.80506L446.288 3.7839ZM454.112 5.74759C455.41 6.1311 456.691 6.53968 457.949 6.97294L458.274 6.02742C457.002 5.5892 455.707 5.17612 454.395 4.78853L454.112 5.74759ZM461.73 8.37698C462.991 8.88069 464.224 9.41075 465.425 9.96671L465.845 9.05924C464.627 8.49548 463.378 7.9584 462.101 7.44835L461.73 8.37698ZM469.029 11.7663C470.229 12.4118 471.387 13.0857 472.501 13.7877L473.034 12.9418C471.9 12.227 470.722 11.5415 469.503 10.8857L469.029 11.7663ZM475.809 16.0578C476.901 16.8751 477.935 17.7239 478.905 18.6035L479.577 17.8627C478.582 16.9607 477.524 16.092 476.408 15.2571L475.809 16.0578ZM481.715 21.4438C482.611 22.46 483.425 23.5106 484.151 24.595L484.982 24.0387C484.23 22.9152 483.388 21.8296 482.465 20.7826L481.715 21.4438ZM486.107 28.052C486.668 29.256 487.125 30.4964 487.471 31.7724L488.436 31.5107C488.075 30.1776 487.597 28.8835 487.013 27.6296L486.107 28.052ZM357.083 43C357.083 44.4728 358.277 45.6667 359.75 45.6667C361.223 45.6667 362.417 44.4728 362.417 43C362.417 41.5272 361.223 40.3333 359.75 40.3333C358.277 40.3333 357.083 41.5272 357.083 43ZM488.75 37.6545L491.418 32.5344L485.65 32.7841L488.75 37.6545ZM360.25 43C360.25 42.3673 360.272 41.7379 360.315 41.1122L359.318 41.0432C359.273 41.6918 359.25 42.3442 359.25 43H360.25ZM360.834 37.3749C361.092 36.1458 361.432 34.9334 361.852 33.74L360.909 33.4078C360.475 34.6417 360.122 35.8967 359.855 37.17L360.834 37.3749ZM363.329 30.2593C363.885 29.1419 364.513 28.0445 365.209 26.9694L364.369 26.4259C363.654 27.5313 363.007 28.6613 362.433 29.8136L363.329 30.2593ZM367.429 23.8993C368.209 22.9267 369.047 21.9762 369.94 21.0496L369.22 20.3556C368.307 21.3032 367.449 22.2765 366.649 23.2737L367.429 23.8993ZM372.693 18.4222C373.63 17.5973 374.613 16.7955 375.64 16.0182L375.037 15.2208C373.991 16.0124 372.989 16.8299 372.032 17.6716L372.693 18.4222ZM378.76 13.8216C379.807 13.1352 380.891 12.4722 382.009 11.8339L381.514 10.9653C380.378 11.6135 379.276 12.2873 378.211 12.9853L378.76 13.8216ZM385.379 10.0389C386.504 9.4795 387.66 8.94374 388.843 8.43277L388.446 7.51473C387.247 8.03263 386.076 8.57588 384.934 9.14335L385.379 10.0389ZM392.384 7.00881C393.565 6.56776 394.77 6.15043 395.997 5.75783L395.693 4.80538C394.45 5.20276 393.23 5.6253 392.034 6.072L392.384 7.00881ZM399.664 4.67699C400.881 4.34777 402.118 4.04225 403.372 3.76132L403.154 2.7855C401.885 3.06958 400.634 3.3786 399.403 3.71165L399.664 4.67699ZM407.121 3.00518C408.365 2.78119 409.626 2.58101 410.9 2.40544L410.763 1.4148C409.476 1.59222 408.202 1.79455 406.944 2.02098L407.121 3.00518ZM414.7 1.95957C415.958 1.83728 417.229 1.73879 418.511 1.66482L418.453 0.666485C417.158 0.741198 415.875 0.840698 414.603 0.964257L414.7 1.95957ZM422.332 1.5183C422.969 1.50613 423.609 1.5 424.25 1.5V0.5C423.602 0.5 422.957 0.506189 422.313 0.51848L422.332 1.5183ZM424.25 1.5C424.92 1.5 425.592 1.50653 426.265 1.51956L426.285 0.519746C425.605 0.506596 424.927 0.5 424.25 0.5V1.5ZM430.298 1.67424C431.638 1.75092 432.981 1.85273 434.322 1.97939L434.416 0.983821C433.062 0.856009 431.708 0.753256 430.355 0.675877L430.298 1.67424ZM438.332 2.4327C439.668 2.60864 440.999 2.8091 442.323 3.03376L442.49 2.04786C441.154 1.82111 439.81 1.61881 438.462 1.44126L438.332 2.4327ZM446.288 3.7839C447.61 4.06036 448.921 4.36131 450.219 4.68641L450.462 3.7164C449.152 3.38805 447.827 3.08416 446.492 2.80506L446.288 3.7839ZM454.112 5.74759C455.41 6.1311 456.691 6.53968 457.949 6.97294L458.274 6.02742C457.002 5.5892 455.707 5.17612 454.395 4.78853L454.112 5.74759ZM461.73 8.37698C462.991 8.88069 464.224 9.41075 465.425 9.96671L465.845 9.05924C464.627 8.49548 463.378 7.9584 462.101 7.44835L461.73 8.37698ZM469.029 11.7663C470.229 12.4118 471.387 13.0857 472.501 13.7877L473.034 12.9418C471.9 12.227 470.722 11.5415 469.503 10.8857L469.029 11.7663ZM475.809 16.0578C476.901 16.8751 477.935 17.7239 478.905 18.6035L479.577 17.8627C478.582 16.9607 477.524 16.092 476.408 15.2571L475.809 16.0578ZM481.715 21.4438C482.611 22.46 483.425 23.5106 484.151 24.595L484.982 24.0387C484.23 22.9152 483.388 21.8296 482.465 20.7826L481.715 21.4438ZM486.107 28.052C486.668 29.256 487.125 30.4964 487.471 31.7724L488.436 31.5107C488.075 30.1776 487.597 28.8835 487.013 27.6296L486.107 28.052Z" fill="#12223C"/>
<path d="M494.417 78C494.417 76.5273 493.223 75.3333 491.75 75.3333C490.277 75.3333 489.083 76.5273 489.083 78C489.083 79.4728 490.277 80.6667 491.75 80.6667C493.223 80.6667 494.417 79.4728 494.417 78ZM362.75 83.3455L360.082 88.4656L365.85 88.2159L362.75 83.3455ZM491.25 78C491.25 78.6327 491.228 79.2621 491.185 79.8878L492.182 79.9568C492.227 79.3082 492.25 78.6558 492.25 78L491.25 78ZM490.666 83.6251C490.408 84.8542 490.068 86.0667 489.648 87.26L490.591 87.5922C491.025 86.3583 491.378 85.1034 491.645 83.83L490.666 83.6251ZM488.171 90.7407C487.615 91.8582 486.987 92.9556 486.291 94.0306L487.131 94.5741C487.846 93.4687 488.493 92.3387 489.067 91.1864L488.171 90.7407ZM484.071 97.1007C483.291 98.0733 482.453 99.0238 481.56 99.9504L482.28 100.644C483.193 99.6968 484.051 98.7235 484.851 97.7263L484.071 97.1007ZM478.807 102.578C477.87 103.403 476.887 104.205 475.86 104.982L476.463 105.779C477.509 104.988 478.511 104.17 479.468 103.328L478.807 102.578ZM472.74 107.178C471.693 107.865 470.609 108.528 469.491 109.166L469.986 110.035C471.122 109.386 472.224 108.713 473.289 108.015L472.74 107.178ZM466.121 110.961C464.996 111.52 463.84 112.056 462.657 112.567L463.054 113.485C464.253 112.967 465.424 112.424 466.566 111.857L466.121 110.961ZM459.116 113.991C457.935 114.432 456.73 114.85 455.503 115.242L455.807 116.195C457.05 115.797 458.27 115.375 459.466 114.928L459.116 113.991ZM451.836 116.323C450.619 116.652 449.382 116.958 448.128 117.239L448.346 118.215C449.615 117.93 450.866 117.621 452.097 117.288L451.836 116.323ZM444.379 117.995C443.135 118.219 441.874 118.419 440.6 118.595L440.737 119.585C442.024 119.408 443.298 119.205 444.556 118.979L444.379 117.995ZM436.8 119.04C435.542 119.163 434.271 119.261 432.989 119.335L433.047 120.334C434.342 120.259 435.625 120.159 436.897 120.036L436.8 119.04ZM429.168 119.482C428.531 119.494 427.891 119.5 427.25 119.5L427.25 120.5C427.898 120.5 428.543 120.494 429.187 120.482L429.168 119.482ZM427.25 119.5C426.58 119.5 425.908 119.493 425.235 119.48L425.215 120.48C425.895 120.493 426.573 120.5 427.25 120.5L427.25 119.5ZM421.202 119.326C419.862 119.249 418.519 119.147 417.178 119.021L417.084 120.016C418.438 120.144 419.792 120.247 421.145 120.324L421.202 119.326ZM413.168 118.567C411.832 118.391 410.501 118.191 409.177 117.966L409.01 118.952C410.346 119.179 411.69 119.381 413.038 119.559L413.168 118.567ZM405.212 117.216C403.89 116.94 402.579 116.639 401.281 116.314L401.038 117.284C402.348 117.612 403.673 117.916 405.008 118.195L405.212 117.216ZM397.388 115.252C396.09 114.869 394.809 114.46 393.551 114.027L393.226 114.973C394.498 115.411 395.793 115.824 397.105 116.211L397.388 115.252ZM389.77 112.623C388.509 112.119 387.276 111.589 386.075 111.033L385.655 111.941C386.873 112.505 388.122 113.042 389.399 113.552L389.77 112.623ZM382.471 109.234C381.271 108.588 380.113 107.914 378.999 107.212L378.466 108.058C379.6 108.773 380.778 109.459 381.997 110.114L382.471 109.234ZM375.691 104.942C374.599 104.125 373.565 103.276 372.595 102.396L371.923 103.137C372.918 104.039 373.976 104.908 375.092 105.743L375.691 104.942ZM369.785 99.5561C368.889 98.54 368.075 97.4893 367.349 96.4049L366.518 96.9613C367.27 98.0848 368.112 99.1704 369.035 100.217L369.785 99.5561ZM365.393 92.948C364.832 91.744 364.375 90.5036 364.029 89.2276L363.064 89.4893C363.425 90.8224 363.903 92.1165 364.487 93.3704L365.393 92.948ZM494.417 78C494.417 76.5273 493.223 75.3333 491.75 75.3333C490.277 75.3333 489.083 76.5273 489.083 78C489.083 79.4728 490.277 80.6667 491.75 80.6667C493.223 80.6667 494.417 79.4728 494.417 78ZM362.75 83.3455L360.082 88.4656L365.85 88.2159L362.75 83.3455ZM491.25 78C491.25 78.6327 491.228 79.2621 491.185 79.8878L492.182 79.9568C492.227 79.3082 492.25 78.6558 492.25 78L491.25 78ZM490.666 83.6251C490.408 84.8542 490.068 86.0667 489.648 87.26L490.591 87.5922C491.025 86.3583 491.378 85.1034 491.645 83.83L490.666 83.6251ZM488.171 90.7407C487.615 91.8582 486.987 92.9556 486.291 94.0306L487.131 94.5741C487.846 93.4687 488.493 92.3387 489.067 91.1864L488.171 90.7407ZM484.071 97.1007C483.291 98.0733 482.453 99.0238 481.56 99.9504L482.28 100.644C483.193 99.6968 484.051 98.7235 484.851 97.7263L484.071 97.1007ZM478.807 102.578C477.87 103.403 476.887 104.205 475.86 104.982L476.463 105.779C477.509 104.988 478.511 104.17 479.468 103.328L478.807 102.578ZM472.74 107.178C471.693 107.865 470.609 108.528 469.491 109.166L469.986 110.035C471.122 109.386 472.224 108.713 473.289 108.015L472.74 107.178ZM466.121 110.961C464.996 111.52 463.84 112.056 462.657 112.567L463.054 113.485C464.253 112.967 465.424 112.424 466.566 111.857L466.121 110.961ZM459.116 113.991C457.935 114.432 456.73 114.85 455.503 115.242L455.807 116.195C457.05 115.797 458.27 115.375 459.466 114.928L459.116 113.991ZM451.836 116.323C450.619 116.652 449.382 116.958 448.128 117.239L448.346 118.215C449.615 117.93 450.866 117.621 452.097 117.288L451.836 116.323ZM444.379 117.995C443.135 118.219 441.874 118.419 440.6 118.595L440.737 119.585C442.024 119.408 443.298 119.205 444.556 118.979L444.379 117.995ZM436.8 119.04C435.542 119.163 434.271 119.261 432.989 119.335L433.047 120.334C434.342 120.259 435.625 120.159 436.897 120.036L436.8 119.04ZM429.168 119.482C428.531 119.494 427.891 119.5 427.25 119.5L427.25 120.5C427.898 120.5 428.543 120.494 429.187 120.482L429.168 119.482ZM427.25 119.5C426.58 119.5 425.908 119.493 425.235 119.48L425.215 120.48C425.895 120.493 426.573 120.5 427.25 120.5L427.25 119.5ZM421.202 119.326C419.862 119.249 418.519 119.147 417.178 119.021L417.084 120.016C418.438 120.144 419.792 120.247 421.145 120.324L421.202 119.326ZM413.168 118.567C411.832 118.391 410.501 118.191 409.177 117.966L409.01 118.952C410.346 119.179 411.69 119.381 413.038 119.559L413.168 118.567ZM405.212 117.216C403.89 116.94 402.579 116.639 401.281 116.314L401.038 117.284C402.348 117.612 403.673 117.916 405.008 118.195L405.212 117.216ZM397.388 115.252C396.09 114.869 394.809 114.46 393.551 114.027L393.226 114.973C394.498 115.411 395.793 115.824 397.105 116.211L397.388 115.252ZM389.77 112.623C388.509 112.119 387.276 111.589 386.075 111.033L385.655 111.941C386.873 112.505 388.122 113.042 389.399 113.552L389.77 112.623ZM382.471 109.234C381.271 108.588 380.113 107.914 378.999 107.212L378.466 108.058C379.6 108.773 380.778 109.459 381.997 110.114L382.471 109.234ZM375.691 104.942C374.599 104.125 373.565 103.276 372.595 102.396L371.923 103.137C372.918 104.039 373.976 104.908 375.092 105.743L375.691 104.942ZM369.785 99.5561C368.889 98.54 368.075 97.4893 367.349 96.4049L366.518 96.9613C367.27 98.0848 368.112 99.1704 369.035 100.217L369.785 99.5561ZM365.393 92.948C364.832 91.744 364.375 90.5036 364.029 89.2276L363.064 89.4893C363.425 90.8224 363.903 92.1165 364.487 93.3704L365.393 92.948Z" fill="#12223C"/>
<path d="M505.442 107V104.768H500.05V103.648L503.906 95.48H505.226L501.37 103.648H505.442V100.288H506.626V103.648H507.882V104.768H506.626V107H505.442ZM516.363 107.24C515.557 107.24 514.867 107.04 514.291 106.64C513.72 106.235 513.283 105.688 512.979 105C512.68 104.312 512.531 103.536 512.531 102.672C512.531 101.813 512.68 101.04 512.979 100.352C513.283 99.664 513.717 99.12 514.283 98.72C514.848 98.32 515.525 98.12 516.315 98.12C516.917 98.12 517.448 98.232 517.907 98.456C518.365 98.68 518.752 98.9893 519.067 99.384V95.48H520.251V107H519.195V105.8C518.88 106.248 518.485 106.6 518.011 106.856C517.541 107.112 516.992 107.24 516.363 107.24ZM516.483 106.144C517.096 106.144 517.603 105.995 518.003 105.696C518.403 105.392 518.701 104.979 518.899 104.456C519.096 103.933 519.195 103.339 519.195 102.672C519.195 101.659 518.971 100.829 518.523 100.184C518.08 99.5387 517.408 99.216 516.507 99.216C515.888 99.216 515.376 99.368 514.971 99.672C514.571 99.976 514.272 100.389 514.075 100.912C513.877 101.435 513.779 102.021 513.779 102.672C513.779 103.328 513.877 103.917 514.075 104.44C514.277 104.963 514.579 105.379 514.979 105.688C515.379 105.992 515.88 106.144 516.483 106.144ZM524.967 107.24C524.316 107.24 523.77 107.123 523.327 106.888C522.89 106.653 522.562 106.341 522.343 105.952C522.124 105.563 522.015 105.139 522.015 104.68C522.015 103.971 522.22 103.419 522.631 103.024C523.042 102.624 523.57 102.339 524.215 102.168C524.604 102.072 525.031 101.987 525.495 101.912C525.959 101.837 526.42 101.771 526.879 101.712C527.343 101.653 527.767 101.6 528.151 101.552C528.14 100.768 527.959 100.187 527.607 99.808C527.255 99.424 526.668 99.232 525.847 99.232C525.255 99.232 524.754 99.3653 524.343 99.632C523.938 99.8987 523.652 100.32 523.487 100.896L522.343 100.56C522.54 99.7867 522.938 99.1867 523.535 98.76C524.132 98.3333 524.908 98.12 525.863 98.12C526.652 98.12 527.322 98.2693 527.871 98.568C528.426 98.8613 528.818 99.288 529.047 99.848C529.154 100.099 529.223 100.379 529.255 100.688C529.287 100.997 529.303 101.312 529.303 101.632V107H528.255V105.576C527.572 106.685 526.476 107.24 524.967 107.24ZM525.103 106.224C525.93 106.224 526.594 106.008 527.095 105.576C527.602 105.144 527.911 104.603 528.023 103.952C528.071 103.739 528.1 103.507 528.111 103.256C528.127 103 528.135 102.773 528.135 102.576C527.57 102.645 526.972 102.72 526.343 102.8C525.714 102.88 525.162 102.984 524.687 103.112C524.319 103.219 523.978 103.389 523.663 103.624C523.348 103.859 523.191 104.211 523.191 104.68C523.191 104.931 523.252 105.173 523.375 105.408C523.503 105.643 523.706 105.837 523.983 105.992C524.266 106.147 524.639 106.224 525.103 106.224ZM532.133 110.84L533.557 106.984L530.045 98.36H531.293L534.125 105.464L536.749 98.36H537.949L533.309 110.84H532.133ZM542.563 107.232C541.549 107.232 540.715 107.013 540.059 106.576C539.408 106.139 539.008 105.531 538.859 104.752L540.059 104.552C540.187 105.048 540.477 105.44 540.931 105.728C541.389 106.016 541.955 106.16 542.627 106.16C543.283 106.16 543.8 106.024 544.179 105.752C544.557 105.475 544.747 105.099 544.747 104.624C544.747 104.357 544.685 104.141 544.563 103.976C544.44 103.805 544.195 103.648 543.827 103.504C543.464 103.36 542.917 103.189 542.187 102.992C541.403 102.779 540.787 102.565 540.339 102.352C539.896 102.139 539.581 101.893 539.395 101.616C539.213 101.333 539.123 100.989 539.123 100.584C539.123 99.848 539.424 99.2533 540.027 98.8C540.635 98.3467 541.427 98.12 542.403 98.12C543.053 98.12 543.635 98.2267 544.147 98.44C544.664 98.648 545.08 98.9413 545.395 99.32C545.709 99.6987 545.896 100.139 545.955 100.64L544.755 100.856C544.669 100.349 544.416 99.9493 543.995 99.656C543.573 99.3573 543.037 99.2027 542.387 99.192C541.773 99.176 541.275 99.2933 540.891 99.544C540.507 99.7893 540.315 100.117 540.315 100.528C540.315 100.757 540.384 100.955 540.523 101.12C540.661 101.28 540.912 101.432 541.275 101.576C541.643 101.72 542.165 101.877 542.843 102.048C543.637 102.251 544.261 102.464 544.715 102.688C545.168 102.912 545.491 103.176 545.683 103.48C545.875 103.784 545.971 104.16 545.971 104.608C545.971 105.424 545.667 106.067 545.059 106.536C544.456 107 543.624 107.232 542.563 107.232Z" fill="#12223C"/>
<path d="M706.192 107V104.768H700.8V103.648L704.656 95.48H705.976L702.12 103.648H706.192V100.288H707.376V103.648H708.632V104.768H707.376V107H706.192ZM717.113 107.24C716.307 107.24 715.617 107.04 715.041 106.64C714.47 106.235 714.033 105.688 713.729 105C713.43 104.312 713.281 103.536 713.281 102.672C713.281 101.813 713.43 101.04 713.729 100.352C714.033 99.664 714.467 99.12 715.033 98.72C715.598 98.32 716.275 98.12 717.065 98.12C717.667 98.12 718.198 98.232 718.657 98.456C719.115 98.68 719.502 98.9893 719.817 99.384V95.48H721.001V107H719.945V105.8C719.63 106.248 719.235 106.6 718.761 106.856C718.291 107.112 717.742 107.24 717.113 107.24ZM717.233 106.144C717.846 106.144 718.353 105.995 718.753 105.696C719.153 105.392 719.451 104.979 719.649 104.456C719.846 103.933 719.945 103.339 719.945 102.672C719.945 101.659 719.721 100.829 719.273 100.184C718.83 99.5387 718.158 99.216 717.257 99.216C716.638 99.216 716.126 99.368 715.721 99.672C715.321 99.976 715.022 100.389 714.825 100.912C714.627 101.435 714.529 102.021 714.529 102.672C714.529 103.328 714.627 103.917 714.825 104.44C715.027 104.963 715.329 105.379 715.729 105.688C716.129 105.992 716.63 106.144 717.233 106.144ZM725.717 107.24C725.066 107.24 724.52 107.123 724.077 106.888C723.64 106.653 723.312 106.341 723.093 105.952C722.874 105.563 722.765 105.139 722.765 104.68C722.765 103.971 722.97 103.419 723.381 103.024C723.792 102.624 724.32 102.339 724.965 102.168C725.354 102.072 725.781 101.987 726.245 101.912C726.709 101.837 727.17 101.771 727.629 101.712C728.093 101.653 728.517 101.6 728.901 101.552C728.89 100.768 728.709 100.187 728.357 99.808C728.005 99.424 727.418 99.232 726.597 99.232C726.005 99.232 725.504 99.3653 725.093 99.632C724.688 99.8987 724.402 100.32 724.237 100.896L723.093 100.56C723.29 99.7867 723.688 99.1867 724.285 98.76C724.882 98.3333 725.658 98.12 726.613 98.12C727.402 98.12 728.072 98.2693 728.621 98.568C729.176 98.8613 729.568 99.288 729.797 99.848C729.904 100.099 729.973 100.379 730.005 100.688C730.037 100.997 730.053 101.312 730.053 101.632V107H729.005V105.576C728.322 106.685 727.226 107.24 725.717 107.24ZM725.853 106.224C726.68 106.224 727.344 106.008 727.845 105.576C728.352 105.144 728.661 104.603 728.773 103.952C728.821 103.739 728.85 103.507 728.861 103.256C728.877 103 728.885 102.773 728.885 102.576C728.32 102.645 727.722 102.72 727.093 102.8C726.464 102.88 725.912 102.984 725.437 103.112C725.069 103.219 724.728 103.389 724.413 103.624C724.098 103.859 723.941 104.211 723.941 104.68C723.941 104.931 724.002 105.173 724.125 105.408C724.253 105.643 724.456 105.837 724.733 105.992C725.016 106.147 725.389 106.224 725.853 106.224ZM732.883 110.84L734.307 106.984L730.795 98.36H732.043L734.875 105.464L737.499 98.36H738.699L734.059 110.84H732.883ZM743.313 107.232C742.299 107.232 741.465 107.013 740.809 106.576C740.158 106.139 739.758 105.531 739.609 104.752L740.809 104.552C740.937 105.048 741.227 105.44 741.681 105.728C742.139 106.016 742.705 106.16 743.377 106.16C744.033 106.16 744.55 106.024 744.929 105.752C745.307 105.475 745.497 105.099 745.497 104.624C745.497 104.357 745.435 104.141 745.313 103.976C745.19 103.805 744.945 103.648 744.577 103.504C744.214 103.36 743.667 103.189 742.937 102.992C742.153 102.779 741.537 102.565 741.089 102.352C740.646 102.139 740.331 101.893 740.145 101.616C739.963 101.333 739.873 100.989 739.873 100.584C739.873 99.848 740.174 99.2533 740.777 98.8C741.385 98.3467 742.177 98.12 743.153 98.12C743.803 98.12 744.385 98.2267 744.897 98.44C745.414 98.648 745.83 98.9413 746.145 99.32C746.459 99.6987 746.646 100.139 746.705 100.64L745.505 100.856C745.419 100.349 745.166 99.9493 744.745 99.656C744.323 99.3573 743.787 99.2027 743.137 99.192C742.523 99.176 742.025 99.2933 741.641 99.544C741.257 99.7893 741.065 100.117 741.065 100.528C741.065 100.757 741.134 100.955 741.273 101.12C741.411 101.28 741.662 101.432 742.025 101.576C742.393 101.72 742.915 101.877 743.593 102.048C744.387 102.251 745.011 102.464 745.465 102.688C745.918 102.912 746.241 103.176 746.433 103.48C746.625 103.784 746.721 104.16 746.721 104.608C746.721 105.424 746.417 106.067 745.809 106.536C745.206 107 744.374 107.232 743.313 107.232Z" fill="#12223C"/>
<path d="M222.442 107V104.768H217.05V103.648L220.906 95.48H222.226L218.37 103.648H222.442V100.288H223.626V103.648H224.882V104.768H223.626V107H222.442ZM233.363 107.24C232.557 107.24 231.867 107.04 231.291 106.64C230.72 106.235 230.283 105.688 229.979 105C229.68 104.312 229.531 103.536 229.531 102.672C229.531 101.813 229.68 101.04 229.979 100.352C230.283 99.664 230.717 99.12 231.283 98.72C231.848 98.32 232.525 98.12 233.315 98.12C233.917 98.12 234.448 98.232 234.907 98.456C235.365 98.68 235.752 98.9893 236.067 99.384V95.48H237.251V107H236.195V105.8C235.88 106.248 235.485 106.6 235.011 106.856C234.541 107.112 233.992 107.24 233.363 107.24ZM233.483 106.144C234.096 106.144 234.603 105.995 235.003 105.696C235.403 105.392 235.701 104.979 235.899 104.456C236.096 103.933 236.195 103.339 236.195 102.672C236.195 101.659 235.971 100.829 235.523 100.184C235.08 99.5387 234.408 99.216 233.507 99.216C232.888 99.216 232.376 99.368 231.971 99.672C231.571 99.976 231.272 100.389 231.075 100.912C230.877 101.435 230.779 102.021 230.779 102.672C230.779 103.328 230.877 103.917 231.075 104.44C231.277 104.963 231.579 105.379 231.979 105.688C232.379 105.992 232.88 106.144 233.483 106.144ZM241.967 107.24C241.316 107.24 240.77 107.123 240.327 106.888C239.89 106.653 239.562 106.341 239.343 105.952C239.124 105.563 239.015 105.139 239.015 104.68C239.015 103.971 239.22 103.419 239.631 103.024C240.042 102.624 240.57 102.339 241.215 102.168C241.604 102.072 242.031 101.987 242.495 101.912C242.959 101.837 243.42 101.771 243.879 101.712C244.343 101.653 244.767 101.6 245.151 101.552C245.14 100.768 244.959 100.187 244.607 99.808C244.255 99.424 243.668 99.232 242.847 99.232C242.255 99.232 241.754 99.3653 241.343 99.632C240.938 99.8987 240.652 100.32 240.487 100.896L239.343 100.56C239.54 99.7867 239.938 99.1867 240.535 98.76C241.132 98.3333 241.908 98.12 242.863 98.12C243.652 98.12 244.322 98.2693 244.871 98.568C245.426 98.8613 245.818 99.288 246.047 99.848C246.154 100.099 246.223 100.379 246.255 100.688C246.287 100.997 246.303 101.312 246.303 101.632V107H245.255V105.576C244.572 106.685 243.476 107.24 241.967 107.24ZM242.103 106.224C242.93 106.224 243.594 106.008 244.095 105.576C244.602 105.144 244.911 104.603 245.023 103.952C245.071 103.739 245.1 103.507 245.111 103.256C245.127 103 245.135 102.773 245.135 102.576C244.57 102.645 243.972 102.72 243.343 102.8C242.714 102.88 242.162 102.984 241.687 103.112C241.319 103.219 240.978 103.389 240.663 103.624C240.348 103.859 240.191 104.211 240.191 104.68C240.191 104.931 240.252 105.173 240.375 105.408C240.503 105.643 240.706 105.837 240.983 105.992C241.266 106.147 241.639 106.224 242.103 106.224ZM249.133 110.84L250.557 106.984L247.045 98.36H248.293L251.125 105.464L253.749 98.36H254.949L250.309 110.84H249.133ZM259.563 107.232C258.549 107.232 257.715 107.013 257.059 106.576C256.408 106.139 256.008 105.531 255.859 104.752L257.059 104.552C257.187 105.048 257.477 105.44 257.931 105.728C258.389 106.016 258.955 106.16 259.627 106.16C260.283 106.16 260.8 106.024 261.179 105.752C261.557 105.475 261.747 105.099 261.747 104.624C261.747 104.357 261.685 104.141 261.563 103.976C261.44 103.805 261.195 103.648 260.827 103.504C260.464 103.36 259.917 103.189 259.187 102.992C258.403 102.779 257.787 102.565 257.339 102.352C256.896 102.139 256.581 101.893 256.395 101.616C256.213 101.333 256.123 100.989 256.123 100.584C256.123 99.848 256.424 99.2533 257.027 98.8C257.635 98.3467 258.427 98.12 259.403 98.12C260.053 98.12 260.635 98.2267 261.147 98.44C261.664 98.648 262.08 98.9413 262.395 99.32C262.709 99.6987 262.896 100.139 262.955 100.64L261.755 100.856C261.669 100.349 261.416 99.9493 260.995 99.656C260.573 99.3573 260.037 99.2027 259.387 99.192C258.773 99.176 258.275 99.2933 257.891 99.544C257.507 99.7893 257.315 100.117 257.315 100.528C257.315 100.757 257.384 100.955 257.523 101.12C257.661 101.28 257.912 101.432 258.275 101.576C258.643 101.72 259.165 101.877 259.843 102.048C260.637 102.251 261.261 102.464 261.715 102.688C262.168 102.912 262.491 103.176 262.683 103.48C262.875 103.784 262.971 104.16 262.971 104.608C262.971 105.424 262.667 106.067 262.059 106.536C261.456 107 260.624 107.232 259.563 107.232Z" fill="#12223C"/>
</svg>
