<svg width="767" height="129" viewBox="0 0 767 129" fill="none" xmlns="http://www.w3.org/2000/svg">
<rect x="172.25" y="43.5" width="91" height="42" rx="21" fill="#2D4F8F"/>
<rect x="172.25" y="43.5" width="91" height="42" rx="21" stroke="#12223C"/>
<path d="M181.35 72V57.6H182.82V72H181.35ZM190.008 72.3C189.001 72.3 188.138 72.05 187.418 71.55C186.705 71.0433 186.158 70.36 185.778 69.5C185.405 68.64 185.218 67.67 185.218 66.59C185.218 65.5167 185.405 64.55 185.778 63.69C186.158 62.83 186.701 62.15 187.408 61.65C188.115 61.15 188.961 60.9 189.948 60.9C190.701 60.9 191.365 61.04 191.938 61.32C192.511 61.6 192.995 61.9867 193.388 62.48V57.6H194.868V72H193.548V70.5C193.155 71.06 192.661 71.5 192.068 71.82C191.481 72.14 190.795 72.3 190.008 72.3ZM190.158 70.93C190.925 70.93 191.558 70.7433 192.058 70.37C192.558 69.99 192.931 69.4733 193.178 68.82C193.425 68.1667 193.548 67.4233 193.548 66.59C193.548 65.3233 193.268 64.2867 192.708 63.48C192.155 62.6733 191.315 62.27 190.188 62.27C189.415 62.27 188.775 62.46 188.268 62.84C187.768 63.22 187.395 63.7367 187.148 64.39C186.901 65.0433 186.778 65.7767 186.778 66.59C186.778 67.41 186.901 68.1467 187.148 68.8C187.401 69.4533 187.778 69.9733 188.278 70.36C188.778 70.74 189.405 70.93 190.158 70.93ZM202.243 72.3C201.19 72.3 200.277 72.0667 199.503 71.6C198.73 71.1333 198.13 70.4767 197.703 69.63C197.283 68.7833 197.073 67.79 197.073 66.65C197.073 65.47 197.283 64.45 197.703 63.59C198.123 62.73 198.713 62.0667 199.473 61.6C200.24 61.1333 201.143 60.9 202.183 60.9C203.783 60.9 205.023 61.4433 205.903 62.53C206.79 63.61 207.207 65.1033 207.153 67.01H198.643C198.703 68.25 199.04 69.2067 199.653 69.88C200.267 70.5533 201.11 70.89 202.183 70.89C203.757 70.89 204.887 70.1967 205.573 68.81L206.943 69.34C206.517 70.28 205.887 71.01 205.053 71.53C204.227 72.0433 203.29 72.3 202.243 72.3ZM202.223 62.25C201.183 62.25 200.36 62.5567 199.753 63.17C199.147 63.7767 198.787 64.6467 198.673 65.78H205.613C205.38 63.4267 204.25 62.25 202.223 62.25ZM212.267 72.3C211.454 72.3 210.771 72.1533 210.217 71.86C209.671 71.5667 209.261 71.1767 208.987 70.69C208.714 70.2033 208.577 69.6733 208.577 69.1C208.577 68.2133 208.834 67.5233 209.347 67.03C209.861 66.53 210.521 66.1733 211.327 65.96C211.814 65.84 212.347 65.7333 212.927 65.64C213.507 65.5467 214.084 65.4633 214.657 65.39C215.237 65.3167 215.767 65.25 216.247 65.19C216.234 64.21 216.007 63.4833 215.567 63.01C215.127 62.53 214.394 62.29 213.367 62.29C212.627 62.29 212.001 62.4567 211.487 62.79C210.981 63.1233 210.624 63.65 210.417 64.37L208.987 63.95C209.234 62.9833 209.731 62.2333 210.477 61.7C211.224 61.1667 212.194 60.9 213.387 60.9C214.374 60.9 215.211 61.0867 215.897 61.46C216.591 61.8267 217.081 62.36 217.367 63.06C217.501 63.3733 217.587 63.7233 217.627 64.11C217.667 64.4967 217.687 64.89 217.687 65.29V72H216.377V70.22C215.524 71.6067 214.154 72.3 212.267 72.3ZM212.437 71.03C213.471 71.03 214.301 70.76 214.927 70.22C215.561 69.68 215.947 69.0033 216.087 68.19C216.147 67.9233 216.184 67.6333 216.197 67.32C216.217 67 216.227 66.7167 216.227 66.47C215.521 66.5567 214.774 66.65 213.987 66.75C213.201 66.85 212.511 66.98 211.917 67.14C211.457 67.2733 211.031 67.4867 210.637 67.78C210.244 68.0733 210.047 68.5133 210.047 69.1C210.047 69.4133 210.124 69.7167 210.277 70.01C210.437 70.3033 210.691 70.5467 211.037 70.74C211.391 70.9333 211.857 71.03 212.437 71.03ZM226.171 72C225.564 72.1267 224.964 72.1767 224.371 72.15C223.784 72.1233 223.257 71.9967 222.791 71.77C222.331 71.5433 221.981 71.19 221.741 70.71C221.547 70.3167 221.441 69.9133 221.421 69.5C221.407 69.0867 221.401 68.6167 221.401 68.09V62.46H219.091V61.2H221.401V58.2H222.861V61.2H226.171V62.46H222.861V68.03C222.861 68.4833 222.864 68.8633 222.871 69.17C222.884 69.47 222.954 69.7367 223.081 69.97C223.321 70.4167 223.701 70.6833 224.221 70.77C224.747 70.8567 225.397 70.8367 226.171 70.71V72ZM228.498 72V61.2H229.968V72H228.498ZM229.228 59.34C228.942 59.34 228.698 59.2433 228.498 59.05C228.305 58.85 228.208 58.61 228.208 58.33C228.208 58.0433 228.305 57.8033 228.498 57.61C228.698 57.41 228.942 57.31 229.228 57.31C229.522 57.31 229.765 57.41 229.958 57.61C230.158 57.8033 230.258 58.0433 230.258 58.33C230.258 58.61 230.158 58.85 229.958 59.05C229.765 59.2433 229.522 59.34 229.228 59.34ZM237.476 72.3C236.403 72.3 235.486 72.0567 234.726 71.57C233.966 71.0833 233.383 70.41 232.976 69.55C232.57 68.69 232.366 67.7033 232.366 66.59C232.366 65.4567 232.573 64.4633 232.986 63.61C233.4 62.7567 233.986 62.0933 234.746 61.62C235.513 61.14 236.423 60.9 237.476 60.9C238.556 60.9 239.476 61.1433 240.236 61.63C241.003 62.11 241.586 62.78 241.986 63.64C242.393 64.4933 242.596 65.4767 242.596 66.59C242.596 67.7233 242.393 68.72 241.986 69.58C241.58 70.4333 240.993 71.1 240.226 71.58C239.46 72.06 238.543 72.3 237.476 72.3ZM237.476 70.89C238.676 70.89 239.57 70.4933 240.156 69.7C240.743 68.9 241.036 67.8633 241.036 66.59C241.036 65.29 240.74 64.2533 240.146 63.48C239.553 62.7 238.663 62.31 237.476 62.31C236.27 62.31 235.376 62.71 234.796 63.51C234.216 64.3033 233.926 65.33 233.926 66.59C233.926 67.89 234.226 68.9333 234.826 69.72C235.426 70.5 236.31 70.89 237.476 70.89ZM244.792 72V61.2H246.122V62.7C246.522 62.12 247.032 61.68 247.652 61.38C248.279 61.08 248.979 60.93 249.752 60.93C250.566 60.93 251.249 61.0833 251.802 61.39C252.356 61.69 252.799 62.09 253.132 62.59C253.466 63.0833 253.706 63.6333 253.852 64.24C254.006 64.8467 254.082 65.4533 254.082 66.06V72H252.602V66.49C252.602 65.6967 252.499 64.9867 252.292 64.36C252.086 63.7333 251.752 63.24 251.292 62.88C250.832 62.5133 250.226 62.33 249.472 62.33C248.432 62.33 247.639 62.6767 247.092 63.37C246.546 64.0633 246.272 65.02 246.272 66.24V72H244.792Z" fill="#F7F5F5"/>
<rect x="331.25" y="43.5" width="56" height="42" rx="21" fill="#317463"/>
<rect x="331.25" y="43.5" width="56" height="42" rx="21" stroke="#12223C"/>
<path d="M343.98 72V59.01H338.95V57.6H350.48V59.01H345.45V72H343.98ZM355.052 72.3C353.999 72.3 353.085 72.0667 352.312 71.6C351.539 71.1333 350.939 70.4767 350.512 69.63C350.092 68.7833 349.882 67.79 349.882 66.65C349.882 65.47 350.092 64.45 350.512 63.59C350.932 62.73 351.522 62.0667 352.282 61.6C353.049 61.1333 353.952 60.9 354.992 60.9C356.592 60.9 357.832 61.4433 358.712 62.53C359.599 63.61 360.015 65.1033 359.962 67.01H351.452C351.512 68.25 351.849 69.2067 352.462 69.88C353.075 70.5533 353.919 70.89 354.992 70.89C356.565 70.89 357.695 70.1967 358.382 68.81L359.752 69.34C359.325 70.28 358.695 71.01 357.862 71.53C357.035 72.0433 356.099 72.3 355.052 72.3ZM355.032 62.25C353.992 62.25 353.169 62.5567 352.562 63.17C351.955 63.7767 351.595 64.6467 351.482 65.78H358.422C358.189 63.4267 357.059 62.25 355.032 62.25ZM366.211 72.29C364.945 72.29 363.901 72.0167 363.081 71.47C362.268 70.9233 361.768 70.1633 361.581 69.19L363.081 68.94C363.241 69.56 363.605 70.05 364.171 70.41C364.745 70.77 365.451 70.95 366.291 70.95C367.111 70.95 367.758 70.78 368.231 70.44C368.705 70.0933 368.941 69.6233 368.941 69.03C368.941 68.6967 368.865 68.4267 368.711 68.22C368.558 68.0067 368.251 67.81 367.791 67.63C367.338 67.45 366.655 67.2367 365.741 66.99C364.761 66.7233 363.991 66.4567 363.431 66.19C362.878 65.9233 362.485 65.6167 362.251 65.27C362.025 64.9167 361.911 64.4867 361.911 63.98C361.911 63.06 362.288 62.3167 363.041 61.75C363.801 61.1833 364.791 60.9 366.011 60.9C366.825 60.9 367.551 61.0333 368.191 61.3C368.838 61.56 369.358 61.9267 369.751 62.4C370.145 62.8733 370.378 63.4233 370.451 64.05L368.951 64.32C368.845 63.6867 368.528 63.1867 368.001 62.82C367.475 62.4467 366.805 62.2533 365.991 62.24C365.225 62.22 364.601 62.3667 364.121 62.68C363.641 62.9867 363.401 63.3967 363.401 63.91C363.401 64.1967 363.488 64.4433 363.661 64.65C363.835 64.85 364.148 65.04 364.601 65.22C365.061 65.4 365.715 65.5967 366.561 65.81C367.555 66.0633 368.335 66.33 368.901 66.61C369.468 66.89 369.871 67.22 370.111 67.6C370.351 67.98 370.471 68.45 370.471 69.01C370.471 70.03 370.091 70.8333 369.331 71.42C368.578 72 367.538 72.29 366.211 72.29ZM378.569 72C377.962 72.1267 377.362 72.1767 376.769 72.15C376.182 72.1233 375.656 71.9967 375.189 71.77C374.729 71.5433 374.379 71.19 374.139 70.71C373.946 70.3167 373.839 69.9133 373.819 69.5C373.806 69.0867 373.799 68.6167 373.799 68.09V62.46H371.489V61.2H373.799V58.2H375.259V61.2H378.569V62.46H375.259V68.03C375.259 68.4833 375.262 68.8633 375.269 69.17C375.282 69.47 375.352 69.7367 375.479 69.97C375.719 70.4167 376.099 70.6833 376.619 70.77C377.146 70.8567 377.796 70.8367 378.569 70.71V72Z" fill="#F7F5F5"/>
<rect x="437.25" y="43.5" width="108" height="42" rx="21" fill="#317463"/>
<rect x="437.25" y="43.5" width="108" height="42" rx="21" stroke="#12223C"/>
<path d="M446.15 72V57.6H451.71C451.85 57.6 452.007 57.6067 452.18 57.62C452.36 57.6267 452.54 57.6467 452.72 57.68C453.847 57.8533 454.713 58.3467 455.32 59.16C455.927 59.9733 456.23 60.9433 456.23 62.07C456.23 63.19 455.923 64.1567 455.31 64.97C454.703 65.7833 453.84 66.2767 452.72 66.45C452.54 66.4833 452.36 66.5067 452.18 66.52C452.007 66.5267 451.85 66.53 451.71 66.53H447.62V72H446.15ZM447.62 65.13H451.67C451.79 65.13 451.93 65.1233 452.09 65.11C452.25 65.0967 452.407 65.0733 452.56 65.04C453.3 64.88 453.843 64.5133 454.19 63.94C454.543 63.36 454.72 62.7367 454.72 62.07C454.72 61.3967 454.543 60.7733 454.19 60.2C453.843 59.62 453.3 59.25 452.56 59.09C452.407 59.0567 452.25 59.0367 452.09 59.03C451.93 59.0167 451.79 59.01 451.67 59.01H447.62V65.13ZM458.22 72V61.2H459.54V62.91C459.78 62.49 460.06 62.1567 460.38 61.91C460.807 61.5433 461.32 61.3033 461.92 61.19C462.52 61.0767 463.057 61.08 463.53 61.2V62.58C463.13 62.48 462.697 62.4567 462.23 62.51C461.77 62.5633 461.344 62.75 460.95 63.07C460.41 63.4967 460.064 64.0333 459.91 64.68C459.764 65.32 459.69 65.9633 459.69 66.61V72H458.22ZM469.742 72.3C468.669 72.3 467.752 72.0567 466.992 71.57C466.232 71.0833 465.649 70.41 465.242 69.55C464.835 68.69 464.632 67.7033 464.632 66.59C464.632 65.4567 464.839 64.4633 465.252 63.61C465.665 62.7567 466.252 62.0933 467.012 61.62C467.779 61.14 468.689 60.9 469.742 60.9C470.822 60.9 471.742 61.1433 472.502 61.63C473.269 62.11 473.852 62.78 474.252 63.64C474.659 64.4933 474.862 65.4767 474.862 66.59C474.862 67.7233 474.659 68.72 474.252 69.58C473.845 70.4333 473.259 71.1 472.492 71.58C471.725 72.06 470.809 72.3 469.742 72.3ZM469.742 70.89C470.942 70.89 471.835 70.4933 472.422 69.7C473.009 68.9 473.302 67.8633 473.302 66.59C473.302 65.29 473.005 64.2533 472.412 63.48C471.819 62.7 470.929 62.31 469.742 62.31C468.535 62.31 467.642 62.71 467.062 63.51C466.482 64.3033 466.192 65.33 466.192 66.59C466.192 67.89 466.492 68.9333 467.092 69.72C467.692 70.5 468.575 70.89 469.742 70.89ZM482.948 72C482.341 72.1267 481.741 72.1767 481.148 72.15C480.561 72.1233 480.035 71.9967 479.568 71.77C479.108 71.5433 478.758 71.19 478.518 70.71C478.325 70.3167 478.218 69.9133 478.198 69.5C478.185 69.0867 478.178 68.6167 478.178 68.09V62.46H475.868V61.2H478.178V58.2H479.638V61.2H482.948V62.46H479.638V68.03C479.638 68.4833 479.641 68.8633 479.648 69.17C479.661 69.47 479.731 69.7367 479.858 69.97C480.098 70.4167 480.478 70.6833 480.998 70.77C481.525 70.8567 482.175 70.8367 482.948 70.71V72ZM489.195 72.3C488.122 72.3 487.205 72.0567 486.445 71.57C485.685 71.0833 485.102 70.41 484.695 69.55C484.288 68.69 484.085 67.7033 484.085 66.59C484.085 65.4567 484.292 64.4633 484.705 63.61C485.118 62.7567 485.705 62.0933 486.465 61.62C487.232 61.14 488.142 60.9 489.195 60.9C490.275 60.9 491.195 61.1433 491.955 61.63C492.722 62.11 493.305 62.78 493.705 63.64C494.112 64.4933 494.315 65.4767 494.315 66.59C494.315 67.7233 494.112 68.72 493.705 69.58C493.298 70.4333 492.712 71.1 491.945 71.58C491.178 72.06 490.262 72.3 489.195 72.3ZM489.195 70.89C490.395 70.89 491.288 70.4933 491.875 69.7C492.462 68.9 492.755 67.8633 492.755 66.59C492.755 65.29 492.458 64.2533 491.865 63.48C491.272 62.7 490.382 62.31 489.195 62.31C487.988 62.31 487.095 62.71 486.515 63.51C485.935 64.3033 485.645 65.33 485.645 66.59C485.645 67.89 485.945 68.9333 486.545 69.72C487.145 70.5 488.028 70.89 489.195 70.89ZM502.401 72C501.794 72.1267 501.194 72.1767 500.601 72.15C500.014 72.1233 499.488 71.9967 499.021 71.77C498.561 71.5433 498.211 71.19 497.971 70.71C497.778 70.3167 497.671 69.9133 497.651 69.5C497.638 69.0867 497.631 68.6167 497.631 68.09V62.46H495.321V61.2H497.631V58.2H499.091V61.2H502.401V62.46H499.091V68.03C499.091 68.4833 499.094 68.8633 499.101 69.17C499.114 69.47 499.184 69.7367 499.311 69.97C499.551 70.4167 499.931 70.6833 500.451 70.77C500.978 70.8567 501.628 70.8367 502.401 70.71V72ZM505.776 76.8L507.556 71.98L503.166 61.2H504.726L508.266 70.08L511.546 61.2H513.046L507.246 76.8H505.776ZM514.773 76.8V61.2H516.093V62.68C516.486 62.1267 516.983 61.6933 517.583 61.38C518.189 61.06 518.893 60.9 519.693 60.9C520.679 60.9 521.526 61.15 522.233 61.65C522.939 62.15 523.479 62.83 523.853 63.69C524.233 64.55 524.423 65.5167 524.423 66.59C524.423 67.67 524.233 68.64 523.853 69.5C523.479 70.36 522.933 71.0433 522.213 71.55C521.499 72.05 520.639 72.3 519.633 72.3C518.899 72.3 518.249 72.16 517.683 71.88C517.116 71.5933 516.639 71.2033 516.253 70.71V76.8H514.773ZM519.483 70.93C520.236 70.93 520.863 70.74 521.363 70.36C521.863 69.9733 522.236 69.4533 522.483 68.8C522.736 68.1467 522.863 67.41 522.863 66.59C522.863 65.7767 522.739 65.0433 522.493 64.39C522.246 63.7367 521.869 63.22 521.363 62.84C520.863 62.46 520.226 62.27 519.453 62.27C518.326 62.27 517.483 62.6733 516.923 63.48C516.369 64.2867 516.093 65.3233 516.093 66.59C516.093 67.4233 516.216 68.1667 516.463 68.82C516.709 69.4733 517.083 69.99 517.583 70.37C518.083 70.7433 518.716 70.93 519.483 70.93ZM531.189 72.3C530.135 72.3 529.222 72.0667 528.449 71.6C527.675 71.1333 527.075 70.4767 526.649 69.63C526.229 68.7833 526.019 67.79 526.019 66.65C526.019 65.47 526.229 64.45 526.649 63.59C527.069 62.73 527.659 62.0667 528.419 61.6C529.185 61.1333 530.089 60.9 531.129 60.9C532.729 60.9 533.969 61.4433 534.849 62.53C535.735 63.61 536.152 65.1033 536.099 67.01H527.589C527.649 68.25 527.985 69.2067 528.599 69.88C529.212 70.5533 530.055 70.89 531.129 70.89C532.702 70.89 533.832 70.1967 534.519 68.81L535.889 69.34C535.462 70.28 534.832 71.01 533.999 71.53C533.172 72.0433 532.235 72.3 531.189 72.3ZM531.169 62.25C530.129 62.25 529.305 62.5567 528.699 63.17C528.092 63.7767 527.732 64.6467 527.619 65.78H534.559C534.325 63.4267 533.195 62.25 531.169 62.25Z" fill="#F7F5F5"/>
<rect x="653.25" y="43.5" width="109" height="42" rx="21" fill="#EBBE4B"/>
<rect x="653.25" y="43.5" width="109" height="42" rx="21" stroke="black"/>
<path d="M670.15 72V57.6H674.66C674.793 57.6 675.04 57.6033 675.4 57.61C675.76 57.6167 676.11 57.6433 676.45 57.69C677.577 57.83 678.523 58.2333 679.29 58.9C680.063 59.5667 680.647 60.4133 681.04 61.44C681.433 62.46 681.63 63.58 681.63 64.8C681.63 66.0267 681.433 67.1533 681.04 68.18C680.647 69.2 680.063 70.0433 679.29 70.71C678.523 71.37 677.577 71.77 676.45 71.91C676.117 71.9567 675.767 71.9833 675.4 71.99C675.033 71.9967 674.787 72 674.66 72H670.15ZM672.29 70.01H674.66C674.887 70.01 675.157 70.0067 675.47 70C675.783 69.9867 676.06 69.9567 676.3 69.91C677.033 69.77 677.627 69.4533 678.08 68.96C678.54 68.46 678.877 67.8467 679.09 67.12C679.303 66.3933 679.41 65.62 679.41 64.8C679.41 63.9533 679.3 63.17 679.08 62.45C678.86 61.7233 678.52 61.1167 678.06 60.63C677.607 60.1367 677.02 59.8233 676.3 59.69C676.06 59.6433 675.78 59.6167 675.46 59.61C675.147 59.5967 674.88 59.59 674.66 59.59H672.29V70.01ZM688.749 72.3C687.675 72.3 686.732 72.0667 685.919 71.6C685.112 71.1267 684.482 70.47 684.029 69.63C683.582 68.7833 683.359 67.8033 683.359 66.69C683.359 65.51 683.579 64.4867 684.019 63.62C684.465 62.7533 685.085 62.0833 685.879 61.61C686.672 61.1367 687.595 60.9 688.649 60.9C689.749 60.9 690.685 61.1567 691.459 61.67C692.232 62.1767 692.809 62.9 693.189 63.84C693.569 64.78 693.722 65.8967 693.649 67.19H685.599C685.685 68.19 685.985 68.9633 686.499 69.51C687.019 70.0567 687.735 70.33 688.649 70.33C689.975 70.33 690.912 69.7567 691.459 68.61L693.509 69.26C693.089 70.2267 692.452 70.9767 691.599 71.51C690.745 72.0367 689.795 72.3 688.749 72.3ZM688.729 62.75C686.949 62.75 685.922 63.6867 685.649 65.56H691.509C691.295 63.6867 690.369 62.75 688.729 62.75ZM696.092 72V57.3H698.182V72H696.092ZM701.385 72V61.2H703.475V72H701.385ZM702.435 59.72C702.062 59.72 701.748 59.5933 701.495 59.34C701.248 59.0867 701.125 58.78 701.125 58.42C701.125 58.0533 701.248 57.7467 701.495 57.5C701.748 57.2467 702.062 57.12 702.435 57.12C702.808 57.12 703.118 57.2467 703.365 57.5C703.612 57.7467 703.735 58.0533 703.735 58.42C703.735 58.78 703.612 59.0867 703.365 59.34C703.118 59.5933 702.808 59.72 702.435 59.72ZM709.398 72L705.478 61.2H707.588L710.458 69.38L713.328 61.2H715.438L711.518 72H709.398ZM721.639 72.3C720.566 72.3 719.623 72.0667 718.809 71.6C718.003 71.1267 717.373 70.47 716.919 69.63C716.473 68.7833 716.249 67.8033 716.249 66.69C716.249 65.51 716.469 64.4867 716.909 63.62C717.356 62.7533 717.976 62.0833 718.769 61.61C719.563 61.1367 720.486 60.9 721.539 60.9C722.639 60.9 723.576 61.1567 724.349 61.67C725.123 62.1767 725.699 62.9 726.079 63.84C726.459 64.78 726.613 65.8967 726.539 67.19H718.489C718.576 68.19 718.876 68.9633 719.389 69.51C719.909 70.0567 720.626 70.33 721.539 70.33C722.866 70.33 723.803 69.7567 724.349 68.61L726.399 69.26C725.979 70.2267 725.343 70.9767 724.489 71.51C723.636 72.0367 722.686 72.3 721.639 72.3ZM721.619 62.75C719.839 62.75 718.813 63.6867 718.539 65.56H724.399C724.186 63.6867 723.259 62.75 721.619 62.75ZM728.783 72V61.2H730.643V62.92C730.909 62.4467 731.243 62.0767 731.643 61.81C732.049 61.51 732.523 61.31 733.063 61.21C733.609 61.11 734.126 61.1067 734.613 61.2V63.16C734.259 63.0667 733.866 63.04 733.433 63.08C733.006 63.12 732.613 63.2567 732.253 63.49C731.746 63.8167 731.393 64.25 731.193 64.79C730.993 65.33 730.893 65.9167 730.893 66.55V72H728.783ZM737.704 76.8L739.484 71.95L735.114 61.2H737.294L740.494 69.31L743.534 61.2H745.654L739.694 76.8H737.704Z" fill="#12223C"/>
<rect x="1.25" y="43.5" width="103" height="42" rx="21" fill="#2D4F8F"/>
<rect x="1.25" y="43.5" width="103" height="42" rx="21" stroke="#12223C"/>
<path d="M10.15 72V57.6H15.71C15.85 57.6 16.0067 57.6067 16.18 57.62C16.36 57.6267 16.54 57.6467 16.72 57.68C17.8467 57.8533 18.7133 58.3233 19.32 59.09C19.9267 59.8567 20.23 60.76 20.23 61.8C20.23 62.6933 19.97 63.5167 19.45 64.27C18.9367 65.0233 18.2033 65.5333 17.25 65.8L20.46 72H18.76L15.67 66H11.62V72H10.15ZM11.62 64.59H15.67C15.79 64.59 15.93 64.5867 16.09 64.58C16.2567 64.5733 16.4133 64.55 16.56 64.51C17.3 64.3167 17.8433 63.9633 18.19 63.45C18.5433 62.9367 18.72 62.3867 18.72 61.8C18.72 61.2133 18.5433 60.6567 18.19 60.13C17.8433 59.5967 17.3 59.25 16.56 59.09C16.4067 59.0567 16.25 59.0367 16.09 59.03C15.93 59.0167 15.79 59.01 15.67 59.01H11.62V64.59ZM27.3372 72.3C26.2839 72.3 25.3705 72.0667 24.5972 71.6C23.8239 71.1333 23.2239 70.4767 22.7972 69.63C22.3772 68.7833 22.1672 67.79 22.1672 66.65C22.1672 65.47 22.3772 64.45 22.7972 63.59C23.2172 62.73 23.8072 62.0667 24.5672 61.6C25.3339 61.1333 26.2372 60.9 27.2772 60.9C28.8772 60.9 30.1172 61.4433 30.9972 62.53C31.8839 63.61 32.3005 65.1033 32.2472 67.01H23.7372C23.7972 68.25 24.1339 69.2067 24.7472 69.88C25.3605 70.5533 26.2039 70.89 27.2772 70.89C28.8505 70.89 29.9805 70.1967 30.6672 68.81L32.0372 69.34C31.6105 70.28 30.9805 71.01 30.1472 71.53C29.3205 72.0433 28.3839 72.3 27.3372 72.3ZM27.3172 62.25C26.2772 62.25 25.4539 62.5567 24.8472 63.17C24.2405 63.7767 23.8805 64.6467 23.7672 65.78H30.7072C30.4739 63.4267 29.3439 62.25 27.3172 62.25ZM38.4964 72.29C37.2297 72.29 36.1864 72.0167 35.3664 71.47C34.5531 70.9233 34.0531 70.1633 33.8664 69.19L35.3664 68.94C35.5264 69.56 35.8897 70.05 36.4564 70.41C37.0297 70.77 37.7364 70.95 38.5764 70.95C39.3964 70.95 40.0431 70.78 40.5164 70.44C40.9897 70.0933 41.2264 69.6233 41.2264 69.03C41.2264 68.6967 41.1497 68.4267 40.9964 68.22C40.8431 68.0067 40.5364 67.81 40.0764 67.63C39.6231 67.45 38.9397 67.2367 38.0264 66.99C37.0464 66.7233 36.2764 66.4567 35.7164 66.19C35.1631 65.9233 34.7697 65.6167 34.5364 65.27C34.3097 64.9167 34.1964 64.4867 34.1964 63.98C34.1964 63.06 34.5731 62.3167 35.3264 61.75C36.0864 61.1833 37.0764 60.9 38.2964 60.9C39.1097 60.9 39.8364 61.0333 40.4764 61.3C41.1231 61.56 41.6431 61.9267 42.0364 62.4C42.4297 62.8733 42.6631 63.4233 42.7364 64.05L41.2364 64.32C41.1297 63.6867 40.8131 63.1867 40.2864 62.82C39.7597 62.4467 39.0897 62.2533 38.2764 62.24C37.5097 62.22 36.8864 62.3667 36.4064 62.68C35.9264 62.9867 35.6864 63.3967 35.6864 63.91C35.6864 64.1967 35.7731 64.4433 35.9464 64.65C36.1197 64.85 36.4331 65.04 36.8864 65.22C37.3464 65.4 37.9997 65.5967 38.8464 65.81C39.8397 66.0633 40.6197 66.33 41.1864 66.61C41.7531 66.89 42.1564 67.22 42.3964 67.6C42.6364 67.98 42.7564 68.45 42.7564 69.01C42.7564 70.03 42.3764 70.8333 41.6164 71.42C40.8631 72 39.8231 72.29 38.4964 72.29ZM49.5442 72.3C48.4909 72.3 47.5776 72.0667 46.8042 71.6C46.0309 71.1333 45.4309 70.4767 45.0042 69.63C44.5842 68.7833 44.3742 67.79 44.3742 66.65C44.3742 65.47 44.5842 64.45 45.0042 63.59C45.4242 62.73 46.0142 62.0667 46.7742 61.6C47.5409 61.1333 48.4442 60.9 49.4842 60.9C51.0842 60.9 52.3242 61.4433 53.2042 62.53C54.0909 63.61 54.5076 65.1033 54.4542 67.01H45.9442C46.0042 68.25 46.3409 69.2067 46.9542 69.88C47.5676 70.5533 48.4109 70.89 49.4842 70.89C51.0576 70.89 52.1876 70.1967 52.8742 68.81L54.2442 69.34C53.8176 70.28 53.1876 71.01 52.3542 71.53C51.5276 72.0433 50.5909 72.3 49.5442 72.3ZM49.5242 62.25C48.4842 62.25 47.6609 62.5567 47.0542 63.17C46.4476 63.7767 46.0876 64.6467 45.9742 65.78H52.9142C52.6809 63.4267 51.5509 62.25 49.5242 62.25ZM59.5681 72.3C58.7548 72.3 58.0715 72.1533 57.5181 71.86C56.9715 71.5667 56.5615 71.1767 56.2881 70.69C56.0148 70.2033 55.8781 69.6733 55.8781 69.1C55.8781 68.2133 56.1348 67.5233 56.6481 67.03C57.1615 66.53 57.8215 66.1733 58.6281 65.96C59.1148 65.84 59.6481 65.7333 60.2281 65.64C60.8081 65.5467 61.3848 65.4633 61.9581 65.39C62.5381 65.3167 63.0681 65.25 63.5481 65.19C63.5348 64.21 63.3081 63.4833 62.8681 63.01C62.4281 62.53 61.6948 62.29 60.6681 62.29C59.9281 62.29 59.3015 62.4567 58.7881 62.79C58.2815 63.1233 57.9248 63.65 57.7181 64.37L56.2881 63.95C56.5348 62.9833 57.0315 62.2333 57.7781 61.7C58.5248 61.1667 59.4948 60.9 60.6881 60.9C61.6748 60.9 62.5115 61.0867 63.1981 61.46C63.8915 61.8267 64.3815 62.36 64.6681 63.06C64.8015 63.3733 64.8881 63.7233 64.9281 64.11C64.9681 64.4967 64.9881 64.89 64.9881 65.29V72H63.6781V70.22C62.8248 71.6067 61.4548 72.3 59.5681 72.3ZM59.7381 71.03C60.7715 71.03 61.6015 70.76 62.2281 70.22C62.8615 69.68 63.2481 69.0033 63.3881 68.19C63.4481 67.9233 63.4848 67.6333 63.4981 67.32C63.5181 67 63.5281 66.7167 63.5281 66.47C62.8215 66.5567 62.0748 66.65 61.2881 66.75C60.5015 66.85 59.8115 66.98 59.2181 67.14C58.7581 67.2733 58.3315 67.4867 57.9381 67.78C57.5448 68.0733 57.3481 68.5133 57.3481 69.1C57.3481 69.4133 57.4248 69.7167 57.5781 70.01C57.7381 70.3033 57.9915 70.5467 58.3381 70.74C58.6915 70.9333 59.1581 71.03 59.7381 71.03ZM67.5914 72V61.2H68.9114V62.91C69.1514 62.49 69.4314 62.1567 69.7514 61.91C70.1781 61.5433 70.6914 61.3033 71.2914 61.19C71.8914 61.0767 72.4281 61.08 72.9014 61.2V62.58C72.5014 62.48 72.0681 62.4567 71.6014 62.51C71.1414 62.5633 70.7147 62.75 70.3214 63.07C69.7814 63.4967 69.4347 64.0333 69.2814 64.68C69.1347 65.32 69.0614 65.9633 69.0614 66.61V72H67.5914ZM79.0831 72.3C77.9965 72.3 77.0765 72.0567 76.3231 71.57C75.5765 71.0833 75.0065 70.4133 74.6131 69.56C74.2198 68.7 74.0165 67.7133 74.0031 66.6C74.0165 65.4667 74.2231 64.4733 74.6231 63.62C75.0231 62.76 75.5998 62.0933 76.3531 61.62C77.1065 61.14 78.0198 60.9 79.0931 60.9C80.1865 60.9 81.1365 61.1667 81.9431 61.7C82.7565 62.2333 83.3131 62.9633 83.6131 63.89L82.1731 64.35C81.9198 63.7033 81.5165 63.2033 80.9631 62.85C80.4165 62.49 79.7898 62.31 79.0831 62.31C77.8898 62.31 77.0065 62.71 76.4331 63.51C75.8665 64.31 75.5765 65.34 75.5631 66.6C75.5765 67.8933 75.8765 68.9333 76.4631 69.72C77.0498 70.5 77.9231 70.89 79.0831 70.89C80.5631 70.89 81.5798 70.23 82.1331 68.91L83.6131 69.35C83.2065 70.31 82.6165 71.0433 81.8431 71.55C81.0765 72.05 80.1565 72.3 79.0831 72.3ZM85.6673 72V57.6H86.9973V62.7C87.3973 62.12 87.9073 61.68 88.5273 61.38C89.154 61.08 89.854 60.93 90.6273 60.93C91.4407 60.93 92.124 61.0833 92.6773 61.39C93.2307 61.69 93.674 62.09 94.0073 62.59C94.3407 63.0833 94.5807 63.6333 94.7273 64.24C94.8807 64.8467 94.9573 65.4533 94.9573 66.06V72H93.4773V66.49C93.4773 65.6967 93.374 64.9867 93.1673 64.36C92.9607 63.7333 92.6273 63.24 92.1673 62.88C91.7073 62.5133 91.1007 62.33 90.3473 62.33C89.3073 62.33 88.514 62.6767 87.9673 63.37C87.4207 64.0633 87.1473 65.02 87.1473 66.24V72H85.6673Z" fill="#F7F5F5"/>
<path d="M102.083 65C102.083 66.4728 103.277 67.6667 104.75 67.6667C106.223 67.6667 107.417 66.4728 107.417 65C107.417 63.5272 106.223 62.3333 104.75 62.3333C103.277 62.3333 102.083 63.5272 102.083 65ZM164.75 65L159.75 62.1132V67.8868L164.75 65ZM104.75 65.5H106.625V64.5H104.75V65.5ZM110.375 65.5H114.125V64.5H110.375V65.5ZM117.875 65.5H121.625V64.5H117.875V65.5ZM125.375 65.5H129.125V64.5H125.375V65.5ZM132.875 65.5H136.625V64.5H132.875V65.5ZM140.375 65.5H144.125V64.5H140.375V65.5ZM147.875 65.5H151.625V64.5H147.875V65.5ZM155.375 65.5H159.125V64.5H155.375V65.5Z" fill="#12223C"/>
<path d="M261.083 65C261.083 66.4728 262.277 67.6667 263.75 67.6667C265.223 67.6667 266.417 66.4728 266.417 65C266.417 63.5272 265.223 62.3333 263.75 62.3333C262.277 62.3333 261.083 63.5272 261.083 65ZM323.75 65L318.75 62.1132V67.8868L323.75 65ZM263.75 65.5H265.625V64.5H263.75V65.5ZM269.375 65.5H273.125V64.5H269.375V65.5ZM276.875 65.5H280.625V64.5H276.875V65.5ZM284.375 65.5H288.125V64.5H284.375V65.5ZM291.875 65.5H295.625V64.5H291.875V65.5ZM299.375 65.5H303.125V64.5H299.375V65.5ZM306.875 65.5H310.625V64.5H306.875V65.5ZM314.375 65.5H318.125V64.5H314.375V65.5Z" fill="#12223C"/>
<path d="M543.083 65C543.083 66.4728 544.277 67.6667 545.75 67.6667C547.223 67.6667 548.417 66.4728 548.417 65C548.417 63.5272 547.223 62.3333 545.75 62.3333C544.277 62.3333 543.083 63.5272 543.083 65ZM645.75 65L640.75 62.1132V67.8868L645.75 65ZM545.75 65.5H547.673V64.5H545.75V65.5ZM551.519 65.5H555.365V64.5H551.519V65.5ZM559.212 65.5H563.058V64.5H559.212V65.5ZM566.904 65.5H570.75V64.5H566.904V65.5ZM574.596 65.5H578.442V64.5H574.596V65.5ZM582.288 65.5H586.135V64.5H582.288V65.5ZM589.981 65.5H593.827V64.5H589.981V65.5ZM597.673 65.5H601.519V64.5H597.673V65.5ZM605.365 65.5H609.212V64.5H605.365V65.5ZM613.058 65.5H616.904V64.5H613.058V65.5ZM620.75 65.5H624.596V64.5H620.75V65.5ZM628.442 65.5H632.288V64.5H628.442V65.5ZM636.135 65.5H639.981V64.5H636.135V65.5Z" fill="#12223C"/>
<path d="M357.083 43C357.083 44.4728 358.277 45.6667 359.75 45.6667C361.223 45.6667 362.417 44.4728 362.417 43C362.417 41.5272 361.223 40.3333 359.75 40.3333C358.277 40.3333 357.083 41.5272 357.083 43ZM488.75 37.6545L491.418 32.5344L485.65 32.7841L488.75 37.6545ZM360.25 43C360.25 42.3673 360.272 41.7379 360.315 41.1122L359.318 41.0432C359.273 41.6918 359.25 42.3442 359.25 43H360.25ZM360.834 37.3749C361.092 36.1458 361.432 34.9334 361.852 33.74L360.909 33.4078C360.475 34.6417 360.122 35.8967 359.855 37.17L360.834 37.3749ZM363.329 30.2593C363.885 29.1419 364.513 28.0445 365.209 26.9694L364.369 26.4259C363.654 27.5313 363.007 28.6613 362.433 29.8136L363.329 30.2593ZM367.429 23.8993C368.209 22.9267 369.047 21.9762 369.94 21.0496L369.22 20.3556C368.307 21.3032 367.449 22.2765 366.649 23.2737L367.429 23.8993ZM372.693 18.4222C373.63 17.5973 374.613 16.7955 375.64 16.0182L375.037 15.2208C373.991 16.0124 372.989 16.8299 372.032 17.6716L372.693 18.4222ZM378.76 13.8216C379.807 13.1352 380.891 12.4722 382.009 11.8339L381.514 10.9653C380.378 11.6135 379.276 12.2873 378.211 12.9853L378.76 13.8216ZM385.379 10.0389C386.504 9.4795 387.66 8.94374 388.843 8.43277L388.446 7.51473C387.247 8.03263 386.076 8.57588 384.934 9.14335L385.379 10.0389ZM392.384 7.00881C393.565 6.56776 394.77 6.15043 395.997 5.75783L395.693 4.80538C394.45 5.20276 393.23 5.6253 392.034 6.072L392.384 7.00881ZM399.664 4.67699C400.881 4.34777 402.118 4.04225 403.372 3.76132L403.154 2.7855C401.885 3.06958 400.634 3.3786 399.403 3.71165L399.664 4.67699ZM407.121 3.00518C408.365 2.78119 409.626 2.58101 410.9 2.40544L410.763 1.4148C409.476 1.59222 408.202 1.79455 406.944 2.02098L407.121 3.00518ZM414.7 1.95957C415.958 1.83728 417.229 1.73879 418.511 1.66482L418.453 0.666485C417.158 0.741198 415.875 0.840698 414.603 0.964257L414.7 1.95957ZM422.332 1.5183C422.969 1.50613 423.609 1.5 424.25 1.5V0.5C423.602 0.5 422.957 0.506189 422.313 0.51848L422.332 1.5183ZM424.25 1.5C424.92 1.5 425.592 1.50653 426.265 1.51956L426.285 0.519746C425.605 0.506596 424.927 0.5 424.25 0.5V1.5ZM430.298 1.67424C431.638 1.75092 432.981 1.85273 434.322 1.97939L434.416 0.983821C433.062 0.856009 431.708 0.753256 430.355 0.675877L430.298 1.67424ZM438.332 2.4327C439.668 2.60864 440.999 2.8091 442.323 3.03376L442.49 2.04786C441.154 1.82111 439.81 1.61881 438.462 1.44126L438.332 2.4327ZM446.288 3.7839C447.61 4.06036 448.921 4.36131 450.219 4.68641L450.462 3.7164C449.152 3.38805 447.827 3.08416 446.492 2.80506L446.288 3.7839ZM454.112 5.74759C455.41 6.1311 456.691 6.53968 457.949 6.97294L458.274 6.02742C457.002 5.5892 455.707 5.17612 454.395 4.78853L454.112 5.74759ZM461.73 8.37698C462.991 8.88069 464.224 9.41075 465.425 9.96671L465.845 9.05924C464.627 8.49548 463.378 7.9584 462.101 7.44835L461.73 8.37698ZM469.029 11.7663C470.229 12.4118 471.387 13.0857 472.501 13.7877L473.034 12.9418C471.9 12.227 470.722 11.5415 469.503 10.8857L469.029 11.7663ZM475.809 16.0578C476.901 16.8751 477.935 17.7239 478.905 18.6035L479.577 17.8627C478.582 16.9607 477.524 16.092 476.408 15.2571L475.809 16.0578ZM481.715 21.4438C482.611 22.46 483.425 23.5106 484.151 24.595L484.982 24.0387C484.23 22.9152 483.388 21.8296 482.465 20.7826L481.715 21.4438ZM486.107 28.052C486.668 29.256 487.125 30.4964 487.471 31.7724L488.436 31.5107C488.075 30.1776 487.597 28.8835 487.013 27.6296L486.107 28.052ZM357.083 43C357.083 44.4728 358.277 45.6667 359.75 45.6667C361.223 45.6667 362.417 44.4728 362.417 43C362.417 41.5272 361.223 40.3333 359.75 40.3333C358.277 40.3333 357.083 41.5272 357.083 43ZM488.75 37.6545L491.418 32.5344L485.65 32.7841L488.75 37.6545ZM360.25 43C360.25 42.3673 360.272 41.7379 360.315 41.1122L359.318 41.0432C359.273 41.6918 359.25 42.3442 359.25 43H360.25ZM360.834 37.3749C361.092 36.1458 361.432 34.9334 361.852 33.74L360.909 33.4078C360.475 34.6417 360.122 35.8967 359.855 37.17L360.834 37.3749ZM363.329 30.2593C363.885 29.1419 364.513 28.0445 365.209 26.9694L364.369 26.4259C363.654 27.5313 363.007 28.6613 362.433 29.8136L363.329 30.2593ZM367.429 23.8993C368.209 22.9267 369.047 21.9762 369.94 21.0496L369.22 20.3556C368.307 21.3032 367.449 22.2765 366.649 23.2737L367.429 23.8993ZM372.693 18.4222C373.63 17.5973 374.613 16.7955 375.64 16.0182L375.037 15.2208C373.991 16.0124 372.989 16.8299 372.032 17.6716L372.693 18.4222ZM378.76 13.8216C379.807 13.1352 380.891 12.4722 382.009 11.8339L381.514 10.9653C380.378 11.6135 379.276 12.2873 378.211 12.9853L378.76 13.8216ZM385.379 10.0389C386.504 9.4795 387.66 8.94374 388.843 8.43277L388.446 7.51473C387.247 8.03263 386.076 8.57588 384.934 9.14335L385.379 10.0389ZM392.384 7.00881C393.565 6.56776 394.77 6.15043 395.997 5.75783L395.693 4.80538C394.45 5.20276 393.23 5.6253 392.034 6.072L392.384 7.00881ZM399.664 4.67699C400.881 4.34777 402.118 4.04225 403.372 3.76132L403.154 2.7855C401.885 3.06958 400.634 3.3786 399.403 3.71165L399.664 4.67699ZM407.121 3.00518C408.365 2.78119 409.626 2.58101 410.9 2.40544L410.763 1.4148C409.476 1.59222 408.202 1.79455 406.944 2.02098L407.121 3.00518ZM414.7 1.95957C415.958 1.83728 417.229 1.73879 418.511 1.66482L418.453 0.666485C417.158 0.741198 415.875 0.840698 414.603 0.964257L414.7 1.95957ZM422.332 1.5183C422.969 1.50613 423.609 1.5 424.25 1.5V0.5C423.602 0.5 422.957 0.506189 422.313 0.51848L422.332 1.5183ZM424.25 1.5C424.92 1.5 425.592 1.50653 426.265 1.51956L426.285 0.519746C425.605 0.506596 424.927 0.5 424.25 0.5V1.5ZM430.298 1.67424C431.638 1.75092 432.981 1.85273 434.322 1.97939L434.416 0.983821C433.062 0.856009 431.708 0.753256 430.355 0.675877L430.298 1.67424ZM438.332 2.4327C439.668 2.60864 440.999 2.8091 442.323 3.03376L442.49 2.04786C441.154 1.82111 439.81 1.61881 438.462 1.44126L438.332 2.4327ZM446.288 3.7839C447.61 4.06036 448.921 4.36131 450.219 4.68641L450.462 3.7164C449.152 3.38805 447.827 3.08416 446.492 2.80506L446.288 3.7839ZM454.112 5.74759C455.41 6.1311 456.691 6.53968 457.949 6.97294L458.274 6.02742C457.002 5.5892 455.707 5.17612 454.395 4.78853L454.112 5.74759ZM461.73 8.37698C462.991 8.88069 464.224 9.41075 465.425 9.96671L465.845 9.05924C464.627 8.49548 463.378 7.9584 462.101 7.44835L461.73 8.37698ZM469.029 11.7663C470.229 12.4118 471.387 13.0857 472.501 13.7877L473.034 12.9418C471.9 12.227 470.722 11.5415 469.503 10.8857L469.029 11.7663ZM475.809 16.0578C476.901 16.8751 477.935 17.7239 478.905 18.6035L479.577 17.8627C478.582 16.9607 477.524 16.092 476.408 15.2571L475.809 16.0578ZM481.715 21.4438C482.611 22.46 483.425 23.5106 484.151 24.595L484.982 24.0387C484.23 22.9152 483.388 21.8296 482.465 20.7826L481.715 21.4438ZM486.107 28.052C486.668 29.256 487.125 30.4964 487.471 31.7724L488.436 31.5107C488.075 30.1776 487.597 28.8835 487.013 27.6296L486.107 28.052Z" fill="#12223C"/>
<path d="M494.417 86C494.417 84.5273 493.223 83.3333 491.75 83.3333C490.277 83.3333 489.083 84.5273 489.083 86C489.083 87.4728 490.277 88.6667 491.75 88.6667C493.223 88.6667 494.417 87.4728 494.417 86ZM362.75 91.3455L360.082 96.4656L365.85 96.2159L362.75 91.3455ZM491.25 86C491.25 86.6327 491.228 87.2621 491.185 87.8878L492.182 87.9568C492.227 87.3082 492.25 86.6558 492.25 86L491.25 86ZM490.666 91.6251C490.408 92.8542 490.068 94.0667 489.648 95.26L490.591 95.5922C491.025 94.3583 491.378 93.1034 491.645 91.83L490.666 91.6251ZM488.171 98.7407C487.615 99.8582 486.987 100.956 486.291 102.031L487.131 102.574C487.846 101.469 488.493 100.339 489.067 99.1864L488.171 98.7407ZM484.071 105.101C483.291 106.073 482.453 107.024 481.56 107.95L482.28 108.644C483.193 107.697 484.051 106.723 484.851 105.726L484.071 105.101ZM478.807 110.578C477.87 111.403 476.887 112.205 475.86 112.982L476.463 113.779C477.509 112.988 478.511 112.17 479.468 111.328L478.807 110.578ZM472.74 115.178C471.693 115.865 470.609 116.528 469.491 117.166L469.986 118.035C471.122 117.386 472.224 116.713 473.289 116.015L472.74 115.178ZM466.121 118.961C464.996 119.52 463.84 120.056 462.657 120.567L463.054 121.485C464.253 120.967 465.424 120.424 466.566 119.857L466.121 118.961ZM459.116 121.991C457.935 122.432 456.73 122.85 455.503 123.242L455.807 124.195C457.05 123.797 458.27 123.375 459.466 122.928L459.116 121.991ZM451.836 124.323C450.619 124.652 449.382 124.958 448.128 125.239L448.346 126.215C449.615 125.93 450.866 125.621 452.097 125.288L451.836 124.323ZM444.379 125.995C443.135 126.219 441.874 126.419 440.6 126.595L440.737 127.585C442.024 127.408 443.298 127.205 444.556 126.979L444.379 125.995ZM436.8 127.04C435.542 127.163 434.271 127.261 432.989 127.335L433.047 128.334C434.342 128.259 435.625 128.159 436.897 128.036L436.8 127.04ZM429.168 127.482C428.531 127.494 427.891 127.5 427.25 127.5L427.25 128.5C427.898 128.5 428.543 128.494 429.187 128.482L429.168 127.482ZM427.25 127.5C426.58 127.5 425.908 127.493 425.235 127.48L425.215 128.48C425.895 128.493 426.573 128.5 427.25 128.5L427.25 127.5ZM421.202 127.326C419.862 127.249 418.519 127.147 417.178 127.021L417.084 128.016C418.438 128.144 419.792 128.247 421.145 128.324L421.202 127.326ZM413.168 126.567C411.832 126.391 410.501 126.191 409.177 125.966L409.01 126.952C410.346 127.179 411.69 127.381 413.038 127.559L413.168 126.567ZM405.212 125.216C403.89 124.94 402.579 124.639 401.281 124.314L401.038 125.284C402.348 125.612 403.673 125.916 405.008 126.195L405.212 125.216ZM397.388 123.252C396.09 122.869 394.809 122.46 393.551 122.027L393.226 122.973C394.498 123.411 395.793 123.824 397.105 124.211L397.388 123.252ZM389.77 120.623C388.509 120.119 387.276 119.589 386.075 119.033L385.655 119.941C386.873 120.505 388.122 121.042 389.399 121.552L389.77 120.623ZM382.471 117.234C381.271 116.588 380.113 115.914 378.999 115.212L378.466 116.058C379.6 116.773 380.778 117.459 381.997 118.114L382.471 117.234ZM375.691 112.942C374.599 112.125 373.565 111.276 372.595 110.396L371.923 111.137C372.918 112.039 373.976 112.908 375.092 113.743L375.691 112.942ZM369.785 107.556C368.889 106.54 368.075 105.489 367.349 104.405L366.518 104.961C367.27 106.085 368.112 107.17 369.035 108.217L369.785 107.556ZM365.393 100.948C364.832 99.744 364.375 98.5036 364.029 97.2276L363.064 97.4893C363.425 98.8224 363.903 100.116 364.487 101.37L365.393 100.948ZM494.417 86C494.417 84.5273 493.223 83.3333 491.75 83.3333C490.277 83.3333 489.083 84.5273 489.083 86C489.083 87.4728 490.277 88.6667 491.75 88.6667C493.223 88.6667 494.417 87.4728 494.417 86ZM362.75 91.3455L360.082 96.4656L365.85 96.2159L362.75 91.3455ZM491.25 86C491.25 86.6327 491.228 87.2621 491.185 87.8878L492.182 87.9568C492.227 87.3082 492.25 86.6558 492.25 86L491.25 86ZM490.666 91.6251C490.408 92.8542 490.068 94.0667 489.648 95.26L490.591 95.5922C491.025 94.3583 491.378 93.1034 491.645 91.83L490.666 91.6251ZM488.171 98.7407C487.615 99.8582 486.987 100.956 486.291 102.031L487.131 102.574C487.846 101.469 488.493 100.339 489.067 99.1864L488.171 98.7407ZM484.071 105.101C483.291 106.073 482.453 107.024 481.56 107.95L482.28 108.644C483.193 107.697 484.051 106.723 484.851 105.726L484.071 105.101ZM478.807 110.578C477.87 111.403 476.887 112.205 475.86 112.982L476.463 113.779C477.509 112.988 478.511 112.17 479.468 111.328L478.807 110.578ZM472.74 115.178C471.693 115.865 470.609 116.528 469.491 117.166L469.986 118.035C471.122 117.386 472.224 116.713 473.289 116.015L472.74 115.178ZM466.121 118.961C464.996 119.52 463.84 120.056 462.657 120.567L463.054 121.485C464.253 120.967 465.424 120.424 466.566 119.857L466.121 118.961ZM459.116 121.991C457.935 122.432 456.73 122.85 455.503 123.242L455.807 124.195C457.05 123.797 458.27 123.375 459.466 122.928L459.116 121.991ZM451.836 124.323C450.619 124.652 449.382 124.958 448.128 125.239L448.346 126.215C449.615 125.93 450.866 125.621 452.097 125.288L451.836 124.323ZM444.379 125.995C443.135 126.219 441.874 126.419 440.6 126.595L440.737 127.585C442.024 127.408 443.298 127.205 444.556 126.979L444.379 125.995ZM436.8 127.04C435.542 127.163 434.271 127.261 432.989 127.335L433.047 128.334C434.342 128.259 435.625 128.159 436.897 128.036L436.8 127.04ZM429.168 127.482C428.531 127.494 427.891 127.5 427.25 127.5L427.25 128.5C427.898 128.5 428.543 128.494 429.187 128.482L429.168 127.482ZM427.25 127.5C426.58 127.5 425.908 127.493 425.235 127.48L425.215 128.48C425.895 128.493 426.573 128.5 427.25 128.5L427.25 127.5ZM421.202 127.326C419.862 127.249 418.519 127.147 417.178 127.021L417.084 128.016C418.438 128.144 419.792 128.247 421.145 128.324L421.202 127.326ZM413.168 126.567C411.832 126.391 410.501 126.191 409.177 125.966L409.01 126.952C410.346 127.179 411.69 127.381 413.038 127.559L413.168 126.567ZM405.212 125.216C403.89 124.94 402.579 124.639 401.281 124.314L401.038 125.284C402.348 125.612 403.673 125.916 405.008 126.195L405.212 125.216ZM397.388 123.252C396.09 122.869 394.809 122.46 393.551 122.027L393.226 122.973C394.498 123.411 395.793 123.824 397.105 124.211L397.388 123.252ZM389.77 120.623C388.509 120.119 387.276 119.589 386.075 119.033L385.655 119.941C386.873 120.505 388.122 121.042 389.399 121.552L389.77 120.623ZM382.471 117.234C381.271 116.588 380.113 115.914 378.999 115.212L378.466 116.058C379.6 116.773 380.778 117.459 381.997 118.114L382.471 117.234ZM375.691 112.942C374.599 112.125 373.565 111.276 372.595 110.396L371.923 111.137C372.918 112.039 373.976 112.908 375.092 113.743L375.691 112.942ZM369.785 107.556C368.889 106.54 368.075 105.489 367.349 104.405L366.518 104.961C367.27 106.085 368.112 107.17 369.035 108.217L369.785 107.556ZM365.393 100.948C364.832 99.744 364.375 98.5036 364.029 97.2276L363.064 97.4893C363.425 98.8224 363.903 100.116 364.487 101.37L365.393 100.948Z" fill="#12223C"/>
<path d="M505.442 107V104.768H500.05V103.648L503.906 95.48H505.226L501.37 103.648H505.442V100.288H506.626V103.648H507.882V104.768H506.626V107H505.442ZM516.363 107.24C515.557 107.24 514.867 107.04 514.291 106.64C513.72 106.235 513.283 105.688 512.979 105C512.68 104.312 512.531 103.536 512.531 102.672C512.531 101.813 512.68 101.04 512.979 100.352C513.283 99.664 513.717 99.12 514.283 98.72C514.848 98.32 515.525 98.12 516.315 98.12C516.917 98.12 517.448 98.232 517.907 98.456C518.365 98.68 518.752 98.9893 519.067 99.384V95.48H520.251V107H519.195V105.8C518.88 106.248 518.485 106.6 518.011 106.856C517.541 107.112 516.992 107.24 516.363 107.24ZM516.483 106.144C517.096 106.144 517.603 105.995 518.003 105.696C518.403 105.392 518.701 104.979 518.899 104.456C519.096 103.933 519.195 103.339 519.195 102.672C519.195 101.659 518.971 100.829 518.523 100.184C518.08 99.5387 517.408 99.216 516.507 99.216C515.888 99.216 515.376 99.368 514.971 99.672C514.571 99.976 514.272 100.389 514.075 100.912C513.877 101.435 513.779 102.021 513.779 102.672C513.779 103.328 513.877 103.917 514.075 104.44C514.277 104.963 514.579 105.379 514.979 105.688C515.379 105.992 515.88 106.144 516.483 106.144ZM524.967 107.24C524.316 107.24 523.77 107.123 523.327 106.888C522.89 106.653 522.562 106.341 522.343 105.952C522.124 105.563 522.015 105.139 522.015 104.68C522.015 103.971 522.22 103.419 522.631 103.024C523.042 102.624 523.57 102.339 524.215 102.168C524.604 102.072 525.031 101.987 525.495 101.912C525.959 101.837 526.42 101.771 526.879 101.712C527.343 101.653 527.767 101.6 528.151 101.552C528.14 100.768 527.959 100.187 527.607 99.808C527.255 99.424 526.668 99.232 525.847 99.232C525.255 99.232 524.754 99.3653 524.343 99.632C523.938 99.8987 523.652 100.32 523.487 100.896L522.343 100.56C522.54 99.7867 522.938 99.1867 523.535 98.76C524.132 98.3333 524.908 98.12 525.863 98.12C526.652 98.12 527.322 98.2693 527.871 98.568C528.426 98.8613 528.818 99.288 529.047 99.848C529.154 100.099 529.223 100.379 529.255 100.688C529.287 100.997 529.303 101.312 529.303 101.632V107H528.255V105.576C527.572 106.685 526.476 107.24 524.967 107.24ZM525.103 106.224C525.93 106.224 526.594 106.008 527.095 105.576C527.602 105.144 527.911 104.603 528.023 103.952C528.071 103.739 528.1 103.507 528.111 103.256C528.127 103 528.135 102.773 528.135 102.576C527.57 102.645 526.972 102.72 526.343 102.8C525.714 102.88 525.162 102.984 524.687 103.112C524.319 103.219 523.978 103.389 523.663 103.624C523.348 103.859 523.191 104.211 523.191 104.68C523.191 104.931 523.252 105.173 523.375 105.408C523.503 105.643 523.706 105.837 523.983 105.992C524.266 106.147 524.639 106.224 525.103 106.224ZM532.133 110.84L533.557 106.984L530.045 98.36H531.293L534.125 105.464L536.749 98.36H537.949L533.309 110.84H532.133ZM542.563 107.232C541.549 107.232 540.715 107.013 540.059 106.576C539.408 106.139 539.008 105.531 538.859 104.752L540.059 104.552C540.187 105.048 540.477 105.44 540.931 105.728C541.389 106.016 541.955 106.16 542.627 106.16C543.283 106.16 543.8 106.024 544.179 105.752C544.557 105.475 544.747 105.099 544.747 104.624C544.747 104.357 544.685 104.141 544.563 103.976C544.44 103.805 544.195 103.648 543.827 103.504C543.464 103.36 542.917 103.189 542.187 102.992C541.403 102.779 540.787 102.565 540.339 102.352C539.896 102.139 539.581 101.893 539.395 101.616C539.213 101.333 539.123 100.989 539.123 100.584C539.123 99.848 539.424 99.2533 540.027 98.8C540.635 98.3467 541.427 98.12 542.403 98.12C543.053 98.12 543.635 98.2267 544.147 98.44C544.664 98.648 545.08 98.9413 545.395 99.32C545.709 99.6987 545.896 100.139 545.955 100.64L544.755 100.856C544.669 100.349 544.416 99.9493 543.995 99.656C543.573 99.3573 543.037 99.2027 542.387 99.192C541.773 99.176 541.275 99.2933 540.891 99.544C540.507 99.7893 540.315 100.117 540.315 100.528C540.315 100.757 540.384 100.955 540.523 101.12C540.661 101.28 540.912 101.432 541.275 101.576C541.643 101.72 542.165 101.877 542.843 102.048C543.637 102.251 544.261 102.464 544.715 102.688C545.168 102.912 545.491 103.176 545.683 103.48C545.875 103.784 545.971 104.16 545.971 104.608C545.971 105.424 545.667 106.067 545.059 106.536C544.456 107 543.624 107.232 542.563 107.232Z" fill="#12223C"/>
<path d="M724.442 107V104.768H719.05V103.648L722.906 95.48H724.226L720.37 103.648H724.442V100.288H725.626V103.648H726.882V104.768H725.626V107H724.442ZM735.363 107.24C734.557 107.24 733.867 107.04 733.291 106.64C732.72 106.235 732.283 105.688 731.979 105C731.68 104.312 731.531 103.536 731.531 102.672C731.531 101.813 731.68 101.04 731.979 100.352C732.283 99.664 732.717 99.12 733.283 98.72C733.848 98.32 734.525 98.12 735.315 98.12C735.917 98.12 736.448 98.232 736.907 98.456C737.365 98.68 737.752 98.9893 738.067 99.384V95.48H739.251V107H738.195V105.8C737.88 106.248 737.485 106.6 737.011 106.856C736.541 107.112 735.992 107.24 735.363 107.24ZM735.483 106.144C736.096 106.144 736.603 105.995 737.003 105.696C737.403 105.392 737.701 104.979 737.899 104.456C738.096 103.933 738.195 103.339 738.195 102.672C738.195 101.659 737.971 100.829 737.523 100.184C737.08 99.5387 736.408 99.216 735.507 99.216C734.888 99.216 734.376 99.368 733.971 99.672C733.571 99.976 733.272 100.389 733.075 100.912C732.877 101.435 732.779 102.021 732.779 102.672C732.779 103.328 732.877 103.917 733.075 104.44C733.277 104.963 733.579 105.379 733.979 105.688C734.379 105.992 734.88 106.144 735.483 106.144ZM743.967 107.24C743.316 107.24 742.77 107.123 742.327 106.888C741.89 106.653 741.562 106.341 741.343 105.952C741.124 105.563 741.015 105.139 741.015 104.68C741.015 103.971 741.22 103.419 741.631 103.024C742.042 102.624 742.57 102.339 743.215 102.168C743.604 102.072 744.031 101.987 744.495 101.912C744.959 101.837 745.42 101.771 745.879 101.712C746.343 101.653 746.767 101.6 747.151 101.552C747.14 100.768 746.959 100.187 746.607 99.808C746.255 99.424 745.668 99.232 744.847 99.232C744.255 99.232 743.754 99.3653 743.343 99.632C742.938 99.8987 742.652 100.32 742.487 100.896L741.343 100.56C741.54 99.7867 741.938 99.1867 742.535 98.76C743.132 98.3333 743.908 98.12 744.863 98.12C745.652 98.12 746.322 98.2693 746.871 98.568C747.426 98.8613 747.818 99.288 748.047 99.848C748.154 100.099 748.223 100.379 748.255 100.688C748.287 100.997 748.303 101.312 748.303 101.632V107H747.255V105.576C746.572 106.685 745.476 107.24 743.967 107.24ZM744.103 106.224C744.93 106.224 745.594 106.008 746.095 105.576C746.602 105.144 746.911 104.603 747.023 103.952C747.071 103.739 747.1 103.507 747.111 103.256C747.127 103 747.135 102.773 747.135 102.576C746.57 102.645 745.972 102.72 745.343 102.8C744.714 102.88 744.162 102.984 743.687 103.112C743.319 103.219 742.978 103.389 742.663 103.624C742.348 103.859 742.191 104.211 742.191 104.68C742.191 104.931 742.252 105.173 742.375 105.408C742.503 105.643 742.706 105.837 742.983 105.992C743.266 106.147 743.639 106.224 744.103 106.224ZM751.133 110.84L752.557 106.984L749.045 98.36H750.293L753.125 105.464L755.749 98.36H756.949L752.309 110.84H751.133ZM761.563 107.232C760.549 107.232 759.715 107.013 759.059 106.576C758.408 106.139 758.008 105.531 757.859 104.752L759.059 104.552C759.187 105.048 759.477 105.44 759.931 105.728C760.389 106.016 760.955 106.16 761.627 106.16C762.283 106.16 762.8 106.024 763.179 105.752C763.557 105.475 763.747 105.099 763.747 104.624C763.747 104.357 763.685 104.141 763.563 103.976C763.44 103.805 763.195 103.648 762.827 103.504C762.464 103.36 761.917 103.189 761.187 102.992C760.403 102.779 759.787 102.565 759.339 102.352C758.896 102.139 758.581 101.893 758.395 101.616C758.213 101.333 758.123 100.989 758.123 100.584C758.123 99.848 758.424 99.2533 759.027 98.8C759.635 98.3467 760.427 98.12 761.403 98.12C762.053 98.12 762.635 98.2267 763.147 98.44C763.664 98.648 764.08 98.9413 764.395 99.32C764.709 99.6987 764.896 100.139 764.955 100.64L763.755 100.856C763.669 100.349 763.416 99.9493 762.995 99.656C762.573 99.3573 762.037 99.2027 761.387 99.192C760.773 99.176 760.275 99.2933 759.891 99.544C759.507 99.7893 759.315 100.117 759.315 100.528C759.315 100.757 759.384 100.955 759.523 101.12C759.661 101.28 759.912 101.432 760.275 101.576C760.643 101.72 761.165 101.877 761.843 102.048C762.637 102.251 763.261 102.464 763.715 102.688C764.168 102.912 764.491 103.176 764.683 103.48C764.875 103.784 764.971 104.16 764.971 104.608C764.971 105.424 764.667 106.067 764.059 106.536C763.456 107 762.624 107.232 761.563 107.232Z" fill="#12223C"/>
<path d="M222.442 107V104.768H217.05V103.648L220.906 95.48H222.226L218.37 103.648H222.442V100.288H223.626V103.648H224.882V104.768H223.626V107H222.442ZM233.363 107.24C232.557 107.24 231.867 107.04 231.291 106.64C230.72 106.235 230.283 105.688 229.979 105C229.68 104.312 229.531 103.536 229.531 102.672C229.531 101.813 229.68 101.04 229.979 100.352C230.283 99.664 230.717 99.12 231.283 98.72C231.848 98.32 232.525 98.12 233.315 98.12C233.917 98.12 234.448 98.232 234.907 98.456C235.365 98.68 235.752 98.9893 236.067 99.384V95.48H237.251V107H236.195V105.8C235.88 106.248 235.485 106.6 235.011 106.856C234.541 107.112 233.992 107.24 233.363 107.24ZM233.483 106.144C234.096 106.144 234.603 105.995 235.003 105.696C235.403 105.392 235.701 104.979 235.899 104.456C236.096 103.933 236.195 103.339 236.195 102.672C236.195 101.659 235.971 100.829 235.523 100.184C235.08 99.5387 234.408 99.216 233.507 99.216C232.888 99.216 232.376 99.368 231.971 99.672C231.571 99.976 231.272 100.389 231.075 100.912C230.877 101.435 230.779 102.021 230.779 102.672C230.779 103.328 230.877 103.917 231.075 104.44C231.277 104.963 231.579 105.379 231.979 105.688C232.379 105.992 232.88 106.144 233.483 106.144ZM241.967 107.24C241.316 107.24 240.77 107.123 240.327 106.888C239.89 106.653 239.562 106.341 239.343 105.952C239.124 105.563 239.015 105.139 239.015 104.68C239.015 103.971 239.22 103.419 239.631 103.024C240.042 102.624 240.57 102.339 241.215 102.168C241.604 102.072 242.031 101.987 242.495 101.912C242.959 101.837 243.42 101.771 243.879 101.712C244.343 101.653 244.767 101.6 245.151 101.552C245.14 100.768 244.959 100.187 244.607 99.808C244.255 99.424 243.668 99.232 242.847 99.232C242.255 99.232 241.754 99.3653 241.343 99.632C240.938 99.8987 240.652 100.32 240.487 100.896L239.343 100.56C239.54 99.7867 239.938 99.1867 240.535 98.76C241.132 98.3333 241.908 98.12 242.863 98.12C243.652 98.12 244.322 98.2693 244.871 98.568C245.426 98.8613 245.818 99.288 246.047 99.848C246.154 100.099 246.223 100.379 246.255 100.688C246.287 100.997 246.303 101.312 246.303 101.632V107H245.255V105.576C244.572 106.685 243.476 107.24 241.967 107.24ZM242.103 106.224C242.93 106.224 243.594 106.008 244.095 105.576C244.602 105.144 244.911 104.603 245.023 103.952C245.071 103.739 245.1 103.507 245.111 103.256C245.127 103 245.135 102.773 245.135 102.576C244.57 102.645 243.972 102.72 243.343 102.8C242.714 102.88 242.162 102.984 241.687 103.112C241.319 103.219 240.978 103.389 240.663 103.624C240.348 103.859 240.191 104.211 240.191 104.68C240.191 104.931 240.252 105.173 240.375 105.408C240.503 105.643 240.706 105.837 240.983 105.992C241.266 106.147 241.639 106.224 242.103 106.224ZM249.133 110.84L250.557 106.984L247.045 98.36H248.293L251.125 105.464L253.749 98.36H254.949L250.309 110.84H249.133ZM259.563 107.232C258.549 107.232 257.715 107.013 257.059 106.576C256.408 106.139 256.008 105.531 255.859 104.752L257.059 104.552C257.187 105.048 257.477 105.44 257.931 105.728C258.389 106.016 258.955 106.16 259.627 106.16C260.283 106.16 260.8 106.024 261.179 105.752C261.557 105.475 261.747 105.099 261.747 104.624C261.747 104.357 261.685 104.141 261.563 103.976C261.44 103.805 261.195 103.648 260.827 103.504C260.464 103.36 259.917 103.189 259.187 102.992C258.403 102.779 257.787 102.565 257.339 102.352C256.896 102.139 256.581 101.893 256.395 101.616C256.213 101.333 256.123 100.989 256.123 100.584C256.123 99.848 256.424 99.2533 257.027 98.8C257.635 98.3467 258.427 98.12 259.403 98.12C260.053 98.12 260.635 98.2267 261.147 98.44C261.664 98.648 262.08 98.9413 262.395 99.32C262.709 99.6987 262.896 100.139 262.955 100.64L261.755 100.856C261.669 100.349 261.416 99.9493 260.995 99.656C260.573 99.3573 260.037 99.2027 259.387 99.192C258.773 99.176 258.275 99.2933 257.891 99.544C257.507 99.7893 257.315 100.117 257.315 100.528C257.315 100.757 257.384 100.955 257.523 101.12C257.661 101.28 257.912 101.432 258.275 101.576C258.643 101.72 259.165 101.877 259.843 102.048C260.637 102.251 261.261 102.464 261.715 102.688C262.168 102.912 262.491 103.176 262.683 103.48C262.875 103.784 262.971 104.16 262.971 104.608C262.971 105.424 262.667 106.067 262.059 106.536C261.456 107 260.624 107.232 259.563 107.232Z" fill="#12223C"/>
</svg>
