<svg width="570" height="229" viewBox="0 0 570 229" fill="none" xmlns="http://www.w3.org/2000/svg">
<rect x="292" y="89" width="52" height="129" fill="#317463"/>
<rect x="179" y="51" width="52" height="167" fill="#2D4F8F"/>
<path d="M193.278 78L196.254 70.728H192.48V69.36H197.802V70.728L194.838 78H193.278ZM201.8 78.18C201.364 78.18 200.954 78.09 200.57 77.91C200.19 77.73 199.862 77.48 199.586 77.16C199.314 76.836 199.118 76.462 198.998 76.038L200.39 75.666C200.478 76.014 200.662 76.29 200.942 76.494C201.226 76.694 201.53 76.794 201.854 76.794C202.134 76.794 202.39 76.726 202.622 76.59C202.854 76.454 203.038 76.272 203.174 76.044C203.31 75.812 203.378 75.556 203.378 75.276C203.378 74.996 203.308 74.742 203.168 74.514C203.032 74.282 202.848 74.1 202.616 73.968C202.384 73.832 202.13 73.764 201.854 73.764C201.522 73.764 201.246 73.826 201.026 73.95C200.81 74.07 200.644 74.196 200.528 74.328L199.292 73.932L199.556 69.36H204.248V70.716H200.84L200.714 72.84C200.918 72.712 201.136 72.616 201.368 72.552C201.604 72.488 201.832 72.456 202.052 72.456C202.592 72.456 203.07 72.58 203.486 72.828C203.906 73.072 204.234 73.406 204.47 73.83C204.71 74.254 204.83 74.736 204.83 75.276C204.83 75.816 204.69 76.306 204.41 76.746C204.134 77.186 203.766 77.536 203.306 77.796C202.846 78.052 202.344 78.18 201.8 78.18ZM208.31 73.5C207.914 73.5 207.552 73.404 207.224 73.212C206.9 73.016 206.64 72.756 206.444 72.432C206.248 72.104 206.15 71.74 206.15 71.34C206.15 70.948 206.25 70.588 206.45 70.26C206.65 69.932 206.914 69.67 207.242 69.474C207.57 69.278 207.926 69.18 208.31 69.18C208.706 69.18 209.066 69.278 209.39 69.474C209.718 69.666 209.98 69.926 210.176 70.254C210.372 70.578 210.47 70.94 210.47 71.34C210.47 71.74 210.372 72.104 210.176 72.432C209.98 72.756 209.718 73.016 209.39 73.212C209.066 73.404 208.706 73.5 208.31 73.5ZM207.47 78L206.51 77.04L214.196 69.36L215.156 70.326L207.47 78ZM208.31 72.264C208.562 72.264 208.778 72.172 208.958 71.988C209.142 71.804 209.234 71.588 209.234 71.34C209.234 71.092 209.142 70.876 208.958 70.692C208.778 70.508 208.562 70.416 208.31 70.416C208.062 70.416 207.846 70.508 207.662 70.692C207.478 70.876 207.386 71.092 207.386 71.34C207.386 71.588 207.478 71.804 207.662 71.988C207.846 72.172 208.062 72.264 208.31 72.264ZM213.356 78.18C212.96 78.18 212.598 78.084 212.27 77.892C211.942 77.696 211.68 77.436 211.484 77.112C211.292 76.784 211.196 76.42 211.196 76.02C211.196 75.628 211.296 75.268 211.496 74.94C211.696 74.612 211.96 74.35 212.288 74.154C212.616 73.958 212.972 73.86 213.356 73.86C213.752 73.86 214.112 73.958 214.436 74.154C214.764 74.346 215.026 74.606 215.222 74.934C215.418 75.258 215.516 75.62 215.516 76.02C215.516 76.42 215.418 76.784 215.222 77.112C215.026 77.436 214.764 77.696 214.436 77.892C214.112 78.084 213.752 78.18 213.356 78.18ZM213.356 76.944C213.604 76.944 213.82 76.852 214.004 76.668C214.188 76.484 214.28 76.268 214.28 76.02C214.28 75.772 214.188 75.556 214.004 75.372C213.82 75.188 213.604 75.096 213.356 75.096C213.104 75.096 212.886 75.188 212.702 75.372C212.518 75.556 212.426 75.772 212.426 76.02C212.426 76.268 212.518 76.484 212.702 76.668C212.886 76.852 213.104 76.944 213.356 76.944Z" fill="#F7F5F5"/>
<path d="M182.84 212V203.36H185.594C185.666 203.36 185.808 203.362 186.02 203.366C186.236 203.37 186.444 203.384 186.644 203.408C187.332 203.496 187.912 203.74 188.384 204.14C188.856 204.536 189.214 205.042 189.458 205.658C189.702 206.274 189.824 206.948 189.824 207.68C189.824 208.412 189.702 209.086 189.458 209.702C189.214 210.318 188.856 210.826 188.384 211.226C187.912 211.622 187.332 211.864 186.644 211.952C186.444 211.976 186.236 211.99 186.02 211.994C185.804 211.998 185.662 212 185.594 212H182.84ZM184.31 210.638H185.594C185.714 210.638 185.866 210.636 186.05 210.632C186.238 210.624 186.404 210.604 186.548 210.572C186.956 210.492 187.288 210.31 187.544 210.026C187.804 209.738 187.994 209.388 188.114 208.976C188.234 208.564 188.294 208.132 188.294 207.68C188.294 207.212 188.232 206.772 188.108 206.36C187.984 205.948 187.792 205.602 187.532 205.322C187.276 205.042 186.948 204.864 186.548 204.788C186.404 204.756 186.238 204.738 186.05 204.734C185.866 204.726 185.714 204.722 185.594 204.722H184.31V210.638ZM191.362 212V203.36H192.808V212H191.362ZM198.17 212.18C197.422 212.18 196.742 212.006 196.13 211.658C195.518 211.306 195.03 210.796 194.666 210.128C194.306 209.456 194.126 208.64 194.126 207.68C194.126 206.736 194.302 205.93 194.654 205.262C195.01 204.59 195.492 204.076 196.1 203.72C196.712 203.36 197.402 203.18 198.17 203.18C199.234 203.18 200.064 203.418 200.66 203.894C201.256 204.366 201.664 205.002 201.884 205.802L200.414 206.036C200.25 205.608 199.994 205.254 199.646 204.974C199.298 204.694 198.836 204.552 198.26 204.548C197.68 204.54 197.198 204.666 196.814 204.926C196.43 205.186 196.14 205.552 195.944 206.024C195.752 206.496 195.656 207.048 195.656 207.68C195.656 208.624 195.872 209.38 196.304 209.948C196.74 210.516 197.392 210.806 198.26 210.818C198.912 210.826 199.442 210.646 199.85 210.278C200.258 209.906 200.518 209.348 200.63 208.604H198.464V207.47H202.166C202.174 207.534 202.18 207.628 202.184 207.752C202.188 207.876 202.19 207.95 202.19 207.974C202.19 208.79 202.028 209.516 201.704 210.152C201.384 210.784 200.924 211.28 200.324 211.64C199.724 212 199.006 212.18 198.17 212.18ZM203.515 212V203.36H204.961V212H203.515ZM208.834 212V204.716H206.038V203.36H213.076V204.716H210.28V212H208.834ZM213.201 212L215.925 203.36H218.043L220.767 212H219.279L218.679 210.128H215.283L214.689 212H213.201ZM215.703 208.778H218.253L216.969 204.752L215.703 208.778ZM221.972 212V203.36H223.418V210.644H227.234V212H221.972Z" fill="#F7F5F5"/>
<rect x="405" y="111" width="52" height="107" fill="#EBBE4B"/>
<path d="M118 218H457" stroke="#272741" stroke-width="2"/>
<path d="M113.667 218C113.667 220.946 116.054 223.333 119 223.333C121.946 223.333 124.333 220.946 124.333 218C124.333 215.054 121.946 212.667 119 212.667C116.054 212.667 113.667 215.054 113.667 218ZM120 18C120 17.4477 119.552 17 119 17C118.448 17 118 17.4477 118 18H120ZM120 218V18H118V218H120Z" fill="#272741"/>
<circle cx="118.5" cy="125.5" r="2.5" fill="#12223C"/>
<circle cx="118.5" cy="180.5" r="2.5" fill="#12223C"/>
<circle cx="118.5" cy="70.5" r="2.5" fill="#12223C"/>
<path d="M115.6 10.375C115.105 10.375 114.653 10.255 114.243 10.015C113.838 9.77 113.513 9.445 113.268 9.04C113.023 8.63 112.9 8.175 112.9 7.675C112.9 7.185 113.025 6.735 113.275 6.325C113.525 5.915 113.855 5.5875 114.265 5.3425C114.675 5.0975 115.12 4.975 115.6 4.975C116.095 4.975 116.545 5.0975 116.95 5.3425C117.36 5.5825 117.688 5.9075 117.933 6.3175C118.178 6.7225 118.3 7.175 118.3 7.675C118.3 8.175 118.178 8.63 117.933 9.04C117.688 9.445 117.36 9.77 116.95 10.015C116.545 10.255 116.095 10.375 115.6 10.375ZM114.55 16L113.35 14.8L122.958 5.2L124.158 6.4075L114.55 16ZM115.6 8.83C115.915 8.83 116.185 8.715 116.41 8.485C116.64 8.255 116.755 7.985 116.755 7.675C116.755 7.365 116.64 7.095 116.41 6.865C116.185 6.635 115.915 6.52 115.6 6.52C115.29 6.52 115.02 6.635 114.79 6.865C114.56 7.095 114.445 7.365 114.445 7.675C114.445 7.985 114.56 8.255 114.79 8.485C115.02 8.715 115.29 8.83 115.6 8.83ZM121.908 16.225C121.413 16.225 120.96 16.105 120.55 15.865C120.14 15.62 119.813 15.295 119.568 14.89C119.328 14.48 119.208 14.025 119.208 13.525C119.208 13.035 119.333 12.585 119.583 12.175C119.833 11.765 120.163 11.4375 120.573 11.1925C120.983 10.9475 121.428 10.825 121.908 10.825C122.403 10.825 122.853 10.9475 123.258 11.1925C123.668 11.4325 123.995 11.7575 124.24 12.1675C124.485 12.5725 124.608 13.025 124.608 13.525C124.608 14.025 124.485 14.48 124.24 14.89C123.995 15.295 123.668 15.62 123.258 15.865C122.853 16.105 122.403 16.225 121.908 16.225ZM121.908 14.68C122.218 14.68 122.488 14.565 122.718 14.335C122.948 14.105 123.063 13.835 123.063 13.525C123.063 13.215 122.948 12.945 122.718 12.715C122.488 12.485 122.218 12.37 121.908 12.37C121.593 12.37 121.32 12.485 121.09 12.715C120.86 12.945 120.745 13.215 120.745 13.525C120.745 13.835 120.86 14.105 121.09 14.335C121.32 14.565 121.593 14.68 121.908 14.68Z" fill="#272741"/>
<path d="M297.84 212V203.36H301.41C301.494 203.36 301.602 203.364 301.734 203.372C301.866 203.376 301.988 203.388 302.1 203.408C302.852 203.524 303.406 203.822 303.762 204.302C304.122 204.782 304.302 205.362 304.302 206.042C304.302 206.374 304.242 206.704 304.122 207.032C304.002 207.36 303.822 207.656 303.582 207.92C303.342 208.184 303.038 208.386 302.67 208.526L304.47 212H302.832L301.134 208.724H299.286V212H297.84ZM299.286 207.368H301.35C301.43 207.368 301.52 207.368 301.62 207.368C301.724 207.364 301.816 207.346 301.896 207.314C302.256 207.17 302.504 206.982 302.64 206.75C302.776 206.518 302.844 206.282 302.844 206.042C302.844 205.802 302.776 205.554 302.64 205.298C302.504 205.038 302.256 204.862 301.896 204.77C301.812 204.75 301.72 204.736 301.62 204.728C301.52 204.72 301.43 204.716 301.35 204.716H299.286V207.368ZM305.762 212V203.36H311.342V204.716H307.208V206.846H310.622V208.202H307.208V210.644H311.342V212H305.762ZM314.857 212V204.716H312.061V203.36H319.099V204.716H316.303V212H314.857ZM320.059 212V203.36H323.629C323.713 203.36 323.821 203.364 323.953 203.372C324.085 203.376 324.207 203.388 324.319 203.408C325.071 203.524 325.625 203.822 325.981 204.302C326.341 204.782 326.521 205.362 326.521 206.042C326.521 206.374 326.461 206.704 326.341 207.032C326.221 207.36 326.041 207.656 325.801 207.92C325.561 208.184 325.257 208.386 324.889 208.526L326.689 212H325.051L323.353 208.724H321.505V212H320.059ZM321.505 207.368H323.569C323.649 207.368 323.739 207.368 323.839 207.368C323.943 207.364 324.035 207.346 324.115 207.314C324.475 207.17 324.723 206.982 324.859 206.75C324.995 206.518 325.063 206.282 325.063 206.042C325.063 205.802 324.995 205.554 324.859 205.298C324.723 205.038 324.475 204.862 324.115 204.77C324.031 204.75 323.939 204.736 323.839 204.728C323.739 204.72 323.649 204.716 323.569 204.716H321.505V207.368ZM331.635 212.18C330.775 212.18 330.035 211.992 329.415 211.616C328.799 211.236 328.325 210.708 327.993 210.032C327.665 209.356 327.501 208.572 327.501 207.68C327.501 206.788 327.665 206.004 327.993 205.328C328.325 204.652 328.799 204.126 329.415 203.75C330.035 203.37 330.775 203.18 331.635 203.18C332.499 203.18 333.239 203.37 333.855 203.75C334.475 204.126 334.949 204.652 335.277 205.328C335.609 206.004 335.775 206.788 335.775 207.68C335.775 208.572 335.609 209.356 335.277 210.032C334.949 210.708 334.475 211.236 333.855 211.616C333.239 211.992 332.499 212.18 331.635 212.18ZM331.635 210.818C332.215 210.822 332.697 210.694 333.081 210.434C333.469 210.174 333.759 209.808 333.951 209.336C334.147 208.86 334.245 208.308 334.245 207.68C334.245 206.736 334.027 205.98 333.591 205.412C333.159 204.844 332.507 204.554 331.635 204.542C331.055 204.538 330.573 204.666 330.189 204.926C329.805 205.186 329.515 205.552 329.319 206.024C329.127 206.496 329.031 207.048 329.031 207.68C329.031 208.624 329.247 209.38 329.679 209.948C330.115 210.516 330.767 210.806 331.635 210.818Z" fill="#F7F5F5"/>
<path d="M307.828 112.18C307.264 112.18 306.756 112.048 306.304 111.784C305.856 111.516 305.5 111.146 305.236 110.674C304.972 110.202 304.84 109.66 304.84 109.048V106.42C304.84 105.764 304.972 105.194 305.236 104.71C305.5 104.226 305.868 103.852 306.34 103.588C306.812 103.324 307.362 103.192 307.99 103.192C308.43 103.192 308.844 103.266 309.232 103.414C309.62 103.562 309.968 103.794 310.276 104.11L309.232 105.124C309.076 104.944 308.89 104.802 308.674 104.698C308.458 104.594 308.23 104.542 307.99 104.542C307.654 104.542 307.36 104.622 307.108 104.782C306.856 104.938 306.66 105.144 306.52 105.4C306.384 105.656 306.316 105.93 306.316 106.222V107.104C306.812 106.668 307.386 106.45 308.038 106.45C308.582 106.45 309.062 106.574 309.478 106.822C309.898 107.066 310.226 107.402 310.462 107.83C310.702 108.254 310.822 108.738 310.822 109.282C310.822 109.822 310.684 110.312 310.408 110.752C310.136 111.188 309.774 111.536 309.322 111.796C308.87 112.052 308.372 112.18 307.828 112.18ZM307.828 110.794C308.108 110.794 308.364 110.726 308.596 110.59C308.828 110.454 309.012 110.272 309.148 110.044C309.288 109.816 309.358 109.562 309.358 109.282C309.358 109.002 309.29 108.746 309.154 108.514C309.018 108.282 308.834 108.098 308.602 107.962C308.374 107.822 308.12 107.752 307.84 107.752C307.56 107.752 307.304 107.822 307.072 107.962C306.844 108.098 306.66 108.282 306.52 108.514C306.384 108.746 306.316 109.002 306.316 109.282C306.316 109.554 306.384 109.806 306.52 110.038C306.656 110.266 306.838 110.45 307.066 110.59C307.294 110.726 307.548 110.794 307.828 110.794ZM315.119 112.18C314.547 112.18 314.039 112.064 313.595 111.832C313.151 111.6 312.803 111.278 312.551 110.866C312.299 110.454 312.173 109.982 312.173 109.45C312.173 109.038 312.255 108.652 312.419 108.292C312.583 107.928 312.825 107.618 313.145 107.362C312.905 107.13 312.719 106.87 312.587 106.582C312.459 106.29 312.395 105.97 312.395 105.622C312.395 105.126 312.511 104.696 312.743 104.332C312.975 103.964 313.295 103.68 313.703 103.48C314.115 103.28 314.587 103.18 315.119 103.18C315.651 103.18 316.121 103.28 316.529 103.48C316.941 103.68 317.263 103.964 317.495 104.332C317.731 104.696 317.849 105.126 317.849 105.622C317.849 106.306 317.601 106.886 317.105 107.362C317.421 107.61 317.663 107.918 317.831 108.286C317.999 108.65 318.083 109.038 318.083 109.45C318.083 109.982 317.955 110.454 317.699 110.866C317.443 111.278 317.093 111.6 316.649 111.832C316.205 112.064 315.695 112.18 315.119 112.18ZM315.119 106.702C315.475 106.702 315.763 106.614 315.983 106.438C316.207 106.258 316.319 105.986 316.319 105.622C316.319 105.258 316.207 104.988 315.983 104.812C315.763 104.632 315.475 104.542 315.119 104.542C314.767 104.542 314.479 104.632 314.255 104.812C314.035 104.988 313.925 105.258 313.925 105.622C313.925 105.986 314.035 106.258 314.255 106.438C314.479 106.614 314.767 106.702 315.119 106.702ZM315.119 110.818C315.543 110.818 315.887 110.702 316.151 110.47C316.419 110.238 316.553 109.898 316.553 109.45C316.553 109.006 316.421 108.666 316.157 108.43C315.893 108.194 315.547 108.076 315.119 108.076C314.695 108.076 314.353 108.194 314.093 108.43C313.833 108.666 313.703 109.006 313.703 109.45C313.703 109.898 313.833 110.238 314.093 110.47C314.353 110.702 314.695 110.818 315.119 110.818ZM321.681 107.5C321.285 107.5 320.923 107.404 320.595 107.212C320.271 107.016 320.011 106.756 319.815 106.432C319.619 106.104 319.521 105.74 319.521 105.34C319.521 104.948 319.621 104.588 319.821 104.26C320.021 103.932 320.285 103.67 320.613 103.474C320.941 103.278 321.297 103.18 321.681 103.18C322.077 103.18 322.437 103.278 322.761 103.474C323.089 103.666 323.351 103.926 323.547 104.254C323.743 104.578 323.841 104.94 323.841 105.34C323.841 105.74 323.743 106.104 323.547 106.432C323.351 106.756 323.089 107.016 322.761 107.212C322.437 107.404 322.077 107.5 321.681 107.5ZM320.841 112L319.881 111.04L327.567 103.36L328.527 104.326L320.841 112ZM321.681 106.264C321.933 106.264 322.149 106.172 322.329 105.988C322.513 105.804 322.605 105.588 322.605 105.34C322.605 105.092 322.513 104.876 322.329 104.692C322.149 104.508 321.933 104.416 321.681 104.416C321.433 104.416 321.217 104.508 321.033 104.692C320.849 104.876 320.757 105.092 320.757 105.34C320.757 105.588 320.849 105.804 321.033 105.988C321.217 106.172 321.433 106.264 321.681 106.264ZM326.727 112.18C326.331 112.18 325.969 112.084 325.641 111.892C325.313 111.696 325.051 111.436 324.855 111.112C324.663 110.784 324.567 110.42 324.567 110.02C324.567 109.628 324.667 109.268 324.867 108.94C325.067 108.612 325.331 108.35 325.659 108.154C325.987 107.958 326.343 107.86 326.727 107.86C327.123 107.86 327.483 107.958 327.807 108.154C328.135 108.346 328.397 108.606 328.593 108.934C328.789 109.258 328.887 109.62 328.887 110.02C328.887 110.42 328.789 110.784 328.593 111.112C328.397 111.436 328.135 111.696 327.807 111.892C327.483 112.084 327.123 112.18 326.727 112.18ZM326.727 110.944C326.975 110.944 327.191 110.852 327.375 110.668C327.559 110.484 327.651 110.268 327.651 110.02C327.651 109.772 327.559 109.556 327.375 109.372C327.191 109.188 326.975 109.096 326.727 109.096C326.475 109.096 326.257 109.188 326.073 109.372C325.889 109.556 325.797 109.772 325.797 110.02C325.797 110.268 325.889 110.484 326.073 110.668C326.257 110.852 326.475 110.944 326.727 110.944Z" fill="#F7F5F5"/>
<path d="M414.494 212.18C413.634 212.18 412.894 211.992 412.274 211.616C411.658 211.236 411.184 210.708 410.852 210.032C410.524 209.356 410.36 208.572 410.36 207.68C410.36 206.788 410.524 206.004 410.852 205.328C411.184 204.652 411.658 204.126 412.274 203.75C412.894 203.37 413.634 203.18 414.494 203.18C415.49 203.18 416.32 203.43 416.984 203.93C417.648 204.426 418.114 205.096 418.382 205.94L416.924 206.342C416.756 205.782 416.47 205.342 416.066 205.022C415.662 204.702 415.138 204.542 414.494 204.542C413.626 204.542 412.974 204.83 412.538 205.406C412.102 205.978 411.882 206.736 411.878 207.68C411.878 208.624 412.096 209.384 412.532 209.96C412.972 210.532 413.626 210.818 414.494 210.818C415.138 210.818 415.662 210.658 416.066 210.338C416.47 210.018 416.756 209.578 416.924 209.018L418.382 209.42C418.114 210.264 417.648 210.936 416.984 211.436C416.32 211.932 415.49 212.18 414.494 212.18ZM419.819 212V203.36H421.265V210.644H425.081V212H419.819ZM426.098 212V203.36H431.678V204.716H427.544V206.846H430.958V208.202H427.544V210.644H431.678V212H426.098ZM432.517 212L435.241 203.36H437.359L440.083 212H438.595L437.995 210.128H434.599L434.005 212H432.517ZM435.019 208.778H437.569L436.285 204.752L435.019 208.778ZM441.168 212V203.36H444.738C444.822 203.36 444.93 203.364 445.062 203.372C445.194 203.376 445.316 203.388 445.428 203.408C446.18 203.524 446.734 203.822 447.09 204.302C447.45 204.782 447.63 205.362 447.63 206.042C447.63 206.374 447.57 206.704 447.45 207.032C447.33 207.36 447.15 207.656 446.91 207.92C446.67 208.184 446.366 208.386 445.998 208.526L447.798 212H446.16L444.462 208.724H442.614V212H441.168ZM442.614 207.368H444.678C444.758 207.368 444.848 207.368 444.948 207.368C445.052 207.364 445.144 207.346 445.224 207.314C445.584 207.17 445.832 206.982 445.968 206.75C446.104 206.518 446.172 206.282 446.172 206.042C446.172 205.802 446.104 205.554 445.968 205.298C445.832 205.038 445.584 204.862 445.224 204.77C445.14 204.75 445.048 204.736 444.948 204.728C444.848 204.72 444.758 204.716 444.678 204.716H442.614V207.368Z" fill="#272741"/>
<path d="M420.828 131.18C420.264 131.18 419.756 131.048 419.304 130.784C418.856 130.516 418.5 130.146 418.236 129.674C417.972 129.202 417.84 128.66 417.84 128.048V125.42C417.84 124.764 417.972 124.194 418.236 123.71C418.5 123.226 418.868 122.852 419.34 122.588C419.812 122.324 420.362 122.192 420.99 122.192C421.43 122.192 421.844 122.266 422.232 122.414C422.62 122.562 422.968 122.794 423.276 123.11L422.232 124.124C422.076 123.944 421.89 123.802 421.674 123.698C421.458 123.594 421.23 123.542 420.99 123.542C420.654 123.542 420.36 123.622 420.108 123.782C419.856 123.938 419.66 124.144 419.52 124.4C419.384 124.656 419.316 124.93 419.316 125.222V126.104C419.812 125.668 420.386 125.45 421.038 125.45C421.582 125.45 422.062 125.574 422.478 125.822C422.898 126.066 423.226 126.402 423.462 126.83C423.702 127.254 423.822 127.738 423.822 128.282C423.822 128.822 423.684 129.312 423.408 129.752C423.136 130.188 422.774 130.536 422.322 130.796C421.87 131.052 421.372 131.18 420.828 131.18ZM420.828 129.794C421.108 129.794 421.364 129.726 421.596 129.59C421.828 129.454 422.012 129.272 422.148 129.044C422.288 128.816 422.358 128.562 422.358 128.282C422.358 128.002 422.29 127.746 422.154 127.514C422.018 127.282 421.834 127.098 421.602 126.962C421.374 126.822 421.12 126.752 420.84 126.752C420.56 126.752 420.304 126.822 420.072 126.962C419.844 127.098 419.66 127.282 419.52 127.514C419.384 127.746 419.316 128.002 419.316 128.282C419.316 128.554 419.384 128.806 419.52 129.038C419.656 129.266 419.838 129.45 420.066 129.59C420.294 129.726 420.548 129.794 420.828 129.794ZM428.401 131.18C427.789 131.18 427.249 131.05 426.781 130.79C426.313 130.526 425.947 130.16 425.683 129.692C425.423 129.224 425.293 128.684 425.293 128.072V125.288C425.293 124.676 425.423 124.136 425.683 123.668C425.947 123.2 426.313 122.836 426.781 122.576C427.249 122.312 427.789 122.18 428.401 122.18C429.013 122.18 429.553 122.312 430.021 122.576C430.489 122.836 430.853 123.2 431.113 123.668C431.377 124.136 431.509 124.676 431.509 125.288V128.072C431.509 128.684 431.377 129.224 431.113 129.692C430.853 130.16 430.489 130.526 430.021 130.79C429.553 131.05 429.013 131.18 428.401 131.18ZM428.401 129.806C428.705 129.806 428.981 129.734 429.229 129.59C429.477 129.442 429.673 129.246 429.817 129.002C429.961 128.754 430.033 128.478 430.033 128.174V125.18C430.033 124.872 429.961 124.596 429.817 124.352C429.673 124.104 429.477 123.908 429.229 123.764C428.981 123.616 428.705 123.542 428.401 123.542C428.097 123.542 427.821 123.616 427.573 123.764C427.325 123.908 427.129 124.104 426.985 124.352C426.841 124.596 426.769 124.872 426.769 125.18V128.174C426.769 128.478 426.841 128.754 426.985 129.002C427.129 129.246 427.325 129.442 427.573 129.59C427.821 129.734 428.097 129.806 428.401 129.806ZM435.232 126.5C434.836 126.5 434.474 126.404 434.146 126.212C433.822 126.016 433.562 125.756 433.366 125.432C433.17 125.104 433.072 124.74 433.072 124.34C433.072 123.948 433.172 123.588 433.372 123.26C433.572 122.932 433.836 122.67 434.164 122.474C434.492 122.278 434.848 122.18 435.232 122.18C435.628 122.18 435.988 122.278 436.312 122.474C436.64 122.666 436.902 122.926 437.098 123.254C437.294 123.578 437.392 123.94 437.392 124.34C437.392 124.74 437.294 125.104 437.098 125.432C436.902 125.756 436.64 126.016 436.312 126.212C435.988 126.404 435.628 126.5 435.232 126.5ZM434.392 131L433.432 130.04L441.118 122.36L442.078 123.326L434.392 131ZM435.232 125.264C435.484 125.264 435.7 125.172 435.88 124.988C436.064 124.804 436.156 124.588 436.156 124.34C436.156 124.092 436.064 123.876 435.88 123.692C435.7 123.508 435.484 123.416 435.232 123.416C434.984 123.416 434.768 123.508 434.584 123.692C434.4 123.876 434.308 124.092 434.308 124.34C434.308 124.588 434.4 124.804 434.584 124.988C434.768 125.172 434.984 125.264 435.232 125.264ZM440.278 131.18C439.882 131.18 439.52 131.084 439.192 130.892C438.864 130.696 438.602 130.436 438.406 130.112C438.214 129.784 438.118 129.42 438.118 129.02C438.118 128.628 438.218 128.268 438.418 127.94C438.618 127.612 438.882 127.35 439.21 127.154C439.538 126.958 439.894 126.86 440.278 126.86C440.674 126.86 441.034 126.958 441.358 127.154C441.686 127.346 441.948 127.606 442.144 127.934C442.34 128.258 442.438 128.62 442.438 129.02C442.438 129.42 442.34 129.784 442.144 130.112C441.948 130.436 441.686 130.696 441.358 130.892C441.034 131.084 440.674 131.18 440.278 131.18ZM440.278 129.944C440.526 129.944 440.742 129.852 440.926 129.668C441.11 129.484 441.202 129.268 441.202 129.02C441.202 128.772 441.11 128.556 440.926 128.372C440.742 128.188 440.526 128.096 440.278 128.096C440.026 128.096 439.808 128.188 439.624 128.372C439.44 128.556 439.348 128.772 439.348 129.02C439.348 129.268 439.44 129.484 439.624 129.668C439.808 129.852 440.026 129.944 440.278 129.944Z" fill="#272741"/>
</svg>
