<svg width="347" height="222" viewBox="0 0 347 222" fill="none" xmlns="http://www.w3.org/2000/svg">
<rect x="0.5" y="0.5" width="346" height="221" rx="31.5" fill="white"/>
<rect x="0.5" y="0.5" width="346" height="221" rx="31.5" stroke="#2D4F8F" stroke-dasharray="2 2"/>
<path d="M81.1281 117.952L81.1761 111.52L112.424 83.296C115.112 80.896 116.888 78.592 117.752 76.384C118.648 74.176 119.096 71.872 119.096 69.472C119.096 66.624 118.424 64.048 117.08 61.744C115.768 59.44 113.96 57.616 111.656 56.272C109.384 54.896 106.84 54.208 104.024 54.208C101.08 54.208 98.4561 54.912 96.1521 56.32C93.8481 57.728 92.0241 59.584 90.6801 61.888C89.3681 64.192 88.7281 66.704 88.7601 69.424H81.5601C81.5601 65.232 82.5521 61.488 84.5361 58.192C86.5201 54.864 89.2081 52.24 92.6001 50.32C95.9921 48.4 99.8321 47.44 104.12 47.44C108.312 47.44 112.072 48.432 115.4 50.416C118.76 52.368 121.4 55.024 123.32 58.384C125.272 61.712 126.248 65.424 126.248 69.52C126.248 73.84 125.448 77.424 123.848 80.272C122.28 83.12 119.816 86.032 116.456 89.008L91.8801 111.184H126.248V117.952H81.1281ZM156.374 119.392C151.254 119.392 146.758 118.048 142.886 115.36C139.046 112.64 136.39 108.944 134.918 104.272L141.638 102.256C142.79 105.712 144.678 108.32 147.302 110.08C149.958 111.808 152.95 112.64 156.278 112.576C160.886 112.48 164.502 111.008 167.126 108.16C169.782 105.312 171.11 101.568 171.11 96.928C171.11 92.224 169.734 88.448 166.982 85.6C164.262 82.72 160.662 81.28 156.182 81.28C154.934 81.28 153.622 81.456 152.246 81.808C150.87 82.16 149.59 82.624 148.406 83.2L144.854 77.584L168.566 55.648H137.654V48.88H177.59V55.744L157.382 75.088C161.542 75.056 165.206 75.968 168.374 77.824C171.542 79.68 174.006 82.256 175.766 85.552C177.526 88.816 178.406 92.608 178.406 96.928C178.406 101.344 177.446 105.248 175.526 108.64C173.638 112 171.03 114.64 167.702 116.56C164.374 118.448 160.598 119.392 156.374 119.392ZM207.181 82C204.013 82 201.117 81.232 198.493 79.696C195.901 78.128 193.821 76.048 192.253 73.456C190.685 70.832 189.901 67.92 189.901 64.72C189.901 61.584 190.701 58.704 192.301 56.08C193.901 53.456 196.013 51.36 198.637 49.792C201.261 48.224 204.109 47.44 207.181 47.44C210.349 47.44 213.229 48.224 215.821 49.792C218.445 51.328 220.541 53.408 222.109 56.032C223.677 58.624 224.461 61.52 224.461 64.72C224.461 67.92 223.677 70.832 222.109 73.456C220.541 76.048 218.445 78.128 215.821 79.696C213.229 81.232 210.349 82 207.181 82ZM197.581 118L192.781 113.2L257.245 48.88L262.045 53.632L197.581 118ZM207.181 75.616C209.165 75.616 210.973 75.12 212.605 74.128C214.269 73.136 215.597 71.824 216.589 70.192C217.581 68.528 218.077 66.704 218.077 64.72C218.077 62.736 217.581 60.928 216.589 59.296C215.597 57.632 214.269 56.304 212.605 55.312C210.973 54.32 209.165 53.824 207.181 53.824C205.197 53.824 203.373 54.32 201.709 55.312C200.077 56.304 198.765 57.632 197.773 59.296C196.781 60.928 196.285 62.736 196.285 64.72C196.285 66.704 196.781 68.528 197.773 70.192C198.765 71.824 200.077 73.136 201.709 74.128C203.373 75.12 205.197 75.616 207.181 75.616ZM247.645 119.44C244.477 119.44 241.581 118.672 238.957 117.136C236.333 115.568 234.237 113.488 232.669 110.896C231.133 108.272 230.365 105.36 230.365 102.16C230.365 99.024 231.165 96.144 232.765 93.52C234.365 90.896 236.477 88.8 239.101 87.232C241.725 85.664 244.573 84.88 247.645 84.88C250.813 84.88 253.693 85.664 256.285 87.232C258.909 88.768 261.005 90.848 262.573 93.472C264.141 96.064 264.925 98.96 264.925 102.16C264.925 105.36 264.141 108.272 262.573 110.896C261.005 113.488 258.909 115.568 256.285 117.136C253.693 118.672 250.813 119.44 247.645 119.44ZM247.645 113.056C249.597 113.056 251.405 112.56 253.069 111.568C254.733 110.576 256.061 109.264 257.053 107.632C258.045 105.968 258.541 104.144 258.541 102.16C258.541 100.176 258.045 98.368 257.053 96.736C256.061 95.072 254.733 93.744 253.069 92.752C251.405 91.76 249.597 91.264 247.645 91.264C245.661 91.264 243.837 91.76 242.173 92.752C240.541 93.744 239.213 95.072 238.189 96.736C237.197 98.368 236.701 100.176 236.701 102.16C236.701 104.144 237.197 105.968 238.189 107.632C239.213 109.264 240.541 110.576 242.173 111.568C243.837 112.56 245.661 113.056 247.645 113.056ZM26.3204 172.3C25.2404 172.3 24.2971 172.057 23.4904 171.57C22.6837 171.083 22.0571 170.413 21.6104 169.56C21.1704 168.7 20.9504 167.713 20.9504 166.6C20.9504 165.467 21.1771 164.473 21.6304 163.62C22.0837 162.767 22.7137 162.1 23.5204 161.62C24.3271 161.14 25.2604 160.9 26.3204 160.9C27.4071 160.9 28.3537 161.143 29.1604 161.63C29.9671 162.117 30.5937 162.79 31.0404 163.65C31.4871 164.503 31.7104 165.487 31.7104 166.6C31.7104 167.72 31.4837 168.71 31.0304 169.57C30.5837 170.423 29.9571 171.093 29.1504 171.58C28.3437 172.06 27.4004 172.3 26.3204 172.3ZM26.3204 170.04C27.2737 170.04 27.9837 169.72 28.4504 169.08C28.9237 168.44 29.1604 167.613 29.1604 166.6C29.1604 165.553 28.9237 164.72 28.4504 164.1C27.9771 163.473 27.2671 163.16 26.3204 163.16C25.3537 163.16 24.6404 163.48 24.1804 164.12C23.7271 164.753 23.5004 165.58 23.5004 166.6C23.5004 167.653 23.7371 168.49 24.2104 169.11C24.6904 169.73 25.3937 170.04 26.3204 170.04ZM34.8537 172V163.09H33.1137V161.2H34.8537V161.03C34.8537 160.617 34.8803 160.15 34.9337 159.63C34.987 159.11 35.197 158.65 35.5637 158.25C35.8703 157.91 36.2003 157.677 36.5537 157.55C36.9137 157.417 37.267 157.343 37.6137 157.33C37.9603 157.31 38.2637 157.3 38.5237 157.3H39.8737V159.26H38.6237C38.1637 159.26 37.8203 159.377 37.5937 159.61C37.3737 159.837 37.2637 160.137 37.2637 160.51V161.2H39.8737V163.09H37.2637V172H34.8537ZM50.2462 172.3C49.1662 172.3 48.2228 172.057 47.4162 171.57C46.6095 171.083 45.9828 170.413 45.5362 169.56C45.0962 168.7 44.8762 167.713 44.8762 166.6C44.8762 165.467 45.1028 164.473 45.5562 163.62C46.0095 162.767 46.6395 162.1 47.4462 161.62C48.2528 161.14 49.1862 160.9 50.2462 160.9C51.3328 160.9 52.2795 161.143 53.0862 161.63C53.8928 162.117 54.5195 162.79 54.9662 163.65C55.4128 164.503 55.6362 165.487 55.6362 166.6C55.6362 167.72 55.4095 168.71 54.9562 169.57C54.5095 170.423 53.8828 171.093 53.0762 171.58C52.2695 172.06 51.3262 172.3 50.2462 172.3ZM50.2462 170.04C51.1995 170.04 51.9095 169.72 52.3762 169.08C52.8495 168.44 53.0862 167.613 53.0862 166.6C53.0862 165.553 52.8495 164.72 52.3762 164.1C51.9028 163.473 51.1928 163.16 50.2462 163.16C49.2795 163.16 48.5662 163.48 48.1062 164.12C47.6528 164.753 47.4262 165.58 47.4262 166.6C47.4262 167.653 47.6628 168.49 48.1362 169.11C48.6162 169.73 49.3195 170.04 50.2462 170.04ZM57.8195 172V161.2H59.9695V162.4C60.3628 161.933 60.8528 161.567 61.4395 161.3C62.0328 161.027 62.7195 160.89 63.4995 160.89C64.2995 160.89 64.9595 161.023 65.4795 161.29C65.9995 161.55 66.4128 161.89 66.7195 162.31C67.0261 162.723 67.2528 163.163 67.3995 163.63C67.5461 164.097 67.6395 164.54 67.6795 164.96C67.7261 165.373 67.7495 165.71 67.7495 165.97V172H65.3095V166.8C65.3095 166.467 65.2828 166.093 65.2295 165.68C65.1828 165.26 65.0761 164.86 64.9095 164.48C64.7495 164.1 64.4995 163.787 64.1595 163.54C63.8195 163.287 63.3628 163.16 62.7895 163.16C62.3761 163.16 61.9761 163.253 61.5895 163.44C61.2095 163.627 60.8928 163.957 60.6395 164.43C60.3861 164.903 60.2595 165.577 60.2595 166.45V172H57.8195ZM70.559 172V157.3H72.969V172H70.559ZM76.1645 172V161.2H78.5745V172H76.1645ZM77.3645 159.9C76.9511 159.9 76.6078 159.763 76.3345 159.49C76.0611 159.21 75.9245 158.867 75.9245 158.46C75.9245 158.06 76.0611 157.72 76.3345 157.44C76.6078 157.16 76.9511 157.02 77.3645 157.02C77.7845 157.02 78.1311 157.16 78.4045 157.44C78.6778 157.72 78.8145 158.06 78.8145 158.46C78.8145 158.867 78.6778 159.21 78.4045 159.49C78.1311 159.763 77.7845 159.9 77.3645 159.9ZM81.5499 172V161.2H83.6999V162.4C84.0933 161.933 84.5833 161.567 85.1699 161.3C85.7633 161.027 86.4499 160.89 87.2299 160.89C88.0299 160.89 88.6899 161.023 89.2099 161.29C89.7299 161.55 90.1433 161.89 90.4499 162.31C90.7566 162.723 90.9833 163.163 91.1299 163.63C91.2766 164.097 91.3699 164.54 91.4099 164.96C91.4566 165.373 91.4799 165.71 91.4799 165.97V172H89.0399V166.8C89.0399 166.467 89.0133 166.093 88.9599 165.68C88.9133 165.26 88.8066 164.86 88.6399 164.48C88.4799 164.1 88.2299 163.787 87.8899 163.54C87.5499 163.287 87.0933 163.16 86.5199 163.16C86.1066 163.16 85.7066 163.253 85.3199 163.44C84.9399 163.627 84.6233 163.957 84.3699 164.43C84.1166 164.903 83.9899 165.577 83.9899 166.45V172H81.5499ZM98.8237 172.3C97.7303 172.3 96.7703 172.063 95.9437 171.59C95.117 171.117 94.4703 170.46 94.0037 169.62C93.5437 168.78 93.3137 167.813 93.3137 166.72C93.3137 165.54 93.5403 164.513 93.9937 163.64C94.447 162.767 95.077 162.093 95.8837 161.62C96.6903 161.14 97.6237 160.9 98.6837 160.9C99.8037 160.9 100.754 161.16 101.534 161.68C102.32 162.2 102.904 162.94 103.284 163.9C103.664 164.853 103.807 165.977 103.714 167.27H95.8937C95.987 168.163 96.2703 168.85 96.7437 169.33C97.217 169.803 97.8637 170.04 98.6837 170.04C99.8903 170.04 100.734 169.527 101.214 168.5L103.594 169.22C103.18 170.2 102.54 170.96 101.674 171.5C100.814 172.033 99.8637 172.3 98.8237 172.3ZM98.7837 163.01C97.1837 163.01 96.2403 163.823 95.9537 165.45H101.264C101.164 164.61 100.91 163.993 100.504 163.6C100.104 163.207 99.5303 163.01 98.7837 163.01ZM109.949 172V161.2H111.269V162.91C111.509 162.49 111.789 162.157 112.109 161.91C112.535 161.543 113.049 161.303 113.649 161.19C114.249 161.077 114.785 161.08 115.259 161.2V162.58C114.859 162.48 114.425 162.457 113.959 162.51C113.499 162.563 113.072 162.75 112.679 163.07C112.139 163.497 111.792 164.033 111.639 164.68C111.492 165.32 111.419 165.963 111.419 166.61V172H109.949ZM117.356 172V161.2H118.826V172H117.356ZM118.086 159.34C117.799 159.34 117.556 159.243 117.356 159.05C117.163 158.85 117.066 158.61 117.066 158.33C117.066 158.043 117.163 157.803 117.356 157.61C117.556 157.41 117.799 157.31 118.086 157.31C118.379 157.31 118.623 157.41 118.816 157.61C119.016 157.803 119.116 158.043 119.116 158.33C119.116 158.61 119.016 158.85 118.816 159.05C118.623 159.243 118.379 159.34 118.086 159.34ZM121.814 172V161.2H123.144V162.7C123.544 162.12 124.054 161.68 124.674 161.38C125.3 161.08 126 160.93 126.774 160.93C127.587 160.93 128.27 161.083 128.824 161.39C129.377 161.69 129.82 162.09 130.154 162.59C130.487 163.083 130.727 163.633 130.874 164.24C131.027 164.847 131.104 165.453 131.104 166.06V172H129.624V166.49C129.624 165.697 129.52 164.987 129.314 164.36C129.107 163.733 128.774 163.24 128.314 162.88C127.854 162.513 127.247 162.33 126.494 162.33C125.454 162.33 124.66 162.677 124.114 163.37C123.567 164.063 123.294 165.02 123.294 166.24V172H121.814ZM137.889 172.3C136.882 172.3 136.019 172.05 135.299 171.55C134.585 171.043 134.039 170.36 133.659 169.5C133.285 168.64 133.099 167.67 133.099 166.59C133.099 165.517 133.285 164.55 133.659 163.69C134.039 162.83 134.582 162.15 135.289 161.65C135.995 161.15 136.842 160.9 137.829 160.9C138.629 160.9 139.329 161.06 139.929 161.38C140.535 161.693 141.035 162.127 141.429 162.68V161.2H142.739V171.85C142.739 172.157 142.729 172.45 142.709 172.73C142.695 173.017 142.665 173.297 142.619 173.57C142.425 174.777 141.935 175.667 141.149 176.24C140.362 176.813 139.309 177.1 137.989 177.1C137.162 177.1 136.359 176.913 135.579 176.54C134.805 176.167 134.189 175.56 133.729 174.72L135.059 173.98C135.352 174.58 135.769 175.01 136.309 175.27C136.855 175.537 137.415 175.67 137.989 175.67C139.162 175.67 140.002 175.347 140.509 174.7C141.015 174.053 141.265 173.097 141.259 171.83V170.72C140.872 171.213 140.395 171.6 139.829 171.88C139.269 172.16 138.622 172.3 137.889 172.3ZM138.039 170.93C138.805 170.93 139.439 170.743 139.939 170.37C140.439 169.99 140.812 169.473 141.059 168.82C141.305 168.167 141.429 167.423 141.429 166.59C141.429 165.323 141.149 164.287 140.589 163.48C140.035 162.673 139.195 162.27 138.069 162.27C137.295 162.27 136.655 162.46 136.149 162.84C135.649 163.22 135.275 163.737 135.029 164.39C134.782 165.043 134.659 165.777 134.659 166.59C134.659 167.41 134.782 168.147 135.029 168.8C135.282 169.453 135.659 169.973 136.159 170.36C136.659 170.74 137.285 170.93 138.039 170.93ZM154.049 172.3C152.975 172.3 152.059 172.057 151.299 171.57C150.539 171.083 149.955 170.41 149.549 169.55C149.142 168.69 148.939 167.703 148.939 166.59C148.939 165.457 149.145 164.463 149.559 163.61C149.972 162.757 150.559 162.093 151.319 161.62C152.085 161.14 152.995 160.9 154.049 160.9C155.129 160.9 156.049 161.143 156.809 161.63C157.575 162.11 158.159 162.78 158.559 163.64C158.965 164.493 159.169 165.477 159.169 166.59C159.169 167.723 158.965 168.72 158.559 169.58C158.152 170.433 157.565 171.1 156.799 171.58C156.032 172.06 155.115 172.3 154.049 172.3ZM154.049 170.89C155.249 170.89 156.142 170.493 156.729 169.7C157.315 168.9 157.609 167.863 157.609 166.59C157.609 165.29 157.312 164.253 156.719 163.48C156.125 162.7 155.235 162.31 154.049 162.31C152.842 162.31 151.949 162.71 151.369 163.51C150.789 164.303 150.499 165.33 150.499 166.59C150.499 167.89 150.799 168.933 151.399 169.72C151.999 170.5 152.882 170.89 154.049 170.89ZM161.375 172V161.2H162.695V162.91C162.935 162.49 163.215 162.157 163.535 161.91C163.961 161.543 164.475 161.303 165.075 161.19C165.675 161.077 166.211 161.08 166.685 161.2V162.58C166.285 162.48 165.851 162.457 165.385 162.51C164.925 162.563 164.498 162.75 164.105 163.07C163.565 163.497 163.218 164.033 163.065 164.68C162.918 165.32 162.845 165.963 162.845 166.61V172H161.375ZM172.576 172.3C171.57 172.3 170.706 172.05 169.986 171.55C169.273 171.043 168.726 170.36 168.346 169.5C167.973 168.64 167.786 167.67 167.786 166.59C167.786 165.517 167.973 164.55 168.346 163.69C168.726 162.83 169.27 162.15 169.976 161.65C170.683 161.15 171.53 160.9 172.516 160.9C173.27 160.9 173.933 161.04 174.506 161.32C175.08 161.6 175.563 161.987 175.956 162.48V157.6H177.436V172H176.116V170.5C175.723 171.06 175.23 171.5 174.636 171.82C174.05 172.14 173.363 172.3 172.576 172.3ZM172.726 170.93C173.493 170.93 174.126 170.743 174.626 170.37C175.126 169.99 175.5 169.473 175.746 168.82C175.993 168.167 176.116 167.423 176.116 166.59C176.116 165.323 175.836 164.287 175.276 163.48C174.723 162.673 173.883 162.27 172.756 162.27C171.983 162.27 171.343 162.46 170.836 162.84C170.336 163.22 169.963 163.737 169.716 164.39C169.47 165.043 169.346 165.777 169.346 166.59C169.346 167.41 169.47 168.147 169.716 168.8C169.97 169.453 170.346 169.973 170.846 170.36C171.346 170.74 171.973 170.93 172.726 170.93ZM184.812 172.3C183.758 172.3 182.845 172.067 182.072 171.6C181.298 171.133 180.698 170.477 180.272 169.63C179.852 168.783 179.642 167.79 179.642 166.65C179.642 165.47 179.852 164.45 180.272 163.59C180.692 162.73 181.282 162.067 182.042 161.6C182.808 161.133 183.712 160.9 184.752 160.9C186.352 160.9 187.592 161.443 188.472 162.53C189.358 163.61 189.775 165.103 189.722 167.01H181.212C181.272 168.25 181.608 169.207 182.222 169.88C182.835 170.553 183.678 170.89 184.752 170.89C186.325 170.89 187.455 170.197 188.142 168.81L189.512 169.34C189.085 170.28 188.455 171.01 187.622 171.53C186.795 172.043 185.858 172.3 184.812 172.3ZM184.792 162.25C183.752 162.25 182.928 162.557 182.322 163.17C181.715 163.777 181.355 164.647 181.242 165.78H188.182C187.948 163.427 186.818 162.25 184.792 162.25ZM191.941 172V161.2H193.261V162.91C193.501 162.49 193.781 162.157 194.101 161.91C194.528 161.543 195.041 161.303 195.641 161.19C196.241 161.077 196.778 161.08 197.251 161.2V162.58C196.851 162.48 196.418 162.457 195.951 162.51C195.491 162.563 195.064 162.75 194.671 163.07C194.131 163.497 193.784 164.033 193.631 164.68C193.484 165.32 193.411 165.963 193.411 166.61V172H191.941ZM202.787 172.29C201.521 172.29 200.477 172.017 199.657 171.47C198.844 170.923 198.344 170.163 198.157 169.19L199.657 168.94C199.817 169.56 200.181 170.05 200.747 170.41C201.321 170.77 202.027 170.95 202.867 170.95C203.687 170.95 204.334 170.78 204.807 170.44C205.281 170.093 205.517 169.623 205.517 169.03C205.517 168.697 205.441 168.427 205.287 168.22C205.134 168.007 204.827 167.81 204.367 167.63C203.914 167.45 203.231 167.237 202.317 166.99C201.337 166.723 200.567 166.457 200.007 166.19C199.454 165.923 199.061 165.617 198.827 165.27C198.601 164.917 198.487 164.487 198.487 163.98C198.487 163.06 198.864 162.317 199.617 161.75C200.377 161.183 201.367 160.9 202.587 160.9C203.401 160.9 204.127 161.033 204.767 161.3C205.414 161.56 205.934 161.927 206.327 162.4C206.721 162.873 206.954 163.423 207.027 164.05L205.527 164.32C205.421 163.687 205.104 163.187 204.577 162.82C204.051 162.447 203.381 162.253 202.567 162.24C201.801 162.22 201.177 162.367 200.697 162.68C200.217 162.987 199.977 163.397 199.977 163.91C199.977 164.197 200.064 164.443 200.237 164.65C200.411 164.85 200.724 165.04 201.177 165.22C201.637 165.4 202.291 165.597 203.137 165.81C204.131 166.063 204.911 166.33 205.477 166.61C206.044 166.89 206.447 167.22 206.687 167.6C206.927 167.98 207.047 168.45 207.047 169.01C207.047 170.03 206.667 170.833 205.907 171.42C205.154 172 204.114 172.29 202.787 172.29ZM216.359 172.3C215.546 172.3 214.862 172.153 214.309 171.86C213.762 171.567 213.352 171.177 213.079 170.69C212.806 170.203 212.669 169.673 212.669 169.1C212.669 168.213 212.926 167.523 213.439 167.03C213.952 166.53 214.612 166.173 215.419 165.96C215.906 165.84 216.439 165.733 217.019 165.64C217.599 165.547 218.176 165.463 218.749 165.39C219.329 165.317 219.859 165.25 220.339 165.19C220.326 164.21 220.099 163.483 219.659 163.01C219.219 162.53 218.486 162.29 217.459 162.29C216.719 162.29 216.092 162.457 215.579 162.79C215.072 163.123 214.716 163.65 214.509 164.37L213.079 163.95C213.326 162.983 213.822 162.233 214.569 161.7C215.316 161.167 216.286 160.9 217.479 160.9C218.466 160.9 219.302 161.087 219.989 161.46C220.682 161.827 221.172 162.36 221.459 163.06C221.592 163.373 221.679 163.723 221.719 164.11C221.759 164.497 221.779 164.89 221.779 165.29V172H220.469V170.22C219.616 171.607 218.246 172.3 216.359 172.3ZM216.529 171.03C217.562 171.03 218.392 170.76 219.019 170.22C219.652 169.68 220.039 169.003 220.179 168.19C220.239 167.923 220.276 167.633 220.289 167.32C220.309 167 220.319 166.717 220.319 166.47C219.612 166.557 218.866 166.65 218.079 166.75C217.292 166.85 216.602 166.98 216.009 167.14C215.549 167.273 215.122 167.487 214.729 167.78C214.336 168.073 214.139 168.513 214.139 169.1C214.139 169.413 214.216 169.717 214.369 170.01C214.529 170.303 214.782 170.547 215.129 170.74C215.482 170.933 215.949 171.03 216.529 171.03ZM224.382 172V161.2H225.702V162.91C225.942 162.49 226.222 162.157 226.542 161.91C226.969 161.543 227.482 161.303 228.082 161.19C228.682 161.077 229.219 161.08 229.692 161.2V162.58C229.292 162.48 228.859 162.457 228.392 162.51C227.932 162.563 227.506 162.75 227.112 163.07C226.572 163.497 226.226 164.033 226.072 164.68C225.926 165.32 225.852 165.963 225.852 166.61V172H224.382ZM235.964 172.3C234.911 172.3 233.997 172.067 233.224 171.6C232.451 171.133 231.851 170.477 231.424 169.63C231.004 168.783 230.794 167.79 230.794 166.65C230.794 165.47 231.004 164.45 231.424 163.59C231.844 162.73 232.434 162.067 233.194 161.6C233.961 161.133 234.864 160.9 235.904 160.9C237.504 160.9 238.744 161.443 239.624 162.53C240.511 163.61 240.927 165.103 240.874 167.01H232.364C232.424 168.25 232.761 169.207 233.374 169.88C233.987 170.553 234.831 170.89 235.904 170.89C237.477 170.89 238.607 170.197 239.294 168.81L240.664 169.34C240.237 170.28 239.607 171.01 238.774 171.53C237.947 172.043 237.011 172.3 235.964 172.3ZM235.944 162.25C234.904 162.25 234.081 162.557 233.474 163.17C232.867 163.777 232.507 164.647 232.394 165.78H239.334C239.101 163.427 237.971 162.25 235.944 162.25ZM247.097 172V161.2H248.417V162.91C248.657 162.49 248.937 162.157 249.257 161.91C249.684 161.543 250.197 161.303 250.797 161.19C251.397 161.077 251.934 161.08 252.407 161.2V162.58C252.007 162.48 251.574 162.457 251.107 162.51C250.647 162.563 250.221 162.75 249.827 163.07C249.287 163.497 248.941 164.033 248.787 164.68C248.641 165.32 248.567 165.963 248.567 166.61V172H247.097ZM258.679 172.3C257.626 172.3 256.712 172.067 255.939 171.6C255.166 171.133 254.566 170.477 254.139 169.63C253.719 168.783 253.509 167.79 253.509 166.65C253.509 165.47 253.719 164.45 254.139 163.59C254.559 162.73 255.149 162.067 255.909 161.6C256.676 161.133 257.579 160.9 258.619 160.9C260.219 160.9 261.459 161.443 262.339 162.53C263.226 163.61 263.642 165.103 263.589 167.01H255.079C255.139 168.25 255.476 169.207 256.089 169.88C256.702 170.553 257.546 170.89 258.619 170.89C260.192 170.89 261.322 170.197 262.009 168.81L263.379 169.34C262.952 170.28 262.322 171.01 261.489 171.53C260.662 172.043 259.726 172.3 258.679 172.3ZM258.659 162.25C257.619 162.25 256.796 162.557 256.189 163.17C255.582 163.777 255.222 164.647 255.109 165.78H262.049C261.816 163.427 260.686 162.25 258.659 162.25ZM271.688 172C271.082 172.127 270.482 172.177 269.888 172.15C269.302 172.123 268.775 171.997 268.308 171.77C267.848 171.543 267.498 171.19 267.258 170.71C267.065 170.317 266.958 169.913 266.938 169.5C266.925 169.087 266.918 168.617 266.918 168.09V162.46H264.608V161.2H266.918V158.2H268.378V161.2H271.688V162.46H268.378V168.03C268.378 168.483 268.382 168.863 268.388 169.17C268.402 169.47 268.472 169.737 268.598 169.97C268.838 170.417 269.218 170.683 269.738 170.77C270.265 170.857 270.915 170.837 271.688 170.71V172ZM277.946 172.27C277.133 172.27 276.449 172.12 275.896 171.82C275.343 171.513 274.899 171.113 274.566 170.62C274.233 170.12 273.989 169.567 273.836 168.96C273.689 168.353 273.616 167.747 273.616 167.14V161.2H275.096V166.71C275.096 167.503 275.199 168.213 275.406 168.84C275.613 169.467 275.946 169.963 276.406 170.33C276.866 170.69 277.473 170.87 278.226 170.87C279.266 170.87 280.059 170.523 280.606 169.83C281.153 169.137 281.426 168.18 281.426 166.96V161.2H282.896V172H281.576V170.5C281.176 171.08 280.663 171.52 280.036 171.82C279.416 172.12 278.719 172.27 277.946 172.27ZM285.691 172V161.2H287.011V162.91C287.251 162.49 287.531 162.157 287.851 161.91C288.278 161.543 288.791 161.303 289.391 161.19C289.991 161.077 290.528 161.08 291.001 161.2V162.58C290.601 162.48 290.168 162.457 289.701 162.51C289.241 162.563 288.814 162.75 288.421 163.07C287.881 163.497 287.534 164.033 287.381 164.68C287.234 165.32 287.161 165.963 287.161 166.61V172H285.691ZM292.888 172V161.2H294.218V162.7C294.618 162.12 295.128 161.68 295.748 161.38C296.375 161.08 297.075 160.93 297.848 160.93C298.661 160.93 299.345 161.083 299.898 161.39C300.451 161.69 300.895 162.09 301.228 162.59C301.561 163.083 301.801 163.633 301.948 164.24C302.101 164.847 302.178 165.453 302.178 166.06V172H300.698V166.49C300.698 165.697 300.595 164.987 300.388 164.36C300.181 163.733 299.848 163.24 299.388 162.88C298.928 162.513 298.321 162.33 297.568 162.33C296.528 162.33 295.735 162.677 295.188 163.37C294.641 164.063 294.368 165.02 294.368 166.24V172H292.888ZM309.265 172.3C308.212 172.3 307.298 172.067 306.525 171.6C305.752 171.133 305.152 170.477 304.725 169.63C304.305 168.783 304.095 167.79 304.095 166.65C304.095 165.47 304.305 164.45 304.725 163.59C305.145 162.73 305.735 162.067 306.495 161.6C307.262 161.133 308.165 160.9 309.205 160.9C310.805 160.9 312.045 161.443 312.925 162.53C313.812 163.61 314.228 165.103 314.175 167.01H305.665C305.725 168.25 306.062 169.207 306.675 169.88C307.288 170.553 308.132 170.89 309.205 170.89C310.778 170.89 311.908 170.197 312.595 168.81L313.965 169.34C313.538 170.28 312.908 171.01 312.075 171.53C311.248 172.043 310.312 172.3 309.265 172.3ZM309.245 162.25C308.205 162.25 307.382 162.557 306.775 163.17C306.168 163.777 305.808 164.647 305.695 165.78H312.635C312.402 163.427 311.272 162.25 309.245 162.25ZM320.584 172.3C319.577 172.3 318.714 172.05 317.994 171.55C317.281 171.043 316.734 170.36 316.354 169.5C315.981 168.64 315.794 167.67 315.794 166.59C315.794 165.517 315.981 164.55 316.354 163.69C316.734 162.83 317.277 162.15 317.984 161.65C318.691 161.15 319.537 160.9 320.524 160.9C321.277 160.9 321.941 161.04 322.514 161.32C323.087 161.6 323.571 161.987 323.964 162.48V157.6H325.444V172H324.124V170.5C323.731 171.06 323.237 171.5 322.644 171.82C322.057 172.14 321.371 172.3 320.584 172.3ZM320.734 170.93C321.501 170.93 322.134 170.743 322.634 170.37C323.134 169.99 323.507 169.473 323.754 168.82C324.001 168.167 324.124 167.423 324.124 166.59C324.124 165.323 323.844 164.287 323.284 163.48C322.731 162.673 321.891 162.27 320.764 162.27C319.991 162.27 319.351 162.46 318.844 162.84C318.344 163.22 317.971 163.737 317.724 164.39C317.477 165.043 317.354 165.777 317.354 166.59C317.354 167.41 317.477 168.147 317.724 168.8C317.977 169.453 318.354 169.973 318.854 170.36C319.354 170.74 319.981 170.93 320.734 170.93ZM72.2931 199.3C71.2865 199.3 70.4231 199.05 69.7031 198.55C68.9898 198.043 68.4431 197.36 68.0631 196.5C67.6898 195.64 67.5031 194.67 67.5031 193.59C67.5031 192.517 67.6898 191.55 68.0631 190.69C68.4431 189.83 68.9865 189.15 69.6931 188.65C70.3998 188.15 71.2465 187.9 72.2331 187.9C72.9865 187.9 73.6498 188.04 74.2231 188.32C74.7965 188.6 75.2798 188.987 75.6731 189.48V184.6H77.1531V199H75.8331V197.5C75.4398 198.06 74.9465 198.5 74.3531 198.82C73.7665 199.14 73.0798 199.3 72.2931 199.3ZM72.4431 197.93C73.2098 197.93 73.8431 197.743 74.3431 197.37C74.8431 196.99 75.2165 196.473 75.4631 195.82C75.7098 195.167 75.8331 194.423 75.8331 193.59C75.8331 192.323 75.5531 191.287 74.9931 190.48C74.4398 189.673 73.5998 189.27 72.4731 189.27C71.6998 189.27 71.0598 189.46 70.5531 189.84C70.0531 190.22 69.6798 190.737 69.4331 191.39C69.1865 192.043 69.0631 192.777 69.0631 193.59C69.0631 194.41 69.1865 195.147 69.4331 195.8C69.6865 196.453 70.0631 196.973 70.5631 197.36C71.0631 197.74 71.6898 197.93 72.4431 197.93ZM84.0886 199.27C83.2753 199.27 82.5919 199.12 82.0386 198.82C81.4853 198.513 81.0419 198.113 80.7086 197.62C80.3753 197.12 80.1319 196.567 79.9786 195.96C79.8319 195.353 79.7586 194.747 79.7586 194.14V188.2H81.2386V193.71C81.2386 194.503 81.3419 195.213 81.5486 195.84C81.7553 196.467 82.0886 196.963 82.5486 197.33C83.0086 197.69 83.6153 197.87 84.3686 197.87C85.4086 197.87 86.2019 197.523 86.7486 196.83C87.2953 196.137 87.5686 195.18 87.5686 193.96V188.2H89.0386V199H87.7186V197.5C87.3186 198.08 86.8053 198.52 86.1786 198.82C85.5586 199.12 84.8619 199.27 84.0886 199.27ZM96.4036 199.3C95.3503 199.3 94.4369 199.067 93.6636 198.6C92.8903 198.133 92.2903 197.477 91.8636 196.63C91.4436 195.783 91.2336 194.79 91.2336 193.65C91.2336 192.47 91.4436 191.45 91.8636 190.59C92.2836 189.73 92.8736 189.067 93.6336 188.6C94.4003 188.133 95.3036 187.9 96.3436 187.9C97.9436 187.9 99.1836 188.443 100.064 189.53C100.95 190.61 101.367 192.103 101.314 194.01H92.8036C92.8636 195.25 93.2003 196.207 93.8136 196.88C94.4269 197.553 95.2703 197.89 96.3436 197.89C97.9169 197.89 99.0469 197.197 99.7336 195.81L101.104 196.34C100.677 197.28 100.047 198.01 99.2136 198.53C98.3869 199.043 97.4503 199.3 96.4036 199.3ZM96.3836 189.25C95.3436 189.25 94.5203 189.557 93.9136 190.17C93.3069 190.777 92.9469 191.647 92.8336 192.78H99.7736C99.5403 190.427 98.4103 189.25 96.3836 189.25ZM113.417 199C112.81 199.127 112.21 199.177 111.617 199.15C111.03 199.123 110.503 198.997 110.037 198.77C109.577 198.543 109.227 198.19 108.987 197.71C108.793 197.317 108.687 196.913 108.667 196.5C108.653 196.087 108.647 195.617 108.647 195.09V189.46H106.337V188.2H108.647V185.2H110.107V188.2H113.417V189.46H110.107V195.03C110.107 195.483 110.11 195.863 110.117 196.17C110.13 196.47 110.2 196.737 110.327 196.97C110.567 197.417 110.947 197.683 111.467 197.77C111.993 197.857 112.643 197.837 113.417 197.71V199ZM119.664 199.3C118.591 199.3 117.674 199.057 116.914 198.57C116.154 198.083 115.571 197.41 115.164 196.55C114.757 195.69 114.554 194.703 114.554 193.59C114.554 192.457 114.761 191.463 115.174 190.61C115.587 189.757 116.174 189.093 116.934 188.62C117.701 188.14 118.611 187.9 119.664 187.9C120.744 187.9 121.664 188.143 122.424 188.63C123.191 189.11 123.774 189.78 124.174 190.64C124.581 191.493 124.784 192.477 124.784 193.59C124.784 194.723 124.581 195.72 124.174 196.58C123.767 197.433 123.181 198.1 122.414 198.58C121.647 199.06 120.731 199.3 119.664 199.3ZM119.664 197.89C120.864 197.89 121.757 197.493 122.344 196.7C122.931 195.9 123.224 194.863 123.224 193.59C123.224 192.29 122.927 191.253 122.334 190.48C121.741 189.7 120.851 189.31 119.664 189.31C118.457 189.31 117.564 189.71 116.984 190.51C116.404 191.303 116.114 192.33 116.114 193.59C116.114 194.89 116.414 195.933 117.014 196.72C117.614 197.5 118.497 197.89 119.664 197.89ZM131.194 199V188.2H132.664V199H131.194ZM131.924 186.34C131.637 186.34 131.394 186.243 131.194 186.05C131 185.85 130.904 185.61 130.904 185.33C130.904 185.043 131 184.803 131.194 184.61C131.394 184.41 131.637 184.31 131.924 184.31C132.217 184.31 132.46 184.41 132.654 184.61C132.854 184.803 132.954 185.043 132.954 185.33C132.954 185.61 132.854 185.85 132.654 186.05C132.46 186.243 132.217 186.34 131.924 186.34ZM135.652 199V188.2H136.982V189.7C137.382 189.12 137.892 188.68 138.512 188.38C139.138 188.08 139.838 187.93 140.612 187.93C141.425 187.93 142.108 188.083 142.662 188.39C143.215 188.69 143.658 189.09 143.992 189.59C144.325 190.083 144.565 190.633 144.712 191.24C144.865 191.847 144.942 192.453 144.942 193.06V199H143.462V193.49C143.462 192.697 143.358 191.987 143.152 191.36C142.945 190.733 142.612 190.24 142.152 189.88C141.692 189.513 141.085 189.33 140.332 189.33C139.292 189.33 138.498 189.677 137.952 190.37C137.405 191.063 137.132 192.02 137.132 193.24V199H135.652ZM151.939 199.3C150.852 199.3 149.932 199.057 149.179 198.57C148.432 198.083 147.862 197.413 147.469 196.56C147.075 195.7 146.872 194.713 146.859 193.6C146.872 192.467 147.079 191.473 147.479 190.62C147.879 189.76 148.455 189.093 149.209 188.62C149.962 188.14 150.875 187.9 151.949 187.9C153.042 187.9 153.992 188.167 154.799 188.7C155.612 189.233 156.169 189.963 156.469 190.89L155.029 191.35C154.775 190.703 154.372 190.203 153.819 189.85C153.272 189.49 152.645 189.31 151.939 189.31C150.745 189.31 149.862 189.71 149.289 190.51C148.722 191.31 148.432 192.34 148.419 193.6C148.432 194.893 148.732 195.933 149.319 196.72C149.905 197.5 150.779 197.89 151.939 197.89C153.419 197.89 154.435 197.23 154.989 195.91L156.469 196.35C156.062 197.31 155.472 198.043 154.699 198.55C153.932 199.05 153.012 199.3 151.939 199.3ZM162.75 199.3C161.677 199.3 160.76 199.057 160 198.57C159.24 198.083 158.657 197.41 158.25 196.55C157.843 195.69 157.64 194.703 157.64 193.59C157.64 192.457 157.847 191.463 158.26 190.61C158.673 189.757 159.26 189.093 160.02 188.62C160.787 188.14 161.697 187.9 162.75 187.9C163.83 187.9 164.75 188.143 165.51 188.63C166.277 189.11 166.86 189.78 167.26 190.64C167.667 191.493 167.87 192.477 167.87 193.59C167.87 194.723 167.667 195.72 167.26 196.58C166.853 197.433 166.267 198.1 165.5 198.58C164.733 199.06 163.817 199.3 162.75 199.3ZM162.75 197.89C163.95 197.89 164.843 197.493 165.43 196.7C166.017 195.9 166.31 194.863 166.31 193.59C166.31 192.29 166.013 191.253 165.42 190.48C164.827 189.7 163.937 189.31 162.75 189.31C161.543 189.31 160.65 189.71 160.07 190.51C159.49 191.303 159.2 192.33 159.2 193.59C159.2 194.89 159.5 195.933 160.1 196.72C160.7 197.5 161.583 197.89 162.75 197.89ZM170.076 199V188.2H171.396V189.91C171.636 189.49 171.916 189.157 172.236 188.91C172.662 188.543 173.176 188.303 173.776 188.19C174.376 188.077 174.912 188.08 175.386 188.2V189.58C174.986 189.48 174.552 189.457 174.086 189.51C173.626 189.563 173.199 189.75 172.806 190.07C172.266 190.497 171.919 191.033 171.766 191.68C171.619 192.32 171.546 192.963 171.546 193.61V199H170.076ZM177.283 199V188.2H178.603V189.91C178.843 189.49 179.123 189.157 179.443 188.91C179.869 188.543 180.383 188.303 180.983 188.19C181.583 188.077 182.119 188.08 182.593 188.2V189.58C182.193 189.48 181.759 189.457 181.293 189.51C180.833 189.563 180.406 189.75 180.013 190.07C179.473 190.497 179.126 191.033 178.973 191.68C178.826 192.32 178.753 192.963 178.753 193.61V199H177.283ZM188.865 199.3C187.811 199.3 186.898 199.067 186.125 198.6C185.351 198.133 184.751 197.477 184.325 196.63C183.905 195.783 183.695 194.79 183.695 193.65C183.695 192.47 183.905 191.45 184.325 190.59C184.745 189.73 185.335 189.067 186.095 188.6C186.861 188.133 187.765 187.9 188.805 187.9C190.405 187.9 191.645 188.443 192.525 189.53C193.411 190.61 193.828 192.103 193.775 194.01H185.265C185.325 195.25 185.661 196.207 186.275 196.88C186.888 197.553 187.731 197.89 188.805 197.89C190.378 197.89 191.508 197.197 192.195 195.81L193.565 196.34C193.138 197.28 192.508 198.01 191.675 198.53C190.848 199.043 189.911 199.3 188.865 199.3ZM188.845 189.25C187.805 189.25 186.981 189.557 186.375 190.17C185.768 190.777 185.408 191.647 185.295 192.78H192.235C192.001 190.427 190.871 189.25 188.845 189.25ZM200.474 199.3C199.387 199.3 198.467 199.057 197.714 198.57C196.967 198.083 196.397 197.413 196.004 196.56C195.61 195.7 195.407 194.713 195.394 193.6C195.407 192.467 195.614 191.473 196.014 190.62C196.414 189.76 196.99 189.093 197.744 188.62C198.497 188.14 199.41 187.9 200.484 187.9C201.577 187.9 202.527 188.167 203.334 188.7C204.147 189.233 204.704 189.963 205.004 190.89L203.564 191.35C203.31 190.703 202.907 190.203 202.354 189.85C201.807 189.49 201.18 189.31 200.474 189.31C199.28 189.31 198.397 189.71 197.824 190.51C197.257 191.31 196.967 192.34 196.954 193.6C196.967 194.893 197.267 195.933 197.854 196.72C198.44 197.5 199.314 197.89 200.474 197.89C201.954 197.89 202.97 197.23 203.524 195.91L205.004 196.35C204.597 197.31 204.007 198.043 203.234 198.55C202.467 199.05 201.547 199.3 200.474 199.3ZM212.948 199C212.341 199.127 211.741 199.177 211.148 199.15C210.561 199.123 210.035 198.997 209.568 198.77C209.108 198.543 208.758 198.19 208.518 197.71C208.325 197.317 208.218 196.913 208.198 196.5C208.185 196.087 208.178 195.617 208.178 195.09V189.46H205.868V188.2H208.178V185.2H209.638V188.2H212.948V189.46H209.638V195.03C209.638 195.483 209.641 195.863 209.648 196.17C209.661 196.47 209.731 196.737 209.858 196.97C210.098 197.417 210.478 197.683 210.998 197.77C211.525 197.857 212.175 197.837 212.948 197.71V199ZM223.25 199.3C221.916 199.3 220.833 199 220 198.4C219.166 197.8 218.66 196.957 218.48 195.87L220.94 195.49C221.06 196.023 221.336 196.443 221.77 196.75C222.21 197.057 222.76 197.21 223.42 197.21C223.993 197.21 224.44 197.097 224.76 196.87C225.08 196.637 225.24 196.32 225.24 195.92C225.24 195.673 225.18 195.477 225.06 195.33C224.94 195.177 224.683 195.03 224.29 194.89C223.903 194.75 223.303 194.573 222.49 194.36C221.583 194.12 220.863 193.863 220.33 193.59C219.796 193.31 219.413 192.98 219.18 192.6C218.946 192.22 218.83 191.76 218.83 191.22C218.83 190.207 219.216 189.4 219.99 188.8C220.763 188.2 221.793 187.9 223.08 187.9C224.34 187.9 225.38 188.19 226.2 188.77C227.02 189.343 227.496 190.117 227.63 191.09L225.17 191.53C225.103 191.07 224.89 190.707 224.53 190.44C224.176 190.173 223.706 190.023 223.12 189.99C222.553 189.963 222.096 190.053 221.75 190.26C221.403 190.46 221.23 190.74 221.23 191.1C221.23 191.307 221.3 191.483 221.44 191.63C221.58 191.777 221.86 191.923 222.28 192.07C222.706 192.217 223.34 192.397 224.18 192.61C225.473 192.943 226.383 193.35 226.91 193.83C227.443 194.31 227.71 194.97 227.71 195.81C227.71 196.897 227.313 197.75 226.52 198.37C225.733 198.99 224.643 199.3 223.25 199.3ZM230.1 199V188.2H232.51V199H230.1ZM231.3 186.9C230.887 186.9 230.543 186.763 230.27 186.49C229.997 186.21 229.86 185.867 229.86 185.46C229.86 185.06 229.997 184.72 230.27 184.44C230.543 184.16 230.887 184.02 231.3 184.02C231.72 184.02 232.067 184.16 232.34 184.44C232.613 184.72 232.75 185.06 232.75 185.46C232.75 185.867 232.613 186.21 232.34 186.49C232.067 186.763 231.72 186.9 231.3 186.9ZM234.505 199V198.67L240.225 190.31H235.085V188.2H243.975V188.54L238.275 196.89H243.735V199H234.505ZM246.37 199V188.2H248.78V199H246.37ZM247.57 186.9C247.156 186.9 246.813 186.763 246.54 186.49C246.266 186.21 246.13 185.867 246.13 185.46C246.13 185.06 246.266 184.72 246.54 184.44C246.813 184.16 247.156 184.02 247.57 184.02C247.99 184.02 248.336 184.16 248.61 184.44C248.883 184.72 249.02 185.06 249.02 185.46C249.02 185.867 248.883 186.21 248.61 186.49C248.336 186.763 247.99 186.9 247.57 186.9ZM251.755 199V188.2H253.905V189.4C254.298 188.933 254.788 188.567 255.375 188.3C255.968 188.027 256.655 187.89 257.435 187.89C258.235 187.89 258.895 188.023 259.415 188.29C259.935 188.55 260.348 188.89 260.655 189.31C260.962 189.723 261.188 190.163 261.335 190.63C261.482 191.097 261.575 191.54 261.615 191.96C261.662 192.373 261.685 192.71 261.685 192.97V199H259.245V193.8C259.245 193.467 259.218 193.093 259.165 192.68C259.118 192.26 259.012 191.86 258.845 191.48C258.685 191.1 258.435 190.787 258.095 190.54C257.755 190.287 257.298 190.16 256.725 190.16C256.312 190.16 255.912 190.253 255.525 190.44C255.145 190.627 254.828 190.957 254.575 191.43C254.322 191.903 254.195 192.577 254.195 193.45V199H251.755ZM268.625 199.3C267.631 199.3 266.765 199.05 266.025 198.55C265.285 198.05 264.711 197.37 264.305 196.51C263.898 195.65 263.695 194.68 263.695 193.6C263.695 192.507 263.898 191.53 264.305 190.67C264.718 189.81 265.301 189.133 266.055 188.64C266.808 188.147 267.695 187.9 268.715 187.9C269.328 187.9 269.885 187.993 270.385 188.18C270.885 188.367 271.325 188.63 271.705 188.97V188.2H273.815V199.52C273.815 199.8 273.801 200.063 273.775 200.31C273.755 200.557 273.718 200.8 273.665 201.04C273.418 202.087 272.855 202.857 271.975 203.35C271.101 203.85 270.055 204.1 268.835 204.1C267.935 204.1 267.098 203.89 266.325 203.47C265.558 203.057 264.965 202.483 264.545 201.75L266.765 200.65C266.965 201.037 267.255 201.327 267.635 201.52C268.015 201.713 268.418 201.81 268.845 201.81C269.598 201.81 270.218 201.613 270.705 201.22C271.191 200.827 271.425 200.247 271.405 199.48V198.45C271.038 198.723 270.621 198.933 270.155 199.08C269.695 199.227 269.185 199.3 268.625 199.3ZM268.995 197.14C269.968 197.14 270.661 196.813 271.075 196.16C271.495 195.5 271.705 194.647 271.705 193.6C271.705 192.547 271.495 191.693 271.075 191.04C270.661 190.387 269.995 190.06 269.075 190.06C268.428 190.06 267.895 190.22 267.475 190.54C267.061 190.853 266.751 191.28 266.545 191.82C266.345 192.353 266.245 192.947 266.245 193.6C266.245 194.26 266.341 194.857 266.535 195.39C266.735 195.923 267.038 196.35 267.445 196.67C267.851 196.983 268.368 197.14 268.995 197.14ZM277.749 199.11C277.462 199.11 277.219 199.013 277.019 198.82C276.825 198.62 276.729 198.38 276.729 198.1C276.729 197.813 276.825 197.573 277.019 197.38C277.219 197.18 277.462 197.08 277.749 197.08C278.042 197.08 278.285 197.18 278.479 197.38C278.679 197.573 278.779 197.813 278.779 198.1C278.779 198.38 278.679 198.62 278.479 198.82C278.285 199.013 278.042 199.11 277.749 199.11Z" fill="#415F7D"/>
</svg>
