<svg width="350" height="420" viewBox="0 0 350 420" fill="none" xmlns="http://www.w3.org/2000/svg">
<g clip-path="url(#clip0_539_2427)">
<rect width="350" height="420" fill="#F7F5F5"/>
<g clip-path="url(#clip1_539_2427)">
<rect width="450" height="230" transform="translate(-55 -30)" fill="#F7F5F5"/>
<path d="M113.843 97.2395C113.504 103.034 116.176 108.605 120.956 112.007L118.058 117.578C117.192 119.26 117.08 121.241 117.832 122.999C118.547 124.756 120.015 126.139 121.822 126.737L124.795 127.672C126.033 128.085 127.369 128.109 128.621 127.741C129.874 127.373 130.982 126.631 131.795 125.616L139.774 116.269C143.123 115.708 146.285 114.288 148.957 112.157C150.838 112.717 152.72 113.016 154.602 113.016C157.914 113.016 161.226 112.007 164.011 110.063C166.006 110.661 168.038 110.923 170.108 110.885C173.081 110.923 176.017 110.325 178.764 109.203C181.41 108.033 183.671 106.146 185.288 103.76C186.905 101.373 187.814 98.5822 187.909 95.7067C188.21 93.0149 187.759 90.2857 186.592 87.8182C187.684 85.0142 187.796 81.9486 186.856 79.1072C185.463 75.5555 182.829 72.602 179.554 70.7327C177.371 64.4144 171.237 60.1898 164.5 60.6384C158.478 55.0305 149.258 54.4323 142.559 59.2551C140.978 58.8439 139.322 58.6196 137.666 58.6196C132.548 58.5074 127.693 60.7506 124.494 64.7509C116.816 66.7324 111.321 73.5367 111.02 81.4625C110.832 85.6124 111.961 89.6875 114.257 93.1644C113.993 94.5103 113.843 95.8562 113.843 97.2395ZM132.661 91.9681C130.515 92.2298 128.822 93.8374 128.822 95.9684C128.822 96.9599 129.218 97.9109 129.924 98.612C130.63 99.3131 131.587 99.707 132.585 99.707H134.956C136.161 103.072 138.268 106.025 141.053 108.268C140.112 108.605 139.134 108.792 138.155 109.054C118.848 108.792 121.107 97.09 121.107 96.903C121.155 95.6311 121.455 94.3812 121.991 93.2248C122.526 92.0683 123.285 91.028 124.226 90.1634C125.166 89.2988 126.269 88.6268 127.47 88.1859C128.672 87.745 129.95 87.5438 131.23 87.5939C132.229 87.5939 133.186 87.2 133.892 86.4989C134.597 85.7977 134.994 84.8468 134.994 83.8552C134.994 82.8637 134.597 81.9128 133.892 81.2116C133.186 80.5105 132.229 80.1166 131.23 80.1166C126.601 80.2288 122.16 81.9486 118.698 84.9768C118.51 83.8926 118.397 82.771 118.397 81.6495C118.623 77.0136 120.73 72.9759 129.198 72.1908C133.903 61.1244 145.758 67.2558 145.758 70.6953C145.871 71.5552 144.967 73.3871 144.817 73.4993C143.819 73.4993 142.861 73.8932 142.156 74.5943C141.45 75.2954 141.053 76.2463 141.053 77.2379C141.053 79.2941 142.747 80.9765 144.817 80.9765C146.811 80.9017 148.693 80.154 150.199 78.8829C152.005 80.0419 154.075 80.7522 156.22 80.9765C158.366 81.1634 160.134 79.668 160.247 77.6118C160.316 77.1235 160.283 76.6267 160.151 76.1514C160.02 75.6762 159.792 75.2326 159.482 74.8477C159.172 74.4628 158.786 74.1447 158.349 73.9129C157.911 73.6811 157.43 73.5403 156.935 73.4993C156.333 73.4245 153.398 72.9759 153.398 70.6205C153.398 68.153 152.457 65.7977 150.838 63.9284C154.301 62.9938 158.027 64.2275 161.79 68.7512C168.715 67.667 171.538 68.6017 173.608 75.892C177.183 77.6491 179.065 78.8829 179.893 82.6215C175.828 81.799 171.651 82.1355 167.774 83.5562C165.893 84.2665 164.839 86.3601 165.554 88.379C166.269 90.3231 168.452 91.2951 170.409 90.5848C173.156 89.3884 176.242 89.3136 179.065 90.3604C180.269 91.3699 180.269 93.4635 180.269 95.1085C180.269 97.8751 178.877 100.455 176.506 101.95C174.511 102.96 172.291 103.483 170.07 103.446C170.635 102.474 171.124 101.464 171.538 100.417C171.834 99.4568 171.744 98.4195 171.286 97.5237C170.828 96.6279 170.039 95.9434 169.083 95.6141C168.128 95.2848 167.081 95.3364 166.163 95.7581C165.245 96.1798 164.528 96.9386 164.161 97.8751C162.656 102.137 158.817 105.053 154.301 105.539C149.145 105.278 144.553 102.249 142.295 97.576C141.43 92.4167 137.252 91.9681 132.661 91.9681ZM125.133 119.896L127.467 115.035L130.139 115.634L126.375 120.307L125.133 119.896ZM142.634 87.706C142.601 86.751 142.938 85.8197 143.575 85.1035C144.212 84.3874 145.101 83.9407 146.059 83.8552C148.731 83.7057 151.328 84.603 153.322 86.3601C155.468 88.5285 156.597 91.5194 156.484 94.5477C156.484 95.5392 156.087 96.4902 155.381 97.1913C154.676 97.8924 153.718 98.2863 152.72 98.2863C150.575 98.2863 148.957 96.6039 148.957 94.5477C148.957 93.5383 148.693 92.5288 148.091 91.7064C147.639 91.3325 147.075 91.1456 146.473 91.1456C144.403 91.2577 142.634 89.7249 142.634 87.706Z" fill="#F07371" fill-opacity="0.53"/>
<path d="M343.843 194.24C343.504 200.034 346.176 205.605 350.956 209.007L348.058 214.578C347.192 216.26 347.08 218.241 347.832 219.999C348.547 221.756 350.015 223.139 351.822 223.737L354.795 224.672C356.033 225.085 357.369 225.109 358.621 224.741C359.874 224.373 360.982 223.631 361.795 222.616L369.774 213.269C373.123 212.708 376.285 211.288 378.957 209.157C380.838 209.717 382.72 210.016 384.602 210.016C387.914 210.016 391.226 209.007 394.011 207.063C396.006 207.661 398.038 207.923 400.108 207.885C403.081 207.923 406.017 207.325 408.764 206.203C411.41 205.033 413.671 203.146 415.288 200.76C416.905 198.373 417.814 195.582 417.909 192.707C418.21 190.015 417.759 187.286 416.592 184.818C417.684 182.014 417.796 178.949 416.856 176.107C415.463 172.556 412.829 169.602 409.554 167.733C407.371 161.414 401.237 157.19 394.5 157.638C388.478 152.03 379.258 151.432 372.559 156.255C370.978 155.844 369.322 155.62 367.666 155.62C362.548 155.507 357.693 157.751 354.494 161.751C346.816 163.732 341.321 170.537 341.02 178.463C340.832 182.612 341.961 186.687 344.257 190.164C343.993 191.51 343.843 192.856 343.843 194.24ZM362.661 188.968C360.515 189.23 358.822 190.837 358.822 192.968C358.822 193.96 359.218 194.911 359.924 195.612C360.63 196.313 361.587 196.707 362.585 196.707H364.956C366.161 200.072 368.268 203.025 371.053 205.268C370.112 205.605 369.134 205.792 368.155 206.054C348.848 205.792 351.107 194.09 351.107 193.903C351.155 192.631 351.455 191.381 351.991 190.225C352.526 189.068 353.285 188.028 354.226 187.163C355.166 186.299 356.269 185.627 357.47 185.186C358.672 184.745 359.95 184.544 361.23 184.594C362.229 184.594 363.186 184.2 363.892 183.499C364.597 182.798 364.994 181.847 364.994 180.855C364.994 179.864 364.597 178.913 363.892 178.212C363.186 177.511 362.229 177.117 361.23 177.117C356.601 177.229 352.16 178.949 348.698 181.977C348.51 180.893 348.397 179.771 348.397 178.649C348.623 174.014 350.73 169.976 359.198 169.191C363.903 158.124 375.758 164.256 375.758 167.695C375.871 168.555 374.967 170.387 374.817 170.499C373.819 170.499 372.861 170.893 372.156 171.594C371.45 172.295 371.053 173.246 371.053 174.238C371.053 176.294 372.747 177.977 374.817 177.977C376.811 177.902 378.693 177.154 380.199 175.883C382.005 177.042 384.075 177.752 386.22 177.977C388.366 178.163 390.134 176.668 390.247 174.612C390.316 174.124 390.283 173.627 390.151 173.151C390.02 172.676 389.792 172.233 389.482 171.848C389.172 171.463 388.786 171.145 388.349 170.913C387.911 170.681 387.43 170.54 386.935 170.499C386.333 170.424 383.398 169.976 383.398 167.621C383.398 165.153 382.457 162.798 380.838 160.928C384.301 159.994 388.027 161.227 391.79 165.751C398.715 164.667 401.538 165.602 403.608 172.892C407.183 174.649 409.065 175.883 409.893 179.622C405.828 178.799 401.651 179.135 397.774 180.556C395.893 181.266 394.839 183.36 395.554 185.379C396.269 187.323 398.452 188.295 400.409 187.585C403.156 186.388 406.242 186.314 409.065 187.36C410.269 188.37 410.269 190.464 410.269 192.108C410.269 194.875 408.877 197.455 406.506 198.95C404.511 199.96 402.291 200.483 400.07 200.446C400.635 199.474 401.124 198.464 401.538 197.417C401.834 196.457 401.744 195.42 401.286 194.524C400.828 193.628 400.039 192.943 399.083 192.614C398.128 192.285 397.081 192.336 396.163 192.758C395.245 193.18 394.528 193.939 394.161 194.875C392.656 199.137 388.817 202.053 384.301 202.539C379.145 202.278 374.553 199.249 372.295 194.576C371.43 189.417 367.252 188.968 362.661 188.968ZM355.133 216.896L357.467 212.035L360.139 212.634L356.375 217.307L355.133 216.896ZM372.634 184.706C372.601 183.751 372.938 182.82 373.575 182.104C374.212 181.387 375.101 180.941 376.059 180.855C378.731 180.706 381.328 181.603 383.322 183.36C385.468 185.529 386.597 188.519 386.484 191.548C386.484 192.539 386.087 193.49 385.381 194.191C384.676 194.892 383.718 195.286 382.72 195.286C380.575 195.286 378.957 193.604 378.957 191.548C378.957 190.538 378.693 189.529 378.091 188.706C377.639 188.332 377.075 188.146 376.473 188.146C374.403 188.258 372.634 186.725 372.634 184.706Z" fill="#F07371" fill-opacity="0.53"/>
<path d="M301.157 -20.7605C301.496 -14.9656 298.824 -9.39509 294.044 -5.99294L296.942 -0.422396C297.808 1.25998 297.92 3.24145 297.168 4.9986C296.453 6.75575 294.985 8.13904 293.178 8.73722L290.205 9.67187C288.967 10.0845 287.631 10.1085 286.379 9.74066C285.126 9.37279 284.018 8.63084 283.205 7.61564L275.226 -1.73091C271.877 -2.29171 268.715 -3.71239 266.043 -5.8434C264.162 -5.28261 262.28 -4.98352 260.398 -4.98352C257.086 -4.98352 253.774 -5.99294 250.989 -7.93703C248.994 -7.33885 246.962 -7.07715 244.892 -7.11453C241.919 -7.07715 238.983 -7.67532 236.236 -8.79691C233.59 -9.96722 231.329 -11.8536 229.712 -14.2404C228.095 -16.6271 227.186 -19.4178 227.091 -22.2933C226.79 -24.9851 227.241 -27.7143 228.408 -30.1818C227.316 -32.9858 227.204 -36.0514 228.144 -38.8928C229.537 -42.4445 232.171 -45.398 235.446 -47.2673C237.629 -53.5856 243.763 -57.8102 250.5 -57.3616C256.522 -62.9695 265.742 -63.5677 272.441 -58.7449C274.022 -59.1561 275.678 -59.3804 277.334 -59.3804C282.452 -59.4926 287.307 -57.2494 290.506 -53.2491C298.184 -51.2676 303.679 -44.4633 303.98 -36.5375C304.168 -32.3876 303.039 -28.3125 300.743 -24.8356C301.007 -23.4897 301.157 -22.1438 301.157 -20.7605ZM282.339 -26.0319C284.485 -25.7702 286.178 -24.1626 286.178 -22.0316C286.178 -21.0401 285.782 -20.0891 285.076 -19.388C284.37 -18.6869 283.413 -18.293 282.415 -18.293H280.044C278.839 -14.9282 276.732 -11.9747 273.947 -9.73157C274.888 -9.39509 275.866 -9.20816 276.845 -8.94646C296.152 -9.20816 293.893 -20.91 293.893 -21.097C293.845 -22.3689 293.545 -23.6188 293.009 -24.7752C292.474 -25.9317 291.715 -26.972 290.774 -27.8366C289.834 -28.7012 288.731 -29.3732 287.53 -29.8141C286.328 -30.255 285.05 -30.4562 283.77 -30.4061C282.771 -30.4061 281.814 -30.8 281.108 -31.5011C280.403 -32.2023 280.006 -33.1532 280.006 -34.1448C280.006 -35.1363 280.403 -36.0872 281.108 -36.7884C281.814 -37.4895 282.771 -37.8834 283.77 -37.8834C288.399 -37.7712 292.84 -36.0514 296.302 -33.0232C296.49 -34.1074 296.603 -35.229 296.603 -36.3505C296.377 -40.9864 294.27 -45.0241 285.802 -45.8092C281.097 -56.8756 269.242 -50.7442 269.242 -47.3047C269.129 -46.4448 270.033 -44.6129 270.183 -44.5007C271.181 -44.5007 272.139 -44.1068 272.844 -43.4057C273.55 -42.7046 273.947 -41.7537 273.947 -40.7621C273.947 -38.7059 272.253 -37.0235 270.183 -37.0235C268.189 -37.0983 266.307 -37.846 264.801 -39.1171C262.995 -37.9581 260.925 -37.2478 258.78 -37.0235C256.634 -36.8366 254.866 -38.332 254.753 -40.3882C254.684 -40.8765 254.717 -41.3733 254.849 -41.8486C254.98 -42.3238 255.208 -42.7674 255.518 -43.1523C255.828 -43.5372 256.214 -43.8553 256.651 -44.0871C257.089 -44.3189 257.57 -44.4597 258.065 -44.5007C258.667 -44.5755 261.602 -45.0241 261.602 -47.3795C261.602 -49.847 262.543 -52.2023 264.162 -54.0716C260.699 -55.0062 256.973 -53.7725 253.21 -49.2488C246.285 -50.333 243.462 -49.3983 241.392 -42.108C237.817 -40.3509 235.935 -39.1171 235.107 -35.3785C239.172 -36.201 243.349 -35.8645 247.226 -34.4438C249.107 -33.7335 250.161 -31.6399 249.446 -29.621C248.731 -27.6769 246.548 -26.7049 244.591 -27.4152C241.844 -28.6116 238.758 -28.6864 235.935 -27.6396C234.731 -26.6301 234.731 -24.5365 234.731 -22.8915C234.731 -20.1249 236.123 -17.5453 238.494 -16.0498C240.489 -15.0404 242.709 -14.517 244.93 -14.5544C244.365 -15.5264 243.876 -16.5359 243.462 -17.5827C243.166 -18.5432 243.256 -19.5805 243.714 -20.4763C244.172 -21.3721 244.961 -22.0566 245.917 -22.3859C246.872 -22.7152 247.919 -22.6636 248.837 -22.2419C249.755 -21.8202 250.472 -21.0614 250.839 -20.1249C252.344 -15.8629 256.183 -12.9468 260.699 -12.4608C265.855 -12.7225 270.447 -15.7507 272.705 -20.424C273.57 -25.5833 277.748 -26.0319 282.339 -26.0319ZM289.867 1.89554L287.533 -2.96466L284.861 -2.36648L288.625 2.30679L289.867 1.89554ZM272.366 -30.294C272.399 -31.249 272.062 -32.1803 271.425 -32.8965C270.788 -33.6126 269.899 -34.0593 268.941 -34.1448C266.269 -34.2943 263.672 -33.397 261.678 -31.6399C259.532 -29.4715 258.403 -26.4806 258.516 -23.4523C258.516 -22.4608 258.913 -21.5098 259.619 -20.8087C260.324 -20.1076 261.282 -19.7137 262.28 -19.7137C264.425 -19.7137 266.043 -21.3961 266.043 -23.4523C266.043 -24.4617 266.307 -25.4712 266.909 -26.2936C267.361 -26.6675 267.925 -26.8544 268.527 -26.8544C270.597 -26.7423 272.366 -28.2751 272.366 -30.294Z" fill="#F07371" fill-opacity="0.53"/>
<path d="M292.951 134.7C292.951 134.7 291.096 142.66 280.817 148.58C274.338 152.31 260.715 156.18 253.76 151C245.842 145.1 244.136 139.26 243.759 137.11C243.381 134.96 244.513 129.03 244.513 129.03L257.54 124.36C257.54 124.36 279.08 129.66 279.457 129.66C279.825 129.67 292.951 134.7 292.951 134.7Z" fill="#E06767"/>
<path d="M244.472 139.67C244.184 138.92 244.006 138.28 243.877 137.75C246.179 137.13 248.848 136.13 251.269 135.09C251.07 135 250.872 134.91 250.683 134.81C249.493 134.2 248.322 133.49 247.479 132.45C246.566 131.33 246.149 129.88 246.199 128.43L257.539 124.36C257.539 124.36 279.08 129.66 279.457 129.66C279.834 129.66 292.95 134.69 292.96 134.7C293.129 134.76 291.74 137.7 291.651 137.85C290.391 140.22 287.493 143.52 285.509 145.31C285.509 145.31 286.422 143.19 284.695 142.4C283.932 142.05 283.009 142.22 282.225 142.53C280.26 143.32 277.8 146.36 271.648 149.62C267.471 151.84 263.175 153.54 261.786 153.48C259.93 153.4 256.567 152.49 256.567 152.49C256.567 152.49 260.853 152.08 267.739 148.85C269.823 147.87 277.532 144.05 278.266 141.92C278.474 141.32 279.219 140.26 277.869 139.66C275.805 138.73 270.18 143.62 265.348 145.86C259.593 148.52 253.323 150.65 253.323 150.65C252.648 150.13 252.013 149.61 251.418 149.09C254.622 148.26 257.758 147.12 260.784 145.79C263.8 144.47 266.757 142.76 269.485 140.88C271.222 139.68 272.422 137.66 270.557 137.4C267.501 136.97 263.552 139.9 259.593 141.97C256.021 143.84 251.735 144.7 247.717 145.21C247.201 144.56 246.357 143.32 246.357 143.32C246.357 143.32 247.875 143.06 252.36 142.06C254.325 141.62 256.23 141.05 257.976 140.06C258.432 139.8 260.03 138.15 257.847 137.39C255.664 136.63 253.59 138.14 250.296 138.91C246.992 139.7 244.502 139.74 244.472 139.67Z" fill="#B05353"/>
<path d="M236.921 98.3002C236.921 98.3002 237.169 90.2002 241.486 83.0302C245.206 76.8502 250.514 76.2202 250.514 76.2202C250.514 76.2202 251.566 72.3302 255.257 69.3502C258.948 66.3702 266.538 63.8802 266.538 63.8802C281.739 56.9802 291.214 62.6302 291.214 62.6302C291.214 62.6302 313.756 57.2302 331.804 72.6602C331.804 72.6602 340.913 76.9802 344.633 85.1402C346.687 89.6602 345.804 97.0302 345.804 97.0302C352.124 104.43 350.388 116.15 343.294 122.02C339.911 124.81 335.733 126.66 331.378 127.13C329.671 127.31 328.808 126.9 328.094 128.65C327.042 131.23 326.218 133.88 324.105 135.73C321.952 137.61 319.442 139.07 316.773 140.07C311.593 142 305.74 142.21 300.511 140.32C298.774 139.69 293.208 139.63 293.208 139.63C293.208 139.63 290.261 142.08 279.804 141.69C269.346 141.3 264.931 136.75 262.54 135.9C260.704 135.25 258.452 133.82 256.448 134.19C255.307 134.4 254.285 134.99 253.243 135.49C250.326 136.9 247.052 137.67 243.837 137.37C231.683 136.24 230.403 122.13 231.603 112.43C232.814 102.64 236.921 98.3002 236.921 98.3002Z" fill="#FFB3B3"/>
<path d="M326.695 117.45C326.943 118.02 329.423 123.48 331.507 124.36C335.108 125.89 340.684 122.25 342.818 121.25C343.234 121.05 343.512 121.55 343.512 121.55C343.859 122 342.957 122.93 342.5 123.26C340.734 124.54 336.497 127.44 333.352 128.23C329.294 129.25 326.248 128.23 326.248 128.23C326.248 128.23 325.137 120.04 325.048 119.67C324.958 119.3 325.048 116.04 325.048 116.04L326.695 117.45Z" fill="#EA6363"/>
<path d="M291.244 140.56C291.244 140.56 293.288 140.24 296.423 140.29C299.558 140.34 303.974 141.25 303.974 141.25C303.974 141.25 300.858 139.82 299.469 138.57C298.08 137.31 297.802 134.25 298.03 132.43C298.269 130.57 298.894 129.63 303.616 128.64L289.468 127.85C294.211 131.03 295.074 137.58 291.244 140.56ZM248.411 110.47C250.872 110.8 253.263 110.33 255.386 109.06C256.309 108.5 256.408 107.18 255.595 106.47C255.049 106 254.265 105.97 253.66 106.37C250.227 108.64 246.734 107.15 244.869 105.98C240.107 102.99 237.745 97.6899 238.063 92.1299C237.11 93.8299 236.416 95.7099 236.247 97.6499C235.82 102.36 239.184 106.03 242.944 108.4C244.74 109.54 246.595 110.23 248.411 110.47Z" fill="#F07371"/>
<path d="M237.775 115.16C238.847 115.16 240.008 114.93 241.109 114.25C242.24 113.55 242.875 112.61 243.441 111.45C243.907 110.5 244.562 109.91 245.762 110C246.606 110.07 247.419 110.55 248.263 110.43C247.141 108.43 245.346 106.83 243.232 105.96C242.26 105.56 241.168 105.31 240.176 105.62C240.067 106.32 240.533 106.97 240.801 107.63C241.268 108.8 241.079 110.2 240.325 111.2C239.809 111.88 238.827 112.61 237.924 112.55C237.329 112.51 236.912 112 236.327 111.95C234.511 111.82 234.054 114.5 235.84 114.92C236.416 115.06 237.071 115.16 237.775 115.16ZM255.238 78.08C255.962 78.17 256.696 78.09 257.073 77.45C257.559 76.62 257.153 75.58 256.25 75.26C253.759 74.38 250.961 74.54 248.53 75.52C246.407 76.38 245.127 77.84 244.284 78.83C243.441 79.82 242.865 81.78 242.865 81.78C244.978 79.93 246.179 77.02 255.238 78.08ZM264.743 76.15C266.886 76.06 264.802 76.15 264.822 76.15C268.215 76.15 272.274 74.97 272.819 71.07C273.802 63.97 263.403 66.73 259.593 67.26C259.593 67.26 262.6 64.15 266.539 63.88C268.374 63.76 270.269 63.81 272.055 64.29C274.02 64.82 275.012 66.31 276.798 67.05C278.147 67.6 279.685 67.39 281.074 66.97C282.354 66.58 286.511 64.33 286.63 67.13C286.66 67.9 286.115 68.56 285.37 68.67C282.354 69.1 278.187 70.46 276.639 73.36C275.925 74.69 275.756 76.3 276.173 77.75C276.371 78.46 276.659 79.37 276.074 79.82C275.627 80.17 274.943 79.94 274.536 79.54C274.129 79.14 273.871 78.6 273.464 78.2C272.194 76.94 271.043 77.84 269.694 78.32C268.136 78.88 266.489 79.15 264.832 79.15C264.792 79.15 267.739 78.86 264.723 79.15C261.717 79.43 262.61 76.24 264.743 76.15ZM312.437 72.89C314.084 71.39 314.868 65.55 310.135 62.54C310.135 62.54 312.715 62.63 314.868 64.33C316.704 65.78 317.071 68.29 316.634 70.94C316.525 71.62 317.051 72.24 317.736 72.2C320.196 72.07 322.647 72.52 324.76 73.5C325.564 73.88 325.842 74.9 325.365 75.66C325.169 75.9673 324.868 76.1917 324.519 76.2911C324.17 76.3906 323.797 76.3582 323.47 76.2C321.099 75.1 317.646 74.51 314.878 75.21C312.07 75.92 310.096 76.74 307.893 80.59C307.516 81.24 306.702 81.47 306.087 81.05C305.611 80.72 305.413 80.1 305.611 79.56C307.496 74.32 310.215 74.91 312.437 72.89ZM306.296 90.9C306.349 90.7086 306.439 90.5298 306.562 90.374C306.684 90.2182 306.836 90.0886 307.009 89.9927C307.182 89.8968 307.372 89.8366 307.568 89.8155C307.764 89.7945 307.962 89.813 308.151 89.87C310.532 90.59 313.975 90.38 315.513 88.82C317.567 84.03 319.125 83.18 321.615 82.33C322.607 81.99 323.599 82.85 323.5 83.89C323.441 84.48 323.054 84.98 322.488 85.15C320.722 85.68 318.946 88.07 318.033 90.51C317.2 92.72 317.101 95.63 318.986 97.71C319.472 98.25 319.571 99.03 319.144 99.62L319.125 99.65C318.579 100.41 317.488 100.47 316.853 99.78C316.178 99.04 315.473 98.08 315.176 97.11C314.868 96.08 314.957 95.16 314.074 94.34C313.092 93.42 312.159 93.61 310.979 93.61C309.768 93.61 308.469 93.17 307.328 92.76C306.554 92.51 306.058 91.68 306.296 90.9ZM336.716 104.46C337.053 104.46 337.381 104.45 337.728 104.42C342.322 104.02 344.733 100.69 345.824 97.04C346.916 93.39 345.993 89.42 345.993 89.42C344.604 100.22 339.018 101.29 337.47 101.43C334.543 101.69 331.745 100.41 330.981 98.46C329.771 95.38 333.482 92.36 335.297 90.49C336.498 89.25 336.944 87.14 336.627 85.47C336.468 84.61 336.091 83.77 335.387 83.22C334.692 82.68 332.946 82.19 333.184 83.73C333.253 84.21 333.561 84.61 333.749 85.05C335.109 88.17 330.277 91.06 328.957 93.37C327.876 95.24 327.399 97.5 328.213 99.56C329.364 102.5 332.847 104.46 336.716 104.46Z" fill="#F07371"/>
<path d="M337.777 103.66C336.974 103.76 336.15 103.62 335.426 103.26C334.731 102.92 334.106 102.38 333.342 102.32C332.975 102.3 332.519 102.52 332.578 102.88C332.598 103.01 331.755 103.25 331.864 103.32C333.838 104.56 338.839 105.79 335.386 114.72C335.108 115.43 335.327 116.23 335.972 116.62C336.726 117.08 337.728 116.78 338.085 115.97C339.028 113.88 339.484 111.57 339.454 109.27C339.424 107.03 339.196 105.07 340.685 103.2C340.843 103.01 341.012 102.74 340.883 102.53C340.804 102.4 340.645 102.35 340.496 102.31C339.881 102.15 339.226 101.98 338.601 102.11C338.323 102.17 335.218 103.9 335.188 103.84M249.264 118.1C251.318 117.85 253.432 118 255.376 118.74C257.023 119.37 258.254 120.64 260.149 120.22C261.28 119.97 262.282 119.24 262.986 118.31C264.475 116.36 264.276 114.31 263.721 112.09C263.165 109.89 263.224 107.34 264.207 105.27C264.465 104.72 264.901 104.23 265.467 104.03C266.042 103.83 266.747 104 267.084 104.51C267.421 105.03 267.292 105.72 267.173 106.33C266.786 108.2 266.29 110.22 266.846 112.05C267.372 113.79 268.096 115.35 269.336 116.69C271.688 119.24 275.101 120.41 278.048 119.66C280.221 119.11 281.977 117.58 283.158 115.24C283.574 113.41 284.011 111.03 286.263 110.77C286.719 110.72 287.216 110.79 287.563 111.08C287.91 111.38 288.069 111.86 288.069 112.32C288.069 113.47 286.977 114.33 286.779 115.46C286.154 118.92 288.436 122.88 291.899 124.8C294.578 126.29 301.93 127.13 308.518 121.56C308.796 121.32 308.796 120.86 309.064 120.61C309.242 120.45 309.47 120.35 309.699 120.31C310.681 120.12 311.703 121.06 311.613 122.06C311.534 122.97 310.79 123.67 310.125 124.29C308.399 125.91 309.173 126.56 309.47 127.43C309.54 127.65 309.669 127.85 309.689 128.08C309.748 128.72 308.776 128.51 308.141 128.46C307.506 128.41 306.93 128.06 306.315 127.88C305.541 127.66 301.999 128.97 301.305 129.12C299.29 129.56 298.596 129.76 296.86 129.76C294.687 129.76 292.841 130.89 291.254 129.39C288.992 127.26 287.235 125.87 285.231 125.18C284.239 124.84 283.048 124.67 282.215 125.32C281.62 125.78 281.352 126.55 281.143 127.27C280.717 128.75 280.399 130.26 279.774 131.67C279.149 133.07 278.157 134.38 276.768 135.01C276.331 135.21 275.835 135.34 275.359 135.23C274.883 135.12 274.466 134.71 274.456 134.23C274.446 133.9 274.615 133.6 274.793 133.33C275.478 132.23 276.292 131.21 276.897 130.07C277.502 128.93 277.899 127.6 277.651 126.33C277.194 123.98 274.496 123.32 272.561 122.73C270.706 122.16 268.85 121.09 266.856 121.2C265.606 121.27 262.957 122.74 262.163 123.72C262.004 123.92 261.935 124.17 261.895 124.43C261.558 126.54 263.095 128.44 264.554 129.98C264.812 130.25 265.08 130.66 264.862 130.97C264.782 131.08 264.663 131.14 264.544 131.18C263.492 131.59 262.262 131.23 261.369 130.54C259.405 129.04 258.72 126.47 257.043 124.69C255.664 123.24 253.809 122.29 251.933 121.67C245.226 119.45 244.879 124.77 243.678 127.75C242.478 130.73 240.702 128.67 240.682 127.85C240.612 123.96 243.083 118.84 249.264 118.1Z" fill="#F07371"/>
<path d="M312.08 133.89C313.102 133.83 313.777 132.76 313.36 131.81C312.695 130.29 311.445 128.78 309.828 127.62C307.367 125.86 304.907 125.54 302.436 126.25L301.93 128.79C303.528 128.33 306.385 128.84 308.102 130.07C309.342 130.96 310.195 132.05 310.612 132.96C310.88 133.55 311.445 133.93 312.08 133.89Z" fill="#F07371"/>
<path d="M247.826 87.8001C248.014 86.5301 248.996 85.3501 250.266 85.3101C250.892 85.2901 251.586 85.6201 251.755 86.2301C251.834 86.5001 251.794 86.8001 251.785 87.0801C251.705 89.1601 253.362 91.1701 255.406 91.4601C257.718 91.7901 259.424 90.3501 261.171 89.1501C262.837 88.0101 264.921 87.2401 266.846 86.6901C271.976 85.2401 276.391 86.2101 279.754 90.4801C281.004 92.0701 282.195 93.8101 283.951 94.7901C286.71 96.3301 292.534 96.4401 294.25 93.4201C296.502 89.4701 296.582 77.3301 289.359 78.7101C287.126 79.1401 285.469 81.0901 285.311 82.5401C285.211 83.4601 285.777 84.2601 286.501 84.8801C286.768 85.1108 286.945 85.4298 286.999 85.7798C287.054 86.1299 286.983 86.4881 286.799 86.7901C286.323 87.5801 285.251 87.7501 284.556 87.1601C282.523 85.4001 282.205 83.5501 282.354 82.2101C282.82 77.9401 287.593 75.5301 291.383 75.4201C292.216 75.3901 293.179 75.1201 293.496 74.3301C293.635 73.9901 293.615 73.6201 293.645 73.2601C293.843 70.7101 296.433 67.9401 298.457 66.6201C299.201 66.1301 300.203 66.4501 300.59 67.2501C300.918 67.9401 300.66 68.7501 300.025 69.1701C298.1 70.4501 296.929 72.3101 296.542 74.7101C296.106 77.4701 296.701 80.2901 297.852 82.8001C298.427 84.0601 299.132 85.2801 299.955 86.4001C300.66 87.3701 301.662 88.0201 302.118 89.1801C302.168 89.3101 302.217 89.4501 302.178 89.5801C302.108 89.8301 301.801 89.9001 301.543 89.9101C300.809 89.9401 300.074 89.7801 299.419 89.4701C299.796 90.9401 298.824 92.3701 298.02 93.6501C297.217 94.9301 296.572 96.6701 297.485 97.8801C297.524 97.9301 297.574 97.9801 297.614 98.0401C299.568 98.8701 301.453 100 302.922 101.56C305.452 104.26 307.327 106.69 311.028 107.89C314.302 108.96 317.944 108.83 321.129 107.54C321.744 107.29 322.369 107 323.034 107.02C323.698 107.04 324.403 107.51 324.423 108.18C324.432 108.52 324.264 108.83 324.115 109.14C322.428 112.59 325.524 114.83 326.844 117.83C328.084 120.63 328.719 123.7 328.719 126.77C328.719 130.12 327.578 132.56 323.46 136.82C321.595 138.74 319.154 139.88 317.1 140.55C316.455 140.76 316.049 139.87 316.624 139.5C320.861 136.78 321.525 134.37 322.815 131.89C325.911 125.92 322.527 116.82 316.703 112.2C314.451 110.42 311.256 110.56 308.538 111.5C305.621 112.51 303.894 114.67 301.701 116.68C301.106 117.23 300.342 117.82 299.578 117.58C298.884 117.37 298.536 116.54 298.616 115.82C298.695 115.1 299.102 114.46 299.489 113.85C299.916 113.18 300.342 112.51 300.779 111.84C301.344 110.96 301.93 110.04 302.108 109C302.307 107.87 301.315 103.96 291.889 101.54C290.291 101.13 288.664 101.31 287.057 101.77C284.894 102.39 283.346 103.99 281.53 105.24C281.024 105.59 280.469 105.96 279.854 105.98C279.08 106.01 278.326 105.42 278.167 104.65C277.949 103.59 278.742 102.64 279.268 101.7C281.014 98.6001 278.98 94.4601 276.411 92.4801C274.109 90.7201 271.083 90.0701 268.215 90.3701C263.85 90.8201 259.543 93.7601 258.541 98.0601C258.313 99.0301 258.035 100.28 257.053 100.41C255.962 100.56 255.376 99.0901 255.485 97.9801C255.595 96.8701 255.952 95.6201 255.267 94.7401C254.95 94.3401 254.473 94.1101 254.007 93.9001C252.668 93.3101 251.269 92.8201 250.068 91.9701C248.867 91.1301 247.865 89.8401 247.776 88.3701C247.786 88.2001 247.796 88.0001 247.826 87.8001Z" fill="#EA6363"/>
<path d="M301.553 89.8999C300.819 89.9299 300.084 89.7699 299.429 89.4599C299.806 90.9299 298.834 92.3599 298.03 93.6399C297.445 94.5799 296.631 96.2499 297.515 97.9599C297.515 97.9599 296.185 97.2099 294.032 96.5799C291.879 95.9499 289.775 95.8099 289.775 95.8099C291.303 95.4899 293.566 94.6199 294.26 93.4099C296.512 89.4599 296.592 77.3199 289.369 78.6999C287.136 79.1299 285.479 81.0799 285.321 82.5299C285.221 83.4499 285.787 84.2499 286.511 84.8699C286.778 85.1005 286.955 85.4195 287.009 85.7696C287.064 86.1196 286.993 86.4778 286.809 86.7799C286.333 87.5699 285.261 87.7399 284.566 87.1499C282.532 85.3899 282.215 83.5399 282.364 82.1999C282.83 77.9299 287.603 75.5199 291.393 75.4099C292.226 75.3799 293.189 75.1099 293.506 74.3199C293.645 73.9799 293.625 73.6099 293.655 73.2499C293.853 70.6999 296.443 67.9299 298.467 66.6099C299.211 66.1199 300.213 66.4399 300.6 67.2399C300.928 67.9299 300.67 68.7399 300.035 69.1599C298.11 70.4399 296.939 72.2999 296.552 74.6999C296.116 77.4599 296.711 80.2799 297.862 82.7899C298.437 84.0499 299.142 85.2699 299.965 86.3899C300.67 87.3599 301.672 88.0099 302.128 89.1699C302.178 89.2999 302.227 89.4399 302.188 89.5699C302.118 89.8199 301.811 89.8899 301.553 89.8999Z" fill="#F07371"/>
<path d="M42.9512 27.6999C42.9512 27.6999 41.0958 35.6599 30.8167 41.5799C24.3377 45.3099 10.715 49.1799 3.75976 43.9999C-4.15789 38.0999 -5.86446 32.2599 -6.24149 30.1099C-6.61852 27.9599 -5.48742 22.0299 -5.48742 22.0299L7.54 17.3599C7.54 17.3599 29.0804 22.6599 29.4574 22.6599C29.8245 22.6699 42.9512 27.6999 42.9512 27.6999Z" fill="#E06767"/>
<path d="M-5.52778 32.6699C-5.81552 31.9199 -5.99411 31.2799 -6.12309 30.7499C-3.82122 30.1299 -1.15224 29.1299 1.2687 28.0899C1.07026 27.9999 0.871828 27.9099 0.683313 27.8099C-0.507312 27.1999 -1.6781 26.4899 -2.52146 25.4499C-3.43427 24.3299 -3.85099 22.8799 -3.80138 21.4299L7.53933 17.3599C7.53933 17.3599 29.0797 22.6599 29.4568 22.6599C29.8338 22.6599 42.9505 27.6899 42.9604 27.6999C43.1291 27.7599 41.74 30.6999 41.6507 30.8499C40.3907 33.2199 37.4935 36.5199 35.5091 38.3099C35.5091 38.3099 36.4219 36.1899 34.6955 35.3999C33.9315 35.0499 33.0088 35.2199 32.225 35.5299C30.2604 36.3199 27.7998 39.3599 21.6482 42.6199C17.4711 44.8399 13.1749 46.5399 11.7859 46.4799C9.93049 46.3999 6.56698 45.4899 6.56698 45.4899C6.56698 45.4899 10.8532 45.0799 17.739 41.8499C19.8226 40.8699 27.5319 37.0499 28.2661 34.9199C28.4745 34.3199 29.2186 33.2599 27.8692 32.6599C25.8055 31.7299 20.1798 36.6199 15.3478 38.8599C9.59315 41.5199 3.32253 43.6499 3.32253 43.6499C2.64784 43.1299 2.01284 42.6099 1.41753 42.0899C4.62229 41.2599 7.75761 40.1199 10.7838 38.7899C13.8 37.4699 16.7567 35.7599 19.4853 33.8799C21.2216 32.6799 22.4221 30.6599 20.5568 30.3999C17.5009 29.9699 13.552 32.8999 9.59315 34.9699C6.02128 36.8399 1.73503 37.6999 -2.28333 38.2099C-2.79927 37.5599 -3.64263 36.3199 -3.64263 36.3199C-3.64263 36.3199 -2.12458 36.0599 2.3601 35.0599C4.32464 34.6199 6.22964 34.0499 7.97589 33.0599C8.4323 32.7999 10.0297 31.1499 7.8469 30.3899C5.66409 29.6299 3.59042 31.1399 0.29636 31.9099C-3.00762 32.6999 -5.49802 32.7399 -5.52778 32.6699Z" fill="#B05353"/>
<path d="M-13.0786 -8.69984C-13.0786 -8.69984 -12.8305 -16.7998 -8.51449 -23.9698C-4.79379 -30.1498 0.514411 -30.7798 0.514411 -30.7798C0.514411 -30.7798 1.56614 -34.6698 5.25707 -37.6498C8.94801 -40.6298 16.5382 -43.1198 16.5382 -43.1198C31.7386 -50.0198 41.214 -44.3698 41.214 -44.3698C41.214 -44.3698 63.7564 -49.7698 81.8043 -34.3398C81.8043 -34.3398 90.9126 -30.0198 94.6333 -21.8598C96.6871 -17.3398 95.8041 -9.96983 95.8041 -9.96983C102.124 -2.56983 100.388 9.15017 93.2939 15.0202C89.9105 17.8102 85.7334 19.6602 81.3777 20.1302C79.6711 20.3102 78.8079 19.9002 78.0936 21.6502C77.0418 24.2302 76.2183 26.8802 74.105 28.7302C71.9519 30.6102 69.4417 32.0702 66.7727 33.0702C61.5935 35.0002 55.7396 35.2102 50.5107 33.3202C48.7744 32.6902 43.2082 32.6302 43.2082 32.6302C43.2082 32.6302 40.2614 35.0802 29.8038 34.6902C19.3461 34.3002 14.9309 29.7502 12.5397 28.9002C10.7042 28.2502 8.45191 26.8202 6.44769 27.1902C5.30667 27.4002 4.28472 27.9902 3.24292 28.4902C0.32589 29.9002 -2.94832 30.6702 -6.16301 30.3702C-18.3173 29.2402 -19.5972 15.1302 -18.3967 5.43016C-17.1862 -4.35984 -13.0786 -8.69984 -13.0786 -8.69984Z" fill="#FFB3B3"/>
<path d="M76.6946 10.45C76.9426 11.02 79.4231 16.48 81.5067 17.36C85.1083 18.89 90.6844 15.25 92.8176 14.25C93.2343 14.05 93.5122 14.55 93.5122 14.55C93.8594 15 92.9565 15.93 92.5001 16.26C90.734 17.54 86.4974 20.44 83.3522 21.23C79.2941 22.25 76.2481 21.23 76.2481 21.23C76.2481 21.23 75.1368 13.04 75.0475 12.67C74.9582 12.3 75.0475 9.04004 75.0475 9.04004L76.6946 10.45Z" fill="#EA6363"/>
<path d="M41.2439 33.5599C41.2439 33.5599 43.2878 33.2399 46.4231 33.2899C49.5584 33.3399 53.9736 34.2499 53.9736 34.2499C53.9736 34.2499 50.8582 32.8199 49.4691 31.5699C48.08 30.3099 47.8022 27.2499 48.0304 25.4299C48.2685 23.5699 48.8936 22.6299 53.6164 21.6399L39.4678 20.8499C44.2105 24.0299 45.0737 30.5799 41.2439 33.5599ZM-1.58887 3.46988C0.871756 3.79988 3.26293 3.32987 5.38621 2.05988C6.30894 1.49988 6.40816 0.179879 5.59457 -0.530121C5.04886 -1.00012 4.26504 -1.03012 3.6598 -0.630124C0.226835 1.63988 -3.26567 0.149876 -5.13098 -1.02012C-9.89348 -4.01012 -12.2549 -9.31012 -11.9374 -14.8701C-12.8899 -13.1701 -13.5844 -11.2901 -13.7531 -9.35012C-14.1797 -4.64012 -10.8162 -0.970122 -7.05582 1.39988C-5.25996 2.53988 -3.40457 3.22988 -1.58887 3.46988Z" fill="#F07371"/>
<path d="M-12.2248 8.16003C-11.1533 8.16003 -9.9924 7.93003 -8.89107 7.25003C-7.75998 6.55003 -7.12498 5.61003 -6.55943 4.45003C-6.0931 3.50003 -5.43826 2.91003 -4.23771 3.00003C-3.39435 3.07003 -2.58076 3.55003 -1.7374 3.43003C-2.85857 1.43003 -4.65443 -0.169972 -6.76779 -1.03997C-7.74013 -1.43997 -8.83154 -1.68997 -9.82373 -1.37997C-9.93287 -0.679972 -9.46654 -0.0299701 -9.19865 0.63003C-8.73232 1.80003 -8.92084 3.20003 -9.6749 4.20003C-10.1908 4.88003 -11.1731 5.61003 -12.076 5.55003C-12.6713 5.51003 -13.088 5.00003 -13.6734 4.95003C-15.4891 4.82003 -15.9455 7.50003 -14.1596 7.92003C-13.5841 8.06003 -12.9293 8.16003 -12.2248 8.16003ZM5.23768 -28.92C5.96198 -28.83 6.69619 -28.91 7.07322 -29.55C7.5594 -30.38 7.15261 -31.42 6.24972 -31.74C3.75932 -32.62 0.96135 -32.46 -1.46951 -31.48C-3.59279 -30.62 -4.87271 -29.16 -5.71607 -28.17C-6.55943 -27.18 -7.1349 -25.22 -7.1349 -25.22C-5.02154 -27.07 -3.82099 -29.98 5.23768 -28.92ZM14.7428 -30.85C16.886 -30.94 14.8024 -30.85 14.8222 -30.85C18.2155 -30.85 22.2735 -32.03 22.8192 -35.93C23.8015 -43.03 13.4034 -40.27 9.59338 -39.74C9.59338 -39.74 12.5997 -42.85 16.5387 -43.12C18.3742 -43.24 20.2693 -43.19 22.0553 -42.71C24.0198 -42.18 25.012 -40.69 26.7979 -39.95C28.1473 -39.4 29.6852 -39.61 31.0742 -40.03C32.3542 -40.42 36.5114 -42.67 36.6305 -39.87C36.6603 -39.1 36.1146 -38.44 35.3704 -38.33C32.3542 -37.9 28.187 -36.54 26.6392 -33.64C25.9248 -32.31 25.7561 -30.7 26.1728 -29.25C26.3713 -28.54 26.659 -27.63 26.0736 -27.18C25.6271 -26.83 24.9425 -27.06 24.5357 -27.46C24.1289 -27.86 23.871 -28.4 23.4642 -28.8C22.1942 -30.06 21.0432 -29.16 19.6939 -28.68C18.1361 -28.12 16.4891 -27.85 14.8321 -27.85C14.7924 -27.85 17.7392 -28.14 14.723 -27.85C11.7167 -27.57 12.6096 -30.76 14.7428 -30.85ZM62.4373 -34.11C64.0843 -35.61 64.8682 -41.45 60.1354 -44.46C60.1354 -44.46 62.7151 -44.37 64.8681 -42.67C66.7037 -41.22 67.0708 -38.71 66.6342 -36.06C66.5251 -35.38 67.051 -34.76 67.7356 -34.8C70.1962 -34.93 72.6469 -34.48 74.7603 -33.5C75.5639 -33.12 75.8417 -32.1 75.3655 -31.34C75.1691 -31.0327 74.8682 -30.8083 74.5192 -30.7089C74.1703 -30.6094 73.7973 -30.6418 73.4704 -30.8C71.0991 -31.9 67.6463 -32.49 64.8781 -31.79C62.0702 -31.08 60.0957 -30.26 57.8931 -26.41C57.516 -25.76 56.7024 -25.53 56.0873 -25.95C55.611 -26.28 55.4126 -26.9 55.611 -27.44C57.4962 -32.68 60.2148 -32.09 62.4373 -34.11ZM56.2956 -16.1C56.3488 -16.2914 56.4392 -16.4702 56.5617 -16.626C56.6842 -16.7818 56.8362 -16.9114 57.009 -17.0073C57.1817 -17.1032 57.3716 -17.1634 57.5677 -17.1845C57.7638 -17.2055 57.9621 -17.187 58.151 -17.13C60.5323 -16.41 63.9752 -16.62 65.5131 -18.18C67.5669 -22.97 69.1246 -23.82 71.615 -24.67C72.6072 -25.01 73.5994 -24.15 73.5002 -23.11C73.4406 -22.52 73.0537 -22.02 72.4881 -21.85C70.7221 -21.32 68.946 -18.93 68.0332 -16.49C67.1998 -14.28 67.1006 -11.37 68.9857 -9.28997C69.4719 -8.74997 69.5711 -7.96997 69.1445 -7.37997L69.1246 -7.34996C68.5789 -6.58996 67.4875 -6.52997 66.8525 -7.21997C66.1778 -7.95997 65.4734 -8.91996 65.1757 -9.88996C64.8681 -10.92 64.9574 -11.84 64.0744 -12.66C63.0921 -13.58 62.1595 -13.39 60.9788 -13.39C59.7683 -13.39 58.4685 -13.83 57.3275 -14.24C56.5536 -14.49 56.0575 -15.32 56.2956 -16.1ZM86.7161 -2.53996C87.0535 -2.53996 87.3809 -2.54996 87.7281 -2.57996C92.322 -2.97996 94.733 -6.30996 95.8244 -9.95996C96.9158 -13.61 95.9931 -17.58 95.9931 -17.58C94.604 -6.77996 89.018 -5.70996 87.4702 -5.56996C84.5432 -5.30996 81.7453 -6.58996 80.9813 -8.53996C79.7708 -11.62 83.4816 -14.64 85.2973 -16.51C86.4978 -17.75 86.9443 -19.86 86.6268 -21.53C86.4681 -22.39 86.091 -23.23 85.3866 -23.78C84.6921 -24.32 82.9458 -24.81 83.1839 -23.27C83.2534 -22.79 83.561 -22.39 83.7495 -21.95C85.1088 -18.83 80.2768 -15.94 78.9572 -13.63C77.8757 -11.76 77.3995 -9.49996 78.2131 -7.43996C79.364 -4.49996 82.8466 -2.53996 86.7161 -2.53996Z" fill="#F07371"/>
<path d="M87.7774 -3.33994C86.9738 -3.23994 86.1502 -3.37994 85.4259 -3.73994C84.7314 -4.07994 84.1063 -4.61994 83.3424 -4.67994C82.9752 -4.69994 82.5188 -4.47994 82.5784 -4.11994C82.5982 -3.98994 81.7549 -3.74994 81.864 -3.67994C83.8384 -2.43994 88.8391 -1.20994 85.3863 7.72006C85.1084 8.43006 85.3267 9.23006 85.9716 9.62006C86.7257 10.0801 87.7278 9.78006 88.085 8.97006C89.0276 6.88006 89.484 4.57006 89.4542 2.27006C89.4245 0.0300556 89.1963 -1.92994 90.6845 -3.79994C90.8433 -3.98994 91.012 -4.25994 90.883 -4.46994C90.8036 -4.59994 90.6449 -4.64994 90.496 -4.68994C89.8809 -4.84994 89.226 -5.01994 88.6009 -4.88994C88.3231 -4.82994 85.2176 -3.09994 85.1878 -3.15994M-0.735623 11.1C1.31821 10.85 3.43156 11 5.37625 11.74C7.02328 12.37 8.2536 13.6401 10.1487 13.2201C11.2798 12.9701 12.2819 12.24 12.9863 11.31C14.4746 9.36005 14.2762 7.31005 13.7206 5.09005C13.1649 2.89005 13.2245 0.340053 14.2067 -1.72995C14.4647 -2.27995 14.9012 -2.76995 15.4668 -2.96995C16.0423 -3.16995 16.7467 -2.99995 17.0841 -2.48995C17.4214 -1.96995 17.2924 -1.27995 17.1734 -0.669945C16.7864 1.20005 16.2903 3.22006 16.8459 5.05006C17.3718 6.79006 18.0961 8.35006 19.3363 9.69006C21.6878 12.2401 25.1009 13.4101 28.0477 12.6601C30.2206 12.1101 31.9768 10.5801 33.1575 8.24005C33.5742 6.41005 34.0108 4.03005 36.2631 3.77005C36.7195 3.72005 37.2156 3.79006 37.5628 4.08006C37.9101 4.38006 38.0688 4.86005 38.0688 5.32005C38.0688 6.47005 36.9774 7.33005 36.779 8.46005C36.1539 11.9201 38.4359 15.8801 41.8987 17.8001C44.5776 19.2901 51.9297 20.1301 58.5178 14.5601C58.7956 14.3201 58.7956 13.8601 59.0635 13.6101C59.2421 13.4501 59.4703 13.3501 59.6985 13.3101C60.6808 13.1201 61.7027 14.0601 61.6134 15.0601C61.5341 15.9701 60.7899 16.6701 60.1252 17.2901C58.3988 18.9101 59.1727 19.5601 59.4703 20.4301C59.5398 20.6501 59.6688 20.8501 59.6886 21.0801C59.7481 21.7201 58.7758 21.5101 58.1408 21.4601C57.5058 21.4101 56.9303 21.0601 56.3152 20.8801C55.5413 20.6601 51.9991 21.9701 51.3046 22.1201C49.2905 22.5601 48.5959 22.7601 46.8596 22.7601C44.6867 22.7601 42.8412 23.8901 41.2537 22.3901C38.9916 20.2601 37.2354 18.8701 35.2312 18.1801C34.239 17.8401 33.0484 17.6701 32.2149 18.3201C31.6196 18.7801 31.3517 19.5501 31.1434 20.2701C30.7167 21.7501 30.3992 23.2601 29.7741 24.6701C29.1491 26.0701 28.1569 27.3801 26.7678 28.0101C26.3313 28.2101 25.8352 28.3401 25.3589 28.2301C24.8827 28.1201 24.4659 27.7101 24.456 27.2301C24.4461 26.9001 24.6148 26.6001 24.7934 26.3301C25.478 25.2301 26.2916 24.2101 26.8968 23.0701C27.502 21.9301 27.8989 20.6001 27.6509 19.3301C27.1945 16.9801 24.4957 16.3201 22.5609 15.7301C20.7055 15.1601 18.8502 14.09 16.8559 14.2C15.6057 14.27 12.9566 15.7401 12.1628 16.7201C12.0041 16.9201 11.9346 17.1701 11.8949 17.4301C11.5576 19.5401 13.0955 21.4401 14.554 22.9801C14.812 23.2501 15.0798 23.6601 14.8616 23.9701C14.7822 24.0801 14.6631 24.1401 14.5441 24.1801C13.4923 24.5901 12.262 24.2301 11.3691 23.5401C9.40453 22.0401 8.71992 19.4701 7.04312 17.6901C5.66398 16.2401 3.80859 15.29 1.93336 14.67C-4.77383 12.45 -5.1211 17.7701 -6.32164 20.7501C-7.52219 23.7301 -9.2982 21.67 -9.31805 20.85C-9.3875 16.96 -6.91695 11.84 -0.735623 11.1Z" fill="#F07371"/>
<path d="M62.0803 26.8902C63.1023 26.8302 63.777 25.7602 63.3603 24.8102C62.6955 23.2902 61.4453 21.7802 59.8281 20.6202C57.3674 18.8602 54.9068 18.5402 52.4363 19.2502L51.9303 21.7902C53.5277 21.3302 56.3852 21.8402 58.1017 23.0702C59.3419 23.9602 60.1952 25.0502 60.6119 25.9602C60.8798 26.5502 61.4453 26.9302 62.0803 26.8902Z" fill="#F07371"/>
<path d="M-2.1743 -19.1999C-1.98578 -20.4699 -1.00352 -21.6499 0.266475 -21.6899C0.891554 -21.7099 1.58608 -21.3799 1.75476 -20.7699C1.83413 -20.4999 1.79446 -20.1999 1.78454 -19.9199C1.70516 -17.8399 3.36211 -15.8299 5.40601 -15.5399C7.71781 -15.2099 9.42437 -16.6499 11.1706 -17.8499C12.8375 -18.9899 14.9211 -19.7599 16.8459 -20.3099C21.9755 -21.7599 26.3908 -20.7899 29.7543 -16.5199C31.0044 -14.9299 32.1951 -13.1899 33.9512 -12.2099C36.7095 -10.6699 42.5337 -10.5599 44.2502 -13.5799C46.5024 -17.5299 46.5818 -29.6699 39.3587 -28.2899C37.1262 -27.8599 35.4693 -25.9099 35.3105 -24.4599C35.2113 -23.5399 35.7769 -22.7399 36.5012 -22.1199C36.768 -21.8892 36.9446 -21.5702 36.9991 -21.2202C37.0537 -20.8701 36.9826 -20.5119 36.7988 -20.2099C36.3226 -19.4199 35.251 -19.2499 34.5565 -19.8399C32.5225 -21.5999 32.205 -23.4499 32.3538 -24.7899C32.8202 -29.0599 37.5926 -31.4699 41.3827 -31.5799C42.2162 -31.6099 43.1786 -31.8799 43.4961 -32.6699C43.635 -33.0099 43.6152 -33.3799 43.6449 -33.7399C43.8434 -36.2899 46.433 -39.0599 48.457 -40.3799C49.2012 -40.8699 50.2033 -40.5499 50.5902 -39.7499C50.9177 -39.0599 50.6597 -38.2499 50.0247 -37.8299C48.0998 -36.5499 46.9291 -34.6899 46.5421 -32.2899C46.1055 -29.5299 46.7009 -26.7099 47.8518 -24.1999C48.4273 -22.9399 49.1317 -21.7199 49.9552 -20.5999C50.6597 -19.6299 51.6618 -18.9799 52.1182 -17.8199C52.1678 -17.6899 52.2174 -17.5499 52.1777 -17.4199C52.1083 -17.1699 51.8007 -17.0999 51.5427 -17.0899C50.8085 -17.0599 50.0743 -17.2199 49.4195 -17.5299C49.7965 -16.0599 48.8241 -14.6299 48.0205 -13.3499C47.2168 -12.0699 46.5719 -10.3299 47.4847 -9.11989C47.5244 -9.06989 47.574 -9.01989 47.6137 -8.95989C49.5683 -8.12989 51.4534 -6.99989 52.9219 -5.43989C55.4519 -2.73989 57.3272 -0.309896 61.028 0.890105C64.3023 1.9601 67.9436 1.83011 71.1285 0.540107C71.7437 0.290107 72.3687 0.000106715 73.0335 0.0201068C73.6983 0.0401068 74.4027 0.510107 74.4226 1.18011C74.4325 1.52011 74.2638 1.83011 74.115 2.14011C72.4283 5.59011 75.5239 7.83011 76.8435 10.8301C78.0837 13.6301 78.7187 16.7001 78.7187 19.7701C78.7187 23.1201 77.5777 25.5601 73.4601 29.8201C71.5948 31.7401 69.1541 32.8801 67.1002 33.5501C66.4553 33.7601 66.0485 32.8701 66.624 32.5001C70.8606 29.7801 71.5254 27.3701 72.8152 24.8901C75.9109 18.9201 72.5275 9.8201 66.7034 5.2001C64.4511 3.4201 61.2562 3.56011 58.5377 4.50011C55.6206 5.5101 53.8942 7.6701 51.7015 9.6801C51.1062 10.2301 50.3422 10.8201 49.5782 10.5801C48.8837 10.3701 48.5364 9.5401 48.6158 8.8201C48.6952 8.1001 49.1019 7.4601 49.4889 6.8501C49.9155 6.1801 50.3422 5.5101 50.7787 4.8401C51.3443 3.9601 51.9297 3.0401 52.1083 2.0001C52.3067 0.870105 51.3145 -3.03989 41.8887 -5.4599C40.2913 -5.8699 38.6641 -5.6899 37.0568 -5.2299C34.8938 -4.6099 33.346 -3.0099 31.5303 -1.7599C31.0243 -1.4099 30.4687 -1.0399 29.8535 -1.0199C29.0796 -0.989898 28.3255 -1.5799 28.1668 -2.3499C27.9485 -3.4099 28.7423 -4.3599 29.2681 -5.2999C31.0144 -8.3999 28.9804 -12.5399 26.4106 -14.5199C24.1088 -16.2799 21.0826 -16.9299 18.2152 -16.6299C13.8495 -16.1799 9.54344 -13.2399 8.54133 -8.9399C8.31313 -7.9699 8.03531 -6.7199 7.05305 -6.5899C5.96164 -6.4399 5.37625 -7.9099 5.48539 -9.0199C5.59453 -10.1299 5.95172 -11.3799 5.26711 -12.2599C4.94961 -12.6599 4.47335 -12.8899 4.00703 -13.0999C2.66757 -13.6899 1.26859 -14.1799 0.0680404 -15.0299C-1.13251 -15.8699 -2.13461 -17.1599 -2.22391 -18.6299C-2.21399 -18.7999 -2.20406 -18.9999 -2.1743 -19.1999Z" fill="#EA6363"/>
<path d="M-15.0786 182.3C-15.0786 182.3 -14.8305 174.2 -10.5145 167.03C-6.79379 160.85 -1.48559 160.22 -1.48559 160.22C-1.48559 160.22 -0.433864 156.33 3.25707 153.35C6.94801 150.37 14.5382 147.88 14.5382 147.88C29.7386 140.98 39.214 146.63 39.214 146.63C39.214 146.63 61.7564 141.23 79.8043 156.66C79.8043 156.66 88.9126 160.98 92.6333 169.14C94.6871 173.66 93.8041 181.03 93.8041 181.03C100.124 188.43 98.388 200.15 91.2939 206.02C87.9105 208.81 83.7334 210.66 79.3777 211.13C77.6711 211.31 76.8079 210.9 76.0936 212.65C75.0418 215.23 74.2183 217.88 72.105 219.73C69.9519 221.61 67.4417 223.07 64.7727 224.07C59.5935 226 53.7396 226.21 48.5107 224.32C46.7744 223.69 41.2082 223.63 41.2082 223.63C41.2082 223.63 38.2614 226.08 27.8038 225.69C17.3461 225.3 12.9309 220.75 10.5397 219.9C8.70417 219.25 6.45191 217.82 4.44769 218.19C3.30667 218.4 2.28472 218.99 1.24292 219.49C-1.67411 220.9 -4.94832 221.67 -8.16301 221.37C-20.3173 220.24 -21.5972 206.13 -20.3967 196.43C-19.1862 186.64 -15.0786 182.3 -15.0786 182.3Z" fill="#FFB3B3"/>
<path d="M39.2439 224.56C39.2439 224.56 41.2878 224.24 44.4231 224.29C47.5584 224.34 51.9736 225.25 51.9736 225.25C51.9736 225.25 48.8582 223.82 47.4691 222.57C46.08 221.31 45.8022 218.25 46.0304 216.43C46.2685 214.57 46.8936 213.63 51.6164 212.64L37.4678 211.85C42.2105 215.03 43.0737 221.58 39.2439 224.56ZM-3.58887 194.47C-1.12824 194.8 1.26293 194.33 3.38621 193.06C4.30894 192.5 4.40816 191.18 3.59457 190.47C3.04886 190 2.26504 189.97 1.6598 190.37C-1.77316 192.64 -5.26567 191.15 -7.13098 189.98C-11.8935 186.99 -14.2549 181.69 -13.9374 176.13C-14.8899 177.83 -15.5844 179.71 -15.7531 181.65C-16.1797 186.36 -12.8162 190.03 -9.05582 192.4C-7.25996 193.54 -5.40457 194.23 -3.58887 194.47Z" fill="#F07371"/>
<path d="M-14.2248 199.16C-13.1533 199.16 -11.9924 198.93 -10.8911 198.25C-9.75998 197.55 -9.12498 196.61 -8.55943 195.45C-8.0931 194.5 -7.43826 193.91 -6.23771 194C-5.39435 194.07 -4.58076 194.55 -3.7374 194.43C-4.85857 192.43 -6.65443 190.83 -8.76779 189.96C-9.74013 189.56 -10.8315 189.31 -11.8237 189.62C-11.9329 190.32 -11.4665 190.97 -11.1986 191.63C-10.7323 192.8 -10.9208 194.2 -11.6749 195.2C-12.1908 195.88 -13.1731 196.61 -14.076 196.55C-14.6713 196.51 -15.088 196 -15.6734 195.95C-17.4891 195.82 -17.9455 198.5 -16.1596 198.92C-15.5841 199.06 -14.9293 199.16 -14.2248 199.16ZM3.23768 162.08C3.96198 162.17 4.69619 162.09 5.07322 161.45C5.5594 160.62 5.15261 159.58 4.24972 159.26C1.75932 158.38 -1.03865 158.54 -3.46951 159.52C-5.59279 160.38 -6.87271 161.84 -7.71607 162.83C-8.55943 163.82 -9.1349 165.78 -9.1349 165.78C-7.02154 163.93 -5.82099 161.02 3.23768 162.08ZM12.7428 160.15C14.886 160.06 12.8024 160.15 12.8222 160.15C16.2155 160.15 20.2735 158.97 20.8192 155.07C21.8015 147.97 11.4034 150.73 7.59338 151.26C7.59338 151.26 10.5997 148.15 14.5387 147.88C16.3742 147.76 18.2693 147.81 20.0553 148.29C22.0198 148.82 23.012 150.31 24.7979 151.05C26.1473 151.6 27.6852 151.39 29.0742 150.97C30.3542 150.58 34.5114 148.33 34.6305 151.13C34.6603 151.9 34.1146 152.56 33.3704 152.67C30.3542 153.1 26.187 154.46 24.6392 157.36C23.9248 158.69 23.7561 160.3 24.1728 161.75C24.3713 162.46 24.659 163.37 24.0736 163.82C23.6271 164.17 22.9425 163.94 22.5357 163.54C22.1289 163.14 21.871 162.6 21.4642 162.2C20.1942 160.94 19.0432 161.84 17.6939 162.32C16.1361 162.88 14.4891 163.15 12.8321 163.15C12.7924 163.15 15.7392 162.86 12.723 163.15C9.71666 163.43 10.6096 160.24 12.7428 160.15ZM60.4373 156.89C62.0843 155.39 62.8682 149.55 58.1354 146.54C58.1354 146.54 60.7151 146.63 62.8681 148.33C64.7037 149.78 65.0708 152.29 64.6342 154.94C64.5251 155.62 65.051 156.24 65.7356 156.2C68.1962 156.07 70.6469 156.52 72.7603 157.5C73.5639 157.88 73.8417 158.9 73.3655 159.66C73.1691 159.967 72.8682 160.192 72.5192 160.291C72.1703 160.391 71.7973 160.358 71.4704 160.2C69.0991 159.1 65.6463 158.51 62.8781 159.21C60.0702 159.92 58.0957 160.74 55.8931 164.59C55.516 165.24 54.7024 165.47 54.0873 165.05C53.611 164.72 53.4126 164.1 53.611 163.56C55.4962 158.32 58.2148 158.91 60.4373 156.89ZM54.2956 174.9C54.3488 174.709 54.4392 174.53 54.5617 174.374C54.6842 174.218 54.8362 174.089 55.009 173.993C55.1817 173.897 55.3716 173.837 55.5677 173.816C55.7638 173.794 55.9621 173.813 56.151 173.87C58.5323 174.59 61.9752 174.38 63.5131 172.82C65.5669 168.03 67.1246 167.18 69.615 166.33C70.6072 165.99 71.5994 166.85 71.5002 167.89C71.4406 168.48 71.0537 168.98 70.4881 169.15C68.7221 169.68 66.946 172.07 66.0332 174.51C65.1998 176.72 65.1006 179.63 66.9857 181.71C67.4719 182.25 67.5711 183.03 67.1445 183.62L67.1246 183.65C66.5789 184.41 65.4875 184.47 64.8525 183.78C64.1778 183.04 63.4734 182.08 63.1757 181.11C62.8681 180.08 62.9574 179.16 62.0744 178.34C61.0921 177.42 60.1595 177.61 58.9788 177.61C57.7683 177.61 56.4685 177.17 55.3275 176.76C54.5536 176.51 54.0575 175.68 54.2956 174.9ZM84.7161 188.46C85.0535 188.46 85.3809 188.45 85.7281 188.42C90.322 188.02 92.733 184.69 93.8244 181.04C94.9158 177.39 93.9931 173.42 93.9931 173.42C92.604 184.22 87.018 185.29 85.4702 185.43C82.5432 185.69 79.7453 184.41 78.9813 182.46C77.7708 179.38 81.4816 176.36 83.2973 174.49C84.4978 173.25 84.9443 171.14 84.6268 169.47C84.4681 168.61 84.091 167.77 83.3866 167.22C82.6921 166.68 80.9458 166.19 81.1839 167.73C81.2534 168.21 81.561 168.61 81.7495 169.05C83.1088 172.17 78.2768 175.06 76.9572 177.37C75.8757 179.24 75.3995 181.5 76.2131 183.56C77.364 186.5 80.8466 188.46 84.7161 188.46Z" fill="#F07371"/>
<path d="M85.7774 187.66C84.9738 187.76 84.1502 187.62 83.4259 187.26C82.7314 186.92 82.1063 186.38 81.3424 186.32C80.9752 186.3 80.5188 186.52 80.5784 186.88C80.5982 187.01 79.7549 187.25 79.864 187.32C81.8384 188.56 86.8391 189.79 83.3863 198.72C83.1084 199.43 83.3267 200.23 83.9716 200.62C84.7257 201.08 85.7278 200.78 86.085 199.97C87.0276 197.88 87.484 195.57 87.4542 193.27C87.4245 191.03 87.1963 189.07 88.6845 187.2C88.8433 187.01 89.012 186.74 88.883 186.53C88.8036 186.4 88.6449 186.35 88.496 186.31C87.8809 186.15 87.226 185.98 86.6009 186.11C86.3231 186.17 83.2176 187.9 83.1878 187.84M-2.73562 202.1C-0.681795 201.85 1.43156 202 3.37625 202.74C5.02328 203.37 6.2536 204.64 8.14868 204.22C9.27977 203.97 10.2819 203.24 10.9863 202.31C12.4746 200.36 12.2762 198.31 11.7206 196.09C11.1649 193.89 11.2245 191.34 12.2067 189.27C12.4647 188.72 12.9012 188.23 13.4668 188.03C14.0423 187.83 14.7467 188 15.0841 188.51C15.4214 189.03 15.2924 189.72 15.1734 190.33C14.7864 192.2 14.2903 194.22 14.8459 196.05C15.3718 197.79 16.0961 199.35 17.3363 200.69C19.6878 203.24 23.1009 204.41 26.0477 203.66C28.2206 203.11 29.9768 201.58 31.1575 199.24C31.5742 197.41 32.0108 195.03 34.2631 194.77C34.7195 194.72 35.2156 194.79 35.5628 195.08C35.9101 195.38 36.0688 195.86 36.0688 196.32C36.0688 197.47 34.9774 198.33 34.779 199.46C34.1539 202.92 36.4359 206.88 39.8987 208.8C42.5776 210.29 49.9297 211.13 56.5178 205.56C56.7956 205.32 56.7956 204.86 57.0635 204.61C57.2421 204.45 57.4703 204.35 57.6985 204.31C58.6808 204.12 59.7027 205.06 59.6134 206.06C59.5341 206.97 58.7899 207.67 58.1252 208.29C56.3988 209.91 57.1727 210.56 57.4703 211.43C57.5398 211.65 57.6688 211.85 57.6886 212.08C57.7481 212.72 56.7758 212.51 56.1408 212.46C55.5058 212.41 54.9303 212.06 54.3152 211.88C53.5413 211.66 49.9991 212.97 49.3046 213.12C47.2905 213.56 46.5959 213.76 44.8596 213.76C42.6867 213.76 40.8412 214.89 39.2537 213.39C36.9916 211.26 35.2354 209.87 33.2312 209.18C32.239 208.84 31.0484 208.67 30.2149 209.32C29.6196 209.78 29.3517 210.55 29.1434 211.27C28.7167 212.75 28.3992 214.26 27.7741 215.67C27.1491 217.07 26.1569 218.38 24.7678 219.01C24.3313 219.21 23.8352 219.34 23.3589 219.23C22.8827 219.12 22.4659 218.71 22.456 218.23C22.4461 217.9 22.6148 217.6 22.7934 217.33C23.478 216.23 24.2916 215.21 24.8968 214.07C25.502 212.93 25.8989 211.6 25.6509 210.33C25.1945 207.98 22.4957 207.32 20.5609 206.73C18.7055 206.16 16.8502 205.09 14.8559 205.2C13.6057 205.27 10.9566 206.74 10.1628 207.72C10.0041 207.92 9.93461 208.17 9.89492 208.43C9.55758 210.54 11.0955 212.44 12.554 213.98C12.812 214.25 13.0798 214.66 12.8616 214.97C12.7822 215.08 12.6631 215.14 12.5441 215.18C11.4923 215.59 10.262 215.23 9.36906 214.54C7.40453 213.04 6.71992 210.47 5.04312 208.69C3.66398 207.24 1.80859 206.29 -0.0666437 205.67C-6.77383 203.45 -7.1211 208.77 -8.32164 211.75C-9.52219 214.73 -11.2982 212.67 -11.318 211.85C-11.3875 207.96 -8.91695 202.84 -2.73562 202.1Z" fill="#F07371"/>
<path d="M-4.1743 171.8C-3.98578 170.53 -3.00352 169.35 -1.73352 169.31C-1.10845 169.29 -0.413915 169.62 -0.245243 170.23C-0.165868 170.5 -0.205542 170.8 -0.215464 171.08C-0.294839 173.16 1.36211 175.17 3.40601 175.46C5.71781 175.79 7.42437 174.35 9.17062 173.15C10.8375 172.01 12.9211 171.24 14.8459 170.69C19.9755 169.24 24.3908 170.21 27.7543 174.48C29.0044 176.07 30.1951 177.81 31.9512 178.79C34.7095 180.33 40.5337 180.44 42.2502 177.42C44.5024 173.47 44.5818 161.33 37.3587 162.71C35.1262 163.14 33.4693 165.09 33.3105 166.54C33.2113 167.46 33.7769 168.26 34.5012 168.88C34.768 169.111 34.9446 169.43 34.9991 169.78C35.0537 170.13 34.9826 170.488 34.7988 170.79C34.3226 171.58 33.251 171.75 32.5565 171.16C30.5225 169.4 30.205 167.55 30.3538 166.21C30.8202 161.94 35.5926 159.53 39.3827 159.42C40.2162 159.39 41.1786 159.12 41.4961 158.33C41.635 157.99 41.6152 157.62 41.6449 157.26C41.8434 154.71 44.433 151.94 46.457 150.62C47.2012 150.13 48.2033 150.45 48.5902 151.25C48.9177 151.94 48.6597 152.75 48.0247 153.17C46.0998 154.45 44.9291 156.31 44.5421 158.71C44.1055 161.47 44.7009 164.29 45.8518 166.8C46.4273 168.06 47.1317 169.28 47.9552 170.4C48.6597 171.37 49.6618 172.02 50.1182 173.18C50.1678 173.31 50.2174 173.45 50.1777 173.58C50.1083 173.83 49.8007 173.9 49.5427 173.91C48.8085 173.94 48.0743 173.78 47.4195 173.47C47.7965 174.94 46.8241 176.37 46.0205 177.65C45.2168 178.93 44.5719 180.67 45.4847 181.88C45.5244 181.93 45.574 181.98 45.6137 182.04C47.5683 182.87 49.4534 184 50.9219 185.56C53.4519 188.26 55.3272 190.69 59.028 191.89C62.3023 192.96 65.9436 192.83 69.1285 191.54C69.7437 191.29 70.3687 191 71.0335 191.02C71.6983 191.04 72.4027 191.51 72.4226 192.18C72.4325 192.52 72.2638 192.83 72.115 193.14C70.4283 196.59 73.5239 198.83 74.8435 201.83C76.0837 204.63 76.7187 207.7 76.7187 210.77C76.7187 214.12 75.5777 216.56 71.4601 220.82C69.5948 222.74 67.1541 223.88 65.1002 224.55C64.4553 224.76 64.0485 223.87 64.624 223.5C68.8606 220.78 69.5254 218.37 70.8152 215.89C73.9109 209.92 70.5275 200.82 64.7034 196.2C62.4511 194.42 59.2562 194.56 56.5377 195.5C53.6206 196.51 51.8942 198.67 49.7015 200.68C49.1062 201.23 48.3422 201.82 47.5782 201.58C46.8837 201.37 46.5364 200.54 46.6158 199.82C46.6952 199.1 47.1019 198.46 47.4889 197.85C47.9155 197.18 48.3422 196.51 48.7787 195.84C49.3443 194.96 49.9297 194.04 50.1083 193C50.3067 191.87 49.3145 187.96 39.8887 185.54C38.2913 185.13 36.6641 185.31 35.0568 185.77C32.8938 186.39 31.346 187.99 29.5303 189.24C29.0243 189.59 28.4687 189.96 27.8535 189.98C27.0796 190.01 26.3255 189.42 26.1668 188.65C25.9485 187.59 26.7423 186.64 27.2681 185.7C29.0144 182.6 26.9804 178.46 24.4106 176.48C22.1088 174.72 19.0826 174.07 16.2152 174.37C11.8495 174.82 7.54344 177.76 6.54133 182.06C6.31313 183.03 6.03531 184.28 5.05305 184.41C3.96164 184.56 3.37625 183.09 3.48539 181.98C3.59453 180.87 3.95172 179.62 3.26711 178.74C2.94961 178.34 2.47335 178.11 2.00703 177.9C0.667573 177.31 -0.731413 176.82 -1.93196 175.97C-3.13251 175.13 -4.13461 173.84 -4.22391 172.37C-4.21399 172.2 -4.20406 172 -4.1743 171.8Z" fill="#EA6363"/>
<path d="M49.5527 173.9C48.8185 173.93 48.0843 173.77 47.4294 173.46C47.8065 174.93 46.8341 176.36 46.0305 177.64C45.4451 178.58 44.6315 180.25 45.5145 181.96C45.5145 181.96 44.185 181.21 42.0319 180.58C39.8789 179.95 37.7755 179.81 37.7755 179.81C39.3034 179.49 41.5656 178.62 42.2601 177.41C44.5124 173.46 44.5918 161.32 37.3687 162.7C35.1362 163.13 33.4793 165.08 33.3205 166.53C33.2213 167.45 33.7869 168.25 34.5112 168.87C34.778 169.101 34.9545 169.42 35.0091 169.77C35.0636 170.12 34.9926 170.478 34.8088 170.78C34.3326 171.57 33.261 171.74 32.5665 171.15C30.5325 169.39 30.215 167.54 30.3638 166.2C30.8302 161.93 35.6026 159.52 39.3927 159.41C40.2262 159.38 41.1886 159.11 41.5061 158.32C41.645 157.98 41.6251 157.61 41.6549 157.25C41.8534 154.7 44.443 151.93 46.467 150.61C47.2112 150.12 48.2133 150.44 48.6002 151.24C48.9276 151.93 48.6697 152.74 48.0347 153.16C46.1098 154.44 44.9391 156.3 44.5521 158.7C44.1155 161.46 44.7108 164.28 45.8618 166.79C46.4373 168.05 47.1417 169.27 47.9652 170.39C48.6697 171.36 49.6718 172.01 50.1282 173.17C50.1778 173.3 50.2274 173.44 50.1877 173.57C50.1183 173.82 49.8107 173.89 49.5527 173.9Z" fill="#F07371"/>
</g>
<path d="M99.6113 285.18C98.9433 285.18 98.3533 285.042 97.8413 284.766C97.3293 284.49 96.9273 284.104 96.6353 283.608C96.3473 283.108 96.2033 282.522 96.2033 281.85V276.366L97.2833 276.36V281.76C97.2833 282.304 97.4013 282.756 97.6373 283.116C97.8733 283.472 98.1693 283.738 98.5253 283.914C98.8853 284.086 99.2473 284.172 99.6113 284.172C99.9793 284.172 100.341 284.084 100.697 283.908C101.057 283.732 101.353 283.466 101.585 283.11C101.821 282.75 101.939 282.3 101.939 281.76V276.36H103.019V281.85C103.019 282.518 102.873 283.102 102.581 283.602C102.293 284.102 101.893 284.49 101.381 284.766C100.869 285.042 100.279 285.18 99.6113 285.18ZM103.979 285L106.949 280.626L104.057 276.36H105.359L107.597 279.726L109.829 276.36H111.137L108.245 280.626L111.209 285H109.907L107.597 281.532L105.287 285H103.979ZM114.567 285V276.36H117.981C118.065 276.36 118.163 276.364 118.275 276.372C118.391 276.376 118.505 276.388 118.617 276.408C119.317 276.516 119.847 276.804 120.207 277.272C120.571 277.736 120.753 278.29 120.753 278.934C120.753 279.282 120.687 279.62 120.555 279.948C120.423 280.272 120.227 280.56 119.967 280.812C119.711 281.06 119.395 281.244 119.019 281.364L120.903 285H119.679L117.873 281.508H115.635V285H114.567ZM115.635 280.494H117.945C118.021 280.494 118.107 280.492 118.203 280.488C118.303 280.484 118.397 280.468 118.485 280.44C118.901 280.316 119.201 280.114 119.385 279.834C119.569 279.55 119.661 279.25 119.661 278.934C119.661 278.618 119.569 278.312 119.385 278.016C119.201 277.716 118.901 277.52 118.485 277.428C118.397 277.408 118.303 277.394 118.203 277.386C118.107 277.378 118.021 277.374 117.945 277.374H115.635V280.494ZM122.254 285V276.36H127.714V277.374H123.322V280.08H126.994V281.094H123.322V283.986H127.714V285H122.254ZM131.988 285.18C131.376 285.18 130.824 285.076 130.332 284.868C129.844 284.66 129.44 284.364 129.12 283.98C128.804 283.592 128.598 283.134 128.502 282.606L129.606 282.432C129.746 282.976 130.036 283.402 130.476 283.71C130.916 284.014 131.438 284.166 132.042 284.166C132.43 284.166 132.78 284.106 133.092 283.986C133.404 283.862 133.652 283.686 133.836 283.458C134.024 283.23 134.118 282.96 134.118 282.648C134.118 282.268 133.994 281.986 133.746 281.802C133.498 281.614 133.22 281.474 132.912 281.382L130.71 280.728C130.39 280.632 130.086 280.502 129.798 280.338C129.514 280.17 129.282 279.946 129.102 279.666C128.926 279.386 128.838 279.034 128.838 278.61C128.838 278.098 128.97 277.662 129.234 277.302C129.498 276.938 129.858 276.66 130.314 276.468C130.774 276.276 131.29 276.182 131.862 276.186C132.734 276.19 133.462 276.416 134.046 276.864C134.634 277.308 135.008 277.924 135.168 278.712L134.034 278.91C133.946 278.386 133.696 277.972 133.284 277.668C132.876 277.36 132.398 277.204 131.85 277.2C131.498 277.196 131.178 277.252 130.89 277.368C130.606 277.484 130.38 277.646 130.212 277.854C130.048 278.058 129.966 278.294 129.966 278.562C129.966 278.826 130.04 279.04 130.188 279.204C130.34 279.364 130.528 279.492 130.752 279.588C130.976 279.68 131.194 279.756 131.406 279.816L133.05 280.29C133.238 280.342 133.454 280.414 133.698 280.506C133.946 280.598 134.186 280.728 134.418 280.896C134.65 281.06 134.842 281.28 134.994 281.556C135.146 281.828 135.222 282.172 135.222 282.588C135.222 283.144 135.076 283.616 134.784 284.004C134.496 284.388 134.108 284.68 133.62 284.88C133.132 285.08 132.588 285.18 131.988 285.18ZM136.481 285V276.36H141.941V277.374H137.549V280.08H141.221V281.094H137.549V283.986H141.941V285H136.481ZM142.783 285L145.675 276.36H147.163L150.055 285H148.945L148.261 282.978H144.571L143.893 285H142.783ZM144.907 281.976H147.925L146.407 277.482L144.907 281.976ZM151.129 285V276.36H154.543C154.627 276.36 154.725 276.364 154.837 276.372C154.953 276.376 155.067 276.388 155.179 276.408C155.879 276.516 156.409 276.804 156.769 277.272C157.133 277.736 157.315 278.29 157.315 278.934C157.315 279.282 157.249 279.62 157.117 279.948C156.985 280.272 156.789 280.56 156.529 280.812C156.273 281.06 155.957 281.244 155.581 281.364L157.465 285H156.241L154.435 281.508H152.197V285H151.129ZM152.197 280.494H154.507C154.583 280.494 154.669 280.492 154.765 280.488C154.865 280.484 154.959 280.468 155.047 280.44C155.463 280.316 155.763 280.114 155.947 279.834C156.131 279.55 156.223 279.25 156.223 278.934C156.223 278.618 156.131 278.312 155.947 278.016C155.763 277.716 155.463 277.52 155.047 277.428C154.959 277.408 154.865 277.394 154.765 277.386C154.669 277.378 154.583 277.374 154.507 277.374H152.197V280.494ZM162.193 285.18C161.333 285.18 160.601 284.99 159.997 284.61C159.397 284.23 158.941 283.702 158.629 283.026C158.317 282.35 158.161 281.568 158.161 280.68C158.161 279.792 158.317 279.01 158.629 278.334C158.941 277.658 159.397 277.13 159.997 276.75C160.601 276.37 161.333 276.18 162.193 276.18C163.193 276.18 164.015 276.434 164.659 276.942C165.307 277.45 165.753 278.134 165.997 278.994L164.911 279.282C164.735 278.638 164.419 278.13 163.963 277.758C163.511 277.386 162.921 277.2 162.193 277.2C161.549 277.2 161.013 277.346 160.585 277.638C160.157 277.93 159.835 278.338 159.619 278.862C159.403 279.382 159.293 279.988 159.289 280.68C159.285 281.368 159.391 281.974 159.607 282.498C159.823 283.022 160.147 283.43 160.579 283.722C161.011 284.014 161.549 284.16 162.193 284.16C162.921 284.16 163.511 283.974 163.963 283.602C164.419 283.226 164.735 282.718 164.911 282.078L165.997 282.366C165.753 283.222 165.307 283.906 164.659 284.418C164.015 284.926 163.193 285.18 162.193 285.18ZM167.313 285V276.36H168.381V280.17H172.929V276.36H173.997V285H172.929V281.184H168.381V285H167.313ZM181.634 285.18C180.774 285.18 180.042 284.99 179.438 284.61C178.838 284.23 178.382 283.702 178.07 283.026C177.758 282.35 177.602 281.568 177.602 280.68C177.602 279.792 177.758 279.01 178.07 278.334C178.382 277.658 178.838 277.13 179.438 276.75C180.042 276.37 180.774 276.18 181.634 276.18C182.634 276.18 183.456 276.434 184.1 276.942C184.748 277.45 185.194 278.134 185.438 278.994L184.352 279.282C184.176 278.638 183.86 278.13 183.404 277.758C182.952 277.386 182.362 277.2 181.634 277.2C180.99 277.2 180.454 277.346 180.026 277.638C179.598 277.93 179.276 278.338 179.06 278.862C178.844 279.382 178.734 279.988 178.73 280.68C178.726 281.368 178.832 281.974 179.048 282.498C179.264 283.022 179.588 283.43 180.02 283.722C180.452 284.014 180.99 284.16 181.634 284.16C182.362 284.16 182.952 283.974 183.404 283.602C183.86 283.226 184.176 282.718 184.352 282.078L185.438 282.366C185.194 283.222 184.748 283.906 184.1 284.418C183.456 284.926 182.634 285.18 181.634 285.18ZM185.92 285L188.812 276.36H190.3L193.192 285H192.082L191.398 282.978H187.708L187.03 285H185.92ZM188.044 281.976H191.062L189.544 277.482L188.044 281.976ZM197.097 285.18C196.485 285.18 195.933 285.076 195.441 284.868C194.953 284.66 194.549 284.364 194.229 283.98C193.913 283.592 193.707 283.134 193.611 282.606L194.715 282.432C194.855 282.976 195.145 283.402 195.585 283.71C196.025 284.014 196.547 284.166 197.151 284.166C197.539 284.166 197.889 284.106 198.201 283.986C198.513 283.862 198.761 283.686 198.945 283.458C199.133 283.23 199.227 282.96 199.227 282.648C199.227 282.268 199.103 281.986 198.855 281.802C198.607 281.614 198.329 281.474 198.021 281.382L195.819 280.728C195.499 280.632 195.195 280.502 194.907 280.338C194.623 280.17 194.391 279.946 194.211 279.666C194.035 279.386 193.947 279.034 193.947 278.61C193.947 278.098 194.079 277.662 194.343 277.302C194.607 276.938 194.967 276.66 195.423 276.468C195.883 276.276 196.399 276.182 196.971 276.186C197.843 276.19 198.571 276.416 199.155 276.864C199.743 277.308 200.117 277.924 200.277 278.712L199.143 278.91C199.055 278.386 198.805 277.972 198.393 277.668C197.985 277.36 197.507 277.204 196.959 277.2C196.607 277.196 196.287 277.252 195.999 277.368C195.715 277.484 195.489 277.646 195.321 277.854C195.157 278.058 195.075 278.294 195.075 278.562C195.075 278.826 195.149 279.04 195.297 279.204C195.449 279.364 195.637 279.492 195.861 279.588C196.085 279.68 196.303 279.756 196.515 279.816L198.159 280.29C198.347 280.342 198.563 280.414 198.807 280.506C199.055 280.598 199.295 280.728 199.527 280.896C199.759 281.06 199.951 281.28 200.103 281.556C200.255 281.828 200.331 282.172 200.331 282.588C200.331 283.144 200.185 283.616 199.893 284.004C199.605 284.388 199.217 284.68 198.729 284.88C198.241 285.08 197.697 285.18 197.097 285.18ZM201.59 285V276.36H207.05V277.374H202.658V280.08H206.33V281.094H202.658V283.986H207.05V285H201.59ZM213.961 285.18C213.349 285.18 212.797 285.076 212.305 284.868C211.817 284.66 211.413 284.364 211.093 283.98C210.777 283.592 210.571 283.134 210.475 282.606L211.579 282.432C211.719 282.976 212.009 283.402 212.449 283.71C212.889 284.014 213.411 284.166 214.015 284.166C214.403 284.166 214.753 284.106 215.065 283.986C215.377 283.862 215.625 283.686 215.809 283.458C215.997 283.23 216.091 282.96 216.091 282.648C216.091 282.268 215.967 281.986 215.719 281.802C215.471 281.614 215.193 281.474 214.885 281.382L212.683 280.728C212.363 280.632 212.059 280.502 211.771 280.338C211.487 280.17 211.255 279.946 211.075 279.666C210.899 279.386 210.811 279.034 210.811 278.61C210.811 278.098 210.943 277.662 211.207 277.302C211.471 276.938 211.831 276.66 212.287 276.468C212.747 276.276 213.263 276.182 213.835 276.186C214.707 276.19 215.435 276.416 216.019 276.864C216.607 277.308 216.981 277.924 217.141 278.712L216.007 278.91C215.919 278.386 215.669 277.972 215.257 277.668C214.849 277.36 214.371 277.204 213.823 277.2C213.471 277.196 213.151 277.252 212.863 277.368C212.579 277.484 212.353 277.646 212.185 277.854C212.021 278.058 211.939 278.294 211.939 278.562C211.939 278.826 212.013 279.04 212.161 279.204C212.313 279.364 212.501 279.492 212.725 279.588C212.949 279.68 213.167 279.756 213.379 279.816L215.023 280.29C215.211 280.342 215.427 280.414 215.671 280.506C215.919 280.598 216.159 280.728 216.391 280.896C216.623 281.06 216.815 281.28 216.967 281.556C217.119 281.828 217.195 282.172 217.195 282.588C217.195 283.144 217.049 283.616 216.757 284.004C216.469 284.388 216.081 284.68 215.593 284.88C215.105 285.08 214.561 285.18 213.961 285.18ZM220.679 285V277.374H217.733V276.36H224.693V277.374H221.747V285H220.679ZM229.057 285.18C228.389 285.18 227.799 285.042 227.287 284.766C226.775 284.49 226.373 284.104 226.081 283.608C225.793 283.108 225.649 282.522 225.649 281.85V276.366L226.729 276.36V281.76C226.729 282.304 226.847 282.756 227.083 283.116C227.319 283.472 227.615 283.738 227.971 283.914C228.331 284.086 228.693 284.172 229.057 284.172C229.425 284.172 229.787 284.084 230.143 283.908C230.503 283.732 230.799 283.466 231.031 283.11C231.267 282.75 231.385 282.3 231.385 281.76V276.36H232.465V281.85C232.465 282.518 232.319 283.102 232.027 283.602C231.739 284.102 231.339 284.49 230.827 284.766C230.315 285.042 229.725 285.18 229.057 285.18ZM234.145 285V276.36H236.809C236.893 276.36 237.045 276.362 237.265 276.366C237.485 276.37 237.697 276.386 237.901 276.414C238.569 276.502 239.127 276.746 239.575 277.146C240.027 277.542 240.367 278.046 240.595 278.658C240.823 279.27 240.937 279.944 240.937 280.68C240.937 281.416 240.823 282.092 240.595 282.708C240.367 283.32 240.027 283.824 239.575 284.22C239.127 284.616 238.569 284.858 237.901 284.946C237.701 284.974 237.489 284.99 237.265 284.994C237.041 284.998 236.889 285 236.809 285H234.145ZM235.243 283.98H236.809C236.961 283.98 237.131 283.976 237.319 283.968C237.507 283.96 237.671 283.942 237.811 283.914C238.283 283.826 238.665 283.628 238.957 283.32C239.249 283.012 239.463 282.628 239.599 282.168C239.735 281.708 239.803 281.212 239.803 280.68C239.803 280.136 239.733 279.636 239.593 279.18C239.457 278.72 239.243 278.338 238.951 278.034C238.659 277.726 238.279 277.53 237.811 277.446C237.671 277.418 237.505 277.4 237.313 277.392C237.121 277.384 236.953 277.38 236.809 277.38H235.243V283.98ZM244.019 285V281.406L241.109 276.36H242.351L244.559 280.182L246.761 276.36H248.003L245.099 281.406V285H244.019Z" fill="#F7F5F5"/>
<path d="M11.1141 320V310.64H14.8256C15.4583 310.64 15.9783 310.768 16.3856 311.023C16.7929 311.275 17.0941 311.598 17.2891 311.992C17.4841 312.386 17.5816 312.794 17.5816 313.214C17.5816 313.639 17.4993 314.011 17.3346 314.332C17.1699 314.648 16.9403 314.893 16.6456 315.066C17.0963 315.257 17.4364 315.545 17.6661 315.931C17.9001 316.317 18.0171 316.746 18.0171 317.218C18.0171 318.05 17.7788 318.722 17.3021 319.233C16.8254 319.744 16.1256 320 15.2026 320H11.1141ZM12.7001 314.377H14.8061C15.1398 314.377 15.4193 314.282 15.6446 314.091C15.8743 313.896 15.9891 313.613 15.9891 313.24C15.9891 312.915 15.8829 312.644 15.6706 312.427C15.4626 312.211 15.1744 312.102 14.8061 312.102H12.7001V314.377ZM12.7001 318.524H15.0076C15.4193 318.524 15.7594 318.403 16.0281 318.16C16.3011 317.918 16.4376 317.588 16.4376 317.172C16.4376 316.795 16.3163 316.479 16.0736 316.223C15.8309 315.968 15.4908 315.84 15.0531 315.84H12.7001V318.524ZM19.3153 320V310.64H25.3603V312.109H20.8818V314.416H24.5803V315.885H20.8818V318.531H25.3603V320H19.3153ZM26.9198 320V310.64H28.4863V314.579H32.9193V310.64H34.4793V320H32.9193V316.048H28.4863V320H26.9198ZM35.6516 320L38.6026 310.64H40.8971L43.8481 320H42.2361L41.5861 317.972H37.9071L37.2636 320H35.6516ZM38.3621 316.509H41.1246L39.7336 312.148L38.3621 316.509ZM46.2152 320L43.2642 310.64H44.8762L47.3462 318.479L49.8487 310.64H51.4607L48.5097 320H46.2152ZM52.5673 320V310.64H54.1338V320H52.5673ZM60.0394 320.195C59.1077 320.195 58.3061 319.991 57.6344 319.584C56.9671 319.172 56.4536 318.6 56.0939 317.868C55.7386 317.136 55.5609 316.286 55.5609 315.32C55.5609 314.354 55.7386 313.504 56.0939 312.772C56.4536 312.04 56.9671 311.47 57.6344 311.062C58.3061 310.651 59.1077 310.445 60.0394 310.445C60.9754 310.445 61.7771 310.651 62.4444 311.062C63.1161 311.47 63.6296 312.04 63.9849 312.772C64.3446 313.504 64.5244 314.354 64.5244 315.32C64.5244 316.286 64.3446 317.136 63.9849 317.868C63.6296 318.6 63.1161 319.172 62.4444 319.584C61.7771 319.991 60.9754 320.195 60.0394 320.195ZM60.0394 318.719C60.6677 318.724 61.1899 318.585 61.6059 318.303C62.0262 318.022 62.3404 317.625 62.5484 317.114C62.7607 316.598 62.8669 316 62.8669 315.32C62.8669 314.297 62.6307 313.478 62.1584 312.863C61.6904 312.248 60.9841 311.933 60.0394 311.92C59.4111 311.916 58.8889 312.055 58.4729 312.336C58.0569 312.618 57.7427 313.015 57.5304 313.526C57.3224 314.037 57.2184 314.635 57.2184 315.32C57.2184 316.343 57.4524 317.162 57.9204 317.777C58.3927 318.392 59.0991 318.706 60.0394 318.719ZM69.5882 320.195C68.8429 320.195 68.1864 320.043 67.6187 319.74C67.0554 319.437 66.6134 319.01 66.2927 318.459C65.9764 317.909 65.8182 317.263 65.8182 316.522V310.653L67.4042 310.64V316.483C67.4042 316.951 67.506 317.354 67.7097 317.692C67.9177 318.026 68.1864 318.282 68.5157 318.459C68.8494 318.633 69.2069 318.719 69.5882 318.719C69.9739 318.719 70.3314 318.631 70.6607 318.453C70.9944 318.271 71.263 318.013 71.4667 317.679C71.6704 317.346 71.7722 316.947 71.7722 316.483V310.64H73.3582V316.522C73.3582 317.263 73.1979 317.909 72.8772 318.459C72.5609 319.01 72.1189 319.437 71.5512 319.74C70.9879 320.043 70.3335 320.195 69.5882 320.195ZM75.1746 320V310.64H79.0421C79.1331 310.64 79.2501 310.644 79.3931 310.653C79.5361 310.657 79.6683 310.67 79.7896 310.692C80.6043 310.818 81.2045 311.14 81.5901 311.66C81.9801 312.18 82.1751 312.809 82.1751 313.545C82.1751 313.905 82.1101 314.263 81.9801 314.618C81.8501 314.973 81.6551 315.294 81.3951 315.58C81.1351 315.866 80.8058 316.085 80.4071 316.236L82.3571 320H80.5826L78.7431 316.451H76.7411V320H75.1746ZM76.7411 314.982H78.9771C79.0638 314.982 79.1613 314.982 79.2696 314.982C79.3823 314.978 79.482 314.958 79.5686 314.923C79.9586 314.767 80.2273 314.564 80.3746 314.312C80.522 314.061 80.5956 313.805 80.5956 313.545C80.5956 313.285 80.522 313.017 80.3746 312.739C80.2273 312.458 79.9586 312.267 79.5686 312.167C79.4776 312.146 79.378 312.131 79.2696 312.122C79.1613 312.113 79.0638 312.109 78.9771 312.109H76.7411V314.982ZM83.1067 320L86.0577 310.64H88.3522L91.3032 320H89.6912L89.0412 317.972H85.3622L84.7187 320H83.1067ZM85.8172 316.509H88.5797L87.1887 312.148L85.8172 316.509ZM92.6084 320V310.64H94.1749V318.531H98.3089V320H92.6084ZM101.365 320V310.64H105.233C105.324 310.64 105.441 310.644 105.584 310.653C105.727 310.657 105.859 310.67 105.98 310.692C106.795 310.818 107.395 311.156 107.781 311.706C108.171 312.252 108.366 312.913 108.366 313.688C108.366 314.46 108.168 315.121 107.774 315.671C107.384 316.217 106.786 316.553 105.98 316.678C105.859 316.7 105.724 316.715 105.577 316.724C105.434 316.728 105.319 316.73 105.233 316.73H102.932V320H101.365ZM102.932 315.268H105.168C105.254 315.268 105.352 315.264 105.46 315.255C105.568 315.246 105.668 315.229 105.759 315.203C106.019 315.138 106.223 315.023 106.37 314.858C106.522 314.694 106.628 314.507 106.689 314.299C106.754 314.091 106.786 313.888 106.786 313.688C106.786 313.489 106.754 313.285 106.689 313.077C106.628 312.865 106.522 312.677 106.37 312.512C106.223 312.347 106.019 312.232 105.759 312.167C105.668 312.146 105.568 312.131 105.46 312.122C105.352 312.113 105.254 312.109 105.168 312.109H102.932V315.268ZM108.37 320L111.321 310.64H113.616L116.567 320H114.955L114.305 317.972H110.626L109.982 320H108.37ZM111.081 316.509H113.843L112.452 312.148L111.081 316.509ZM119.217 320V312.109H116.188V310.64H123.812V312.109H120.783V320H119.217ZM127.875 320V312.109H124.846V310.64H132.47V312.109H129.441V320H127.875ZM133.51 320V310.64H139.555V312.109H135.076V314.416H138.775V315.885H135.076V318.531H139.555V320H133.51ZM141.114 320V310.64H144.982C145.073 310.64 145.19 310.644 145.333 310.653C145.476 310.657 145.608 310.67 145.729 310.692C146.544 310.818 147.144 311.14 147.53 311.66C147.92 312.18 148.115 312.809 148.115 313.545C148.115 313.905 148.05 314.263 147.92 314.618C147.79 314.973 147.595 315.294 147.335 315.58C147.075 315.866 146.745 316.085 146.347 316.236L148.297 320H146.522L144.683 316.451H142.681V320H141.114ZM142.681 314.982H144.917C145.003 314.982 145.101 314.982 145.209 314.982C145.322 314.978 145.421 314.958 145.508 314.923C145.898 314.767 146.167 314.564 146.314 314.312C146.461 314.061 146.535 313.805 146.535 313.545C146.535 313.285 146.461 313.017 146.314 312.739C146.167 312.458 145.898 312.267 145.508 312.167C145.417 312.146 145.317 312.131 145.209 312.122C145.101 312.113 145.003 312.109 144.917 312.109H142.681V314.982ZM149.696 320V310.64H151.282L155.624 317.237V310.64H157.21V320H155.624L151.282 313.402V320H149.696ZM162.492 320.195C161.807 320.195 161.19 320.076 160.639 319.837C160.093 319.599 159.643 319.259 159.287 318.817C158.936 318.371 158.713 317.842 158.618 317.231L160.243 316.984C160.381 317.539 160.665 317.968 161.094 318.271C161.528 318.574 162.026 318.726 162.589 318.726C162.923 318.726 163.237 318.674 163.532 318.57C163.826 318.466 164.065 318.314 164.247 318.115C164.433 317.911 164.526 317.666 164.526 317.38C164.526 316.873 164.18 316.514 163.486 316.301L161.068 315.586C160.86 315.526 160.635 315.446 160.392 315.346C160.154 315.242 159.926 315.101 159.71 314.923C159.497 314.741 159.322 314.512 159.183 314.234C159.049 313.953 158.982 313.606 158.982 313.194C158.982 312.592 159.133 312.087 159.437 311.68C159.744 311.273 160.156 310.967 160.672 310.763C161.192 310.555 161.768 310.454 162.401 310.458C163.363 310.467 164.167 310.709 164.812 311.186C165.458 311.658 165.885 312.328 166.093 313.194L164.409 313.487C164.305 312.993 164.06 312.612 163.675 312.343C163.293 312.074 162.862 311.933 162.381 311.92C162.069 311.916 161.779 311.964 161.51 312.063C161.246 312.159 161.031 312.297 160.867 312.479C160.706 312.661 160.626 312.874 160.626 313.116C160.626 313.346 160.696 313.535 160.834 313.682C160.973 313.825 161.146 313.94 161.354 314.026C161.562 314.109 161.77 314.178 161.978 314.234L163.655 314.702C163.885 314.763 164.143 314.845 164.429 314.949C164.715 315.053 164.99 315.199 165.254 315.385C165.519 315.571 165.735 315.818 165.904 316.126C166.078 316.429 166.164 316.813 166.164 317.276C166.164 317.926 165.991 318.468 165.644 318.901C165.302 319.33 164.851 319.653 164.292 319.87C163.733 320.087 163.133 320.195 162.492 320.195ZM169.524 320L172.475 310.64H174.769L177.72 320H176.108L175.458 317.972H171.779L171.136 320H169.524ZM172.234 316.509H174.997L173.606 312.148L172.234 316.509ZM178.895 320V310.64H180.481L184.823 317.237V310.64H186.409V320H184.823L180.481 313.402V320H178.895ZM188.226 320V310.64H191.21C191.288 310.64 191.442 310.642 191.671 310.646C191.905 310.651 192.131 310.666 192.347 310.692C193.093 310.787 193.721 311.052 194.232 311.485C194.744 311.914 195.132 312.462 195.396 313.129C195.66 313.797 195.792 314.527 195.792 315.32C195.792 316.113 195.66 316.843 195.396 317.51C195.132 318.178 194.744 318.728 194.232 319.161C193.721 319.59 193.093 319.853 192.347 319.948C192.131 319.974 191.905 319.989 191.671 319.993C191.437 319.998 191.284 320 191.21 320H188.226ZM189.819 318.524H191.21C191.34 318.524 191.505 318.522 191.704 318.518C191.908 318.509 192.087 318.488 192.243 318.453C192.685 318.366 193.045 318.169 193.322 317.861C193.604 317.549 193.81 317.17 193.94 316.724C194.07 316.278 194.135 315.81 194.135 315.32C194.135 314.813 194.068 314.336 193.933 313.89C193.799 313.444 193.591 313.069 193.309 312.765C193.032 312.462 192.677 312.269 192.243 312.187C192.087 312.152 191.908 312.133 191.704 312.128C191.505 312.12 191.34 312.115 191.21 312.115H189.819V318.524ZM199.931 320V310.64H201.498V314.579H205.931V310.64H207.491V320H205.931V316.048H201.498V320H199.931ZM208.663 320L211.614 310.64H213.909L216.86 320H215.248L214.598 317.972H210.919L210.275 320H208.663ZM211.374 316.509H214.136L212.745 312.148L211.374 316.509ZM218.035 320V310.64H221.747C222.379 310.64 222.899 310.768 223.307 311.023C223.714 311.275 224.015 311.598 224.21 311.992C224.405 312.386 224.503 312.794 224.503 313.214C224.503 313.639 224.42 314.011 224.256 314.332C224.091 314.648 223.861 314.893 223.567 315.066C224.017 315.257 224.357 315.545 224.587 315.931C224.821 316.317 224.938 316.746 224.938 317.218C224.938 318.05 224.7 318.722 224.223 319.233C223.746 319.744 223.047 320 222.124 320H218.035ZM219.621 314.377H221.727C222.061 314.377 222.34 314.282 222.566 314.091C222.795 313.896 222.91 313.613 222.91 313.24C222.91 312.915 222.804 312.644 222.592 312.427C222.384 312.211 222.095 312.102 221.727 312.102H219.621V314.377ZM219.621 318.524H221.929C222.34 318.524 222.68 318.403 222.949 318.16C223.222 317.918 223.359 317.588 223.359 317.172C223.359 316.795 223.237 316.479 222.995 316.223C222.752 315.968 222.412 315.84 221.974 315.84H219.621V318.524ZM226.366 320V310.64H227.933V320H226.366ZM232.129 320V312.109H229.1V310.64H236.724V312.109H233.695V320H232.129ZM241.228 320.195C240.543 320.195 239.926 320.076 239.376 319.837C238.83 319.599 238.379 319.259 238.024 318.817C237.673 318.371 237.449 317.842 237.354 317.231L238.979 316.984C239.118 317.539 239.402 317.968 239.831 318.271C240.264 318.574 240.762 318.726 241.326 318.726C241.659 318.726 241.973 318.674 242.268 318.57C242.563 318.466 242.801 318.314 242.983 318.115C243.169 317.911 243.263 317.666 243.263 317.38C243.263 316.873 242.916 316.514 242.223 316.301L239.805 315.586C239.597 315.526 239.371 315.446 239.129 315.346C238.89 315.242 238.663 315.101 238.446 314.923C238.234 314.741 238.058 314.512 237.92 314.234C237.785 313.953 237.718 313.606 237.718 313.194C237.718 312.592 237.87 312.087 238.173 311.68C238.481 311.273 238.892 310.967 239.408 310.763C239.928 310.555 240.504 310.454 241.137 310.458C242.099 310.467 242.903 310.709 243.549 311.186C244.194 311.658 244.621 312.328 244.829 313.194L243.146 313.487C243.042 312.993 242.797 312.612 242.411 312.343C242.03 312.074 241.599 311.933 241.118 311.92C240.806 311.916 240.515 311.964 240.247 312.063C239.982 312.159 239.768 312.297 239.603 312.479C239.443 312.661 239.363 312.874 239.363 313.116C239.363 313.346 239.432 313.535 239.571 313.682C239.709 313.825 239.883 313.94 240.091 314.026C240.299 314.109 240.507 314.178 240.715 314.234L242.392 314.702C242.621 314.763 242.879 314.845 243.165 314.949C243.451 315.053 243.726 315.199 243.991 315.385C244.255 315.571 244.472 315.818 244.641 316.126C244.814 316.429 244.901 316.813 244.901 317.276C244.901 317.926 244.727 318.468 244.381 318.901C244.038 319.33 243.588 319.653 243.029 319.87C242.47 320.087 241.869 320.195 241.228 320.195ZM14.5647 338L17.5157 328.64H19.8102L22.7612 338H21.1492L20.4992 335.972H16.8202L16.1767 338H14.5647ZM17.2752 334.509H20.0377L18.6467 330.148L17.2752 334.509ZM23.9364 338V328.64H25.5224L29.8644 335.237V328.64H31.4504V338H29.8644L25.5224 331.402V338H23.9364ZM33.2674 338V328.64H36.2509C36.3289 328.64 36.4828 328.642 36.7124 328.646C36.9464 328.651 37.1718 328.666 37.3884 328.692C38.1338 328.787 38.7621 329.052 39.2734 329.485C39.7848 329.914 40.1726 330.462 40.4369 331.129C40.7013 331.797 40.8334 332.527 40.8334 333.32C40.8334 334.113 40.7013 334.843 40.4369 335.51C40.1726 336.178 39.7848 336.728 39.2734 337.161C38.7621 337.59 38.1338 337.853 37.3884 337.948C37.1718 337.974 36.9464 337.989 36.7124 337.993C36.4784 337.998 36.3246 338 36.2509 338H33.2674ZM34.8599 336.524H36.2509C36.3809 336.524 36.5456 336.522 36.7449 336.518C36.9486 336.509 37.1284 336.488 37.2844 336.453C37.7264 336.366 38.0861 336.169 38.3634 335.861C38.6451 335.549 38.8509 335.17 38.9809 334.724C39.1109 334.278 39.1759 333.81 39.1759 333.32C39.1759 332.813 39.1088 332.336 38.9744 331.89C38.8401 331.444 38.6321 331.069 38.3504 330.765C38.0731 330.462 37.7178 330.269 37.2844 330.187C37.1284 330.152 36.9486 330.133 36.7449 330.128C36.5456 330.12 36.3809 330.115 36.2509 330.115H34.8599V336.524ZM44.9725 338V328.64H46.539V332.579H50.972V328.64H52.532V338H50.972V334.048H46.539V338H44.9725ZM58.3128 338.195C57.3812 338.195 56.5795 337.991 55.9078 337.584C55.2405 337.172 54.727 336.6 54.3673 335.868C54.012 335.136 53.8343 334.286 53.8343 333.32C53.8343 332.354 54.012 331.504 54.3673 330.772C54.727 330.04 55.2405 329.47 55.9078 329.062C56.5795 328.651 57.3812 328.445 58.3128 328.445C59.2488 328.445 60.0505 328.651 60.7178 329.062C61.3895 329.47 61.903 330.04 62.2583 330.772C62.618 331.504 62.7978 332.354 62.7978 333.32C62.7978 334.286 62.618 335.136 62.2583 335.868C61.903 336.6 61.3895 337.172 60.7178 337.584C60.0505 337.991 59.2488 338.195 58.3128 338.195ZM58.3128 336.719C58.9412 336.724 59.4633 336.585 59.8793 336.303C60.2997 336.022 60.6138 335.625 60.8218 335.114C61.0342 334.598 61.1403 334 61.1403 333.32C61.1403 332.297 60.9042 331.478 60.4318 330.863C59.9638 330.248 59.2575 329.933 58.3128 329.92C57.6845 329.916 57.1623 330.055 56.7463 330.336C56.3303 330.618 56.0162 331.015 55.8038 331.526C55.5958 332.037 55.4918 332.635 55.4918 333.32C55.4918 334.343 55.7258 335.162 56.1938 335.777C56.6662 336.392 57.3725 336.706 58.3128 336.719ZM65.6741 338L62.9376 328.64H64.5821L66.4476 335.4L68.3066 328.653L69.9511 328.64L71.8166 335.4L73.6756 328.64H75.3201L72.5901 338H71.0431L69.1321 331.344L67.2211 338H65.6741ZM80.9592 338L78.2227 328.64H79.8672L81.7327 335.4L83.5917 328.653L85.2362 328.64L87.1017 335.4L88.9607 328.64H90.6052L87.8752 338H86.3282L84.4172 331.344L82.5062 338H80.9592ZM91.6659 338V328.64H97.7109V330.109H93.2324V332.416H96.9309V333.885H93.2324V336.531H97.7109V338H91.6659ZM101.223 338L104.174 328.64H106.468L109.419 338H107.807L107.157 335.972H103.478L102.835 338H101.223ZM103.933 334.509H106.696L105.305 330.148L103.933 334.509ZM110.595 338V328.64H114.306C114.939 328.64 115.459 328.768 115.866 329.023C116.273 329.275 116.575 329.598 116.77 329.992C116.965 330.386 117.062 330.794 117.062 331.214C117.062 331.639 116.98 332.011 116.815 332.332C116.65 332.648 116.421 332.893 116.126 333.066C116.577 333.257 116.917 333.545 117.147 333.931C117.381 334.317 117.498 334.746 117.498 335.218C117.498 336.05 117.259 336.722 116.783 337.233C116.306 337.744 115.606 338 114.683 338H110.595ZM112.181 332.377H114.287C114.62 332.377 114.9 332.282 115.125 332.091C115.355 331.896 115.47 331.613 115.47 331.24C115.47 330.915 115.363 330.644 115.151 330.427C114.943 330.211 114.655 330.102 114.287 330.102H112.181V332.377ZM112.181 336.524H114.488C114.9 336.524 115.24 336.403 115.509 336.16C115.782 335.918 115.918 335.588 115.918 335.172C115.918 334.795 115.797 334.479 115.554 334.223C115.311 333.968 114.971 333.84 114.534 333.84H112.181V336.524ZM118.926 338V328.64H120.492V336.531H124.626V338H118.926ZM125.727 338V328.64H131.772V330.109H127.294V332.416H130.992V333.885H127.294V336.531H131.772V338H125.727ZM138.183 338V330.109H135.154V328.64H142.779V330.109H139.75V338H138.183ZM147.777 338.195C146.845 338.195 146.043 337.991 145.372 337.584C144.704 337.172 144.191 336.6 143.831 335.868C143.476 335.136 143.298 334.286 143.298 333.32C143.298 332.354 143.476 331.504 143.831 330.772C144.191 330.04 144.704 329.47 145.372 329.062C146.043 328.651 146.845 328.445 147.777 328.445C148.713 328.445 149.514 328.651 150.182 329.062C150.853 329.47 151.367 330.04 151.722 330.772C152.082 331.504 152.262 332.354 152.262 333.32C152.262 334.286 152.082 335.136 151.722 335.868C151.367 336.6 150.853 337.172 150.182 337.584C149.514 337.991 148.713 338.195 147.777 338.195ZM147.777 336.719C148.405 336.724 148.927 336.585 149.343 336.303C149.764 336.022 150.078 335.625 150.286 335.114C150.498 334.598 150.604 334 150.604 333.32C150.604 332.297 150.368 331.478 149.896 330.863C149.428 330.248 148.721 329.933 147.777 329.92C147.148 329.916 146.626 330.055 146.21 330.336C145.794 330.618 145.48 331.015 145.268 331.526C145.06 332.037 144.956 332.635 144.956 333.32C144.956 334.343 145.19 335.162 145.658 335.777C146.13 336.392 146.836 336.706 147.777 336.719ZM160.117 338.195C159.185 338.195 158.383 337.991 157.712 337.584C157.044 337.172 156.531 336.6 156.171 335.868C155.816 335.136 155.638 334.286 155.638 333.32C155.638 332.354 155.816 331.504 156.171 330.772C156.531 330.04 157.044 329.47 157.712 329.062C158.383 328.651 159.185 328.445 160.117 328.445C161.196 328.445 162.095 328.716 162.814 329.257C163.533 329.795 164.038 330.521 164.329 331.435L162.749 331.87C162.567 331.264 162.257 330.787 161.82 330.44C161.382 330.094 160.814 329.92 160.117 329.92C159.176 329.92 158.47 330.232 157.998 330.856C157.525 331.476 157.287 332.297 157.283 333.32C157.283 334.343 157.519 335.166 157.991 335.79C158.468 336.41 159.176 336.719 160.117 336.719C160.814 336.719 161.382 336.546 161.82 336.199C162.257 335.853 162.567 335.376 162.749 334.769L164.329 335.205C164.038 336.119 163.533 336.847 162.814 337.389C162.095 337.926 161.196 338.195 160.117 338.195ZM165.756 338V328.64H167.322V332.579H171.755V328.64H173.315V338H171.755V334.048H167.322V338H165.756ZM174.488 338L177.439 328.64H179.733L182.684 338H181.072L180.422 335.972H176.743L176.1 338H174.488ZM177.198 334.509H179.961L178.57 330.148L177.198 334.509ZM183.859 338V328.64H185.445L189.787 335.237V328.64H191.373V338H189.787L185.445 331.402V338H183.859ZM197.051 338.195C196.241 338.195 195.504 338.006 194.841 337.629C194.178 337.248 193.65 336.696 193.255 335.972C192.865 335.244 192.67 334.36 192.67 333.32C192.67 332.297 192.861 331.424 193.242 330.7C193.628 329.972 194.15 329.416 194.809 329.03C195.472 328.64 196.219 328.445 197.051 328.445C198.204 328.445 199.103 328.703 199.749 329.218C200.394 329.73 200.836 330.419 201.075 331.286L199.482 331.539C199.305 331.075 199.027 330.692 198.65 330.388C198.273 330.085 197.773 329.931 197.149 329.927C196.52 329.918 195.998 330.055 195.582 330.336C195.166 330.618 194.852 331.015 194.64 331.526C194.432 332.037 194.328 332.635 194.328 333.32C194.328 334.343 194.562 335.162 195.03 335.777C195.502 336.392 196.208 336.706 197.149 336.719C197.855 336.728 198.429 336.533 198.871 336.134C199.313 335.731 199.595 335.127 199.716 334.321H197.37V333.092H201.38C201.389 333.162 201.395 333.264 201.4 333.398C201.404 333.532 201.406 333.612 201.406 333.638C201.406 334.522 201.231 335.309 200.88 335.998C200.533 336.683 200.035 337.22 199.385 337.61C198.735 338 197.957 338.195 197.051 338.195ZM202.712 338V328.64H208.757V330.109H204.278V332.416H207.977V333.885H204.278V336.531H208.757V338H202.712ZM215.168 338V330.109H212.139V328.64H219.763V330.109H216.734V338H215.168ZM220.803 338V328.64H222.369V332.579H226.802V328.64H228.362V338H226.802V334.048H222.369V338H220.803ZM230.184 338V328.64H236.229V330.109H231.751V332.416H235.449V333.885H231.751V336.531H236.229V338H230.184ZM237.789 338V328.64H239.199L242.436 335.27L245.673 328.64H247.084V338H245.621V332L242.748 338H242.124L239.258 332V338H237.789Z" fill="#383434"/>
<path d="M16 409L329 409" stroke="#383434" stroke-dasharray="2 2"/>
<path d="M313.942 323.281C313.838 323.186 313.716 323.112 313.584 323.064C313.452 323.016 313.311 322.995 313.171 323.001C313.03 323.007 312.892 323.041 312.764 323.101C312.637 323.16 312.522 323.245 312.427 323.348C312.236 323.558 312.135 323.836 312.148 324.119C312.154 324.26 312.188 324.398 312.247 324.526C312.307 324.653 312.391 324.768 312.495 324.863L325.714 336.931L296.072 336.931C295.787 336.931 295.515 337.044 295.314 337.245C295.113 337.446 295 337.718 295 338.003C295 338.287 295.113 338.559 295.314 338.76C295.515 338.961 295.787 339.074 296.072 339.074L325.708 339.074L312.495 351.136C312.391 351.231 312.307 351.346 312.247 351.473C312.187 351.6 312.153 351.738 312.147 351.879C312.14 352.02 312.161 352.16 312.209 352.292C312.257 352.425 312.33 352.546 312.425 352.65C312.52 352.754 312.635 352.839 312.762 352.899C312.889 352.958 313.027 352.992 313.168 352.999C313.309 353.005 313.449 352.984 313.581 352.936C313.714 352.888 313.836 352.815 313.94 352.72L328.762 339.188C328.948 339.018 329.091 338.807 329.18 338.572C329.27 338.337 329.303 338.084 329.276 337.833C329.236 337.442 329.053 337.079 328.762 336.813L313.942 323.281Z" fill="#383434" fill-opacity="0.71"/>
<rect x="-98" y="-168" width="813" height="982" fill="#F7F5F5" fill-opacity="0.2"/>
</g>
<defs>
<clipPath id="clip0_539_2427">
<rect width="350" height="420" fill="white"/>
</clipPath>
<clipPath id="clip1_539_2427">
<rect width="450" height="230" fill="white" transform="translate(-55 -30)"/>
</clipPath>
</defs>
</svg>
