<svg width="737" height="121" viewBox="0 0 737 121" fill="none" xmlns="http://www.w3.org/2000/svg">
<rect x="161.25" y="43.5" width="91" height="34" rx="17" fill="#2D4F8F"/>
<rect x="161.25" y="43.5" width="91" height="34" rx="17" stroke="#12223C"/>
<path d="M170.35 68V53.6H171.82V68H170.35ZM179.008 68.3C178.001 68.3 177.138 68.05 176.418 67.55C175.705 67.0433 175.158 66.36 174.778 65.5C174.405 64.64 174.218 63.67 174.218 62.59C174.218 61.5167 174.405 60.55 174.778 59.69C175.158 58.83 175.701 58.15 176.408 57.65C177.115 57.15 177.961 56.9 178.948 56.9C179.701 56.9 180.365 57.04 180.938 57.32C181.511 57.6 181.995 57.9867 182.388 58.48V53.6H183.868V68H182.548V66.5C182.155 67.06 181.661 67.5 181.068 67.82C180.481 68.14 179.795 68.3 179.008 68.3ZM179.158 66.93C179.925 66.93 180.558 66.7433 181.058 66.37C181.558 65.99 181.931 65.4733 182.178 64.82C182.425 64.1667 182.548 63.4233 182.548 62.59C182.548 61.3233 182.268 60.2867 181.708 59.48C181.155 58.6733 180.315 58.27 179.188 58.27C178.415 58.27 177.775 58.46 177.268 58.84C176.768 59.22 176.395 59.7367 176.148 60.39C175.901 61.0433 175.778 61.7767 175.778 62.59C175.778 63.41 175.901 64.1467 176.148 64.8C176.401 65.4533 176.778 65.9733 177.278 66.36C177.778 66.74 178.405 66.93 179.158 66.93ZM191.243 68.3C190.19 68.3 189.277 68.0667 188.503 67.6C187.73 67.1333 187.13 66.4767 186.703 65.63C186.283 64.7833 186.073 63.79 186.073 62.65C186.073 61.47 186.283 60.45 186.703 59.59C187.123 58.73 187.713 58.0667 188.473 57.6C189.24 57.1333 190.143 56.9 191.183 56.9C192.783 56.9 194.023 57.4433 194.903 58.53C195.79 59.61 196.207 61.1033 196.153 63.01H187.643C187.703 64.25 188.04 65.2067 188.653 65.88C189.267 66.5533 190.11 66.89 191.183 66.89C192.757 66.89 193.887 66.1967 194.573 64.81L195.943 65.34C195.517 66.28 194.887 67.01 194.053 67.53C193.227 68.0433 192.29 68.3 191.243 68.3ZM191.223 58.25C190.183 58.25 189.36 58.5567 188.753 59.17C188.147 59.7767 187.787 60.6467 187.673 61.78H194.613C194.38 59.4267 193.25 58.25 191.223 58.25ZM201.267 68.3C200.454 68.3 199.771 68.1533 199.217 67.86C198.671 67.5667 198.261 67.1767 197.987 66.69C197.714 66.2033 197.577 65.6733 197.577 65.1C197.577 64.2133 197.834 63.5233 198.347 63.03C198.861 62.53 199.521 62.1733 200.327 61.96C200.814 61.84 201.347 61.7333 201.927 61.64C202.507 61.5467 203.084 61.4633 203.657 61.39C204.237 61.3167 204.767 61.25 205.247 61.19C205.234 60.21 205.007 59.4833 204.567 59.01C204.127 58.53 203.394 58.29 202.367 58.29C201.627 58.29 201.001 58.4567 200.487 58.79C199.981 59.1233 199.624 59.65 199.417 60.37L197.987 59.95C198.234 58.9833 198.731 58.2333 199.477 57.7C200.224 57.1667 201.194 56.9 202.387 56.9C203.374 56.9 204.211 57.0867 204.897 57.46C205.591 57.8267 206.081 58.36 206.367 59.06C206.501 59.3733 206.587 59.7233 206.627 60.11C206.667 60.4967 206.687 60.89 206.687 61.29V68H205.377V66.22C204.524 67.6067 203.154 68.3 201.267 68.3ZM201.437 67.03C202.471 67.03 203.301 66.76 203.927 66.22C204.561 65.68 204.947 65.0033 205.087 64.19C205.147 63.9233 205.184 63.6333 205.197 63.32C205.217 63 205.227 62.7167 205.227 62.47C204.521 62.5567 203.774 62.65 202.987 62.75C202.201 62.85 201.511 62.98 200.917 63.14C200.457 63.2733 200.031 63.4867 199.637 63.78C199.244 64.0733 199.047 64.5133 199.047 65.1C199.047 65.4133 199.124 65.7167 199.277 66.01C199.437 66.3033 199.691 66.5467 200.037 66.74C200.391 66.9333 200.857 67.03 201.437 67.03ZM215.171 68C214.564 68.1267 213.964 68.1767 213.371 68.15C212.784 68.1233 212.257 67.9967 211.791 67.77C211.331 67.5433 210.981 67.19 210.741 66.71C210.547 66.3167 210.441 65.9133 210.421 65.5C210.407 65.0867 210.401 64.6167 210.401 64.09V58.46H208.091V57.2H210.401V54.2H211.861V57.2H215.171V58.46H211.861V64.03C211.861 64.4833 211.864 64.8633 211.871 65.17C211.884 65.47 211.954 65.7367 212.081 65.97C212.321 66.4167 212.701 66.6833 213.221 66.77C213.747 66.8567 214.397 66.8367 215.171 66.71V68ZM217.498 68V57.2H218.968V68H217.498ZM218.228 55.34C217.942 55.34 217.698 55.2433 217.498 55.05C217.305 54.85 217.208 54.61 217.208 54.33C217.208 54.0433 217.305 53.8033 217.498 53.61C217.698 53.41 217.942 53.31 218.228 53.31C218.522 53.31 218.765 53.41 218.958 53.61C219.158 53.8033 219.258 54.0433 219.258 54.33C219.258 54.61 219.158 54.85 218.958 55.05C218.765 55.2433 218.522 55.34 218.228 55.34ZM226.476 68.3C225.403 68.3 224.486 68.0567 223.726 67.57C222.966 67.0833 222.383 66.41 221.976 65.55C221.57 64.69 221.366 63.7033 221.366 62.59C221.366 61.4567 221.573 60.4633 221.986 59.61C222.4 58.7567 222.986 58.0933 223.746 57.62C224.513 57.14 225.423 56.9 226.476 56.9C227.556 56.9 228.476 57.1433 229.236 57.63C230.003 58.11 230.586 58.78 230.986 59.64C231.393 60.4933 231.596 61.4767 231.596 62.59C231.596 63.7233 231.393 64.72 230.986 65.58C230.58 66.4333 229.993 67.1 229.226 67.58C228.46 68.06 227.543 68.3 226.476 68.3ZM226.476 66.89C227.676 66.89 228.57 66.4933 229.156 65.7C229.743 64.9 230.036 63.8633 230.036 62.59C230.036 61.29 229.74 60.2533 229.146 59.48C228.553 58.7 227.663 58.31 226.476 58.31C225.27 58.31 224.376 58.71 223.796 59.51C223.216 60.3033 222.926 61.33 222.926 62.59C222.926 63.89 223.226 64.9333 223.826 65.72C224.426 66.5 225.31 66.89 226.476 66.89ZM233.792 68V57.2H235.122V58.7C235.522 58.12 236.032 57.68 236.652 57.38C237.279 57.08 237.979 56.93 238.752 56.93C239.566 56.93 240.249 57.0833 240.802 57.39C241.356 57.69 241.799 58.09 242.132 58.59C242.466 59.0833 242.706 59.6333 242.852 60.24C243.006 60.8467 243.082 61.4533 243.082 62.06V68H241.602V62.49C241.602 61.6967 241.499 60.9867 241.292 60.36C241.086 59.7333 240.752 59.24 240.292 58.88C239.832 58.5133 239.226 58.33 238.472 58.33C237.432 58.33 236.639 58.6767 236.092 59.37C235.546 60.0633 235.272 61.02 235.272 62.24V68H233.792Z" fill="#F7F5F5"/>
<rect x="320.25" y="43.5" width="56" height="34" rx="17" fill="#317463"/>
<rect x="320.25" y="43.5" width="56" height="34" rx="17" stroke="#12223C"/>
<path d="M332.98 68V55.01H327.95V53.6H339.48V55.01H334.45V68H332.98ZM344.052 68.3C342.999 68.3 342.085 68.0667 341.312 67.6C340.539 67.1333 339.939 66.4767 339.512 65.63C339.092 64.7833 338.882 63.79 338.882 62.65C338.882 61.47 339.092 60.45 339.512 59.59C339.932 58.73 340.522 58.0667 341.282 57.6C342.049 57.1333 342.952 56.9 343.992 56.9C345.592 56.9 346.832 57.4433 347.712 58.53C348.599 59.61 349.015 61.1033 348.962 63.01H340.452C340.512 64.25 340.849 65.2067 341.462 65.88C342.075 66.5533 342.919 66.89 343.992 66.89C345.565 66.89 346.695 66.1967 347.382 64.81L348.752 65.34C348.325 66.28 347.695 67.01 346.862 67.53C346.035 68.0433 345.099 68.3 344.052 68.3ZM344.032 58.25C342.992 58.25 342.169 58.5567 341.562 59.17C340.955 59.7767 340.595 60.6467 340.482 61.78H347.422C347.189 59.4267 346.059 58.25 344.032 58.25ZM355.211 68.29C353.945 68.29 352.901 68.0167 352.081 67.47C351.268 66.9233 350.768 66.1633 350.581 65.19L352.081 64.94C352.241 65.56 352.605 66.05 353.171 66.41C353.745 66.77 354.451 66.95 355.291 66.95C356.111 66.95 356.758 66.78 357.231 66.44C357.705 66.0933 357.941 65.6233 357.941 65.03C357.941 64.6967 357.865 64.4267 357.711 64.22C357.558 64.0067 357.251 63.81 356.791 63.63C356.338 63.45 355.655 63.2367 354.741 62.99C353.761 62.7233 352.991 62.4567 352.431 62.19C351.878 61.9233 351.485 61.6167 351.251 61.27C351.025 60.9167 350.911 60.4867 350.911 59.98C350.911 59.06 351.288 58.3167 352.041 57.75C352.801 57.1833 353.791 56.9 355.011 56.9C355.825 56.9 356.551 57.0333 357.191 57.3C357.838 57.56 358.358 57.9267 358.751 58.4C359.145 58.8733 359.378 59.4233 359.451 60.05L357.951 60.32C357.845 59.6867 357.528 59.1867 357.001 58.82C356.475 58.4467 355.805 58.2533 354.991 58.24C354.225 58.22 353.601 58.3667 353.121 58.68C352.641 58.9867 352.401 59.3967 352.401 59.91C352.401 60.1967 352.488 60.4433 352.661 60.65C352.835 60.85 353.148 61.04 353.601 61.22C354.061 61.4 354.715 61.5967 355.561 61.81C356.555 62.0633 357.335 62.33 357.901 62.61C358.468 62.89 358.871 63.22 359.111 63.6C359.351 63.98 359.471 64.45 359.471 65.01C359.471 66.03 359.091 66.8333 358.331 67.42C357.578 68 356.538 68.29 355.211 68.29ZM367.569 68C366.962 68.1267 366.362 68.1767 365.769 68.15C365.182 68.1233 364.656 67.9967 364.189 67.77C363.729 67.5433 363.379 67.19 363.139 66.71C362.946 66.3167 362.839 65.9133 362.819 65.5C362.806 65.0867 362.799 64.6167 362.799 64.09V58.46H360.489V57.2H362.799V54.2H364.259V57.2H367.569V58.46H364.259V64.03C364.259 64.4833 364.262 64.8633 364.269 65.17C364.282 65.47 364.352 65.7367 364.479 65.97C364.719 66.4167 365.099 66.6833 365.619 66.77C366.146 66.8567 366.796 66.8367 367.569 66.71V68Z" fill="#F7F5F5"/>
<rect x="426.25" y="43.5" width="108" height="34" rx="17" fill="#317463"/>
<rect x="426.25" y="43.5" width="108" height="34" rx="17" stroke="#12223C"/>
<path d="M435.15 68V53.6H440.71C440.85 53.6 441.007 53.6067 441.18 53.62C441.36 53.6267 441.54 53.6467 441.72 53.68C442.847 53.8533 443.713 54.3467 444.32 55.16C444.927 55.9733 445.23 56.9433 445.23 58.07C445.23 59.19 444.923 60.1567 444.31 60.97C443.703 61.7833 442.84 62.2767 441.72 62.45C441.54 62.4833 441.36 62.5067 441.18 62.52C441.007 62.5267 440.85 62.53 440.71 62.53H436.62V68H435.15ZM436.62 61.13H440.67C440.79 61.13 440.93 61.1233 441.09 61.11C441.25 61.0967 441.407 61.0733 441.56 61.04C442.3 60.88 442.843 60.5133 443.19 59.94C443.543 59.36 443.72 58.7367 443.72 58.07C443.72 57.3967 443.543 56.7733 443.19 56.2C442.843 55.62 442.3 55.25 441.56 55.09C441.407 55.0567 441.25 55.0367 441.09 55.03C440.93 55.0167 440.79 55.01 440.67 55.01H436.62V61.13ZM447.22 68V57.2H448.54V58.91C448.78 58.49 449.06 58.1567 449.38 57.91C449.807 57.5433 450.32 57.3033 450.92 57.19C451.52 57.0767 452.057 57.08 452.53 57.2V58.58C452.13 58.48 451.697 58.4567 451.23 58.51C450.77 58.5633 450.344 58.75 449.95 59.07C449.41 59.4967 449.064 60.0333 448.91 60.68C448.764 61.32 448.69 61.9633 448.69 62.61V68H447.22ZM458.742 68.3C457.669 68.3 456.752 68.0567 455.992 67.57C455.232 67.0833 454.649 66.41 454.242 65.55C453.835 64.69 453.632 63.7033 453.632 62.59C453.632 61.4567 453.839 60.4633 454.252 59.61C454.665 58.7567 455.252 58.0933 456.012 57.62C456.779 57.14 457.689 56.9 458.742 56.9C459.822 56.9 460.742 57.1433 461.502 57.63C462.269 58.11 462.852 58.78 463.252 59.64C463.659 60.4933 463.862 61.4767 463.862 62.59C463.862 63.7233 463.659 64.72 463.252 65.58C462.845 66.4333 462.259 67.1 461.492 67.58C460.725 68.06 459.809 68.3 458.742 68.3ZM458.742 66.89C459.942 66.89 460.835 66.4933 461.422 65.7C462.009 64.9 462.302 63.8633 462.302 62.59C462.302 61.29 462.005 60.2533 461.412 59.48C460.819 58.7 459.929 58.31 458.742 58.31C457.535 58.31 456.642 58.71 456.062 59.51C455.482 60.3033 455.192 61.33 455.192 62.59C455.192 63.89 455.492 64.9333 456.092 65.72C456.692 66.5 457.575 66.89 458.742 66.89ZM471.948 68C471.341 68.1267 470.741 68.1767 470.148 68.15C469.561 68.1233 469.035 67.9967 468.568 67.77C468.108 67.5433 467.758 67.19 467.518 66.71C467.325 66.3167 467.218 65.9133 467.198 65.5C467.185 65.0867 467.178 64.6167 467.178 64.09V58.46H464.868V57.2H467.178V54.2H468.638V57.2H471.948V58.46H468.638V64.03C468.638 64.4833 468.641 64.8633 468.648 65.17C468.661 65.47 468.731 65.7367 468.858 65.97C469.098 66.4167 469.478 66.6833 469.998 66.77C470.525 66.8567 471.175 66.8367 471.948 66.71V68ZM478.195 68.3C477.122 68.3 476.205 68.0567 475.445 67.57C474.685 67.0833 474.102 66.41 473.695 65.55C473.288 64.69 473.085 63.7033 473.085 62.59C473.085 61.4567 473.292 60.4633 473.705 59.61C474.118 58.7567 474.705 58.0933 475.465 57.62C476.232 57.14 477.142 56.9 478.195 56.9C479.275 56.9 480.195 57.1433 480.955 57.63C481.722 58.11 482.305 58.78 482.705 59.64C483.112 60.4933 483.315 61.4767 483.315 62.59C483.315 63.7233 483.112 64.72 482.705 65.58C482.298 66.4333 481.712 67.1 480.945 67.58C480.178 68.06 479.262 68.3 478.195 68.3ZM478.195 66.89C479.395 66.89 480.288 66.4933 480.875 65.7C481.462 64.9 481.755 63.8633 481.755 62.59C481.755 61.29 481.458 60.2533 480.865 59.48C480.272 58.7 479.382 58.31 478.195 58.31C476.988 58.31 476.095 58.71 475.515 59.51C474.935 60.3033 474.645 61.33 474.645 62.59C474.645 63.89 474.945 64.9333 475.545 65.72C476.145 66.5 477.028 66.89 478.195 66.89ZM491.401 68C490.794 68.1267 490.194 68.1767 489.601 68.15C489.014 68.1233 488.488 67.9967 488.021 67.77C487.561 67.5433 487.211 67.19 486.971 66.71C486.778 66.3167 486.671 65.9133 486.651 65.5C486.638 65.0867 486.631 64.6167 486.631 64.09V58.46H484.321V57.2H486.631V54.2H488.091V57.2H491.401V58.46H488.091V64.03C488.091 64.4833 488.094 64.8633 488.101 65.17C488.114 65.47 488.184 65.7367 488.311 65.97C488.551 66.4167 488.931 66.6833 489.451 66.77C489.978 66.8567 490.628 66.8367 491.401 66.71V68ZM494.776 72.8L496.556 67.98L492.166 57.2H493.726L497.266 66.08L500.546 57.2H502.046L496.246 72.8H494.776ZM503.773 72.8V57.2H505.093V58.68C505.486 58.1267 505.983 57.6933 506.583 57.38C507.189 57.06 507.893 56.9 508.693 56.9C509.679 56.9 510.526 57.15 511.233 57.65C511.939 58.15 512.479 58.83 512.853 59.69C513.233 60.55 513.423 61.5167 513.423 62.59C513.423 63.67 513.233 64.64 512.853 65.5C512.479 66.36 511.933 67.0433 511.213 67.55C510.499 68.05 509.639 68.3 508.633 68.3C507.899 68.3 507.249 68.16 506.683 67.88C506.116 67.5933 505.639 67.2033 505.253 66.71V72.8H503.773ZM508.483 66.93C509.236 66.93 509.863 66.74 510.363 66.36C510.863 65.9733 511.236 65.4533 511.483 64.8C511.736 64.1467 511.863 63.41 511.863 62.59C511.863 61.7767 511.739 61.0433 511.493 60.39C511.246 59.7367 510.869 59.22 510.363 58.84C509.863 58.46 509.226 58.27 508.453 58.27C507.326 58.27 506.483 58.6733 505.923 59.48C505.369 60.2867 505.093 61.3233 505.093 62.59C505.093 63.4233 505.216 64.1667 505.463 64.82C505.709 65.4733 506.083 65.99 506.583 66.37C507.083 66.7433 507.716 66.93 508.483 66.93ZM520.189 68.3C519.135 68.3 518.222 68.0667 517.449 67.6C516.675 67.1333 516.075 66.4767 515.649 65.63C515.229 64.7833 515.019 63.79 515.019 62.65C515.019 61.47 515.229 60.45 515.649 59.59C516.069 58.73 516.659 58.0667 517.419 57.6C518.185 57.1333 519.089 56.9 520.129 56.9C521.729 56.9 522.969 57.4433 523.849 58.53C524.735 59.61 525.152 61.1033 525.099 63.01H516.589C516.649 64.25 516.985 65.2067 517.599 65.88C518.212 66.5533 519.055 66.89 520.129 66.89C521.702 66.89 522.832 66.1967 523.519 64.81L524.889 65.34C524.462 66.28 523.832 67.01 522.999 67.53C522.172 68.0433 521.235 68.3 520.189 68.3ZM520.169 58.25C519.129 58.25 518.305 58.5567 517.699 59.17C517.092 59.7767 516.732 60.6467 516.619 61.78H523.559C523.325 59.4267 522.195 58.25 520.169 58.25Z" fill="#F7F5F5"/>
<rect x="642.25" y="43.5" width="93" height="34" rx="17" fill="#EBBE4B"/>
<rect x="642.25" y="43.5" width="93" height="34" rx="17" stroke="black"/>
<path d="M651.15 68V53.6H655.66C655.793 53.6 656.04 53.6033 656.4 53.61C656.76 53.6167 657.11 53.6433 657.45 53.69C658.577 53.83 659.523 54.2333 660.29 54.9C661.063 55.5667 661.647 56.4133 662.04 57.44C662.433 58.46 662.63 59.58 662.63 60.8C662.63 62.0267 662.433 63.1533 662.04 64.18C661.647 65.2 661.063 66.0433 660.29 66.71C659.523 67.37 658.577 67.77 657.45 67.91C657.117 67.9567 656.767 67.9833 656.4 67.99C656.033 67.9967 655.787 68 655.66 68H651.15ZM653.29 66.01H655.66C655.887 66.01 656.157 66.0067 656.47 66C656.783 65.9867 657.06 65.9567 657.3 65.91C658.033 65.77 658.627 65.4533 659.08 64.96C659.54 64.46 659.877 63.8467 660.09 63.12C660.303 62.3933 660.41 61.62 660.41 60.8C660.41 59.9533 660.3 59.17 660.08 58.45C659.86 57.7233 659.52 57.1167 659.06 56.63C658.607 56.1367 658.02 55.8233 657.3 55.69C657.06 55.6433 656.78 55.6167 656.46 55.61C656.147 55.5967 655.88 55.59 655.66 55.59H653.29V66.01ZM669.749 68.3C668.675 68.3 667.732 68.0667 666.919 67.6C666.112 67.1267 665.482 66.47 665.029 65.63C664.582 64.7833 664.359 63.8033 664.359 62.69C664.359 61.51 664.579 60.4867 665.019 59.62C665.465 58.7533 666.085 58.0833 666.879 57.61C667.672 57.1367 668.595 56.9 669.649 56.9C670.749 56.9 671.685 57.1567 672.459 57.67C673.232 58.1767 673.809 58.9 674.189 59.84C674.569 60.78 674.722 61.8967 674.649 63.19H666.599C666.685 64.19 666.985 64.9633 667.499 65.51C668.019 66.0567 668.735 66.33 669.649 66.33C670.975 66.33 671.912 65.7567 672.459 64.61L674.509 65.26C674.089 66.2267 673.452 66.9767 672.599 67.51C671.745 68.0367 670.795 68.3 669.749 68.3ZM669.729 58.75C667.949 58.75 666.922 59.6867 666.649 61.56H672.509C672.295 59.6867 671.369 58.75 669.729 58.75ZM677.092 68V53.3H679.182V68H677.092ZM682.385 68V57.2H684.475V68H682.385ZM683.435 55.72C683.062 55.72 682.748 55.5933 682.495 55.34C682.248 55.0867 682.125 54.78 682.125 54.42C682.125 54.0533 682.248 53.7467 682.495 53.5C682.748 53.2467 683.062 53.12 683.435 53.12C683.808 53.12 684.118 53.2467 684.365 53.5C684.612 53.7467 684.735 54.0533 684.735 54.42C684.735 54.78 684.612 55.0867 684.365 55.34C684.118 55.5933 683.808 55.72 683.435 55.72ZM690.398 68L686.478 57.2H688.588L691.458 65.38L694.328 57.2H696.438L692.518 68H690.398ZM702.639 68.3C701.566 68.3 700.623 68.0667 699.809 67.6C699.003 67.1267 698.373 66.47 697.919 65.63C697.473 64.7833 697.249 63.8033 697.249 62.69C697.249 61.51 697.469 60.4867 697.909 59.62C698.356 58.7533 698.976 58.0833 699.769 57.61C700.563 57.1367 701.486 56.9 702.539 56.9C703.639 56.9 704.576 57.1567 705.349 57.67C706.123 58.1767 706.699 58.9 707.079 59.84C707.459 60.78 707.613 61.8967 707.539 63.19H699.489C699.576 64.19 699.876 64.9633 700.389 65.51C700.909 66.0567 701.626 66.33 702.539 66.33C703.866 66.33 704.803 65.7567 705.349 64.61L707.399 65.26C706.979 66.2267 706.343 66.9767 705.489 67.51C704.636 68.0367 703.686 68.3 702.639 68.3ZM702.619 58.75C700.839 58.75 699.813 59.6867 699.539 61.56H705.399C705.186 59.6867 704.259 58.75 702.619 58.75ZM709.783 68V57.2H711.643V58.92C711.909 58.4467 712.243 58.0767 712.643 57.81C713.049 57.51 713.523 57.31 714.063 57.21C714.609 57.11 715.126 57.1067 715.613 57.2V59.16C715.259 59.0667 714.866 59.04 714.433 59.08C714.006 59.12 713.613 59.2567 713.253 59.49C712.746 59.8167 712.393 60.25 712.193 60.79C711.993 61.33 711.893 61.9167 711.893 62.55V68H709.783ZM718.704 72.8L720.484 67.95L716.114 57.2H718.294L721.494 65.31L724.534 57.2H726.654L720.694 72.8H718.704Z" fill="#12223C"/>
<rect x="1.25" y="43.5" width="92" height="34" rx="17" fill="#2D4F8F"/>
<rect x="1.25" y="43.5" width="92" height="34" rx="17" stroke="#12223C"/>
<path d="M9.15 68L14.11 53.6H16.06L21.02 68H19.49L18.28 64.51H11.89L10.68 68H9.15ZM12.36 63.13H17.8L15.07 55.25L12.36 63.13ZM22.8158 68V57.2H24.1458V58.7C24.5458 58.12 25.0558 57.68 25.6758 57.38C26.3024 57.08 27.0024 56.93 27.7758 56.93C28.5891 56.93 29.2724 57.0833 29.8258 57.39C30.3791 57.69 30.8224 58.09 31.1558 58.59C31.4891 59.0833 31.7291 59.6333 31.8758 60.24C32.0291 60.8467 32.1058 61.4533 32.1058 62.06V68H30.6258V62.49C30.6258 61.6967 30.5224 60.9867 30.3158 60.36C30.1091 59.7333 29.7758 59.24 29.3158 58.88C28.8558 58.5133 28.2491 58.33 27.4958 58.33C26.4558 58.33 25.6624 58.6767 25.1158 59.37C24.5691 60.0633 24.2958 61.02 24.2958 62.24V68H22.8158ZM37.7908 68.3C36.9774 68.3 36.2941 68.1533 35.7408 67.86C35.1941 67.5667 34.7841 67.1767 34.5108 66.69C34.2374 66.2033 34.1008 65.6733 34.1008 65.1C34.1008 64.2133 34.3574 63.5233 34.8708 63.03C35.3841 62.53 36.0441 62.1733 36.8508 61.96C37.3374 61.84 37.8708 61.7333 38.4508 61.64C39.0308 61.5467 39.6074 61.4633 40.1808 61.39C40.7608 61.3167 41.2908 61.25 41.7708 61.19C41.7574 60.21 41.5308 59.4833 41.0908 59.01C40.6508 58.53 39.9174 58.29 38.8908 58.29C38.1508 58.29 37.5241 58.4567 37.0108 58.79C36.5041 59.1233 36.1474 59.65 35.9408 60.37L34.5108 59.95C34.7574 58.9833 35.2541 58.2333 36.0008 57.7C36.7474 57.1667 37.7174 56.9 38.9108 56.9C39.8974 56.9 40.7341 57.0867 41.4208 57.46C42.1141 57.8267 42.6041 58.36 42.8908 59.06C43.0241 59.3733 43.1108 59.7233 43.1508 60.11C43.1908 60.4967 43.2108 60.89 43.2108 61.29V68H41.9008V66.22C41.0474 67.6067 39.6774 68.3 37.7908 68.3ZM37.9608 67.03C38.9941 67.03 39.8241 66.76 40.4508 66.22C41.0841 65.68 41.4708 65.0033 41.6108 64.19C41.6708 63.9233 41.7074 63.6333 41.7208 63.32C41.7408 63 41.7508 62.7167 41.7508 62.47C41.0441 62.5567 40.2974 62.65 39.5108 62.75C38.7241 62.85 38.0341 62.98 37.4408 63.14C36.9808 63.2733 36.5541 63.4867 36.1608 63.78C35.7674 64.0733 35.5708 64.5133 35.5708 65.1C35.5708 65.4133 35.6474 65.7167 35.8008 66.01C35.9608 66.3033 36.2141 66.5467 36.5608 66.74C36.9141 66.9333 37.3808 67.03 37.9608 67.03ZM46.0141 68V53.3H47.4841V68H46.0141ZM52.022 72.8L53.802 67.98L49.412 57.2H50.972L54.512 66.08L57.792 57.2H59.292L53.492 72.8H52.022ZM65.0589 68.29C63.7922 68.29 62.7489 68.0167 61.9289 67.47C61.1156 66.9233 60.6156 66.1633 60.4289 65.19L61.9289 64.94C62.0889 65.56 62.4522 66.05 63.0189 66.41C63.5922 66.77 64.2989 66.95 65.1389 66.95C65.9589 66.95 66.6056 66.78 67.0789 66.44C67.5522 66.0933 67.7889 65.6233 67.7889 65.03C67.7889 64.6967 67.7122 64.4267 67.5589 64.22C67.4056 64.0067 67.0989 63.81 66.6389 63.63C66.1856 63.45 65.5022 63.2367 64.5889 62.99C63.6089 62.7233 62.8389 62.4567 62.2789 62.19C61.7256 61.9233 61.3322 61.6167 61.0989 61.27C60.8722 60.9167 60.7589 60.4867 60.7589 59.98C60.7589 59.06 61.1356 58.3167 61.8889 57.75C62.6489 57.1833 63.6389 56.9 64.8589 56.9C65.6722 56.9 66.3989 57.0333 67.0389 57.3C67.6856 57.56 68.2056 57.9267 68.5989 58.4C68.9922 58.8733 69.2256 59.4233 69.2989 60.05L67.7989 60.32C67.6922 59.6867 67.3756 59.1867 66.8489 58.82C66.3222 58.4467 65.6522 58.2533 64.8389 58.24C64.0722 58.22 63.4489 58.3667 62.9689 58.68C62.4889 58.9867 62.2489 59.3967 62.2489 59.91C62.2489 60.1967 62.3356 60.4433 62.5089 60.65C62.6822 60.85 62.9956 61.04 63.4489 61.22C63.9089 61.4 64.5622 61.5967 65.4089 61.81C66.4022 62.0633 67.1822 62.33 67.7489 62.61C68.3156 62.89 68.7189 63.22 68.9589 63.6C69.1989 63.98 69.3189 64.45 69.3189 65.01C69.3189 66.03 68.9389 66.8333 68.1789 67.42C67.4256 68 66.3856 68.29 65.0589 68.29ZM71.7367 68V57.2H73.2067V68H71.7367ZM72.4667 55.34C72.1801 55.34 71.9367 55.2433 71.7367 55.05C71.5434 54.85 71.4467 54.61 71.4467 54.33C71.4467 54.0433 71.5434 53.8033 71.7367 53.61C71.9367 53.41 72.1801 53.31 72.4667 53.31C72.7601 53.31 73.0034 53.41 73.1967 53.61C73.3967 53.8033 73.4967 54.0433 73.4967 54.33C73.4967 54.61 73.3967 54.85 73.1967 55.05C73.0034 55.2433 72.7601 55.34 72.4667 55.34ZM80.2347 68.29C78.968 68.29 77.9247 68.0167 77.1047 67.47C76.2914 66.9233 75.7914 66.1633 75.6047 65.19L77.1047 64.94C77.2647 65.56 77.628 66.05 78.1947 66.41C78.768 66.77 79.4747 66.95 80.3147 66.95C81.1347 66.95 81.7814 66.78 82.2547 66.44C82.728 66.0933 82.9647 65.6233 82.9647 65.03C82.9647 64.6967 82.888 64.4267 82.7347 64.22C82.5814 64.0067 82.2747 63.81 81.8147 63.63C81.3614 63.45 80.678 63.2367 79.7647 62.99C78.7847 62.7233 78.0147 62.4567 77.4547 62.19C76.9014 61.9233 76.508 61.6167 76.2747 61.27C76.048 60.9167 75.9347 60.4867 75.9347 59.98C75.9347 59.06 76.3114 58.3167 77.0647 57.75C77.8247 57.1833 78.8147 56.9 80.0347 56.9C80.848 56.9 81.5747 57.0333 82.2147 57.3C82.8614 57.56 83.3814 57.9267 83.7747 58.4C84.168 58.8733 84.4014 59.4233 84.4747 60.05L82.9747 60.32C82.868 59.6867 82.5514 59.1867 82.0247 58.82C81.498 58.4467 80.828 58.2533 80.0147 58.24C79.248 58.22 78.6247 58.3667 78.1447 58.68C77.6647 58.9867 77.4247 59.3967 77.4247 59.91C77.4247 60.1967 77.5114 60.4433 77.6847 60.65C77.858 60.85 78.1714 61.04 78.6247 61.22C79.0847 61.4 79.738 61.5967 80.5847 61.81C81.578 62.0633 82.358 62.33 82.9247 62.61C83.4914 62.89 83.8947 63.22 84.1347 63.6C84.3747 63.98 84.4947 64.45 84.4947 65.01C84.4947 66.03 84.1147 66.8333 83.3547 67.42C82.6014 68 81.5614 68.29 80.2347 68.29Z" fill="#F7F5F5"/>
<path d="M91.0833 61C91.0833 62.4728 92.2772 63.6667 93.75 63.6667C95.2228 63.6667 96.4167 62.4728 96.4167 61C96.4167 59.5272 95.2228 58.3333 93.75 58.3333C92.2772 58.3333 91.0833 59.5272 91.0833 61ZM153.75 61L148.75 58.1132V63.8868L153.75 61ZM93.75 61.5H95.625V60.5H93.75V61.5ZM99.375 61.5H103.125V60.5H99.375V61.5ZM106.875 61.5H110.625V60.5H106.875V61.5ZM114.375 61.5H118.125V60.5H114.375V61.5ZM121.875 61.5H125.625V60.5H121.875V61.5ZM129.375 61.5H133.125V60.5H129.375V61.5ZM136.875 61.5H140.625V60.5H136.875V61.5ZM144.375 61.5H148.125V60.5H144.375V61.5Z" fill="#12223C"/>
<path d="M250.083 61C250.083 62.4728 251.277 63.6667 252.75 63.6667C254.223 63.6667 255.417 62.4728 255.417 61C255.417 59.5272 254.223 58.3333 252.75 58.3333C251.277 58.3333 250.083 59.5272 250.083 61ZM312.75 61L307.75 58.1132V63.8868L312.75 61ZM252.75 61.5H254.625V60.5H252.75V61.5ZM258.375 61.5H262.125V60.5H258.375V61.5ZM265.875 61.5H269.625V60.5H265.875V61.5ZM273.375 61.5H277.125V60.5H273.375V61.5ZM280.875 61.5H284.625V60.5H280.875V61.5ZM288.375 61.5H292.125V60.5H288.375V61.5ZM295.875 61.5H299.625V60.5H295.875V61.5ZM303.375 61.5H307.125V60.5H303.375V61.5Z" fill="#12223C"/>
<path d="M532.083 61C532.083 62.4728 533.277 63.6667 534.75 63.6667C536.223 63.6667 537.417 62.4728 537.417 61C537.417 59.5272 536.223 58.3333 534.75 58.3333C533.277 58.3333 532.083 59.5272 532.083 61ZM634.75 61L629.75 58.1132V63.8868L634.75 61ZM534.75 61.5H536.673V60.5H534.75V61.5ZM540.519 61.5H544.365V60.5H540.519V61.5ZM548.212 61.5H552.058V60.5H548.212V61.5ZM555.904 61.5H559.75V60.5H555.904V61.5ZM563.596 61.5H567.442V60.5H563.596V61.5ZM571.288 61.5H575.135V60.5H571.288V61.5ZM578.981 61.5H582.827V60.5H578.981V61.5ZM586.673 61.5H590.519V60.5H586.673V61.5ZM594.365 61.5H598.212V60.5H594.365V61.5ZM602.058 61.5H605.904V60.5H602.058V61.5ZM609.75 61.5H613.596V60.5H609.75V61.5ZM617.442 61.5H621.288V60.5H617.442V61.5ZM625.135 61.5H628.981V60.5H625.135V61.5Z" fill="#12223C"/>
<path d="M346.083 43C346.083 44.4728 347.277 45.6667 348.75 45.6667C350.223 45.6667 351.417 44.4728 351.417 43C351.417 41.5272 350.223 40.3333 348.75 40.3333C347.277 40.3333 346.083 41.5272 346.083 43ZM477.75 37.6545L480.418 32.5344L474.65 32.7841L477.75 37.6545ZM349.25 43C349.25 42.3673 349.272 41.7379 349.315 41.1122L348.318 41.0432C348.273 41.6918 348.25 42.3442 348.25 43H349.25ZM349.834 37.3749C350.092 36.1458 350.432 34.9334 350.852 33.74L349.909 33.4078C349.475 34.6417 349.122 35.8967 348.855 37.17L349.834 37.3749ZM352.329 30.2593C352.885 29.1419 353.513 28.0445 354.209 26.9694L353.369 26.4259C352.654 27.5313 352.007 28.6613 351.433 29.8136L352.329 30.2593ZM356.429 23.8993C357.209 22.9267 358.047 21.9762 358.94 21.0496L358.22 20.3556C357.307 21.3032 356.449 22.2765 355.649 23.2737L356.429 23.8993ZM361.693 18.4222C362.63 17.5973 363.613 16.7955 364.64 16.0182L364.037 15.2208C362.991 16.0124 361.989 16.8299 361.032 17.6716L361.693 18.4222ZM367.76 13.8216C368.807 13.1352 369.891 12.4722 371.009 11.8339L370.514 10.9653C369.378 11.6135 368.276 12.2873 367.211 12.9853L367.76 13.8216ZM374.379 10.0389C375.504 9.4795 376.66 8.94374 377.843 8.43277L377.446 7.51473C376.247 8.03263 375.076 8.57588 373.934 9.14335L374.379 10.0389ZM381.384 7.00881C382.565 6.56776 383.77 6.15043 384.997 5.75783L384.693 4.80538C383.45 5.20276 382.23 5.6253 381.034 6.072L381.384 7.00881ZM388.664 4.67699C389.881 4.34777 391.118 4.04225 392.372 3.76132L392.154 2.7855C390.885 3.06958 389.634 3.3786 388.403 3.71165L388.664 4.67699ZM396.121 3.00518C397.365 2.78119 398.626 2.58101 399.9 2.40544L399.763 1.4148C398.476 1.59222 397.202 1.79455 395.944 2.02098L396.121 3.00518ZM403.7 1.95957C404.958 1.83728 406.229 1.73879 407.511 1.66482L407.453 0.666485C406.158 0.741198 404.875 0.840698 403.603 0.964257L403.7 1.95957ZM411.332 1.5183C411.969 1.50613 412.609 1.5 413.25 1.5V0.5C412.602 0.5 411.957 0.506189 411.313 0.51848L411.332 1.5183ZM413.25 1.5C413.92 1.5 414.592 1.50653 415.265 1.51956L415.285 0.519746C414.605 0.506596 413.927 0.5 413.25 0.5V1.5ZM419.298 1.67424C420.638 1.75092 421.981 1.85273 423.322 1.97939L423.416 0.983821C422.062 0.856009 420.708 0.753256 419.355 0.675877L419.298 1.67424ZM427.332 2.4327C428.668 2.60864 429.999 2.8091 431.323 3.03376L431.49 2.04786C430.154 1.82111 428.81 1.61881 427.462 1.44126L427.332 2.4327ZM435.288 3.7839C436.61 4.06036 437.921 4.36131 439.219 4.68641L439.462 3.7164C438.152 3.38805 436.827 3.08416 435.492 2.80506L435.288 3.7839ZM443.112 5.74759C444.41 6.1311 445.691 6.53968 446.949 6.97294L447.274 6.02742C446.002 5.5892 444.707 5.17612 443.395 4.78853L443.112 5.74759ZM450.73 8.37698C451.991 8.88069 453.224 9.41075 454.425 9.96671L454.845 9.05924C453.627 8.49548 452.378 7.9584 451.101 7.44835L450.73 8.37698ZM458.029 11.7663C459.229 12.4118 460.387 13.0857 461.501 13.7877L462.034 12.9418C460.9 12.227 459.722 11.5415 458.503 10.8857L458.029 11.7663ZM464.809 16.0578C465.901 16.8751 466.935 17.7239 467.905 18.6035L468.577 17.8627C467.582 16.9607 466.524 16.092 465.408 15.2571L464.809 16.0578ZM470.715 21.4438C471.611 22.46 472.425 23.5106 473.151 24.595L473.982 24.0387C473.23 22.9152 472.388 21.8296 471.465 20.7826L470.715 21.4438ZM475.107 28.052C475.668 29.256 476.125 30.4964 476.471 31.7724L477.436 31.5107C477.075 30.1776 476.597 28.8835 476.013 27.6296L475.107 28.052ZM346.083 43C346.083 44.4728 347.277 45.6667 348.75 45.6667C350.223 45.6667 351.417 44.4728 351.417 43C351.417 41.5272 350.223 40.3333 348.75 40.3333C347.277 40.3333 346.083 41.5272 346.083 43ZM477.75 37.6545L480.418 32.5344L474.65 32.7841L477.75 37.6545ZM349.25 43C349.25 42.3673 349.272 41.7379 349.315 41.1122L348.318 41.0432C348.273 41.6918 348.25 42.3442 348.25 43H349.25ZM349.834 37.3749C350.092 36.1458 350.432 34.9334 350.852 33.74L349.909 33.4078C349.475 34.6417 349.122 35.8967 348.855 37.17L349.834 37.3749ZM352.329 30.2593C352.885 29.1419 353.513 28.0445 354.209 26.9694L353.369 26.4259C352.654 27.5313 352.007 28.6613 351.433 29.8136L352.329 30.2593ZM356.429 23.8993C357.209 22.9267 358.047 21.9762 358.94 21.0496L358.22 20.3556C357.307 21.3032 356.449 22.2765 355.649 23.2737L356.429 23.8993ZM361.693 18.4222C362.63 17.5973 363.613 16.7955 364.64 16.0182L364.037 15.2208C362.991 16.0124 361.989 16.8299 361.032 17.6716L361.693 18.4222ZM367.76 13.8216C368.807 13.1352 369.891 12.4722 371.009 11.8339L370.514 10.9653C369.378 11.6135 368.276 12.2873 367.211 12.9853L367.76 13.8216ZM374.379 10.0389C375.504 9.4795 376.66 8.94374 377.843 8.43277L377.446 7.51473C376.247 8.03263 375.076 8.57588 373.934 9.14335L374.379 10.0389ZM381.384 7.00881C382.565 6.56776 383.77 6.15043 384.997 5.75783L384.693 4.80538C383.45 5.20276 382.23 5.6253 381.034 6.072L381.384 7.00881ZM388.664 4.67699C389.881 4.34777 391.118 4.04225 392.372 3.76132L392.154 2.7855C390.885 3.06958 389.634 3.3786 388.403 3.71165L388.664 4.67699ZM396.121 3.00518C397.365 2.78119 398.626 2.58101 399.9 2.40544L399.763 1.4148C398.476 1.59222 397.202 1.79455 395.944 2.02098L396.121 3.00518ZM403.7 1.95957C404.958 1.83728 406.229 1.73879 407.511 1.66482L407.453 0.666485C406.158 0.741198 404.875 0.840698 403.603 0.964257L403.7 1.95957ZM411.332 1.5183C411.969 1.50613 412.609 1.5 413.25 1.5V0.5C412.602 0.5 411.957 0.506189 411.313 0.51848L411.332 1.5183ZM413.25 1.5C413.92 1.5 414.592 1.50653 415.265 1.51956L415.285 0.519746C414.605 0.506596 413.927 0.5 413.25 0.5V1.5ZM419.298 1.67424C420.638 1.75092 421.981 1.85273 423.322 1.97939L423.416 0.983821C422.062 0.856009 420.708 0.753256 419.355 0.675877L419.298 1.67424ZM427.332 2.4327C428.668 2.60864 429.999 2.8091 431.323 3.03376L431.49 2.04786C430.154 1.82111 428.81 1.61881 427.462 1.44126L427.332 2.4327ZM435.288 3.7839C436.61 4.06036 437.921 4.36131 439.219 4.68641L439.462 3.7164C438.152 3.38805 436.827 3.08416 435.492 2.80506L435.288 3.7839ZM443.112 5.74759C444.41 6.1311 445.691 6.53968 446.949 6.97294L447.274 6.02742C446.002 5.5892 444.707 5.17612 443.395 4.78853L443.112 5.74759ZM450.73 8.37698C451.991 8.88069 453.224 9.41075 454.425 9.96671L454.845 9.05924C453.627 8.49548 452.378 7.9584 451.101 7.44835L450.73 8.37698ZM458.029 11.7663C459.229 12.4118 460.387 13.0857 461.501 13.7877L462.034 12.9418C460.9 12.227 459.722 11.5415 458.503 10.8857L458.029 11.7663ZM464.809 16.0578C465.901 16.8751 466.935 17.7239 467.905 18.6035L468.577 17.8627C467.582 16.9607 466.524 16.092 465.408 15.2571L464.809 16.0578ZM470.715 21.4438C471.611 22.46 472.425 23.5106 473.151 24.595L473.982 24.0387C473.23 22.9152 472.388 21.8296 471.465 20.7826L470.715 21.4438ZM475.107 28.052C475.668 29.256 476.125 30.4964 476.471 31.7724L477.436 31.5107C477.075 30.1776 476.597 28.8835 476.013 27.6296L475.107 28.052Z" fill="#12223C"/>
<path d="M483.417 78C483.417 76.5273 482.223 75.3333 480.75 75.3333C479.277 75.3333 478.083 76.5273 478.083 78C478.083 79.4728 479.277 80.6667 480.75 80.6667C482.223 80.6667 483.417 79.4728 483.417 78ZM351.75 83.3455L349.082 88.4656L354.85 88.2159L351.75 83.3455ZM480.25 78C480.25 78.6327 480.228 79.2621 480.185 79.8878L481.182 79.9568C481.227 79.3082 481.25 78.6558 481.25 78L480.25 78ZM479.666 83.6251C479.408 84.8542 479.068 86.0667 478.648 87.26L479.591 87.5922C480.025 86.3583 480.378 85.1034 480.645 83.83L479.666 83.6251ZM477.171 90.7407C476.615 91.8582 475.987 92.9556 475.291 94.0306L476.131 94.5741C476.846 93.4687 477.493 92.3387 478.067 91.1864L477.171 90.7407ZM473.071 97.1007C472.291 98.0733 471.453 99.0238 470.56 99.9504L471.28 100.644C472.193 99.6968 473.051 98.7235 473.851 97.7263L473.071 97.1007ZM467.807 102.578C466.87 103.403 465.887 104.205 464.86 104.982L465.463 105.779C466.509 104.988 467.511 104.17 468.468 103.328L467.807 102.578ZM461.74 107.178C460.693 107.865 459.609 108.528 458.491 109.166L458.986 110.035C460.122 109.386 461.224 108.713 462.289 108.015L461.74 107.178ZM455.121 110.961C453.996 111.52 452.84 112.056 451.657 112.567L452.054 113.485C453.253 112.967 454.424 112.424 455.566 111.857L455.121 110.961ZM448.116 113.991C446.935 114.432 445.73 114.85 444.503 115.242L444.807 116.195C446.05 115.797 447.27 115.375 448.466 114.928L448.116 113.991ZM440.836 116.323C439.619 116.652 438.382 116.958 437.128 117.239L437.346 118.215C438.615 117.93 439.866 117.621 441.097 117.288L440.836 116.323ZM433.379 117.995C432.135 118.219 430.874 118.419 429.6 118.595L429.737 119.585C431.024 119.408 432.298 119.205 433.556 118.979L433.379 117.995ZM425.8 119.04C424.542 119.163 423.271 119.261 421.989 119.335L422.047 120.334C423.342 120.259 424.625 120.159 425.897 120.036L425.8 119.04ZM418.168 119.482C417.531 119.494 416.891 119.5 416.25 119.5L416.25 120.5C416.898 120.5 417.543 120.494 418.187 120.482L418.168 119.482ZM416.25 119.5C415.58 119.5 414.908 119.493 414.235 119.48L414.215 120.48C414.895 120.493 415.573 120.5 416.25 120.5L416.25 119.5ZM410.202 119.326C408.862 119.249 407.519 119.147 406.178 119.021L406.084 120.016C407.438 120.144 408.792 120.247 410.145 120.324L410.202 119.326ZM402.168 118.567C400.832 118.391 399.501 118.191 398.177 117.966L398.01 118.952C399.346 119.179 400.69 119.381 402.038 119.559L402.168 118.567ZM394.212 117.216C392.89 116.94 391.579 116.639 390.281 116.314L390.038 117.284C391.348 117.612 392.673 117.916 394.008 118.195L394.212 117.216ZM386.388 115.252C385.09 114.869 383.809 114.46 382.551 114.027L382.226 114.973C383.498 115.411 384.793 115.824 386.105 116.211L386.388 115.252ZM378.77 112.623C377.509 112.119 376.276 111.589 375.075 111.033L374.655 111.941C375.873 112.505 377.122 113.042 378.399 113.552L378.77 112.623ZM371.471 109.234C370.271 108.588 369.113 107.914 367.999 107.212L367.466 108.058C368.6 108.773 369.778 109.459 370.997 110.114L371.471 109.234ZM364.691 104.942C363.599 104.125 362.565 103.276 361.595 102.396L360.923 103.137C361.918 104.039 362.976 104.908 364.092 105.743L364.691 104.942ZM358.785 99.5561C357.889 98.54 357.075 97.4893 356.349 96.4049L355.518 96.9613C356.27 98.0848 357.112 99.1704 358.035 100.217L358.785 99.5561ZM354.393 92.948C353.832 91.744 353.375 90.5036 353.029 89.2276L352.064 89.4893C352.425 90.8224 352.903 92.1165 353.487 93.3704L354.393 92.948ZM483.417 78C483.417 76.5273 482.223 75.3333 480.75 75.3333C479.277 75.3333 478.083 76.5273 478.083 78C478.083 79.4728 479.277 80.6667 480.75 80.6667C482.223 80.6667 483.417 79.4728 483.417 78ZM351.75 83.3455L349.082 88.4656L354.85 88.2159L351.75 83.3455ZM480.25 78C480.25 78.6327 480.228 79.2621 480.185 79.8878L481.182 79.9568C481.227 79.3082 481.25 78.6558 481.25 78L480.25 78ZM479.666 83.6251C479.408 84.8542 479.068 86.0667 478.648 87.26L479.591 87.5922C480.025 86.3583 480.378 85.1034 480.645 83.83L479.666 83.6251ZM477.171 90.7407C476.615 91.8582 475.987 92.9556 475.291 94.0306L476.131 94.5741C476.846 93.4687 477.493 92.3387 478.067 91.1864L477.171 90.7407ZM473.071 97.1007C472.291 98.0733 471.453 99.0238 470.56 99.9504L471.28 100.644C472.193 99.6968 473.051 98.7235 473.851 97.7263L473.071 97.1007ZM467.807 102.578C466.87 103.403 465.887 104.205 464.86 104.982L465.463 105.779C466.509 104.988 467.511 104.17 468.468 103.328L467.807 102.578ZM461.74 107.178C460.693 107.865 459.609 108.528 458.491 109.166L458.986 110.035C460.122 109.386 461.224 108.713 462.289 108.015L461.74 107.178ZM455.121 110.961C453.996 111.52 452.84 112.056 451.657 112.567L452.054 113.485C453.253 112.967 454.424 112.424 455.566 111.857L455.121 110.961ZM448.116 113.991C446.935 114.432 445.73 114.85 444.503 115.242L444.807 116.195C446.05 115.797 447.27 115.375 448.466 114.928L448.116 113.991ZM440.836 116.323C439.619 116.652 438.382 116.958 437.128 117.239L437.346 118.215C438.615 117.93 439.866 117.621 441.097 117.288L440.836 116.323ZM433.379 117.995C432.135 118.219 430.874 118.419 429.6 118.595L429.737 119.585C431.024 119.408 432.298 119.205 433.556 118.979L433.379 117.995ZM425.8 119.04C424.542 119.163 423.271 119.261 421.989 119.335L422.047 120.334C423.342 120.259 424.625 120.159 425.897 120.036L425.8 119.04ZM418.168 119.482C417.531 119.494 416.891 119.5 416.25 119.5L416.25 120.5C416.898 120.5 417.543 120.494 418.187 120.482L418.168 119.482ZM416.25 119.5C415.58 119.5 414.908 119.493 414.235 119.48L414.215 120.48C414.895 120.493 415.573 120.5 416.25 120.5L416.25 119.5ZM410.202 119.326C408.862 119.249 407.519 119.147 406.178 119.021L406.084 120.016C407.438 120.144 408.792 120.247 410.145 120.324L410.202 119.326ZM402.168 118.567C400.832 118.391 399.501 118.191 398.177 117.966L398.01 118.952C399.346 119.179 400.69 119.381 402.038 119.559L402.168 118.567ZM394.212 117.216C392.89 116.94 391.579 116.639 390.281 116.314L390.038 117.284C391.348 117.612 392.673 117.916 394.008 118.195L394.212 117.216ZM386.388 115.252C385.09 114.869 383.809 114.46 382.551 114.027L382.226 114.973C383.498 115.411 384.793 115.824 386.105 116.211L386.388 115.252ZM378.77 112.623C377.509 112.119 376.276 111.589 375.075 111.033L374.655 111.941C375.873 112.505 377.122 113.042 378.399 113.552L378.77 112.623ZM371.471 109.234C370.271 108.588 369.113 107.914 367.999 107.212L367.466 108.058C368.6 108.773 369.778 109.459 370.997 110.114L371.471 109.234ZM364.691 104.942C363.599 104.125 362.565 103.276 361.595 102.396L360.923 103.137C361.918 104.039 362.976 104.908 364.092 105.743L364.691 104.942ZM358.785 99.5561C357.889 98.54 357.075 97.4893 356.349 96.4049L355.518 96.9613C356.27 98.0848 357.112 99.1704 358.035 100.217L358.785 99.5561ZM354.393 92.948C353.832 91.744 353.375 90.5036 353.029 89.2276L352.064 89.4893C352.425 90.8224 352.903 92.1165 353.487 93.3704L354.393 92.948Z" fill="#12223C"/>
<path d="M494.442 107V104.768H489.05V103.648L492.906 95.48H494.226L490.37 103.648H494.442V100.288H495.626V103.648H496.882V104.768H495.626V107H494.442ZM505.363 107.24C504.557 107.24 503.867 107.04 503.291 106.64C502.72 106.235 502.283 105.688 501.979 105C501.68 104.312 501.531 103.536 501.531 102.672C501.531 101.813 501.68 101.04 501.979 100.352C502.283 99.664 502.717 99.12 503.283 98.72C503.848 98.32 504.525 98.12 505.315 98.12C505.917 98.12 506.448 98.232 506.907 98.456C507.365 98.68 507.752 98.9893 508.067 99.384V95.48H509.251V107H508.195V105.8C507.88 106.248 507.485 106.6 507.011 106.856C506.541 107.112 505.992 107.24 505.363 107.24ZM505.483 106.144C506.096 106.144 506.603 105.995 507.003 105.696C507.403 105.392 507.701 104.979 507.899 104.456C508.096 103.933 508.195 103.339 508.195 102.672C508.195 101.659 507.971 100.829 507.523 100.184C507.08 99.5387 506.408 99.216 505.507 99.216C504.888 99.216 504.376 99.368 503.971 99.672C503.571 99.976 503.272 100.389 503.075 100.912C502.877 101.435 502.779 102.021 502.779 102.672C502.779 103.328 502.877 103.917 503.075 104.44C503.277 104.963 503.579 105.379 503.979 105.688C504.379 105.992 504.88 106.144 505.483 106.144ZM513.967 107.24C513.316 107.24 512.77 107.123 512.327 106.888C511.89 106.653 511.562 106.341 511.343 105.952C511.124 105.563 511.015 105.139 511.015 104.68C511.015 103.971 511.22 103.419 511.631 103.024C512.042 102.624 512.57 102.339 513.215 102.168C513.604 102.072 514.031 101.987 514.495 101.912C514.959 101.837 515.42 101.771 515.879 101.712C516.343 101.653 516.767 101.6 517.151 101.552C517.14 100.768 516.959 100.187 516.607 99.808C516.255 99.424 515.668 99.232 514.847 99.232C514.255 99.232 513.754 99.3653 513.343 99.632C512.938 99.8987 512.652 100.32 512.487 100.896L511.343 100.56C511.54 99.7867 511.938 99.1867 512.535 98.76C513.132 98.3333 513.908 98.12 514.863 98.12C515.652 98.12 516.322 98.2693 516.871 98.568C517.426 98.8613 517.818 99.288 518.047 99.848C518.154 100.099 518.223 100.379 518.255 100.688C518.287 100.997 518.303 101.312 518.303 101.632V107H517.255V105.576C516.572 106.685 515.476 107.24 513.967 107.24ZM514.103 106.224C514.93 106.224 515.594 106.008 516.095 105.576C516.602 105.144 516.911 104.603 517.023 103.952C517.071 103.739 517.1 103.507 517.111 103.256C517.127 103 517.135 102.773 517.135 102.576C516.57 102.645 515.972 102.72 515.343 102.8C514.714 102.88 514.162 102.984 513.687 103.112C513.319 103.219 512.978 103.389 512.663 103.624C512.348 103.859 512.191 104.211 512.191 104.68C512.191 104.931 512.252 105.173 512.375 105.408C512.503 105.643 512.706 105.837 512.983 105.992C513.266 106.147 513.639 106.224 514.103 106.224ZM521.133 110.84L522.557 106.984L519.045 98.36H520.293L523.125 105.464L525.749 98.36H526.949L522.309 110.84H521.133ZM531.563 107.232C530.549 107.232 529.715 107.013 529.059 106.576C528.408 106.139 528.008 105.531 527.859 104.752L529.059 104.552C529.187 105.048 529.477 105.44 529.931 105.728C530.389 106.016 530.955 106.16 531.627 106.16C532.283 106.16 532.8 106.024 533.179 105.752C533.557 105.475 533.747 105.099 533.747 104.624C533.747 104.357 533.685 104.141 533.563 103.976C533.44 103.805 533.195 103.648 532.827 103.504C532.464 103.36 531.917 103.189 531.187 102.992C530.403 102.779 529.787 102.565 529.339 102.352C528.896 102.139 528.581 101.893 528.395 101.616C528.213 101.333 528.123 100.989 528.123 100.584C528.123 99.848 528.424 99.2533 529.027 98.8C529.635 98.3467 530.427 98.12 531.403 98.12C532.053 98.12 532.635 98.2267 533.147 98.44C533.664 98.648 534.08 98.9413 534.395 99.32C534.709 99.6987 534.896 100.139 534.955 100.64L533.755 100.856C533.669 100.349 533.416 99.9493 532.995 99.656C532.573 99.3573 532.037 99.2027 531.387 99.192C530.773 99.176 530.275 99.2933 529.891 99.544C529.507 99.7893 529.315 100.117 529.315 100.528C529.315 100.757 529.384 100.955 529.523 101.12C529.661 101.28 529.912 101.432 530.275 101.576C530.643 101.72 531.165 101.877 531.843 102.048C532.637 102.251 533.261 102.464 533.715 102.688C534.168 102.912 534.491 103.176 534.683 103.48C534.875 103.784 534.971 104.16 534.971 104.608C534.971 105.424 534.667 106.067 534.059 106.536C533.456 107 532.624 107.232 531.563 107.232Z" fill="#12223C"/>
<path d="M695.192 107V104.768H689.8V103.648L693.656 95.48H694.976L691.12 103.648H695.192V100.288H696.376V103.648H697.632V104.768H696.376V107H695.192ZM706.113 107.24C705.307 107.24 704.617 107.04 704.041 106.64C703.47 106.235 703.033 105.688 702.729 105C702.43 104.312 702.281 103.536 702.281 102.672C702.281 101.813 702.43 101.04 702.729 100.352C703.033 99.664 703.467 99.12 704.033 98.72C704.598 98.32 705.275 98.12 706.065 98.12C706.667 98.12 707.198 98.232 707.657 98.456C708.115 98.68 708.502 98.9893 708.817 99.384V95.48H710.001V107H708.945V105.8C708.63 106.248 708.235 106.6 707.761 106.856C707.291 107.112 706.742 107.24 706.113 107.24ZM706.233 106.144C706.846 106.144 707.353 105.995 707.753 105.696C708.153 105.392 708.451 104.979 708.649 104.456C708.846 103.933 708.945 103.339 708.945 102.672C708.945 101.659 708.721 100.829 708.273 100.184C707.83 99.5387 707.158 99.216 706.257 99.216C705.638 99.216 705.126 99.368 704.721 99.672C704.321 99.976 704.022 100.389 703.825 100.912C703.627 101.435 703.529 102.021 703.529 102.672C703.529 103.328 703.627 103.917 703.825 104.44C704.027 104.963 704.329 105.379 704.729 105.688C705.129 105.992 705.63 106.144 706.233 106.144ZM714.717 107.24C714.066 107.24 713.52 107.123 713.077 106.888C712.64 106.653 712.312 106.341 712.093 105.952C711.874 105.563 711.765 105.139 711.765 104.68C711.765 103.971 711.97 103.419 712.381 103.024C712.792 102.624 713.32 102.339 713.965 102.168C714.354 102.072 714.781 101.987 715.245 101.912C715.709 101.837 716.17 101.771 716.629 101.712C717.093 101.653 717.517 101.6 717.901 101.552C717.89 100.768 717.709 100.187 717.357 99.808C717.005 99.424 716.418 99.232 715.597 99.232C715.005 99.232 714.504 99.3653 714.093 99.632C713.688 99.8987 713.402 100.32 713.237 100.896L712.093 100.56C712.29 99.7867 712.688 99.1867 713.285 98.76C713.882 98.3333 714.658 98.12 715.613 98.12C716.402 98.12 717.072 98.2693 717.621 98.568C718.176 98.8613 718.568 99.288 718.797 99.848C718.904 100.099 718.973 100.379 719.005 100.688C719.037 100.997 719.053 101.312 719.053 101.632V107H718.005V105.576C717.322 106.685 716.226 107.24 714.717 107.24ZM714.853 106.224C715.68 106.224 716.344 106.008 716.845 105.576C717.352 105.144 717.661 104.603 717.773 103.952C717.821 103.739 717.85 103.507 717.861 103.256C717.877 103 717.885 102.773 717.885 102.576C717.32 102.645 716.722 102.72 716.093 102.8C715.464 102.88 714.912 102.984 714.437 103.112C714.069 103.219 713.728 103.389 713.413 103.624C713.098 103.859 712.941 104.211 712.941 104.68C712.941 104.931 713.002 105.173 713.125 105.408C713.253 105.643 713.456 105.837 713.733 105.992C714.016 106.147 714.389 106.224 714.853 106.224ZM721.883 110.84L723.307 106.984L719.795 98.36H721.043L723.875 105.464L726.499 98.36H727.699L723.059 110.84H721.883ZM732.313 107.232C731.299 107.232 730.465 107.013 729.809 106.576C729.158 106.139 728.758 105.531 728.609 104.752L729.809 104.552C729.937 105.048 730.227 105.44 730.681 105.728C731.139 106.016 731.705 106.16 732.377 106.16C733.033 106.16 733.55 106.024 733.929 105.752C734.307 105.475 734.497 105.099 734.497 104.624C734.497 104.357 734.435 104.141 734.313 103.976C734.19 103.805 733.945 103.648 733.577 103.504C733.214 103.36 732.667 103.189 731.937 102.992C731.153 102.779 730.537 102.565 730.089 102.352C729.646 102.139 729.331 101.893 729.145 101.616C728.963 101.333 728.873 100.989 728.873 100.584C728.873 99.848 729.174 99.2533 729.777 98.8C730.385 98.3467 731.177 98.12 732.153 98.12C732.803 98.12 733.385 98.2267 733.897 98.44C734.414 98.648 734.83 98.9413 735.145 99.32C735.459 99.6987 735.646 100.139 735.705 100.64L734.505 100.856C734.419 100.349 734.166 99.9493 733.745 99.656C733.323 99.3573 732.787 99.2027 732.137 99.192C731.523 99.176 731.025 99.2933 730.641 99.544C730.257 99.7893 730.065 100.117 730.065 100.528C730.065 100.757 730.134 100.955 730.273 101.12C730.411 101.28 730.662 101.432 731.025 101.576C731.393 101.72 731.915 101.877 732.593 102.048C733.387 102.251 734.011 102.464 734.465 102.688C734.918 102.912 735.241 103.176 735.433 103.48C735.625 103.784 735.721 104.16 735.721 104.608C735.721 105.424 735.417 106.067 734.809 106.536C734.206 107 733.374 107.232 732.313 107.232Z" fill="#12223C"/>
<path d="M211.442 107V104.768H206.05V103.648L209.906 95.48H211.226L207.37 103.648H211.442V100.288H212.626V103.648H213.882V104.768H212.626V107H211.442ZM222.363 107.24C221.557 107.24 220.867 107.04 220.291 106.64C219.72 106.235 219.283 105.688 218.979 105C218.68 104.312 218.531 103.536 218.531 102.672C218.531 101.813 218.68 101.04 218.979 100.352C219.283 99.664 219.717 99.12 220.283 98.72C220.848 98.32 221.525 98.12 222.315 98.12C222.917 98.12 223.448 98.232 223.907 98.456C224.365 98.68 224.752 98.9893 225.067 99.384V95.48H226.251V107H225.195V105.8C224.88 106.248 224.485 106.6 224.011 106.856C223.541 107.112 222.992 107.24 222.363 107.24ZM222.483 106.144C223.096 106.144 223.603 105.995 224.003 105.696C224.403 105.392 224.701 104.979 224.899 104.456C225.096 103.933 225.195 103.339 225.195 102.672C225.195 101.659 224.971 100.829 224.523 100.184C224.08 99.5387 223.408 99.216 222.507 99.216C221.888 99.216 221.376 99.368 220.971 99.672C220.571 99.976 220.272 100.389 220.075 100.912C219.877 101.435 219.779 102.021 219.779 102.672C219.779 103.328 219.877 103.917 220.075 104.44C220.277 104.963 220.579 105.379 220.979 105.688C221.379 105.992 221.88 106.144 222.483 106.144ZM230.967 107.24C230.316 107.24 229.77 107.123 229.327 106.888C228.89 106.653 228.562 106.341 228.343 105.952C228.124 105.563 228.015 105.139 228.015 104.68C228.015 103.971 228.22 103.419 228.631 103.024C229.042 102.624 229.57 102.339 230.215 102.168C230.604 102.072 231.031 101.987 231.495 101.912C231.959 101.837 232.42 101.771 232.879 101.712C233.343 101.653 233.767 101.6 234.151 101.552C234.14 100.768 233.959 100.187 233.607 99.808C233.255 99.424 232.668 99.232 231.847 99.232C231.255 99.232 230.754 99.3653 230.343 99.632C229.938 99.8987 229.652 100.32 229.487 100.896L228.343 100.56C228.54 99.7867 228.938 99.1867 229.535 98.76C230.132 98.3333 230.908 98.12 231.863 98.12C232.652 98.12 233.322 98.2693 233.871 98.568C234.426 98.8613 234.818 99.288 235.047 99.848C235.154 100.099 235.223 100.379 235.255 100.688C235.287 100.997 235.303 101.312 235.303 101.632V107H234.255V105.576C233.572 106.685 232.476 107.24 230.967 107.24ZM231.103 106.224C231.93 106.224 232.594 106.008 233.095 105.576C233.602 105.144 233.911 104.603 234.023 103.952C234.071 103.739 234.1 103.507 234.111 103.256C234.127 103 234.135 102.773 234.135 102.576C233.57 102.645 232.972 102.72 232.343 102.8C231.714 102.88 231.162 102.984 230.687 103.112C230.319 103.219 229.978 103.389 229.663 103.624C229.348 103.859 229.191 104.211 229.191 104.68C229.191 104.931 229.252 105.173 229.375 105.408C229.503 105.643 229.706 105.837 229.983 105.992C230.266 106.147 230.639 106.224 231.103 106.224ZM238.133 110.84L239.557 106.984L236.045 98.36H237.293L240.125 105.464L242.749 98.36H243.949L239.309 110.84H238.133ZM248.563 107.232C247.549 107.232 246.715 107.013 246.059 106.576C245.408 106.139 245.008 105.531 244.859 104.752L246.059 104.552C246.187 105.048 246.477 105.44 246.931 105.728C247.389 106.016 247.955 106.16 248.627 106.16C249.283 106.16 249.8 106.024 250.179 105.752C250.557 105.475 250.747 105.099 250.747 104.624C250.747 104.357 250.685 104.141 250.563 103.976C250.44 103.805 250.195 103.648 249.827 103.504C249.464 103.36 248.917 103.189 248.187 102.992C247.403 102.779 246.787 102.565 246.339 102.352C245.896 102.139 245.581 101.893 245.395 101.616C245.213 101.333 245.123 100.989 245.123 100.584C245.123 99.848 245.424 99.2533 246.027 98.8C246.635 98.3467 247.427 98.12 248.403 98.12C249.053 98.12 249.635 98.2267 250.147 98.44C250.664 98.648 251.08 98.9413 251.395 99.32C251.709 99.6987 251.896 100.139 251.955 100.64L250.755 100.856C250.669 100.349 250.416 99.9493 249.995 99.656C249.573 99.3573 249.037 99.2027 248.387 99.192C247.773 99.176 247.275 99.2933 246.891 99.544C246.507 99.7893 246.315 100.117 246.315 100.528C246.315 100.757 246.384 100.955 246.523 101.12C246.661 101.28 246.912 101.432 247.275 101.576C247.643 101.72 248.165 101.877 248.843 102.048C249.637 102.251 250.261 102.464 250.715 102.688C251.168 102.912 251.491 103.176 251.683 103.48C251.875 103.784 251.971 104.16 251.971 104.608C251.971 105.424 251.667 106.067 251.059 106.536C250.456 107 249.624 107.232 248.563 107.232Z" fill="#12223C"/>
</svg>
