<svg width="570" height="229" viewBox="0 0 570 229" fill="none" xmlns="http://www.w3.org/2000/svg">
<rect x="292" y="89" width="52" height="129" fill="#317463"/>
<rect x="179" y="51" width="52" height="167" fill="#2D4F8F"/>
<path d="M193.053 77L196.67 69.8409V69.7812H192.456V68.2727H198.58V69.8026L194.957 77H193.053ZM202.914 77.1193C202.312 77.1193 201.775 77.0085 201.304 76.7869C200.835 76.5653 200.463 76.2599 200.187 75.8707C199.912 75.4815 199.768 75.0355 199.757 74.5327H201.547C201.566 74.8707 201.708 75.1449 201.973 75.3551C202.237 75.5653 202.551 75.6705 202.914 75.6705C203.204 75.6705 203.46 75.6065 203.681 75.4787C203.906 75.348 204.081 75.1676 204.206 74.9375C204.333 74.7045 204.397 74.4375 204.397 74.1364C204.397 73.8295 204.332 73.5597 204.201 73.3267C204.074 73.0937 203.896 72.9119 203.669 72.7812C203.441 72.6506 203.181 72.5838 202.889 72.581C202.633 72.581 202.385 72.6335 202.143 72.7386C201.904 72.8437 201.718 72.9872 201.585 73.169L199.944 72.875L200.358 68.2727H205.693V69.7812H201.879L201.653 71.9673H201.704C201.858 71.7514 202.089 71.5724 202.399 71.4304C202.708 71.2884 203.055 71.2173 203.439 71.2173C203.964 71.2173 204.433 71.3409 204.845 71.5881C205.257 71.8352 205.582 72.1747 205.821 72.6065C206.059 73.0355 206.177 73.5298 206.174 74.0895C206.177 74.6776 206.041 75.2003 205.765 75.6577C205.493 76.1122 205.11 76.4702 204.619 76.7315C204.13 76.9901 203.562 77.1193 202.914 77.1193ZM212.238 75.3636V74.9034C212.238 74.554 212.312 74.233 212.46 73.9403C212.61 73.6449 212.828 73.4091 213.112 73.233C213.399 73.054 213.748 72.9645 214.16 72.9645C214.578 72.9645 214.929 73.0526 215.213 73.2287C215.5 73.4048 215.716 73.6406 215.86 73.9361C216.008 74.2287 216.082 74.5511 216.082 74.9034V75.3636C216.082 75.7131 216.008 76.0355 215.86 76.331C215.713 76.6236 215.495 76.858 215.208 77.0341C214.922 77.2131 214.572 77.3026 214.16 77.3026C213.743 77.3026 213.392 77.2131 213.108 77.0341C212.824 76.858 212.608 76.6236 212.46 76.331C212.312 76.0355 212.238 75.7131 212.238 75.3636ZM213.478 74.9034V75.3636C213.478 75.5653 213.527 75.7557 213.623 75.9347C213.723 76.1136 213.902 76.2031 214.16 76.2031C214.419 76.2031 214.595 76.1151 214.689 75.9389C214.785 75.7628 214.833 75.571 214.833 75.3636V74.9034C214.833 74.696 214.788 74.5028 214.697 74.3239C214.606 74.1449 214.427 74.0554 214.16 74.0554C213.904 74.0554 213.727 74.1449 213.627 74.3239C213.528 74.5028 213.478 74.696 213.478 74.9034ZM207.76 70.3693V69.9091C207.76 69.5568 207.835 69.2344 207.985 68.9418C208.136 68.6463 208.353 68.4105 208.637 68.2344C208.924 68.0582 209.271 67.9702 209.677 67.9702C210.098 67.9702 210.45 68.0582 210.734 68.2344C211.018 68.4105 211.234 68.6463 211.382 68.9418C211.529 69.2344 211.603 69.5568 211.603 69.9091V70.3693C211.603 70.7216 211.528 71.044 211.377 71.3366C211.23 71.6293 211.012 71.8636 210.725 72.0398C210.441 72.2131 210.092 72.2997 209.677 72.2997C209.262 72.2997 208.912 72.2116 208.625 72.0355C208.341 71.8565 208.125 71.6222 207.977 71.3324C207.832 71.0398 207.76 70.7187 207.76 70.3693ZM209.008 69.9091V70.3693C209.008 70.5767 209.056 70.7685 209.153 70.9446C209.252 71.1207 209.427 71.2088 209.677 71.2088C209.939 71.2088 210.116 71.1207 210.21 70.9446C210.306 70.7685 210.355 70.5767 210.355 70.3693V69.9091C210.355 69.7017 210.309 69.5085 210.218 69.3295C210.127 69.1506 209.947 69.0611 209.677 69.0611C209.424 69.0611 209.25 69.152 209.153 69.3338C209.056 69.5156 209.008 69.7074 209.008 69.9091ZM208.322 77L214.322 68.2727H215.439L209.439 77H208.322Z" fill="#F7F5F5"/>
<path d="M185.852 211H182.759V202.273H185.878C186.756 202.273 187.511 202.447 188.145 202.797C188.778 203.143 189.266 203.642 189.607 204.293C189.95 204.943 190.122 205.722 190.122 206.628C190.122 207.537 189.95 208.318 189.607 208.972C189.266 209.625 188.776 210.126 188.136 210.476C187.5 210.825 186.739 211 185.852 211ZM184.604 209.419H185.776C186.321 209.419 186.78 209.322 187.152 209.129C187.527 208.933 187.808 208.631 187.996 208.222C188.186 207.81 188.281 207.278 188.281 206.628C188.281 205.983 188.186 205.456 187.996 205.047C187.808 204.638 187.528 204.337 187.156 204.143C186.784 203.95 186.325 203.854 185.78 203.854H184.604V209.419ZM193.334 202.273V211H191.489V202.273H193.334ZM200.639 205.094C200.58 204.886 200.496 204.703 200.388 204.544C200.28 204.382 200.148 204.246 199.991 204.135C199.838 204.021 199.662 203.935 199.463 203.875C199.267 203.815 199.05 203.786 198.811 203.786C198.365 203.786 197.973 203.896 197.635 204.118C197.3 204.339 197.038 204.662 196.851 205.085C196.663 205.506 196.57 206.02 196.57 206.628C196.57 207.236 196.662 207.753 196.847 208.179C197.031 208.605 197.293 208.93 197.631 209.155C197.969 209.376 198.368 209.487 198.828 209.487C199.246 209.487 199.602 209.413 199.898 209.266C200.196 209.115 200.423 208.903 200.58 208.631C200.739 208.358 200.818 208.036 200.818 207.663L201.193 207.719H198.943V206.33H202.595V207.429C202.595 208.196 202.433 208.855 202.109 209.406C201.786 209.955 201.339 210.378 200.771 210.676C200.203 210.972 199.553 211.119 198.82 211.119C198.001 211.119 197.283 210.939 196.663 210.578C196.044 210.214 195.561 209.699 195.214 209.031C194.871 208.361 194.699 207.565 194.699 206.645C194.699 205.937 194.801 205.307 195.006 204.753C195.213 204.196 195.503 203.724 195.875 203.338C196.247 202.952 196.68 202.658 197.175 202.456C197.669 202.254 198.205 202.153 198.781 202.153C199.276 202.153 199.736 202.226 200.162 202.371C200.588 202.513 200.966 202.714 201.295 202.976C201.628 203.237 201.899 203.548 202.109 203.909C202.32 204.267 202.455 204.662 202.514 205.094H200.639ZM205.826 202.273V211H203.981V202.273H205.826ZM207.012 203.794V202.273H214.18V203.794H211.508V211H209.684V203.794H207.012ZM215.798 211H213.821L216.833 202.273H219.211L222.22 211H220.243L218.056 204.267H217.988L215.798 211ZM215.674 207.57H220.345V209.01H215.674V207.57ZM223.27 211V202.273H225.115V209.479H228.857V211H223.27Z" fill="#F7F5F5"/>
<rect x="405" y="111" width="52" height="107" fill="#EBBE4B"/>
<path d="M118 218H457" stroke="#272741" stroke-width="2"/>
<path d="M113.667 218C113.667 220.946 116.054 223.333 119 223.333C121.946 223.333 124.333 220.946 124.333 218C124.333 215.054 121.946 212.667 119 212.667C116.054 212.667 113.667 215.054 113.667 218ZM120 18C120 17.4477 119.552 17 119 17C118.448 17 118 17.4477 118 18H120ZM120 218V18H118V218H120Z" fill="#272741"/>
<circle cx="118.5" cy="125.5" r="2.5" fill="#12223C"/>
<circle cx="118.5" cy="180.5" r="2.5" fill="#12223C"/>
<circle cx="118.5" cy="70.5" r="2.5" fill="#12223C"/>
<path d="M118.855 11.9545V11.3793C118.855 10.9425 118.948 10.5412 119.132 10.1754C119.321 9.80611 119.592 9.51136 119.947 9.29119C120.306 9.06747 120.743 8.95561 121.258 8.95561C121.78 8.95561 122.218 9.0657 122.574 9.28587C122.932 9.50604 123.202 9.80078 123.383 10.1701C123.568 10.5359 123.66 10.9389 123.66 11.3793V11.9545C123.66 12.3913 123.568 12.7944 123.383 13.1637C123.199 13.5295 122.927 13.8224 122.568 14.0426C122.21 14.2663 121.773 14.3782 121.258 14.3782C120.736 14.3782 120.297 14.2663 119.942 14.0426C119.587 13.8224 119.317 13.5295 119.132 13.1637C118.948 12.7944 118.855 12.3913 118.855 11.9545ZM120.406 11.3793V11.9545C120.406 12.2067 120.466 12.4446 120.587 12.6683C120.711 12.892 120.935 13.0039 121.258 13.0039C121.581 13.0039 121.801 12.8938 121.918 12.6737C122.039 12.4535 122.099 12.2138 122.099 11.9545V11.3793C122.099 11.12 122.043 10.8786 121.929 10.6548C121.815 10.4311 121.592 10.3192 121.258 10.3192C120.938 10.3192 120.716 10.4311 120.592 10.6548C120.468 10.8786 120.406 11.12 120.406 11.3793ZM113.257 5.71165V5.13636C113.257 4.69602 113.351 4.29297 113.539 3.9272C113.728 3.55788 113.999 3.26314 114.354 3.04297C114.713 2.8228 115.146 2.71271 115.654 2.71271C116.18 2.71271 116.62 2.8228 116.975 3.04297C117.33 3.26314 117.6 3.55788 117.785 3.9272C117.969 4.29297 118.062 4.69602 118.062 5.13636V5.71165C118.062 6.15199 117.968 6.55504 117.779 6.92081C117.595 7.28658 117.323 7.57955 116.964 7.79972C116.609 8.01634 116.173 8.12464 115.654 8.12464C115.136 8.12464 114.697 8.01456 114.338 7.79439C113.983 7.57067 113.713 7.2777 113.529 6.91548C113.348 6.54972 113.257 6.14844 113.257 5.71165ZM114.818 5.13636V5.71165C114.818 5.97088 114.878 6.21058 114.999 6.43075C115.123 6.65092 115.342 6.76101 115.654 6.76101C115.981 6.76101 116.203 6.65092 116.32 6.43075C116.441 6.21058 116.501 5.97088 116.501 5.71165V5.13636C116.501 4.87713 116.444 4.63565 116.331 4.41193C116.217 4.18821 115.991 4.07635 115.654 4.07635C115.338 4.07635 115.12 4.18999 114.999 4.41726C114.878 4.64453 114.818 4.88423 114.818 5.13636ZM113.96 14L121.46 3.09091H122.856L115.356 14H113.96Z" fill="#272741"/>
<path d="M297.759 211V202.273H301.202C301.861 202.273 302.423 202.391 302.889 202.626C303.358 202.859 303.714 203.19 303.959 203.619C304.206 204.045 304.33 204.547 304.33 205.124C304.33 205.703 304.205 206.202 303.955 206.619C303.705 207.034 303.342 207.352 302.868 207.574C302.396 207.795 301.825 207.906 301.155 207.906H298.849V206.423H300.857C301.209 206.423 301.501 206.375 301.734 206.278C301.967 206.182 302.141 206.037 302.254 205.844C302.371 205.651 302.429 205.411 302.429 205.124C302.429 204.834 302.371 204.589 302.254 204.391C302.141 204.192 301.966 204.041 301.73 203.939C301.497 203.834 301.203 203.781 300.848 203.781H299.604V211H297.759ZM302.472 207.028L304.641 211H302.604L300.482 207.028H302.472ZM305.634 211V202.273H311.514V203.794H307.479V205.874H311.212V207.395H307.479V209.479H311.531V211H305.634ZM312.649 203.794V202.273H319.816V203.794H317.145V211H315.321V203.794H312.649ZM320.997 211V202.273H324.44C325.099 202.273 325.662 202.391 326.127 202.626C326.596 202.859 326.953 203.19 327.197 203.619C327.444 204.045 327.568 204.547 327.568 205.124C327.568 205.703 327.443 206.202 327.193 206.619C326.943 207.034 326.581 207.352 326.106 207.574C325.635 207.795 325.064 207.906 324.393 207.906H322.088V206.423H324.095C324.447 206.423 324.74 206.375 324.973 206.278C325.206 206.182 325.379 206.037 325.493 205.844C325.609 205.651 325.667 205.411 325.667 205.124C325.667 204.834 325.609 204.589 325.493 204.391C325.379 204.192 325.204 204.041 324.968 203.939C324.735 203.834 324.441 203.781 324.086 203.781H322.842V211H320.997ZM325.71 207.028L327.879 211H325.842L323.72 207.028H325.71ZM336.892 206.636C336.892 207.588 336.711 208.398 336.35 209.065C335.993 209.733 335.504 210.243 334.885 210.595C334.268 210.945 333.575 211.119 332.805 211.119C332.029 211.119 331.333 210.943 330.717 210.591C330.1 210.239 329.613 209.729 329.255 209.061C328.897 208.393 328.718 207.585 328.718 206.636C328.718 205.685 328.897 204.875 329.255 204.207C329.613 203.54 330.1 203.031 330.717 202.682C331.333 202.33 332.029 202.153 332.805 202.153C333.575 202.153 334.268 202.33 334.885 202.682C335.504 203.031 335.993 203.54 336.35 204.207C336.711 204.875 336.892 205.685 336.892 206.636ZM335.021 206.636C335.021 206.02 334.929 205.5 334.744 205.077C334.562 204.653 334.305 204.332 333.973 204.114C333.64 203.895 333.251 203.786 332.805 203.786C332.359 203.786 331.97 203.895 331.637 204.114C331.305 204.332 331.047 204.653 330.862 205.077C330.68 205.5 330.589 206.02 330.589 206.636C330.589 207.253 330.68 207.773 330.862 208.196C331.047 208.619 331.305 208.94 331.637 209.159C331.97 209.378 332.359 209.487 332.805 209.487C333.251 209.487 333.64 209.378 333.973 209.159C334.305 208.94 334.562 208.619 334.744 208.196C334.929 207.773 335.021 207.253 335.021 206.636Z" fill="#F7F5F5"/>
<path d="M308.057 111.119C307.608 111.116 307.175 111.041 306.757 110.893C306.342 110.746 305.97 110.506 305.641 110.173C305.311 109.841 305.05 109.401 304.857 108.852C304.666 108.304 304.571 107.631 304.571 106.832C304.574 106.099 304.658 105.445 304.822 104.868C304.99 104.288 305.229 103.797 305.538 103.393C305.851 102.99 306.224 102.683 306.659 102.473C307.094 102.26 307.581 102.153 308.121 102.153C308.703 102.153 309.217 102.267 309.663 102.494C310.109 102.719 310.467 103.024 310.737 103.411C311.01 103.797 311.175 104.23 311.232 104.71H309.412C309.341 104.406 309.192 104.168 308.964 103.994C308.737 103.821 308.456 103.734 308.121 103.734C307.553 103.734 307.121 103.982 306.825 104.476C306.533 104.97 306.384 105.642 306.378 106.491H306.438C306.568 106.233 306.744 106.013 306.966 105.831C307.19 105.646 307.445 105.506 307.729 105.409C308.016 105.31 308.318 105.26 308.636 105.26C309.153 105.26 309.614 105.382 310.017 105.626C310.42 105.868 310.739 106.2 310.972 106.624C311.205 107.047 311.321 107.531 311.321 108.077C311.321 108.668 311.183 109.193 310.908 109.653C310.635 110.114 310.253 110.474 309.761 110.736C309.273 110.994 308.705 111.122 308.057 111.119ZM308.048 109.67C308.332 109.67 308.587 109.602 308.811 109.466C309.036 109.33 309.212 109.145 309.339 108.912C309.467 108.679 309.531 108.418 309.531 108.128C309.531 107.838 309.467 107.578 309.339 107.348C309.214 107.118 309.041 106.935 308.82 106.798C308.598 106.662 308.345 106.594 308.061 106.594C307.848 106.594 307.651 106.634 307.469 106.713C307.29 106.793 307.132 106.903 306.996 107.045C306.862 107.187 306.757 107.352 306.68 107.54C306.604 107.724 306.565 107.922 306.565 108.132C306.565 108.413 306.629 108.67 306.757 108.903C306.888 109.136 307.064 109.322 307.286 109.462C307.51 109.601 307.764 109.67 308.048 109.67ZM315.885 111.119C315.229 111.119 314.645 111.013 314.134 110.8C313.625 110.584 313.226 110.29 312.936 109.918C312.646 109.545 312.501 109.124 312.501 108.652C312.501 108.288 312.584 107.955 312.749 107.651C312.916 107.344 313.143 107.089 313.43 106.888C313.717 106.683 314.038 106.553 314.393 106.496V106.436C313.928 106.342 313.55 106.116 313.26 105.759C312.97 105.398 312.825 104.979 312.825 104.501C312.825 104.05 312.957 103.648 313.222 103.295C313.486 102.94 313.848 102.662 314.308 102.46C314.771 102.256 315.297 102.153 315.885 102.153C316.473 102.153 316.997 102.256 317.457 102.46C317.92 102.665 318.284 102.945 318.548 103.3C318.813 103.652 318.946 104.053 318.949 104.501C318.946 104.982 318.798 105.401 318.506 105.759C318.213 106.116 317.838 106.342 317.381 106.436V106.496C317.73 106.553 318.047 106.683 318.331 106.888C318.618 107.089 318.845 107.344 319.013 107.651C319.183 107.955 319.27 108.288 319.273 108.652C319.27 109.124 319.124 109.545 318.834 109.918C318.544 110.29 318.143 110.584 317.632 110.8C317.124 111.013 316.541 111.119 315.885 111.119ZM315.885 109.764C316.178 109.764 316.433 109.712 316.652 109.607C316.871 109.499 317.041 109.351 317.163 109.163C317.288 108.973 317.351 108.754 317.351 108.507C317.351 108.254 317.287 108.031 317.159 107.838C317.031 107.642 316.858 107.489 316.639 107.378C316.42 107.264 316.169 107.207 315.885 107.207C315.604 107.207 315.352 107.264 315.131 107.378C314.909 107.489 314.734 107.642 314.607 107.838C314.482 108.031 314.419 108.254 314.419 108.507C314.419 108.754 314.48 108.973 314.602 109.163C314.724 109.351 314.896 109.499 315.118 109.607C315.339 109.712 315.595 109.764 315.885 109.764ZM315.885 105.865C316.129 105.865 316.347 105.815 316.537 105.716C316.727 105.616 316.876 105.479 316.984 105.303C317.092 105.126 317.146 104.923 317.146 104.693C317.146 104.466 317.092 104.267 316.984 104.097C316.876 103.923 316.729 103.788 316.541 103.692C316.354 103.592 316.135 103.543 315.885 103.543C315.638 103.543 315.419 103.592 315.229 103.692C315.038 103.788 314.889 103.923 314.781 104.097C314.676 104.267 314.624 104.466 314.624 104.693C314.624 104.923 314.678 105.126 314.786 105.303C314.893 105.479 315.043 105.616 315.233 105.716C315.423 105.815 315.641 105.865 315.885 105.865ZM325.34 109.364V108.903C325.34 108.554 325.414 108.233 325.561 107.94C325.712 107.645 325.929 107.409 326.213 107.233C326.5 107.054 326.85 106.964 327.262 106.964C327.679 106.964 328.03 107.053 328.314 107.229C328.601 107.405 328.817 107.641 328.962 107.936C329.11 108.229 329.184 108.551 329.184 108.903V109.364C329.184 109.713 329.11 110.036 328.962 110.331C328.814 110.624 328.597 110.858 328.31 111.034C328.023 111.213 327.674 111.303 327.262 111.303C326.844 111.303 326.493 111.213 326.209 111.034C325.925 110.858 325.709 110.624 325.561 110.331C325.414 110.036 325.34 109.713 325.34 109.364ZM326.58 108.903V109.364C326.58 109.565 326.628 109.756 326.725 109.935C326.824 110.114 327.003 110.203 327.262 110.203C327.52 110.203 327.696 110.115 327.79 109.939C327.887 109.763 327.935 109.571 327.935 109.364V108.903C327.935 108.696 327.89 108.503 327.799 108.324C327.708 108.145 327.529 108.055 327.262 108.055C327.006 108.055 326.828 108.145 326.729 108.324C326.63 108.503 326.58 108.696 326.58 108.903ZM320.861 104.369V103.909C320.861 103.557 320.936 103.234 321.087 102.942C321.238 102.646 321.455 102.411 321.739 102.234C322.026 102.058 322.373 101.97 322.779 101.97C323.199 101.97 323.551 102.058 323.836 102.234C324.12 102.411 324.336 102.646 324.483 102.942C324.631 103.234 324.705 103.557 324.705 103.909V104.369C324.705 104.722 324.63 105.044 324.479 105.337C324.331 105.629 324.114 105.864 323.827 106.04C323.543 106.213 323.194 106.3 322.779 106.3C322.364 106.3 322.013 106.212 321.726 106.036C321.442 105.857 321.226 105.622 321.078 105.332C320.934 105.04 320.861 104.719 320.861 104.369ZM322.11 103.909V104.369C322.11 104.577 322.158 104.768 322.255 104.945C322.354 105.121 322.529 105.209 322.779 105.209C323.04 105.209 323.218 105.121 323.311 104.945C323.408 104.768 323.456 104.577 323.456 104.369V103.909C323.456 103.702 323.411 103.509 323.32 103.33C323.229 103.151 323.049 103.061 322.779 103.061C322.526 103.061 322.351 103.152 322.255 103.334C322.158 103.516 322.11 103.707 322.11 103.909ZM321.424 111L327.424 102.273H328.54L322.54 111H321.424Z" fill="#F7F5F5"/>
<path d="M418.459 205.328H416.592C416.558 205.087 416.489 204.872 416.384 204.685C416.278 204.494 416.143 204.332 415.979 204.199C415.814 204.065 415.624 203.963 415.408 203.892C415.195 203.821 414.963 203.786 414.713 203.786C414.261 203.786 413.868 203.898 413.533 204.122C413.197 204.344 412.938 204.668 412.753 205.094C412.568 205.517 412.476 206.031 412.476 206.636C412.476 207.259 412.568 207.781 412.753 208.205C412.94 208.628 413.202 208.947 413.537 209.163C413.872 209.379 414.26 209.487 414.7 209.487C414.947 209.487 415.176 209.455 415.386 209.389C415.599 209.324 415.788 209.229 415.953 209.104C416.118 208.976 416.254 208.821 416.362 208.639C416.473 208.457 416.55 208.25 416.592 208.017L418.459 208.026C418.411 208.426 418.29 208.812 418.097 209.185C417.906 209.554 417.649 209.885 417.325 210.178C417.004 210.467 416.621 210.697 416.175 210.868C415.732 211.036 415.23 211.119 414.67 211.119C413.892 211.119 413.196 210.943 412.582 210.591C411.972 210.239 411.489 209.729 411.134 209.061C410.781 208.393 410.605 207.585 410.605 206.636C410.605 205.685 410.784 204.875 411.142 204.207C411.5 203.54 411.986 203.031 412.599 202.682C413.213 202.33 413.903 202.153 414.67 202.153C415.176 202.153 415.645 202.224 416.077 202.366C416.511 202.509 416.896 202.716 417.232 202.989C417.567 203.259 417.839 203.589 418.05 203.982C418.263 204.374 418.399 204.822 418.459 205.328ZM419.782 211V202.273H421.627V209.479H425.369V211H419.782ZM426.591 211V202.273H432.471V203.794H428.436V205.874H432.169V207.395H428.436V209.479H432.488V211H426.591ZM435.442 211H433.465L436.478 202.273H438.856L441.864 211H439.887L437.701 204.267H437.633L435.442 211ZM435.319 207.57H439.989V209.01H435.319V207.57ZM442.915 211V202.273H446.358C447.017 202.273 447.58 202.391 448.045 202.626C448.514 202.859 448.871 203.19 449.115 203.619C449.362 204.045 449.486 204.547 449.486 205.124C449.486 205.703 449.361 206.202 449.111 206.619C448.861 207.034 448.499 207.352 448.024 207.574C447.553 207.795 446.982 207.906 446.311 207.906H444.006V206.423H446.013C446.365 206.423 446.658 206.375 446.891 206.278C447.124 206.182 447.297 206.037 447.411 205.844C447.527 205.651 447.585 205.411 447.585 205.124C447.585 204.834 447.527 204.589 447.411 204.391C447.297 204.192 447.122 204.041 446.886 203.939C446.653 203.834 446.359 203.781 446.004 203.781H444.76V211H442.915ZM447.628 207.028L449.797 211H447.76L445.638 207.028H447.628Z" fill="#272741"/>
<path d="M421.057 130.119C420.608 130.116 420.175 130.041 419.757 129.893C419.342 129.746 418.97 129.506 418.641 129.173C418.311 128.841 418.05 128.401 417.857 127.852C417.666 127.304 417.571 126.631 417.571 125.832C417.574 125.099 417.658 124.445 417.822 123.868C417.99 123.288 418.229 122.797 418.538 122.393C418.851 121.99 419.224 121.683 419.659 121.473C420.094 121.26 420.581 121.153 421.121 121.153C421.703 121.153 422.217 121.267 422.663 121.494C423.109 121.719 423.467 122.024 423.737 122.411C424.01 122.797 424.175 123.23 424.232 123.71H422.412C422.341 123.406 422.192 123.168 421.964 122.994C421.737 122.821 421.456 122.734 421.121 122.734C420.553 122.734 420.121 122.982 419.825 123.476C419.533 123.97 419.384 124.642 419.378 125.491H419.438C419.568 125.233 419.744 125.013 419.966 124.831C420.19 124.646 420.445 124.506 420.729 124.409C421.016 124.31 421.318 124.26 421.636 124.26C422.153 124.26 422.614 124.382 423.017 124.626C423.42 124.868 423.739 125.2 423.972 125.624C424.205 126.047 424.321 126.531 424.321 127.077C424.321 127.668 424.183 128.193 423.908 128.653C423.635 129.114 423.253 129.474 422.761 129.736C422.273 129.994 421.705 130.122 421.057 130.119ZM421.048 128.67C421.332 128.67 421.587 128.602 421.811 128.466C422.036 128.33 422.212 128.145 422.339 127.912C422.467 127.679 422.531 127.418 422.531 127.128C422.531 126.838 422.467 126.578 422.339 126.348C422.214 126.118 422.041 125.935 421.82 125.798C421.598 125.662 421.345 125.594 421.061 125.594C420.848 125.594 420.651 125.634 420.469 125.713C420.29 125.793 420.132 125.903 419.996 126.045C419.862 126.187 419.757 126.352 419.68 126.54C419.604 126.724 419.565 126.922 419.565 127.132C419.565 127.413 419.629 127.67 419.757 127.903C419.888 128.136 420.064 128.322 420.286 128.462C420.51 128.601 420.764 128.67 421.048 128.67ZM429.051 130.192C428.318 130.189 427.688 130.009 427.159 129.651C426.634 129.293 426.229 128.774 425.945 128.095C425.663 127.416 425.524 126.599 425.527 125.645C425.527 124.693 425.668 123.882 425.949 123.212C426.233 122.541 426.638 122.031 427.163 121.682C427.692 121.33 428.321 121.153 429.051 121.153C429.781 121.153 430.409 121.33 430.935 121.682C431.463 122.034 431.869 122.545 432.153 123.216C432.438 123.884 432.578 124.693 432.575 125.645C432.575 126.602 432.433 127.42 432.149 128.099C431.868 128.778 431.464 129.297 430.939 129.655C430.413 130.013 429.784 130.192 429.051 130.192ZM429.051 128.662C429.551 128.662 429.95 128.411 430.249 127.908C430.547 127.405 430.695 126.651 430.692 125.645C430.692 124.983 430.624 124.432 430.487 123.991C430.354 123.551 430.163 123.22 429.916 122.999C429.672 122.777 429.384 122.666 429.051 122.666C428.554 122.666 428.156 122.915 427.858 123.412C427.56 123.909 427.409 124.653 427.406 125.645C427.406 126.315 427.473 126.875 427.607 127.324C427.743 127.77 427.935 128.105 428.182 128.33C428.429 128.551 428.719 128.662 429.051 128.662ZM438.668 128.364V127.903C438.668 127.554 438.742 127.233 438.89 126.94C439.04 126.645 439.257 126.409 439.542 126.233C439.828 126.054 440.178 125.964 440.59 125.964C441.007 125.964 441.358 126.053 441.642 126.229C441.929 126.405 442.145 126.641 442.29 126.936C442.438 127.229 442.512 127.551 442.512 127.903V128.364C442.512 128.713 442.438 129.036 442.29 129.331C442.142 129.624 441.925 129.858 441.638 130.034C441.351 130.213 441.002 130.303 440.59 130.303C440.172 130.303 439.821 130.213 439.537 130.034C439.253 129.858 439.037 129.624 438.89 129.331C438.742 129.036 438.668 128.713 438.668 128.364ZM439.908 127.903V128.364C439.908 128.565 439.956 128.756 440.053 128.935C440.152 129.114 440.331 129.203 440.59 129.203C440.848 129.203 441.025 129.115 441.118 128.939C441.215 128.763 441.263 128.571 441.263 128.364V127.903C441.263 127.696 441.218 127.503 441.127 127.324C441.036 127.145 440.857 127.055 440.59 127.055C440.334 127.055 440.157 127.145 440.057 127.324C439.958 127.503 439.908 127.696 439.908 127.903ZM434.189 123.369V122.909C434.189 122.557 434.265 122.234 434.415 121.942C434.566 121.646 434.783 121.411 435.067 121.234C435.354 121.058 435.701 120.97 436.107 120.97C436.527 120.97 436.88 121.058 437.164 121.234C437.448 121.411 437.664 121.646 437.811 121.942C437.959 122.234 438.033 122.557 438.033 122.909V123.369C438.033 123.722 437.958 124.044 437.807 124.337C437.659 124.629 437.442 124.864 437.155 125.04C436.871 125.213 436.522 125.3 436.107 125.3C435.692 125.3 435.341 125.212 435.054 125.036C434.77 124.857 434.554 124.622 434.407 124.332C434.262 124.04 434.189 123.719 434.189 123.369ZM435.438 122.909V123.369C435.438 123.577 435.486 123.768 435.583 123.945C435.682 124.121 435.857 124.209 436.107 124.209C436.368 124.209 436.546 124.121 436.64 123.945C436.736 123.768 436.784 123.577 436.784 123.369V122.909C436.784 122.702 436.739 122.509 436.648 122.33C436.557 122.151 436.377 122.061 436.107 122.061C435.854 122.061 435.679 122.152 435.583 122.334C435.486 122.516 435.438 122.707 435.438 122.909ZM434.752 130L440.752 121.273H441.868L435.868 130H434.752Z" fill="black"/>
</svg>
