<svg width="776" height="121" viewBox="0 0 776 121" fill="none" xmlns="http://www.w3.org/2000/svg">
<rect x="171.5" y="43.5" width="91" height="34" rx="17" fill="#FAEAD4"/>
<rect x="171.5" y="43.5" width="91" height="34" rx="17" stroke="#7D5606"/>
<path d="M180.6 68V53.6H182.07V68H180.6ZM189.258 68.3C188.251 68.3 187.388 68.05 186.668 67.55C185.955 67.0433 185.408 66.36 185.028 65.5C184.655 64.64 184.468 63.67 184.468 62.59C184.468 61.5167 184.655 60.55 185.028 59.69C185.408 58.83 185.951 58.15 186.658 57.65C187.365 57.15 188.211 56.9 189.198 56.9C189.951 56.9 190.615 57.04 191.188 57.32C191.761 57.6 192.245 57.9867 192.638 58.48V53.6H194.118V68H192.798V66.5C192.405 67.06 191.911 67.5 191.318 67.82C190.731 68.14 190.045 68.3 189.258 68.3ZM189.408 66.93C190.175 66.93 190.808 66.7433 191.308 66.37C191.808 65.99 192.181 65.4733 192.428 64.82C192.675 64.1667 192.798 63.4233 192.798 62.59C192.798 61.3233 192.518 60.2867 191.958 59.48C191.405 58.6733 190.565 58.27 189.438 58.27C188.665 58.27 188.025 58.46 187.518 58.84C187.018 59.22 186.645 59.7367 186.398 60.39C186.151 61.0433 186.028 61.7767 186.028 62.59C186.028 63.41 186.151 64.1467 186.398 64.8C186.651 65.4533 187.028 65.9733 187.528 66.36C188.028 66.74 188.655 66.93 189.408 66.93ZM201.493 68.3C200.44 68.3 199.527 68.0667 198.753 67.6C197.98 67.1333 197.38 66.4767 196.953 65.63C196.533 64.7833 196.323 63.79 196.323 62.65C196.323 61.47 196.533 60.45 196.953 59.59C197.373 58.73 197.963 58.0667 198.723 57.6C199.49 57.1333 200.393 56.9 201.433 56.9C203.033 56.9 204.273 57.4433 205.153 58.53C206.04 59.61 206.457 61.1033 206.403 63.01H197.893C197.953 64.25 198.29 65.2067 198.903 65.88C199.517 66.5533 200.36 66.89 201.433 66.89C203.007 66.89 204.137 66.1967 204.823 64.81L206.193 65.34C205.767 66.28 205.137 67.01 204.303 67.53C203.477 68.0433 202.54 68.3 201.493 68.3ZM201.473 58.25C200.433 58.25 199.61 58.5567 199.003 59.17C198.397 59.7767 198.037 60.6467 197.923 61.78H204.863C204.63 59.4267 203.5 58.25 201.473 58.25ZM211.517 68.3C210.704 68.3 210.021 68.1533 209.467 67.86C208.921 67.5667 208.511 67.1767 208.237 66.69C207.964 66.2033 207.827 65.6733 207.827 65.1C207.827 64.2133 208.084 63.5233 208.597 63.03C209.111 62.53 209.771 62.1733 210.577 61.96C211.064 61.84 211.597 61.7333 212.177 61.64C212.757 61.5467 213.334 61.4633 213.907 61.39C214.487 61.3167 215.017 61.25 215.497 61.19C215.484 60.21 215.257 59.4833 214.817 59.01C214.377 58.53 213.644 58.29 212.617 58.29C211.877 58.29 211.251 58.4567 210.737 58.79C210.231 59.1233 209.874 59.65 209.667 60.37L208.237 59.95C208.484 58.9833 208.981 58.2333 209.727 57.7C210.474 57.1667 211.444 56.9 212.637 56.9C213.624 56.9 214.461 57.0867 215.147 57.46C215.841 57.8267 216.331 58.36 216.617 59.06C216.751 59.3733 216.837 59.7233 216.877 60.11C216.917 60.4967 216.937 60.89 216.937 61.29V68H215.627V66.22C214.774 67.6067 213.404 68.3 211.517 68.3ZM211.687 67.03C212.721 67.03 213.551 66.76 214.177 66.22C214.811 65.68 215.197 65.0033 215.337 64.19C215.397 63.9233 215.434 63.6333 215.447 63.32C215.467 63 215.477 62.7167 215.477 62.47C214.771 62.5567 214.024 62.65 213.237 62.75C212.451 62.85 211.761 62.98 211.167 63.14C210.707 63.2733 210.281 63.4867 209.887 63.78C209.494 64.0733 209.297 64.5133 209.297 65.1C209.297 65.4133 209.374 65.7167 209.527 66.01C209.687 66.3033 209.941 66.5467 210.287 66.74C210.641 66.9333 211.107 67.03 211.687 67.03ZM225.421 68C224.814 68.1267 224.214 68.1767 223.621 68.15C223.034 68.1233 222.507 67.9967 222.041 67.77C221.581 67.5433 221.231 67.19 220.991 66.71C220.797 66.3167 220.691 65.9133 220.671 65.5C220.657 65.0867 220.651 64.6167 220.651 64.09V58.46H218.341V57.2H220.651V54.2H222.111V57.2H225.421V58.46H222.111V64.03C222.111 64.4833 222.114 64.8633 222.121 65.17C222.134 65.47 222.204 65.7367 222.331 65.97C222.571 66.4167 222.951 66.6833 223.471 66.77C223.997 66.8567 224.647 66.8367 225.421 66.71V68ZM227.748 68V57.2H229.218V68H227.748ZM228.478 55.34C228.192 55.34 227.948 55.2433 227.748 55.05C227.555 54.85 227.458 54.61 227.458 54.33C227.458 54.0433 227.555 53.8033 227.748 53.61C227.948 53.41 228.192 53.31 228.478 53.31C228.772 53.31 229.015 53.41 229.208 53.61C229.408 53.8033 229.508 54.0433 229.508 54.33C229.508 54.61 229.408 54.85 229.208 55.05C229.015 55.2433 228.772 55.34 228.478 55.34ZM236.726 68.3C235.653 68.3 234.736 68.0567 233.976 67.57C233.216 67.0833 232.633 66.41 232.226 65.55C231.82 64.69 231.616 63.7033 231.616 62.59C231.616 61.4567 231.823 60.4633 232.236 59.61C232.65 58.7567 233.236 58.0933 233.996 57.62C234.763 57.14 235.673 56.9 236.726 56.9C237.806 56.9 238.726 57.1433 239.486 57.63C240.253 58.11 240.836 58.78 241.236 59.64C241.643 60.4933 241.846 61.4767 241.846 62.59C241.846 63.7233 241.643 64.72 241.236 65.58C240.83 66.4333 240.243 67.1 239.476 67.58C238.71 68.06 237.793 68.3 236.726 68.3ZM236.726 66.89C237.926 66.89 238.82 66.4933 239.406 65.7C239.993 64.9 240.286 63.8633 240.286 62.59C240.286 61.29 239.99 60.2533 239.396 59.48C238.803 58.7 237.913 58.31 236.726 58.31C235.52 58.31 234.626 58.71 234.046 59.51C233.466 60.3033 233.176 61.33 233.176 62.59C233.176 63.89 233.476 64.9333 234.076 65.72C234.676 66.5 235.56 66.89 236.726 66.89ZM244.042 68V57.2H245.372V58.7C245.772 58.12 246.282 57.68 246.902 57.38C247.529 57.08 248.229 56.93 249.002 56.93C249.816 56.93 250.499 57.0833 251.052 57.39C251.606 57.69 252.049 58.09 252.382 58.59C252.716 59.0833 252.956 59.6333 253.102 60.24C253.256 60.8467 253.332 61.4533 253.332 62.06V68H251.852V62.49C251.852 61.6967 251.749 60.9867 251.542 60.36C251.336 59.7333 251.002 59.24 250.542 58.88C250.082 58.5133 249.476 58.33 248.722 58.33C247.682 58.33 246.889 58.6767 246.342 59.37C245.796 60.0633 245.522 61.02 245.522 62.24V68H244.042Z" fill="#7D5606"/>
<rect x="330.5" y="43.5" width="56" height="34" rx="17" fill="#F1BD6F"/>
<rect x="330.5" y="43.5" width="56" height="34" rx="17" stroke="#7D5606"/>
<path d="M343.23 68V55.01H338.2V53.6H349.73V55.01H344.7V68H343.23ZM354.302 68.3C353.249 68.3 352.335 68.0667 351.562 67.6C350.789 67.1333 350.189 66.4767 349.762 65.63C349.342 64.7833 349.132 63.79 349.132 62.65C349.132 61.47 349.342 60.45 349.762 59.59C350.182 58.73 350.772 58.0667 351.532 57.6C352.299 57.1333 353.202 56.9 354.242 56.9C355.842 56.9 357.082 57.4433 357.962 58.53C358.849 59.61 359.265 61.1033 359.212 63.01H350.702C350.762 64.25 351.099 65.2067 351.712 65.88C352.325 66.5533 353.169 66.89 354.242 66.89C355.815 66.89 356.945 66.1967 357.632 64.81L359.002 65.34C358.575 66.28 357.945 67.01 357.112 67.53C356.285 68.0433 355.349 68.3 354.302 68.3ZM354.282 58.25C353.242 58.25 352.419 58.5567 351.812 59.17C351.205 59.7767 350.845 60.6467 350.732 61.78H357.672C357.439 59.4267 356.309 58.25 354.282 58.25ZM365.461 68.29C364.195 68.29 363.151 68.0167 362.331 67.47C361.518 66.9233 361.018 66.1633 360.831 65.19L362.331 64.94C362.491 65.56 362.855 66.05 363.421 66.41C363.995 66.77 364.701 66.95 365.541 66.95C366.361 66.95 367.008 66.78 367.481 66.44C367.955 66.0933 368.191 65.6233 368.191 65.03C368.191 64.6967 368.115 64.4267 367.961 64.22C367.808 64.0067 367.501 63.81 367.041 63.63C366.588 63.45 365.905 63.2367 364.991 62.99C364.011 62.7233 363.241 62.4567 362.681 62.19C362.128 61.9233 361.735 61.6167 361.501 61.27C361.275 60.9167 361.161 60.4867 361.161 59.98C361.161 59.06 361.538 58.3167 362.291 57.75C363.051 57.1833 364.041 56.9 365.261 56.9C366.075 56.9 366.801 57.0333 367.441 57.3C368.088 57.56 368.608 57.9267 369.001 58.4C369.395 58.8733 369.628 59.4233 369.701 60.05L368.201 60.32C368.095 59.6867 367.778 59.1867 367.251 58.82C366.725 58.4467 366.055 58.2533 365.241 58.24C364.475 58.22 363.851 58.3667 363.371 58.68C362.891 58.9867 362.651 59.3967 362.651 59.91C362.651 60.1967 362.738 60.4433 362.911 60.65C363.085 60.85 363.398 61.04 363.851 61.22C364.311 61.4 364.965 61.5967 365.811 61.81C366.805 62.0633 367.585 62.33 368.151 62.61C368.718 62.89 369.121 63.22 369.361 63.6C369.601 63.98 369.721 64.45 369.721 65.01C369.721 66.03 369.341 66.8333 368.581 67.42C367.828 68 366.788 68.29 365.461 68.29ZM377.819 68C377.212 68.1267 376.612 68.1767 376.019 68.15C375.432 68.1233 374.906 67.9967 374.439 67.77C373.979 67.5433 373.629 67.19 373.389 66.71C373.196 66.3167 373.089 65.9133 373.069 65.5C373.056 65.0867 373.049 64.6167 373.049 64.09V58.46H370.739V57.2H373.049V54.2H374.509V57.2H377.819V58.46H374.509V64.03C374.509 64.4833 374.512 64.8633 374.519 65.17C374.532 65.47 374.602 65.7367 374.729 65.97C374.969 66.4167 375.349 66.6833 375.869 66.77C376.396 66.8567 377.046 66.8367 377.819 66.71V68Z" fill="#845D0D"/>
<rect x="436.5" y="43.5" width="108" height="34" rx="17" fill="#F1BD6F"/>
<rect x="436.5" y="43.5" width="108" height="34" rx="17" stroke="#7D5606"/>
<path d="M445.4 68V53.6H450.96C451.1 53.6 451.257 53.6067 451.43 53.62C451.61 53.6267 451.79 53.6467 451.97 53.68C453.097 53.8533 453.963 54.3467 454.57 55.16C455.177 55.9733 455.48 56.9433 455.48 58.07C455.48 59.19 455.173 60.1567 454.56 60.97C453.953 61.7833 453.09 62.2767 451.97 62.45C451.79 62.4833 451.61 62.5067 451.43 62.52C451.257 62.5267 451.1 62.53 450.96 62.53H446.87V68H445.4ZM446.87 61.13H450.92C451.04 61.13 451.18 61.1233 451.34 61.11C451.5 61.0967 451.657 61.0733 451.81 61.04C452.55 60.88 453.093 60.5133 453.44 59.94C453.793 59.36 453.97 58.7367 453.97 58.07C453.97 57.3967 453.793 56.7733 453.44 56.2C453.093 55.62 452.55 55.25 451.81 55.09C451.657 55.0567 451.5 55.0367 451.34 55.03C451.18 55.0167 451.04 55.01 450.92 55.01H446.87V61.13ZM457.47 68V57.2H458.79V58.91C459.03 58.49 459.31 58.1567 459.63 57.91C460.057 57.5433 460.57 57.3033 461.17 57.19C461.77 57.0767 462.307 57.08 462.78 57.2V58.58C462.38 58.48 461.947 58.4567 461.48 58.51C461.02 58.5633 460.594 58.75 460.2 59.07C459.66 59.4967 459.314 60.0333 459.16 60.68C459.014 61.32 458.94 61.9633 458.94 62.61V68H457.47ZM468.992 68.3C467.919 68.3 467.002 68.0567 466.242 67.57C465.482 67.0833 464.899 66.41 464.492 65.55C464.085 64.69 463.882 63.7033 463.882 62.59C463.882 61.4567 464.089 60.4633 464.502 59.61C464.915 58.7567 465.502 58.0933 466.262 57.62C467.029 57.14 467.939 56.9 468.992 56.9C470.072 56.9 470.992 57.1433 471.752 57.63C472.519 58.11 473.102 58.78 473.502 59.64C473.909 60.4933 474.112 61.4767 474.112 62.59C474.112 63.7233 473.909 64.72 473.502 65.58C473.095 66.4333 472.509 67.1 471.742 67.58C470.975 68.06 470.059 68.3 468.992 68.3ZM468.992 66.89C470.192 66.89 471.085 66.4933 471.672 65.7C472.259 64.9 472.552 63.8633 472.552 62.59C472.552 61.29 472.255 60.2533 471.662 59.48C471.069 58.7 470.179 58.31 468.992 58.31C467.785 58.31 466.892 58.71 466.312 59.51C465.732 60.3033 465.442 61.33 465.442 62.59C465.442 63.89 465.742 64.9333 466.342 65.72C466.942 66.5 467.825 66.89 468.992 66.89ZM482.198 68C481.591 68.1267 480.991 68.1767 480.398 68.15C479.811 68.1233 479.285 67.9967 478.818 67.77C478.358 67.5433 478.008 67.19 477.768 66.71C477.575 66.3167 477.468 65.9133 477.448 65.5C477.435 65.0867 477.428 64.6167 477.428 64.09V58.46H475.118V57.2H477.428V54.2H478.888V57.2H482.198V58.46H478.888V64.03C478.888 64.4833 478.891 64.8633 478.898 65.17C478.911 65.47 478.981 65.7367 479.108 65.97C479.348 66.4167 479.728 66.6833 480.248 66.77C480.775 66.8567 481.425 66.8367 482.198 66.71V68ZM488.445 68.3C487.372 68.3 486.455 68.0567 485.695 67.57C484.935 67.0833 484.352 66.41 483.945 65.55C483.538 64.69 483.335 63.7033 483.335 62.59C483.335 61.4567 483.542 60.4633 483.955 59.61C484.368 58.7567 484.955 58.0933 485.715 57.62C486.482 57.14 487.392 56.9 488.445 56.9C489.525 56.9 490.445 57.1433 491.205 57.63C491.972 58.11 492.555 58.78 492.955 59.64C493.362 60.4933 493.565 61.4767 493.565 62.59C493.565 63.7233 493.362 64.72 492.955 65.58C492.548 66.4333 491.962 67.1 491.195 67.58C490.428 68.06 489.512 68.3 488.445 68.3ZM488.445 66.89C489.645 66.89 490.538 66.4933 491.125 65.7C491.712 64.9 492.005 63.8633 492.005 62.59C492.005 61.29 491.708 60.2533 491.115 59.48C490.522 58.7 489.632 58.31 488.445 58.31C487.238 58.31 486.345 58.71 485.765 59.51C485.185 60.3033 484.895 61.33 484.895 62.59C484.895 63.89 485.195 64.9333 485.795 65.72C486.395 66.5 487.278 66.89 488.445 66.89ZM501.651 68C501.044 68.1267 500.444 68.1767 499.851 68.15C499.264 68.1233 498.738 67.9967 498.271 67.77C497.811 67.5433 497.461 67.19 497.221 66.71C497.028 66.3167 496.921 65.9133 496.901 65.5C496.888 65.0867 496.881 64.6167 496.881 64.09V58.46H494.571V57.2H496.881V54.2H498.341V57.2H501.651V58.46H498.341V64.03C498.341 64.4833 498.344 64.8633 498.351 65.17C498.364 65.47 498.434 65.7367 498.561 65.97C498.801 66.4167 499.181 66.6833 499.701 66.77C500.228 66.8567 500.878 66.8367 501.651 66.71V68ZM505.026 72.8L506.806 67.98L502.416 57.2H503.976L507.516 66.08L510.796 57.2H512.296L506.496 72.8H505.026ZM514.023 72.8V57.2H515.343V58.68C515.736 58.1267 516.233 57.6933 516.833 57.38C517.439 57.06 518.143 56.9 518.943 56.9C519.929 56.9 520.776 57.15 521.483 57.65C522.189 58.15 522.729 58.83 523.103 59.69C523.483 60.55 523.673 61.5167 523.673 62.59C523.673 63.67 523.483 64.64 523.103 65.5C522.729 66.36 522.183 67.0433 521.463 67.55C520.749 68.05 519.889 68.3 518.883 68.3C518.149 68.3 517.499 68.16 516.933 67.88C516.366 67.5933 515.889 67.2033 515.503 66.71V72.8H514.023ZM518.733 66.93C519.486 66.93 520.113 66.74 520.613 66.36C521.113 65.9733 521.486 65.4533 521.733 64.8C521.986 64.1467 522.113 63.41 522.113 62.59C522.113 61.7767 521.989 61.0433 521.743 60.39C521.496 59.7367 521.119 59.22 520.613 58.84C520.113 58.46 519.476 58.27 518.703 58.27C517.576 58.27 516.733 58.6733 516.173 59.48C515.619 60.2867 515.343 61.3233 515.343 62.59C515.343 63.4233 515.466 64.1667 515.713 64.82C515.959 65.4733 516.333 65.99 516.833 66.37C517.333 66.7433 517.966 66.93 518.733 66.93ZM530.439 68.3C529.385 68.3 528.472 68.0667 527.699 67.6C526.925 67.1333 526.325 66.4767 525.899 65.63C525.479 64.7833 525.269 63.79 525.269 62.65C525.269 61.47 525.479 60.45 525.899 59.59C526.319 58.73 526.909 58.0667 527.669 57.6C528.435 57.1333 529.339 56.9 530.379 56.9C531.979 56.9 533.219 57.4433 534.099 58.53C534.985 59.61 535.402 61.1033 535.349 63.01H526.839C526.899 64.25 527.235 65.2067 527.849 65.88C528.462 66.5533 529.305 66.89 530.379 66.89C531.952 66.89 533.082 66.1967 533.769 64.81L535.139 65.34C534.712 66.28 534.082 67.01 533.249 67.53C532.422 68.0433 531.485 68.3 530.439 68.3ZM530.419 58.25C529.379 58.25 528.555 58.5567 527.949 59.17C527.342 59.7767 526.982 60.6467 526.869 61.78H533.809C533.575 59.4267 532.445 58.25 530.419 58.25Z" fill="#7D5606"/>
<rect x="653" y="44" width="111" height="33" rx="16.5" fill="#7D5606"/>
<rect x="653" y="44" width="111" height="33" rx="16.5" stroke="#7D5606" stroke-width="2"/>
<path d="M669.4 68V53.6H674.06C674.173 53.6 674.407 53.6033 674.76 53.61C675.113 53.6167 675.453 53.64 675.78 53.68C676.94 53.82 677.923 54.2233 678.73 54.89C679.537 55.5567 680.15 56.4033 680.57 57.43C680.99 58.4567 681.2 59.58 681.2 60.8C681.2 62.02 680.99 63.1433 680.57 64.17C680.15 65.1967 679.537 66.0433 678.73 66.71C677.923 67.3767 676.94 67.78 675.78 67.92C675.453 67.96 675.113 67.9833 674.76 67.99C674.407 67.9967 674.173 68 674.06 68H669.4ZM672.16 65.44H674.06C674.24 65.44 674.483 65.4367 674.79 65.43C675.097 65.4167 675.373 65.3867 675.62 65.34C676.247 65.2133 676.757 64.92 677.15 64.46C677.55 64 677.843 63.4467 678.03 62.8C678.223 62.1533 678.32 61.4867 678.32 60.8C678.32 60.08 678.22 59.3967 678.02 58.75C677.827 58.1033 677.53 57.5567 677.13 57.11C676.73 56.6633 676.227 56.38 675.62 56.26C675.373 56.2067 675.097 56.1767 674.79 56.17C674.483 56.1633 674.24 56.16 674.06 56.16H672.16V65.44ZM688.619 68.3C687.513 68.3 686.536 68.0633 685.689 67.59C684.849 67.11 684.189 66.4533 683.709 65.62C683.236 64.78 682.999 63.82 682.999 62.74C682.999 61.56 683.233 60.5333 683.699 59.66C684.166 58.7867 684.809 58.11 685.629 57.63C686.449 57.1433 687.393 56.9 688.459 56.9C689.593 56.9 690.556 57.1667 691.349 57.7C692.143 58.2333 692.729 58.9833 693.109 59.95C693.489 60.9167 693.623 62.0533 693.509 63.36H685.929C686.029 64.1333 686.289 64.7267 686.709 65.14C687.136 65.5533 687.719 65.76 688.459 65.76C689.539 65.76 690.286 65.3067 690.699 64.4L693.419 65.18C693.013 66.1667 692.369 66.9333 691.489 67.48C690.616 68.0267 689.659 68.3 688.619 68.3ZM688.579 59.26C687.146 59.26 686.286 59.9533 685.999 61.34H690.759C690.659 60.6067 690.433 60.0767 690.079 59.75C689.733 59.4233 689.233 59.26 688.579 59.26ZM695.967 68V53.3H698.687V68H695.967ZM701.885 68V57.2H704.605V68H701.885ZM703.245 56.09C702.792 56.09 702.412 55.9367 702.105 55.63C701.805 55.3233 701.655 54.95 701.655 54.51C701.655 54.0633 701.805 53.69 702.105 53.39C702.412 53.0833 702.792 52.93 703.245 52.93C703.705 52.93 704.085 53.0833 704.385 53.39C704.685 53.69 704.835 54.0633 704.835 54.51C704.835 54.95 704.685 55.3233 704.385 55.63C704.085 55.9367 703.705 56.09 703.245 56.09ZM710.523 68L706.603 57.2H709.323L711.883 64.68L714.443 57.2H717.163L713.243 68H710.523ZM723.6 68.3C722.493 68.3 721.516 68.0633 720.67 67.59C719.83 67.11 719.17 66.4533 718.69 65.62C718.216 64.78 717.98 63.82 717.98 62.74C717.98 61.56 718.213 60.5333 718.68 59.66C719.146 58.7867 719.79 58.11 720.61 57.63C721.43 57.1433 722.373 56.9 723.44 56.9C724.573 56.9 725.536 57.1667 726.33 57.7C727.123 58.2333 727.71 58.9833 728.09 59.95C728.47 60.9167 728.603 62.0533 728.49 63.36H720.91C721.01 64.1333 721.27 64.7267 721.69 65.14C722.116 65.5533 722.7 65.76 723.44 65.76C724.52 65.76 725.266 65.3067 725.68 64.4L728.4 65.18C727.993 66.1667 727.35 66.9333 726.47 67.48C725.596 68.0267 724.64 68.3 723.6 68.3ZM723.56 59.26C722.126 59.26 721.266 59.9533 720.98 61.34H725.74C725.64 60.6067 725.413 60.0767 725.06 59.75C724.713 59.4233 724.213 59.26 723.56 59.26ZM730.748 68V57.2H733.148V58.94C733.288 58.6867 733.451 58.4567 733.638 58.25C733.831 58.0433 734.054 57.8667 734.308 57.72C734.701 57.48 735.141 57.32 735.628 57.24C736.114 57.1533 736.601 57.14 737.088 57.2V59.74C736.788 59.6467 736.438 59.6167 736.038 59.65C735.644 59.6767 735.288 59.7667 734.968 59.92C733.981 60.3733 733.488 61.2267 733.488 62.48V68H730.748ZM739.979 72.8L741.759 67.91L737.399 57.2H740.219L743.059 64.55L745.879 57.2H748.599L742.499 72.8H739.979Z" fill="#F7F5F5"/>
<rect x="0.5" y="43.5" width="103" height="34" rx="17" fill="#FAEAD4"/>
<rect x="0.5" y="43.5" width="103" height="34" rx="17" stroke="#7D5606"/>
<path d="M9.4 68V53.6H14.96C15.1 53.6 15.2567 53.6067 15.43 53.62C15.61 53.6267 15.79 53.6467 15.97 53.68C17.0967 53.8533 17.9633 54.3233 18.57 55.09C19.1767 55.8567 19.48 56.76 19.48 57.8C19.48 58.6933 19.22 59.5167 18.7 60.27C18.1867 61.0233 17.4533 61.5333 16.5 61.8L19.71 68H18.01L14.92 62H10.87V68H9.4ZM10.87 60.59H14.92C15.04 60.59 15.18 60.5867 15.34 60.58C15.5067 60.5733 15.6633 60.55 15.81 60.51C16.55 60.3167 17.0933 59.9633 17.44 59.45C17.7933 58.9367 17.97 58.3867 17.97 57.8C17.97 57.2133 17.7933 56.6567 17.44 56.13C17.0933 55.5967 16.55 55.25 15.81 55.09C15.6567 55.0567 15.5 55.0367 15.34 55.03C15.18 55.0167 15.04 55.01 14.92 55.01H10.87V60.59ZM26.5872 68.3C25.5339 68.3 24.6205 68.0667 23.8472 67.6C23.0739 67.1333 22.4739 66.4767 22.0472 65.63C21.6272 64.7833 21.4172 63.79 21.4172 62.65C21.4172 61.47 21.6272 60.45 22.0472 59.59C22.4672 58.73 23.0572 58.0667 23.8172 57.6C24.5839 57.1333 25.4872 56.9 26.5272 56.9C28.1272 56.9 29.3672 57.4433 30.2472 58.53C31.1339 59.61 31.5505 61.1033 31.4972 63.01H22.9872C23.0472 64.25 23.3839 65.2067 23.9972 65.88C24.6105 66.5533 25.4539 66.89 26.5272 66.89C28.1005 66.89 29.2305 66.1967 29.9172 64.81L31.2872 65.34C30.8605 66.28 30.2305 67.01 29.3972 67.53C28.5705 68.0433 27.6339 68.3 26.5872 68.3ZM26.5672 58.25C25.5272 58.25 24.7039 58.5567 24.0972 59.17C23.4905 59.7767 23.1305 60.6467 23.0172 61.78H29.9572C29.7239 59.4267 28.5939 58.25 26.5672 58.25ZM37.7464 68.29C36.4797 68.29 35.4364 68.0167 34.6164 67.47C33.8031 66.9233 33.3031 66.1633 33.1164 65.19L34.6164 64.94C34.7764 65.56 35.1397 66.05 35.7064 66.41C36.2797 66.77 36.9864 66.95 37.8264 66.95C38.6464 66.95 39.2931 66.78 39.7664 66.44C40.2397 66.0933 40.4764 65.6233 40.4764 65.03C40.4764 64.6967 40.3997 64.4267 40.2464 64.22C40.0931 64.0067 39.7864 63.81 39.3264 63.63C38.8731 63.45 38.1897 63.2367 37.2764 62.99C36.2964 62.7233 35.5264 62.4567 34.9664 62.19C34.4131 61.9233 34.0197 61.6167 33.7864 61.27C33.5597 60.9167 33.4464 60.4867 33.4464 59.98C33.4464 59.06 33.8231 58.3167 34.5764 57.75C35.3364 57.1833 36.3264 56.9 37.5464 56.9C38.3597 56.9 39.0864 57.0333 39.7264 57.3C40.3731 57.56 40.8931 57.9267 41.2864 58.4C41.6797 58.8733 41.9131 59.4233 41.9864 60.05L40.4864 60.32C40.3797 59.6867 40.0631 59.1867 39.5364 58.82C39.0097 58.4467 38.3397 58.2533 37.5264 58.24C36.7597 58.22 36.1364 58.3667 35.6564 58.68C35.1764 58.9867 34.9364 59.3967 34.9364 59.91C34.9364 60.1967 35.0231 60.4433 35.1964 60.65C35.3697 60.85 35.6831 61.04 36.1364 61.22C36.5964 61.4 37.2497 61.5967 38.0964 61.81C39.0897 62.0633 39.8697 62.33 40.4364 62.61C41.0031 62.89 41.4064 63.22 41.6464 63.6C41.8864 63.98 42.0064 64.45 42.0064 65.01C42.0064 66.03 41.6264 66.8333 40.8664 67.42C40.1131 68 39.0731 68.29 37.7464 68.29ZM48.7942 68.3C47.7409 68.3 46.8276 68.0667 46.0542 67.6C45.2809 67.1333 44.6809 66.4767 44.2542 65.63C43.8342 64.7833 43.6242 63.79 43.6242 62.65C43.6242 61.47 43.8342 60.45 44.2542 59.59C44.6742 58.73 45.2642 58.0667 46.0242 57.6C46.7909 57.1333 47.6942 56.9 48.7342 56.9C50.3342 56.9 51.5742 57.4433 52.4542 58.53C53.3409 59.61 53.7576 61.1033 53.7042 63.01H45.1942C45.2542 64.25 45.5909 65.2067 46.2042 65.88C46.8176 66.5533 47.6609 66.89 48.7342 66.89C50.3076 66.89 51.4376 66.1967 52.1242 64.81L53.4942 65.34C53.0676 66.28 52.4376 67.01 51.6042 67.53C50.7776 68.0433 49.8409 68.3 48.7942 68.3ZM48.7742 58.25C47.7342 58.25 46.9109 58.5567 46.3042 59.17C45.6976 59.7767 45.3376 60.6467 45.2242 61.78H52.1642C51.9309 59.4267 50.8009 58.25 48.7742 58.25ZM58.8181 68.3C58.0048 68.3 57.3215 68.1533 56.7681 67.86C56.2215 67.5667 55.8115 67.1767 55.5381 66.69C55.2648 66.2033 55.1281 65.6733 55.1281 65.1C55.1281 64.2133 55.3848 63.5233 55.8981 63.03C56.4115 62.53 57.0715 62.1733 57.8781 61.96C58.3648 61.84 58.8981 61.7333 59.4781 61.64C60.0581 61.5467 60.6348 61.4633 61.2081 61.39C61.7881 61.3167 62.3181 61.25 62.7981 61.19C62.7848 60.21 62.5581 59.4833 62.1181 59.01C61.6781 58.53 60.9448 58.29 59.9181 58.29C59.1781 58.29 58.5515 58.4567 58.0381 58.79C57.5315 59.1233 57.1748 59.65 56.9681 60.37L55.5381 59.95C55.7848 58.9833 56.2815 58.2333 57.0281 57.7C57.7748 57.1667 58.7448 56.9 59.9381 56.9C60.9248 56.9 61.7615 57.0867 62.4481 57.46C63.1415 57.8267 63.6315 58.36 63.9181 59.06C64.0515 59.3733 64.1381 59.7233 64.1781 60.11C64.2181 60.4967 64.2381 60.89 64.2381 61.29V68H62.9281V66.22C62.0748 67.6067 60.7048 68.3 58.8181 68.3ZM58.9881 67.03C60.0215 67.03 60.8515 66.76 61.4781 66.22C62.1115 65.68 62.4981 65.0033 62.6381 64.19C62.6981 63.9233 62.7348 63.6333 62.7481 63.32C62.7681 63 62.7781 62.7167 62.7781 62.47C62.0715 62.5567 61.3248 62.65 60.5381 62.75C59.7515 62.85 59.0615 62.98 58.4681 63.14C58.0081 63.2733 57.5815 63.4867 57.1881 63.78C56.7948 64.0733 56.5981 64.5133 56.5981 65.1C56.5981 65.4133 56.6748 65.7167 56.8281 66.01C56.9881 66.3033 57.2415 66.5467 57.5881 66.74C57.9415 66.9333 58.4081 67.03 58.9881 67.03ZM66.8414 68V57.2H68.1614V58.91C68.4014 58.49 68.6814 58.1567 69.0014 57.91C69.4281 57.5433 69.9414 57.3033 70.5414 57.19C71.1414 57.0767 71.6781 57.08 72.1514 57.2V58.58C71.7514 58.48 71.3181 58.4567 70.8514 58.51C70.3914 58.5633 69.9647 58.75 69.5714 59.07C69.0314 59.4967 68.6847 60.0333 68.5314 60.68C68.3847 61.32 68.3114 61.9633 68.3114 62.61V68H66.8414ZM78.3331 68.3C77.2465 68.3 76.3265 68.0567 75.5731 67.57C74.8265 67.0833 74.2565 66.4133 73.8631 65.56C73.4698 64.7 73.2665 63.7133 73.2531 62.6C73.2665 61.4667 73.4731 60.4733 73.8731 59.62C74.2731 58.76 74.8498 58.0933 75.6031 57.62C76.3565 57.14 77.2698 56.9 78.3431 56.9C79.4365 56.9 80.3865 57.1667 81.1931 57.7C82.0065 58.2333 82.5631 58.9633 82.8631 59.89L81.4231 60.35C81.1698 59.7033 80.7665 59.2033 80.2131 58.85C79.6665 58.49 79.0398 58.31 78.3331 58.31C77.1398 58.31 76.2565 58.71 75.6831 59.51C75.1165 60.31 74.8265 61.34 74.8131 62.6C74.8265 63.8933 75.1265 64.9333 75.7131 65.72C76.2998 66.5 77.1731 66.89 78.3331 66.89C79.8131 66.89 80.8298 66.23 81.3831 64.91L82.8631 65.35C82.4565 66.31 81.8665 67.0433 81.0931 67.55C80.3265 68.05 79.4065 68.3 78.3331 68.3ZM84.9173 68V53.6H86.2473V58.7C86.6473 58.12 87.1573 57.68 87.7773 57.38C88.404 57.08 89.104 56.93 89.8773 56.93C90.6907 56.93 91.374 57.0833 91.9273 57.39C92.4807 57.69 92.924 58.09 93.2573 58.59C93.5907 59.0833 93.8307 59.6333 93.9773 60.24C94.1307 60.8467 94.2073 61.4533 94.2073 62.06V68H92.7273V62.49C92.7273 61.6967 92.624 60.9867 92.4173 60.36C92.2107 59.7333 91.8773 59.24 91.4173 58.88C90.9573 58.5133 90.3507 58.33 89.5973 58.33C88.5573 58.33 87.764 58.6767 87.2173 59.37C86.6707 60.0633 86.3973 61.02 86.3973 62.24V68H84.9173Z" fill="#7D5606"/>
<path d="M101.333 62C101.333 63.4728 102.527 64.6667 104 64.6667C105.473 64.6667 106.667 63.4728 106.667 62C106.667 60.5272 105.473 59.3333 104 59.3333C102.527 59.3333 101.333 60.5272 101.333 62ZM164 62L159 59.1132V64.8868L164 62ZM104 62.5H105.875V61.5H104V62.5ZM109.625 62.5H113.375V61.5H109.625V62.5ZM117.125 62.5H120.875V61.5H117.125V62.5ZM124.625 62.5H128.375V61.5H124.625V62.5ZM132.125 62.5H135.875V61.5H132.125V62.5ZM139.625 62.5H143.375V61.5H139.625V62.5ZM147.125 62.5H150.875V61.5H147.125V62.5ZM154.625 62.5H158.375V61.5H154.625V62.5Z" fill="#7D5606"/>
<path d="M260.333 62C260.333 63.4728 261.527 64.6667 263 64.6667C264.473 64.6667 265.667 63.4728 265.667 62C265.667 60.5272 264.473 59.3333 263 59.3333C261.527 59.3333 260.333 60.5272 260.333 62ZM323 62L318 59.1132V64.8868L323 62ZM263 62.5H264.875V61.5H263V62.5ZM268.625 62.5H272.375V61.5H268.625V62.5ZM276.125 62.5H279.875V61.5H276.125V62.5ZM283.625 62.5H287.375V61.5H283.625V62.5ZM291.125 62.5H294.875V61.5H291.125V62.5ZM298.625 62.5H302.375V61.5H298.625V62.5ZM306.125 62.5H309.875V61.5H306.125V62.5ZM313.625 62.5H317.375V61.5H313.625V62.5Z" fill="#7D5606"/>
<path d="M542.333 62C542.333 63.4728 543.527 64.6667 545 64.6667C546.473 64.6667 547.667 63.4728 547.667 62C547.667 60.5272 546.473 59.3333 545 59.3333C543.527 59.3333 542.333 60.5272 542.333 62ZM645 62L640 59.1132V64.8868L645 62ZM545 62.5H546.923V61.5H545V62.5ZM550.769 62.5H554.615V61.5H550.769V62.5ZM558.462 62.5H562.308V61.5H558.462V62.5ZM566.154 62.5H570V61.5H566.154V62.5ZM573.846 62.5H577.692V61.5H573.846V62.5ZM581.538 62.5H585.385V61.5H581.538V62.5ZM589.231 62.5H593.077V61.5H589.231V62.5ZM596.923 62.5H600.769V61.5H596.923V62.5ZM604.615 62.5H608.462V61.5H604.615V62.5ZM612.308 62.5H616.154V61.5H612.308V62.5ZM620 62.5H623.846V61.5H620V62.5ZM627.692 62.5H631.538V61.5H627.692V62.5ZM635.385 62.5H639.231V61.5H635.385V62.5Z" fill="#7D5606"/>
<path d="M356.333 43C356.333 44.4728 357.527 45.6667 359 45.6667C360.473 45.6667 361.667 44.4728 361.667 43C361.667 41.5272 360.473 40.3333 359 40.3333C357.527 40.3333 356.333 41.5272 356.333 43ZM488 37.6545L490.668 32.5344L484.9 32.7841L488 37.6545ZM359.5 43C359.5 42.3673 359.522 41.7379 359.565 41.1122L358.568 41.0432C358.523 41.6918 358.5 42.3442 358.5 43H359.5ZM360.084 37.3749C360.342 36.1458 360.682 34.9334 361.102 33.74L360.159 33.4078C359.725 34.6417 359.372 35.8967 359.105 37.17L360.084 37.3749ZM362.579 30.2593C363.135 29.1419 363.763 28.0445 364.459 26.9694L363.619 26.4259C362.904 27.5313 362.257 28.6613 361.683 29.8136L362.579 30.2593ZM366.679 23.8993C367.459 22.9267 368.297 21.9762 369.19 21.0496L368.47 20.3556C367.557 21.3032 366.699 22.2765 365.899 23.2737L366.679 23.8993ZM371.943 18.4222C372.88 17.5973 373.863 16.7955 374.89 16.0182L374.287 15.2208C373.241 16.0124 372.239 16.8299 371.282 17.6716L371.943 18.4222ZM378.01 13.8216C379.057 13.1352 380.141 12.4722 381.259 11.8339L380.764 10.9653C379.628 11.6135 378.526 12.2873 377.461 12.9853L378.01 13.8216ZM384.629 10.0389C385.754 9.4795 386.91 8.94374 388.093 8.43277L387.696 7.51473C386.497 8.03263 385.326 8.57588 384.184 9.14335L384.629 10.0389ZM391.634 7.00881C392.815 6.56776 394.02 6.15043 395.247 5.75783L394.943 4.80538C393.7 5.20276 392.48 5.6253 391.284 6.072L391.634 7.00881ZM398.914 4.67699C400.131 4.34777 401.368 4.04225 402.622 3.76132L402.404 2.7855C401.135 3.06958 399.884 3.3786 398.653 3.71165L398.914 4.67699ZM406.371 3.00518C407.615 2.78119 408.876 2.58101 410.15 2.40544L410.013 1.4148C408.726 1.59222 407.452 1.79455 406.194 2.02098L406.371 3.00518ZM413.95 1.95957C415.208 1.83728 416.479 1.73879 417.761 1.66482L417.703 0.666485C416.408 0.741198 415.125 0.840698 413.853 0.964257L413.95 1.95957ZM421.582 1.5183C422.219 1.50613 422.859 1.5 423.5 1.5V0.5C422.852 0.5 422.207 0.506189 421.563 0.51848L421.582 1.5183ZM423.5 1.5C424.17 1.5 424.842 1.50653 425.515 1.51956L425.535 0.519746C424.855 0.506596 424.177 0.5 423.5 0.5V1.5ZM429.548 1.67424C430.888 1.75092 432.231 1.85273 433.572 1.97939L433.666 0.983821C432.312 0.856009 430.958 0.753256 429.605 0.675877L429.548 1.67424ZM437.582 2.4327C438.918 2.60864 440.249 2.8091 441.573 3.03376L441.74 2.04786C440.404 1.82111 439.06 1.61881 437.712 1.44126L437.582 2.4327ZM445.538 3.7839C446.86 4.06036 448.171 4.36131 449.469 4.68641L449.712 3.7164C448.402 3.38805 447.077 3.08416 445.742 2.80506L445.538 3.7839ZM453.362 5.74759C454.66 6.1311 455.941 6.53968 457.199 6.97294L457.524 6.02742C456.252 5.5892 454.957 5.17612 453.645 4.78853L453.362 5.74759ZM460.98 8.37698C462.241 8.88069 463.474 9.41075 464.675 9.96671L465.095 9.05924C463.877 8.49548 462.628 7.9584 461.351 7.44835L460.98 8.37698ZM468.279 11.7663C469.479 12.4118 470.637 13.0857 471.751 13.7877L472.284 12.9418C471.15 12.227 469.972 11.5415 468.753 10.8857L468.279 11.7663ZM475.059 16.0578C476.151 16.8751 477.185 17.7239 478.155 18.6035L478.827 17.8627C477.832 16.9607 476.774 16.092 475.658 15.2571L475.059 16.0578ZM480.965 21.4438C481.861 22.46 482.675 23.5106 483.401 24.595L484.232 24.0387C483.48 22.9152 482.638 21.8296 481.715 20.7826L480.965 21.4438ZM485.357 28.052C485.918 29.256 486.375 30.4964 486.721 31.7724L487.686 31.5107C487.325 30.1776 486.847 28.8835 486.263 27.6296L485.357 28.052ZM356.333 43C356.333 44.4728 357.527 45.6667 359 45.6667C360.473 45.6667 361.667 44.4728 361.667 43C361.667 41.5272 360.473 40.3333 359 40.3333C357.527 40.3333 356.333 41.5272 356.333 43ZM488 37.6545L490.668 32.5344L484.9 32.7841L488 37.6545ZM359.5 43C359.5 42.3673 359.522 41.7379 359.565 41.1122L358.568 41.0432C358.523 41.6918 358.5 42.3442 358.5 43H359.5ZM360.084 37.3749C360.342 36.1458 360.682 34.9334 361.102 33.74L360.159 33.4078C359.725 34.6417 359.372 35.8967 359.105 37.17L360.084 37.3749ZM362.579 30.2593C363.135 29.1419 363.763 28.0445 364.459 26.9694L363.619 26.4259C362.904 27.5313 362.257 28.6613 361.683 29.8136L362.579 30.2593ZM366.679 23.8993C367.459 22.9267 368.297 21.9762 369.19 21.0496L368.47 20.3556C367.557 21.3032 366.699 22.2765 365.899 23.2737L366.679 23.8993ZM371.943 18.4222C372.88 17.5973 373.863 16.7955 374.89 16.0182L374.287 15.2208C373.241 16.0124 372.239 16.8299 371.282 17.6716L371.943 18.4222ZM378.01 13.8216C379.057 13.1352 380.141 12.4722 381.259 11.8339L380.764 10.9653C379.628 11.6135 378.526 12.2873 377.461 12.9853L378.01 13.8216ZM384.629 10.0389C385.754 9.4795 386.91 8.94374 388.093 8.43277L387.696 7.51473C386.497 8.03263 385.326 8.57588 384.184 9.14335L384.629 10.0389ZM391.634 7.00881C392.815 6.56776 394.02 6.15043 395.247 5.75783L394.943 4.80538C393.7 5.20276 392.48 5.6253 391.284 6.072L391.634 7.00881ZM398.914 4.67699C400.131 4.34777 401.368 4.04225 402.622 3.76132L402.404 2.7855C401.135 3.06958 399.884 3.3786 398.653 3.71165L398.914 4.67699ZM406.371 3.00518C407.615 2.78119 408.876 2.58101 410.15 2.40544L410.013 1.4148C408.726 1.59222 407.452 1.79455 406.194 2.02098L406.371 3.00518ZM413.95 1.95957C415.208 1.83728 416.479 1.73879 417.761 1.66482L417.703 0.666485C416.408 0.741198 415.125 0.840698 413.853 0.964257L413.95 1.95957ZM421.582 1.5183C422.219 1.50613 422.859 1.5 423.5 1.5V0.5C422.852 0.5 422.207 0.506189 421.563 0.51848L421.582 1.5183ZM423.5 1.5C424.17 1.5 424.842 1.50653 425.515 1.51956L425.535 0.519746C424.855 0.506596 424.177 0.5 423.5 0.5V1.5ZM429.548 1.67424C430.888 1.75092 432.231 1.85273 433.572 1.97939L433.666 0.983821C432.312 0.856009 430.958 0.753256 429.605 0.675877L429.548 1.67424ZM437.582 2.4327C438.918 2.60864 440.249 2.8091 441.573 3.03376L441.74 2.04786C440.404 1.82111 439.06 1.61881 437.712 1.44126L437.582 2.4327ZM445.538 3.7839C446.86 4.06036 448.171 4.36131 449.469 4.68641L449.712 3.7164C448.402 3.38805 447.077 3.08416 445.742 2.80506L445.538 3.7839ZM453.362 5.74759C454.66 6.1311 455.941 6.53968 457.199 6.97294L457.524 6.02742C456.252 5.5892 454.957 5.17612 453.645 4.78853L453.362 5.74759ZM460.98 8.37698C462.241 8.88069 463.474 9.41075 464.675 9.96671L465.095 9.05924C463.877 8.49548 462.628 7.9584 461.351 7.44835L460.98 8.37698ZM468.279 11.7663C469.479 12.4118 470.637 13.0857 471.751 13.7877L472.284 12.9418C471.15 12.227 469.972 11.5415 468.753 10.8857L468.279 11.7663ZM475.059 16.0578C476.151 16.8751 477.185 17.7239 478.155 18.6035L478.827 17.8627C477.832 16.9607 476.774 16.092 475.658 15.2571L475.059 16.0578ZM480.965 21.4438C481.861 22.46 482.675 23.5106 483.401 24.595L484.232 24.0387C483.48 22.9152 482.638 21.8296 481.715 20.7826L480.965 21.4438ZM485.357 28.052C485.918 29.256 486.375 30.4964 486.721 31.7724L487.686 31.5107C487.325 30.1776 486.847 28.8835 486.263 27.6296L485.357 28.052Z" fill="#7D5606"/>
<path d="M493.667 78C493.667 76.5273 492.473 75.3333 491 75.3333C489.527 75.3333 488.333 76.5273 488.333 78C488.333 79.4728 489.527 80.6667 491 80.6667C492.473 80.6667 493.667 79.4728 493.667 78ZM362 83.3455L359.332 88.4656L365.1 88.2159L362 83.3455ZM490.5 78C490.5 78.6327 490.478 79.2621 490.435 79.8878L491.432 79.9568C491.477 79.3082 491.5 78.6558 491.5 78L490.5 78ZM489.916 83.6251C489.658 84.8542 489.318 86.0667 488.898 87.26L489.841 87.5922C490.275 86.3583 490.628 85.1034 490.895 83.83L489.916 83.6251ZM487.421 90.7407C486.865 91.8582 486.237 92.9556 485.541 94.0306L486.381 94.5741C487.096 93.4687 487.743 92.3387 488.317 91.1864L487.421 90.7407ZM483.321 97.1007C482.541 98.0733 481.703 99.0238 480.81 99.9504L481.53 100.644C482.443 99.6968 483.301 98.7235 484.101 97.7263L483.321 97.1007ZM478.057 102.578C477.12 103.403 476.137 104.205 475.11 104.982L475.713 105.779C476.759 104.988 477.761 104.17 478.718 103.328L478.057 102.578ZM471.99 107.178C470.943 107.865 469.859 108.528 468.741 109.166L469.236 110.035C470.372 109.386 471.474 108.713 472.539 108.015L471.99 107.178ZM465.371 110.961C464.246 111.52 463.09 112.056 461.907 112.567L462.304 113.485C463.503 112.967 464.674 112.424 465.816 111.857L465.371 110.961ZM458.366 113.991C457.185 114.432 455.98 114.85 454.753 115.242L455.057 116.195C456.3 115.797 457.52 115.375 458.716 114.928L458.366 113.991ZM451.086 116.323C449.869 116.652 448.632 116.958 447.378 117.239L447.596 118.215C448.865 117.93 450.116 117.621 451.347 117.288L451.086 116.323ZM443.629 117.995C442.385 118.219 441.124 118.419 439.85 118.595L439.987 119.585C441.274 119.408 442.548 119.205 443.806 118.979L443.629 117.995ZM436.05 119.04C434.792 119.163 433.521 119.261 432.239 119.335L432.297 120.334C433.592 120.259 434.875 120.159 436.147 120.036L436.05 119.04ZM428.418 119.482C427.781 119.494 427.141 119.5 426.5 119.5L426.5 120.5C427.148 120.5 427.793 120.494 428.437 120.482L428.418 119.482ZM426.5 119.5C425.83 119.5 425.158 119.493 424.485 119.48L424.465 120.48C425.145 120.493 425.823 120.5 426.5 120.5L426.5 119.5ZM420.452 119.326C419.112 119.249 417.769 119.147 416.428 119.021L416.334 120.016C417.688 120.144 419.042 120.247 420.395 120.324L420.452 119.326ZM412.418 118.567C411.082 118.391 409.751 118.191 408.427 117.966L408.26 118.952C409.596 119.179 410.94 119.381 412.288 119.559L412.418 118.567ZM404.462 117.216C403.14 116.94 401.829 116.639 400.531 116.314L400.288 117.284C401.598 117.612 402.923 117.916 404.258 118.195L404.462 117.216ZM396.638 115.252C395.34 114.869 394.059 114.46 392.801 114.027L392.476 114.973C393.748 115.411 395.043 115.824 396.355 116.211L396.638 115.252ZM389.02 112.623C387.759 112.119 386.526 111.589 385.325 111.033L384.905 111.941C386.123 112.505 387.372 113.042 388.649 113.552L389.02 112.623ZM381.721 109.234C380.521 108.588 379.363 107.914 378.249 107.212L377.716 108.058C378.85 108.773 380.028 109.459 381.247 110.114L381.721 109.234ZM374.941 104.942C373.849 104.125 372.815 103.276 371.845 102.396L371.173 103.137C372.168 104.039 373.226 104.908 374.342 105.743L374.941 104.942ZM369.035 99.5561C368.139 98.54 367.325 97.4894 366.599 96.405L365.768 96.9613C366.52 98.0848 367.362 99.1704 368.285 100.217L369.035 99.5561ZM364.643 92.948C364.082 91.744 363.625 90.5036 363.279 89.2276L362.314 89.4893C362.675 90.8224 363.153 92.1165 363.737 93.3704L364.643 92.948ZM493.667 78C493.667 76.5273 492.473 75.3333 491 75.3333C489.527 75.3333 488.333 76.5273 488.333 78C488.333 79.4728 489.527 80.6667 491 80.6667C492.473 80.6667 493.667 79.4728 493.667 78ZM362 83.3455L359.332 88.4656L365.1 88.2159L362 83.3455ZM490.5 78C490.5 78.6327 490.478 79.2621 490.435 79.8878L491.432 79.9568C491.477 79.3082 491.5 78.6558 491.5 78L490.5 78ZM489.916 83.6251C489.658 84.8542 489.318 86.0667 488.898 87.26L489.841 87.5922C490.275 86.3583 490.628 85.1034 490.895 83.83L489.916 83.6251ZM487.421 90.7407C486.865 91.8582 486.237 92.9556 485.541 94.0306L486.381 94.5741C487.096 93.4687 487.743 92.3387 488.317 91.1864L487.421 90.7407ZM483.321 97.1007C482.541 98.0733 481.703 99.0238 480.81 99.9504L481.53 100.644C482.443 99.6968 483.301 98.7235 484.101 97.7263L483.321 97.1007ZM478.057 102.578C477.12 103.403 476.137 104.205 475.11 104.982L475.713 105.779C476.759 104.988 477.761 104.17 478.718 103.328L478.057 102.578ZM471.99 107.178C470.943 107.865 469.859 108.528 468.741 109.166L469.236 110.035C470.372 109.386 471.474 108.713 472.539 108.015L471.99 107.178ZM465.371 110.961C464.246 111.52 463.09 112.056 461.907 112.567L462.304 113.485C463.503 112.967 464.674 112.424 465.816 111.857L465.371 110.961ZM458.366 113.991C457.185 114.432 455.98 114.85 454.753 115.242L455.057 116.195C456.3 115.797 457.52 115.375 458.716 114.928L458.366 113.991ZM451.086 116.323C449.869 116.652 448.632 116.958 447.378 117.239L447.596 118.215C448.865 117.93 450.116 117.621 451.347 117.288L451.086 116.323ZM443.629 117.995C442.385 118.219 441.124 118.419 439.85 118.595L439.987 119.585C441.274 119.408 442.548 119.205 443.806 118.979L443.629 117.995ZM436.05 119.04C434.792 119.163 433.521 119.261 432.239 119.335L432.297 120.334C433.592 120.259 434.875 120.159 436.147 120.036L436.05 119.04ZM428.418 119.482C427.781 119.494 427.141 119.5 426.5 119.5L426.5 120.5C427.148 120.5 427.793 120.494 428.437 120.482L428.418 119.482ZM426.5 119.5C425.83 119.5 425.158 119.493 424.485 119.48L424.465 120.48C425.145 120.493 425.823 120.5 426.5 120.5L426.5 119.5ZM420.452 119.326C419.112 119.249 417.769 119.147 416.428 119.021L416.334 120.016C417.688 120.144 419.042 120.247 420.395 120.324L420.452 119.326ZM412.418 118.567C411.082 118.391 409.751 118.191 408.427 117.966L408.26 118.952C409.596 119.179 410.94 119.381 412.288 119.559L412.418 118.567ZM404.462 117.216C403.14 116.94 401.829 116.639 400.531 116.314L400.288 117.284C401.598 117.612 402.923 117.916 404.258 118.195L404.462 117.216ZM396.638 115.252C395.34 114.869 394.059 114.46 392.801 114.027L392.476 114.973C393.748 115.411 395.043 115.824 396.355 116.211L396.638 115.252ZM389.02 112.623C387.759 112.119 386.526 111.589 385.325 111.033L384.905 111.941C386.123 112.505 387.372 113.042 388.649 113.552L389.02 112.623ZM381.721 109.234C380.521 108.588 379.363 107.914 378.249 107.212L377.716 108.058C378.85 108.773 380.028 109.459 381.247 110.114L381.721 109.234ZM374.941 104.942C373.849 104.125 372.815 103.276 371.845 102.396L371.173 103.137C372.168 104.039 373.226 104.908 374.342 105.743L374.941 104.942ZM369.035 99.5561C368.139 98.54 367.325 97.4894 366.599 96.405L365.768 96.9613C366.52 98.0848 367.362 99.1704 368.285 100.217L369.035 99.5561ZM364.643 92.948C364.082 91.744 363.625 90.5036 363.279 89.2276L362.314 89.4893C362.675 90.8224 363.153 92.1165 363.737 93.3704L364.643 92.948Z" fill="#7D5606"/>
<path d="M499.3 103.992L499.308 102.92L504.516 98.216C504.964 97.816 505.26 97.432 505.404 97.064C505.553 96.696 505.628 96.312 505.628 95.912C505.628 95.4373 505.516 95.008 505.292 94.624C505.073 94.24 504.772 93.936 504.388 93.712C504.009 93.4827 503.585 93.368 503.116 93.368C502.625 93.368 502.188 93.4853 501.804 93.72C501.42 93.9547 501.116 94.264 500.892 94.648C500.673 95.032 500.567 95.4507 500.572 95.904H499.372C499.372 95.2053 499.537 94.5813 499.868 94.032C500.199 93.4773 500.647 93.04 501.212 92.72C501.777 92.4 502.417 92.24 503.132 92.24C503.831 92.24 504.457 92.4053 505.012 92.736C505.572 93.0613 506.012 93.504 506.332 94.064C506.657 94.6187 506.82 95.2373 506.82 95.92C506.82 96.64 506.687 97.2373 506.42 97.712C506.159 98.1867 505.748 98.672 505.188 99.168L501.092 102.864H506.82V103.992H499.3ZM511.94 104V95.36H512.996V96.272C513.263 95.92 513.607 95.6427 514.028 95.44C514.449 95.232 514.916 95.128 515.428 95.128C515.999 95.128 516.503 95.2533 516.94 95.504C517.383 95.7547 517.719 96.1147 517.948 96.584C518.199 96.1307 518.553 95.776 519.012 95.52C519.471 95.2587 519.988 95.128 520.564 95.128C521.433 95.128 522.129 95.3973 522.652 95.936C523.175 96.4693 523.436 97.192 523.436 98.104L523.428 104H522.252L522.26 98.328C522.26 97.6613 522.073 97.1387 521.7 96.76C521.332 96.376 520.863 96.184 520.292 96.184C519.967 96.184 519.649 96.2587 519.34 96.408C519.031 96.5573 518.775 96.7973 518.572 97.128C518.375 97.4587 518.276 97.8907 518.276 98.424L518.268 104H517.108L517.116 98.408C517.116 97.72 516.932 97.1787 516.564 96.784C516.201 96.384 515.721 96.184 515.124 96.184C514.527 96.184 514.044 96.3893 513.676 96.8C513.308 97.2053 513.124 97.7467 513.124 98.424V104H511.94ZM529.056 104.24C528.197 104.24 527.464 104.045 526.856 103.656C526.248 103.267 525.781 102.728 525.456 102.04C525.131 101.352 524.968 100.563 524.968 99.672C524.968 98.7653 525.133 97.9707 525.464 97.288C525.795 96.6053 526.264 96.0747 526.872 95.696C527.485 95.312 528.213 95.12 529.056 95.12C529.92 95.12 530.656 95.3147 531.264 95.704C531.877 96.088 532.344 96.624 532.664 97.312C532.989 97.9947 533.152 98.7813 533.152 99.672C533.152 100.579 532.989 101.376 532.664 102.064C532.339 102.747 531.869 103.28 531.256 103.664C530.643 104.048 529.909 104.24 529.056 104.24ZM529.056 103.112C530.016 103.112 530.731 102.795 531.2 102.16C531.669 101.52 531.904 100.691 531.904 99.672C531.904 98.632 531.667 97.8027 531.192 97.184C530.717 96.56 530.005 96.248 529.056 96.248C528.091 96.248 527.376 96.568 526.912 97.208C526.448 97.8427 526.216 98.664 526.216 99.672C526.216 100.712 526.456 101.547 526.936 102.176C527.416 102.8 528.123 103.112 529.056 103.112ZM534.909 104V95.36H535.973V96.56C536.293 96.096 536.701 95.744 537.197 95.504C537.698 95.264 538.258 95.144 538.877 95.144C539.528 95.144 540.074 95.2667 540.517 95.512C540.96 95.752 541.314 96.072 541.581 96.472C541.848 96.8667 542.04 97.3067 542.157 97.792C542.28 98.2773 542.341 98.7627 542.341 99.248V104H541.157V99.592C541.157 98.9573 541.074 98.3893 540.909 97.888C540.744 97.3867 540.477 96.992 540.109 96.704C539.741 96.4107 539.256 96.264 538.653 96.264C537.821 96.264 537.186 96.5413 536.749 97.096C536.312 97.6507 536.093 98.416 536.093 99.392V104H534.909ZM549.121 104C548.636 104.101 548.156 104.141 547.681 104.12C547.212 104.099 546.79 103.997 546.417 103.816C546.049 103.635 545.769 103.352 545.577 102.968C545.422 102.653 545.337 102.331 545.321 102C545.31 101.669 545.305 101.293 545.305 100.872V96.368H543.457V95.36H545.305V92.96H546.473V95.36H549.121V96.368H546.473V100.824C546.473 101.187 546.476 101.491 546.481 101.736C546.492 101.976 546.548 102.189 546.649 102.376C546.841 102.733 547.145 102.947 547.561 103.016C547.982 103.085 548.502 103.069 549.121 102.968V104ZM550.815 104V92.48H551.879V96.56C552.199 96.096 552.607 95.744 553.103 95.504C553.604 95.264 554.164 95.144 554.783 95.144C555.434 95.144 555.98 95.2667 556.423 95.512C556.866 95.752 557.22 96.072 557.487 96.472C557.754 96.8667 557.946 97.3067 558.063 97.792C558.186 98.2773 558.247 98.7627 558.247 99.248V104H557.063V99.592C557.063 98.9573 556.98 98.3893 556.815 97.888C556.65 97.3867 556.383 96.992 556.015 96.704C555.647 96.4107 555.162 96.264 554.559 96.264C553.727 96.264 553.092 96.5413 552.655 97.096C552.218 97.6507 551.999 98.416 551.999 99.392V104H550.815ZM563.547 104.232C562.534 104.232 561.699 104.013 561.043 103.576C560.392 103.139 559.992 102.531 559.843 101.752L561.043 101.552C561.171 102.048 561.462 102.44 561.915 102.728C562.374 103.016 562.939 103.16 563.611 103.16C564.267 103.16 564.784 103.024 565.163 102.752C565.542 102.475 565.731 102.099 565.731 101.624C565.731 101.357 565.67 101.141 565.547 100.976C565.424 100.805 565.179 100.648 564.811 100.504C564.448 100.36 563.902 100.189 563.171 99.992C562.387 99.7787 561.771 99.5653 561.323 99.352C560.88 99.1387 560.566 98.8933 560.379 98.616C560.198 98.3333 560.107 97.9893 560.107 97.584C560.107 96.848 560.408 96.2533 561.011 95.8C561.619 95.3467 562.411 95.12 563.387 95.12C564.038 95.12 564.619 95.2267 565.131 95.44C565.648 95.648 566.064 95.9413 566.379 96.32C566.694 96.6987 566.88 97.1387 566.939 97.64L565.739 97.856C565.654 97.3493 565.4 96.9493 564.979 96.656C564.558 96.3573 564.022 96.2027 563.371 96.192C562.758 96.176 562.259 96.2933 561.875 96.544C561.491 96.7893 561.299 97.1173 561.299 97.528C561.299 97.7573 561.368 97.9547 561.507 98.12C561.646 98.28 561.896 98.432 562.259 98.576C562.627 98.72 563.15 98.8773 563.827 99.048C564.622 99.2507 565.246 99.464 565.699 99.688C566.152 99.912 566.475 100.176 566.667 100.48C566.859 100.784 566.955 101.16 566.955 101.608C566.955 102.424 566.651 103.067 566.043 103.536C565.44 104 564.608 104.232 563.547 104.232Z" fill="#7D5606"/>
<path d="M720.628 104V93.792L718.46 95.096V93.776L720.628 92.48H721.82V104H720.628ZM728.05 104V95.36H729.106V96.272C729.372 95.92 729.716 95.6427 730.138 95.44C730.559 95.232 731.026 95.128 731.538 95.128C732.108 95.128 732.612 95.2533 733.05 95.504C733.492 95.7547 733.828 96.1147 734.058 96.584C734.308 96.1307 734.663 95.776 735.122 95.52C735.58 95.2587 736.098 95.128 736.674 95.128C737.543 95.128 738.239 95.3973 738.762 95.936C739.284 96.4693 739.546 97.192 739.546 98.104L739.538 104H738.362L738.37 98.328C738.37 97.6613 738.183 97.1387 737.81 96.76C737.442 96.376 736.972 96.184 736.402 96.184C736.076 96.184 735.759 96.2587 735.45 96.408C735.14 96.5573 734.884 96.7973 734.682 97.128C734.484 97.4587 734.386 97.8907 734.386 98.424L734.378 104H733.218L733.226 98.408C733.226 97.72 733.042 97.1787 732.674 96.784C732.311 96.384 731.831 96.184 731.234 96.184C730.636 96.184 730.154 96.3893 729.786 96.8C729.418 97.2053 729.234 97.7467 729.234 98.424V104H728.05ZM745.166 104.24C744.307 104.24 743.574 104.045 742.966 103.656C742.358 103.267 741.891 102.728 741.566 102.04C741.24 101.352 741.078 100.563 741.078 99.672C741.078 98.7653 741.243 97.9707 741.574 97.288C741.904 96.6053 742.374 96.0747 742.982 95.696C743.595 95.312 744.323 95.12 745.166 95.12C746.03 95.12 746.766 95.3147 747.374 95.704C747.987 96.088 748.454 96.624 748.774 97.312C749.099 97.9947 749.262 98.7813 749.262 99.672C749.262 100.579 749.099 101.376 748.774 102.064C748.448 102.747 747.979 103.28 747.366 103.664C746.752 104.048 746.019 104.24 745.166 104.24ZM745.166 103.112C746.126 103.112 746.84 102.795 747.31 102.16C747.779 101.52 748.014 100.691 748.014 99.672C748.014 98.632 747.776 97.8027 747.302 97.184C746.827 96.56 746.115 96.248 745.166 96.248C744.2 96.248 743.486 96.568 743.022 97.208C742.558 97.8427 742.326 98.664 742.326 99.672C742.326 100.712 742.566 101.547 743.046 102.176C743.526 102.8 744.232 103.112 745.166 103.112ZM751.018 104V95.36H752.082V96.56C752.402 96.096 752.81 95.744 753.306 95.504C753.808 95.264 754.368 95.144 754.986 95.144C755.637 95.144 756.184 95.2667 756.626 95.512C757.069 95.752 757.424 96.072 757.69 96.472C757.957 96.8667 758.149 97.3067 758.266 97.792C758.389 98.2773 758.45 98.7627 758.45 99.248V104H757.266V99.592C757.266 98.9573 757.184 98.3893 757.018 97.888C756.853 97.3867 756.586 96.992 756.218 96.704C755.85 96.4107 755.365 96.264 754.762 96.264C753.93 96.264 753.296 96.5413 752.858 97.096C752.421 97.6507 752.202 98.416 752.202 99.392V104H751.018ZM765.23 104C764.745 104.101 764.265 104.141 763.79 104.12C763.321 104.099 762.9 103.997 762.526 103.816C762.158 103.635 761.878 103.352 761.686 102.968C761.532 102.653 761.446 102.331 761.43 102C761.42 101.669 761.414 101.293 761.414 100.872V96.368H759.566V95.36H761.414V92.96H762.582V95.36H765.23V96.368H762.582V100.824C762.582 101.187 762.585 101.491 762.59 101.736C762.601 101.976 762.657 102.189 762.758 102.376C762.95 102.733 763.254 102.947 763.67 103.016C764.092 103.085 764.612 103.069 765.23 102.968V104ZM766.925 104V92.48H767.989V96.56C768.309 96.096 768.717 95.744 769.213 95.504C769.714 95.264 770.274 95.144 770.893 95.144C771.543 95.144 772.09 95.2667 772.533 95.512C772.975 95.752 773.33 96.072 773.597 96.472C773.863 96.8667 774.055 97.3067 774.173 97.792C774.295 98.2773 774.357 98.7627 774.357 99.248V104H773.173V99.592C773.173 98.9573 773.09 98.3893 772.925 97.888C772.759 97.3867 772.493 96.992 772.125 96.704C771.757 96.4107 771.271 96.264 770.669 96.264C769.837 96.264 769.202 96.5413 768.765 97.096C768.327 97.6507 768.109 98.416 768.109 99.392V104H766.925Z" fill="#7D5606"/>
<path d="M218.628 104V93.792L216.46 95.096V93.776L218.628 92.48H219.82V104H218.628ZM226.05 104V95.36H227.106V96.272C227.372 95.92 227.716 95.6427 228.138 95.44C228.559 95.232 229.026 95.128 229.538 95.128C230.108 95.128 230.612 95.2533 231.05 95.504C231.492 95.7547 231.828 96.1147 232.058 96.584C232.308 96.1307 232.663 95.776 233.122 95.52C233.58 95.2587 234.098 95.128 234.674 95.128C235.543 95.128 236.239 95.3973 236.762 95.936C237.284 96.4693 237.546 97.192 237.546 98.104L237.538 104H236.362L236.37 98.328C236.37 97.6613 236.183 97.1387 235.81 96.76C235.442 96.376 234.972 96.184 234.402 96.184C234.076 96.184 233.759 96.2587 233.45 96.408C233.14 96.5573 232.884 96.7973 232.682 97.128C232.484 97.4587 232.386 97.8907 232.386 98.424L232.378 104H231.218L231.226 98.408C231.226 97.72 231.042 97.1787 230.674 96.784C230.311 96.384 229.831 96.184 229.234 96.184C228.636 96.184 228.154 96.3893 227.786 96.8C227.418 97.2053 227.234 97.7467 227.234 98.424V104H226.05ZM243.166 104.24C242.307 104.24 241.574 104.045 240.966 103.656C240.358 103.267 239.891 102.728 239.566 102.04C239.24 101.352 239.078 100.563 239.078 99.672C239.078 98.7653 239.243 97.9707 239.574 97.288C239.904 96.6053 240.374 96.0747 240.982 95.696C241.595 95.312 242.323 95.12 243.166 95.12C244.03 95.12 244.766 95.3147 245.374 95.704C245.987 96.088 246.454 96.624 246.774 97.312C247.099 97.9947 247.262 98.7813 247.262 99.672C247.262 100.579 247.099 101.376 246.774 102.064C246.448 102.747 245.979 103.28 245.366 103.664C244.752 104.048 244.019 104.24 243.166 104.24ZM243.166 103.112C244.126 103.112 244.84 102.795 245.31 102.16C245.779 101.52 246.014 100.691 246.014 99.672C246.014 98.632 245.776 97.8027 245.302 97.184C244.827 96.56 244.115 96.248 243.166 96.248C242.2 96.248 241.486 96.568 241.022 97.208C240.558 97.8427 240.326 98.664 240.326 99.672C240.326 100.712 240.566 101.547 241.046 102.176C241.526 102.8 242.232 103.112 243.166 103.112ZM249.018 104V95.36H250.082V96.56C250.402 96.096 250.81 95.744 251.306 95.504C251.808 95.264 252.368 95.144 252.986 95.144C253.637 95.144 254.184 95.2667 254.626 95.512C255.069 95.752 255.424 96.072 255.69 96.472C255.957 96.8667 256.149 97.3067 256.266 97.792C256.389 98.2773 256.45 98.7627 256.45 99.248V104H255.266V99.592C255.266 98.9573 255.184 98.3893 255.018 97.888C254.853 97.3867 254.586 96.992 254.218 96.704C253.85 96.4107 253.365 96.264 252.762 96.264C251.93 96.264 251.296 96.5413 250.858 97.096C250.421 97.6507 250.202 98.416 250.202 99.392V104H249.018ZM263.23 104C262.745 104.101 262.265 104.141 261.79 104.12C261.321 104.099 260.9 103.997 260.526 103.816C260.158 103.635 259.878 103.352 259.686 102.968C259.532 102.653 259.446 102.331 259.43 102C259.42 101.669 259.414 101.293 259.414 100.872V96.368H257.566V95.36H259.414V92.96H260.582V95.36H263.23V96.368H260.582V100.824C260.582 101.187 260.585 101.491 260.59 101.736C260.601 101.976 260.657 102.189 260.758 102.376C260.95 102.733 261.254 102.947 261.67 103.016C262.092 103.085 262.612 103.069 263.23 102.968V104ZM264.925 104V92.48H265.989V96.56C266.309 96.096 266.717 95.744 267.213 95.504C267.714 95.264 268.274 95.144 268.893 95.144C269.543 95.144 270.09 95.2667 270.533 95.512C270.975 95.752 271.33 96.072 271.597 96.472C271.863 96.8667 272.055 97.3067 272.173 97.792C272.295 98.2773 272.357 98.7627 272.357 99.248V104H271.173V99.592C271.173 98.9573 271.09 98.3893 270.925 97.888C270.759 97.3867 270.493 96.992 270.125 96.704C269.757 96.4107 269.271 96.264 268.669 96.264C267.837 96.264 267.202 96.5413 266.765 97.096C266.327 97.6507 266.109 98.416 266.109 99.392V104H264.925Z" fill="#7D5606"/>
</svg>
