<svg width="449" height="427" viewBox="0 0 449 427" fill="none" xmlns="http://www.w3.org/2000/svg">
<path d="M88 89C88 89 54.2499 156.952 88 152.819C121.75 148.686 88 89 88 89Z" fill="#EAF3F3"/>
<path d="M70.5 190C70.5 190 22.1249 283.434 70.5 277.751C118.875 272.068 70.5 190 70.5 190Z" fill="#EAF3F3"/>
<path d="M132.5 248C132.5 248 84.1249 341.434 132.5 335.751C180.875 330.068 132.5 248 132.5 248Z" fill="#EAF3F3"/>
<path d="M205.5 300C205.5 300 152.625 393.434 205.5 387.751C258.375 382.068 205.5 300 205.5 300Z" fill="#EAF3F3"/>
<path d="M280 169C280 169 235 270.928 280 264.728C325 258.529 280 169 280 169Z" fill="#EAF3F3"/>
<path d="M355.5 125C355.5 125 311.625 222.681 355.5 216.74C399.375 210.798 355.5 125 355.5 125Z" fill="#EAF3F3"/>
<path d="M178.5 71C178.5 71 132.375 164.434 178.5 158.751C224.625 153.068 178.5 71 178.5 71Z" fill="#EAF3F3"/>
<path d="M73.5 309C73.5 309 38.6249 392.878 73.5 387.776C108.375 382.675 73.5 309 73.5 309Z" fill="#EAF3F3"/>
<path d="M134.5 363C134.5 363 106.375 430.952 134.5 426.819C162.625 422.686 134.5 363 134.5 363Z" fill="#EAF3F3"/>
<path d="M132.5 0C132.5 0 104.375 67.9519 132.5 63.8188C160.625 59.6858 132.5 0 132.5 0Z" fill="#EAF3F3"/>
<path d="M291.889 9C291.889 9 253.889 102.167 291.889 96.5C329.889 90.8333 291.889 9 291.889 9Z" fill="#EAF3F3"/>
<path d="M11 169C11 169 -13.7501 228.458 11 224.841C35.7501 221.225 11 169 11 169Z" fill="#EAF3F3"/>
<path d="M215 25C215 25 190.25 84.4579 215 80.8415C239.75 77.2251 215 25 215 25Z" fill="#EAF3F3"/>
<path d="M415.5 71C415.5 71 385.125 145.322 415.5 140.802C445.875 136.281 415.5 71 415.5 71Z" fill="#EAF3F3"/>
<path d="M431.889 221C431.889 221 393.889 314.167 431.889 308.5C469.889 302.833 431.889 221 431.889 221Z" fill="#EAF3F3"/>
<path d="M372.5 284C372.5 284 328.625 377.434 372.5 371.751C416.375 366.068 372.5 284 372.5 284Z" fill="#EAF3F3"/>
<path d="M199.5 181C199.5 181 164.625 246.828 199.5 242.824C234.375 238.821 199.5 181 199.5 181Z" fill="#EAF3F3"/>
<path d="M353.5 25C353.5 25 332.125 66.4082 353.5 63.8896C374.875 61.371 353.5 25 353.5 25Z" fill="#EAF3F3"/>
<path d="M286.5 372C286.5 372 265.125 413.408 286.5 410.89C307.875 408.371 286.5 372 286.5 372Z" fill="#EAF3F3"/>
<path fill-rule="evenodd" clip-rule="evenodd" d="M156.584 251.856L156.503 251.963L130.213 298.317C129.126 299.632 128.876 301.296 129.105 302.972C129.299 304.399 129.736 305.791 130.678 306.796C131.726 307.913 133.121 308.268 134.536 308.076L161.64 304.382L163.595 318.726C163.786 320.125 164.46 321.399 165.793 322.149C167.011 322.834 168.467 322.898 169.881 322.705C171.188 322.527 172.384 322.049 173.378 321.208L173.425 321.168L173.47 321.125C174.56 320.081 175.08 318.713 174.872 317.189L172.917 302.845L175.588 302.481C176.987 302.29 178.262 301.617 179.011 300.284C179.697 299.065 179.76 297.609 179.568 296.196C179.385 294.853 178.853 293.645 177.931 292.663C176.934 291.515 175.566 290.998 174.051 291.204L171.38 291.568L166.541 256.056C166.28 254.144 165.769 252.421 164.79 251.186C163.692 249.802 162.137 249.2 160.399 249.436C158.802 249.654 157.541 250.598 156.584 251.856ZM133.066 306.022C133.421 306.133 133.821 306.158 134.266 306.097L163.349 302.134L163.349 302.134L134.266 306.097C133.821 306.158 133.421 306.133 133.066 306.022ZM170.655 320.485C171.197 320.301 171.674 320.034 172.088 319.684C172.742 319.058 173.01 318.316 172.894 317.458L170.669 301.136L175.318 300.503C177.165 300.251 177.922 298.905 177.59 296.465C177.482 295.675 177.217 294.992 176.796 294.417C177.217 294.992 177.482 295.675 177.589 296.465C177.922 298.905 177.165 300.251 175.318 300.503L170.669 301.136L172.893 317.458C173.01 318.316 172.742 319.057 172.088 319.684C171.674 320.034 171.196 320.301 170.655 320.485ZM163.361 252.61C163.937 253.433 164.337 254.672 164.562 256.325L169.672 293.816L169.672 293.816L164.562 256.325C164.337 254.672 163.937 253.433 163.361 252.61ZM158.604 267.314L158.604 267.314L141.38 297.672L141.38 297.672L158.604 267.314ZM145.107 295.149L157.424 273.44L160.103 293.105L145.107 295.149Z" fill="#969191"/>
<path fill-rule="evenodd" clip-rule="evenodd" d="M261.709 289.196C261.709 310.422 241.382 327.629 220.933 327.629C200.484 327.629 183.906 310.422 183.906 289.196C183.906 267.971 197.672 248 218.121 248C238.57 248 261.709 267.971 261.709 289.196ZM210.574 274.181C211.128 273.637 212.018 273.645 212.562 274.199L224.008 285.848L235.883 274.181C236.437 273.637 237.327 273.645 237.872 274.199C238.416 274.753 238.408 275.643 237.854 276.187L225.978 287.854L238.809 300.914C239.353 301.468 239.345 302.358 238.791 302.902C238.237 303.447 237.347 303.439 236.803 302.885L223.972 289.825L211.139 302.434C210.585 302.978 209.694 302.97 209.15 302.416C208.606 301.862 208.614 300.972 209.168 300.428L222.002 287.819L210.556 276.169C210.012 275.616 210.02 274.725 210.574 274.181Z" fill="#FC6E47"/>
<path fill-rule="evenodd" clip-rule="evenodd" d="M308.326 248.421L308.216 248.519L269.932 292.656C268.479 293.834 267.851 295.569 267.734 297.419C267.634 298.995 267.803 300.586 268.598 301.87C269.482 303.297 270.905 303.981 272.467 304.08L302.4 305.972L301.398 321.812C301.3 323.358 301.749 324.873 303.02 325.967C304.181 326.967 305.733 327.351 307.293 327.45C308.737 327.541 310.126 327.286 311.376 326.597L311.436 326.564L311.493 326.528C312.89 325.641 313.745 324.283 313.852 322.6L314.853 306.76L317.803 306.946C319.348 307.044 320.863 306.595 321.958 305.325C322.958 304.163 323.341 302.612 323.44 301.051C323.534 299.569 323.224 298.155 322.444 296.9C321.621 295.451 320.263 294.599 318.59 294.493L315.641 294.306L318.12 255.089C318.254 252.978 318.077 251.015 317.291 249.476C316.411 247.751 314.869 246.767 312.951 246.646C311.187 246.534 309.627 247.276 308.326 248.421ZM286.626 292.472L304.56 271.803L303.187 293.519L286.626 292.472Z" fill="#969191"/>
<path d="M174.725 150.75C171.142 150.75 168.058 149.967 165.475 148.4C162.908 146.817 160.933 144.617 159.55 141.8C158.183 138.983 157.5 135.717 157.5 132C157.5 128.283 158.183 125.017 159.55 122.2C160.933 119.383 162.908 117.192 165.475 115.625C168.058 114.042 171.142 113.25 174.725 113.25C178.325 113.25 181.408 114.042 183.975 115.625C186.558 117.192 188.533 119.383 189.9 122.2C191.283 125.017 191.975 128.283 191.975 132C191.975 135.717 191.283 138.983 189.9 141.8C188.533 144.617 186.558 146.817 183.975 148.4C181.408 149.967 178.325 150.75 174.725 150.75ZM174.725 145.075C177.142 145.092 179.15 144.558 180.75 143.475C182.367 142.392 183.575 140.867 184.375 138.9C185.192 136.917 185.6 134.617 185.6 132C185.6 128.067 184.692 124.917 182.875 122.55C181.075 120.183 178.358 118.975 174.725 118.925C172.308 118.908 170.3 119.442 168.7 120.525C167.1 121.608 165.892 123.133 165.075 125.1C164.275 127.067 163.875 129.367 163.875 132C163.875 135.933 164.775 139.083 166.575 141.45C168.392 143.817 171.108 145.025 174.725 145.075ZM207.076 150.775C205.076 150.775 203.426 150.45 202.126 149.8C200.826 149.133 199.793 148.283 199.026 147.25C198.26 146.2 197.693 145.092 197.326 143.925C196.96 142.758 196.718 141.65 196.601 140.6C196.501 139.55 196.451 138.708 196.451 138.075V123H202.551V136C202.551 136.833 202.61 137.775 202.726 138.825C202.86 139.858 203.126 140.85 203.526 141.8C203.943 142.75 204.576 143.542 205.426 144.175C206.276 144.792 207.418 145.1 208.851 145.1C209.885 145.1 210.876 144.867 211.826 144.4C212.793 143.933 213.593 143.108 214.226 141.925C214.86 140.742 215.176 139.058 215.176 136.875V123H221.226V150H215.901V147C214.918 148.167 213.685 149.092 212.201 149.775C210.735 150.442 209.026 150.775 207.076 150.775ZM228.2 162V123H233.525V124.925C234.475 124.075 235.575 123.417 236.825 122.95C238.075 122.483 239.467 122.25 241 122.25C243.55 122.25 245.767 122.867 247.65 124.1C249.533 125.333 250.983 127.025 252 129.175C253.033 131.325 253.55 133.767 253.55 136.5C253.55 139.2 253.042 141.625 252.025 143.775C251.008 145.925 249.575 147.625 247.725 148.875C245.875 150.125 243.708 150.75 241.225 150.75C239.825 150.75 238.542 150.558 237.375 150.175C236.225 149.808 235.192 149.292 234.275 148.625V162H228.2ZM240.3 145.35C241.867 145.35 243.158 144.958 244.175 144.175C245.192 143.375 245.942 142.308 246.425 140.975C246.925 139.642 247.175 138.15 247.175 136.5C247.175 134.867 246.917 133.383 246.4 132.05C245.9 130.7 245.125 129.633 244.075 128.85C243.042 128.05 241.717 127.65 240.1 127.65C237.8 127.65 236.125 128.467 235.075 130.1C234.042 131.733 233.525 133.867 233.525 136.5C233.525 139.117 234.05 141.25 235.1 142.9C236.15 144.533 237.883 145.35 240.3 145.35ZM268.851 150.75C265.517 150.75 262.809 150 260.726 148.5C258.642 147 257.376 144.892 256.926 142.175L263.076 141.225C263.376 142.558 264.067 143.608 265.151 144.375C266.251 145.142 267.626 145.525 269.276 145.525C270.709 145.525 271.826 145.242 272.626 144.675C273.426 144.092 273.826 143.3 273.826 142.3C273.826 141.683 273.676 141.192 273.376 140.825C273.076 140.442 272.434 140.075 271.451 139.725C270.484 139.375 268.984 138.933 266.951 138.4C264.684 137.8 262.884 137.158 261.551 136.475C260.217 135.775 259.259 134.95 258.676 134C258.092 133.05 257.801 131.9 257.801 130.55C257.801 128.017 258.767 126 260.701 124.5C262.634 123 265.209 122.25 268.426 122.25C271.576 122.25 274.176 122.975 276.226 124.425C278.276 125.858 279.467 127.792 279.801 130.225L273.651 131.325C273.484 130.175 272.951 129.267 272.051 128.6C271.167 127.933 269.992 127.558 268.526 127.475C267.109 127.408 265.967 127.633 265.101 128.15C264.234 128.65 263.801 129.35 263.801 130.25C263.801 130.767 263.976 131.208 264.326 131.575C264.676 131.942 265.376 132.308 266.426 132.675C267.492 133.042 269.076 133.492 271.176 134.025C274.409 134.858 276.684 135.875 278.001 137.075C279.334 138.275 280.001 139.925 280.001 142.025C280.001 144.742 279.009 146.875 277.026 148.425C275.059 149.975 272.334 150.75 268.851 150.75ZM285.977 150V123H292.002V150H285.977ZM288.977 119.75C287.943 119.75 287.085 119.408 286.402 118.725C285.718 118.025 285.377 117.167 285.377 116.15C285.377 115.15 285.718 114.3 286.402 113.6C287.085 112.9 287.943 112.55 288.977 112.55C290.027 112.55 290.893 112.9 291.577 113.6C292.26 114.3 292.602 115.15 292.602 116.15C292.602 117.167 292.26 118.025 291.577 118.725C290.893 119.408 290.027 119.75 288.977 119.75ZM303.565 150.475C302.532 150.475 301.674 150.133 300.99 149.45C300.307 148.75 299.965 147.892 299.965 146.875C299.965 145.875 300.307 145.025 300.99 144.325C301.674 143.625 302.532 143.275 303.565 143.275C304.615 143.275 305.482 143.625 306.165 144.325C306.849 145.025 307.19 145.875 307.19 146.875C307.19 147.892 306.849 148.75 306.165 149.45C305.482 150.133 304.615 150.475 303.565 150.475ZM318.751 150.475C317.717 150.475 316.859 150.133 316.176 149.45C315.492 148.75 315.151 147.892 315.151 146.875C315.151 145.875 315.492 145.025 316.176 144.325C316.859 143.625 317.717 143.275 318.751 143.275C319.801 143.275 320.667 143.625 321.351 144.325C322.034 145.025 322.376 145.875 322.376 146.875C322.376 147.892 322.034 148.75 321.351 149.45C320.667 150.133 319.801 150.475 318.751 150.475ZM333.936 150.475C332.903 150.475 332.045 150.133 331.361 149.45C330.678 148.75 330.336 147.892 330.336 146.875C330.336 145.875 330.678 145.025 331.361 144.325C332.045 143.625 332.903 143.275 333.936 143.275C334.986 143.275 335.853 143.625 336.536 144.325C337.22 145.025 337.561 145.875 337.561 146.875C337.561 147.892 337.22 148.75 336.536 149.45C335.853 150.133 334.986 150.475 333.936 150.475Z" fill="#383434" fill-opacity="0.74"/>
<path d="M109.684 195.36C108.084 195.36 106.784 195 105.784 194.28C104.784 193.56 104.176 192.548 103.96 191.244L106.912 190.788C107.056 191.428 107.388 191.932 107.908 192.3C108.436 192.668 109.096 192.852 109.888 192.852C110.576 192.852 111.112 192.716 111.496 192.444C111.88 192.164 112.072 191.784 112.072 191.304C112.072 191.008 112 190.772 111.856 190.596C111.712 190.412 111.404 190.236 110.932 190.068C110.468 189.9 109.748 189.688 108.772 189.432C107.684 189.144 106.82 188.836 106.18 188.508C105.54 188.172 105.08 187.776 104.8 187.32C104.52 186.864 104.38 186.312 104.38 185.664C104.38 184.448 104.844 183.48 105.772 182.76C106.7 182.04 107.936 181.68 109.48 181.68C110.992 181.68 112.24 182.028 113.224 182.724C114.208 183.412 114.78 184.34 114.94 185.508L111.988 186.036C111.908 185.484 111.652 185.048 111.22 184.728C110.796 184.408 110.232 184.228 109.528 184.188C108.848 184.156 108.3 184.264 107.884 184.512C107.468 184.752 107.26 185.088 107.26 185.52C107.26 185.768 107.344 185.98 107.512 186.156C107.68 186.332 108.016 186.508 108.52 186.684C109.032 186.86 109.792 187.076 110.8 187.332C112.352 187.732 113.444 188.22 114.076 188.796C114.716 189.372 115.036 190.164 115.036 191.172C115.036 192.476 114.56 193.5 113.608 194.244C112.664 194.988 111.356 195.36 109.684 195.36ZM123.388 195.36C122.092 195.36 120.96 195.068 119.992 194.484C119.024 193.9 118.272 193.096 117.736 192.072C117.208 191.04 116.944 189.856 116.944 188.52C116.944 187.16 117.216 185.968 117.76 184.944C118.304 183.92 119.06 183.12 120.028 182.544C120.996 181.968 122.116 181.68 123.388 181.68C124.692 181.68 125.828 181.972 126.796 182.556C127.764 183.14 128.516 183.948 129.052 184.98C129.588 186.004 129.856 187.184 129.856 188.52C129.856 189.864 129.584 191.052 129.04 192.084C128.504 193.108 127.752 193.912 126.784 194.496C125.816 195.072 124.684 195.36 123.388 195.36ZM123.388 192.648C124.532 192.648 125.384 192.264 125.944 191.496C126.512 190.728 126.796 189.736 126.796 188.52C126.796 187.264 126.512 186.264 125.944 185.52C125.376 184.768 124.524 184.392 123.388 184.392C122.228 184.392 121.372 184.776 120.82 185.544C120.276 186.304 120.004 187.296 120.004 188.52C120.004 189.784 120.288 190.788 120.856 191.532C121.432 192.276 122.276 192.648 123.388 192.648ZM132.476 195V182.04H135.032V183.444C135.456 182.908 135.992 182.488 136.64 182.184C137.296 181.872 138.012 181.716 138.788 181.716C139.708 181.716 140.48 181.904 141.104 182.28C141.736 182.648 142.224 183.148 142.568 183.78C142.968 183.14 143.516 182.636 144.212 182.268C144.908 181.9 145.676 181.716 146.516 181.716C147.948 181.716 149.044 182.148 149.804 183.012C150.572 183.868 150.956 184.996 150.956 186.396V195H148.064V187.128C148.064 186.24 147.84 185.548 147.392 185.052C146.952 184.548 146.36 184.296 145.616 184.296C144.92 184.296 144.336 184.536 143.864 185.016C143.4 185.496 143.168 186.164 143.168 187.02V195H140.288V187.164C140.288 186.268 140.068 185.568 139.628 185.064C139.188 184.552 138.588 184.296 137.828 184.296C137.092 184.296 136.5 184.548 136.052 185.052C135.612 185.556 135.392 186.212 135.392 187.02V195H132.476ZM159.767 195.36C158.455 195.36 157.303 195.076 156.311 194.508C155.319 193.94 154.543 193.152 153.983 192.144C153.431 191.136 153.155 189.976 153.155 188.664C153.155 187.248 153.427 186.016 153.971 184.968C154.515 183.92 155.271 183.112 156.239 182.544C157.207 181.968 158.327 181.68 159.599 181.68C160.943 181.68 162.083 181.992 163.019 182.616C163.963 183.24 164.663 184.128 165.119 185.28C165.575 186.424 165.747 187.772 165.635 189.324H156.251C156.363 190.396 156.703 191.22 157.271 191.796C157.839 192.364 158.615 192.648 159.599 192.648C161.047 192.648 162.059 192.032 162.635 190.8L165.491 191.664C164.995 192.84 164.227 193.752 163.187 194.4C162.155 195.04 161.015 195.36 159.767 195.36ZM159.719 184.212C157.799 184.212 156.667 185.188 156.323 187.14H162.695C162.575 186.132 162.271 185.392 161.783 184.92C161.303 184.448 160.615 184.212 159.719 184.212ZM175.909 195C175.053 195.16 174.213 195.228 173.389 195.204C172.573 195.188 171.841 195.04 171.193 194.76C170.545 194.472 170.053 194.02 169.717 193.404C169.421 192.844 169.265 192.276 169.249 191.7C169.233 191.116 169.225 190.452 169.225 189.708V184.308H166.873V182.04H169.225V178.44H172.105V182.04H175.909V184.308H172.105V189.54C172.105 190.06 172.109 190.516 172.117 190.908C172.133 191.3 172.217 191.62 172.369 191.868C172.657 192.348 173.117 192.616 173.749 192.672C174.381 192.728 175.101 192.696 175.909 192.576V195ZM178.672 195V177.72H181.252V183.48C181.724 182.92 182.312 182.48 183.016 182.16C183.728 181.832 184.552 181.668 185.488 181.668C186.448 181.668 187.24 181.828 187.864 182.148C188.488 182.46 188.984 182.868 189.352 183.372C189.72 183.868 189.992 184.396 190.168 184.956C190.344 185.516 190.456 186.048 190.504 186.552C190.56 187.048 190.588 187.452 190.588 187.764V195H187.66V188.76C187.66 188.36 187.628 187.912 187.564 187.416C187.508 186.912 187.38 186.432 187.18 185.976C186.988 185.52 186.688 185.144 186.28 184.848C185.872 184.544 185.324 184.392 184.636 184.392C184.14 184.392 183.66 184.504 183.196 184.728C182.74 184.952 182.36 185.348 182.056 185.916C181.752 186.484 181.6 187.292 181.6 188.34V195H178.672ZM193.959 195V182.04H196.851V195H193.959ZM195.399 180.48C194.903 180.48 194.491 180.316 194.163 179.988C193.835 179.652 193.671 179.24 193.671 178.752C193.671 178.272 193.835 177.864 194.163 177.528C194.491 177.192 194.903 177.024 195.399 177.024C195.903 177.024 196.319 177.192 196.647 177.528C196.975 177.864 197.139 178.272 197.139 178.752C197.139 179.24 196.975 179.652 196.647 179.988C196.319 180.316 195.903 180.48 195.399 180.48ZM200.422 195V182.04H203.002V183.48C203.474 182.92 204.062 182.48 204.766 182.16C205.478 181.832 206.302 181.668 207.238 181.668C208.198 181.668 208.99 181.828 209.614 182.148C210.238 182.46 210.734 182.868 211.102 183.372C211.47 183.868 211.742 184.396 211.918 184.956C212.094 185.516 212.206 186.048 212.254 186.552C212.31 187.048 212.338 187.452 212.338 187.764V195H209.41V188.76C209.41 188.36 209.378 187.912 209.314 187.416C209.258 186.912 209.13 186.432 208.93 185.976C208.738 185.52 208.438 185.144 208.03 184.848C207.622 184.544 207.074 184.392 206.386 184.392C205.89 184.392 205.41 184.504 204.946 184.728C204.49 184.952 204.11 185.348 203.806 185.916C203.502 186.484 203.35 187.292 203.35 188.34V195H200.422ZM220.665 195.36C219.473 195.36 218.433 195.06 217.545 194.46C216.657 193.86 215.969 193.044 215.481 192.012C214.993 190.98 214.749 189.816 214.749 188.52C214.749 187.208 214.993 186.036 215.481 185.004C215.977 183.972 216.677 183.16 217.581 182.568C218.485 181.976 219.549 181.68 220.773 181.68C221.509 181.68 222.177 181.792 222.777 182.016C223.377 182.24 223.905 182.556 224.361 182.964V182.04H226.893V195.624C226.893 195.96 226.877 196.276 226.845 196.572C226.821 196.868 226.777 197.16 226.713 197.448C226.417 198.704 225.741 199.628 224.685 200.22C223.637 200.82 222.381 201.12 220.917 201.12C219.837 201.12 218.833 200.868 217.905 200.364C216.985 199.868 216.273 199.18 215.769 198.3L218.433 196.98C218.673 197.444 219.021 197.792 219.477 198.024C219.933 198.256 220.417 198.372 220.929 198.372C221.833 198.372 222.577 198.136 223.161 197.664C223.745 197.192 224.025 196.496 224.001 195.576V194.34C223.561 194.668 223.061 194.92 222.501 195.096C221.949 195.272 221.337 195.36 220.665 195.36ZM221.109 192.768C222.277 192.768 223.109 192.376 223.605 191.592C224.109 190.8 224.361 189.776 224.361 188.52C224.361 187.256 224.109 186.232 223.605 185.448C223.109 184.664 222.309 184.272 221.205 184.272C220.429 184.272 219.789 184.464 219.285 184.848C218.789 185.224 218.417 185.736 218.169 186.384C217.929 187.024 217.809 187.736 217.809 188.52C217.809 189.312 217.925 190.028 218.157 190.668C218.397 191.308 218.761 191.82 219.249 192.204C219.737 192.58 220.357 192.768 221.109 192.768ZM237.823 195L233.863 182.016L236.695 182.04L239.227 190.356L241.795 182.04H244.231L246.787 190.356L249.331 182.04H252.163L248.203 195H245.947L243.007 186.084L240.079 195H237.823ZM259.752 195.36C258.44 195.36 257.288 195.076 256.296 194.508C255.304 193.94 254.528 193.152 253.968 192.144C253.416 191.136 253.14 189.976 253.14 188.664C253.14 187.248 253.412 186.016 253.956 184.968C254.5 183.92 255.256 183.112 256.224 182.544C257.192 181.968 258.312 181.68 259.584 181.68C260.928 181.68 262.068 181.992 263.004 182.616C263.948 183.24 264.648 184.128 265.104 185.28C265.56 186.424 265.732 187.772 265.62 189.324H256.236C256.348 190.396 256.688 191.22 257.256 191.796C257.824 192.364 258.6 192.648 259.584 192.648C261.032 192.648 262.044 192.032 262.62 190.8L265.476 191.664C264.98 192.84 264.212 193.752 263.172 194.4C262.14 195.04 261 195.36 259.752 195.36ZM259.704 184.212C257.784 184.212 256.652 185.188 256.308 187.14H262.68C262.56 186.132 262.256 185.392 261.768 184.92C261.288 184.448 260.6 184.212 259.704 184.212ZM267.922 195V182.04H270.502V183.48C270.974 182.92 271.562 182.48 272.266 182.16C272.978 181.832 273.802 181.668 274.738 181.668C275.698 181.668 276.49 181.828 277.114 182.148C277.738 182.46 278.234 182.868 278.602 183.372C278.97 183.868 279.242 184.396 279.418 184.956C279.594 185.516 279.706 186.048 279.754 186.552C279.81 187.048 279.838 187.452 279.838 187.764V195H276.91V188.76C276.91 188.36 276.878 187.912 276.814 187.416C276.758 186.912 276.63 186.432 276.43 185.976C276.238 185.52 275.938 185.144 275.53 184.848C275.122 184.544 274.574 184.392 273.886 184.392C273.39 184.392 272.91 184.504 272.446 184.728C271.99 184.952 271.61 185.348 271.306 185.916C271.002 186.484 270.85 187.292 270.85 188.34V195H267.922ZM290.565 195C289.709 195.16 288.869 195.228 288.045 195.204C287.229 195.188 286.497 195.04 285.849 194.76C285.201 194.472 284.709 194.02 284.373 193.404C284.077 192.844 283.921 192.276 283.905 191.7C283.889 191.116 283.881 190.452 283.881 189.708V184.308H281.529V182.04H283.881V178.44H286.761V182.04H290.565V184.308H286.761V189.54C286.761 190.06 286.765 190.516 286.773 190.908C286.789 191.3 286.873 191.62 287.025 191.868C287.313 192.348 287.773 192.616 288.405 192.672C289.037 192.728 289.757 192.696 290.565 192.576V195ZM300.917 195L296.957 182.016L299.789 182.04L302.321 190.356L304.889 182.04H307.325L309.881 190.356L312.425 182.04H315.257L311.297 195H309.041L306.101 186.084L303.173 195H300.917ZM317.422 195V182.04H319.978V184.116C320.314 183.508 320.746 183.044 321.274 182.724C321.754 182.396 322.302 182.18 322.918 182.076C323.534 181.964 324.134 181.952 324.718 182.04V184.74C324.334 184.628 323.89 184.596 323.386 184.644C322.89 184.684 322.442 184.82 322.042 185.052C321.442 185.372 321.006 185.824 320.734 186.408C320.462 186.992 320.326 187.66 320.326 188.412V195H317.422ZM332.498 195.36C331.202 195.36 330.07 195.068 329.102 194.484C328.134 193.9 327.382 193.096 326.846 192.072C326.318 191.04 326.054 189.856 326.054 188.52C326.054 187.16 326.326 185.968 326.87 184.944C327.414 183.92 328.17 183.12 329.138 182.544C330.106 181.968 331.226 181.68 332.498 181.68C333.802 181.68 334.938 181.972 335.906 182.556C336.874 183.14 337.626 183.948 338.162 184.98C338.698 186.004 338.966 187.184 338.966 188.52C338.966 189.864 338.694 191.052 338.15 192.084C337.614 193.108 336.862 193.912 335.894 194.496C334.926 195.072 333.794 195.36 332.498 195.36ZM332.498 192.648C333.642 192.648 334.494 192.264 335.054 191.496C335.622 190.728 335.906 189.736 335.906 188.52C335.906 187.264 335.622 186.264 335.054 185.52C334.486 184.768 333.634 184.392 332.498 184.392C331.338 184.392 330.482 184.776 329.93 185.544C329.386 186.304 329.114 187.296 329.114 188.52C329.114 189.784 329.398 190.788 329.966 191.532C330.542 192.276 331.386 192.648 332.498 192.648ZM341.586 195V182.04H344.166V183.48C344.638 182.92 345.226 182.48 345.93 182.16C346.642 181.832 347.466 181.668 348.402 181.668C349.362 181.668 350.154 181.828 350.778 182.148C351.402 182.46 351.898 182.868 352.266 183.372C352.634 183.868 352.906 184.396 353.082 184.956C353.258 185.516 353.37 186.048 353.418 186.552C353.474 187.048 353.502 187.452 353.502 187.764V195H350.574V188.76C350.574 188.36 350.542 187.912 350.478 187.416C350.422 186.912 350.294 186.432 350.094 185.976C349.902 185.52 349.602 185.144 349.194 184.848C348.786 184.544 348.238 184.392 347.55 184.392C347.054 184.392 346.574 184.504 346.11 184.728C345.654 184.952 345.274 185.348 344.97 185.916C344.666 186.484 344.514 187.292 344.514 188.34V195H341.586ZM361.829 195.36C360.637 195.36 359.597 195.06 358.709 194.46C357.821 193.86 357.133 193.044 356.645 192.012C356.157 190.98 355.913 189.816 355.913 188.52C355.913 187.208 356.157 186.036 356.645 185.004C357.141 183.972 357.841 183.16 358.745 182.568C359.649 181.976 360.713 181.68 361.937 181.68C362.673 181.68 363.341 181.792 363.941 182.016C364.541 182.24 365.069 182.556 365.525 182.964V182.04H368.057V195.624C368.057 195.96 368.041 196.276 368.009 196.572C367.985 196.868 367.941 197.16 367.877 197.448C367.581 198.704 366.905 199.628 365.849 200.22C364.801 200.82 363.545 201.12 362.081 201.12C361.001 201.12 359.997 200.868 359.069 200.364C358.149 199.868 357.437 199.18 356.933 198.3L359.597 196.98C359.837 197.444 360.185 197.792 360.641 198.024C361.097 198.256 361.581 198.372 362.093 198.372C362.997 198.372 363.741 198.136 364.325 197.664C364.909 197.192 365.189 196.496 365.165 195.576V194.34C364.725 194.668 364.225 194.92 363.665 195.096C363.113 195.272 362.501 195.36 361.829 195.36ZM362.273 192.768C363.441 192.768 364.273 192.376 364.769 191.592C365.273 190.8 365.525 189.776 365.525 188.52C365.525 187.256 365.273 186.232 364.769 185.448C364.273 184.664 363.473 184.272 362.369 184.272C361.593 184.272 360.953 184.464 360.449 184.848C359.953 185.224 359.581 185.736 359.333 186.384C359.093 187.024 358.973 187.736 358.973 188.52C358.973 189.312 359.089 190.028 359.321 190.668C359.561 191.308 359.925 191.82 360.413 192.204C360.901 192.58 361.521 192.768 362.273 192.768Z" fill="#969191"/>
</svg>
