<svg width="833" height="191" viewBox="0 0 833 191" fill="none" xmlns="http://www.w3.org/2000/svg">
<rect x="205.25" y="74.5" width="91" height="42" rx="21" fill="#D1F2E4"/>
<rect x="205.25" y="74.5" width="91" height="42" rx="21" stroke="#425F7D"/>
<path d="M214.35 103V88.6H215.82V103H214.35ZM223.008 103.3C222.001 103.3 221.138 103.05 220.418 102.55C219.705 102.043 219.158 101.36 218.778 100.5C218.405 99.64 218.218 98.67 218.218 97.59C218.218 96.5167 218.405 95.55 218.778 94.69C219.158 93.83 219.701 93.15 220.408 92.65C221.115 92.15 221.961 91.9 222.948 91.9C223.701 91.9 224.365 92.04 224.938 92.32C225.511 92.6 225.995 92.9867 226.388 93.48V88.6H227.868V103H226.548V101.5C226.155 102.06 225.661 102.5 225.068 102.82C224.481 103.14 223.795 103.3 223.008 103.3ZM223.158 101.93C223.925 101.93 224.558 101.743 225.058 101.37C225.558 100.99 225.931 100.473 226.178 99.82C226.425 99.1667 226.548 98.4233 226.548 97.59C226.548 96.3233 226.268 95.2867 225.708 94.48C225.155 93.6733 224.315 93.27 223.188 93.27C222.415 93.27 221.775 93.46 221.268 93.84C220.768 94.22 220.395 94.7367 220.148 95.39C219.901 96.0433 219.778 96.7767 219.778 97.59C219.778 98.41 219.901 99.1467 220.148 99.8C220.401 100.453 220.778 100.973 221.278 101.36C221.778 101.74 222.405 101.93 223.158 101.93ZM235.243 103.3C234.19 103.3 233.277 103.067 232.503 102.6C231.73 102.133 231.13 101.477 230.703 100.63C230.283 99.7833 230.073 98.79 230.073 97.65C230.073 96.47 230.283 95.45 230.703 94.59C231.123 93.73 231.713 93.0667 232.473 92.6C233.24 92.1333 234.143 91.9 235.183 91.9C236.783 91.9 238.023 92.4433 238.903 93.53C239.79 94.61 240.207 96.1033 240.153 98.01H231.643C231.703 99.25 232.04 100.207 232.653 100.88C233.267 101.553 234.11 101.89 235.183 101.89C236.757 101.89 237.887 101.197 238.573 99.81L239.943 100.34C239.517 101.28 238.887 102.01 238.053 102.53C237.227 103.043 236.29 103.3 235.243 103.3ZM235.223 93.25C234.183 93.25 233.36 93.5567 232.753 94.17C232.147 94.7767 231.787 95.6467 231.673 96.78H238.613C238.38 94.4267 237.25 93.25 235.223 93.25ZM245.267 103.3C244.454 103.3 243.771 103.153 243.217 102.86C242.671 102.567 242.261 102.177 241.987 101.69C241.714 101.203 241.577 100.673 241.577 100.1C241.577 99.2133 241.834 98.5233 242.347 98.03C242.861 97.53 243.521 97.1733 244.327 96.96C244.814 96.84 245.347 96.7333 245.927 96.64C246.507 96.5467 247.084 96.4633 247.657 96.39C248.237 96.3167 248.767 96.25 249.247 96.19C249.234 95.21 249.007 94.4833 248.567 94.01C248.127 93.53 247.394 93.29 246.367 93.29C245.627 93.29 245.001 93.4567 244.487 93.79C243.981 94.1233 243.624 94.65 243.417 95.37L241.987 94.95C242.234 93.9833 242.731 93.2333 243.477 92.7C244.224 92.1667 245.194 91.9 246.387 91.9C247.374 91.9 248.211 92.0867 248.897 92.46C249.591 92.8267 250.081 93.36 250.367 94.06C250.501 94.3733 250.587 94.7233 250.627 95.11C250.667 95.4967 250.687 95.89 250.687 96.29V103H249.377V101.22C248.524 102.607 247.154 103.3 245.267 103.3ZM245.437 102.03C246.471 102.03 247.301 101.76 247.927 101.22C248.561 100.68 248.947 100.003 249.087 99.19C249.147 98.9233 249.184 98.6333 249.197 98.32C249.217 98 249.227 97.7167 249.227 97.47C248.521 97.5567 247.774 97.65 246.987 97.75C246.201 97.85 245.511 97.98 244.917 98.14C244.457 98.2733 244.031 98.4867 243.637 98.78C243.244 99.0733 243.047 99.5133 243.047 100.1C243.047 100.413 243.124 100.717 243.277 101.01C243.437 101.303 243.691 101.547 244.037 101.74C244.391 101.933 244.857 102.03 245.437 102.03ZM259.171 103C258.564 103.127 257.964 103.177 257.371 103.15C256.784 103.123 256.257 102.997 255.791 102.77C255.331 102.543 254.981 102.19 254.741 101.71C254.547 101.317 254.441 100.913 254.421 100.5C254.407 100.087 254.401 99.6167 254.401 99.09V93.46H252.091V92.2H254.401V89.2H255.861V92.2H259.171V93.46H255.861V99.03C255.861 99.4833 255.864 99.8633 255.871 100.17C255.884 100.47 255.954 100.737 256.081 100.97C256.321 101.417 256.701 101.683 257.221 101.77C257.747 101.857 258.397 101.837 259.171 101.71V103ZM261.498 103V92.2H262.968V103H261.498ZM262.228 90.34C261.942 90.34 261.698 90.2433 261.498 90.05C261.305 89.85 261.208 89.61 261.208 89.33C261.208 89.0433 261.305 88.8033 261.498 88.61C261.698 88.41 261.942 88.31 262.228 88.31C262.522 88.31 262.765 88.41 262.958 88.61C263.158 88.8033 263.258 89.0433 263.258 89.33C263.258 89.61 263.158 89.85 262.958 90.05C262.765 90.2433 262.522 90.34 262.228 90.34ZM270.476 103.3C269.403 103.3 268.486 103.057 267.726 102.57C266.966 102.083 266.383 101.41 265.976 100.55C265.57 99.69 265.366 98.7033 265.366 97.59C265.366 96.4567 265.573 95.4633 265.986 94.61C266.4 93.7567 266.986 93.0933 267.746 92.62C268.513 92.14 269.423 91.9 270.476 91.9C271.556 91.9 272.476 92.1433 273.236 92.63C274.003 93.11 274.586 93.78 274.986 94.64C275.393 95.4933 275.596 96.4767 275.596 97.59C275.596 98.7233 275.393 99.72 274.986 100.58C274.58 101.433 273.993 102.1 273.226 102.58C272.46 103.06 271.543 103.3 270.476 103.3ZM270.476 101.89C271.676 101.89 272.57 101.493 273.156 100.7C273.743 99.9 274.036 98.8633 274.036 97.59C274.036 96.29 273.74 95.2533 273.146 94.48C272.553 93.7 271.663 93.31 270.476 93.31C269.27 93.31 268.376 93.71 267.796 94.51C267.216 95.3033 266.926 96.33 266.926 97.59C266.926 98.89 267.226 99.9333 267.826 100.72C268.426 101.5 269.31 101.89 270.476 101.89ZM277.792 103V92.2H279.122V93.7C279.522 93.12 280.032 92.68 280.652 92.38C281.279 92.08 281.979 91.93 282.752 91.93C283.566 91.93 284.249 92.0833 284.802 92.39C285.356 92.69 285.799 93.09 286.132 93.59C286.466 94.0833 286.706 94.6333 286.852 95.24C287.006 95.8467 287.082 96.4533 287.082 97.06V103H285.602V97.49C285.602 96.6967 285.499 95.9867 285.292 95.36C285.086 94.7333 284.752 94.24 284.292 93.88C283.832 93.5133 283.226 93.33 282.472 93.33C281.432 93.33 280.639 93.6767 280.092 94.37C279.546 95.0633 279.272 96.02 279.272 97.24V103H277.792Z" fill="#415F7D"/>
<rect x="364.25" y="74.5" width="56" height="42" rx="21" fill="#ECD5C5"/>
<rect x="364.25" y="74.5" width="56" height="42" rx="21" stroke="#425F7D"/>
<path d="M376.98 103V90.01H371.95V88.6H383.48V90.01H378.45V103H376.98ZM388.052 103.3C386.999 103.3 386.085 103.067 385.312 102.6C384.539 102.133 383.939 101.477 383.512 100.63C383.092 99.7833 382.882 98.79 382.882 97.65C382.882 96.47 383.092 95.45 383.512 94.59C383.932 93.73 384.522 93.0667 385.282 92.6C386.049 92.1333 386.952 91.9 387.992 91.9C389.592 91.9 390.832 92.4433 391.712 93.53C392.599 94.61 393.015 96.1033 392.962 98.01H384.452C384.512 99.25 384.849 100.207 385.462 100.88C386.075 101.553 386.919 101.89 387.992 101.89C389.565 101.89 390.695 101.197 391.382 99.81L392.752 100.34C392.325 101.28 391.695 102.01 390.862 102.53C390.035 103.043 389.099 103.3 388.052 103.3ZM388.032 93.25C386.992 93.25 386.169 93.5567 385.562 94.17C384.955 94.7767 384.595 95.6467 384.482 96.78H391.422C391.189 94.4267 390.059 93.25 388.032 93.25ZM399.211 103.29C397.945 103.29 396.901 103.017 396.081 102.47C395.268 101.923 394.768 101.163 394.581 100.19L396.081 99.94C396.241 100.56 396.605 101.05 397.171 101.41C397.745 101.77 398.451 101.95 399.291 101.95C400.111 101.95 400.758 101.78 401.231 101.44C401.705 101.093 401.941 100.623 401.941 100.03C401.941 99.6967 401.865 99.4267 401.711 99.22C401.558 99.0067 401.251 98.81 400.791 98.63C400.338 98.45 399.655 98.2367 398.741 97.99C397.761 97.7233 396.991 97.4567 396.431 97.19C395.878 96.9233 395.485 96.6167 395.251 96.27C395.025 95.9167 394.911 95.4867 394.911 94.98C394.911 94.06 395.288 93.3167 396.041 92.75C396.801 92.1833 397.791 91.9 399.011 91.9C399.825 91.9 400.551 92.0333 401.191 92.3C401.838 92.56 402.358 92.9267 402.751 93.4C403.145 93.8733 403.378 94.4233 403.451 95.05L401.951 95.32C401.845 94.6867 401.528 94.1867 401.001 93.82C400.475 93.4467 399.805 93.2533 398.991 93.24C398.225 93.22 397.601 93.3667 397.121 93.68C396.641 93.9867 396.401 94.3967 396.401 94.91C396.401 95.1967 396.488 95.4433 396.661 95.65C396.835 95.85 397.148 96.04 397.601 96.22C398.061 96.4 398.715 96.5967 399.561 96.81C400.555 97.0633 401.335 97.33 401.901 97.61C402.468 97.89 402.871 98.22 403.111 98.6C403.351 98.98 403.471 99.45 403.471 100.01C403.471 101.03 403.091 101.833 402.331 102.42C401.578 103 400.538 103.29 399.211 103.29ZM411.569 103C410.962 103.127 410.362 103.177 409.769 103.15C409.182 103.123 408.656 102.997 408.189 102.77C407.729 102.543 407.379 102.19 407.139 101.71C406.946 101.317 406.839 100.913 406.819 100.5C406.806 100.087 406.799 99.6167 406.799 99.09V93.46H404.489V92.2H406.799V89.2H408.259V92.2H411.569V93.46H408.259V99.03C408.259 99.4833 408.262 99.8633 408.269 100.17C408.282 100.47 408.352 100.737 408.479 100.97C408.719 101.417 409.099 101.683 409.619 101.77C410.146 101.857 410.796 101.837 411.569 101.71V103Z" fill="#415F7D"/>
<rect x="470.25" y="74.5" width="108" height="42" rx="21" fill="#ECD5C5"/>
<rect x="470.25" y="74.5" width="108" height="42" rx="21" stroke="#425F7D"/>
<path d="M479.15 103V88.6H484.71C484.85 88.6 485.007 88.6067 485.18 88.62C485.36 88.6267 485.54 88.6467 485.72 88.68C486.847 88.8533 487.713 89.3467 488.32 90.16C488.927 90.9733 489.23 91.9433 489.23 93.07C489.23 94.19 488.923 95.1567 488.31 95.97C487.703 96.7833 486.84 97.2767 485.72 97.45C485.54 97.4833 485.36 97.5067 485.18 97.52C485.007 97.5267 484.85 97.53 484.71 97.53H480.62V103H479.15ZM480.62 96.13H484.67C484.79 96.13 484.93 96.1233 485.09 96.11C485.25 96.0967 485.407 96.0733 485.56 96.04C486.3 95.88 486.843 95.5133 487.19 94.94C487.543 94.36 487.72 93.7367 487.72 93.07C487.72 92.3967 487.543 91.7733 487.19 91.2C486.843 90.62 486.3 90.25 485.56 90.09C485.407 90.0567 485.25 90.0367 485.09 90.03C484.93 90.0167 484.79 90.01 484.67 90.01H480.62V96.13ZM491.22 103V92.2H492.54V93.91C492.78 93.49 493.06 93.1567 493.38 92.91C493.807 92.5433 494.32 92.3033 494.92 92.19C495.52 92.0767 496.057 92.08 496.53 92.2V93.58C496.13 93.48 495.697 93.4567 495.23 93.51C494.77 93.5633 494.344 93.75 493.95 94.07C493.41 94.4967 493.064 95.0333 492.91 95.68C492.764 96.32 492.69 96.9633 492.69 97.61V103H491.22ZM502.742 103.3C501.669 103.3 500.752 103.057 499.992 102.57C499.232 102.083 498.649 101.41 498.242 100.55C497.835 99.69 497.632 98.7033 497.632 97.59C497.632 96.4567 497.839 95.4633 498.252 94.61C498.665 93.7567 499.252 93.0933 500.012 92.62C500.779 92.14 501.689 91.9 502.742 91.9C503.822 91.9 504.742 92.1433 505.502 92.63C506.269 93.11 506.852 93.78 507.252 94.64C507.659 95.4933 507.862 96.4767 507.862 97.59C507.862 98.7233 507.659 99.72 507.252 100.58C506.845 101.433 506.259 102.1 505.492 102.58C504.725 103.06 503.809 103.3 502.742 103.3ZM502.742 101.89C503.942 101.89 504.835 101.493 505.422 100.7C506.009 99.9 506.302 98.8633 506.302 97.59C506.302 96.29 506.005 95.2533 505.412 94.48C504.819 93.7 503.929 93.31 502.742 93.31C501.535 93.31 500.642 93.71 500.062 94.51C499.482 95.3033 499.192 96.33 499.192 97.59C499.192 98.89 499.492 99.9333 500.092 100.72C500.692 101.5 501.575 101.89 502.742 101.89ZM515.948 103C515.341 103.127 514.741 103.177 514.148 103.15C513.561 103.123 513.035 102.997 512.568 102.77C512.108 102.543 511.758 102.19 511.518 101.71C511.325 101.317 511.218 100.913 511.198 100.5C511.185 100.087 511.178 99.6167 511.178 99.09V93.46H508.868V92.2H511.178V89.2H512.638V92.2H515.948V93.46H512.638V99.03C512.638 99.4833 512.641 99.8633 512.648 100.17C512.661 100.47 512.731 100.737 512.858 100.97C513.098 101.417 513.478 101.683 513.998 101.77C514.525 101.857 515.175 101.837 515.948 101.71V103ZM522.195 103.3C521.122 103.3 520.205 103.057 519.445 102.57C518.685 102.083 518.102 101.41 517.695 100.55C517.288 99.69 517.085 98.7033 517.085 97.59C517.085 96.4567 517.292 95.4633 517.705 94.61C518.118 93.7567 518.705 93.0933 519.465 92.62C520.232 92.14 521.142 91.9 522.195 91.9C523.275 91.9 524.195 92.1433 524.955 92.63C525.722 93.11 526.305 93.78 526.705 94.64C527.112 95.4933 527.315 96.4767 527.315 97.59C527.315 98.7233 527.112 99.72 526.705 100.58C526.298 101.433 525.712 102.1 524.945 102.58C524.178 103.06 523.262 103.3 522.195 103.3ZM522.195 101.89C523.395 101.89 524.288 101.493 524.875 100.7C525.462 99.9 525.755 98.8633 525.755 97.59C525.755 96.29 525.458 95.2533 524.865 94.48C524.272 93.7 523.382 93.31 522.195 93.31C520.988 93.31 520.095 93.71 519.515 94.51C518.935 95.3033 518.645 96.33 518.645 97.59C518.645 98.89 518.945 99.9333 519.545 100.72C520.145 101.5 521.028 101.89 522.195 101.89ZM535.401 103C534.794 103.127 534.194 103.177 533.601 103.15C533.014 103.123 532.488 102.997 532.021 102.77C531.561 102.543 531.211 102.19 530.971 101.71C530.778 101.317 530.671 100.913 530.651 100.5C530.638 100.087 530.631 99.6167 530.631 99.09V93.46H528.321V92.2H530.631V89.2H532.091V92.2H535.401V93.46H532.091V99.03C532.091 99.4833 532.094 99.8633 532.101 100.17C532.114 100.47 532.184 100.737 532.311 100.97C532.551 101.417 532.931 101.683 533.451 101.77C533.978 101.857 534.628 101.837 535.401 101.71V103ZM538.776 107.8L540.556 102.98L536.166 92.2H537.726L541.266 101.08L544.546 92.2H546.046L540.246 107.8H538.776ZM547.773 107.8V92.2H549.093V93.68C549.486 93.1267 549.983 92.6933 550.583 92.38C551.189 92.06 551.893 91.9 552.693 91.9C553.679 91.9 554.526 92.15 555.233 92.65C555.939 93.15 556.479 93.83 556.853 94.69C557.233 95.55 557.423 96.5167 557.423 97.59C557.423 98.67 557.233 99.64 556.853 100.5C556.479 101.36 555.933 102.043 555.213 102.55C554.499 103.05 553.639 103.3 552.633 103.3C551.899 103.3 551.249 103.16 550.683 102.88C550.116 102.593 549.639 102.203 549.253 101.71V107.8H547.773ZM552.483 101.93C553.236 101.93 553.863 101.74 554.363 101.36C554.863 100.973 555.236 100.453 555.483 99.8C555.736 99.1467 555.863 98.41 555.863 97.59C555.863 96.7767 555.739 96.0433 555.493 95.39C555.246 94.7367 554.869 94.22 554.363 93.84C553.863 93.46 553.226 93.27 552.453 93.27C551.326 93.27 550.483 93.6733 549.923 94.48C549.369 95.2867 549.093 96.3233 549.093 97.59C549.093 98.4233 549.216 99.1667 549.463 99.82C549.709 100.473 550.083 100.99 550.583 101.37C551.083 101.743 551.716 101.93 552.483 101.93ZM564.189 103.3C563.135 103.3 562.222 103.067 561.449 102.6C560.675 102.133 560.075 101.477 559.649 100.63C559.229 99.7833 559.019 98.79 559.019 97.65C559.019 96.47 559.229 95.45 559.649 94.59C560.069 93.73 560.659 93.0667 561.419 92.6C562.185 92.1333 563.089 91.9 564.129 91.9C565.729 91.9 566.969 92.4433 567.849 93.53C568.735 94.61 569.152 96.1033 569.099 98.01H560.589C560.649 99.25 560.985 100.207 561.599 100.88C562.212 101.553 563.055 101.89 564.129 101.89C565.702 101.89 566.832 101.197 567.519 99.81L568.889 100.34C568.462 101.28 567.832 102.01 566.999 102.53C566.172 103.043 565.235 103.3 564.189 103.3ZM564.169 93.25C563.129 93.25 562.305 93.5567 561.699 94.17C561.092 94.7767 560.732 95.6467 560.619 96.78H567.559C567.325 94.4267 566.195 93.25 564.169 93.25Z" fill="#415F7D"/>
<rect x="685.75" y="74" width="113" height="43" rx="21.5" fill="#415F7D"/>
<path d="M703.15 103V88.6H707.81C707.923 88.6 708.157 88.6033 708.51 88.61C708.863 88.6167 709.203 88.64 709.53 88.68C710.69 88.82 711.673 89.2233 712.48 89.89C713.287 90.5567 713.9 91.4033 714.32 92.43C714.74 93.4567 714.95 94.58 714.95 95.8C714.95 97.02 714.74 98.1433 714.32 99.17C713.9 100.197 713.287 101.043 712.48 101.71C711.673 102.377 710.69 102.78 709.53 102.92C709.203 102.96 708.863 102.983 708.51 102.99C708.157 102.997 707.923 103 707.81 103H703.15ZM705.91 100.44H707.81C707.99 100.44 708.233 100.437 708.54 100.43C708.847 100.417 709.123 100.387 709.37 100.34C709.997 100.213 710.507 99.92 710.9 99.46C711.3 99 711.593 98.4467 711.78 97.8C711.973 97.1533 712.07 96.4867 712.07 95.8C712.07 95.08 711.97 94.3967 711.77 93.75C711.577 93.1033 711.28 92.5567 710.88 92.11C710.48 91.6633 709.977 91.38 709.37 91.26C709.123 91.2067 708.847 91.1767 708.54 91.17C708.233 91.1633 707.99 91.16 707.81 91.16H705.91V100.44ZM722.369 103.3C721.263 103.3 720.286 103.063 719.439 102.59C718.599 102.11 717.939 101.453 717.459 100.62C716.986 99.78 716.749 98.82 716.749 97.74C716.749 96.56 716.983 95.5333 717.449 94.66C717.916 93.7867 718.559 93.11 719.379 92.63C720.199 92.1433 721.143 91.9 722.209 91.9C723.343 91.9 724.306 92.1667 725.099 92.7C725.893 93.2333 726.479 93.9833 726.859 94.95C727.239 95.9167 727.373 97.0533 727.259 98.36H719.679C719.779 99.1333 720.039 99.7267 720.459 100.14C720.886 100.553 721.469 100.76 722.209 100.76C723.289 100.76 724.036 100.307 724.449 99.4L727.169 100.18C726.763 101.167 726.119 101.933 725.239 102.48C724.366 103.027 723.409 103.3 722.369 103.3ZM722.329 94.26C720.896 94.26 720.036 94.9533 719.749 96.34H724.509C724.409 95.6067 724.183 95.0767 723.829 94.75C723.483 94.4233 722.983 94.26 722.329 94.26ZM729.717 103V88.3H732.437V103H729.717ZM735.635 103V92.2H738.355V103H735.635ZM736.995 91.09C736.542 91.09 736.162 90.9367 735.855 90.63C735.555 90.3233 735.405 89.95 735.405 89.51C735.405 89.0633 735.555 88.69 735.855 88.39C736.162 88.0833 736.542 87.93 736.995 87.93C737.455 87.93 737.835 88.0833 738.135 88.39C738.435 88.69 738.585 89.0633 738.585 89.51C738.585 89.95 738.435 90.3233 738.135 90.63C737.835 90.9367 737.455 91.09 736.995 91.09ZM744.273 103L740.353 92.2H743.073L745.633 99.68L748.193 92.2H750.913L746.993 103H744.273ZM757.35 103.3C756.243 103.3 755.266 103.063 754.42 102.59C753.58 102.11 752.92 101.453 752.44 100.62C751.966 99.78 751.73 98.82 751.73 97.74C751.73 96.56 751.963 95.5333 752.43 94.66C752.896 93.7867 753.54 93.11 754.36 92.63C755.18 92.1433 756.123 91.9 757.19 91.9C758.323 91.9 759.286 92.1667 760.08 92.7C760.873 93.2333 761.46 93.9833 761.84 94.95C762.22 95.9167 762.353 97.0533 762.24 98.36H754.66C754.76 99.1333 755.02 99.7267 755.44 100.14C755.866 100.553 756.45 100.76 757.19 100.76C758.27 100.76 759.016 100.307 759.43 99.4L762.15 100.18C761.743 101.167 761.1 101.933 760.22 102.48C759.346 103.027 758.39 103.3 757.35 103.3ZM757.31 94.26C755.876 94.26 755.016 94.9533 754.73 96.34H759.49C759.39 95.6067 759.163 95.0767 758.81 94.75C758.463 94.4233 757.963 94.26 757.31 94.26ZM764.498 103V92.2H766.898V93.94C767.038 93.6867 767.201 93.4567 767.388 93.25C767.581 93.0433 767.804 92.8667 768.058 92.72C768.451 92.48 768.891 92.32 769.378 92.24C769.864 92.1533 770.351 92.14 770.838 92.2V94.74C770.538 94.6467 770.188 94.6167 769.788 94.65C769.394 94.6767 769.038 94.7667 768.718 94.92C767.731 95.3733 767.238 96.2267 767.238 97.48V103H764.498ZM773.729 107.8L775.509 102.91L771.149 92.2H773.969L776.809 99.55L779.629 92.2H782.349L776.249 107.8H773.729Z" fill="#F7F5F5"/>
<rect x="34.25" y="74.5" width="103" height="42" rx="21" fill="#D1F2E4"/>
<rect x="34.25" y="74.5" width="103" height="42" rx="21" stroke="#425F7D"/>
<path d="M43.15 103V88.6H48.71C48.85 88.6 49.0067 88.6067 49.18 88.62C49.36 88.6267 49.54 88.6467 49.72 88.68C50.8467 88.8533 51.7133 89.3233 52.32 90.09C52.9267 90.8567 53.23 91.76 53.23 92.8C53.23 93.6933 52.97 94.5167 52.45 95.27C51.9367 96.0233 51.2033 96.5333 50.25 96.8L53.46 103H51.76L48.67 97H44.62V103H43.15ZM44.62 95.59H48.67C48.79 95.59 48.93 95.5867 49.09 95.58C49.2567 95.5733 49.4133 95.55 49.56 95.51C50.3 95.3167 50.8433 94.9633 51.19 94.45C51.5433 93.9367 51.72 93.3867 51.72 92.8C51.72 92.2133 51.5433 91.6567 51.19 91.13C50.8433 90.5967 50.3 90.25 49.56 90.09C49.4067 90.0567 49.25 90.0367 49.09 90.03C48.93 90.0167 48.79 90.01 48.67 90.01H44.62V95.59ZM60.3372 103.3C59.2839 103.3 58.3705 103.067 57.5972 102.6C56.8239 102.133 56.2239 101.477 55.7972 100.63C55.3772 99.7833 55.1672 98.79 55.1672 97.65C55.1672 96.47 55.3772 95.45 55.7972 94.59C56.2172 93.73 56.8072 93.0667 57.5672 92.6C58.3339 92.1333 59.2372 91.9 60.2772 91.9C61.8772 91.9 63.1172 92.4433 63.9972 93.53C64.8839 94.61 65.3005 96.1033 65.2472 98.01H56.7372C56.7972 99.25 57.1339 100.207 57.7472 100.88C58.3605 101.553 59.2039 101.89 60.2772 101.89C61.8505 101.89 62.9805 101.197 63.6672 99.81L65.0372 100.34C64.6105 101.28 63.9805 102.01 63.1472 102.53C62.3205 103.043 61.3839 103.3 60.3372 103.3ZM60.3172 93.25C59.2772 93.25 58.4539 93.5567 57.8472 94.17C57.2405 94.7767 56.8805 95.6467 56.7672 96.78H63.7072C63.4739 94.4267 62.3439 93.25 60.3172 93.25ZM71.4964 103.29C70.2297 103.29 69.1864 103.017 68.3664 102.47C67.5531 101.923 67.0531 101.163 66.8664 100.19L68.3664 99.94C68.5264 100.56 68.8897 101.05 69.4564 101.41C70.0297 101.77 70.7364 101.95 71.5764 101.95C72.3964 101.95 73.0431 101.78 73.5164 101.44C73.9897 101.093 74.2264 100.623 74.2264 100.03C74.2264 99.6967 74.1497 99.4267 73.9964 99.22C73.8431 99.0067 73.5364 98.81 73.0764 98.63C72.6231 98.45 71.9397 98.2367 71.0264 97.99C70.0464 97.7233 69.2764 97.4567 68.7164 97.19C68.1631 96.9233 67.7697 96.6167 67.5364 96.27C67.3097 95.9167 67.1964 95.4867 67.1964 94.98C67.1964 94.06 67.5731 93.3167 68.3264 92.75C69.0864 92.1833 70.0764 91.9 71.2964 91.9C72.1097 91.9 72.8364 92.0333 73.4764 92.3C74.1231 92.56 74.6431 92.9267 75.0364 93.4C75.4297 93.8733 75.6631 94.4233 75.7364 95.05L74.2364 95.32C74.1297 94.6867 73.8131 94.1867 73.2864 93.82C72.7597 93.4467 72.0897 93.2533 71.2764 93.24C70.5097 93.22 69.8864 93.3667 69.4064 93.68C68.9264 93.9867 68.6864 94.3967 68.6864 94.91C68.6864 95.1967 68.7731 95.4433 68.9464 95.65C69.1197 95.85 69.4331 96.04 69.8864 96.22C70.3464 96.4 70.9997 96.5967 71.8464 96.81C72.8397 97.0633 73.6197 97.33 74.1864 97.61C74.7531 97.89 75.1564 98.22 75.3964 98.6C75.6364 98.98 75.7564 99.45 75.7564 100.01C75.7564 101.03 75.3764 101.833 74.6164 102.42C73.8631 103 72.8231 103.29 71.4964 103.29ZM82.5442 103.3C81.4909 103.3 80.5776 103.067 79.8042 102.6C79.0309 102.133 78.4309 101.477 78.0042 100.63C77.5842 99.7833 77.3742 98.79 77.3742 97.65C77.3742 96.47 77.5842 95.45 78.0042 94.59C78.4242 93.73 79.0142 93.0667 79.7742 92.6C80.5409 92.1333 81.4442 91.9 82.4842 91.9C84.0842 91.9 85.3242 92.4433 86.2042 93.53C87.0909 94.61 87.5076 96.1033 87.4542 98.01H78.9442C79.0042 99.25 79.3409 100.207 79.9542 100.88C80.5676 101.553 81.4109 101.89 82.4842 101.89C84.0576 101.89 85.1876 101.197 85.8742 99.81L87.2442 100.34C86.8176 101.28 86.1876 102.01 85.3542 102.53C84.5276 103.043 83.5909 103.3 82.5442 103.3ZM82.5242 93.25C81.4842 93.25 80.6609 93.5567 80.0542 94.17C79.4476 94.7767 79.0876 95.6467 78.9742 96.78H85.9142C85.6809 94.4267 84.5509 93.25 82.5242 93.25ZM92.5681 103.3C91.7548 103.3 91.0715 103.153 90.5181 102.86C89.9715 102.567 89.5615 102.177 89.2881 101.69C89.0148 101.203 88.8781 100.673 88.8781 100.1C88.8781 99.2133 89.1348 98.5233 89.6481 98.03C90.1615 97.53 90.8215 97.1733 91.6281 96.96C92.1148 96.84 92.6481 96.7333 93.2281 96.64C93.8081 96.5467 94.3848 96.4633 94.9581 96.39C95.5381 96.3167 96.0681 96.25 96.5481 96.19C96.5348 95.21 96.3081 94.4833 95.8681 94.01C95.4281 93.53 94.6948 93.29 93.6681 93.29C92.9281 93.29 92.3015 93.4567 91.7881 93.79C91.2815 94.1233 90.9248 94.65 90.7181 95.37L89.2881 94.95C89.5348 93.9833 90.0315 93.2333 90.7781 92.7C91.5248 92.1667 92.4948 91.9 93.6881 91.9C94.6748 91.9 95.5115 92.0867 96.1981 92.46C96.8915 92.8267 97.3815 93.36 97.6681 94.06C97.8015 94.3733 97.8881 94.7233 97.9281 95.11C97.9681 95.4967 97.9881 95.89 97.9881 96.29V103H96.6781V101.22C95.8248 102.607 94.4548 103.3 92.5681 103.3ZM92.7381 102.03C93.7715 102.03 94.6015 101.76 95.2281 101.22C95.8615 100.68 96.2481 100.003 96.3881 99.19C96.4481 98.9233 96.4848 98.6333 96.4981 98.32C96.5181 98 96.5281 97.7167 96.5281 97.47C95.8215 97.5567 95.0748 97.65 94.2881 97.75C93.5015 97.85 92.8115 97.98 92.2181 98.14C91.7581 98.2733 91.3315 98.4867 90.9381 98.78C90.5448 99.0733 90.3481 99.5133 90.3481 100.1C90.3481 100.413 90.4248 100.717 90.5781 101.01C90.7381 101.303 90.9915 101.547 91.3381 101.74C91.6915 101.933 92.1581 102.03 92.7381 102.03ZM100.591 103V92.2H101.911V93.91C102.151 93.49 102.431 93.1567 102.751 92.91C103.178 92.5433 103.691 92.3033 104.291 92.19C104.891 92.0767 105.428 92.08 105.901 92.2V93.58C105.501 93.48 105.068 93.4567 104.601 93.51C104.141 93.5633 103.715 93.75 103.321 94.07C102.781 94.4967 102.435 95.0333 102.281 95.68C102.135 96.32 102.061 96.9633 102.061 97.61V103H100.591ZM112.083 103.3C110.996 103.3 110.076 103.057 109.323 102.57C108.576 102.083 108.006 101.413 107.613 100.56C107.22 99.7 107.016 98.7133 107.003 97.6C107.016 96.4667 107.223 95.4733 107.623 94.62C108.023 93.76 108.6 93.0933 109.353 92.62C110.106 92.14 111.02 91.9 112.093 91.9C113.186 91.9 114.136 92.1667 114.943 92.7C115.756 93.2333 116.313 93.9633 116.613 94.89L115.173 95.35C114.92 94.7033 114.516 94.2033 113.963 93.85C113.416 93.49 112.79 93.31 112.083 93.31C110.89 93.31 110.006 93.71 109.433 94.51C108.866 95.31 108.576 96.34 108.563 97.6C108.576 98.8933 108.876 99.9333 109.463 100.72C110.05 101.5 110.923 101.89 112.083 101.89C113.563 101.89 114.58 101.23 115.133 99.91L116.613 100.35C116.206 101.31 115.616 102.043 114.843 102.55C114.076 103.05 113.156 103.3 112.083 103.3ZM118.667 103V88.6H119.997V93.7C120.397 93.12 120.907 92.68 121.527 92.38C122.154 92.08 122.854 91.93 123.627 91.93C124.441 91.93 125.124 92.0833 125.677 92.39C126.231 92.69 126.674 93.09 127.007 93.59C127.341 94.0833 127.581 94.6333 127.727 95.24C127.881 95.8467 127.957 96.4533 127.957 97.06V103H126.477V97.49C126.477 96.6967 126.374 95.9867 126.167 95.36C125.961 94.7333 125.627 94.24 125.167 93.88C124.707 93.5133 124.101 93.33 123.347 93.33C122.307 93.33 121.514 93.6767 120.967 94.37C120.421 95.0633 120.147 96.02 120.147 97.24V103H118.667Z" fill="#415F7D"/>
<path d="M135.083 96C135.083 97.4728 136.277 98.6667 137.75 98.6667C139.223 98.6667 140.417 97.4728 140.417 96C140.417 94.5272 139.223 93.3333 137.75 93.3333C136.277 93.3333 135.083 94.5272 135.083 96ZM197.75 96L192.75 93.1132V98.8868L197.75 96ZM137.75 96.5H139.625V95.5H137.75V96.5ZM143.375 96.5H147.125V95.5H143.375V96.5ZM150.875 96.5H154.625V95.5H150.875V96.5ZM158.375 96.5H162.125V95.5H158.375V96.5ZM165.875 96.5H169.625V95.5H165.875V96.5ZM173.375 96.5H177.125V95.5H173.375V96.5ZM180.875 96.5H184.625V95.5H180.875V96.5ZM188.375 96.5H192.125V95.5H188.375V96.5Z" fill="#415F7D"/>
<path d="M294.083 96C294.083 97.4728 295.277 98.6667 296.75 98.6667C298.223 98.6667 299.417 97.4728 299.417 96C299.417 94.5272 298.223 93.3333 296.75 93.3333C295.277 93.3333 294.083 94.5272 294.083 96ZM356.75 96L351.75 93.1132V98.8868L356.75 96ZM296.75 96.5H298.625V95.5H296.75V96.5ZM302.375 96.5H306.125V95.5H302.375V96.5ZM309.875 96.5H313.625V95.5H309.875V96.5ZM317.375 96.5H321.125V95.5H317.375V96.5ZM324.875 96.5H328.625V95.5H324.875V96.5ZM332.375 96.5H336.125V95.5H332.375V96.5ZM339.875 96.5H343.625V95.5H339.875V96.5ZM347.375 96.5H351.125V95.5H347.375V96.5Z" fill="#415F7D"/>
<path d="M576.083 96C576.083 97.4728 577.277 98.6667 578.75 98.6667C580.223 98.6667 581.417 97.4728 581.417 96C581.417 94.5272 580.223 93.3333 578.75 93.3333C577.277 93.3333 576.083 94.5272 576.083 96ZM678.75 96L673.75 93.1132V98.8868L678.75 96ZM578.75 96.5H580.673V95.5H578.75V96.5ZM584.519 96.5H588.365V95.5H584.519V96.5ZM592.212 96.5H596.058V95.5H592.212V96.5ZM599.904 96.5H603.75V95.5H599.904V96.5ZM607.596 96.5H611.442V95.5H607.596V96.5ZM615.288 96.5H619.135V95.5H615.288V96.5ZM622.981 96.5H626.827V95.5H622.981V96.5ZM630.673 96.5H634.519V95.5H630.673V96.5ZM638.365 96.5H642.212V95.5H638.365V96.5ZM646.058 96.5H649.904V95.5H646.058V96.5ZM653.75 96.5H657.596V95.5H653.75V96.5ZM661.442 96.5H665.288V95.5H661.442V96.5ZM669.135 96.5H672.981V95.5H669.135V96.5Z" fill="#415F7D"/>
<path d="M390.083 74C390.083 75.4728 391.277 76.6667 392.75 76.6667C394.223 76.6667 395.417 75.4728 395.417 74C395.417 72.5272 394.223 71.3333 392.75 71.3333C391.277 71.3333 390.083 72.5272 390.083 74ZM521.75 68.6545L524.418 63.5344L518.65 63.7841L521.75 68.6545ZM393.25 74C393.25 73.3673 393.272 72.7379 393.315 72.1122L392.318 72.0432C392.273 72.6918 392.25 73.3442 392.25 74H393.25ZM393.834 68.3749C394.092 67.1458 394.432 65.9334 394.852 64.74L393.909 64.4078C393.475 65.6417 393.122 66.8967 392.855 68.17L393.834 68.3749ZM396.329 61.2593C396.885 60.1419 397.513 59.0445 398.209 57.9694L397.369 57.4259C396.654 58.5313 396.007 59.6613 395.433 60.8136L396.329 61.2593ZM400.429 54.8993C401.209 53.9267 402.047 52.9762 402.94 52.0496L402.22 51.3556C401.307 52.3032 400.449 53.2765 399.649 54.2737L400.429 54.8993ZM405.693 49.4222C406.63 48.5973 407.613 47.7955 408.64 47.0182L408.037 46.2208C406.991 47.0124 405.989 47.8299 405.032 48.6716L405.693 49.4222ZM411.76 44.8216C412.807 44.1352 413.891 43.4722 415.009 42.8339L414.514 41.9653C413.378 42.6135 412.276 43.2873 411.211 43.9853L411.76 44.8216ZM418.379 41.0389C419.504 40.4795 420.66 39.9437 421.843 39.4328L421.446 38.5147C420.247 39.0326 419.076 39.5759 417.934 40.1434L418.379 41.0389ZM425.384 38.0088C426.565 37.5678 427.77 37.1504 428.997 36.7578L428.693 35.8054C427.45 36.2028 426.23 36.6253 425.034 37.072L425.384 38.0088ZM432.664 35.677C433.881 35.3478 435.118 35.0423 436.372 34.7613L436.154 33.7855C434.885 34.0696 433.634 34.3786 432.403 34.7117L432.664 35.677ZM440.121 34.0052C441.365 33.7812 442.626 33.581 443.9 33.4054L443.763 32.4148C442.476 32.5922 441.202 32.7946 439.944 33.021L440.121 34.0052ZM447.7 32.9596C448.958 32.8373 450.229 32.7388 451.511 32.6648L451.453 31.6665C450.158 31.7412 448.875 31.8407 447.603 31.9643L447.7 32.9596ZM455.332 32.5183C455.969 32.5061 456.609 32.5 457.25 32.5V31.5C456.602 31.5 455.957 31.5062 455.313 31.5185L455.332 32.5183ZM457.25 32.5C457.92 32.5 458.592 32.5065 459.265 32.5196L459.285 31.5197C458.605 31.5066 457.927 31.5 457.25 31.5V32.5ZM463.298 32.6742C464.638 32.7509 465.981 32.8527 467.322 32.9794L467.416 31.9838C466.062 31.856 464.708 31.7533 463.355 31.6759L463.298 32.6742ZM471.332 33.4327C472.668 33.6086 473.999 33.8091 475.323 34.0338L475.49 33.0479C474.154 32.8211 472.81 32.6188 471.462 32.4413L471.332 33.4327ZM479.288 34.7839C480.61 35.0604 481.921 35.3613 483.219 35.6864L483.462 34.7164C482.152 34.388 480.827 34.0842 479.492 33.8051L479.288 34.7839ZM487.112 36.7476C488.41 37.1311 489.691 37.5397 490.949 37.9729L491.274 37.0274C490.002 36.5892 488.707 36.1761 487.395 35.7885L487.112 36.7476ZM494.73 39.377C495.991 39.8807 497.224 40.4107 498.425 40.9667L498.845 40.0592C497.627 39.4955 496.378 38.9584 495.101 38.4484L494.73 39.377ZM502.029 42.7663C503.229 43.4118 504.387 44.0857 505.501 44.7877L506.034 43.9418C504.9 43.227 503.722 42.5415 502.503 41.8857L502.029 42.7663ZM508.809 47.0578C509.901 47.8751 510.935 48.7239 511.905 49.6035L512.577 48.8627C511.582 47.9607 510.524 47.092 509.408 46.2571L508.809 47.0578ZM514.715 52.4438C515.611 53.46 516.425 54.5106 517.151 55.595L517.982 55.0387C517.23 53.9152 516.388 52.8296 515.465 51.7826L514.715 52.4438ZM519.107 59.052C519.668 60.256 520.125 61.4964 520.471 62.7724L521.436 62.5107C521.075 61.1776 520.597 59.8835 520.013 58.6296L519.107 59.052ZM390.083 74C390.083 75.4728 391.277 76.6667 392.75 76.6667C394.223 76.6667 395.417 75.4728 395.417 74C395.417 72.5272 394.223 71.3333 392.75 71.3333C391.277 71.3333 390.083 72.5272 390.083 74ZM521.75 68.6545L524.418 63.5344L518.65 63.7841L521.75 68.6545ZM393.25 74C393.25 73.3673 393.272 72.7379 393.315 72.1122L392.318 72.0432C392.273 72.6918 392.25 73.3442 392.25 74H393.25ZM393.834 68.3749C394.092 67.1458 394.432 65.9334 394.852 64.74L393.909 64.4078C393.475 65.6417 393.122 66.8967 392.855 68.17L393.834 68.3749ZM396.329 61.2593C396.885 60.1419 397.513 59.0445 398.209 57.9694L397.369 57.4259C396.654 58.5313 396.007 59.6613 395.433 60.8136L396.329 61.2593ZM400.429 54.8993C401.209 53.9267 402.047 52.9762 402.94 52.0496L402.22 51.3556C401.307 52.3032 400.449 53.2765 399.649 54.2737L400.429 54.8993ZM405.693 49.4222C406.63 48.5973 407.613 47.7955 408.64 47.0182L408.037 46.2208C406.991 47.0124 405.989 47.8299 405.032 48.6716L405.693 49.4222ZM411.76 44.8216C412.807 44.1352 413.891 43.4722 415.009 42.8339L414.514 41.9653C413.378 42.6135 412.276 43.2873 411.211 43.9853L411.76 44.8216ZM418.379 41.0389C419.504 40.4795 420.66 39.9437 421.843 39.4328L421.446 38.5147C420.247 39.0326 419.076 39.5759 417.934 40.1434L418.379 41.0389ZM425.384 38.0088C426.565 37.5678 427.77 37.1504 428.997 36.7578L428.693 35.8054C427.45 36.2028 426.23 36.6253 425.034 37.072L425.384 38.0088ZM432.664 35.677C433.881 35.3478 435.118 35.0423 436.372 34.7613L436.154 33.7855C434.885 34.0696 433.634 34.3786 432.403 34.7117L432.664 35.677ZM440.121 34.0052C441.365 33.7812 442.626 33.581 443.9 33.4054L443.763 32.4148C442.476 32.5922 441.202 32.7946 439.944 33.021L440.121 34.0052ZM447.7 32.9596C448.958 32.8373 450.229 32.7388 451.511 32.6648L451.453 31.6665C450.158 31.7412 448.875 31.8407 447.603 31.9643L447.7 32.9596ZM455.332 32.5183C455.969 32.5061 456.609 32.5 457.25 32.5V31.5C456.602 31.5 455.957 31.5062 455.313 31.5185L455.332 32.5183ZM457.25 32.5C457.92 32.5 458.592 32.5065 459.265 32.5196L459.285 31.5197C458.605 31.5066 457.927 31.5 457.25 31.5V32.5ZM463.298 32.6742C464.638 32.7509 465.981 32.8527 467.322 32.9794L467.416 31.9838C466.062 31.856 464.708 31.7533 463.355 31.6759L463.298 32.6742ZM471.332 33.4327C472.668 33.6086 473.999 33.8091 475.323 34.0338L475.49 33.0479C474.154 32.8211 472.81 32.6188 471.462 32.4413L471.332 33.4327ZM479.288 34.7839C480.61 35.0604 481.921 35.3613 483.219 35.6864L483.462 34.7164C482.152 34.388 480.827 34.0842 479.492 33.8051L479.288 34.7839ZM487.112 36.7476C488.41 37.1311 489.691 37.5397 490.949 37.9729L491.274 37.0274C490.002 36.5892 488.707 36.1761 487.395 35.7885L487.112 36.7476ZM494.73 39.377C495.991 39.8807 497.224 40.4107 498.425 40.9667L498.845 40.0592C497.627 39.4955 496.378 38.9584 495.101 38.4484L494.73 39.377ZM502.029 42.7663C503.229 43.4118 504.387 44.0857 505.501 44.7877L506.034 43.9418C504.9 43.227 503.722 42.5415 502.503 41.8857L502.029 42.7663ZM508.809 47.0578C509.901 47.8751 510.935 48.7239 511.905 49.6035L512.577 48.8627C511.582 47.9607 510.524 47.092 509.408 46.2571L508.809 47.0578ZM514.715 52.4438C515.611 53.46 516.425 54.5106 517.151 55.595L517.982 55.0387C517.23 53.9152 516.388 52.8296 515.465 51.7826L514.715 52.4438ZM519.107 59.052C519.668 60.256 520.125 61.4964 520.471 62.7724L521.436 62.5107C521.075 61.1776 520.597 59.8835 520.013 58.6296L519.107 59.052Z" fill="#415F7D"/>
<path d="M527.417 117C527.417 115.527 526.223 114.333 524.75 114.333C523.277 114.333 522.083 115.527 522.083 117C522.083 118.473 523.277 119.667 524.75 119.667C526.223 119.667 527.417 118.473 527.417 117ZM395.75 122.345L393.082 127.466L398.85 127.216L395.75 122.345ZM524.25 117C524.25 117.633 524.228 118.262 524.185 118.888L525.182 118.957C525.227 118.308 525.25 117.656 525.25 117L524.25 117ZM523.666 122.625C523.408 123.854 523.068 125.067 522.648 126.26L523.591 126.592C524.025 125.358 524.378 124.103 524.645 122.83L523.666 122.625ZM521.171 129.741C520.615 130.858 519.987 131.956 519.291 133.031L520.131 133.574C520.846 132.469 521.493 131.339 522.067 130.186L521.171 129.741ZM517.071 136.101C516.291 137.073 515.453 138.024 514.56 138.95L515.28 139.644C516.193 138.697 517.051 137.723 517.851 136.726L517.071 136.101ZM511.807 141.578C510.87 142.403 509.887 143.205 508.86 143.982L509.463 144.779C510.509 143.988 511.511 143.17 512.468 142.328L511.807 141.578ZM505.74 146.178C504.693 146.865 503.609 147.528 502.491 148.166L502.986 149.035C504.122 148.386 505.224 147.713 506.289 147.015L505.74 146.178ZM499.121 149.961C497.996 150.52 496.84 151.056 495.657 151.567L496.054 152.485C497.253 151.967 498.424 151.424 499.566 150.857L499.121 149.961ZM492.116 152.991C490.935 153.432 489.73 153.85 488.503 154.242L488.807 155.195C490.05 154.797 491.27 154.375 492.466 153.928L492.116 152.991ZM484.836 155.323C483.619 155.652 482.382 155.958 481.128 156.239L481.346 157.215C482.615 156.93 483.866 156.621 485.097 156.288L484.836 155.323ZM477.379 156.995C476.135 157.219 474.874 157.419 473.6 157.595L473.737 158.585C475.024 158.408 476.298 158.205 477.556 157.979L477.379 156.995ZM469.8 158.04C468.542 158.163 467.271 158.261 465.989 158.335L466.047 159.334C467.342 159.259 468.625 159.159 469.897 159.036L469.8 158.04ZM462.168 158.482C461.531 158.494 460.891 158.5 460.25 158.5L460.25 159.5C460.898 159.5 461.543 159.494 462.187 159.482L462.168 158.482ZM460.25 158.5C459.58 158.5 458.908 158.493 458.235 158.48L458.215 159.48C458.895 159.493 459.573 159.5 460.25 159.5L460.25 158.5ZM454.202 158.326C452.862 158.249 451.519 158.147 450.178 158.021L450.084 159.016C451.438 159.144 452.792 159.247 454.145 159.324L454.202 158.326ZM446.168 157.567C444.832 157.391 443.501 157.191 442.177 156.966L442.01 157.952C443.346 158.179 444.69 158.381 446.038 158.559L446.168 157.567ZM438.212 156.216C436.89 155.94 435.579 155.639 434.281 155.314L434.038 156.284C435.348 156.612 436.673 156.916 438.008 157.195L438.212 156.216ZM430.388 154.252C429.09 153.869 427.809 153.46 426.551 153.027L426.226 153.973C427.498 154.411 428.793 154.824 430.105 155.211L430.388 154.252ZM422.77 151.623C421.509 151.119 420.276 150.589 419.075 150.033L418.655 150.941C419.873 151.505 421.122 152.042 422.399 152.552L422.77 151.623ZM415.471 148.234C414.271 147.588 413.113 146.914 411.999 146.212L411.466 147.058C412.6 147.773 413.778 148.459 414.997 149.114L415.471 148.234ZM408.691 143.942C407.599 143.125 406.565 142.276 405.595 141.396L404.923 142.137C405.918 143.039 406.976 143.908 408.092 144.743L408.691 143.942ZM402.785 138.556C401.889 137.54 401.075 136.489 400.349 135.405L399.518 135.961C400.27 137.085 401.112 138.17 402.035 139.217L402.785 138.556ZM398.393 131.948C397.832 130.744 397.375 129.504 397.029 128.228L396.064 128.489C396.425 129.822 396.903 131.116 397.487 132.37L398.393 131.948ZM527.417 117C527.417 115.527 526.223 114.333 524.75 114.333C523.277 114.333 522.083 115.527 522.083 117C522.083 118.473 523.277 119.667 524.75 119.667C526.223 119.667 527.417 118.473 527.417 117ZM395.75 122.345L393.082 127.466L398.85 127.216L395.75 122.345ZM524.25 117C524.25 117.633 524.228 118.262 524.185 118.888L525.182 118.957C525.227 118.308 525.25 117.656 525.25 117L524.25 117ZM523.666 122.625C523.408 123.854 523.068 125.067 522.648 126.26L523.591 126.592C524.025 125.358 524.378 124.103 524.645 122.83L523.666 122.625ZM521.171 129.741C520.615 130.858 519.987 131.956 519.291 133.031L520.131 133.574C520.846 132.469 521.493 131.339 522.067 130.186L521.171 129.741ZM517.071 136.101C516.291 137.073 515.453 138.024 514.56 138.95L515.28 139.644C516.193 138.697 517.051 137.723 517.851 136.726L517.071 136.101ZM511.807 141.578C510.87 142.403 509.887 143.205 508.86 143.982L509.463 144.779C510.509 143.988 511.511 143.17 512.468 142.328L511.807 141.578ZM505.74 146.178C504.693 146.865 503.609 147.528 502.491 148.166L502.986 149.035C504.122 148.386 505.224 147.713 506.289 147.015L505.74 146.178ZM499.121 149.961C497.996 150.52 496.84 151.056 495.657 151.567L496.054 152.485C497.253 151.967 498.424 151.424 499.566 150.857L499.121 149.961ZM492.116 152.991C490.935 153.432 489.73 153.85 488.503 154.242L488.807 155.195C490.05 154.797 491.27 154.375 492.466 153.928L492.116 152.991ZM484.836 155.323C483.619 155.652 482.382 155.958 481.128 156.239L481.346 157.215C482.615 156.93 483.866 156.621 485.097 156.288L484.836 155.323ZM477.379 156.995C476.135 157.219 474.874 157.419 473.6 157.595L473.737 158.585C475.024 158.408 476.298 158.205 477.556 157.979L477.379 156.995ZM469.8 158.04C468.542 158.163 467.271 158.261 465.989 158.335L466.047 159.334C467.342 159.259 468.625 159.159 469.897 159.036L469.8 158.04ZM462.168 158.482C461.531 158.494 460.891 158.5 460.25 158.5L460.25 159.5C460.898 159.5 461.543 159.494 462.187 159.482L462.168 158.482ZM460.25 158.5C459.58 158.5 458.908 158.493 458.235 158.48L458.215 159.48C458.895 159.493 459.573 159.5 460.25 159.5L460.25 158.5ZM454.202 158.326C452.862 158.249 451.519 158.147 450.178 158.021L450.084 159.016C451.438 159.144 452.792 159.247 454.145 159.324L454.202 158.326ZM446.168 157.567C444.832 157.391 443.501 157.191 442.177 156.966L442.01 157.952C443.346 158.179 444.69 158.381 446.038 158.559L446.168 157.567ZM438.212 156.216C436.89 155.94 435.579 155.639 434.281 155.314L434.038 156.284C435.348 156.612 436.673 156.916 438.008 157.195L438.212 156.216ZM430.388 154.252C429.09 153.869 427.809 153.46 426.551 153.027L426.226 153.973C427.498 154.411 428.793 154.824 430.105 155.211L430.388 154.252ZM422.77 151.623C421.509 151.119 420.276 150.589 419.075 150.033L418.655 150.941C419.873 151.505 421.122 152.042 422.399 152.552L422.77 151.623ZM415.471 148.234C414.271 147.588 413.113 146.914 411.999 146.212L411.466 147.058C412.6 147.773 413.778 148.459 414.997 149.114L415.471 148.234ZM408.691 143.942C407.599 143.125 406.565 142.276 405.595 141.396L404.923 142.137C405.918 143.039 406.976 143.908 408.092 144.743L408.691 143.942ZM402.785 138.556C401.889 137.54 401.075 136.489 400.349 135.405L399.518 135.961C400.27 137.085 401.112 138.17 402.035 139.217L402.785 138.556ZM398.393 131.948C397.832 130.744 397.375 129.504 397.029 128.228L396.064 128.489C396.425 129.822 396.903 131.116 397.487 132.37L398.393 131.948Z" fill="#415F7D"/>
<path d="M538.442 138V135.768H533.05V134.648L536.906 126.48H538.226L534.37 134.648H538.442V131.288H539.626V134.648H540.882V135.768H539.626V138H538.442ZM549.363 138.24C548.557 138.24 547.867 138.04 547.291 137.64C546.72 137.235 546.283 136.688 545.979 136C545.68 135.312 545.531 134.536 545.531 133.672C545.531 132.813 545.68 132.04 545.979 131.352C546.283 130.664 546.717 130.12 547.283 129.72C547.848 129.32 548.525 129.12 549.315 129.12C549.917 129.12 550.448 129.232 550.907 129.456C551.365 129.68 551.752 129.989 552.067 130.384V126.48H553.251V138H552.195V136.8C551.88 137.248 551.485 137.6 551.011 137.856C550.541 138.112 549.992 138.24 549.363 138.24ZM549.483 137.144C550.096 137.144 550.603 136.995 551.003 136.696C551.403 136.392 551.701 135.979 551.899 135.456C552.096 134.933 552.195 134.339 552.195 133.672C552.195 132.659 551.971 131.829 551.523 131.184C551.08 130.539 550.408 130.216 549.507 130.216C548.888 130.216 548.376 130.368 547.971 130.672C547.571 130.976 547.272 131.389 547.075 131.912C546.877 132.435 546.779 133.021 546.779 133.672C546.779 134.328 546.877 134.917 547.075 135.44C547.277 135.963 547.579 136.379 547.979 136.688C548.379 136.992 548.88 137.144 549.483 137.144ZM557.967 138.24C557.316 138.24 556.77 138.123 556.327 137.888C555.89 137.653 555.562 137.341 555.343 136.952C555.124 136.563 555.015 136.139 555.015 135.68C555.015 134.971 555.22 134.419 555.631 134.024C556.042 133.624 556.57 133.339 557.215 133.168C557.604 133.072 558.031 132.987 558.495 132.912C558.959 132.837 559.42 132.771 559.879 132.712C560.343 132.653 560.767 132.6 561.151 132.552C561.14 131.768 560.959 131.187 560.607 130.808C560.255 130.424 559.668 130.232 558.847 130.232C558.255 130.232 557.754 130.365 557.343 130.632C556.938 130.899 556.652 131.32 556.487 131.896L555.343 131.56C555.54 130.787 555.938 130.187 556.535 129.76C557.132 129.333 557.908 129.12 558.863 129.12C559.652 129.12 560.322 129.269 560.871 129.568C561.426 129.861 561.818 130.288 562.047 130.848C562.154 131.099 562.223 131.379 562.255 131.688C562.287 131.997 562.303 132.312 562.303 132.632V138H561.255V136.576C560.572 137.685 559.476 138.24 557.967 138.24ZM558.103 137.224C558.93 137.224 559.594 137.008 560.095 136.576C560.602 136.144 560.911 135.603 561.023 134.952C561.071 134.739 561.1 134.507 561.111 134.256C561.127 134 561.135 133.773 561.135 133.576C560.57 133.645 559.972 133.72 559.343 133.8C558.714 133.88 558.162 133.984 557.687 134.112C557.319 134.219 556.978 134.389 556.663 134.624C556.348 134.859 556.191 135.211 556.191 135.68C556.191 135.931 556.252 136.173 556.375 136.408C556.503 136.643 556.706 136.837 556.983 136.992C557.266 137.147 557.639 137.224 558.103 137.224ZM565.133 141.84L566.557 137.984L563.045 129.36H564.293L567.125 136.464L569.749 129.36H570.949L566.309 141.84H565.133ZM575.563 138.232C574.549 138.232 573.715 138.013 573.059 137.576C572.408 137.139 572.008 136.531 571.859 135.752L573.059 135.552C573.187 136.048 573.477 136.44 573.931 136.728C574.389 137.016 574.955 137.16 575.627 137.16C576.283 137.16 576.8 137.024 577.179 136.752C577.557 136.475 577.747 136.099 577.747 135.624C577.747 135.357 577.685 135.141 577.563 134.976C577.44 134.805 577.195 134.648 576.827 134.504C576.464 134.36 575.917 134.189 575.187 133.992C574.403 133.779 573.787 133.565 573.339 133.352C572.896 133.139 572.581 132.893 572.395 132.616C572.213 132.333 572.123 131.989 572.123 131.584C572.123 130.848 572.424 130.253 573.027 129.8C573.635 129.347 574.427 129.12 575.403 129.12C576.053 129.12 576.635 129.227 577.147 129.44C577.664 129.648 578.08 129.941 578.395 130.32C578.709 130.699 578.896 131.139 578.955 131.64L577.755 131.856C577.669 131.349 577.416 130.949 576.995 130.656C576.573 130.357 576.037 130.203 575.387 130.192C574.773 130.176 574.275 130.293 573.891 130.544C573.507 130.789 573.315 131.117 573.315 131.528C573.315 131.757 573.384 131.955 573.523 132.12C573.661 132.28 573.912 132.432 574.275 132.576C574.643 132.72 575.165 132.877 575.843 133.048C576.637 133.251 577.261 133.464 577.715 133.688C578.168 133.912 578.491 134.176 578.683 134.48C578.875 134.784 578.971 135.16 578.971 135.608C578.971 136.424 578.667 137.067 578.059 137.536C577.456 138 576.624 138.232 575.563 138.232Z" fill="#415F7D"/>
<path d="M757.442 138V135.768H752.05V134.648L755.906 126.48H757.226L753.37 134.648H757.442V131.288H758.626V134.648H759.882V135.768H758.626V138H757.442ZM768.363 138.24C767.557 138.24 766.867 138.04 766.291 137.64C765.72 137.235 765.283 136.688 764.979 136C764.68 135.312 764.531 134.536 764.531 133.672C764.531 132.813 764.68 132.04 764.979 131.352C765.283 130.664 765.717 130.12 766.283 129.72C766.848 129.32 767.525 129.12 768.315 129.12C768.917 129.12 769.448 129.232 769.907 129.456C770.365 129.68 770.752 129.989 771.067 130.384V126.48H772.251V138H771.195V136.8C770.88 137.248 770.485 137.6 770.011 137.856C769.541 138.112 768.992 138.24 768.363 138.24ZM768.483 137.144C769.096 137.144 769.603 136.995 770.003 136.696C770.403 136.392 770.701 135.979 770.899 135.456C771.096 134.933 771.195 134.339 771.195 133.672C771.195 132.659 770.971 131.829 770.523 131.184C770.08 130.539 769.408 130.216 768.507 130.216C767.888 130.216 767.376 130.368 766.971 130.672C766.571 130.976 766.272 131.389 766.075 131.912C765.877 132.435 765.779 133.021 765.779 133.672C765.779 134.328 765.877 134.917 766.075 135.44C766.277 135.963 766.579 136.379 766.979 136.688C767.379 136.992 767.88 137.144 768.483 137.144ZM776.967 138.24C776.316 138.24 775.77 138.123 775.327 137.888C774.89 137.653 774.562 137.341 774.343 136.952C774.124 136.563 774.015 136.139 774.015 135.68C774.015 134.971 774.22 134.419 774.631 134.024C775.042 133.624 775.57 133.339 776.215 133.168C776.604 133.072 777.031 132.987 777.495 132.912C777.959 132.837 778.42 132.771 778.879 132.712C779.343 132.653 779.767 132.6 780.151 132.552C780.14 131.768 779.959 131.187 779.607 130.808C779.255 130.424 778.668 130.232 777.847 130.232C777.255 130.232 776.754 130.365 776.343 130.632C775.938 130.899 775.652 131.32 775.487 131.896L774.343 131.56C774.54 130.787 774.938 130.187 775.535 129.76C776.132 129.333 776.908 129.12 777.863 129.12C778.652 129.12 779.322 129.269 779.871 129.568C780.426 129.861 780.818 130.288 781.047 130.848C781.154 131.099 781.223 131.379 781.255 131.688C781.287 131.997 781.303 132.312 781.303 132.632V138H780.255V136.576C779.572 137.685 778.476 138.24 776.967 138.24ZM777.103 137.224C777.93 137.224 778.594 137.008 779.095 136.576C779.602 136.144 779.911 135.603 780.023 134.952C780.071 134.739 780.1 134.507 780.111 134.256C780.127 134 780.135 133.773 780.135 133.576C779.57 133.645 778.972 133.72 778.343 133.8C777.714 133.88 777.162 133.984 776.687 134.112C776.319 134.219 775.978 134.389 775.663 134.624C775.348 134.859 775.191 135.211 775.191 135.68C775.191 135.931 775.252 136.173 775.375 136.408C775.503 136.643 775.706 136.837 775.983 136.992C776.266 137.147 776.639 137.224 777.103 137.224ZM784.133 141.84L785.557 137.984L782.045 129.36H783.293L786.125 136.464L788.749 129.36H789.949L785.309 141.84H784.133ZM794.563 138.232C793.549 138.232 792.715 138.013 792.059 137.576C791.408 137.139 791.008 136.531 790.859 135.752L792.059 135.552C792.187 136.048 792.477 136.44 792.931 136.728C793.389 137.016 793.955 137.16 794.627 137.16C795.283 137.16 795.8 137.024 796.179 136.752C796.557 136.475 796.747 136.099 796.747 135.624C796.747 135.357 796.685 135.141 796.563 134.976C796.44 134.805 796.195 134.648 795.827 134.504C795.464 134.36 794.917 134.189 794.187 133.992C793.403 133.779 792.787 133.565 792.339 133.352C791.896 133.139 791.581 132.893 791.395 132.616C791.213 132.333 791.123 131.989 791.123 131.584C791.123 130.848 791.424 130.253 792.027 129.8C792.635 129.347 793.427 129.12 794.403 129.12C795.053 129.12 795.635 129.227 796.147 129.44C796.664 129.648 797.08 129.941 797.395 130.32C797.709 130.699 797.896 131.139 797.955 131.64L796.755 131.856C796.669 131.349 796.416 130.949 795.995 130.656C795.573 130.357 795.037 130.203 794.387 130.192C793.773 130.176 793.275 130.293 792.891 130.544C792.507 130.789 792.315 131.117 792.315 131.528C792.315 131.757 792.384 131.955 792.523 132.12C792.661 132.28 792.912 132.432 793.275 132.576C793.643 132.72 794.165 132.877 794.843 133.048C795.637 133.251 796.261 133.464 796.715 133.688C797.168 133.912 797.491 134.176 797.683 134.48C797.875 134.784 797.971 135.16 797.971 135.608C797.971 136.424 797.667 137.067 797.059 137.536C796.456 138 795.624 138.232 794.563 138.232Z" fill="#415F7D"/>
<path d="M255.442 138V135.768H250.05V134.648L253.906 126.48H255.226L251.37 134.648H255.442V131.288H256.626V134.648H257.882V135.768H256.626V138H255.442ZM266.363 138.24C265.557 138.24 264.867 138.04 264.291 137.64C263.72 137.235 263.283 136.688 262.979 136C262.68 135.312 262.531 134.536 262.531 133.672C262.531 132.813 262.68 132.04 262.979 131.352C263.283 130.664 263.717 130.12 264.283 129.72C264.848 129.32 265.525 129.12 266.315 129.12C266.917 129.12 267.448 129.232 267.907 129.456C268.365 129.68 268.752 129.989 269.067 130.384V126.48H270.251V138H269.195V136.8C268.88 137.248 268.485 137.6 268.011 137.856C267.541 138.112 266.992 138.24 266.363 138.24ZM266.483 137.144C267.096 137.144 267.603 136.995 268.003 136.696C268.403 136.392 268.701 135.979 268.899 135.456C269.096 134.933 269.195 134.339 269.195 133.672C269.195 132.659 268.971 131.829 268.523 131.184C268.08 130.539 267.408 130.216 266.507 130.216C265.888 130.216 265.376 130.368 264.971 130.672C264.571 130.976 264.272 131.389 264.075 131.912C263.877 132.435 263.779 133.021 263.779 133.672C263.779 134.328 263.877 134.917 264.075 135.44C264.277 135.963 264.579 136.379 264.979 136.688C265.379 136.992 265.88 137.144 266.483 137.144ZM274.967 138.24C274.316 138.24 273.77 138.123 273.327 137.888C272.89 137.653 272.562 137.341 272.343 136.952C272.124 136.563 272.015 136.139 272.015 135.68C272.015 134.971 272.22 134.419 272.631 134.024C273.042 133.624 273.57 133.339 274.215 133.168C274.604 133.072 275.031 132.987 275.495 132.912C275.959 132.837 276.42 132.771 276.879 132.712C277.343 132.653 277.767 132.6 278.151 132.552C278.14 131.768 277.959 131.187 277.607 130.808C277.255 130.424 276.668 130.232 275.847 130.232C275.255 130.232 274.754 130.365 274.343 130.632C273.938 130.899 273.652 131.32 273.487 131.896L272.343 131.56C272.54 130.787 272.938 130.187 273.535 129.76C274.132 129.333 274.908 129.12 275.863 129.12C276.652 129.12 277.322 129.269 277.871 129.568C278.426 129.861 278.818 130.288 279.047 130.848C279.154 131.099 279.223 131.379 279.255 131.688C279.287 131.997 279.303 132.312 279.303 132.632V138H278.255V136.576C277.572 137.685 276.476 138.24 274.967 138.24ZM275.103 137.224C275.93 137.224 276.594 137.008 277.095 136.576C277.602 136.144 277.911 135.603 278.023 134.952C278.071 134.739 278.1 134.507 278.111 134.256C278.127 134 278.135 133.773 278.135 133.576C277.57 133.645 276.972 133.72 276.343 133.8C275.714 133.88 275.162 133.984 274.687 134.112C274.319 134.219 273.978 134.389 273.663 134.624C273.348 134.859 273.191 135.211 273.191 135.68C273.191 135.931 273.252 136.173 273.375 136.408C273.503 136.643 273.706 136.837 273.983 136.992C274.266 137.147 274.639 137.224 275.103 137.224ZM282.133 141.84L283.557 137.984L280.045 129.36H281.293L284.125 136.464L286.749 129.36H287.949L283.309 141.84H282.133ZM292.563 138.232C291.549 138.232 290.715 138.013 290.059 137.576C289.408 137.139 289.008 136.531 288.859 135.752L290.059 135.552C290.187 136.048 290.477 136.44 290.931 136.728C291.389 137.016 291.955 137.16 292.627 137.16C293.283 137.16 293.8 137.024 294.179 136.752C294.557 136.475 294.747 136.099 294.747 135.624C294.747 135.357 294.685 135.141 294.563 134.976C294.44 134.805 294.195 134.648 293.827 134.504C293.464 134.36 292.917 134.189 292.187 133.992C291.403 133.779 290.787 133.565 290.339 133.352C289.896 133.139 289.581 132.893 289.395 132.616C289.213 132.333 289.123 131.989 289.123 131.584C289.123 130.848 289.424 130.253 290.027 129.8C290.635 129.347 291.427 129.12 292.403 129.12C293.053 129.12 293.635 129.227 294.147 129.44C294.664 129.648 295.08 129.941 295.395 130.32C295.709 130.699 295.896 131.139 295.955 131.64L294.755 131.856C294.669 131.349 294.416 130.949 293.995 130.656C293.573 130.357 293.037 130.203 292.387 130.192C291.773 130.176 291.275 130.293 290.891 130.544C290.507 130.789 290.315 131.117 290.315 131.528C290.315 131.757 290.384 131.955 290.523 132.12C290.661 132.28 290.912 132.432 291.275 132.576C291.643 132.72 292.165 132.877 292.843 133.048C293.637 133.251 294.261 133.464 294.715 133.688C295.168 133.912 295.491 134.176 295.683 134.48C295.875 134.784 295.971 135.16 295.971 135.608C295.971 136.424 295.667 137.067 295.059 137.536C294.456 138 293.624 138.232 292.563 138.232Z" fill="#415F7D"/>
</svg>
